G04*
G04 #@! TF.GenerationSoftware,Altium Limited,Altium Designer,21.3.2 (30)*
G04*
G04 Layer_Color=32896*
%FSLAX24Y24*%
%MOIN*%
G70*
G04*
G04 #@! TF.SameCoordinates,11860592-E2A6-4BD8-AD77-BCEE7ED4812A*
G04*
G04*
G04 #@! TF.FilePolarity,Positive*
G04*
G01*
G75*
%ADD11C,0.0059*%
%ADD35C,0.0091*%
%ADD36C,0.0050*%
G36*
X558Y-17017D02*
X193Y-17228D01*
Y-16808D01*
X558Y-17017D01*
D02*
G37*
G36*
X1081Y-16804D02*
X1085Y-16804D01*
X1091Y-16805D01*
X1096Y-16807D01*
X1103Y-16809D01*
X1108Y-16811D01*
X1113Y-16814D01*
X1119Y-16817D01*
X1453Y-17011D01*
X1461Y-17016D01*
X1468Y-17021D01*
X1472Y-17025D01*
X1477Y-17029D01*
X1482Y-17035D01*
X1484Y-17038D01*
X-280Y-18056D01*
X-280Y-17098D01*
X-280Y-17090D01*
X-279Y-17082D01*
X-277Y-17073D01*
X-274Y-17062D01*
X-268Y-17050D01*
X-262Y-17040D01*
X-251Y-17027D01*
X-244Y-17021D01*
X-235Y-17015D01*
X-230Y-17012D01*
X112Y-16814D01*
X116Y-16812D01*
X123Y-16809D01*
X131Y-16806D01*
Y-17337D01*
X1031Y-16816D01*
X1039Y-16812D01*
X1046Y-16809D01*
X1051Y-16807D01*
X1059Y-16805D01*
X1065Y-16804D01*
X1070Y-16804D01*
X1076Y-16803D01*
X1081Y-16804D01*
D02*
G37*
G36*
X-745Y-17701D02*
X-858Y-17701D01*
Y-17277D01*
X-1160Y-17701D01*
X-1265D01*
X-1265Y-17082D01*
X-1152Y-17082D01*
Y-17507D01*
X-850Y-17082D01*
X-745D01*
X-745Y-17701D01*
D02*
G37*
G36*
X-3905Y-17069D02*
X-3894Y-17070D01*
X-3879Y-17071D01*
X-3864Y-17073D01*
X-3849Y-17075D01*
X-3835Y-17078D01*
X-3819Y-17082D01*
X-3809Y-17085D01*
X-3798Y-17088D01*
X-3787Y-17092D01*
X-3776Y-17096D01*
X-3765Y-17101D01*
X-3753Y-17107D01*
X-3747Y-17110D01*
X-3734Y-17118D01*
X-3728Y-17122D01*
X-3720Y-17127D01*
X-3713Y-17132D01*
X-3704Y-17139D01*
X-3694Y-17147D01*
X-3687Y-17154D01*
X-3674Y-17166D01*
X-3661Y-17180D01*
X-3648Y-17197D01*
X-3637Y-17212D01*
X-3631Y-17223D01*
X-3626Y-17233D01*
X-3622Y-17241D01*
X-3618Y-17248D01*
X-3615Y-17255D01*
X-3612Y-17262D01*
X-3608Y-17274D01*
X-3606Y-17280D01*
X-3601Y-17296D01*
X-3597Y-17311D01*
X-3595Y-17321D01*
X-3593Y-17335D01*
X-3592Y-17344D01*
X-3590Y-17357D01*
X-3589Y-17369D01*
X-3589Y-17379D01*
X-3589Y-17392D01*
X-3589Y-17405D01*
X-3590Y-17418D01*
X-3590Y-17427D01*
X-3592Y-17441D01*
X-3594Y-17455D01*
X-3597Y-17469D01*
X-3600Y-17484D01*
X-3603Y-17495D01*
X-3607Y-17506D01*
X-3611Y-17518D01*
X-3617Y-17532D01*
X-3624Y-17548D01*
X-3629Y-17556D01*
X-3635Y-17567D01*
X-3643Y-17579D01*
X-3650Y-17589D01*
X-3660Y-17602D01*
X-3670Y-17614D01*
X-3685Y-17628D01*
X-3697Y-17639D01*
X-3715Y-17653D01*
X-3723Y-17658D01*
X-3730Y-17663D01*
X-3749Y-17674D01*
X-3755Y-17677D01*
X-3767Y-17682D01*
X-3772Y-17685D01*
X-3783Y-17689D01*
X-3794Y-17693D01*
X-3804Y-17697D01*
X-3814Y-17700D01*
X-3825Y-17703D01*
X-3837Y-17706D01*
X-3847Y-17708D01*
X-3859Y-17710D01*
X-3869Y-17711D01*
X-3879Y-17712D01*
X-3889Y-17713D01*
X-3899Y-17714D01*
X-3913Y-17714D01*
X-3926Y-17714D01*
X-3943Y-17714D01*
X-3953Y-17713D01*
X-3964Y-17713D01*
X-3972Y-17712D01*
X-3985Y-17710D01*
X-3996Y-17708D01*
X-4009Y-17706D01*
X-4022Y-17703D01*
X-4031Y-17700D01*
X-4045Y-17696D01*
X-4061Y-17690D01*
X-4078Y-17684D01*
X-4094Y-17676D01*
X-4109Y-17669D01*
X-4125Y-17659D01*
X-4144Y-17646D01*
X-4079Y-17547D01*
X-4070Y-17553D01*
X-4059Y-17560D01*
X-4042Y-17570D01*
X-4024Y-17578D01*
X-4015Y-17581D01*
X-4004Y-17585D01*
X-3997Y-17588D01*
X-3984Y-17591D01*
X-3972Y-17594D01*
X-3960Y-17596D01*
X-3945Y-17598D01*
X-3929Y-17598D01*
X-3918Y-17599D01*
X-3900Y-17598D01*
X-3883Y-17596D01*
X-3869Y-17593D01*
X-3858Y-17590D01*
X-3847Y-17587D01*
X-3835Y-17583D01*
X-3823Y-17577D01*
X-3814Y-17573D01*
X-3805Y-17567D01*
X-3799Y-17564D01*
X-3794Y-17560D01*
X-3787Y-17555D01*
X-3778Y-17548D01*
X-3769Y-17540D01*
X-3761Y-17530D01*
X-3749Y-17516D01*
X-3740Y-17501D01*
X-3734Y-17490D01*
X-3728Y-17477D01*
X-3724Y-17466D01*
X-3720Y-17452D01*
X-3717Y-17440D01*
X-3715Y-17425D01*
X-3713Y-17411D01*
X-3713Y-17395D01*
X-3713Y-17378D01*
X-3714Y-17366D01*
X-3715Y-17355D01*
X-3717Y-17343D01*
X-3720Y-17334D01*
X-3722Y-17323D01*
X-3725Y-17316D01*
X-3729Y-17305D01*
X-3733Y-17296D01*
X-3738Y-17287D01*
X-3745Y-17274D01*
X-3752Y-17264D01*
X-3761Y-17253D01*
X-3770Y-17244D01*
X-3776Y-17237D01*
X-3785Y-17230D01*
X-3792Y-17225D01*
X-3803Y-17217D01*
X-3812Y-17211D01*
X-3821Y-17207D01*
X-3833Y-17201D01*
X-3841Y-17198D01*
X-3848Y-17196D01*
X-3859Y-17193D01*
X-3870Y-17190D01*
X-3877Y-17189D01*
X-3884Y-17188D01*
X-3894Y-17186D01*
X-3901Y-17186D01*
X-3908Y-17185D01*
X-3919Y-17185D01*
X-3925Y-17185D01*
X-3931Y-17185D01*
X-3940Y-17185D01*
X-3951Y-17186D01*
X-3962Y-17188D01*
X-3972Y-17189D01*
X-3982Y-17192D01*
X-3993Y-17194D01*
X-4007Y-17199D01*
X-4017Y-17203D01*
X-4029Y-17208D01*
X-4043Y-17214D01*
X-4054Y-17220D01*
X-4064Y-17226D01*
X-4077Y-17235D01*
X-4079Y-17236D01*
X-4144Y-17137D01*
X-4136Y-17132D01*
X-4126Y-17125D01*
X-4117Y-17119D01*
X-4106Y-17113D01*
X-4096Y-17108D01*
X-4089Y-17105D01*
X-4074Y-17098D01*
X-4058Y-17091D01*
X-4038Y-17085D01*
X-4021Y-17080D01*
X-4003Y-17076D01*
X-3988Y-17074D01*
X-3976Y-17072D01*
X-3960Y-17070D01*
X-3946Y-17069D01*
X-3930Y-17069D01*
X-3919Y-17069D01*
X-3905Y-17069D01*
D02*
G37*
G36*
X-2149Y-17701D02*
X-2262D01*
Y-17454D01*
X-2305D01*
X-2473Y-17701D01*
X-2615Y-17701D01*
X-2432Y-17449D01*
X-2438Y-17448D01*
X-2445Y-17446D01*
X-2452Y-17444D01*
X-2460Y-17442D01*
X-2469Y-17438D01*
X-2477Y-17435D01*
X-2485Y-17430D01*
X-2491Y-17427D01*
X-2501Y-17421D01*
X-2509Y-17416D01*
X-2518Y-17409D01*
X-2527Y-17401D01*
X-2531Y-17396D01*
X-2538Y-17388D01*
X-2544Y-17379D01*
X-2549Y-17372D01*
X-2553Y-17366D01*
X-2558Y-17357D01*
X-2561Y-17349D01*
X-2565Y-17339D01*
X-2568Y-17333D01*
X-2569Y-17327D01*
X-2571Y-17321D01*
X-2573Y-17313D01*
X-2575Y-17302D01*
X-2576Y-17292D01*
X-2577Y-17280D01*
X-2577Y-17272D01*
X-2577Y-17264D01*
X-2577Y-17257D01*
X-2576Y-17250D01*
X-2575Y-17239D01*
X-2574Y-17234D01*
X-2573Y-17227D01*
X-2571Y-17219D01*
X-2569Y-17210D01*
X-2567Y-17204D01*
X-2565Y-17198D01*
X-2562Y-17191D01*
X-2559Y-17184D01*
X-2555Y-17175D01*
X-2548Y-17164D01*
X-2540Y-17152D01*
X-2534Y-17146D01*
X-2527Y-17138D01*
X-2520Y-17131D01*
X-2514Y-17126D01*
X-2506Y-17120D01*
X-2499Y-17115D01*
X-2493Y-17111D01*
X-2484Y-17106D01*
X-2473Y-17101D01*
X-2461Y-17096D01*
X-2449Y-17092D01*
X-2441Y-17090D01*
X-2430Y-17087D01*
X-2421Y-17086D01*
X-2407Y-17084D01*
X-2397Y-17083D01*
X-2386Y-17082D01*
X-2377Y-17082D01*
X-2149D01*
X-2149Y-17701D01*
D02*
G37*
G36*
X-3353Y-17082D02*
Y-17701D01*
X-3467Y-17701D01*
Y-17082D01*
X-3353Y-17082D01*
D02*
G37*
G36*
X-2713Y-17701D02*
X-2911D01*
X-2924Y-17701D01*
X-2946Y-17700D01*
X-2976Y-17696D01*
X-2985Y-17694D01*
X-2994Y-17693D01*
X-3008Y-17690D01*
X-3021Y-17686D01*
X-3034Y-17682D01*
X-3044Y-17678D01*
X-3053Y-17675D01*
X-3062Y-17671D01*
X-3072Y-17666D01*
X-3082Y-17661D01*
X-3093Y-17655D01*
X-3105Y-17648D01*
X-3117Y-17639D01*
X-3133Y-17626D01*
X-3140Y-17620D01*
X-3153Y-17608D01*
X-3163Y-17596D01*
X-3172Y-17585D01*
X-3180Y-17573D01*
X-3188Y-17562D01*
X-3197Y-17546D01*
X-3200Y-17539D01*
X-3206Y-17527D01*
X-3211Y-17516D01*
X-3214Y-17506D01*
X-3219Y-17493D01*
X-3221Y-17484D01*
X-3223Y-17475D01*
X-3224Y-17471D01*
X-3227Y-17459D01*
X-3229Y-17447D01*
X-3230Y-17436D01*
X-3231Y-17424D01*
X-3232Y-17417D01*
X-3232Y-17406D01*
X-3233Y-17396D01*
X-3232Y-17384D01*
X-3232Y-17374D01*
X-3232Y-17366D01*
X-3231Y-17354D01*
X-3230Y-17347D01*
X-3229Y-17336D01*
X-3226Y-17323D01*
X-3224Y-17311D01*
X-3221Y-17299D01*
X-3218Y-17290D01*
X-3214Y-17275D01*
X-3210Y-17265D01*
X-3205Y-17254D01*
X-3199Y-17241D01*
X-3191Y-17226D01*
X-3185Y-17216D01*
X-3177Y-17205D01*
X-3169Y-17194D01*
X-3161Y-17184D01*
X-3151Y-17173D01*
X-3138Y-17161D01*
X-3129Y-17153D01*
X-3121Y-17147D01*
X-3114Y-17142D01*
X-3108Y-17138D01*
X-3097Y-17130D01*
X-3091Y-17127D01*
X-3086Y-17124D01*
X-3076Y-17119D01*
X-3061Y-17112D01*
X-3052Y-17108D01*
X-3043Y-17105D01*
X-3034Y-17101D01*
X-3025Y-17098D01*
X-3016Y-17096D01*
X-3012Y-17095D01*
X-3003Y-17092D01*
X-2989Y-17090D01*
X-2972Y-17087D01*
X-2959Y-17085D01*
X-2946Y-17084D01*
X-2933Y-17083D01*
X-2920Y-17082D01*
X-2713Y-17082D01*
X-2713Y-17701D01*
D02*
G37*
G36*
X-1688Y-17069D02*
X-1675Y-17070D01*
X-1661Y-17071D01*
X-1648Y-17073D01*
X-1633Y-17075D01*
X-1619Y-17078D01*
X-1603Y-17082D01*
X-1587Y-17087D01*
X-1570Y-17094D01*
X-1551Y-17102D01*
X-1541Y-17107D01*
X-1531Y-17113D01*
X-1519Y-17120D01*
X-1505Y-17130D01*
X-1488Y-17143D01*
X-1476Y-17154D01*
X-1463Y-17166D01*
X-1449Y-17183D01*
X-1437Y-17198D01*
X-1426Y-17215D01*
X-1418Y-17228D01*
X-1413Y-17239D01*
X-1408Y-17249D01*
X-1404Y-17257D01*
X-1398Y-17274D01*
X-1396Y-17281D01*
X-1391Y-17295D01*
X-1388Y-17308D01*
X-1386Y-17314D01*
X-1384Y-17326D01*
X-1382Y-17338D01*
X-1380Y-17354D01*
X-1379Y-17366D01*
X-1379Y-17381D01*
X-1378Y-17392D01*
X-1379Y-17404D01*
X-1379Y-17419D01*
X-1380Y-17430D01*
X-1382Y-17447D01*
X-1386Y-17465D01*
X-1388Y-17478D01*
X-1392Y-17491D01*
X-1397Y-17505D01*
X-1402Y-17521D01*
X-1406Y-17530D01*
X-1410Y-17540D01*
X-1422Y-17562D01*
X-1432Y-17577D01*
X-1437Y-17585D01*
X-1445Y-17596D01*
X-1452Y-17605D01*
X-1460Y-17614D01*
X-1471Y-17624D01*
X-1485Y-17638D01*
X-1495Y-17646D01*
X-1511Y-17657D01*
X-1523Y-17666D01*
X-1534Y-17672D01*
X-1545Y-17678D01*
X-1555Y-17683D01*
X-1564Y-17687D01*
X-1573Y-17690D01*
X-1581Y-17694D01*
X-1589Y-17696D01*
X-1605Y-17701D01*
X-1613Y-17703D01*
X-1620Y-17705D01*
X-1627Y-17707D01*
X-1634Y-17708D01*
X-1642Y-17710D01*
X-1648Y-17711D01*
X-1655Y-17711D01*
X-1669Y-17713D01*
X-1682Y-17714D01*
X-1688Y-17714D01*
X-1702Y-17714D01*
X-1707Y-17714D01*
X-1720Y-17714D01*
X-1734Y-17713D01*
X-1741Y-17712D01*
X-1755Y-17711D01*
X-1763Y-17709D01*
X-1778Y-17707D01*
X-1785Y-17705D01*
X-1793Y-17703D01*
X-1801Y-17701D01*
X-1809Y-17698D01*
X-1818Y-17696D01*
X-1835Y-17689D01*
X-1844Y-17685D01*
X-1854Y-17681D01*
X-1864Y-17676D01*
X-1875Y-17670D01*
X-1886Y-17662D01*
X-1900Y-17653D01*
X-1912Y-17644D01*
X-1923Y-17634D01*
X-1933Y-17626D01*
X-1944Y-17614D01*
X-1955Y-17602D01*
X-1963Y-17591D01*
X-1972Y-17579D01*
X-1977Y-17571D01*
X-1982Y-17562D01*
X-1989Y-17550D01*
X-1995Y-17539D01*
X-1999Y-17529D01*
X-2003Y-17520D01*
X-2006Y-17512D01*
X-2009Y-17504D01*
X-2011Y-17497D01*
X-2013Y-17490D01*
X-2015Y-17483D01*
X-2017Y-17476D01*
X-2020Y-17464D01*
X-2021Y-17457D01*
X-2023Y-17446D01*
X-2024Y-17434D01*
X-2025Y-17423D01*
X-2026Y-17413D01*
X-2026Y-17402D01*
X-2027Y-17392D01*
X-2027Y-17382D01*
X-2026Y-17372D01*
X-2025Y-17361D01*
X-2025Y-17356D01*
X-2024Y-17345D01*
X-2022Y-17333D01*
X-2020Y-17321D01*
X-2019Y-17314D01*
X-2015Y-17301D01*
X-2013Y-17294D01*
X-2009Y-17279D01*
X-2006Y-17272D01*
X-2003Y-17263D01*
X-1999Y-17254D01*
X-1995Y-17244D01*
X-1989Y-17233D01*
X-1982Y-17220D01*
X-1970Y-17201D01*
X-1956Y-17183D01*
X-1945Y-17171D01*
X-1933Y-17158D01*
X-1918Y-17144D01*
X-1901Y-17131D01*
X-1888Y-17122D01*
X-1876Y-17114D01*
X-1865Y-17108D01*
X-1855Y-17103D01*
X-1846Y-17099D01*
X-1836Y-17095D01*
X-1828Y-17091D01*
X-1803Y-17083D01*
X-1787Y-17079D01*
X-1772Y-17075D01*
X-1757Y-17073D01*
X-1750Y-17072D01*
X-1736Y-17070D01*
X-1719Y-17069D01*
X-1702Y-17069D01*
X-1688Y-17069D01*
D02*
G37*
G36*
X-1207Y-18094D02*
X-1249D01*
X-1271Y-17946D01*
X-1316Y-18060D01*
X-1346D01*
X-1390Y-17946D01*
X-1413Y-18094D01*
X-1455D01*
X-1414Y-17864D01*
X-1383D01*
X-1330Y-17994D01*
X-1279Y-17864D01*
X-1248D01*
X-1207Y-18094D01*
D02*
G37*
G36*
X-2279Y-18094D02*
X-2321D01*
Y-17937D01*
X-2432Y-18094D01*
X-2471Y-18094D01*
Y-17865D01*
X-2430Y-17865D01*
Y-18022D01*
X-2318Y-17865D01*
X-2279D01*
Y-18094D01*
D02*
G37*
G36*
X-2855Y-18003D02*
X-2855Y-18009D01*
X-2855Y-18015D01*
X-2856Y-18022D01*
X-2858Y-18031D01*
X-2860Y-18037D01*
X-2862Y-18044D01*
X-2864Y-18050D01*
X-2867Y-18055D01*
X-2869Y-18059D01*
X-2875Y-18066D01*
X-2884Y-18076D01*
X-2893Y-18083D01*
X-2899Y-18086D01*
X-2906Y-18090D01*
X-2912Y-18092D01*
X-2918Y-18094D01*
X-2923Y-18095D01*
X-2929Y-18096D01*
X-2935Y-18097D01*
X-2941Y-18097D01*
X-2950Y-18098D01*
X-2956Y-18097D01*
X-2962Y-18097D01*
X-2968Y-18096D01*
X-2975Y-18095D01*
X-2980Y-18094D01*
X-2987Y-18092D01*
X-2993Y-18089D01*
X-2997Y-18088D01*
X-3002Y-18085D01*
X-3007Y-18082D01*
X-3011Y-18079D01*
X-3021Y-18070D01*
X-3025Y-18065D01*
X-3029Y-18059D01*
X-3033Y-18053D01*
X-3036Y-18046D01*
X-3038Y-18040D01*
X-3040Y-18035D01*
X-3041Y-18027D01*
X-3043Y-18020D01*
X-3043Y-18014D01*
X-3044Y-18008D01*
X-3044Y-18003D01*
Y-17864D01*
X-2999D01*
Y-18000D01*
X-2999Y-18004D01*
X-2999Y-18012D01*
X-2997Y-18017D01*
X-2996Y-18023D01*
X-2993Y-18029D01*
X-2990Y-18034D01*
X-2987Y-18039D01*
X-2979Y-18046D01*
X-2975Y-18048D01*
X-2970Y-18051D01*
X-2965Y-18052D01*
X-2958Y-18054D01*
X-2954Y-18054D01*
X-2948Y-18054D01*
X-2943Y-18054D01*
X-2939Y-18054D01*
X-2932Y-18052D01*
X-2926Y-18050D01*
X-2922Y-18047D01*
X-2914Y-18041D01*
X-2910Y-18037D01*
X-2907Y-18033D01*
X-2905Y-18028D01*
X-2902Y-18022D01*
X-2901Y-18016D01*
X-2900Y-18010D01*
X-2899Y-18001D01*
X-2899Y-18000D01*
Y-17864D01*
X-2855Y-17864D01*
Y-18003D01*
D02*
G37*
G36*
X-3244Y-17859D02*
X-3236Y-17860D01*
X-3229Y-17861D01*
X-3223Y-17862D01*
X-3219Y-17863D01*
X-3214Y-17864D01*
X-3210Y-17866D01*
X-3205Y-17867D01*
X-3200Y-17869D01*
X-3196Y-17871D01*
X-3191Y-17873D01*
X-3187Y-17876D01*
X-3182Y-17879D01*
X-3176Y-17882D01*
X-3173Y-17885D01*
X-3169Y-17888D01*
X-3162Y-17895D01*
X-3152Y-17907D01*
X-3149Y-17912D01*
X-3146Y-17916D01*
X-3143Y-17923D01*
X-3140Y-17928D01*
X-3138Y-17933D01*
X-3137Y-17937D01*
X-3134Y-17947D01*
X-3133Y-17952D01*
X-3132Y-17958D01*
X-3131Y-17962D01*
X-3131Y-17969D01*
X-3131Y-17972D01*
X-3131Y-17977D01*
X-3131Y-17982D01*
X-3131Y-17987D01*
X-3131Y-17993D01*
X-3132Y-17998D01*
X-3133Y-18005D01*
X-3135Y-18013D01*
X-3137Y-18021D01*
X-3140Y-18028D01*
X-3142Y-18033D01*
X-3144Y-18036D01*
X-3145Y-18040D01*
X-3148Y-18043D01*
X-3153Y-18051D01*
X-3158Y-18058D01*
X-3166Y-18066D01*
X-3170Y-18070D01*
X-3177Y-18075D01*
X-3185Y-18080D01*
X-3192Y-18084D01*
X-3198Y-18087D01*
X-3204Y-18089D01*
X-3210Y-18091D01*
X-3214Y-18093D01*
X-3222Y-18094D01*
X-3227Y-18096D01*
X-3234Y-18097D01*
X-3242Y-18097D01*
X-3247Y-18098D01*
X-3252Y-18098D01*
X-3259Y-18098D01*
X-3265Y-18098D01*
X-3274Y-18097D01*
X-3280Y-18096D01*
X-3286Y-18095D01*
X-3291Y-18094D01*
X-3294Y-18093D01*
X-3303Y-18090D01*
X-3312Y-18086D01*
X-3320Y-18083D01*
X-3328Y-18078D01*
X-3333Y-18075D01*
X-3336Y-18073D01*
X-3312Y-18036D01*
X-3308Y-18039D01*
X-3304Y-18041D01*
X-3299Y-18044D01*
X-3295Y-18046D01*
X-3290Y-18048D01*
X-3285Y-18050D01*
X-3282Y-18051D01*
X-3279Y-18052D01*
X-3268Y-18054D01*
X-3262Y-18055D01*
X-3256Y-18055D01*
X-3248Y-18055D01*
X-3243Y-18054D01*
X-3237Y-18054D01*
X-3233Y-18053D01*
X-3226Y-18051D01*
X-3222Y-18049D01*
X-3217Y-18047D01*
X-3212Y-18045D01*
X-3211Y-18044D01*
X-3204Y-18039D01*
X-3196Y-18032D01*
X-3190Y-18024D01*
X-3185Y-18017D01*
X-3183Y-18012D01*
X-3180Y-18005D01*
X-3178Y-17997D01*
X-3177Y-17992D01*
X-3177Y-17986D01*
X-3176Y-17981D01*
X-3176Y-17975D01*
X-3177Y-17970D01*
X-3177Y-17966D01*
X-3178Y-17961D01*
X-3179Y-17956D01*
X-3181Y-17949D01*
X-3183Y-17945D01*
X-3185Y-17942D01*
X-3188Y-17935D01*
X-3194Y-17928D01*
X-3200Y-17921D01*
X-3206Y-17916D01*
X-3210Y-17914D01*
X-3217Y-17910D01*
X-3223Y-17907D01*
X-3228Y-17906D01*
X-3233Y-17904D01*
X-3239Y-17903D01*
X-3244Y-17902D01*
X-3250Y-17902D01*
X-3256Y-17902D01*
X-3259Y-17902D01*
X-3268Y-17903D01*
X-3278Y-17905D01*
X-3284Y-17907D01*
X-3291Y-17909D01*
X-3295Y-17911D01*
X-3299Y-17913D01*
X-3303Y-17915D01*
X-3306Y-17917D01*
X-3310Y-17920D01*
X-3312Y-17921D01*
X-3336Y-17884D01*
X-3330Y-17880D01*
X-3325Y-17877D01*
X-3318Y-17874D01*
X-3316Y-17872D01*
X-3306Y-17868D01*
X-3297Y-17865D01*
X-3286Y-17862D01*
X-3277Y-17861D01*
X-3268Y-17860D01*
X-3262Y-17859D01*
X-3254Y-17859D01*
X-3244Y-17859D01*
D02*
G37*
G36*
X-1788Y-17860D02*
X-1781Y-17861D01*
X-1773Y-17862D01*
X-1768Y-17863D01*
X-1763Y-17864D01*
X-1758Y-17865D01*
X-1755Y-17866D01*
X-1750Y-17868D01*
X-1745Y-17870D01*
X-1740Y-17872D01*
X-1736Y-17874D01*
X-1732Y-17876D01*
X-1727Y-17879D01*
X-1721Y-17883D01*
X-1718Y-17886D01*
X-1714Y-17889D01*
X-1707Y-17895D01*
X-1697Y-17907D01*
X-1693Y-17913D01*
X-1691Y-17917D01*
X-1687Y-17923D01*
X-1685Y-17929D01*
X-1683Y-17933D01*
X-1682Y-17938D01*
X-1679Y-17947D01*
X-1678Y-17953D01*
X-1677Y-17958D01*
X-1676Y-17963D01*
X-1675Y-17970D01*
X-1675Y-17973D01*
X-1675Y-17978D01*
X-1675Y-17983D01*
X-1675Y-17987D01*
X-1676Y-17994D01*
X-1677Y-17999D01*
X-1678Y-18006D01*
X-1679Y-18014D01*
X-1682Y-18022D01*
X-1685Y-18029D01*
X-1687Y-18034D01*
X-1688Y-18037D01*
X-1690Y-18040D01*
X-1692Y-18044D01*
X-1697Y-18052D01*
X-1703Y-18059D01*
X-1711Y-18067D01*
X-1715Y-18071D01*
X-1722Y-18076D01*
X-1730Y-18081D01*
X-1737Y-18085D01*
X-1743Y-18088D01*
X-1749Y-18090D01*
X-1755Y-18092D01*
X-1758Y-18093D01*
X-1766Y-18095D01*
X-1771Y-18096D01*
X-1779Y-18097D01*
X-1786Y-18098D01*
X-1792Y-18099D01*
X-1797Y-18099D01*
X-1804Y-18099D01*
X-1810Y-18098D01*
X-1818Y-18098D01*
X-1825Y-18097D01*
X-1831Y-18096D01*
X-1835Y-18094D01*
X-1838Y-18094D01*
X-1848Y-18091D01*
X-1857Y-18087D01*
X-1864Y-18083D01*
X-1873Y-18079D01*
X-1878Y-18076D01*
X-1881Y-18074D01*
X-1857Y-18037D01*
X-1852Y-18040D01*
X-1849Y-18042D01*
X-1843Y-18045D01*
X-1840Y-18047D01*
X-1835Y-18049D01*
X-1829Y-18051D01*
X-1827Y-18052D01*
X-1824Y-18053D01*
X-1813Y-18055D01*
X-1807Y-18055D01*
X-1801Y-18056D01*
X-1793Y-18056D01*
X-1788Y-18055D01*
X-1781Y-18054D01*
X-1777Y-18053D01*
X-1771Y-18052D01*
X-1766Y-18050D01*
X-1762Y-18048D01*
X-1757Y-18045D01*
X-1755Y-18044D01*
X-1749Y-18040D01*
X-1741Y-18033D01*
X-1734Y-18025D01*
X-1730Y-18018D01*
X-1727Y-18012D01*
X-1725Y-18005D01*
X-1723Y-17998D01*
X-1722Y-17993D01*
X-1721Y-17986D01*
X-1721Y-17981D01*
X-1721Y-17976D01*
X-1721Y-17971D01*
X-1722Y-17967D01*
X-1723Y-17961D01*
X-1724Y-17957D01*
X-1726Y-17950D01*
X-1728Y-17946D01*
X-1729Y-17942D01*
X-1733Y-17936D01*
X-1738Y-17928D01*
X-1745Y-17922D01*
X-1751Y-17917D01*
X-1755Y-17914D01*
X-1761Y-17911D01*
X-1767Y-17908D01*
X-1773Y-17906D01*
X-1778Y-17905D01*
X-1783Y-17904D01*
X-1788Y-17903D01*
X-1795Y-17903D01*
X-1801Y-17903D01*
X-1803Y-17903D01*
X-1812Y-17904D01*
X-1823Y-17906D01*
X-1828Y-17907D01*
X-1836Y-17910D01*
X-1840Y-17912D01*
X-1843Y-17914D01*
X-1847Y-17916D01*
X-1851Y-17918D01*
X-1855Y-17921D01*
X-1857Y-17922D01*
X-1881Y-17885D01*
X-1874Y-17881D01*
X-1869Y-17878D01*
X-1863Y-17874D01*
X-1861Y-17873D01*
X-1851Y-17869D01*
X-1841Y-17866D01*
X-1830Y-17863D01*
X-1821Y-17861D01*
X-1813Y-17860D01*
X-1806Y-17860D01*
X-1799Y-17860D01*
X-1788Y-17860D01*
D02*
G37*
G36*
X-3961Y-17864D02*
Y-18093D01*
X-4003Y-18093D01*
Y-18002D01*
X-4019D01*
X-4081Y-18093D01*
X-4134D01*
X-4066Y-18000D01*
X-4071Y-17999D01*
X-4078Y-17996D01*
X-4087Y-17992D01*
X-4093Y-17989D01*
X-4098Y-17985D01*
X-4104Y-17979D01*
X-4110Y-17971D01*
X-4113Y-17966D01*
X-4115Y-17962D01*
X-4117Y-17955D01*
X-4118Y-17949D01*
X-4119Y-17945D01*
X-4120Y-17940D01*
X-4120Y-17935D01*
X-4120Y-17931D01*
X-4119Y-17923D01*
X-4119Y-17918D01*
X-4116Y-17909D01*
X-4114Y-17904D01*
X-4112Y-17900D01*
X-4109Y-17894D01*
X-4106Y-17889D01*
X-4099Y-17882D01*
X-4095Y-17879D01*
X-4087Y-17874D01*
X-4081Y-17871D01*
X-4074Y-17868D01*
X-4065Y-17866D01*
X-4059Y-17865D01*
X-4054Y-17864D01*
X-4046Y-17864D01*
X-3961Y-17864D01*
D02*
G37*
G36*
X-2575Y-18093D02*
X-2648D01*
X-2660Y-18093D01*
X-2669Y-18092D01*
X-2673Y-18091D01*
X-2681Y-18090D01*
X-2689Y-18087D01*
X-2699Y-18084D01*
X-2708Y-18080D01*
X-2720Y-18073D01*
X-2731Y-18065D01*
X-2740Y-18057D01*
X-2748Y-18046D01*
X-2751Y-18042D01*
X-2754Y-18036D01*
X-2757Y-18031D01*
X-2759Y-18025D01*
X-2762Y-18016D01*
X-2765Y-18006D01*
X-2766Y-18002D01*
X-2767Y-17995D01*
X-2767Y-17989D01*
X-2767Y-17983D01*
X-2768Y-17977D01*
X-2767Y-17969D01*
X-2767Y-17963D01*
X-2766Y-17955D01*
X-2765Y-17950D01*
X-2763Y-17944D01*
X-2762Y-17939D01*
X-2760Y-17934D01*
X-2757Y-17928D01*
X-2755Y-17923D01*
X-2750Y-17914D01*
X-2745Y-17906D01*
X-2737Y-17898D01*
X-2732Y-17893D01*
X-2729Y-17890D01*
X-2724Y-17886D01*
X-2717Y-17882D01*
X-2713Y-17880D01*
X-2708Y-17877D01*
X-2699Y-17873D01*
X-2696Y-17872D01*
X-2691Y-17870D01*
X-2685Y-17868D01*
X-2679Y-17867D01*
X-2674Y-17866D01*
X-2669Y-17865D01*
X-2662Y-17864D01*
X-2655Y-17864D01*
X-2648Y-17864D01*
X-2575D01*
Y-18093D01*
D02*
G37*
G36*
X-3404Y-17903D02*
X-3467D01*
X-3467Y-18093D01*
X-3509D01*
Y-17903D01*
X-3571Y-17903D01*
X-3571Y-17864D01*
X-3404D01*
X-3404Y-17903D01*
D02*
G37*
G36*
X-980Y-18094D02*
X-1117D01*
Y-18055D01*
X-1022D01*
Y-17988D01*
X-1107Y-17988D01*
X-1107Y-17950D01*
X-1022D01*
X-1022Y-17904D01*
X-1115D01*
Y-17865D01*
X-980D01*
Y-18094D01*
D02*
G37*
G36*
X-1547D02*
X-1590D01*
Y-17865D01*
X-1547D01*
Y-18094D01*
D02*
G37*
G36*
X-3746Y-17859D02*
X-3741Y-17860D01*
X-3733Y-17861D01*
X-3727Y-17862D01*
X-3722Y-17863D01*
X-3713Y-17866D01*
X-3707Y-17868D01*
X-3696Y-17873D01*
X-3692Y-17875D01*
X-3688Y-17878D01*
X-3683Y-17881D01*
X-3679Y-17884D01*
X-3674Y-17888D01*
X-3670Y-17892D01*
X-3662Y-17901D01*
X-3657Y-17907D01*
X-3653Y-17913D01*
X-3651Y-17918D01*
X-3647Y-17925D01*
X-3643Y-17935D01*
X-3641Y-17940D01*
X-3639Y-17947D01*
X-3638Y-17956D01*
X-3636Y-17967D01*
X-3636Y-17974D01*
X-3636Y-17979D01*
X-3637Y-17995D01*
X-3638Y-18001D01*
X-3639Y-18008D01*
X-3641Y-18015D01*
X-3643Y-18021D01*
X-3645Y-18026D01*
X-3648Y-18033D01*
X-3652Y-18042D01*
X-3656Y-18047D01*
X-3659Y-18053D01*
X-3665Y-18059D01*
X-3669Y-18063D01*
X-3674Y-18068D01*
X-3679Y-18072D01*
X-3684Y-18077D01*
X-3689Y-18080D01*
X-3693Y-18082D01*
X-3701Y-18086D01*
X-3707Y-18089D01*
X-3717Y-18092D01*
X-3722Y-18094D01*
X-3731Y-18096D01*
X-3738Y-18097D01*
X-3743Y-18097D01*
X-3748Y-18098D01*
X-3760Y-18098D01*
X-3765Y-18098D01*
X-3773Y-18097D01*
X-3778Y-18096D01*
X-3786Y-18094D01*
X-3792Y-18093D01*
X-3798Y-18091D01*
X-3805Y-18088D01*
X-3812Y-18085D01*
X-3819Y-18081D01*
X-3824Y-18079D01*
X-3829Y-18075D01*
X-3837Y-18068D01*
X-3843Y-18063D01*
X-3848Y-18058D01*
X-3852Y-18053D01*
X-3856Y-18048D01*
X-3859Y-18042D01*
X-3862Y-18037D01*
X-3866Y-18029D01*
X-3868Y-18023D01*
X-3870Y-18017D01*
X-3872Y-18010D01*
X-3873Y-18005D01*
X-3875Y-17994D01*
X-3876Y-17981D01*
X-3875Y-17971D01*
X-3875Y-17963D01*
X-3874Y-17954D01*
X-3873Y-17950D01*
X-3871Y-17945D01*
X-3870Y-17939D01*
X-3868Y-17934D01*
X-3865Y-17927D01*
X-3862Y-17920D01*
X-3859Y-17915D01*
X-3856Y-17910D01*
X-3853Y-17906D01*
X-3850Y-17901D01*
X-3843Y-17894D01*
X-3839Y-17890D01*
X-3835Y-17887D01*
X-3829Y-17882D01*
X-3824Y-17878D01*
X-3820Y-17876D01*
X-3816Y-17874D01*
X-3809Y-17870D01*
X-3799Y-17866D01*
X-3793Y-17864D01*
X-3787Y-17863D01*
X-3781Y-17861D01*
X-3776Y-17860D01*
X-3771Y-17860D01*
X-3763Y-17859D01*
X-3758Y-17859D01*
X-3753D01*
X-3746Y-17859D01*
D02*
G37*
G36*
X-2061Y-17860D02*
X-2056Y-17861D01*
X-2048Y-17862D01*
X-2043Y-17863D01*
X-2037Y-17864D01*
X-2028Y-17867D01*
X-2022Y-17869D01*
X-2011Y-17874D01*
X-2007Y-17876D01*
X-2003Y-17879D01*
X-1998Y-17882D01*
X-1994Y-17885D01*
X-1990Y-17889D01*
X-1985Y-17893D01*
X-1977Y-17902D01*
X-1973Y-17908D01*
X-1969Y-17914D01*
X-1966Y-17919D01*
X-1962Y-17926D01*
X-1958Y-17936D01*
X-1957Y-17941D01*
X-1955Y-17948D01*
X-1953Y-17957D01*
X-1952Y-17968D01*
X-1951Y-17975D01*
X-1951Y-17980D01*
X-1952Y-17996D01*
X-1953Y-18002D01*
X-1954Y-18009D01*
X-1956Y-18016D01*
X-1958Y-18021D01*
X-1960Y-18027D01*
X-1963Y-18034D01*
X-1968Y-18043D01*
X-1971Y-18048D01*
X-1975Y-18054D01*
X-1980Y-18060D01*
X-1984Y-18064D01*
X-1989Y-18069D01*
X-1994Y-18073D01*
X-2000Y-18077D01*
X-2005Y-18081D01*
X-2009Y-18083D01*
X-2016Y-18087D01*
X-2023Y-18090D01*
X-2032Y-18093D01*
X-2038Y-18095D01*
X-2046Y-18096D01*
X-2054Y-18098D01*
X-2059Y-18098D01*
X-2063Y-18099D01*
X-2075Y-18099D01*
X-2080Y-18098D01*
X-2088Y-18098D01*
X-2093Y-18097D01*
X-2102Y-18095D01*
X-2108Y-18094D01*
X-2114Y-18092D01*
X-2120Y-18089D01*
X-2127Y-18086D01*
X-2135Y-18082D01*
X-2139Y-18079D01*
X-2144Y-18076D01*
X-2153Y-18069D01*
X-2158Y-18064D01*
X-2163Y-18059D01*
X-2167Y-18053D01*
X-2171Y-18048D01*
X-2175Y-18042D01*
X-2177Y-18038D01*
X-2181Y-18030D01*
X-2183Y-18024D01*
X-2185Y-18018D01*
X-2187Y-18011D01*
X-2189Y-18006D01*
X-2190Y-17995D01*
X-2191Y-17981D01*
X-2191Y-17972D01*
X-2190Y-17964D01*
X-2189Y-17955D01*
X-2188Y-17950D01*
X-2187Y-17945D01*
X-2185Y-17940D01*
X-2183Y-17935D01*
X-2181Y-17928D01*
X-2177Y-17921D01*
X-2175Y-17916D01*
X-2171Y-17911D01*
X-2168Y-17906D01*
X-2165Y-17902D01*
X-2158Y-17895D01*
X-2154Y-17891D01*
X-2151Y-17888D01*
X-2145Y-17883D01*
X-2140Y-17879D01*
X-2135Y-17877D01*
X-2131Y-17874D01*
X-2124Y-17871D01*
X-2114Y-17867D01*
X-2108Y-17865D01*
X-2102Y-17863D01*
X-2097Y-17862D01*
X-2091Y-17861D01*
X-2086Y-17861D01*
X-2078Y-17860D01*
X-2074Y-17860D01*
X-2068Y-17860D01*
X-2061Y-17860D01*
D02*
G37*
G36*
X-809Y-17860D02*
X-803Y-17860D01*
X-797Y-17861D01*
X-791Y-17862D01*
X-785Y-17864D01*
X-781Y-17866D01*
X-778Y-17867D01*
X-772Y-17870D01*
X-768Y-17872D01*
X-765Y-17875D01*
X-763Y-17877D01*
X-762Y-17878D01*
X-756Y-17886D01*
X-753Y-17890D01*
X-751Y-17894D01*
X-750Y-17897D01*
X-749Y-17901D01*
X-748Y-17906D01*
X-747Y-17910D01*
X-747Y-17914D01*
X-747Y-17916D01*
X-747Y-17922D01*
X-747Y-17926D01*
X-748Y-17930D01*
X-749Y-17933D01*
X-749Y-17935D01*
X-752Y-17944D01*
X-754Y-17947D01*
X-756Y-17951D01*
X-758Y-17954D01*
X-762Y-17959D01*
X-765Y-17963D01*
X-769Y-17967D01*
X-772Y-17970D01*
X-775Y-17972D01*
X-778Y-17975D01*
X-782Y-17977D01*
X-783Y-17978D01*
X-820Y-18005D01*
X-825Y-18008D01*
X-830Y-18013D01*
X-834Y-18015D01*
X-836Y-18017D01*
X-838Y-18020D01*
X-840Y-18022D01*
X-841Y-18024D01*
X-842Y-18026D01*
X-842Y-18028D01*
X-843Y-18031D01*
X-843Y-18033D01*
X-843Y-18036D01*
X-843Y-18038D01*
X-842Y-18042D01*
X-842Y-18044D01*
X-840Y-18047D01*
X-838Y-18049D01*
X-836Y-18051D01*
X-834Y-18052D01*
X-832Y-18054D01*
X-829Y-18055D01*
X-826Y-18056D01*
X-821Y-18057D01*
X-818Y-18058D01*
X-814Y-18058D01*
X-810Y-18058D01*
X-806Y-18058D01*
X-802Y-18058D01*
X-797Y-18057D01*
X-793Y-18056D01*
X-788Y-18055D01*
X-779Y-18052D01*
X-774Y-18050D01*
X-770Y-18049D01*
X-764Y-18046D01*
X-759Y-18044D01*
X-755Y-18042D01*
X-749Y-18038D01*
X-731Y-18076D01*
X-734Y-18079D01*
X-738Y-18081D01*
X-742Y-18083D01*
X-747Y-18085D01*
X-750Y-18087D01*
X-754Y-18088D01*
X-759Y-18090D01*
X-770Y-18094D01*
X-776Y-18095D01*
X-785Y-18097D01*
X-792Y-18098D01*
X-799Y-18098D01*
X-810Y-18099D01*
X-817Y-18099D01*
X-823Y-18098D01*
X-827Y-18098D01*
X-831Y-18097D01*
X-837Y-18096D01*
X-843Y-18094D01*
X-847Y-18093D01*
X-850Y-18092D01*
X-853Y-18091D01*
X-856Y-18089D01*
X-861Y-18086D01*
X-864Y-18084D01*
X-867Y-18082D01*
X-869Y-18080D01*
X-872Y-18077D01*
X-877Y-18071D01*
X-881Y-18065D01*
X-883Y-18061D01*
X-884Y-18057D01*
X-885Y-18054D01*
X-886Y-18049D01*
X-887Y-18045D01*
X-887Y-18043D01*
X-888Y-18039D01*
X-888Y-18036D01*
X-888Y-18033D01*
X-888Y-18030D01*
X-888Y-18028D01*
X-888Y-18024D01*
X-887Y-18021D01*
X-886Y-18017D01*
X-886Y-18016D01*
X-885Y-18013D01*
X-885Y-18010D01*
X-882Y-18003D01*
X-878Y-17996D01*
X-875Y-17992D01*
X-872Y-17989D01*
X-870Y-17986D01*
X-868Y-17984D01*
X-866Y-17982D01*
X-863Y-17979D01*
X-860Y-17977D01*
X-856Y-17974D01*
X-853Y-17971D01*
X-829Y-17954D01*
X-806Y-17938D01*
X-801Y-17934D01*
X-798Y-17931D01*
X-795Y-17928D01*
X-793Y-17924D01*
X-792Y-17921D01*
X-791Y-17918D01*
X-791Y-17916D01*
X-792Y-17914D01*
X-792Y-17913D01*
X-792Y-17910D01*
X-793Y-17909D01*
X-794Y-17907D01*
X-796Y-17905D01*
X-797Y-17904D01*
X-799Y-17903D01*
X-801Y-17902D01*
X-806Y-17901D01*
X-808Y-17901D01*
X-812Y-17900D01*
X-815Y-17900D01*
X-819Y-17900D01*
X-821Y-17900D01*
X-823Y-17901D01*
X-827Y-17901D01*
X-829Y-17901D01*
X-833Y-17902D01*
X-836Y-17903D01*
X-839Y-17904D01*
X-843Y-17905D01*
X-846Y-17906D01*
X-849Y-17907D01*
X-852Y-17909D01*
X-855Y-17910D01*
X-857Y-17911D01*
X-859Y-17912D01*
X-864Y-17914D01*
X-882Y-17876D01*
X-872Y-17872D01*
X-864Y-17869D01*
X-858Y-17867D01*
X-852Y-17865D01*
X-846Y-17863D01*
X-840Y-17862D01*
X-831Y-17861D01*
X-824Y-17860D01*
X-818Y-17860D01*
X-813Y-17860D01*
X-809Y-17860D01*
D02*
G37*
G36*
X1030Y-18350D02*
X666Y-18139D01*
X1031Y-17928D01*
X1030Y-18350D01*
D02*
G37*
G36*
X1504Y-18081D02*
X1504Y-18086D01*
X1503Y-18093D01*
X1501Y-18099D01*
X1498Y-18107D01*
X1494Y-18113D01*
X1490Y-18118D01*
X1485Y-18122D01*
X1477Y-18127D01*
X1093Y-18351D01*
X1093Y-17820D01*
X168Y-18353D01*
X166Y-18354D01*
X163Y-18355D01*
X160Y-18356D01*
X156Y-18357D01*
X154Y-18358D01*
X151Y-18358D01*
X148Y-18358D01*
X147Y-18358D01*
X144Y-18357D01*
X140Y-18356D01*
X137Y-18355D01*
X134Y-18353D01*
X131Y-18352D01*
X127Y-18350D01*
X-264Y-18119D01*
X1504Y-17099D01*
X1504Y-18081D01*
D02*
G37*
G36*
X-1241Y-18462D02*
Y-18521D01*
X-1309D01*
Y-18462D01*
X-1241Y-18462D01*
D02*
G37*
G36*
X-2796D02*
Y-18521D01*
X-2864D01*
X-2864Y-18462D01*
X-2796Y-18462D01*
D02*
G37*
G36*
X1386Y-18752D02*
X1441Y-18564D01*
X1505D01*
X1416Y-18841D01*
X1360D01*
X1298Y-18653D01*
X1237Y-18841D01*
X1180D01*
X1090Y-18564D01*
X1153D01*
X1210Y-18752D01*
X1271Y-18563D01*
X1325D01*
X1386Y-18752D01*
D02*
G37*
G36*
X935D02*
X990Y-18564D01*
X1054D01*
X965Y-18841D01*
X909Y-18841D01*
X847Y-18653D01*
X786Y-18841D01*
X729Y-18841D01*
X639Y-18564D01*
X702D01*
X759Y-18752D01*
X820Y-18563D01*
X874D01*
X935Y-18752D01*
D02*
G37*
G36*
X484D02*
X539Y-18564D01*
X604D01*
X514Y-18841D01*
X458Y-18841D01*
X396Y-18653D01*
X335Y-18841D01*
X278Y-18841D01*
X188Y-18564D01*
X251D01*
X308Y-18752D01*
X369Y-18563D01*
X423D01*
X484Y-18752D01*
D02*
G37*
G36*
X-1090Y-18606D02*
X-1085Y-18600D01*
X-1080Y-18595D01*
X-1076Y-18591D01*
X-1073Y-18587D01*
X-1068Y-18584D01*
X-1064Y-18580D01*
X-1059Y-18577D01*
X-1052Y-18572D01*
X-1044Y-18568D01*
X-1039Y-18566D01*
X-1029Y-18562D01*
X-1025Y-18561D01*
X-1020Y-18560D01*
X-1015Y-18559D01*
X-1010Y-18559D01*
X-1002Y-18558D01*
X-993Y-18558D01*
X-983Y-18559D01*
X-978Y-18559D01*
X-972Y-18560D01*
X-963Y-18562D01*
X-959Y-18564D01*
X-954Y-18565D01*
X-946Y-18568D01*
X-939Y-18572D01*
X-934Y-18575D01*
X-927Y-18579D01*
X-920Y-18584D01*
X-916Y-18588D01*
X-910Y-18593D01*
X-907Y-18596D01*
X-903Y-18600D01*
X-900Y-18604D01*
X-896Y-18608D01*
X-894Y-18612D01*
X-890Y-18618D01*
X-886Y-18624D01*
X-884Y-18629D01*
X-881Y-18634D01*
X-879Y-18639D01*
X-877Y-18645D01*
X-876Y-18651D01*
X-873Y-18661D01*
X-871Y-18669D01*
X-870Y-18678D01*
X-869Y-18683D01*
X-869Y-18687D01*
X-869Y-18695D01*
X-869Y-18701D01*
X-869Y-18708D01*
X-869Y-18715D01*
X-870Y-18722D01*
X-871Y-18732D01*
X-872Y-18738D01*
X-874Y-18747D01*
X-877Y-18755D01*
X-880Y-18764D01*
X-882Y-18769D01*
X-885Y-18775D01*
X-889Y-18783D01*
X-893Y-18788D01*
X-895Y-18792D01*
X-899Y-18796D01*
X-903Y-18801D01*
X-906Y-18805D01*
X-911Y-18810D01*
X-914Y-18813D01*
X-919Y-18817D01*
X-924Y-18821D01*
X-928Y-18824D01*
X-933Y-18827D01*
X-937Y-18829D01*
X-941Y-18831D01*
X-949Y-18835D01*
X-954Y-18837D01*
X-960Y-18839D01*
X-965Y-18840D01*
X-972Y-18842D01*
X-976Y-18843D01*
X-986Y-18844D01*
X-993Y-18844D01*
X-1002Y-18844D01*
X-1006Y-18844D01*
X-1011Y-18843D01*
X-1017Y-18843D01*
X-1024Y-18841D01*
X-1028Y-18840D01*
X-1034Y-18838D01*
X-1043Y-18834D01*
X-1047Y-18832D01*
X-1052Y-18829D01*
X-1058Y-18825D01*
X-1067Y-18818D01*
X-1071Y-18815D01*
X-1074Y-18812D01*
X-1080Y-18805D01*
X-1083Y-18802D01*
X-1090Y-18793D01*
Y-18839D01*
X-1153D01*
X-1153Y-18703D01*
X-1091Y-18703D01*
X-1091Y-18708D01*
X-1090Y-18713D01*
X-1090Y-18718D01*
X-1088Y-18724D01*
X-1087Y-18730D01*
X-1085Y-18735D01*
X-1083Y-18741D01*
X-1080Y-18746D01*
X-1077Y-18752D01*
X-1073Y-18758D01*
X-1068Y-18764D01*
X-1064Y-18768D01*
X-1059Y-18773D01*
X-1055Y-18776D01*
X-1050Y-18779D01*
X-1045Y-18781D01*
X-1040Y-18784D01*
X-1033Y-18786D01*
X-1027Y-18788D01*
X-1021Y-18789D01*
X-1014Y-18790D01*
X-1007Y-18789D01*
X-1002Y-18789D01*
X-996Y-18788D01*
X-990Y-18787D01*
X-986Y-18785D01*
X-981Y-18784D01*
X-974Y-18780D01*
X-969Y-18777D01*
X-964Y-18773D01*
X-959Y-18769D01*
X-954Y-18763D01*
X-950Y-18759D01*
X-947Y-18754D01*
X-944Y-18750D01*
X-942Y-18746D01*
X-939Y-18739D01*
X-936Y-18732D01*
X-935Y-18725D01*
X-933Y-18719D01*
X-933Y-18713D01*
X-932Y-18706D01*
X-932Y-18698D01*
X-932Y-18692D01*
X-933Y-18683D01*
X-934Y-18678D01*
X-936Y-18672D01*
X-938Y-18666D01*
X-941Y-18658D01*
X-944Y-18652D01*
X-948Y-18645D01*
X-951Y-18641D01*
X-956Y-18636D01*
X-961Y-18631D01*
X-966Y-18627D01*
X-973Y-18623D01*
X-977Y-18620D01*
X-985Y-18617D01*
X-992Y-18615D01*
X-997Y-18614D01*
X-1002Y-18613D01*
X-1007Y-18613D01*
X-1015Y-18613D01*
X-1023Y-18613D01*
X-1028Y-18615D01*
X-1035Y-18616D01*
X-1040Y-18618D01*
X-1048Y-18622D01*
X-1054Y-18626D01*
X-1059Y-18629D01*
X-1063Y-18633D01*
X-1066Y-18636D01*
X-1071Y-18642D01*
X-1076Y-18648D01*
X-1079Y-18653D01*
X-1081Y-18657D01*
X-1083Y-18662D01*
X-1085Y-18666D01*
X-1087Y-18673D01*
X-1089Y-18679D01*
X-1090Y-18685D01*
X-1090Y-18690D01*
X-1091Y-18696D01*
X-1091Y-18703D01*
X-1153Y-18703D01*
X-1153Y-18458D01*
X-1090D01*
Y-18606D01*
D02*
G37*
G36*
X-1518Y-18558D02*
X-1514Y-18558D01*
X-1506Y-18559D01*
X-1497Y-18560D01*
X-1491Y-18562D01*
X-1485Y-18563D01*
X-1477Y-18566D01*
X-1470Y-18568D01*
X-1465Y-18570D01*
X-1460Y-18573D01*
X-1453Y-18576D01*
X-1447Y-18580D01*
X-1441Y-18584D01*
X-1436Y-18588D01*
X-1431Y-18592D01*
X-1425Y-18598D01*
X-1420Y-18602D01*
X-1415Y-18608D01*
X-1411Y-18613D01*
X-1407Y-18619D01*
X-1403Y-18624D01*
X-1400Y-18630D01*
X-1397Y-18635D01*
X-1394Y-18642D01*
X-1391Y-18649D01*
X-1389Y-18654D01*
X-1388Y-18659D01*
X-1386Y-18665D01*
X-1384Y-18673D01*
X-1383Y-18680D01*
X-1382Y-18685D01*
X-1382Y-18694D01*
X-1381Y-18702D01*
X-1381Y-18708D01*
X-1382Y-18714D01*
X-1383Y-18721D01*
X-1384Y-18729D01*
X-1386Y-18739D01*
X-1387Y-18744D01*
X-1390Y-18751D01*
X-1393Y-18759D01*
X-1396Y-18766D01*
X-1399Y-18772D01*
X-1402Y-18778D01*
X-1406Y-18784D01*
X-1410Y-18789D01*
X-1414Y-18795D01*
X-1419Y-18800D01*
X-1424Y-18805D01*
X-1429Y-18810D01*
X-1435Y-18815D01*
X-1441Y-18819D01*
X-1447Y-18823D01*
X-1453Y-18827D01*
X-1459Y-18830D01*
X-1468Y-18834D01*
X-1477Y-18838D01*
X-1485Y-18840D01*
X-1491Y-18841D01*
X-1496Y-18842D01*
X-1501Y-18843D01*
X-1505Y-18844D01*
X-1509Y-18844D01*
X-1517Y-18845D01*
X-1520Y-18845D01*
X-1526Y-18845D01*
X-1531Y-18845D01*
X-1534Y-18845D01*
X-1541Y-18844D01*
X-1546Y-18844D01*
X-1551Y-18843D01*
X-1556Y-18842D01*
X-1563Y-18840D01*
X-1566Y-18840D01*
X-1571Y-18838D01*
X-1576Y-18836D01*
X-1581Y-18834D01*
X-1586Y-18832D01*
X-1590Y-18830D01*
X-1596Y-18827D01*
X-1601Y-18824D01*
X-1604Y-18822D01*
X-1609Y-18818D01*
X-1614Y-18814D01*
X-1619Y-18811D01*
X-1623Y-18807D01*
X-1627Y-18803D01*
X-1631Y-18799D01*
X-1634Y-18796D01*
X-1636Y-18793D01*
X-1598Y-18756D01*
X-1596Y-18758D01*
X-1592Y-18762D01*
X-1589Y-18765D01*
X-1586Y-18767D01*
X-1582Y-18770D01*
X-1578Y-18773D01*
X-1574Y-18776D01*
X-1570Y-18778D01*
X-1565Y-18781D01*
X-1561Y-18783D01*
X-1557Y-18784D01*
X-1551Y-18786D01*
X-1546Y-18787D01*
X-1544Y-18788D01*
X-1540Y-18789D01*
X-1536Y-18789D01*
X-1531Y-18790D01*
X-1526Y-18790D01*
X-1523Y-18790D01*
X-1518Y-18789D01*
X-1514Y-18789D01*
X-1510Y-18788D01*
X-1505Y-18787D01*
X-1502Y-18786D01*
X-1498Y-18785D01*
X-1493Y-18782D01*
X-1489Y-18781D01*
X-1484Y-18778D01*
X-1481Y-18776D01*
X-1477Y-18773D01*
X-1473Y-18770D01*
X-1471Y-18767D01*
X-1468Y-18765D01*
X-1466Y-18762D01*
X-1464Y-18760D01*
X-1462Y-18758D01*
X-1461Y-18756D01*
X-1459Y-18753D01*
X-1456Y-18749D01*
X-1454Y-18744D01*
X-1452Y-18740D01*
X-1450Y-18735D01*
X-1449Y-18730D01*
X-1447Y-18726D01*
X-1446Y-18721D01*
X-1445Y-18716D01*
X-1445Y-18711D01*
X-1445Y-18706D01*
X-1444Y-18702D01*
X-1444Y-18697D01*
X-1445Y-18694D01*
X-1445Y-18690D01*
X-1445Y-18686D01*
X-1446Y-18682D01*
X-1447Y-18678D01*
X-1448Y-18675D01*
X-1449Y-18671D01*
X-1450Y-18668D01*
X-1451Y-18665D01*
X-1454Y-18659D01*
X-1456Y-18654D01*
X-1459Y-18649D01*
X-1461Y-18647D01*
X-1464Y-18642D01*
X-1468Y-18638D01*
X-1471Y-18634D01*
X-1475Y-18631D01*
X-1478Y-18629D01*
X-1483Y-18625D01*
X-1486Y-18623D01*
X-1491Y-18621D01*
X-1495Y-18619D01*
X-1500Y-18617D01*
X-1504Y-18616D01*
X-1508Y-18615D01*
X-1512Y-18614D01*
X-1515Y-18614D01*
X-1520Y-18613D01*
X-1524Y-18613D01*
X-1529Y-18613D01*
X-1534Y-18614D01*
X-1540Y-18614D01*
X-1545Y-18615D01*
X-1546Y-18616D01*
X-1551Y-18617D01*
X-1555Y-18619D01*
X-1559Y-18620D01*
X-1562Y-18621D01*
X-1565Y-18623D01*
X-1569Y-18626D01*
X-1573Y-18628D01*
X-1577Y-18631D01*
X-1580Y-18633D01*
X-1584Y-18637D01*
X-1586Y-18639D01*
X-1588Y-18641D01*
X-1590Y-18643D01*
X-1593Y-18645D01*
X-1595Y-18647D01*
X-1635Y-18605D01*
X-1630Y-18601D01*
X-1625Y-18596D01*
X-1622Y-18593D01*
X-1619Y-18591D01*
X-1618Y-18589D01*
X-1614Y-18587D01*
X-1611Y-18584D01*
X-1609Y-18583D01*
X-1607Y-18581D01*
X-1603Y-18579D01*
X-1602Y-18578D01*
X-1599Y-18576D01*
X-1591Y-18572D01*
X-1584Y-18569D01*
X-1575Y-18565D01*
X-1566Y-18563D01*
X-1561Y-18561D01*
X-1557Y-18561D01*
X-1547Y-18559D01*
X-1540Y-18558D01*
X-1534Y-18558D01*
X-1526Y-18558D01*
X-1518Y-18558D01*
D02*
G37*
G36*
X-3211D02*
X-3207Y-18558D01*
X-3199Y-18559D01*
X-3190Y-18560D01*
X-3184Y-18562D01*
X-3178Y-18563D01*
X-3170Y-18566D01*
X-3163Y-18568D01*
X-3158Y-18570D01*
X-3153Y-18573D01*
X-3146Y-18576D01*
X-3140Y-18580D01*
X-3134Y-18584D01*
X-3129Y-18588D01*
X-3124Y-18592D01*
X-3117Y-18598D01*
X-3113Y-18602D01*
X-3108Y-18608D01*
X-3104Y-18613D01*
X-3100Y-18619D01*
X-3096Y-18624D01*
X-3093Y-18630D01*
X-3090Y-18635D01*
X-3087Y-18642D01*
X-3084Y-18649D01*
X-3082Y-18654D01*
X-3080Y-18659D01*
X-3079Y-18665D01*
X-3077Y-18673D01*
X-3076Y-18680D01*
X-3075Y-18685D01*
X-3074Y-18694D01*
X-3074Y-18702D01*
X-3074Y-18708D01*
X-3075Y-18714D01*
X-3075Y-18721D01*
X-3077Y-18729D01*
X-3079Y-18739D01*
X-3080Y-18744D01*
X-3082Y-18751D01*
X-3085Y-18759D01*
X-3088Y-18766D01*
X-3092Y-18772D01*
X-3095Y-18778D01*
X-3099Y-18784D01*
X-3103Y-18789D01*
X-3107Y-18795D01*
X-3112Y-18800D01*
X-3117Y-18805D01*
X-3122Y-18810D01*
X-3128Y-18815D01*
X-3134Y-18819D01*
X-3139Y-18823D01*
X-3146Y-18827D01*
X-3152Y-18830D01*
X-3161Y-18834D01*
X-3170Y-18838D01*
X-3177Y-18840D01*
X-3183Y-18841D01*
X-3189Y-18842D01*
X-3193Y-18843D01*
X-3198Y-18844D01*
X-3202Y-18844D01*
X-3209Y-18845D01*
X-3213Y-18845D01*
X-3219Y-18845D01*
X-3223Y-18845D01*
X-3227Y-18845D01*
X-3233Y-18844D01*
X-3238Y-18844D01*
X-3244Y-18843D01*
X-3249Y-18842D01*
X-3256Y-18840D01*
X-3259Y-18840D01*
X-3264Y-18838D01*
X-3269Y-18836D01*
X-3274Y-18834D01*
X-3279Y-18832D01*
X-3283Y-18830D01*
X-3289Y-18827D01*
X-3294Y-18824D01*
X-3297Y-18822D01*
X-3302Y-18818D01*
X-3307Y-18814D01*
X-3311Y-18811D01*
X-3315Y-18807D01*
X-3320Y-18803D01*
X-3324Y-18799D01*
X-3327Y-18796D01*
X-3329Y-18793D01*
X-3291Y-18756D01*
X-3289Y-18758D01*
X-3285Y-18762D01*
X-3282Y-18765D01*
X-3279Y-18767D01*
X-3275Y-18770D01*
X-3271Y-18773D01*
X-3267Y-18776D01*
X-3263Y-18778D01*
X-3258Y-18781D01*
X-3253Y-18783D01*
X-3250Y-18784D01*
X-3244Y-18786D01*
X-3239Y-18787D01*
X-3236Y-18788D01*
X-3233Y-18789D01*
X-3229Y-18789D01*
X-3224Y-18790D01*
X-3218Y-18790D01*
X-3215Y-18790D01*
X-3211Y-18789D01*
X-3207Y-18789D01*
X-3203Y-18788D01*
X-3198Y-18787D01*
X-3194Y-18786D01*
X-3191Y-18785D01*
X-3185Y-18782D01*
X-3181Y-18781D01*
X-3177Y-18778D01*
X-3173Y-18776D01*
X-3170Y-18773D01*
X-3166Y-18770D01*
X-3163Y-18767D01*
X-3161Y-18765D01*
X-3159Y-18762D01*
X-3157Y-18760D01*
X-3155Y-18758D01*
X-3153Y-18756D01*
X-3152Y-18753D01*
X-3149Y-18749D01*
X-3147Y-18744D01*
X-3145Y-18740D01*
X-3143Y-18735D01*
X-3141Y-18730D01*
X-3140Y-18726D01*
X-3139Y-18721D01*
X-3138Y-18716D01*
X-3138Y-18711D01*
X-3137Y-18706D01*
X-3137Y-18702D01*
X-3137Y-18697D01*
X-3137Y-18694D01*
X-3138Y-18690D01*
X-3138Y-18686D01*
X-3139Y-18682D01*
X-3140Y-18678D01*
X-3141Y-18675D01*
X-3142Y-18671D01*
X-3143Y-18668D01*
X-3144Y-18665D01*
X-3147Y-18659D01*
X-3149Y-18654D01*
X-3152Y-18649D01*
X-3154Y-18647D01*
X-3157Y-18642D01*
X-3160Y-18638D01*
X-3164Y-18634D01*
X-3168Y-18631D01*
X-3170Y-18629D01*
X-3176Y-18625D01*
X-3179Y-18623D01*
X-3183Y-18621D01*
X-3188Y-18619D01*
X-3193Y-18617D01*
X-3197Y-18616D01*
X-3201Y-18615D01*
X-3205Y-18614D01*
X-3208Y-18614D01*
X-3213Y-18613D01*
X-3217Y-18613D01*
X-3221Y-18613D01*
X-3227Y-18614D01*
X-3232Y-18614D01*
X-3237Y-18615D01*
X-3239Y-18616D01*
X-3243Y-18617D01*
X-3248Y-18619D01*
X-3252Y-18620D01*
X-3254Y-18621D01*
X-3258Y-18623D01*
X-3262Y-18626D01*
X-3265Y-18628D01*
X-3270Y-18631D01*
X-3273Y-18633D01*
X-3277Y-18637D01*
X-3279Y-18639D01*
X-3281Y-18641D01*
X-3283Y-18643D01*
X-3286Y-18645D01*
X-3288Y-18647D01*
X-3327Y-18605D01*
X-3323Y-18601D01*
X-3318Y-18596D01*
X-3315Y-18593D01*
X-3312Y-18591D01*
X-3310Y-18589D01*
X-3307Y-18587D01*
X-3304Y-18584D01*
X-3302Y-18583D01*
X-3299Y-18581D01*
X-3296Y-18579D01*
X-3294Y-18578D01*
X-3292Y-18576D01*
X-3284Y-18572D01*
X-3276Y-18569D01*
X-3268Y-18565D01*
X-3259Y-18563D01*
X-3253Y-18561D01*
X-3249Y-18561D01*
X-3240Y-18559D01*
X-3233Y-18558D01*
X-3227Y-18558D01*
X-3219Y-18558D01*
X-3211Y-18558D01*
D02*
G37*
G36*
X-2084Y-18558D02*
X-2078Y-18558D01*
X-2075Y-18559D01*
X-2071Y-18559D01*
X-2068Y-18560D01*
X-2063Y-18560D01*
X-2059Y-18561D01*
X-2053Y-18563D01*
X-2049Y-18564D01*
X-2046Y-18565D01*
X-2043Y-18566D01*
X-2039Y-18567D01*
X-2036Y-18569D01*
X-2033Y-18570D01*
X-2030Y-18572D01*
X-2027Y-18573D01*
X-2024Y-18575D01*
X-2021Y-18577D01*
X-2017Y-18579D01*
X-2015Y-18581D01*
X-2012Y-18582D01*
X-2010Y-18585D01*
X-2007Y-18587D01*
X-2004Y-18589D01*
X-2001Y-18592D01*
X-1999Y-18594D01*
X-1997Y-18596D01*
X-1995Y-18598D01*
X-1993Y-18600D01*
X-1991Y-18602D01*
X-1989Y-18604D01*
X-1988Y-18606D01*
X-1985Y-18610D01*
X-1982Y-18614D01*
X-1979Y-18618D01*
X-1976Y-18622D01*
X-1974Y-18627D01*
X-1972Y-18631D01*
X-1969Y-18635D01*
X-1967Y-18640D01*
X-1965Y-18645D01*
X-1964Y-18649D01*
X-1962Y-18655D01*
X-1961Y-18660D01*
X-1959Y-18665D01*
X-1958Y-18670D01*
X-1957Y-18675D01*
X-1957Y-18680D01*
X-1956Y-18683D01*
X-1956Y-18686D01*
X-1956Y-18691D01*
X-1955Y-18696D01*
X-1955Y-18701D01*
X-1955Y-18704D01*
X-1955Y-18709D01*
X-1955Y-18711D01*
X-1956Y-18713D01*
X-1956Y-18716D01*
X-1956Y-18721D01*
X-1957Y-18726D01*
X-1958Y-18733D01*
X-1959Y-18739D01*
X-1960Y-18742D01*
X-1961Y-18745D01*
X-1962Y-18748D01*
X-1963Y-18751D01*
X-1964Y-18754D01*
X-1965Y-18758D01*
X-1966Y-18761D01*
X-1968Y-18765D01*
X-1970Y-18769D01*
X-1972Y-18774D01*
X-1975Y-18779D01*
X-1977Y-18782D01*
X-1979Y-18785D01*
X-1981Y-18788D01*
X-1983Y-18790D01*
X-1985Y-18793D01*
X-1987Y-18796D01*
X-1990Y-18799D01*
X-1992Y-18801D01*
X-1994Y-18804D01*
X-1997Y-18807D01*
X-2000Y-18809D01*
X-2002Y-18811D01*
X-2005Y-18814D01*
X-2008Y-18816D01*
X-2010Y-18818D01*
X-2014Y-18820D01*
X-2017Y-18822D01*
X-2021Y-18825D01*
X-2024Y-18826D01*
X-2026Y-18828D01*
X-2030Y-18830D01*
X-2034Y-18832D01*
X-2036Y-18833D01*
X-2041Y-18835D01*
X-2045Y-18836D01*
X-2049Y-18838D01*
X-2053Y-18839D01*
X-2057Y-18840D01*
X-2061Y-18841D01*
X-2064Y-18842D01*
X-2068Y-18842D01*
X-2071Y-18843D01*
X-2074Y-18843D01*
X-2078Y-18844D01*
X-2081Y-18844D01*
X-2084Y-18844D01*
X-2087Y-18845D01*
X-2090Y-18845D01*
X-2093Y-18845D01*
X-2098Y-18845D01*
X-2102Y-18845D01*
X-2106Y-18845D01*
X-2109Y-18844D01*
X-2113Y-18844D01*
X-2118Y-18844D01*
X-2124Y-18843D01*
X-2129Y-18842D01*
X-2132Y-18841D01*
X-2138Y-18840D01*
X-2143Y-18838D01*
X-2148Y-18836D01*
X-2152Y-18835D01*
X-2156Y-18833D01*
X-2160Y-18831D01*
X-2163Y-18830D01*
X-2167Y-18828D01*
X-2171Y-18826D01*
X-2173Y-18825D01*
X-2177Y-18822D01*
X-2180Y-18820D01*
X-2182Y-18818D01*
X-2186Y-18815D01*
X-2190Y-18812D01*
X-2193Y-18810D01*
X-2197Y-18806D01*
X-2200Y-18803D01*
X-2203Y-18800D01*
X-2206Y-18796D01*
X-2209Y-18793D01*
X-2172Y-18760D01*
X-2170Y-18762D01*
X-2167Y-18765D01*
X-2164Y-18768D01*
X-2161Y-18770D01*
X-2158Y-18773D01*
X-2155Y-18775D01*
X-2152Y-18777D01*
X-2150Y-18778D01*
X-2148Y-18780D01*
X-2145Y-18781D01*
X-2141Y-18783D01*
X-2137Y-18785D01*
X-2133Y-18787D01*
X-2129Y-18788D01*
X-2126Y-18789D01*
X-2121Y-18791D01*
X-2119Y-18791D01*
X-2116Y-18792D01*
X-2112Y-18792D01*
X-2109Y-18793D01*
X-2106Y-18793D01*
X-2103Y-18793D01*
X-2099Y-18793D01*
X-2096Y-18793D01*
X-2093Y-18793D01*
X-2090Y-18793D01*
X-2087Y-18793D01*
X-2083Y-18792D01*
X-2080Y-18792D01*
X-2076Y-18791D01*
X-2072Y-18790D01*
X-2069Y-18789D01*
X-2066Y-18788D01*
X-2063Y-18786D01*
X-2061Y-18785D01*
X-2057Y-18783D01*
X-2054Y-18782D01*
X-2050Y-18779D01*
X-2047Y-18777D01*
X-2044Y-18774D01*
X-2042Y-18772D01*
X-2039Y-18769D01*
X-2035Y-18765D01*
X-2033Y-18762D01*
X-2031Y-18759D01*
X-2029Y-18755D01*
X-2027Y-18751D01*
X-2025Y-18748D01*
X-2024Y-18745D01*
X-2022Y-18741D01*
X-2021Y-18738D01*
X-2021Y-18735D01*
X-2020Y-18731D01*
X-2019Y-18729D01*
X-2019Y-18725D01*
X-2018Y-18723D01*
X-2220Y-18723D01*
X-2221Y-18720D01*
X-2221Y-18716D01*
X-2221Y-18712D01*
X-2221Y-18707D01*
X-2221Y-18703D01*
X-2221Y-18700D01*
X-2221Y-18697D01*
X-2221Y-18694D01*
X-2221Y-18690D01*
X-2220Y-18686D01*
X-2220Y-18681D01*
X-2220Y-18679D01*
X-2219Y-18674D01*
X-2218Y-18670D01*
X-2217Y-18665D01*
X-2216Y-18661D01*
X-2215Y-18657D01*
X-2215Y-18654D01*
X-2214Y-18652D01*
X-2213Y-18648D01*
X-2211Y-18644D01*
X-2210Y-18640D01*
X-2209Y-18637D01*
X-2207Y-18633D01*
X-2205Y-18630D01*
X-2204Y-18626D01*
X-2201Y-18621D01*
X-2199Y-18618D01*
X-2197Y-18614D01*
X-2195Y-18611D01*
X-2192Y-18607D01*
X-2189Y-18603D01*
X-2186Y-18600D01*
X-2184Y-18598D01*
X-2182Y-18595D01*
X-2180Y-18593D01*
X-2177Y-18590D01*
X-2174Y-18587D01*
X-2171Y-18585D01*
X-2168Y-18583D01*
X-2165Y-18580D01*
X-2162Y-18578D01*
X-2157Y-18575D01*
X-2153Y-18573D01*
X-2151Y-18572D01*
X-2147Y-18570D01*
X-2144Y-18568D01*
X-2141Y-18567D01*
X-2139Y-18566D01*
X-2134Y-18565D01*
X-2130Y-18563D01*
X-2126Y-18562D01*
X-2123Y-18561D01*
X-2116Y-18560D01*
X-2111Y-18559D01*
X-2107Y-18559D01*
X-2102Y-18558D01*
X-2098Y-18558D01*
X-2094Y-18558D01*
X-2089Y-18558D01*
X-2084Y-18558D01*
D02*
G37*
G36*
X-2948Y-18839D02*
X-3017D01*
X-3017Y-18767D01*
X-2948D01*
Y-18839D01*
D02*
G37*
G36*
X165Y-18839D02*
X96D01*
Y-18767D01*
X165D01*
Y-18839D01*
D02*
G37*
G36*
X-1243Y-18839D02*
X-1306Y-18839D01*
Y-18564D01*
X-1243D01*
Y-18839D01*
D02*
G37*
G36*
X-2799D02*
X-2862Y-18839D01*
Y-18564D01*
X-2799D01*
Y-18839D01*
D02*
G37*
G36*
X-133Y-18558D02*
X-124Y-18558D01*
X-119Y-18559D01*
X-113Y-18560D01*
X-107Y-18562D01*
X-102Y-18563D01*
X-96Y-18566D01*
X-91Y-18568D01*
X-88Y-18570D01*
X-82Y-18573D01*
X-78Y-18576D01*
X-75Y-18579D01*
X-72Y-18581D01*
X-68Y-18584D01*
X-65Y-18588D01*
X-61Y-18591D01*
X-59Y-18594D01*
X-56Y-18598D01*
X-53Y-18601D01*
X-51Y-18604D01*
X-50Y-18606D01*
Y-18564D01*
X13Y-18564D01*
Y-18839D01*
X-50D01*
X-50Y-18683D01*
X-50Y-18677D01*
X-51Y-18672D01*
X-52Y-18666D01*
X-53Y-18659D01*
X-55Y-18653D01*
X-57Y-18648D01*
X-61Y-18642D01*
X-64Y-18637D01*
X-68Y-18633D01*
X-71Y-18630D01*
X-76Y-18625D01*
X-81Y-18623D01*
X-85Y-18620D01*
X-89Y-18619D01*
X-94Y-18617D01*
X-99Y-18616D01*
X-101Y-18616D01*
X-108Y-18615D01*
X-113Y-18615D01*
X-118Y-18615D01*
X-123Y-18616D01*
X-127Y-18617D01*
X-133Y-18618D01*
X-137Y-18620D01*
X-141Y-18621D01*
X-144Y-18623D01*
X-145Y-18624D01*
X-149Y-18626D01*
X-153Y-18630D01*
X-156Y-18633D01*
X-159Y-18637D01*
X-162Y-18641D01*
X-163Y-18644D01*
X-165Y-18648D01*
X-166Y-18652D01*
X-168Y-18656D01*
X-169Y-18660D01*
X-169Y-18664D01*
X-170Y-18668D01*
X-170Y-18671D01*
X-171Y-18675D01*
X-171Y-18679D01*
X-171Y-18682D01*
X-171Y-18839D01*
X-234D01*
X-234Y-18662D01*
X-234Y-18654D01*
X-233Y-18648D01*
X-232Y-18642D01*
X-231Y-18636D01*
X-230Y-18629D01*
X-228Y-18623D01*
X-227Y-18619D01*
X-225Y-18615D01*
X-222Y-18608D01*
X-220Y-18603D01*
X-216Y-18597D01*
X-214Y-18594D01*
X-210Y-18588D01*
X-207Y-18586D01*
X-202Y-18581D01*
X-197Y-18577D01*
X-193Y-18574D01*
X-188Y-18571D01*
X-183Y-18568D01*
X-178Y-18566D01*
X-173Y-18564D01*
X-165Y-18561D01*
X-158Y-18560D01*
X-152Y-18559D01*
X-145Y-18558D01*
X-138Y-18558D01*
X-133Y-18558D01*
D02*
G37*
G36*
X-815Y-18559D02*
X-811Y-18559D01*
X-804Y-18560D01*
X-798Y-18561D01*
X-788Y-18564D01*
X-782Y-18567D01*
X-775Y-18571D01*
X-770Y-18574D01*
X-765Y-18578D01*
X-759Y-18583D01*
X-754Y-18588D01*
X-749Y-18593D01*
X-746Y-18598D01*
X-742Y-18604D01*
X-737Y-18611D01*
X-734Y-18618D01*
X-732Y-18622D01*
X-731Y-18564D01*
X-668Y-18564D01*
X-668Y-18839D01*
X-731D01*
X-731Y-18734D01*
X-731Y-18726D01*
X-731Y-18720D01*
X-732Y-18710D01*
X-734Y-18700D01*
X-735Y-18694D01*
X-739Y-18683D01*
X-741Y-18676D01*
X-744Y-18671D01*
X-748Y-18664D01*
X-752Y-18658D01*
X-757Y-18652D01*
X-764Y-18645D01*
X-771Y-18640D01*
X-778Y-18636D01*
X-784Y-18633D01*
X-791Y-18630D01*
X-797Y-18628D01*
X-803Y-18627D01*
X-808Y-18626D01*
X-814Y-18625D01*
X-828Y-18625D01*
Y-18558D01*
X-822Y-18558D01*
X-815Y-18559D01*
D02*
G37*
G36*
X-2607Y-18558D02*
X-2602Y-18558D01*
X-2598Y-18559D01*
X-2593Y-18560D01*
X-2589Y-18560D01*
X-2581Y-18563D01*
X-2578Y-18563D01*
X-2571Y-18566D01*
X-2567Y-18568D01*
X-2562Y-18570D01*
X-2559Y-18572D01*
X-2555Y-18574D01*
X-2550Y-18578D01*
X-2546Y-18581D01*
X-2542Y-18584D01*
X-2538Y-18588D01*
X-2534Y-18591D01*
X-2531Y-18595D01*
X-2527Y-18599D01*
X-2524Y-18603D01*
X-2522Y-18606D01*
X-2520Y-18602D01*
X-2516Y-18596D01*
X-2514Y-18593D01*
X-2510Y-18588D01*
X-2505Y-18583D01*
X-2500Y-18579D01*
X-2497Y-18576D01*
X-2491Y-18572D01*
X-2487Y-18570D01*
X-2480Y-18566D01*
X-2477Y-18564D01*
X-2472Y-18563D01*
X-2469Y-18562D01*
X-2463Y-18560D01*
X-2457Y-18559D01*
X-2451Y-18558D01*
X-2447Y-18558D01*
X-2441Y-18558D01*
X-2434Y-18558D01*
X-2428Y-18558D01*
X-2421Y-18559D01*
X-2416Y-18561D01*
X-2408Y-18563D01*
X-2404Y-18564D01*
X-2400Y-18566D01*
X-2396Y-18568D01*
X-2392Y-18570D01*
X-2388Y-18572D01*
X-2384Y-18575D01*
X-2380Y-18578D01*
X-2375Y-18583D01*
X-2371Y-18587D01*
X-2368Y-18590D01*
X-2364Y-18595D01*
X-2361Y-18598D01*
X-2358Y-18602D01*
X-2356Y-18605D01*
Y-18564D01*
X-2293D01*
X-2293Y-18839D01*
X-2356D01*
X-2356Y-18683D01*
X-2356Y-18678D01*
X-2356Y-18673D01*
X-2357Y-18669D01*
X-2357Y-18665D01*
X-2358Y-18663D01*
X-2359Y-18659D01*
X-2360Y-18655D01*
X-2361Y-18651D01*
X-2363Y-18646D01*
X-2366Y-18642D01*
X-2369Y-18638D01*
X-2371Y-18634D01*
X-2374Y-18631D01*
X-2376Y-18629D01*
X-2379Y-18627D01*
X-2383Y-18624D01*
X-2386Y-18622D01*
X-2390Y-18620D01*
X-2394Y-18618D01*
X-2398Y-18617D01*
X-2401Y-18616D01*
X-2406Y-18616D01*
X-2410Y-18615D01*
X-2414Y-18615D01*
X-2419Y-18615D01*
X-2423Y-18616D01*
X-2428Y-18616D01*
X-2433Y-18618D01*
X-2437Y-18619D01*
X-2441Y-18621D01*
X-2444Y-18622D01*
X-2447Y-18625D01*
X-2450Y-18627D01*
X-2453Y-18630D01*
X-2456Y-18633D01*
X-2458Y-18636D01*
X-2461Y-18640D01*
X-2462Y-18643D01*
X-2464Y-18647D01*
X-2466Y-18651D01*
X-2467Y-18656D01*
X-2469Y-18662D01*
X-2469Y-18667D01*
X-2470Y-18672D01*
X-2470Y-18677D01*
X-2470Y-18680D01*
X-2470Y-18839D01*
X-2533D01*
Y-18683D01*
X-2533Y-18677D01*
X-2534Y-18671D01*
X-2535Y-18666D01*
X-2536Y-18660D01*
X-2537Y-18657D01*
X-2538Y-18653D01*
X-2540Y-18649D01*
X-2541Y-18645D01*
X-2544Y-18641D01*
X-2546Y-18638D01*
X-2548Y-18635D01*
X-2550Y-18633D01*
X-2552Y-18630D01*
X-2555Y-18627D01*
X-2560Y-18624D01*
X-2564Y-18622D01*
X-2568Y-18620D01*
X-2573Y-18618D01*
X-2578Y-18617D01*
X-2582Y-18616D01*
X-2586Y-18615D01*
X-2592Y-18615D01*
X-2596Y-18615D01*
X-2602Y-18616D01*
X-2606Y-18617D01*
X-2610Y-18617D01*
X-2615Y-18619D01*
X-2618Y-18621D01*
X-2622Y-18623D01*
X-2625Y-18625D01*
X-2628Y-18627D01*
X-2632Y-18631D01*
X-2635Y-18634D01*
X-2637Y-18638D01*
X-2639Y-18642D01*
X-2641Y-18645D01*
X-2643Y-18650D01*
X-2644Y-18654D01*
X-2646Y-18659D01*
X-2646Y-18664D01*
X-2647Y-18668D01*
X-2648Y-18674D01*
X-2648Y-18678D01*
X-2648Y-18682D01*
Y-18839D01*
X-2711D01*
Y-18663D01*
X-2711Y-18655D01*
X-2710Y-18648D01*
X-2709Y-18642D01*
X-2709Y-18636D01*
X-2707Y-18630D01*
X-2706Y-18625D01*
X-2705Y-18620D01*
X-2702Y-18612D01*
X-2700Y-18608D01*
X-2697Y-18601D01*
X-2695Y-18598D01*
X-2693Y-18596D01*
X-2690Y-18592D01*
X-2688Y-18588D01*
X-2686Y-18586D01*
X-2682Y-18583D01*
X-2679Y-18580D01*
X-2674Y-18575D01*
X-2671Y-18573D01*
X-2667Y-18571D01*
X-2664Y-18569D01*
X-2660Y-18567D01*
X-2655Y-18565D01*
X-2650Y-18563D01*
X-2646Y-18562D01*
X-2641Y-18561D01*
X-2638Y-18560D01*
X-2633Y-18559D01*
X-2629Y-18559D01*
X-2625Y-18558D01*
X-2620Y-18558D01*
X-2614Y-18558D01*
X-2607Y-18558D01*
D02*
G37*
G36*
X-4050Y-18558D02*
X-4046Y-18558D01*
X-4042Y-18559D01*
X-4037Y-18560D01*
X-4033Y-18560D01*
X-4025Y-18563D01*
X-4022Y-18563D01*
X-4014Y-18566D01*
X-4011Y-18568D01*
X-4006Y-18570D01*
X-4003Y-18572D01*
X-3999Y-18574D01*
X-3994Y-18578D01*
X-3990Y-18581D01*
X-3986Y-18584D01*
X-3982Y-18588D01*
X-3978Y-18591D01*
X-3975Y-18595D01*
X-3971Y-18599D01*
X-3968Y-18603D01*
X-3966Y-18606D01*
X-3964Y-18602D01*
X-3960Y-18596D01*
X-3958Y-18593D01*
X-3953Y-18588D01*
X-3949Y-18583D01*
X-3944Y-18579D01*
X-3941Y-18576D01*
X-3935Y-18572D01*
X-3931Y-18570D01*
X-3924Y-18566D01*
X-3920Y-18564D01*
X-3916Y-18563D01*
X-3913Y-18562D01*
X-3907Y-18560D01*
X-3901Y-18559D01*
X-3895Y-18558D01*
X-3891Y-18558D01*
X-3885Y-18558D01*
X-3878Y-18558D01*
X-3872Y-18558D01*
X-3865Y-18559D01*
X-3860Y-18561D01*
X-3852Y-18563D01*
X-3848Y-18564D01*
X-3844Y-18566D01*
X-3840Y-18568D01*
X-3836Y-18570D01*
X-3832Y-18572D01*
X-3828Y-18575D01*
X-3824Y-18578D01*
X-3819Y-18583D01*
X-3815Y-18587D01*
X-3812Y-18590D01*
X-3808Y-18595D01*
X-3805Y-18598D01*
X-3802Y-18602D01*
X-3800Y-18605D01*
Y-18564D01*
X-3737D01*
X-3737Y-18839D01*
X-3800D01*
Y-18683D01*
X-3800Y-18678D01*
X-3800Y-18673D01*
X-3801Y-18669D01*
X-3801Y-18665D01*
X-3802Y-18663D01*
X-3803Y-18659D01*
X-3804Y-18655D01*
X-3805Y-18651D01*
X-3807Y-18646D01*
X-3810Y-18642D01*
X-3812Y-18638D01*
X-3815Y-18634D01*
X-3818Y-18631D01*
X-3820Y-18629D01*
X-3823Y-18627D01*
X-3827Y-18624D01*
X-3830Y-18622D01*
X-3834Y-18620D01*
X-3838Y-18618D01*
X-3841Y-18617D01*
X-3845Y-18616D01*
X-3850Y-18616D01*
X-3854Y-18615D01*
X-3858Y-18615D01*
X-3863Y-18615D01*
X-3867Y-18616D01*
X-3872Y-18616D01*
X-3877Y-18618D01*
X-3881Y-18619D01*
X-3885Y-18621D01*
X-3888Y-18622D01*
X-3891Y-18625D01*
X-3894Y-18627D01*
X-3897Y-18630D01*
X-3900Y-18633D01*
X-3902Y-18636D01*
X-3905Y-18640D01*
X-3906Y-18643D01*
X-3908Y-18647D01*
X-3910Y-18651D01*
X-3911Y-18656D01*
X-3912Y-18662D01*
X-3913Y-18667D01*
X-3914Y-18672D01*
X-3914Y-18677D01*
X-3914Y-18680D01*
X-3914Y-18839D01*
X-3977D01*
Y-18683D01*
X-3977Y-18677D01*
X-3978Y-18671D01*
X-3978Y-18666D01*
X-3980Y-18660D01*
X-3981Y-18657D01*
X-3982Y-18653D01*
X-3984Y-18649D01*
X-3985Y-18645D01*
X-3988Y-18641D01*
X-3990Y-18638D01*
X-3992Y-18635D01*
X-3993Y-18633D01*
X-3996Y-18630D01*
X-3999Y-18627D01*
X-4004Y-18624D01*
X-4008Y-18622D01*
X-4012Y-18620D01*
X-4017Y-18618D01*
X-4022Y-18617D01*
X-4026Y-18616D01*
X-4030Y-18615D01*
X-4036Y-18615D01*
X-4040Y-18615D01*
X-4046Y-18616D01*
X-4050Y-18617D01*
X-4054Y-18617D01*
X-4058Y-18619D01*
X-4062Y-18621D01*
X-4066Y-18623D01*
X-4069Y-18625D01*
X-4072Y-18627D01*
X-4076Y-18631D01*
X-4079Y-18634D01*
X-4081Y-18638D01*
X-4083Y-18642D01*
X-4085Y-18645D01*
X-4087Y-18650D01*
X-4088Y-18654D01*
X-4089Y-18659D01*
X-4090Y-18664D01*
X-4091Y-18668D01*
X-4091Y-18674D01*
X-4092Y-18678D01*
X-4092Y-18682D01*
Y-18839D01*
X-4155D01*
Y-18663D01*
X-4155Y-18655D01*
X-4154Y-18648D01*
X-4153Y-18642D01*
X-4152Y-18636D01*
X-4151Y-18630D01*
X-4150Y-18625D01*
X-4149Y-18620D01*
X-4146Y-18612D01*
X-4144Y-18608D01*
X-4141Y-18601D01*
X-4139Y-18598D01*
X-4137Y-18596D01*
X-4134Y-18592D01*
X-4132Y-18588D01*
X-4130Y-18586D01*
X-4126Y-18583D01*
X-4123Y-18580D01*
X-4118Y-18575D01*
X-4115Y-18573D01*
X-4111Y-18571D01*
X-4108Y-18569D01*
X-4104Y-18567D01*
X-4099Y-18565D01*
X-4094Y-18563D01*
X-4090Y-18562D01*
X-4085Y-18561D01*
X-4081Y-18560D01*
X-4077Y-18559D01*
X-4073Y-18559D01*
X-4069Y-18558D01*
X-4064Y-18558D01*
X-4058Y-18558D01*
X-4050Y-18558D01*
D02*
G37*
G36*
X-1787Y-18559D02*
X-1782Y-18559D01*
X-1777Y-18560D01*
X-1772Y-18560D01*
X-1767Y-18561D01*
X-1763Y-18562D01*
X-1758Y-18563D01*
X-1753Y-18565D01*
X-1749Y-18566D01*
X-1744Y-18568D01*
X-1739Y-18570D01*
X-1733Y-18573D01*
X-1729Y-18576D01*
X-1725Y-18578D01*
X-1720Y-18582D01*
X-1716Y-18586D01*
X-1712Y-18590D01*
X-1709Y-18594D01*
X-1705Y-18599D01*
X-1702Y-18605D01*
X-1699Y-18611D01*
X-1698Y-18614D01*
X-1695Y-18622D01*
X-1694Y-18627D01*
X-1693Y-18632D01*
X-1693Y-18638D01*
X-1693Y-18643D01*
X-1693Y-18646D01*
X-1693Y-18648D01*
X-1693Y-18652D01*
X-1694Y-18658D01*
X-1694Y-18660D01*
X-1696Y-18666D01*
X-1697Y-18670D01*
X-1699Y-18675D01*
X-1702Y-18680D01*
X-1705Y-18684D01*
X-1709Y-18689D01*
X-1711Y-18692D01*
X-1715Y-18695D01*
X-1717Y-18697D01*
X-1722Y-18700D01*
X-1726Y-18703D01*
X-1729Y-18705D01*
X-1736Y-18709D01*
X-1742Y-18712D01*
X-1749Y-18715D01*
X-1757Y-18718D01*
X-1768Y-18721D01*
X-1776Y-18724D01*
X-1782Y-18726D01*
X-1789Y-18728D01*
X-1794Y-18729D01*
X-1800Y-18731D01*
X-1804Y-18732D01*
X-1810Y-18735D01*
X-1818Y-18738D01*
X-1823Y-18741D01*
X-1828Y-18743D01*
X-1830Y-18745D01*
X-1833Y-18747D01*
X-1835Y-18750D01*
X-1837Y-18752D01*
X-1838Y-18755D01*
X-1840Y-18758D01*
X-1840Y-18760D01*
X-1840Y-18763D01*
X-1840Y-18766D01*
X-1840Y-18769D01*
X-1840Y-18770D01*
X-1839Y-18772D01*
X-1839Y-18774D01*
X-1838Y-18776D01*
X-1836Y-18778D01*
X-1835Y-18780D01*
X-1832Y-18783D01*
X-1831Y-18785D01*
X-1828Y-18786D01*
X-1826Y-18788D01*
X-1823Y-18789D01*
X-1820Y-18791D01*
X-1816Y-18792D01*
X-1814Y-18792D01*
X-1812Y-18793D01*
X-1807Y-18793D01*
X-1804Y-18794D01*
X-1799Y-18794D01*
X-1794Y-18794D01*
X-1789Y-18793D01*
X-1786Y-18793D01*
X-1782Y-18793D01*
X-1778Y-18792D01*
X-1774Y-18791D01*
X-1768Y-18790D01*
X-1762Y-18788D01*
X-1756Y-18786D01*
X-1752Y-18785D01*
X-1745Y-18782D01*
X-1739Y-18779D01*
X-1733Y-18776D01*
X-1727Y-18773D01*
X-1722Y-18770D01*
X-1715Y-18766D01*
X-1707Y-18760D01*
X-1679Y-18803D01*
X-1683Y-18805D01*
X-1686Y-18808D01*
X-1692Y-18812D01*
X-1694Y-18813D01*
X-1699Y-18816D01*
X-1704Y-18819D01*
X-1711Y-18823D01*
X-1717Y-18826D01*
X-1723Y-18828D01*
X-1732Y-18832D01*
X-1738Y-18834D01*
X-1745Y-18836D01*
X-1751Y-18838D01*
X-1756Y-18839D01*
X-1760Y-18840D01*
X-1764Y-18841D01*
X-1770Y-18842D01*
X-1775Y-18843D01*
X-1780Y-18843D01*
X-1784Y-18843D01*
X-1790Y-18844D01*
X-1797Y-18844D01*
X-1804Y-18844D01*
X-1809Y-18843D01*
X-1814Y-18843D01*
X-1822Y-18842D01*
X-1829Y-18840D01*
X-1836Y-18838D01*
X-1843Y-18836D01*
X-1849Y-18834D01*
X-1853Y-18832D01*
X-1858Y-18829D01*
X-1863Y-18826D01*
X-1867Y-18824D01*
X-1871Y-18820D01*
X-1875Y-18817D01*
X-1877Y-18814D01*
X-1881Y-18809D01*
X-1884Y-18805D01*
X-1886Y-18802D01*
X-1888Y-18799D01*
X-1891Y-18794D01*
X-1893Y-18789D01*
X-1894Y-18784D01*
X-1896Y-18779D01*
X-1897Y-18774D01*
X-1897Y-18770D01*
X-1898Y-18766D01*
X-1898Y-18762D01*
X-1898Y-18756D01*
X-1898Y-18751D01*
X-1897Y-18747D01*
X-1897Y-18743D01*
X-1896Y-18739D01*
X-1895Y-18736D01*
X-1893Y-18730D01*
X-1891Y-18726D01*
X-1887Y-18720D01*
X-1884Y-18715D01*
X-1881Y-18712D01*
X-1877Y-18708D01*
X-1874Y-18705D01*
X-1871Y-18702D01*
X-1867Y-18700D01*
X-1863Y-18697D01*
X-1858Y-18694D01*
X-1852Y-18691D01*
X-1849Y-18690D01*
X-1842Y-18687D01*
X-1836Y-18684D01*
X-1829Y-18682D01*
X-1821Y-18679D01*
X-1795Y-18670D01*
X-1787Y-18668D01*
X-1783Y-18666D01*
X-1778Y-18664D01*
X-1773Y-18662D01*
X-1769Y-18660D01*
X-1764Y-18657D01*
X-1761Y-18655D01*
X-1758Y-18653D01*
X-1757Y-18652D01*
X-1755Y-18649D01*
X-1754Y-18647D01*
X-1752Y-18644D01*
X-1751Y-18641D01*
X-1751Y-18637D01*
X-1751Y-18634D01*
X-1751Y-18632D01*
X-1752Y-18629D01*
X-1753Y-18626D01*
X-1754Y-18624D01*
X-1755Y-18622D01*
X-1757Y-18620D01*
X-1759Y-18618D01*
X-1763Y-18615D01*
X-1766Y-18614D01*
X-1768Y-18613D01*
X-1770Y-18612D01*
X-1773Y-18611D01*
X-1776Y-18610D01*
X-1780Y-18609D01*
X-1782Y-18609D01*
X-1785Y-18609D01*
X-1787Y-18609D01*
X-1790Y-18609D01*
X-1794Y-18609D01*
X-1798Y-18609D01*
X-1802Y-18610D01*
X-1808Y-18611D01*
X-1813Y-18612D01*
X-1820Y-18614D01*
X-1824Y-18615D01*
X-1828Y-18616D01*
X-1832Y-18618D01*
X-1837Y-18620D01*
X-1842Y-18622D01*
X-1848Y-18625D01*
X-1852Y-18627D01*
X-1858Y-18630D01*
X-1867Y-18635D01*
X-1892Y-18590D01*
X-1885Y-18586D01*
X-1878Y-18582D01*
X-1873Y-18580D01*
X-1867Y-18577D01*
X-1860Y-18573D01*
X-1855Y-18571D01*
X-1848Y-18569D01*
X-1843Y-18567D01*
X-1838Y-18566D01*
X-1834Y-18565D01*
X-1828Y-18563D01*
X-1824Y-18562D01*
X-1818Y-18561D01*
X-1812Y-18560D01*
X-1808Y-18560D01*
X-1802Y-18559D01*
X-1798Y-18559D01*
X-1793Y-18559D01*
X-1787Y-18559D01*
D02*
G37*
G36*
X-439Y-18558D02*
X-431Y-18559D01*
X-427Y-18559D01*
X-422Y-18560D01*
X-417Y-18561D01*
X-411Y-18563D01*
X-404Y-18564D01*
X-397Y-18567D01*
X-392Y-18569D01*
X-387Y-18571D01*
X-382Y-18573D01*
X-374Y-18577D01*
X-371Y-18580D01*
X-364Y-18584D01*
X-359Y-18587D01*
X-352Y-18593D01*
X-348Y-18597D01*
X-344Y-18600D01*
X-341Y-18604D01*
X-337Y-18609D01*
X-332Y-18615D01*
X-327Y-18621D01*
X-323Y-18627D01*
X-320Y-18633D01*
X-317Y-18639D01*
X-313Y-18647D01*
X-311Y-18653D01*
X-309Y-18659D01*
X-307Y-18665D01*
X-305Y-18676D01*
X-303Y-18684D01*
X-303Y-18691D01*
X-302Y-18702D01*
X-366Y-18702D01*
X-302D01*
X-303Y-18711D01*
X-303Y-18719D01*
X-305Y-18727D01*
X-307Y-18738D01*
X-309Y-18745D01*
X-312Y-18753D01*
X-314Y-18760D01*
X-317Y-18765D01*
X-320Y-18772D01*
X-323Y-18776D01*
X-327Y-18783D01*
X-332Y-18790D01*
X-339Y-18797D01*
X-343Y-18802D01*
X-347Y-18806D01*
X-352Y-18811D01*
X-359Y-18816D01*
X-364Y-18819D01*
X-372Y-18825D01*
X-378Y-18828D01*
X-385Y-18831D01*
X-391Y-18834D01*
X-399Y-18837D01*
X-405Y-18839D01*
X-411Y-18840D01*
X-416Y-18841D01*
X-421Y-18842D01*
X-425Y-18843D01*
X-434Y-18844D01*
X-441Y-18845D01*
X-449Y-18845D01*
X-456Y-18845D01*
X-464Y-18844D01*
X-473Y-18843D01*
X-477Y-18842D01*
X-483Y-18841D01*
X-488Y-18840D01*
X-494Y-18838D01*
X-499Y-18836D01*
X-506Y-18834D01*
X-514Y-18830D01*
X-518Y-18828D01*
X-525Y-18825D01*
X-530Y-18821D01*
X-535Y-18818D01*
X-540Y-18815D01*
X-548Y-18808D01*
X-551Y-18805D01*
X-556Y-18800D01*
X-560Y-18796D01*
X-564Y-18791D01*
X-570Y-18784D01*
X-573Y-18778D01*
X-577Y-18772D01*
X-580Y-18766D01*
X-583Y-18760D01*
X-586Y-18754D01*
X-588Y-18748D01*
X-590Y-18742D01*
X-591Y-18736D01*
X-593Y-18732D01*
X-594Y-18724D01*
X-595Y-18718D01*
X-595Y-18713D01*
X-596Y-18705D01*
X-596Y-18698D01*
X-595Y-18692D01*
X-595Y-18686D01*
X-594Y-18679D01*
X-593Y-18674D01*
X-591Y-18665D01*
X-590Y-18661D01*
X-588Y-18655D01*
X-587Y-18650D01*
X-585Y-18645D01*
X-583Y-18641D01*
X-581Y-18637D01*
X-577Y-18630D01*
X-575Y-18626D01*
X-572Y-18621D01*
X-569Y-18617D01*
X-565Y-18612D01*
X-562Y-18609D01*
X-559Y-18604D01*
X-555Y-18600D01*
X-550Y-18596D01*
X-547Y-18593D01*
X-542Y-18589D01*
X-538Y-18586D01*
X-532Y-18582D01*
X-528Y-18579D01*
X-524Y-18577D01*
X-519Y-18574D01*
X-509Y-18570D01*
X-504Y-18568D01*
X-494Y-18564D01*
X-489Y-18563D01*
X-484Y-18562D01*
X-479Y-18561D01*
X-471Y-18559D01*
X-463Y-18558D01*
X-453Y-18558D01*
X-447Y-18558D01*
X-439Y-18558D01*
D02*
G37*
G36*
X-3508D02*
X-3500Y-18559D01*
X-3496Y-18559D01*
X-3491Y-18560D01*
X-3486Y-18561D01*
X-3480Y-18563D01*
X-3473Y-18564D01*
X-3466Y-18567D01*
X-3461Y-18569D01*
X-3456Y-18571D01*
X-3451Y-18573D01*
X-3443Y-18577D01*
X-3440Y-18580D01*
X-3433Y-18584D01*
X-3428Y-18587D01*
X-3421Y-18593D01*
X-3417Y-18597D01*
X-3413Y-18600D01*
X-3410Y-18604D01*
X-3406Y-18609D01*
X-3401Y-18615D01*
X-3396Y-18621D01*
X-3392Y-18627D01*
X-3389Y-18633D01*
X-3386Y-18639D01*
X-3382Y-18647D01*
X-3380Y-18653D01*
X-3378Y-18659D01*
X-3376Y-18665D01*
X-3374Y-18676D01*
X-3373Y-18684D01*
X-3372Y-18691D01*
X-3372Y-18702D01*
X-3435Y-18702D01*
X-3372D01*
X-3372Y-18711D01*
X-3372Y-18719D01*
X-3374Y-18727D01*
X-3376Y-18738D01*
X-3378Y-18745D01*
X-3381Y-18753D01*
X-3383Y-18760D01*
X-3386Y-18765D01*
X-3389Y-18772D01*
X-3392Y-18776D01*
X-3396Y-18783D01*
X-3402Y-18790D01*
X-3408Y-18797D01*
X-3412Y-18802D01*
X-3416Y-18806D01*
X-3421Y-18811D01*
X-3428Y-18816D01*
X-3433Y-18819D01*
X-3441Y-18825D01*
X-3447Y-18828D01*
X-3454Y-18831D01*
X-3460Y-18834D01*
X-3468Y-18837D01*
X-3474Y-18839D01*
X-3480Y-18840D01*
X-3485Y-18841D01*
X-3490Y-18842D01*
X-3494Y-18843D01*
X-3503Y-18844D01*
X-3510Y-18845D01*
X-3518Y-18845D01*
X-3525Y-18845D01*
X-3533Y-18844D01*
X-3542Y-18843D01*
X-3546Y-18842D01*
X-3552Y-18841D01*
X-3557Y-18840D01*
X-3563Y-18838D01*
X-3568Y-18836D01*
X-3575Y-18834D01*
X-3583Y-18830D01*
X-3587Y-18828D01*
X-3594Y-18825D01*
X-3599Y-18821D01*
X-3604Y-18818D01*
X-3609Y-18815D01*
X-3617Y-18808D01*
X-3620Y-18805D01*
X-3625Y-18800D01*
X-3629Y-18796D01*
X-3633Y-18791D01*
X-3639Y-18784D01*
X-3642Y-18778D01*
X-3646Y-18772D01*
X-3650Y-18766D01*
X-3652Y-18760D01*
X-3655Y-18754D01*
X-3657Y-18748D01*
X-3659Y-18742D01*
X-3660Y-18736D01*
X-3662Y-18732D01*
X-3663Y-18724D01*
X-3664Y-18718D01*
X-3664Y-18713D01*
X-3665Y-18705D01*
X-3665Y-18698D01*
X-3665Y-18692D01*
X-3664Y-18686D01*
X-3663Y-18679D01*
X-3662Y-18674D01*
X-3660Y-18665D01*
X-3659Y-18661D01*
X-3657Y-18655D01*
X-3656Y-18650D01*
X-3654Y-18645D01*
X-3652Y-18641D01*
X-3650Y-18637D01*
X-3646Y-18630D01*
X-3644Y-18626D01*
X-3641Y-18621D01*
X-3638Y-18617D01*
X-3634Y-18612D01*
X-3632Y-18609D01*
X-3628Y-18604D01*
X-3624Y-18600D01*
X-3619Y-18596D01*
X-3616Y-18593D01*
X-3611Y-18589D01*
X-3607Y-18586D01*
X-3601Y-18582D01*
X-3597Y-18579D01*
X-3593Y-18577D01*
X-3588Y-18574D01*
X-3578Y-18570D01*
X-3573Y-18568D01*
X-3563Y-18564D01*
X-3558Y-18563D01*
X-3553Y-18562D01*
X-3548Y-18561D01*
X-3540Y-18559D01*
X-3532Y-18558D01*
X-3522Y-18558D01*
X-3516Y-18558D01*
X-3508Y-18558D01*
D02*
G37*
G36*
X-4060Y-6140D02*
X-4043Y-6144D01*
X-4028Y-6149D01*
X-4017Y-6154D01*
X-4007Y-6160D01*
X-4000Y-6165D01*
X-3995Y-6169D01*
X-3994Y-6169D01*
X-3994Y-6170D01*
X-3988Y-6176D01*
X-3983Y-6184D01*
X-3973Y-6199D01*
X-3966Y-6215D01*
X-3960Y-6232D01*
X-3955Y-6246D01*
X-3954Y-6252D01*
X-3952Y-6258D01*
X-3951Y-6263D01*
X-3951Y-6266D01*
X-3950Y-6269D01*
Y-6269D01*
X-4023Y-6284D01*
X-4024Y-6272D01*
X-4026Y-6263D01*
X-4029Y-6254D01*
X-4032Y-6247D01*
X-4035Y-6242D01*
X-4037Y-6238D01*
X-4039Y-6235D01*
X-4040Y-6235D01*
X-4045Y-6229D01*
X-4051Y-6225D01*
X-4057Y-6222D01*
X-4062Y-6220D01*
X-4067Y-6218D01*
X-4071Y-6218D01*
X-4074D01*
X-4082Y-6218D01*
X-4088Y-6220D01*
X-4094Y-6222D01*
X-4099Y-6225D01*
X-4102Y-6228D01*
X-4105Y-6230D01*
X-4107Y-6232D01*
X-4108Y-6232D01*
X-4112Y-6238D01*
X-4115Y-6245D01*
X-4118Y-6252D01*
X-4119Y-6258D01*
X-4120Y-6263D01*
X-4121Y-6268D01*
Y-6271D01*
Y-6272D01*
X-4120Y-6283D01*
X-4118Y-6293D01*
X-4115Y-6301D01*
X-4112Y-6308D01*
X-4109Y-6313D01*
X-4106Y-6317D01*
X-4104Y-6320D01*
X-4103Y-6320D01*
X-4096Y-6326D01*
X-4088Y-6330D01*
X-4080Y-6332D01*
X-4072Y-6334D01*
X-4065Y-6335D01*
X-4060Y-6336D01*
X-4054D01*
X-4046Y-6414D01*
X-4054Y-6412D01*
X-4060Y-6410D01*
X-4067Y-6408D01*
X-4072Y-6408D01*
X-4076Y-6407D01*
X-4082D01*
X-4090Y-6408D01*
X-4097Y-6410D01*
X-4104Y-6414D01*
X-4110Y-6417D01*
X-4114Y-6422D01*
X-4118Y-6425D01*
X-4120Y-6428D01*
X-4121Y-6428D01*
X-4126Y-6437D01*
X-4131Y-6446D01*
X-4134Y-6456D01*
X-4135Y-6465D01*
X-4136Y-6473D01*
X-4137Y-6480D01*
Y-6484D01*
Y-6485D01*
Y-6485D01*
X-4136Y-6500D01*
X-4134Y-6511D01*
X-4132Y-6522D01*
X-4129Y-6531D01*
X-4125Y-6538D01*
X-4123Y-6542D01*
X-4121Y-6546D01*
X-4120Y-6547D01*
X-4114Y-6554D01*
X-4107Y-6559D01*
X-4099Y-6563D01*
X-4093Y-6565D01*
X-4088Y-6567D01*
X-4083Y-6568D01*
X-4079D01*
X-4071Y-6568D01*
X-4063Y-6565D01*
X-4057Y-6562D01*
X-4051Y-6559D01*
X-4047Y-6556D01*
X-4043Y-6553D01*
X-4041Y-6551D01*
X-4040Y-6550D01*
X-4035Y-6542D01*
X-4031Y-6534D01*
X-4027Y-6525D01*
X-4025Y-6516D01*
X-4023Y-6508D01*
X-4022Y-6502D01*
X-4021Y-6497D01*
Y-6497D01*
Y-6496D01*
X-3945Y-6507D01*
X-3949Y-6531D01*
X-3954Y-6551D01*
X-3957Y-6560D01*
X-3961Y-6568D01*
X-3965Y-6576D01*
X-3968Y-6583D01*
X-3972Y-6590D01*
X-3976Y-6595D01*
X-3979Y-6599D01*
X-3982Y-6604D01*
X-3984Y-6607D01*
X-3986Y-6609D01*
X-3987Y-6610D01*
X-3988Y-6611D01*
X-3995Y-6617D01*
X-4003Y-6623D01*
X-4010Y-6628D01*
X-4018Y-6632D01*
X-4034Y-6639D01*
X-4048Y-6644D01*
X-4060Y-6646D01*
X-4066Y-6647D01*
X-4071Y-6647D01*
X-4074Y-6648D01*
X-4079D01*
X-4090Y-6647D01*
X-4099Y-6646D01*
X-4109Y-6644D01*
X-4119Y-6642D01*
X-4135Y-6634D01*
X-4149Y-6626D01*
X-4161Y-6618D01*
X-4165Y-6614D01*
X-4169Y-6611D01*
X-4172Y-6608D01*
X-4175Y-6606D01*
X-4176Y-6605D01*
X-4176Y-6604D01*
X-4184Y-6595D01*
X-4190Y-6586D01*
X-4196Y-6576D01*
X-4200Y-6567D01*
X-4208Y-6548D01*
X-4213Y-6531D01*
X-4214Y-6522D01*
X-4216Y-6514D01*
X-4216Y-6508D01*
X-4217Y-6502D01*
X-4218Y-6497D01*
Y-6494D01*
Y-6491D01*
Y-6491D01*
X-4217Y-6474D01*
X-4214Y-6458D01*
X-4211Y-6445D01*
X-4207Y-6434D01*
X-4203Y-6425D01*
X-4199Y-6418D01*
X-4196Y-6414D01*
X-4196Y-6412D01*
X-4187Y-6401D01*
X-4178Y-6392D01*
X-4169Y-6386D01*
X-4160Y-6380D01*
X-4152Y-6376D01*
X-4146Y-6374D01*
X-4142Y-6372D01*
X-4141Y-6371D01*
X-4140D01*
X-4151Y-6364D01*
X-4159Y-6356D01*
X-4168Y-6348D01*
X-4173Y-6341D01*
X-4179Y-6334D01*
X-4182Y-6330D01*
X-4184Y-6327D01*
X-4185Y-6326D01*
X-4190Y-6315D01*
X-4193Y-6305D01*
X-4196Y-6295D01*
X-4198Y-6286D01*
X-4199Y-6278D01*
X-4200Y-6272D01*
Y-6268D01*
Y-6266D01*
Y-6258D01*
X-4199Y-6249D01*
X-4195Y-6232D01*
X-4190Y-6218D01*
X-4184Y-6204D01*
X-4177Y-6193D01*
X-4174Y-6189D01*
X-4172Y-6185D01*
X-4170Y-6182D01*
X-4168Y-6180D01*
X-4168Y-6179D01*
X-4167Y-6178D01*
X-4160Y-6171D01*
X-4153Y-6165D01*
X-4146Y-6160D01*
X-4139Y-6155D01*
X-4124Y-6148D01*
X-4110Y-6144D01*
X-4097Y-6141D01*
X-4091Y-6140D01*
X-4087Y-6139D01*
X-4082Y-6138D01*
X-4068D01*
X-4060Y-6140D01*
D02*
G37*
G36*
X-4391Y-6139D02*
X-4381Y-6140D01*
X-4362Y-6144D01*
X-4346Y-6149D01*
X-4333Y-6156D01*
X-4321Y-6163D01*
X-4318Y-6166D01*
X-4314Y-6169D01*
X-4311Y-6171D01*
X-4309Y-6173D01*
X-4308Y-6174D01*
X-4307Y-6175D01*
X-4301Y-6182D01*
X-4296Y-6189D01*
X-4286Y-6207D01*
X-4279Y-6226D01*
X-4273Y-6243D01*
X-4271Y-6252D01*
X-4269Y-6260D01*
X-4268Y-6268D01*
X-4267Y-6274D01*
X-4266Y-6279D01*
Y-6283D01*
X-4265Y-6286D01*
Y-6286D01*
X-4344Y-6297D01*
X-4345Y-6283D01*
X-4347Y-6271D01*
X-4350Y-6260D01*
X-4354Y-6252D01*
X-4358Y-6243D01*
X-4363Y-6238D01*
X-4368Y-6232D01*
X-4373Y-6228D01*
X-4378Y-6225D01*
X-4383Y-6223D01*
X-4392Y-6220D01*
X-4395Y-6219D01*
X-4398Y-6218D01*
X-4400D01*
X-4408Y-6219D01*
X-4416Y-6221D01*
X-4423Y-6223D01*
X-4428Y-6226D01*
X-4432Y-6230D01*
X-4435Y-6232D01*
X-4438Y-6235D01*
X-4438Y-6235D01*
X-4444Y-6242D01*
X-4447Y-6250D01*
X-4449Y-6258D01*
X-4452Y-6266D01*
X-4452Y-6274D01*
X-4453Y-6280D01*
Y-6283D01*
Y-6284D01*
Y-6285D01*
X-4452Y-6296D01*
X-4450Y-6307D01*
X-4447Y-6317D01*
X-4444Y-6326D01*
X-4441Y-6334D01*
X-4438Y-6340D01*
X-4436Y-6344D01*
X-4435Y-6346D01*
X-4432Y-6350D01*
X-4429Y-6355D01*
X-4420Y-6367D01*
X-4410Y-6380D01*
X-4398Y-6393D01*
X-4388Y-6406D01*
X-4384Y-6411D01*
X-4379Y-6416D01*
X-4376Y-6420D01*
X-4373Y-6423D01*
X-4372Y-6425D01*
X-4371Y-6425D01*
X-4359Y-6439D01*
X-4349Y-6452D01*
X-4338Y-6464D01*
X-4330Y-6475D01*
X-4321Y-6486D01*
X-4315Y-6496D01*
X-4308Y-6505D01*
X-4303Y-6513D01*
X-4298Y-6520D01*
X-4293Y-6526D01*
X-4290Y-6532D01*
X-4287Y-6536D01*
X-4285Y-6540D01*
X-4284Y-6542D01*
X-4283Y-6544D01*
Y-6545D01*
X-4276Y-6562D01*
X-4270Y-6579D01*
X-4264Y-6595D01*
X-4262Y-6609D01*
X-4259Y-6622D01*
X-4258Y-6627D01*
X-4257Y-6631D01*
Y-6635D01*
X-4256Y-6638D01*
Y-6639D01*
Y-6640D01*
X-4532D01*
Y-6551D01*
X-4375D01*
X-4381Y-6542D01*
X-4386Y-6534D01*
X-4388Y-6531D01*
X-4390Y-6528D01*
X-4391Y-6526D01*
X-4392Y-6525D01*
X-4397Y-6519D01*
X-4404Y-6511D01*
X-4412Y-6502D01*
X-4420Y-6492D01*
X-4427Y-6483D01*
X-4434Y-6476D01*
X-4436Y-6473D01*
X-4438Y-6471D01*
X-4439Y-6470D01*
X-4440Y-6469D01*
X-4454Y-6453D01*
X-4466Y-6438D01*
X-4476Y-6425D01*
X-4484Y-6414D01*
X-4490Y-6406D01*
X-4495Y-6400D01*
X-4497Y-6396D01*
X-4498Y-6394D01*
X-4504Y-6383D01*
X-4509Y-6373D01*
X-4514Y-6363D01*
X-4518Y-6354D01*
X-4520Y-6347D01*
X-4522Y-6342D01*
X-4523Y-6338D01*
Y-6337D01*
X-4526Y-6326D01*
X-4529Y-6315D01*
X-4530Y-6305D01*
X-4532Y-6296D01*
Y-6288D01*
X-4532Y-6282D01*
Y-6278D01*
Y-6277D01*
Y-6266D01*
X-4531Y-6257D01*
X-4527Y-6239D01*
X-4522Y-6223D01*
X-4516Y-6209D01*
X-4509Y-6197D01*
X-4506Y-6192D01*
X-4504Y-6188D01*
X-4502Y-6185D01*
X-4501Y-6183D01*
X-4500Y-6181D01*
X-4499Y-6181D01*
X-4492Y-6173D01*
X-4486Y-6166D01*
X-4478Y-6161D01*
X-4470Y-6156D01*
X-4462Y-6152D01*
X-4454Y-6149D01*
X-4438Y-6144D01*
X-4424Y-6141D01*
X-4418Y-6140D01*
X-4412Y-6139D01*
X-4407Y-6138D01*
X-4401D01*
X-4391Y-6139D01*
D02*
G37*
G36*
X-3639Y-6407D02*
X-3703Y-6418D01*
X-3708Y-6411D01*
X-3713Y-6406D01*
X-3718Y-6401D01*
X-3724Y-6397D01*
X-3734Y-6391D01*
X-3744Y-6386D01*
X-3752Y-6384D01*
X-3758Y-6383D01*
X-3762Y-6382D01*
X-3764D01*
X-3773Y-6383D01*
X-3781Y-6386D01*
X-3789Y-6389D01*
X-3795Y-6393D01*
X-3801Y-6397D01*
X-3804Y-6401D01*
X-3806Y-6404D01*
X-3807Y-6405D01*
X-3813Y-6414D01*
X-3818Y-6425D01*
X-3820Y-6437D01*
X-3823Y-6448D01*
X-3824Y-6458D01*
X-3825Y-6466D01*
Y-6470D01*
Y-6472D01*
Y-6474D01*
Y-6474D01*
X-3824Y-6491D01*
X-3822Y-6507D01*
X-3819Y-6519D01*
X-3816Y-6530D01*
X-3813Y-6537D01*
X-3810Y-6543D01*
X-3808Y-6546D01*
X-3807Y-6548D01*
X-3801Y-6556D01*
X-3794Y-6561D01*
X-3786Y-6565D01*
X-3780Y-6568D01*
X-3775Y-6570D01*
X-3770Y-6571D01*
X-3766Y-6571D01*
X-3766D01*
X-3758Y-6571D01*
X-3752Y-6568D01*
X-3745Y-6565D01*
X-3740Y-6562D01*
X-3735Y-6559D01*
X-3732Y-6556D01*
X-3729Y-6554D01*
X-3729Y-6553D01*
X-3723Y-6545D01*
X-3718Y-6536D01*
X-3715Y-6528D01*
X-3712Y-6520D01*
X-3711Y-6513D01*
X-3709Y-6506D01*
X-3709Y-6502D01*
Y-6501D01*
X-3630Y-6511D01*
X-3634Y-6534D01*
X-3637Y-6545D01*
X-3640Y-6555D01*
X-3644Y-6564D01*
X-3647Y-6572D01*
X-3651Y-6580D01*
X-3655Y-6587D01*
X-3658Y-6593D01*
X-3662Y-6598D01*
X-3665Y-6602D01*
X-3668Y-6606D01*
X-3670Y-6609D01*
X-3672Y-6611D01*
X-3673Y-6612D01*
X-3674Y-6613D01*
X-3681Y-6619D01*
X-3689Y-6625D01*
X-3704Y-6633D01*
X-3719Y-6639D01*
X-3733Y-6644D01*
X-3746Y-6646D01*
X-3752Y-6647D01*
X-3756D01*
X-3760Y-6648D01*
X-3765D01*
X-3778Y-6647D01*
X-3789Y-6646D01*
X-3800Y-6643D01*
X-3809Y-6639D01*
X-3819Y-6636D01*
X-3827Y-6631D01*
X-3835Y-6626D01*
X-3842Y-6621D01*
X-3848Y-6616D01*
X-3854Y-6611D01*
X-3858Y-6606D01*
X-3862Y-6602D01*
X-3865Y-6599D01*
X-3867Y-6596D01*
X-3868Y-6594D01*
X-3869Y-6593D01*
X-3875Y-6583D01*
X-3881Y-6572D01*
X-3886Y-6562D01*
X-3890Y-6551D01*
X-3897Y-6531D01*
X-3901Y-6512D01*
X-3903Y-6503D01*
X-3903Y-6496D01*
X-3905Y-6489D01*
Y-6483D01*
X-3906Y-6479D01*
Y-6475D01*
Y-6473D01*
Y-6472D01*
X-3905Y-6457D01*
X-3904Y-6443D01*
X-3902Y-6431D01*
X-3899Y-6418D01*
X-3896Y-6407D01*
X-3892Y-6396D01*
X-3888Y-6386D01*
X-3884Y-6377D01*
X-3880Y-6370D01*
X-3876Y-6363D01*
X-3872Y-6357D01*
X-3869Y-6352D01*
X-3866Y-6349D01*
X-3865Y-6346D01*
X-3863Y-6344D01*
X-3863Y-6343D01*
X-3856Y-6337D01*
X-3849Y-6331D01*
X-3843Y-6326D01*
X-3835Y-6321D01*
X-3821Y-6314D01*
X-3809Y-6309D01*
X-3797Y-6307D01*
X-3792Y-6306D01*
X-3788Y-6306D01*
X-3784Y-6305D01*
X-3780D01*
X-3769Y-6306D01*
X-3760Y-6308D01*
X-3751Y-6310D01*
X-3743Y-6313D01*
X-3735Y-6317D01*
X-3730Y-6319D01*
X-3727Y-6321D01*
X-3726Y-6322D01*
X-3739Y-6236D01*
X-3887D01*
Y-6147D01*
X-3679D01*
X-3639Y-6407D01*
D02*
G37*
G36*
X-2658Y-6456D02*
Y-6539D01*
X-2826D01*
Y-6640D01*
X-2902D01*
Y-6539D01*
X-2953D01*
Y-6455D01*
X-2902D01*
Y-6138D01*
X-2836D01*
X-2658Y-6456D01*
D02*
G37*
G36*
X-3112Y-6139D02*
X-3102Y-6141D01*
X-3092Y-6144D01*
X-3083Y-6147D01*
X-3067Y-6156D01*
X-3053Y-6166D01*
X-3042Y-6178D01*
X-3038Y-6182D01*
X-3034Y-6186D01*
X-3031Y-6190D01*
X-3029Y-6193D01*
X-3028Y-6195D01*
X-3027Y-6195D01*
X-3021Y-6207D01*
X-3015Y-6221D01*
X-3010Y-6235D01*
X-3006Y-6250D01*
X-3000Y-6283D01*
X-2995Y-6315D01*
X-2994Y-6331D01*
X-2993Y-6346D01*
X-2992Y-6359D01*
X-2992Y-6370D01*
X-2991Y-6380D01*
Y-6387D01*
Y-6389D01*
Y-6391D01*
Y-6392D01*
Y-6393D01*
X-2992Y-6419D01*
X-2992Y-6443D01*
X-2995Y-6465D01*
X-2997Y-6485D01*
X-2999Y-6503D01*
X-3003Y-6519D01*
X-3006Y-6534D01*
X-3009Y-6547D01*
X-3012Y-6558D01*
X-3016Y-6568D01*
X-3019Y-6575D01*
X-3021Y-6582D01*
X-3024Y-6587D01*
X-3026Y-6590D01*
X-3026Y-6592D01*
X-3027Y-6593D01*
X-3035Y-6602D01*
X-3042Y-6611D01*
X-3050Y-6619D01*
X-3058Y-6625D01*
X-3066Y-6630D01*
X-3074Y-6635D01*
X-3082Y-6639D01*
X-3089Y-6642D01*
X-3103Y-6645D01*
X-3109Y-6647D01*
X-3115Y-6647D01*
X-3118D01*
X-3121Y-6648D01*
X-3124D01*
X-3135Y-6647D01*
X-3146Y-6646D01*
X-3155Y-6643D01*
X-3164Y-6639D01*
X-3180Y-6630D01*
X-3194Y-6620D01*
X-3206Y-6610D01*
X-3210Y-6605D01*
X-3214Y-6601D01*
X-3217Y-6597D01*
X-3219Y-6594D01*
X-3220Y-6593D01*
X-3220Y-6592D01*
X-3227Y-6580D01*
X-3233Y-6567D01*
X-3237Y-6553D01*
X-3242Y-6537D01*
X-3248Y-6504D01*
X-3253Y-6471D01*
X-3254Y-6456D01*
X-3255Y-6441D01*
X-3257Y-6428D01*
Y-6417D01*
X-3257Y-6407D01*
Y-6400D01*
Y-6397D01*
Y-6395D01*
Y-6394D01*
Y-6394D01*
X-3257Y-6368D01*
X-3256Y-6345D01*
X-3254Y-6323D01*
X-3251Y-6303D01*
X-3248Y-6285D01*
X-3246Y-6269D01*
X-3243Y-6255D01*
X-3239Y-6241D01*
X-3235Y-6230D01*
X-3232Y-6221D01*
X-3229Y-6213D01*
X-3226Y-6206D01*
X-3224Y-6201D01*
X-3222Y-6198D01*
X-3221Y-6196D01*
X-3220Y-6195D01*
X-3213Y-6185D01*
X-3206Y-6177D01*
X-3197Y-6169D01*
X-3189Y-6162D01*
X-3181Y-6157D01*
X-3174Y-6152D01*
X-3166Y-6149D01*
X-3158Y-6146D01*
X-3144Y-6141D01*
X-3138Y-6140D01*
X-3133Y-6139D01*
X-3129Y-6138D01*
X-3123D01*
X-3112Y-6139D01*
D02*
G37*
G36*
X-3431D02*
X-3421Y-6141D01*
X-3411Y-6144D01*
X-3402Y-6147D01*
X-3386Y-6156D01*
X-3372Y-6166D01*
X-3361Y-6178D01*
X-3357Y-6182D01*
X-3353Y-6186D01*
X-3350Y-6190D01*
X-3348Y-6193D01*
X-3347Y-6195D01*
X-3346Y-6195D01*
X-3339Y-6207D01*
X-3334Y-6221D01*
X-3329Y-6235D01*
X-3325Y-6250D01*
X-3319Y-6283D01*
X-3314Y-6315D01*
X-3313Y-6331D01*
X-3312Y-6346D01*
X-3311Y-6359D01*
X-3311Y-6370D01*
X-3310Y-6380D01*
Y-6387D01*
Y-6389D01*
Y-6391D01*
Y-6392D01*
Y-6393D01*
X-3311Y-6419D01*
X-3311Y-6443D01*
X-3314Y-6465D01*
X-3316Y-6485D01*
X-3318Y-6503D01*
X-3322Y-6519D01*
X-3325Y-6534D01*
X-3328Y-6547D01*
X-3331Y-6558D01*
X-3335Y-6568D01*
X-3338Y-6575D01*
X-3340Y-6582D01*
X-3343Y-6587D01*
X-3345Y-6590D01*
X-3345Y-6592D01*
X-3346Y-6593D01*
X-3354Y-6602D01*
X-3361Y-6611D01*
X-3369Y-6619D01*
X-3377Y-6625D01*
X-3385Y-6630D01*
X-3393Y-6635D01*
X-3401Y-6639D01*
X-3408Y-6642D01*
X-3422Y-6645D01*
X-3428Y-6647D01*
X-3433Y-6647D01*
X-3437D01*
X-3440Y-6648D01*
X-3443D01*
X-3454Y-6647D01*
X-3465Y-6646D01*
X-3474Y-6643D01*
X-3483Y-6639D01*
X-3499Y-6630D01*
X-3513Y-6620D01*
X-3524Y-6610D01*
X-3529Y-6605D01*
X-3533Y-6601D01*
X-3536Y-6597D01*
X-3538Y-6594D01*
X-3539Y-6593D01*
X-3539Y-6592D01*
X-3546Y-6580D01*
X-3552Y-6567D01*
X-3556Y-6553D01*
X-3561Y-6537D01*
X-3567Y-6504D01*
X-3572Y-6471D01*
X-3573Y-6456D01*
X-3574Y-6441D01*
X-3576Y-6428D01*
Y-6417D01*
X-3576Y-6407D01*
Y-6400D01*
Y-6397D01*
Y-6395D01*
Y-6394D01*
Y-6394D01*
X-3576Y-6368D01*
X-3575Y-6345D01*
X-3573Y-6323D01*
X-3570Y-6303D01*
X-3567Y-6285D01*
X-3564Y-6269D01*
X-3561Y-6255D01*
X-3558Y-6241D01*
X-3554Y-6230D01*
X-3551Y-6221D01*
X-3548Y-6213D01*
X-3545Y-6206D01*
X-3543Y-6201D01*
X-3541Y-6198D01*
X-3540Y-6196D01*
X-3539Y-6195D01*
X-3532Y-6185D01*
X-3524Y-6177D01*
X-3516Y-6169D01*
X-3508Y-6162D01*
X-3500Y-6157D01*
X-3493Y-6152D01*
X-3485Y-6149D01*
X-3477Y-6146D01*
X-3463Y-6141D01*
X-3457Y-6140D01*
X-3452Y-6139D01*
X-3448Y-6138D01*
X-3442D01*
X-3431Y-6139D01*
D02*
G37*
G36*
X935Y-4734D02*
X650D01*
Y-4653D01*
X848D01*
Y-4260D01*
X935D01*
Y-4734D01*
D02*
G37*
G36*
X646D02*
X549D01*
X510Y-4626D01*
X314D01*
X275Y-4734D01*
X178D01*
X369Y-4260D01*
X455D01*
X646Y-4734D01*
D02*
G37*
G36*
X131D02*
X-70D01*
X-83Y-4734D01*
X-94Y-4733D01*
X-115Y-4729D01*
X-134Y-4723D01*
X-142Y-4720D01*
X-150Y-4717D01*
X-156Y-4714D01*
X-163Y-4711D01*
X-168Y-4708D01*
X-172Y-4705D01*
X-175Y-4703D01*
X-177Y-4701D01*
X-179Y-4700D01*
X-180D01*
X-188Y-4693D01*
X-194Y-4686D01*
X-200Y-4678D01*
X-205Y-4670D01*
X-209Y-4661D01*
X-212Y-4653D01*
X-218Y-4637D01*
X-221Y-4623D01*
X-222Y-4616D01*
X-223Y-4611D01*
X-223Y-4607D01*
Y-4603D01*
Y-4601D01*
Y-4600D01*
X-222Y-4582D01*
X-219Y-4566D01*
X-215Y-4552D01*
X-210Y-4540D01*
X-205Y-4531D01*
X-201Y-4524D01*
X-199Y-4521D01*
X-197Y-4519D01*
X-187Y-4509D01*
X-175Y-4501D01*
X-164Y-4494D01*
X-153Y-4490D01*
X-142Y-4486D01*
X-134Y-4484D01*
X-131Y-4483D01*
X-129Y-4483D01*
X-127D01*
Y-4481D01*
X-140Y-4476D01*
X-150Y-4471D01*
X-159Y-4465D01*
X-167Y-4459D01*
X-173Y-4453D01*
X-177Y-4448D01*
X-180Y-4446D01*
X-180Y-4444D01*
X-187Y-4434D01*
X-191Y-4423D01*
X-195Y-4412D01*
X-197Y-4402D01*
X-199Y-4393D01*
X-199Y-4386D01*
Y-4383D01*
Y-4381D01*
Y-4380D01*
Y-4379D01*
X-199Y-4369D01*
X-198Y-4359D01*
X-193Y-4341D01*
X-187Y-4326D01*
X-180Y-4314D01*
X-172Y-4303D01*
X-166Y-4297D01*
X-161Y-4292D01*
X-161Y-4291D01*
X-160D01*
X-153Y-4285D01*
X-145Y-4281D01*
X-128Y-4273D01*
X-110Y-4267D01*
X-94Y-4263D01*
X-80Y-4261D01*
X-73Y-4260D01*
X-68D01*
X-64Y-4260D01*
X131D01*
Y-4734D01*
D02*
G37*
G36*
X-290D02*
X-575D01*
Y-4653D01*
X-377D01*
Y-4516D01*
X-555D01*
Y-4436D01*
X-377D01*
Y-4341D01*
X-572D01*
Y-4260D01*
X-290D01*
Y-4734D01*
D02*
G37*
G36*
X-647D02*
X-932D01*
Y-4653D01*
X-734D01*
Y-4260D01*
X-647D01*
Y-4734D01*
D02*
G37*
G36*
X131Y-15014D02*
X64D01*
Y-14950D01*
X131D01*
Y-15014D01*
D02*
G37*
G36*
X-1220Y-14952D02*
X-1212Y-14953D01*
X-1203Y-14954D01*
X-1196Y-14956D01*
X-1189Y-14957D01*
X-1182Y-14959D01*
X-1176Y-14962D01*
X-1171Y-14964D01*
X-1166Y-14966D01*
X-1162Y-14969D01*
X-1158Y-14971D01*
X-1155Y-14973D01*
X-1153Y-14974D01*
X-1152Y-14976D01*
X-1151Y-14976D01*
X-1150Y-14977D01*
X-1145Y-14981D01*
X-1141Y-14987D01*
X-1137Y-14992D01*
X-1134Y-14998D01*
X-1128Y-15009D01*
X-1125Y-15020D01*
X-1123Y-15030D01*
X-1122Y-15034D01*
X-1122Y-15038D01*
X-1121Y-15041D01*
Y-15043D01*
Y-15045D01*
Y-15045D01*
X-1181D01*
X-1181Y-15038D01*
X-1183Y-15032D01*
X-1185Y-15028D01*
X-1187Y-15024D01*
X-1190Y-15020D01*
X-1191Y-15018D01*
X-1193Y-15016D01*
X-1193Y-15016D01*
X-1198Y-15012D01*
X-1203Y-15010D01*
X-1209Y-15008D01*
X-1215Y-15007D01*
X-1219Y-15006D01*
X-1223Y-15006D01*
X-1227D01*
X-1234Y-15006D01*
X-1241Y-15007D01*
X-1246Y-15009D01*
X-1251Y-15011D01*
X-1254Y-15013D01*
X-1257Y-15015D01*
X-1258Y-15016D01*
X-1259Y-15016D01*
X-1263Y-15021D01*
X-1266Y-15025D01*
X-1268Y-15030D01*
X-1269Y-15035D01*
X-1270Y-15039D01*
X-1271Y-15042D01*
Y-15045D01*
Y-15046D01*
X-1270Y-15053D01*
X-1268Y-15060D01*
X-1266Y-15066D01*
X-1262Y-15071D01*
X-1257Y-15075D01*
X-1252Y-15079D01*
X-1247Y-15082D01*
X-1242Y-15084D01*
X-1236Y-15086D01*
X-1231Y-15087D01*
X-1226Y-15088D01*
X-1222Y-15089D01*
X-1218D01*
X-1215Y-15089D01*
X-1199D01*
Y-15137D01*
X-1219D01*
X-1226Y-15137D01*
X-1237Y-15138D01*
X-1246Y-15140D01*
X-1253Y-15142D01*
X-1259Y-15144D01*
X-1263Y-15146D01*
X-1266Y-15147D01*
X-1266Y-15148D01*
X-1272Y-15152D01*
X-1276Y-15158D01*
X-1278Y-15164D01*
X-1280Y-15169D01*
X-1281Y-15175D01*
X-1282Y-15180D01*
Y-15183D01*
Y-15183D01*
Y-15184D01*
X-1282Y-15192D01*
X-1280Y-15200D01*
X-1278Y-15206D01*
X-1276Y-15211D01*
X-1274Y-15215D01*
X-1272Y-15217D01*
X-1270Y-15219D01*
X-1270Y-15220D01*
X-1265Y-15224D01*
X-1258Y-15227D01*
X-1252Y-15229D01*
X-1246Y-15231D01*
X-1241Y-15232D01*
X-1236Y-15232D01*
X-1232D01*
X-1223Y-15232D01*
X-1216Y-15231D01*
X-1209Y-15229D01*
X-1203Y-15227D01*
X-1199Y-15225D01*
X-1196Y-15223D01*
X-1194Y-15221D01*
X-1193Y-15221D01*
X-1189Y-15216D01*
X-1185Y-15211D01*
X-1182Y-15205D01*
X-1180Y-15200D01*
X-1178Y-15195D01*
X-1178Y-15191D01*
X-1177Y-15189D01*
Y-15188D01*
X-1117D01*
X-1118Y-15196D01*
X-1119Y-15204D01*
X-1120Y-15212D01*
X-1122Y-15219D01*
X-1125Y-15226D01*
X-1127Y-15231D01*
X-1130Y-15237D01*
X-1133Y-15241D01*
X-1136Y-15246D01*
X-1139Y-15250D01*
X-1141Y-15253D01*
X-1143Y-15256D01*
X-1145Y-15258D01*
X-1147Y-15259D01*
X-1147Y-15260D01*
X-1148Y-15260D01*
X-1154Y-15265D01*
X-1160Y-15268D01*
X-1167Y-15272D01*
X-1174Y-15275D01*
X-1188Y-15280D01*
X-1201Y-15283D01*
X-1207Y-15284D01*
X-1213Y-15284D01*
X-1218Y-15285D01*
X-1223Y-15285D01*
X-1226Y-15286D01*
X-1231D01*
X-1241Y-15285D01*
X-1250Y-15285D01*
X-1259Y-15283D01*
X-1267Y-15282D01*
X-1274Y-15280D01*
X-1281Y-15278D01*
X-1287Y-15276D01*
X-1293Y-15273D01*
X-1298Y-15270D01*
X-1302Y-15268D01*
X-1305Y-15266D01*
X-1308Y-15264D01*
X-1311Y-15263D01*
X-1313Y-15261D01*
X-1314Y-15261D01*
X-1314Y-15260D01*
X-1319Y-15255D01*
X-1324Y-15250D01*
X-1328Y-15244D01*
X-1331Y-15238D01*
X-1334Y-15233D01*
X-1336Y-15227D01*
X-1340Y-15215D01*
X-1342Y-15205D01*
X-1343Y-15201D01*
X-1343Y-15197D01*
X-1344Y-15194D01*
Y-15191D01*
Y-15190D01*
Y-15189D01*
X-1343Y-15177D01*
X-1341Y-15166D01*
X-1338Y-15157D01*
X-1335Y-15149D01*
X-1331Y-15142D01*
X-1329Y-15138D01*
X-1327Y-15135D01*
X-1326Y-15134D01*
X-1319Y-15127D01*
X-1310Y-15122D01*
X-1302Y-15117D01*
X-1294Y-15114D01*
X-1287Y-15111D01*
X-1281Y-15110D01*
X-1279Y-15109D01*
X-1277Y-15109D01*
X-1276D01*
Y-15108D01*
X-1285Y-15105D01*
X-1294Y-15101D01*
X-1301Y-15097D01*
X-1307Y-15093D01*
X-1311Y-15089D01*
X-1315Y-15086D01*
X-1317Y-15084D01*
X-1318Y-15083D01*
X-1323Y-15075D01*
X-1326Y-15067D01*
X-1329Y-15059D01*
X-1331Y-15052D01*
X-1332Y-15045D01*
X-1333Y-15040D01*
Y-15038D01*
Y-15036D01*
Y-15036D01*
Y-15035D01*
X-1332Y-15028D01*
X-1332Y-15022D01*
X-1329Y-15009D01*
X-1324Y-14999D01*
X-1319Y-14990D01*
X-1314Y-14983D01*
X-1309Y-14978D01*
X-1306Y-14975D01*
X-1306Y-14974D01*
X-1305D01*
X-1300Y-14970D01*
X-1294Y-14966D01*
X-1282Y-14961D01*
X-1269Y-14957D01*
X-1257Y-14954D01*
X-1251Y-14954D01*
X-1246Y-14953D01*
X-1241Y-14952D01*
X-1237D01*
X-1233Y-14952D01*
X-1229D01*
X-1220Y-14952D01*
D02*
G37*
G36*
X-883Y-15140D02*
X-931D01*
X-934Y-15136D01*
X-938Y-15132D01*
X-941Y-15129D01*
X-944Y-15126D01*
X-947Y-15124D01*
X-949Y-15123D01*
X-951Y-15122D01*
X-951Y-15122D01*
X-957Y-15119D01*
X-962Y-15117D01*
X-966Y-15116D01*
X-971Y-15116D01*
X-975Y-15115D01*
X-978Y-15115D01*
X-980D01*
X-989Y-15115D01*
X-997Y-15117D01*
X-1004Y-15120D01*
X-1010Y-15123D01*
X-1014Y-15126D01*
X-1017Y-15128D01*
X-1019Y-15130D01*
X-1020Y-15131D01*
X-1025Y-15137D01*
X-1028Y-15143D01*
X-1031Y-15151D01*
X-1033Y-15157D01*
X-1034Y-15163D01*
X-1035Y-15168D01*
Y-15171D01*
Y-15172D01*
Y-15172D01*
X-1034Y-15182D01*
X-1032Y-15191D01*
X-1029Y-15199D01*
X-1027Y-15205D01*
X-1024Y-15210D01*
X-1021Y-15213D01*
X-1019Y-15215D01*
X-1019Y-15216D01*
X-1013Y-15221D01*
X-1005Y-15226D01*
X-999Y-15228D01*
X-992Y-15230D01*
X-986Y-15231D01*
X-981Y-15232D01*
X-979Y-15232D01*
X-976D01*
X-968Y-15232D01*
X-961Y-15231D01*
X-953Y-15229D01*
X-946Y-15226D01*
X-935Y-15219D01*
X-929Y-15216D01*
X-924Y-15212D01*
X-920Y-15209D01*
X-916Y-15205D01*
X-913Y-15202D01*
X-910Y-15199D01*
X-908Y-15196D01*
X-906Y-15194D01*
X-906Y-15193D01*
X-905Y-15192D01*
X-865Y-15232D01*
X-872Y-15241D01*
X-880Y-15250D01*
X-887Y-15257D01*
X-895Y-15262D01*
X-901Y-15267D01*
X-907Y-15270D01*
X-909Y-15271D01*
X-910Y-15272D01*
X-911Y-15272D01*
X-911D01*
X-922Y-15277D01*
X-934Y-15280D01*
X-945Y-15283D01*
X-954Y-15284D01*
X-964Y-15285D01*
X-967D01*
X-970Y-15286D01*
X-976D01*
X-987Y-15285D01*
X-996Y-15284D01*
X-1005Y-15283D01*
X-1014Y-15281D01*
X-1021Y-15279D01*
X-1028Y-15276D01*
X-1035Y-15273D01*
X-1041Y-15270D01*
X-1046Y-15268D01*
X-1051Y-15265D01*
X-1054Y-15263D01*
X-1058Y-15260D01*
X-1061Y-15258D01*
X-1062Y-15257D01*
X-1063Y-15256D01*
X-1064Y-15256D01*
X-1069Y-15250D01*
X-1074Y-15243D01*
X-1078Y-15237D01*
X-1082Y-15230D01*
X-1085Y-15223D01*
X-1088Y-15216D01*
X-1091Y-15203D01*
X-1093Y-15196D01*
X-1094Y-15191D01*
X-1094Y-15186D01*
X-1095Y-15181D01*
X-1095Y-15178D01*
Y-15175D01*
Y-15173D01*
Y-15173D01*
X-1095Y-15161D01*
X-1093Y-15151D01*
X-1091Y-15141D01*
X-1089Y-15133D01*
X-1087Y-15127D01*
X-1085Y-15122D01*
X-1084Y-15120D01*
X-1083Y-15118D01*
X-1082Y-15118D01*
Y-15117D01*
X-1077Y-15109D01*
X-1072Y-15102D01*
X-1066Y-15096D01*
X-1061Y-15090D01*
X-1055Y-15086D01*
X-1051Y-15083D01*
X-1048Y-15081D01*
X-1048Y-15081D01*
X-1047D01*
X-1039Y-15077D01*
X-1029Y-15074D01*
X-1021Y-15071D01*
X-1013Y-15070D01*
X-1005Y-15068D01*
X-999Y-15068D01*
X-994D01*
X-982Y-15069D01*
X-976Y-15070D01*
X-971Y-15071D01*
X-967Y-15072D01*
X-964Y-15072D01*
X-962Y-15073D01*
X-962D01*
X-957Y-15075D01*
X-951Y-15077D01*
X-947Y-15079D01*
X-943Y-15082D01*
X-940Y-15084D01*
X-938Y-15085D01*
X-937Y-15086D01*
X-936Y-15087D01*
X-936D01*
X-943Y-15012D01*
X-1067D01*
Y-14959D01*
X-899D01*
X-883Y-15140D01*
D02*
G37*
G36*
X-327Y-15053D02*
X-318Y-15055D01*
X-309Y-15057D01*
X-301Y-15059D01*
X-294Y-15062D01*
X-289Y-15064D01*
X-287Y-15065D01*
X-286Y-15066D01*
X-285Y-15066D01*
X-285D01*
X-276Y-15072D01*
X-269Y-15079D01*
X-262Y-15085D01*
X-257Y-15092D01*
X-252Y-15098D01*
X-249Y-15102D01*
X-247Y-15106D01*
X-247Y-15106D01*
Y-15107D01*
X-242Y-15117D01*
X-238Y-15128D01*
X-236Y-15138D01*
X-234Y-15148D01*
X-233Y-15157D01*
Y-15160D01*
X-233Y-15163D01*
Y-15166D01*
Y-15168D01*
Y-15169D01*
Y-15169D01*
X-233Y-15183D01*
X-235Y-15194D01*
X-237Y-15205D01*
X-240Y-15214D01*
X-242Y-15222D01*
X-244Y-15225D01*
X-245Y-15228D01*
X-246Y-15230D01*
X-246Y-15231D01*
X-247Y-15232D01*
Y-15232D01*
X-252Y-15241D01*
X-259Y-15250D01*
X-265Y-15256D01*
X-271Y-15262D01*
X-277Y-15266D01*
X-281Y-15269D01*
X-284Y-15271D01*
X-284Y-15271D01*
X-285D01*
X-294Y-15276D01*
X-303Y-15279D01*
X-312Y-15282D01*
X-320Y-15283D01*
X-327Y-15284D01*
X-333Y-15285D01*
X-337D01*
X-346Y-15284D01*
X-355Y-15283D01*
X-362Y-15281D01*
X-370Y-15279D01*
X-376Y-15277D01*
X-382Y-15273D01*
X-388Y-15270D01*
X-393Y-15266D01*
X-397Y-15263D01*
X-401Y-15260D01*
X-404Y-15257D01*
X-407Y-15254D01*
X-409Y-15252D01*
X-410Y-15250D01*
X-411Y-15249D01*
X-411Y-15249D01*
X-412D01*
Y-15269D01*
X-412Y-15280D01*
X-410Y-15289D01*
X-408Y-15297D01*
X-406Y-15303D01*
X-404Y-15308D01*
X-402Y-15311D01*
X-400Y-15313D01*
X-400Y-15313D01*
X-395Y-15317D01*
X-388Y-15320D01*
X-381Y-15323D01*
X-374Y-15324D01*
X-368Y-15326D01*
X-362Y-15326D01*
X-358D01*
X-346Y-15326D01*
X-333Y-15324D01*
X-320Y-15322D01*
X-308Y-15320D01*
X-302Y-15319D01*
X-297Y-15318D01*
X-293Y-15317D01*
X-289Y-15316D01*
X-286Y-15316D01*
X-283Y-15315D01*
X-282Y-15315D01*
X-281D01*
X-271Y-15370D01*
X-290Y-15374D01*
X-299Y-15375D01*
X-307Y-15377D01*
X-315Y-15378D01*
X-323Y-15379D01*
X-329Y-15379D01*
X-335Y-15380D01*
X-341Y-15380D01*
X-346Y-15381D01*
X-350D01*
X-353Y-15381D01*
X-360D01*
X-370Y-15381D01*
X-379Y-15380D01*
X-387Y-15379D01*
X-395Y-15378D01*
X-402Y-15375D01*
X-409Y-15373D01*
X-415Y-15371D01*
X-421Y-15369D01*
X-425Y-15367D01*
X-429Y-15365D01*
X-433Y-15363D01*
X-436Y-15361D01*
X-438Y-15360D01*
X-439Y-15359D01*
X-440Y-15358D01*
X-441D01*
X-446Y-15353D01*
X-451Y-15347D01*
X-454Y-15342D01*
X-458Y-15335D01*
X-463Y-15322D01*
X-466Y-15310D01*
X-467Y-15304D01*
X-468Y-15298D01*
X-469Y-15292D01*
X-469Y-15288D01*
X-470Y-15284D01*
Y-15282D01*
Y-15280D01*
Y-15279D01*
Y-15060D01*
X-412D01*
Y-15091D01*
X-411D01*
X-407Y-15085D01*
X-402Y-15079D01*
X-397Y-15074D01*
X-392Y-15070D01*
X-388Y-15067D01*
X-385Y-15065D01*
X-383Y-15063D01*
X-382Y-15063D01*
X-375Y-15059D01*
X-367Y-15057D01*
X-360Y-15055D01*
X-353Y-15054D01*
X-347Y-15053D01*
X-342Y-15053D01*
X-338D01*
X-327Y-15053D01*
D02*
G37*
G36*
X390Y-15279D02*
X332D01*
Y-15172D01*
X331Y-15160D01*
X330Y-15150D01*
X328Y-15142D01*
X325Y-15135D01*
X323Y-15130D01*
X321Y-15126D01*
X319Y-15124D01*
X318Y-15123D01*
X313Y-15118D01*
X307Y-15114D01*
X301Y-15111D01*
X294Y-15109D01*
X289Y-15108D01*
X285Y-15107D01*
X281D01*
X273Y-15108D01*
X266Y-15109D01*
X260Y-15112D01*
X255Y-15115D01*
X250Y-15119D01*
X247Y-15123D01*
X244Y-15128D01*
X241Y-15132D01*
X239Y-15137D01*
X238Y-15142D01*
X237Y-15146D01*
X236Y-15150D01*
Y-15153D01*
X235Y-15156D01*
Y-15157D01*
Y-15158D01*
Y-15279D01*
X177D01*
Y-15144D01*
Y-15135D01*
X178Y-15128D01*
X179Y-15121D01*
X180Y-15113D01*
X182Y-15107D01*
X184Y-15102D01*
X186Y-15097D01*
X188Y-15092D01*
X190Y-15088D01*
X192Y-15085D01*
X194Y-15082D01*
X196Y-15079D01*
X197Y-15078D01*
X198Y-15076D01*
X199Y-15075D01*
X199D01*
X204Y-15071D01*
X208Y-15067D01*
X218Y-15062D01*
X228Y-15058D01*
X237Y-15055D01*
X246Y-15054D01*
X250Y-15053D01*
X253D01*
X256Y-15053D01*
X259D01*
X268Y-15053D01*
X276Y-15054D01*
X283Y-15056D01*
X290Y-15059D01*
X297Y-15062D01*
X303Y-15065D01*
X308Y-15068D01*
X313Y-15072D01*
X317Y-15076D01*
X321Y-15079D01*
X324Y-15082D01*
X326Y-15085D01*
X328Y-15088D01*
X330Y-15090D01*
X330Y-15091D01*
X331Y-15091D01*
X332D01*
Y-14947D01*
X390D01*
Y-15279D01*
D02*
G37*
G36*
X-765Y-15126D02*
X-831D01*
Y-15060D01*
X-765D01*
Y-15126D01*
D02*
G37*
G36*
X-592Y-15259D02*
X-538Y-15374D01*
X-599D01*
X-739Y-15060D01*
X-678D01*
X-621Y-15193D01*
X-565Y-15060D01*
X-497D01*
X-592Y-15259D01*
D02*
G37*
G36*
X663Y-15004D02*
X572D01*
Y-15279D01*
X511D01*
Y-15004D01*
X420D01*
Y-14947D01*
X663D01*
Y-15004D01*
D02*
G37*
G36*
X127Y-15279D02*
X69D01*
Y-15060D01*
X127D01*
Y-15279D01*
D02*
G37*
G36*
X-106Y-15053D02*
X-98Y-15054D01*
X-91Y-15056D01*
X-84Y-15058D01*
X-79Y-15060D01*
X-75Y-15062D01*
X-73Y-15063D01*
X-72Y-15063D01*
X-66Y-15067D01*
X-60Y-15073D01*
X-55Y-15077D01*
X-51Y-15082D01*
X-47Y-15087D01*
X-45Y-15090D01*
X-43Y-15092D01*
X-43Y-15093D01*
X-42D01*
Y-15060D01*
X16D01*
Y-15279D01*
X-42D01*
Y-15172D01*
X-43Y-15160D01*
X-44Y-15150D01*
X-47Y-15142D01*
X-49Y-15135D01*
X-51Y-15130D01*
X-54Y-15126D01*
X-55Y-15124D01*
X-56Y-15123D01*
X-61Y-15118D01*
X-68Y-15114D01*
X-74Y-15111D01*
X-80Y-15109D01*
X-85Y-15108D01*
X-90Y-15107D01*
X-94D01*
X-102Y-15108D01*
X-108Y-15109D01*
X-115Y-15112D01*
X-120Y-15115D01*
X-124Y-15119D01*
X-128Y-15123D01*
X-130Y-15128D01*
X-133Y-15132D01*
X-135Y-15137D01*
X-136Y-15142D01*
X-137Y-15146D01*
X-138Y-15150D01*
Y-15153D01*
X-138Y-15156D01*
Y-15157D01*
Y-15158D01*
Y-15279D01*
X-197D01*
Y-15144D01*
Y-15135D01*
X-196Y-15128D01*
X-195Y-15121D01*
X-194Y-15113D01*
X-192Y-15107D01*
X-190Y-15102D01*
X-188Y-15097D01*
X-186Y-15092D01*
X-184Y-15088D01*
X-182Y-15085D01*
X-180Y-15082D01*
X-178Y-15079D01*
X-177Y-15078D01*
X-176Y-15076D01*
X-175Y-15075D01*
X-175D01*
X-170Y-15071D01*
X-166Y-15067D01*
X-156Y-15062D01*
X-146Y-15058D01*
X-136Y-15055D01*
X-128Y-15054D01*
X-124Y-15053D01*
X-121D01*
X-118Y-15053D01*
X-115D01*
X-106Y-15053D01*
D02*
G37*
G36*
X-764Y-15279D02*
X-831D01*
Y-15213D01*
X-764D01*
Y-15279D01*
D02*
G37*
G36*
X-1663Y-15580D02*
X-1654Y-15581D01*
X-1645Y-15584D01*
X-1637Y-15586D01*
X-1630Y-15588D01*
X-1625Y-15591D01*
X-1624Y-15591D01*
X-1622Y-15593D01*
X-1622Y-15593D01*
X-1621D01*
X-1612Y-15599D01*
X-1605Y-15605D01*
X-1599Y-15612D01*
X-1593Y-15619D01*
X-1588Y-15624D01*
X-1585Y-15629D01*
X-1583Y-15632D01*
X-1583Y-15633D01*
Y-15633D01*
X-1578Y-15644D01*
X-1575Y-15654D01*
X-1573Y-15665D01*
X-1571Y-15675D01*
X-1570Y-15683D01*
Y-15687D01*
X-1569Y-15690D01*
Y-15692D01*
Y-15695D01*
Y-15696D01*
Y-15696D01*
X-1570Y-15709D01*
X-1571Y-15722D01*
X-1574Y-15732D01*
X-1576Y-15741D01*
X-1578Y-15749D01*
X-1580Y-15752D01*
X-1581Y-15755D01*
X-1582Y-15757D01*
X-1582Y-15758D01*
X-1583Y-15759D01*
Y-15759D01*
X-1588Y-15768D01*
X-1595Y-15777D01*
X-1601Y-15783D01*
X-1607Y-15789D01*
X-1613Y-15793D01*
X-1617Y-15797D01*
X-1620Y-15799D01*
X-1621Y-15799D01*
X-1621D01*
X-1630Y-15804D01*
X-1640Y-15807D01*
X-1649Y-15809D01*
X-1657Y-15811D01*
X-1664Y-15812D01*
X-1670Y-15812D01*
X-1674D01*
X-1683Y-15812D01*
X-1692Y-15811D01*
X-1700Y-15809D01*
X-1706Y-15807D01*
X-1711Y-15806D01*
X-1715Y-15804D01*
X-1717Y-15803D01*
X-1718Y-15803D01*
X-1725Y-15799D01*
X-1730Y-15794D01*
X-1735Y-15790D01*
X-1740Y-15785D01*
X-1743Y-15781D01*
X-1745Y-15778D01*
X-1747Y-15776D01*
X-1748Y-15775D01*
X-1749D01*
Y-15806D01*
X-1806D01*
Y-15586D01*
X-1749D01*
Y-15618D01*
X-1748D01*
X-1743Y-15611D01*
X-1738Y-15606D01*
X-1733Y-15601D01*
X-1729Y-15597D01*
X-1725Y-15594D01*
X-1721Y-15591D01*
X-1719Y-15590D01*
X-1718Y-15589D01*
X-1711Y-15586D01*
X-1704Y-15583D01*
X-1696Y-15582D01*
X-1689Y-15580D01*
X-1683Y-15580D01*
X-1679Y-15579D01*
X-1674D01*
X-1663Y-15580D01*
D02*
G37*
G36*
X-1065D02*
X-1058Y-15581D01*
X-1050Y-15582D01*
X-1044Y-15584D01*
X-1039Y-15586D01*
X-1036Y-15588D01*
X-1034Y-15589D01*
X-1033Y-15589D01*
X-1026Y-15594D01*
X-1021Y-15599D01*
X-1017Y-15604D01*
X-1013Y-15608D01*
X-1010Y-15613D01*
X-1008Y-15616D01*
X-1007Y-15619D01*
X-1006Y-15620D01*
X-1005D01*
Y-15586D01*
X-948D01*
Y-15806D01*
X-1005D01*
Y-15695D01*
X-1006Y-15684D01*
X-1008Y-15674D01*
X-1010Y-15666D01*
X-1012Y-15660D01*
X-1014Y-15655D01*
X-1016Y-15651D01*
X-1017Y-15649D01*
X-1018Y-15649D01*
X-1023Y-15644D01*
X-1028Y-15640D01*
X-1034Y-15637D01*
X-1039Y-15636D01*
X-1043Y-15634D01*
X-1047Y-15634D01*
X-1050D01*
X-1057Y-15634D01*
X-1063Y-15636D01*
X-1068Y-15637D01*
X-1072Y-15639D01*
X-1075Y-15642D01*
X-1077Y-15644D01*
X-1079Y-15645D01*
X-1079Y-15646D01*
X-1083Y-15650D01*
X-1086Y-15656D01*
X-1087Y-15661D01*
X-1089Y-15667D01*
X-1089Y-15672D01*
X-1090Y-15676D01*
Y-15678D01*
Y-15679D01*
Y-15679D01*
Y-15806D01*
X-1147D01*
Y-15695D01*
X-1148Y-15683D01*
X-1149Y-15674D01*
X-1151Y-15665D01*
X-1153Y-15659D01*
X-1155Y-15654D01*
X-1157Y-15651D01*
X-1158Y-15649D01*
X-1159Y-15648D01*
X-1164Y-15644D01*
X-1169Y-15640D01*
X-1174Y-15637D01*
X-1179Y-15635D01*
X-1184Y-15634D01*
X-1188Y-15634D01*
X-1191D01*
X-1198Y-15634D01*
X-1204Y-15636D01*
X-1209Y-15637D01*
X-1214Y-15639D01*
X-1217Y-15642D01*
X-1219Y-15644D01*
X-1221Y-15645D01*
X-1221Y-15646D01*
X-1225Y-15650D01*
X-1227Y-15656D01*
X-1229Y-15661D01*
X-1230Y-15667D01*
X-1231Y-15672D01*
X-1231Y-15676D01*
Y-15678D01*
Y-15679D01*
Y-15679D01*
Y-15806D01*
X-1290D01*
Y-15667D01*
X-1289Y-15652D01*
X-1286Y-15639D01*
X-1283Y-15628D01*
X-1279Y-15618D01*
X-1275Y-15611D01*
X-1273Y-15608D01*
X-1272Y-15606D01*
X-1270Y-15604D01*
X-1269Y-15603D01*
X-1269Y-15602D01*
X-1268D01*
X-1264Y-15598D01*
X-1259Y-15594D01*
X-1250Y-15589D01*
X-1241Y-15585D01*
X-1232Y-15582D01*
X-1225Y-15580D01*
X-1222Y-15580D01*
X-1219D01*
X-1216Y-15579D01*
X-1213D01*
X-1205Y-15580D01*
X-1197Y-15581D01*
X-1190Y-15583D01*
X-1183Y-15585D01*
X-1178Y-15587D01*
X-1175Y-15589D01*
X-1172Y-15590D01*
X-1171Y-15590D01*
X-1165Y-15595D01*
X-1158Y-15600D01*
X-1153Y-15606D01*
X-1149Y-15611D01*
X-1146Y-15616D01*
X-1144Y-15620D01*
X-1142Y-15622D01*
X-1142Y-15623D01*
X-1141D01*
X-1137Y-15615D01*
X-1132Y-15609D01*
X-1128Y-15603D01*
X-1124Y-15599D01*
X-1120Y-15595D01*
X-1117Y-15593D01*
X-1115Y-15591D01*
X-1114Y-15590D01*
X-1107Y-15587D01*
X-1101Y-15584D01*
X-1094Y-15582D01*
X-1088Y-15581D01*
X-1082Y-15580D01*
X-1077Y-15579D01*
X-1073D01*
X-1065Y-15580D01*
D02*
G37*
G36*
X-2837Y-15580D02*
X-2830Y-15581D01*
X-2823Y-15582D01*
X-2817Y-15584D01*
X-2811Y-15586D01*
X-2808Y-15588D01*
X-2806Y-15589D01*
X-2805Y-15589D01*
X-2799Y-15594D01*
X-2794Y-15599D01*
X-2789Y-15604D01*
X-2785Y-15608D01*
X-2782Y-15613D01*
X-2780Y-15616D01*
X-2779Y-15619D01*
X-2778Y-15620D01*
X-2777D01*
Y-15586D01*
X-2720D01*
Y-15806D01*
X-2778D01*
Y-15695D01*
X-2778Y-15684D01*
X-2780Y-15674D01*
X-2782Y-15666D01*
X-2784Y-15660D01*
X-2786Y-15655D01*
X-2788Y-15651D01*
X-2789Y-15649D01*
X-2790Y-15649D01*
X-2795Y-15644D01*
X-2800Y-15640D01*
X-2806Y-15637D01*
X-2811Y-15636D01*
X-2815Y-15634D01*
X-2819Y-15634D01*
X-2823D01*
X-2829Y-15634D01*
X-2835Y-15636D01*
X-2840Y-15637D01*
X-2845Y-15639D01*
X-2848Y-15642D01*
X-2850Y-15644D01*
X-2851Y-15645D01*
X-2852Y-15646D01*
X-2855Y-15650D01*
X-2858Y-15656D01*
X-2859Y-15661D01*
X-2861Y-15667D01*
X-2861Y-15672D01*
X-2862Y-15676D01*
Y-15678D01*
Y-15679D01*
Y-15679D01*
Y-15806D01*
X-2920D01*
Y-15695D01*
X-2920Y-15683D01*
X-2922Y-15674D01*
X-2923Y-15665D01*
X-2926Y-15659D01*
X-2928Y-15654D01*
X-2929Y-15651D01*
X-2931Y-15649D01*
X-2931Y-15648D01*
X-2936Y-15644D01*
X-2941Y-15640D01*
X-2947Y-15637D01*
X-2952Y-15635D01*
X-2956Y-15634D01*
X-2960Y-15634D01*
X-2963D01*
X-2971Y-15634D01*
X-2977Y-15636D01*
X-2982Y-15637D01*
X-2986Y-15639D01*
X-2989Y-15642D01*
X-2991Y-15644D01*
X-2993Y-15645D01*
X-2993Y-15646D01*
X-2997Y-15650D01*
X-3000Y-15656D01*
X-3001Y-15661D01*
X-3003Y-15667D01*
X-3003Y-15672D01*
X-3004Y-15676D01*
Y-15678D01*
Y-15679D01*
Y-15679D01*
Y-15806D01*
X-3062D01*
Y-15667D01*
X-3061Y-15652D01*
X-3058Y-15639D01*
X-3055Y-15628D01*
X-3051Y-15618D01*
X-3047Y-15611D01*
X-3045Y-15608D01*
X-3044Y-15606D01*
X-3042Y-15604D01*
X-3041Y-15603D01*
X-3041Y-15602D01*
X-3040D01*
X-3036Y-15598D01*
X-3032Y-15594D01*
X-3023Y-15589D01*
X-3013Y-15585D01*
X-3005Y-15582D01*
X-2997Y-15580D01*
X-2994Y-15580D01*
X-2991D01*
X-2988Y-15579D01*
X-2985D01*
X-2977Y-15580D01*
X-2969Y-15581D01*
X-2962Y-15583D01*
X-2956Y-15585D01*
X-2951Y-15587D01*
X-2947Y-15589D01*
X-2945Y-15590D01*
X-2943Y-15590D01*
X-2937Y-15595D01*
X-2931Y-15600D01*
X-2926Y-15606D01*
X-2922Y-15611D01*
X-2919Y-15616D01*
X-2916Y-15620D01*
X-2914Y-15622D01*
X-2914Y-15623D01*
X-2913D01*
X-2909Y-15615D01*
X-2905Y-15609D01*
X-2901Y-15603D01*
X-2896Y-15599D01*
X-2892Y-15595D01*
X-2889Y-15593D01*
X-2887Y-15591D01*
X-2886Y-15590D01*
X-2880Y-15587D01*
X-2873Y-15584D01*
X-2866Y-15582D01*
X-2860Y-15581D01*
X-2854Y-15580D01*
X-2850Y-15579D01*
X-2846D01*
X-2837Y-15580D01*
D02*
G37*
G36*
X555Y-15580D02*
X566Y-15581D01*
X577Y-15584D01*
X586Y-15586D01*
X594Y-15589D01*
X597Y-15590D01*
X599Y-15591D01*
X602Y-15593D01*
X604Y-15594D01*
X604Y-15594D01*
X605D01*
X614Y-15600D01*
X623Y-15606D01*
X630Y-15613D01*
X636Y-15620D01*
X641Y-15626D01*
X644Y-15630D01*
X647Y-15634D01*
X647Y-15634D01*
Y-15635D01*
X653Y-15645D01*
X656Y-15656D01*
X659Y-15666D01*
X661Y-15675D01*
X662Y-15684D01*
X662Y-15687D01*
Y-15690D01*
X663Y-15692D01*
Y-15695D01*
Y-15696D01*
Y-15696D01*
X662Y-15709D01*
X660Y-15721D01*
X658Y-15731D01*
X655Y-15740D01*
X652Y-15748D01*
X651Y-15751D01*
X650Y-15753D01*
X649Y-15755D01*
X648Y-15757D01*
X647Y-15757D01*
Y-15758D01*
X641Y-15767D01*
X634Y-15775D01*
X627Y-15782D01*
X620Y-15788D01*
X614Y-15792D01*
X609Y-15796D01*
X607Y-15797D01*
X606Y-15798D01*
X605Y-15799D01*
X605D01*
X594Y-15803D01*
X583Y-15807D01*
X572Y-15809D01*
X563Y-15811D01*
X555Y-15812D01*
X551D01*
X548Y-15812D01*
X542D01*
X527Y-15811D01*
X512Y-15809D01*
X499Y-15806D01*
X488Y-15802D01*
X483Y-15800D01*
X478Y-15798D01*
X474Y-15796D01*
X471Y-15794D01*
X468Y-15793D01*
X466Y-15792D01*
X465Y-15791D01*
X465D01*
X490Y-15743D01*
X499Y-15749D01*
X508Y-15752D01*
X517Y-15755D01*
X525Y-15756D01*
X531Y-15757D01*
X536Y-15758D01*
X541D01*
X551Y-15758D01*
X559Y-15756D01*
X567Y-15753D01*
X573Y-15750D01*
X579Y-15747D01*
X583Y-15743D01*
X585Y-15741D01*
X586Y-15741D01*
X591Y-15734D01*
X596Y-15727D01*
X599Y-15719D01*
X601Y-15712D01*
X602Y-15706D01*
X603Y-15701D01*
X603Y-15699D01*
Y-15697D01*
Y-15697D01*
Y-15696D01*
X603Y-15686D01*
X600Y-15677D01*
X597Y-15670D01*
X594Y-15663D01*
X591Y-15658D01*
X588Y-15654D01*
X586Y-15652D01*
X586Y-15651D01*
X579Y-15646D01*
X571Y-15641D01*
X564Y-15638D01*
X557Y-15636D01*
X551Y-15635D01*
X545Y-15634D01*
X541D01*
X531Y-15634D01*
X521Y-15636D01*
X513Y-15638D01*
X505Y-15641D01*
X499Y-15644D01*
X494Y-15647D01*
X491Y-15649D01*
X490Y-15649D01*
X490D01*
X465Y-15601D01*
X471Y-15597D01*
X478Y-15594D01*
X492Y-15588D01*
X505Y-15584D01*
X516Y-15582D01*
X522Y-15581D01*
X527Y-15580D01*
X531Y-15580D01*
X535D01*
X538Y-15579D01*
X542D01*
X555Y-15580D01*
D02*
G37*
G36*
X435Y-15721D02*
X435Y-15729D01*
X434Y-15737D01*
X433Y-15744D01*
X432Y-15751D01*
X430Y-15758D01*
X428Y-15763D01*
X426Y-15768D01*
X424Y-15773D01*
X422Y-15777D01*
X420Y-15780D01*
X418Y-15783D01*
X416Y-15786D01*
X415Y-15787D01*
X414Y-15789D01*
X413Y-15789D01*
Y-15790D01*
X408Y-15794D01*
X404Y-15797D01*
X394Y-15803D01*
X384Y-15807D01*
X375Y-15809D01*
X366Y-15811D01*
X363Y-15812D01*
X360D01*
X358Y-15812D01*
X354D01*
X346Y-15812D01*
X338Y-15811D01*
X331Y-15809D01*
X324Y-15806D01*
X318Y-15803D01*
X312Y-15800D01*
X307Y-15796D01*
X303Y-15792D01*
X299Y-15788D01*
X296Y-15785D01*
X292Y-15781D01*
X290Y-15778D01*
X288Y-15776D01*
X287Y-15774D01*
X286Y-15773D01*
Y-15772D01*
X285D01*
Y-15806D01*
X227D01*
Y-15586D01*
X286D01*
Y-15692D01*
X286Y-15704D01*
X288Y-15714D01*
X290Y-15723D01*
X292Y-15730D01*
X294Y-15736D01*
X297Y-15740D01*
X298Y-15742D01*
X299Y-15743D01*
X304Y-15749D01*
X309Y-15752D01*
X315Y-15755D01*
X321Y-15757D01*
X326Y-15758D01*
X331Y-15759D01*
X333Y-15759D01*
X334D01*
X341Y-15759D01*
X347Y-15757D01*
X353Y-15756D01*
X357Y-15753D01*
X360Y-15751D01*
X363Y-15750D01*
X364Y-15748D01*
X365Y-15748D01*
X368Y-15742D01*
X371Y-15736D01*
X373Y-15730D01*
X374Y-15724D01*
X375Y-15719D01*
X376Y-15714D01*
Y-15711D01*
Y-15711D01*
Y-15710D01*
Y-15586D01*
X435D01*
Y-15721D01*
D02*
G37*
G36*
X-2053D02*
X-2053Y-15729D01*
X-2054Y-15737D01*
X-2055Y-15744D01*
X-2056Y-15751D01*
X-2058Y-15758D01*
X-2060Y-15763D01*
X-2062Y-15768D01*
X-2064Y-15773D01*
X-2066Y-15777D01*
X-2068Y-15780D01*
X-2070Y-15783D01*
X-2071Y-15786D01*
X-2073Y-15787D01*
X-2074Y-15789D01*
X-2075Y-15789D01*
Y-15790D01*
X-2080Y-15794D01*
X-2084Y-15797D01*
X-2094Y-15803D01*
X-2104Y-15807D01*
X-2113Y-15809D01*
X-2121Y-15811D01*
X-2124Y-15812D01*
X-2127D01*
X-2130Y-15812D01*
X-2134D01*
X-2142Y-15812D01*
X-2150Y-15811D01*
X-2157Y-15809D01*
X-2164Y-15806D01*
X-2170Y-15803D01*
X-2175Y-15800D01*
X-2181Y-15796D01*
X-2185Y-15792D01*
X-2189Y-15788D01*
X-2192Y-15785D01*
X-2195Y-15781D01*
X-2198Y-15778D01*
X-2199Y-15776D01*
X-2201Y-15774D01*
X-2202Y-15773D01*
Y-15772D01*
X-2203D01*
Y-15806D01*
X-2261D01*
Y-15586D01*
X-2202D01*
Y-15692D01*
X-2201Y-15704D01*
X-2200Y-15714D01*
X-2198Y-15723D01*
X-2196Y-15730D01*
X-2193Y-15736D01*
X-2191Y-15740D01*
X-2190Y-15742D01*
X-2189Y-15743D01*
X-2184Y-15749D01*
X-2178Y-15752D01*
X-2172Y-15755D01*
X-2167Y-15757D01*
X-2162Y-15758D01*
X-2157Y-15759D01*
X-2155Y-15759D01*
X-2154D01*
X-2147Y-15759D01*
X-2141Y-15757D01*
X-2135Y-15756D01*
X-2131Y-15753D01*
X-2127Y-15751D01*
X-2125Y-15750D01*
X-2123Y-15748D01*
X-2123Y-15748D01*
X-2119Y-15742D01*
X-2117Y-15736D01*
X-2115Y-15730D01*
X-2114Y-15724D01*
X-2113Y-15719D01*
X-2112Y-15714D01*
Y-15711D01*
Y-15711D01*
Y-15710D01*
Y-15586D01*
X-2053D01*
Y-15721D01*
D02*
G37*
G36*
X-240Y-15580D02*
X-228Y-15581D01*
X-219Y-15584D01*
X-209Y-15586D01*
X-202Y-15589D01*
X-197Y-15591D01*
X-195Y-15593D01*
X-194Y-15594D01*
X-193Y-15594D01*
X-193D01*
X-183Y-15600D01*
X-176Y-15607D01*
X-169Y-15613D01*
X-163Y-15620D01*
X-159Y-15626D01*
X-155Y-15631D01*
X-153Y-15634D01*
X-153Y-15635D01*
Y-15635D01*
X-148Y-15646D01*
X-145Y-15656D01*
X-142Y-15666D01*
X-141Y-15676D01*
X-140Y-15684D01*
X-139Y-15688D01*
X-138Y-15691D01*
Y-15693D01*
Y-15695D01*
Y-15696D01*
Y-15697D01*
X-139Y-15709D01*
X-141Y-15721D01*
X-143Y-15731D01*
X-146Y-15740D01*
X-148Y-15748D01*
X-150Y-15751D01*
X-151Y-15753D01*
X-151Y-15755D01*
X-152Y-15757D01*
X-153Y-15757D01*
Y-15758D01*
X-159Y-15767D01*
X-166Y-15775D01*
X-172Y-15782D01*
X-179Y-15788D01*
X-185Y-15792D01*
X-189Y-15796D01*
X-193Y-15798D01*
X-194Y-15799D01*
X-194D01*
X-205Y-15803D01*
X-215Y-15807D01*
X-226Y-15809D01*
X-235Y-15811D01*
X-244Y-15812D01*
X-248D01*
X-251Y-15812D01*
X-257D01*
X-268Y-15812D01*
X-278Y-15811D01*
X-287Y-15809D01*
X-295Y-15807D01*
X-301Y-15805D01*
X-306Y-15803D01*
X-309Y-15802D01*
X-310Y-15802D01*
X-318Y-15798D01*
X-326Y-15793D01*
X-333Y-15788D01*
X-339Y-15784D01*
X-345Y-15780D01*
X-349Y-15777D01*
X-351Y-15774D01*
X-352Y-15774D01*
X-322Y-15731D01*
X-316Y-15736D01*
X-311Y-15741D01*
X-305Y-15745D01*
X-299Y-15749D01*
X-294Y-15752D01*
X-288Y-15754D01*
X-278Y-15758D01*
X-270Y-15760D01*
X-266Y-15760D01*
X-263Y-15761D01*
X-260Y-15761D01*
X-257D01*
X-248Y-15761D01*
X-239Y-15759D01*
X-232Y-15757D01*
X-226Y-15754D01*
X-221Y-15752D01*
X-217Y-15750D01*
X-215Y-15748D01*
X-214Y-15748D01*
X-208Y-15742D01*
X-204Y-15735D01*
X-201Y-15729D01*
X-198Y-15723D01*
X-197Y-15717D01*
X-196Y-15712D01*
X-195Y-15709D01*
Y-15709D01*
Y-15708D01*
X-359D01*
Y-15697D01*
X-358Y-15686D01*
X-358Y-15677D01*
X-356Y-15668D01*
X-354Y-15660D01*
X-352Y-15652D01*
X-350Y-15645D01*
X-348Y-15638D01*
X-345Y-15633D01*
X-342Y-15628D01*
X-339Y-15623D01*
X-337Y-15619D01*
X-335Y-15616D01*
X-333Y-15613D01*
X-332Y-15612D01*
X-331Y-15611D01*
X-331Y-15610D01*
X-325Y-15605D01*
X-320Y-15600D01*
X-313Y-15596D01*
X-307Y-15593D01*
X-300Y-15589D01*
X-294Y-15587D01*
X-281Y-15583D01*
X-275Y-15582D01*
X-270Y-15581D01*
X-265Y-15580D01*
X-260Y-15580D01*
X-257Y-15579D01*
X-252D01*
X-240Y-15580D01*
D02*
G37*
G36*
X-1426D02*
X-1415Y-15581D01*
X-1405Y-15584D01*
X-1396Y-15586D01*
X-1389Y-15589D01*
X-1383Y-15591D01*
X-1381Y-15593D01*
X-1380Y-15594D01*
X-1379Y-15594D01*
X-1379D01*
X-1370Y-15600D01*
X-1362Y-15607D01*
X-1355Y-15613D01*
X-1349Y-15620D01*
X-1345Y-15626D01*
X-1342Y-15631D01*
X-1340Y-15634D01*
X-1339Y-15635D01*
Y-15635D01*
X-1334Y-15646D01*
X-1331Y-15656D01*
X-1328Y-15666D01*
X-1327Y-15676D01*
X-1326Y-15684D01*
X-1325Y-15688D01*
X-1325Y-15691D01*
Y-15693D01*
Y-15695D01*
Y-15696D01*
Y-15697D01*
X-1325Y-15709D01*
X-1327Y-15721D01*
X-1329Y-15731D01*
X-1332Y-15740D01*
X-1334Y-15748D01*
X-1336Y-15751D01*
X-1337Y-15753D01*
X-1338Y-15755D01*
X-1339Y-15757D01*
X-1339Y-15757D01*
Y-15758D01*
X-1345Y-15767D01*
X-1352Y-15775D01*
X-1358Y-15782D01*
X-1365Y-15788D01*
X-1371Y-15792D01*
X-1376Y-15796D01*
X-1379Y-15798D01*
X-1380Y-15799D01*
X-1380D01*
X-1391Y-15803D01*
X-1402Y-15807D01*
X-1412Y-15809D01*
X-1422Y-15811D01*
X-1430Y-15812D01*
X-1434D01*
X-1437Y-15812D01*
X-1443D01*
X-1454Y-15812D01*
X-1464Y-15811D01*
X-1473Y-15809D01*
X-1481Y-15807D01*
X-1487Y-15805D01*
X-1492Y-15803D01*
X-1495Y-15802D01*
X-1496Y-15802D01*
X-1504Y-15798D01*
X-1512Y-15793D01*
X-1520Y-15788D01*
X-1526Y-15784D01*
X-1531Y-15780D01*
X-1535Y-15777D01*
X-1537Y-15774D01*
X-1538Y-15774D01*
X-1508Y-15731D01*
X-1503Y-15736D01*
X-1497Y-15741D01*
X-1491Y-15745D01*
X-1485Y-15749D01*
X-1480Y-15752D01*
X-1475Y-15754D01*
X-1464Y-15758D01*
X-1456Y-15760D01*
X-1452Y-15760D01*
X-1449Y-15761D01*
X-1447Y-15761D01*
X-1443D01*
X-1434Y-15761D01*
X-1425Y-15759D01*
X-1418Y-15757D01*
X-1412Y-15754D01*
X-1407Y-15752D01*
X-1403Y-15750D01*
X-1401Y-15748D01*
X-1400Y-15748D01*
X-1395Y-15742D01*
X-1390Y-15735D01*
X-1387Y-15729D01*
X-1384Y-15723D01*
X-1383Y-15717D01*
X-1382Y-15712D01*
X-1381Y-15709D01*
Y-15709D01*
Y-15708D01*
X-1545D01*
Y-15697D01*
X-1545Y-15686D01*
X-1544Y-15677D01*
X-1543Y-15668D01*
X-1540Y-15660D01*
X-1538Y-15652D01*
X-1536Y-15645D01*
X-1534Y-15638D01*
X-1531Y-15633D01*
X-1528Y-15628D01*
X-1526Y-15623D01*
X-1524Y-15619D01*
X-1522Y-15616D01*
X-1520Y-15613D01*
X-1518Y-15612D01*
X-1518Y-15611D01*
X-1517Y-15610D01*
X-1511Y-15605D01*
X-1506Y-15600D01*
X-1499Y-15596D01*
X-1493Y-15593D01*
X-1486Y-15589D01*
X-1480Y-15587D01*
X-1467Y-15583D01*
X-1461Y-15582D01*
X-1456Y-15581D01*
X-1451Y-15580D01*
X-1447Y-15580D01*
X-1444Y-15579D01*
X-1438D01*
X-1426Y-15580D01*
D02*
G37*
G36*
X-2564Y-15580D02*
X-2552Y-15581D01*
X-2543Y-15584D01*
X-2533Y-15586D01*
X-2526Y-15589D01*
X-2521Y-15591D01*
X-2519Y-15593D01*
X-2518Y-15594D01*
X-2517Y-15594D01*
X-2517D01*
X-2507Y-15600D01*
X-2500Y-15607D01*
X-2493Y-15613D01*
X-2487Y-15620D01*
X-2483Y-15626D01*
X-2479Y-15631D01*
X-2477Y-15634D01*
X-2477Y-15635D01*
Y-15635D01*
X-2472Y-15646D01*
X-2469Y-15656D01*
X-2466Y-15666D01*
X-2465Y-15676D01*
X-2464Y-15684D01*
X-2463Y-15688D01*
X-2463Y-15691D01*
Y-15693D01*
Y-15695D01*
Y-15696D01*
Y-15697D01*
X-2463Y-15709D01*
X-2465Y-15721D01*
X-2467Y-15731D01*
X-2470Y-15740D01*
X-2472Y-15748D01*
X-2474Y-15751D01*
X-2475Y-15753D01*
X-2475Y-15755D01*
X-2476Y-15757D01*
X-2477Y-15757D01*
Y-15758D01*
X-2483Y-15767D01*
X-2490Y-15775D01*
X-2496Y-15782D01*
X-2503Y-15788D01*
X-2509Y-15792D01*
X-2514Y-15796D01*
X-2517Y-15798D01*
X-2518Y-15799D01*
X-2518D01*
X-2529Y-15803D01*
X-2540Y-15807D01*
X-2550Y-15809D01*
X-2559Y-15811D01*
X-2568Y-15812D01*
X-2572D01*
X-2575Y-15812D01*
X-2581D01*
X-2592Y-15812D01*
X-2602Y-15811D01*
X-2611Y-15809D01*
X-2619Y-15807D01*
X-2625Y-15805D01*
X-2630Y-15803D01*
X-2633Y-15802D01*
X-2634Y-15802D01*
X-2642Y-15798D01*
X-2650Y-15793D01*
X-2657Y-15788D01*
X-2664Y-15784D01*
X-2669Y-15780D01*
X-2673Y-15777D01*
X-2675Y-15774D01*
X-2676Y-15774D01*
X-2646Y-15731D01*
X-2641Y-15736D01*
X-2635Y-15741D01*
X-2629Y-15745D01*
X-2623Y-15749D01*
X-2618Y-15752D01*
X-2612Y-15754D01*
X-2602Y-15758D01*
X-2594Y-15760D01*
X-2590Y-15760D01*
X-2587Y-15761D01*
X-2584Y-15761D01*
X-2581D01*
X-2572Y-15761D01*
X-2563Y-15759D01*
X-2556Y-15757D01*
X-2550Y-15754D01*
X-2545Y-15752D01*
X-2541Y-15750D01*
X-2539Y-15748D01*
X-2538Y-15748D01*
X-2532Y-15742D01*
X-2528Y-15735D01*
X-2525Y-15729D01*
X-2522Y-15723D01*
X-2521Y-15717D01*
X-2520Y-15712D01*
X-2519Y-15709D01*
Y-15709D01*
Y-15708D01*
X-2683D01*
Y-15697D01*
X-2682Y-15686D01*
X-2682Y-15677D01*
X-2680Y-15668D01*
X-2678Y-15660D01*
X-2676Y-15652D01*
X-2674Y-15645D01*
X-2672Y-15638D01*
X-2669Y-15633D01*
X-2666Y-15628D01*
X-2664Y-15623D01*
X-2661Y-15619D01*
X-2659Y-15616D01*
X-2657Y-15613D01*
X-2656Y-15612D01*
X-2655Y-15611D01*
X-2655Y-15610D01*
X-2649Y-15605D01*
X-2644Y-15600D01*
X-2637Y-15596D01*
X-2631Y-15593D01*
X-2624Y-15589D01*
X-2618Y-15587D01*
X-2605Y-15583D01*
X-2599Y-15582D01*
X-2594Y-15581D01*
X-2589Y-15580D01*
X-2584Y-15580D01*
X-2581Y-15579D01*
X-2576D01*
X-2564Y-15580D01*
D02*
G37*
G36*
X-3198D02*
X-3187Y-15581D01*
X-3177Y-15584D01*
X-3168Y-15586D01*
X-3161Y-15589D01*
X-3156Y-15591D01*
X-3154Y-15593D01*
X-3152Y-15594D01*
X-3152Y-15594D01*
X-3151D01*
X-3142Y-15600D01*
X-3134Y-15607D01*
X-3127Y-15613D01*
X-3121Y-15620D01*
X-3117Y-15626D01*
X-3114Y-15631D01*
X-3112Y-15634D01*
X-3111Y-15635D01*
Y-15635D01*
X-3107Y-15646D01*
X-3103Y-15656D01*
X-3101Y-15666D01*
X-3099Y-15676D01*
X-3098Y-15684D01*
X-3098Y-15688D01*
X-3097Y-15691D01*
Y-15693D01*
Y-15695D01*
Y-15696D01*
Y-15697D01*
X-3098Y-15709D01*
X-3099Y-15721D01*
X-3102Y-15731D01*
X-3104Y-15740D01*
X-3107Y-15748D01*
X-3108Y-15751D01*
X-3109Y-15753D01*
X-3110Y-15755D01*
X-3111Y-15757D01*
X-3111Y-15757D01*
Y-15758D01*
X-3117Y-15767D01*
X-3124Y-15775D01*
X-3131Y-15782D01*
X-3137Y-15788D01*
X-3143Y-15792D01*
X-3148Y-15796D01*
X-3152Y-15798D01*
X-3152Y-15799D01*
X-3153D01*
X-3163Y-15803D01*
X-3174Y-15807D01*
X-3184Y-15809D01*
X-3194Y-15811D01*
X-3203Y-15812D01*
X-3206D01*
X-3209Y-15812D01*
X-3215D01*
X-3227Y-15812D01*
X-3237Y-15811D01*
X-3245Y-15809D01*
X-3254Y-15807D01*
X-3260Y-15805D01*
X-3264Y-15803D01*
X-3267Y-15802D01*
X-3268Y-15802D01*
X-3277Y-15798D01*
X-3285Y-15793D01*
X-3292Y-15788D01*
X-3298Y-15784D01*
X-3303Y-15780D01*
X-3307Y-15777D01*
X-3309Y-15774D01*
X-3310Y-15774D01*
X-3281Y-15731D01*
X-3275Y-15736D01*
X-3269Y-15741D01*
X-3263Y-15745D01*
X-3258Y-15749D01*
X-3252Y-15752D01*
X-3247Y-15754D01*
X-3237Y-15758D01*
X-3228Y-15760D01*
X-3225Y-15760D01*
X-3221Y-15761D01*
X-3219Y-15761D01*
X-3215D01*
X-3206Y-15761D01*
X-3197Y-15759D01*
X-3190Y-15757D01*
X-3184Y-15754D01*
X-3179Y-15752D01*
X-3176Y-15750D01*
X-3174Y-15748D01*
X-3172Y-15748D01*
X-3167Y-15742D01*
X-3162Y-15735D01*
X-3159Y-15729D01*
X-3157Y-15723D01*
X-3155Y-15717D01*
X-3154Y-15712D01*
X-3154Y-15709D01*
Y-15709D01*
Y-15708D01*
X-3317D01*
Y-15697D01*
X-3317Y-15686D01*
X-3316Y-15677D01*
X-3315Y-15668D01*
X-3313Y-15660D01*
X-3311Y-15652D01*
X-3309Y-15645D01*
X-3306Y-15638D01*
X-3304Y-15633D01*
X-3300Y-15628D01*
X-3298Y-15623D01*
X-3296Y-15619D01*
X-3294Y-15616D01*
X-3292Y-15613D01*
X-3290Y-15612D01*
X-3290Y-15611D01*
X-3289Y-15610D01*
X-3284Y-15605D01*
X-3278Y-15600D01*
X-3271Y-15596D01*
X-3265Y-15593D01*
X-3259Y-15589D01*
X-3252Y-15587D01*
X-3239Y-15583D01*
X-3234Y-15582D01*
X-3228Y-15581D01*
X-3223Y-15580D01*
X-3219Y-15580D01*
X-3216Y-15579D01*
X-3211D01*
X-3198Y-15580D01*
D02*
G37*
G36*
X54Y-15580D02*
X63Y-15582D01*
X71Y-15584D01*
X78Y-15586D01*
X83Y-15589D01*
X87Y-15591D01*
X89Y-15593D01*
X91Y-15594D01*
X97Y-15599D01*
X102Y-15606D01*
X107Y-15612D01*
X111Y-15619D01*
X114Y-15624D01*
X116Y-15629D01*
X117Y-15632D01*
X118Y-15633D01*
Y-15633D01*
X119D01*
Y-15586D01*
X176D01*
Y-15806D01*
X118D01*
Y-15716D01*
Y-15709D01*
X118Y-15703D01*
X117Y-15697D01*
X115Y-15691D01*
X113Y-15681D01*
X109Y-15673D01*
X106Y-15667D01*
X104Y-15663D01*
X102Y-15661D01*
X101Y-15660D01*
X94Y-15654D01*
X86Y-15650D01*
X77Y-15647D01*
X69Y-15645D01*
X61Y-15644D01*
X58Y-15643D01*
X55Y-15642D01*
X43D01*
Y-15580D01*
X45D01*
X54Y-15580D01*
D02*
G37*
G36*
X-109D02*
X-101Y-15582D01*
X-93Y-15584D01*
X-86Y-15586D01*
X-81Y-15589D01*
X-77Y-15591D01*
X-74Y-15593D01*
X-73Y-15594D01*
X-67Y-15599D01*
X-61Y-15606D01*
X-56Y-15612D01*
X-53Y-15619D01*
X-50Y-15624D01*
X-48Y-15629D01*
X-47Y-15632D01*
X-46Y-15633D01*
Y-15633D01*
X-45D01*
Y-15586D01*
X12D01*
Y-15806D01*
X-46D01*
Y-15716D01*
Y-15709D01*
X-46Y-15703D01*
X-47Y-15697D01*
X-48Y-15691D01*
X-51Y-15681D01*
X-54Y-15673D01*
X-57Y-15667D01*
X-60Y-15663D01*
X-62Y-15661D01*
X-63Y-15660D01*
X-70Y-15654D01*
X-78Y-15650D01*
X-86Y-15647D01*
X-95Y-15645D01*
X-102Y-15644D01*
X-106Y-15643D01*
X-109Y-15642D01*
X-121D01*
Y-15580D01*
X-119D01*
X-109Y-15580D01*
D02*
G37*
G36*
X-517Y-15580D02*
X-509Y-15581D01*
X-502Y-15583D01*
X-496Y-15584D01*
X-491Y-15586D01*
X-487Y-15588D01*
X-485Y-15589D01*
X-484Y-15590D01*
X-477Y-15594D01*
X-472Y-15599D01*
X-466Y-15604D01*
X-462Y-15609D01*
X-459Y-15613D01*
X-456Y-15617D01*
X-455Y-15619D01*
X-454Y-15620D01*
X-453D01*
Y-15586D01*
X-396D01*
Y-15806D01*
X-454D01*
Y-15699D01*
X-454Y-15687D01*
X-456Y-15677D01*
X-458Y-15668D01*
X-461Y-15661D01*
X-463Y-15656D01*
X-465Y-15653D01*
X-467Y-15650D01*
X-467Y-15650D01*
X-473Y-15645D01*
X-479Y-15640D01*
X-485Y-15638D01*
X-491Y-15636D01*
X-497Y-15635D01*
X-501Y-15634D01*
X-505D01*
X-513Y-15634D01*
X-520Y-15636D01*
X-526Y-15638D01*
X-531Y-15641D01*
X-535Y-15646D01*
X-539Y-15650D01*
X-542Y-15654D01*
X-544Y-15659D01*
X-546Y-15664D01*
X-548Y-15668D01*
X-549Y-15673D01*
X-550Y-15676D01*
Y-15680D01*
X-550Y-15682D01*
Y-15684D01*
Y-15684D01*
Y-15806D01*
X-609D01*
Y-15671D01*
Y-15662D01*
X-608Y-15654D01*
X-607Y-15647D01*
X-605Y-15640D01*
X-604Y-15634D01*
X-602Y-15628D01*
X-600Y-15623D01*
X-597Y-15619D01*
X-595Y-15614D01*
X-593Y-15611D01*
X-591Y-15608D01*
X-590Y-15606D01*
X-588Y-15604D01*
X-587Y-15603D01*
X-587Y-15602D01*
X-586D01*
X-582Y-15598D01*
X-577Y-15594D01*
X-567Y-15589D01*
X-557Y-15585D01*
X-548Y-15582D01*
X-539Y-15580D01*
X-536Y-15580D01*
X-532D01*
X-530Y-15579D01*
X-526D01*
X-517Y-15580D01*
D02*
G37*
G36*
X-679Y-15586D02*
X-638D01*
Y-15635D01*
X-679D01*
Y-15741D01*
X-679Y-15753D01*
X-681Y-15762D01*
X-684Y-15771D01*
X-687Y-15778D01*
X-690Y-15783D01*
X-693Y-15787D01*
X-695Y-15789D01*
X-695Y-15790D01*
X-703Y-15795D01*
X-710Y-15799D01*
X-718Y-15802D01*
X-727Y-15804D01*
X-734Y-15805D01*
X-739Y-15805D01*
X-741Y-15806D01*
X-770D01*
Y-15752D01*
X-760D01*
X-756Y-15752D01*
X-752Y-15751D01*
X-749Y-15750D01*
X-746Y-15749D01*
X-744Y-15748D01*
X-743Y-15748D01*
X-742Y-15747D01*
X-742D01*
X-740Y-15744D01*
X-739Y-15741D01*
X-737Y-15735D01*
Y-15732D01*
X-737Y-15730D01*
Y-15728D01*
Y-15728D01*
Y-15635D01*
X-782D01*
Y-15586D01*
X-737D01*
Y-15499D01*
X-679D01*
Y-15586D01*
D02*
G37*
G36*
X-2433Y-15580D02*
X-2425Y-15582D01*
X-2417Y-15584D01*
X-2410Y-15586D01*
X-2405Y-15589D01*
X-2401Y-15591D01*
X-2398Y-15593D01*
X-2397Y-15594D01*
X-2391Y-15599D01*
X-2386Y-15606D01*
X-2380Y-15612D01*
X-2377Y-15619D01*
X-2374Y-15624D01*
X-2372Y-15629D01*
X-2371Y-15632D01*
X-2370Y-15633D01*
Y-15633D01*
X-2369D01*
Y-15586D01*
X-2312D01*
Y-15806D01*
X-2370D01*
Y-15716D01*
Y-15709D01*
X-2370Y-15703D01*
X-2371Y-15697D01*
X-2372Y-15691D01*
X-2375Y-15681D01*
X-2378Y-15673D01*
X-2381Y-15667D01*
X-2384Y-15663D01*
X-2386Y-15661D01*
X-2387Y-15660D01*
X-2394Y-15654D01*
X-2402Y-15650D01*
X-2411Y-15647D01*
X-2419Y-15645D01*
X-2426Y-15644D01*
X-2430Y-15643D01*
X-2433Y-15642D01*
X-2445D01*
Y-15580D01*
X-2443D01*
X-2433Y-15580D01*
D02*
G37*
G36*
X-3476Y-15580D02*
X-3468Y-15581D01*
X-3461Y-15583D01*
X-3455Y-15584D01*
X-3449Y-15586D01*
X-3445Y-15588D01*
X-3443Y-15589D01*
X-3442Y-15590D01*
X-3436Y-15594D01*
X-3430Y-15599D01*
X-3425Y-15604D01*
X-3421Y-15609D01*
X-3417Y-15613D01*
X-3415Y-15617D01*
X-3413Y-15619D01*
X-3413Y-15620D01*
X-3412D01*
Y-15586D01*
X-3355D01*
Y-15806D01*
X-3412D01*
Y-15699D01*
X-3413Y-15687D01*
X-3414Y-15677D01*
X-3417Y-15668D01*
X-3419Y-15661D01*
X-3421Y-15656D01*
X-3424Y-15653D01*
X-3425Y-15650D01*
X-3426Y-15650D01*
X-3432Y-15645D01*
X-3438Y-15640D01*
X-3444Y-15638D01*
X-3450Y-15636D01*
X-3456Y-15635D01*
X-3460Y-15634D01*
X-3464D01*
X-3472Y-15634D01*
X-3478Y-15636D01*
X-3485Y-15638D01*
X-3490Y-15641D01*
X-3494Y-15646D01*
X-3498Y-15650D01*
X-3500Y-15654D01*
X-3503Y-15659D01*
X-3505Y-15664D01*
X-3506Y-15668D01*
X-3507Y-15673D01*
X-3508Y-15676D01*
Y-15680D01*
X-3509Y-15682D01*
Y-15684D01*
Y-15684D01*
Y-15806D01*
X-3567D01*
Y-15671D01*
Y-15662D01*
X-3566Y-15654D01*
X-3565Y-15647D01*
X-3564Y-15640D01*
X-3562Y-15634D01*
X-3560Y-15628D01*
X-3558Y-15623D01*
X-3556Y-15619D01*
X-3554Y-15614D01*
X-3552Y-15611D01*
X-3550Y-15608D01*
X-3548Y-15606D01*
X-3547Y-15604D01*
X-3546Y-15603D01*
X-3545Y-15602D01*
X-3545D01*
X-3540Y-15598D01*
X-3536Y-15594D01*
X-3526Y-15589D01*
X-3516Y-15585D01*
X-3507Y-15582D01*
X-3498Y-15580D01*
X-3494Y-15580D01*
X-3491D01*
X-3488Y-15579D01*
X-3485D01*
X-3476Y-15580D01*
D02*
G37*
G36*
X-3637Y-15586D02*
X-3597D01*
Y-15635D01*
X-3637D01*
Y-15741D01*
X-3638Y-15753D01*
X-3640Y-15762D01*
X-3642Y-15771D01*
X-3646Y-15778D01*
X-3649Y-15783D01*
X-3651Y-15787D01*
X-3653Y-15789D01*
X-3654Y-15790D01*
X-3661Y-15795D01*
X-3669Y-15799D01*
X-3677Y-15802D01*
X-3685Y-15804D01*
X-3692Y-15805D01*
X-3698Y-15805D01*
X-3700Y-15806D01*
X-3728D01*
Y-15752D01*
X-3719D01*
X-3714Y-15752D01*
X-3711Y-15751D01*
X-3707Y-15750D01*
X-3705Y-15749D01*
X-3703Y-15748D01*
X-3701Y-15748D01*
X-3701Y-15747D01*
X-3700D01*
X-3699Y-15744D01*
X-3697Y-15741D01*
X-3696Y-15735D01*
Y-15732D01*
X-3695Y-15730D01*
Y-15728D01*
Y-15728D01*
Y-15635D01*
X-3741D01*
Y-15586D01*
X-3695D01*
Y-15499D01*
X-3637D01*
Y-15586D01*
D02*
G37*
G36*
X-1924Y-15580D02*
X-1911Y-15582D01*
X-1901Y-15585D01*
X-1892Y-15588D01*
X-1885Y-15591D01*
X-1880Y-15594D01*
X-1877Y-15596D01*
X-1876Y-15597D01*
X-1876D01*
X-1871Y-15600D01*
X-1868Y-15604D01*
X-1863Y-15611D01*
X-1859Y-15620D01*
X-1856Y-15628D01*
X-1855Y-15635D01*
X-1854Y-15640D01*
X-1854Y-15643D01*
Y-15645D01*
Y-15646D01*
Y-15646D01*
X-1854Y-15654D01*
X-1856Y-15661D01*
X-1857Y-15668D01*
X-1860Y-15674D01*
X-1862Y-15678D01*
X-1863Y-15681D01*
X-1865Y-15684D01*
X-1865Y-15684D01*
X-1870Y-15690D01*
X-1877Y-15695D01*
X-1883Y-15700D01*
X-1889Y-15704D01*
X-1894Y-15707D01*
X-1899Y-15709D01*
X-1902Y-15711D01*
X-1903Y-15711D01*
X-1903D01*
X-1942Y-15729D01*
X-1946Y-15731D01*
X-1949Y-15732D01*
X-1952Y-15734D01*
X-1954Y-15735D01*
X-1956Y-15737D01*
X-1957Y-15738D01*
X-1960Y-15741D01*
X-1961Y-15744D01*
X-1962Y-15747D01*
Y-15747D01*
Y-15748D01*
X-1961Y-15750D01*
X-1961Y-15753D01*
X-1958Y-15757D01*
X-1953Y-15759D01*
X-1948Y-15761D01*
X-1943Y-15762D01*
X-1938Y-15763D01*
X-1935Y-15763D01*
X-1934D01*
X-1928Y-15763D01*
X-1921Y-15762D01*
X-1908Y-15760D01*
X-1896Y-15756D01*
X-1885Y-15752D01*
X-1880Y-15750D01*
X-1875Y-15748D01*
X-1871Y-15746D01*
X-1867Y-15744D01*
X-1865Y-15742D01*
X-1862Y-15741D01*
X-1861Y-15740D01*
X-1861D01*
X-1837Y-15790D01*
X-1845Y-15794D01*
X-1853Y-15798D01*
X-1861Y-15801D01*
X-1868Y-15803D01*
X-1874Y-15805D01*
X-1879Y-15806D01*
X-1882Y-15806D01*
X-1882Y-15807D01*
X-1883D01*
X-1892Y-15809D01*
X-1901Y-15810D01*
X-1909Y-15811D01*
X-1916Y-15812D01*
X-1922D01*
X-1927Y-15812D01*
X-1931D01*
X-1946Y-15812D01*
X-1959Y-15810D01*
X-1971Y-15807D01*
X-1980Y-15804D01*
X-1984Y-15802D01*
X-1988Y-15801D01*
X-1991Y-15800D01*
X-1993Y-15798D01*
X-1995Y-15797D01*
X-1996Y-15796D01*
X-1997Y-15795D01*
X-1997D01*
X-2002Y-15792D01*
X-2006Y-15788D01*
X-2012Y-15780D01*
X-2016Y-15771D01*
X-2019Y-15763D01*
X-2021Y-15755D01*
X-2021Y-15752D01*
Y-15749D01*
X-2022Y-15747D01*
Y-15744D01*
Y-15743D01*
Y-15743D01*
X-2021Y-15734D01*
X-2020Y-15727D01*
X-2018Y-15720D01*
X-2016Y-15714D01*
X-2014Y-15710D01*
X-2012Y-15707D01*
X-2010Y-15705D01*
X-2010Y-15704D01*
X-2005Y-15699D01*
X-1999Y-15693D01*
X-1993Y-15689D01*
X-1987Y-15686D01*
X-1982Y-15683D01*
X-1978Y-15681D01*
X-1974Y-15679D01*
X-1974Y-15679D01*
X-1973D01*
X-1934Y-15661D01*
X-1930Y-15659D01*
X-1927Y-15658D01*
X-1923Y-15656D01*
X-1921Y-15655D01*
X-1919Y-15654D01*
X-1918Y-15653D01*
X-1917Y-15652D01*
X-1915Y-15649D01*
X-1914Y-15645D01*
X-1913Y-15642D01*
Y-15642D01*
Y-15641D01*
X-1914Y-15637D01*
X-1916Y-15634D01*
X-1917Y-15632D01*
X-1918Y-15632D01*
X-1920Y-15631D01*
X-1923Y-15630D01*
X-1929Y-15629D01*
X-1931Y-15628D01*
X-1935D01*
X-1945Y-15629D01*
X-1956Y-15631D01*
X-1966Y-15633D01*
X-1976Y-15636D01*
X-1984Y-15638D01*
X-1988Y-15640D01*
X-1991Y-15641D01*
X-1993Y-15642D01*
X-1995Y-15643D01*
X-1996Y-15644D01*
X-1997D01*
X-2017Y-15595D01*
X-2002Y-15589D01*
X-1987Y-15586D01*
X-1974Y-15583D01*
X-1962Y-15581D01*
X-1957Y-15580D01*
X-1953D01*
X-1948Y-15580D01*
X-1945Y-15579D01*
X-1939D01*
X-1924Y-15580D01*
D02*
G37*
G36*
X568Y-16092D02*
X578Y-16094D01*
X587Y-16096D01*
X595Y-16098D01*
X602Y-16101D01*
X607Y-16103D01*
X608Y-16104D01*
X610Y-16105D01*
X610Y-16105D01*
X611D01*
X619Y-16111D01*
X627Y-16118D01*
X633Y-16124D01*
X639Y-16131D01*
X643Y-16136D01*
X646Y-16141D01*
X648Y-16145D01*
X649Y-16145D01*
Y-16146D01*
X654Y-16156D01*
X657Y-16166D01*
X659Y-16177D01*
X661Y-16187D01*
X662Y-16196D01*
Y-16199D01*
X663Y-16202D01*
Y-16205D01*
Y-16207D01*
Y-16208D01*
Y-16208D01*
X662Y-16222D01*
X661Y-16234D01*
X658Y-16244D01*
X656Y-16254D01*
X654Y-16261D01*
X652Y-16264D01*
X651Y-16267D01*
X650Y-16269D01*
X649Y-16271D01*
X649Y-16271D01*
Y-16272D01*
X643Y-16281D01*
X637Y-16289D01*
X631Y-16295D01*
X624Y-16301D01*
X619Y-16306D01*
X615Y-16309D01*
X612Y-16311D01*
X611Y-16311D01*
X611D01*
X602Y-16316D01*
X592Y-16319D01*
X583Y-16322D01*
X575Y-16323D01*
X568Y-16324D01*
X562Y-16325D01*
X558D01*
X548Y-16324D01*
X540Y-16323D01*
X532Y-16322D01*
X526Y-16319D01*
X521Y-16318D01*
X517Y-16316D01*
X515Y-16315D01*
X514Y-16315D01*
X507Y-16311D01*
X502Y-16307D01*
X496Y-16302D01*
X492Y-16298D01*
X489Y-16293D01*
X486Y-16290D01*
X485Y-16288D01*
X484Y-16287D01*
X483D01*
Y-16318D01*
X426D01*
Y-16099D01*
X483D01*
Y-16130D01*
X484D01*
X489Y-16124D01*
X493Y-16118D01*
X498Y-16113D01*
X503Y-16109D01*
X507Y-16106D01*
X511Y-16104D01*
X513Y-16102D01*
X514Y-16102D01*
X521Y-16098D01*
X528Y-16096D01*
X536Y-16094D01*
X542Y-16093D01*
X548Y-16092D01*
X553Y-16092D01*
X558D01*
X568Y-16092D01*
D02*
G37*
G36*
X-817Y-16318D02*
X-875D01*
Y-16287D01*
X-876D01*
X-881Y-16293D01*
X-886Y-16299D01*
X-890Y-16304D01*
X-895Y-16308D01*
X-899Y-16311D01*
X-902Y-16313D01*
X-905Y-16314D01*
X-906Y-16315D01*
X-913Y-16318D01*
X-920Y-16320D01*
X-927Y-16322D01*
X-935Y-16324D01*
X-940Y-16324D01*
X-945Y-16325D01*
X-949D01*
X-960Y-16324D01*
X-970Y-16323D01*
X-979Y-16320D01*
X-987Y-16318D01*
X-993Y-16315D01*
X-998Y-16313D01*
X-1001Y-16312D01*
X-1002Y-16311D01*
X-1002D01*
X-1011Y-16306D01*
X-1019Y-16299D01*
X-1025Y-16292D01*
X-1031Y-16286D01*
X-1035Y-16281D01*
X-1038Y-16276D01*
X-1040Y-16273D01*
X-1041Y-16272D01*
Y-16272D01*
X-1045Y-16261D01*
X-1049Y-16251D01*
X-1051Y-16240D01*
X-1053Y-16230D01*
X-1054Y-16221D01*
Y-16217D01*
X-1055Y-16214D01*
Y-16212D01*
Y-16210D01*
Y-16209D01*
Y-16208D01*
X-1054Y-16195D01*
X-1053Y-16183D01*
X-1050Y-16173D01*
X-1048Y-16163D01*
X-1045Y-16156D01*
X-1044Y-16153D01*
X-1043Y-16150D01*
X-1042Y-16148D01*
X-1041Y-16147D01*
X-1041Y-16146D01*
Y-16146D01*
X-1035Y-16136D01*
X-1029Y-16128D01*
X-1022Y-16121D01*
X-1016Y-16115D01*
X-1011Y-16111D01*
X-1007Y-16108D01*
X-1003Y-16106D01*
X-1003Y-16105D01*
X-1002D01*
X-993Y-16101D01*
X-984Y-16097D01*
X-975Y-16095D01*
X-967Y-16093D01*
X-960Y-16092D01*
X-954Y-16092D01*
X-949D01*
X-940Y-16092D01*
X-932Y-16093D01*
X-924Y-16095D01*
X-918Y-16097D01*
X-913Y-16099D01*
X-909Y-16100D01*
X-907Y-16101D01*
X-906Y-16102D01*
X-899Y-16106D01*
X-893Y-16110D01*
X-888Y-16115D01*
X-884Y-16120D01*
X-881Y-16124D01*
X-878Y-16127D01*
X-877Y-16129D01*
X-876Y-16130D01*
X-875D01*
Y-15986D01*
X-817D01*
Y-16318D01*
D02*
G37*
G36*
X-1431Y-16092D02*
X-1422Y-16094D01*
X-1413Y-16096D01*
X-1405Y-16098D01*
X-1398Y-16101D01*
X-1393Y-16103D01*
X-1392Y-16104D01*
X-1390Y-16105D01*
X-1390Y-16105D01*
X-1389D01*
X-1380Y-16111D01*
X-1373Y-16118D01*
X-1367Y-16124D01*
X-1361Y-16131D01*
X-1356Y-16136D01*
X-1353Y-16141D01*
X-1351Y-16145D01*
X-1351Y-16145D01*
Y-16146D01*
X-1346Y-16156D01*
X-1343Y-16166D01*
X-1341Y-16177D01*
X-1339Y-16187D01*
X-1338Y-16196D01*
Y-16199D01*
X-1337Y-16202D01*
Y-16205D01*
Y-16207D01*
Y-16208D01*
Y-16208D01*
X-1338Y-16222D01*
X-1339Y-16233D01*
X-1342Y-16244D01*
X-1344Y-16253D01*
X-1346Y-16261D01*
X-1348Y-16264D01*
X-1349Y-16266D01*
X-1350Y-16268D01*
X-1350Y-16270D01*
X-1351Y-16271D01*
Y-16271D01*
X-1356Y-16280D01*
X-1363Y-16288D01*
X-1369Y-16295D01*
X-1375Y-16301D01*
X-1381Y-16305D01*
X-1385Y-16308D01*
X-1388Y-16310D01*
X-1389Y-16310D01*
X-1389D01*
X-1398Y-16315D01*
X-1407Y-16318D01*
X-1416Y-16320D01*
X-1424Y-16322D01*
X-1431Y-16323D01*
X-1437Y-16324D01*
X-1442D01*
X-1450Y-16323D01*
X-1459Y-16322D01*
X-1467Y-16320D01*
X-1474Y-16318D01*
X-1480Y-16315D01*
X-1486Y-16312D01*
X-1492Y-16309D01*
X-1497Y-16305D01*
X-1501Y-16302D01*
X-1505Y-16299D01*
X-1508Y-16295D01*
X-1511Y-16293D01*
X-1513Y-16291D01*
X-1514Y-16289D01*
X-1515Y-16288D01*
X-1515Y-16287D01*
X-1517D01*
Y-16308D01*
X-1516Y-16319D01*
X-1514Y-16328D01*
X-1512Y-16336D01*
X-1510Y-16342D01*
X-1508Y-16346D01*
X-1506Y-16350D01*
X-1504Y-16352D01*
X-1504Y-16352D01*
X-1499Y-16356D01*
X-1492Y-16359D01*
X-1485Y-16362D01*
X-1478Y-16363D01*
X-1472Y-16364D01*
X-1467Y-16365D01*
X-1462D01*
X-1450Y-16364D01*
X-1437Y-16363D01*
X-1424Y-16361D01*
X-1412Y-16359D01*
X-1406Y-16358D01*
X-1401Y-16357D01*
X-1397Y-16356D01*
X-1393Y-16355D01*
X-1390Y-16355D01*
X-1387Y-16354D01*
X-1386Y-16354D01*
X-1385D01*
X-1375Y-16409D01*
X-1394Y-16413D01*
X-1403Y-16414D01*
X-1411Y-16415D01*
X-1419Y-16416D01*
X-1427Y-16417D01*
X-1433Y-16418D01*
X-1440Y-16418D01*
X-1445Y-16419D01*
X-1450Y-16419D01*
X-1454D01*
X-1457Y-16420D01*
X-1464D01*
X-1474Y-16419D01*
X-1483Y-16419D01*
X-1491Y-16418D01*
X-1499Y-16416D01*
X-1506Y-16414D01*
X-1513Y-16412D01*
X-1519Y-16410D01*
X-1525Y-16408D01*
X-1529Y-16406D01*
X-1533Y-16404D01*
X-1537Y-16402D01*
X-1540Y-16400D01*
X-1542Y-16399D01*
X-1544Y-16398D01*
X-1545Y-16396D01*
X-1545D01*
X-1550Y-16392D01*
X-1555Y-16386D01*
X-1558Y-16381D01*
X-1562Y-16374D01*
X-1567Y-16361D01*
X-1571Y-16349D01*
X-1572Y-16342D01*
X-1573Y-16337D01*
X-1573Y-16331D01*
X-1574Y-16327D01*
X-1574Y-16323D01*
Y-16320D01*
Y-16318D01*
Y-16318D01*
Y-16099D01*
X-1517D01*
Y-16130D01*
X-1515D01*
X-1511Y-16124D01*
X-1506Y-16118D01*
X-1501Y-16113D01*
X-1497Y-16109D01*
X-1493Y-16106D01*
X-1489Y-16104D01*
X-1487Y-16102D01*
X-1486Y-16102D01*
X-1479Y-16098D01*
X-1472Y-16096D01*
X-1464Y-16094D01*
X-1457Y-16093D01*
X-1451Y-16092D01*
X-1447Y-16092D01*
X-1442D01*
X-1431Y-16092D01*
D02*
G37*
G36*
X-1757Y-16318D02*
X-1815D01*
Y-16287D01*
X-1816D01*
X-1821Y-16293D01*
X-1826Y-16299D01*
X-1830Y-16304D01*
X-1835Y-16308D01*
X-1839Y-16311D01*
X-1842Y-16313D01*
X-1844Y-16314D01*
X-1845Y-16315D01*
X-1853Y-16318D01*
X-1860Y-16320D01*
X-1867Y-16322D01*
X-1875Y-16324D01*
X-1880Y-16324D01*
X-1885Y-16325D01*
X-1889D01*
X-1900Y-16324D01*
X-1910Y-16323D01*
X-1919Y-16320D01*
X-1927Y-16318D01*
X-1933Y-16315D01*
X-1938Y-16313D01*
X-1941Y-16312D01*
X-1942Y-16311D01*
X-1942D01*
X-1951Y-16306D01*
X-1959Y-16299D01*
X-1965Y-16292D01*
X-1971Y-16286D01*
X-1975Y-16281D01*
X-1978Y-16276D01*
X-1980Y-16273D01*
X-1981Y-16272D01*
Y-16272D01*
X-1985Y-16261D01*
X-1989Y-16251D01*
X-1991Y-16240D01*
X-1993Y-16230D01*
X-1994Y-16221D01*
Y-16217D01*
X-1995Y-16214D01*
Y-16212D01*
Y-16210D01*
Y-16209D01*
Y-16208D01*
X-1994Y-16195D01*
X-1993Y-16183D01*
X-1990Y-16173D01*
X-1988Y-16163D01*
X-1985Y-16156D01*
X-1984Y-16153D01*
X-1983Y-16150D01*
X-1982Y-16148D01*
X-1981Y-16147D01*
X-1981Y-16146D01*
Y-16146D01*
X-1975Y-16136D01*
X-1969Y-16128D01*
X-1962Y-16121D01*
X-1956Y-16115D01*
X-1951Y-16111D01*
X-1946Y-16108D01*
X-1943Y-16106D01*
X-1943Y-16105D01*
X-1942D01*
X-1933Y-16101D01*
X-1924Y-16097D01*
X-1915Y-16095D01*
X-1907Y-16093D01*
X-1900Y-16092D01*
X-1894Y-16092D01*
X-1889D01*
X-1880Y-16092D01*
X-1872Y-16093D01*
X-1864Y-16095D01*
X-1858Y-16097D01*
X-1853Y-16099D01*
X-1849Y-16100D01*
X-1846Y-16101D01*
X-1845Y-16102D01*
X-1839Y-16106D01*
X-1833Y-16110D01*
X-1828Y-16115D01*
X-1824Y-16120D01*
X-1821Y-16124D01*
X-1818Y-16127D01*
X-1817Y-16129D01*
X-1816Y-16130D01*
X-1815D01*
Y-15986D01*
X-1757D01*
Y-16318D01*
D02*
G37*
G36*
X-2381Y-16092D02*
X-2372Y-16094D01*
X-2363Y-16096D01*
X-2355Y-16098D01*
X-2348Y-16101D01*
X-2343Y-16103D01*
X-2342Y-16104D01*
X-2340Y-16105D01*
X-2340Y-16105D01*
X-2339D01*
X-2330Y-16111D01*
X-2323Y-16118D01*
X-2317Y-16124D01*
X-2311Y-16131D01*
X-2306Y-16136D01*
X-2303Y-16141D01*
X-2301Y-16145D01*
X-2301Y-16145D01*
Y-16146D01*
X-2296Y-16156D01*
X-2293Y-16166D01*
X-2291Y-16177D01*
X-2289Y-16187D01*
X-2288Y-16196D01*
Y-16199D01*
X-2287Y-16202D01*
Y-16205D01*
Y-16207D01*
Y-16208D01*
Y-16208D01*
X-2288Y-16222D01*
X-2289Y-16234D01*
X-2292Y-16244D01*
X-2294Y-16254D01*
X-2296Y-16261D01*
X-2298Y-16264D01*
X-2299Y-16267D01*
X-2300Y-16269D01*
X-2300Y-16271D01*
X-2301Y-16271D01*
Y-16272D01*
X-2306Y-16281D01*
X-2313Y-16289D01*
X-2319Y-16295D01*
X-2325Y-16301D01*
X-2331Y-16306D01*
X-2335Y-16309D01*
X-2338Y-16311D01*
X-2339Y-16311D01*
X-2339D01*
X-2348Y-16316D01*
X-2358Y-16319D01*
X-2367Y-16322D01*
X-2375Y-16323D01*
X-2382Y-16324D01*
X-2388Y-16325D01*
X-2392D01*
X-2401Y-16324D01*
X-2410Y-16323D01*
X-2418Y-16322D01*
X-2424Y-16319D01*
X-2429Y-16318D01*
X-2433Y-16316D01*
X-2435Y-16315D01*
X-2436Y-16315D01*
X-2443Y-16311D01*
X-2448Y-16307D01*
X-2453Y-16302D01*
X-2458Y-16298D01*
X-2461Y-16293D01*
X-2464Y-16290D01*
X-2465Y-16288D01*
X-2466Y-16287D01*
X-2467D01*
Y-16318D01*
X-2524D01*
Y-16099D01*
X-2467D01*
Y-16130D01*
X-2466D01*
X-2461Y-16124D01*
X-2456Y-16118D01*
X-2451Y-16113D01*
X-2447Y-16109D01*
X-2443Y-16106D01*
X-2439Y-16104D01*
X-2437Y-16102D01*
X-2436Y-16102D01*
X-2429Y-16098D01*
X-2422Y-16096D01*
X-2414Y-16094D01*
X-2407Y-16093D01*
X-2401Y-16092D01*
X-2397Y-16092D01*
X-2392D01*
X-2381Y-16092D01*
D02*
G37*
G36*
X-1091Y-16233D02*
X-1091Y-16241D01*
X-1092Y-16250D01*
X-1093Y-16257D01*
X-1094Y-16263D01*
X-1096Y-16270D01*
X-1098Y-16276D01*
X-1100Y-16281D01*
X-1102Y-16285D01*
X-1104Y-16289D01*
X-1106Y-16292D01*
X-1108Y-16295D01*
X-1110Y-16298D01*
X-1111Y-16300D01*
X-1112Y-16301D01*
X-1113Y-16302D01*
Y-16302D01*
X-1118Y-16306D01*
X-1122Y-16309D01*
X-1132Y-16315D01*
X-1142Y-16319D01*
X-1151Y-16322D01*
X-1160Y-16324D01*
X-1163Y-16324D01*
X-1166D01*
X-1168Y-16325D01*
X-1172D01*
X-1180Y-16324D01*
X-1188Y-16323D01*
X-1195Y-16321D01*
X-1202Y-16318D01*
X-1208Y-16315D01*
X-1214Y-16312D01*
X-1219Y-16308D01*
X-1223Y-16304D01*
X-1227Y-16301D01*
X-1230Y-16297D01*
X-1233Y-16293D01*
X-1236Y-16290D01*
X-1238Y-16288D01*
X-1239Y-16286D01*
X-1240Y-16285D01*
Y-16284D01*
X-1241D01*
Y-16318D01*
X-1299D01*
Y-16099D01*
X-1240D01*
Y-16204D01*
X-1240Y-16216D01*
X-1238Y-16227D01*
X-1236Y-16235D01*
X-1234Y-16242D01*
X-1231Y-16248D01*
X-1229Y-16252D01*
X-1228Y-16254D01*
X-1227Y-16255D01*
X-1222Y-16261D01*
X-1217Y-16264D01*
X-1211Y-16267D01*
X-1205Y-16269D01*
X-1200Y-16271D01*
X-1195Y-16271D01*
X-1193Y-16272D01*
X-1192D01*
X-1185Y-16271D01*
X-1179Y-16269D01*
X-1173Y-16268D01*
X-1169Y-16265D01*
X-1166Y-16263D01*
X-1163Y-16262D01*
X-1162Y-16260D01*
X-1161Y-16260D01*
X-1157Y-16255D01*
X-1155Y-16249D01*
X-1153Y-16242D01*
X-1152Y-16236D01*
X-1151Y-16231D01*
X-1150Y-16227D01*
Y-16224D01*
Y-16223D01*
Y-16223D01*
Y-16099D01*
X-1091D01*
Y-16233D01*
D02*
G37*
G36*
X-660Y-16092D02*
X-648Y-16094D01*
X-639Y-16096D01*
X-630Y-16099D01*
X-622Y-16102D01*
X-617Y-16104D01*
X-615Y-16105D01*
X-614Y-16106D01*
X-613Y-16106D01*
X-613D01*
X-604Y-16112D01*
X-596Y-16119D01*
X-589Y-16126D01*
X-583Y-16132D01*
X-579Y-16138D01*
X-576Y-16143D01*
X-574Y-16147D01*
X-573Y-16147D01*
Y-16148D01*
X-568Y-16158D01*
X-565Y-16169D01*
X-562Y-16179D01*
X-561Y-16188D01*
X-560Y-16197D01*
X-559Y-16200D01*
X-559Y-16203D01*
Y-16205D01*
Y-16207D01*
Y-16208D01*
Y-16209D01*
X-559Y-16222D01*
X-561Y-16233D01*
X-563Y-16243D01*
X-566Y-16252D01*
X-568Y-16260D01*
X-570Y-16263D01*
X-571Y-16265D01*
X-571Y-16267D01*
X-573Y-16269D01*
X-573Y-16269D01*
Y-16270D01*
X-579Y-16279D01*
X-586Y-16287D01*
X-592Y-16294D01*
X-599Y-16300D01*
X-605Y-16305D01*
X-610Y-16308D01*
X-613Y-16310D01*
X-614Y-16311D01*
X-614D01*
X-625Y-16315D01*
X-636Y-16319D01*
X-646Y-16321D01*
X-656Y-16323D01*
X-664Y-16324D01*
X-668D01*
X-671Y-16325D01*
X-677D01*
X-688Y-16324D01*
X-698Y-16323D01*
X-707Y-16321D01*
X-715Y-16319D01*
X-721Y-16317D01*
X-726Y-16315D01*
X-729Y-16314D01*
X-730Y-16314D01*
X-738Y-16310D01*
X-746Y-16305D01*
X-754Y-16300D01*
X-760Y-16296D01*
X-765Y-16292D01*
X-769Y-16289D01*
X-771Y-16286D01*
X-772Y-16286D01*
X-742Y-16243D01*
X-737Y-16249D01*
X-731Y-16253D01*
X-725Y-16257D01*
X-719Y-16261D01*
X-714Y-16264D01*
X-709Y-16266D01*
X-698Y-16270D01*
X-690Y-16272D01*
X-686Y-16273D01*
X-683Y-16273D01*
X-681Y-16274D01*
X-677D01*
X-668Y-16273D01*
X-659Y-16272D01*
X-652Y-16269D01*
X-646Y-16266D01*
X-641Y-16264D01*
X-637Y-16262D01*
X-635Y-16260D01*
X-634Y-16260D01*
X-629Y-16254D01*
X-624Y-16248D01*
X-621Y-16241D01*
X-618Y-16235D01*
X-617Y-16229D01*
X-616Y-16225D01*
X-615Y-16222D01*
Y-16221D01*
Y-16221D01*
X-779D01*
Y-16209D01*
X-779Y-16199D01*
X-778Y-16189D01*
X-777Y-16180D01*
X-774Y-16172D01*
X-772Y-16164D01*
X-770Y-16157D01*
X-768Y-16151D01*
X-765Y-16145D01*
X-762Y-16140D01*
X-760Y-16135D01*
X-758Y-16131D01*
X-756Y-16128D01*
X-754Y-16126D01*
X-752Y-16124D01*
X-752Y-16123D01*
X-751Y-16123D01*
X-745Y-16117D01*
X-740Y-16112D01*
X-733Y-16108D01*
X-727Y-16105D01*
X-720Y-16102D01*
X-714Y-16099D01*
X-701Y-16096D01*
X-695Y-16094D01*
X-690Y-16093D01*
X-685Y-16093D01*
X-681Y-16092D01*
X-678Y-16092D01*
X-672D01*
X-660Y-16092D01*
D02*
G37*
G36*
X254D02*
X262Y-16093D01*
X269Y-16095D01*
X275Y-16097D01*
X280Y-16099D01*
X284Y-16101D01*
X286Y-16102D01*
X287Y-16102D01*
X294Y-16106D01*
X300Y-16111D01*
X305Y-16116D01*
X309Y-16121D01*
X312Y-16126D01*
X315Y-16129D01*
X316Y-16131D01*
X317Y-16132D01*
X318D01*
Y-16099D01*
X375D01*
Y-16318D01*
X317D01*
Y-16211D01*
X317Y-16199D01*
X315Y-16189D01*
X313Y-16181D01*
X310Y-16174D01*
X308Y-16169D01*
X306Y-16165D01*
X304Y-16162D01*
X304Y-16162D01*
X298Y-16157D01*
X292Y-16153D01*
X286Y-16150D01*
X280Y-16148D01*
X274Y-16147D01*
X270Y-16146D01*
X266D01*
X258Y-16147D01*
X251Y-16148D01*
X245Y-16151D01*
X240Y-16154D01*
X236Y-16158D01*
X232Y-16162D01*
X229Y-16166D01*
X227Y-16171D01*
X225Y-16176D01*
X224Y-16181D01*
X223Y-16185D01*
X222Y-16188D01*
Y-16192D01*
X221Y-16195D01*
Y-16196D01*
Y-16197D01*
Y-16318D01*
X162D01*
Y-16183D01*
Y-16174D01*
X163Y-16166D01*
X164Y-16159D01*
X166Y-16152D01*
X168Y-16146D01*
X170Y-16140D01*
X172Y-16135D01*
X174Y-16131D01*
X176Y-16127D01*
X178Y-16124D01*
X180Y-16121D01*
X181Y-16118D01*
X183Y-16116D01*
X184Y-16115D01*
X184Y-16114D01*
X185D01*
X189Y-16110D01*
X194Y-16106D01*
X204Y-16101D01*
X214Y-16097D01*
X223Y-16094D01*
X232Y-16093D01*
X235Y-16092D01*
X239D01*
X241Y-16092D01*
X245D01*
X254Y-16092D01*
D02*
G37*
G36*
X-2696Y-16093D02*
X-2687Y-16094D01*
X-2679Y-16097D01*
X-2673Y-16099D01*
X-2668Y-16101D01*
X-2664Y-16104D01*
X-2661Y-16105D01*
X-2660Y-16106D01*
X-2653Y-16111D01*
X-2648Y-16118D01*
X-2643Y-16125D01*
X-2640Y-16131D01*
X-2636Y-16136D01*
X-2634Y-16141D01*
X-2633Y-16145D01*
X-2633Y-16145D01*
Y-16146D01*
X-2632D01*
Y-16099D01*
X-2575D01*
Y-16318D01*
X-2632D01*
Y-16229D01*
Y-16222D01*
X-2633Y-16215D01*
X-2634Y-16209D01*
X-2635Y-16203D01*
X-2637Y-16193D01*
X-2641Y-16185D01*
X-2644Y-16180D01*
X-2647Y-16175D01*
X-2649Y-16173D01*
X-2649Y-16172D01*
X-2656Y-16166D01*
X-2665Y-16162D01*
X-2673Y-16159D01*
X-2681Y-16157D01*
X-2689Y-16156D01*
X-2693Y-16155D01*
X-2696Y-16155D01*
X-2708D01*
Y-16092D01*
X-2706D01*
X-2696Y-16093D01*
D02*
G37*
G36*
X-53Y-16130D02*
X-52D01*
X-47Y-16124D01*
X-43Y-16118D01*
X-38Y-16113D01*
X-33Y-16109D01*
X-29Y-16106D01*
X-25Y-16104D01*
X-23Y-16102D01*
X-22Y-16102D01*
X-15Y-16098D01*
X-8Y-16096D01*
X-0Y-16094D01*
X6Y-16093D01*
X12Y-16092D01*
X17Y-16092D01*
X22D01*
X32Y-16092D01*
X42Y-16094D01*
X51Y-16096D01*
X59Y-16098D01*
X66Y-16101D01*
X71Y-16103D01*
X72Y-16104D01*
X74Y-16105D01*
X74Y-16105D01*
X75D01*
X83Y-16111D01*
X91Y-16118D01*
X97Y-16124D01*
X103Y-16131D01*
X107Y-16136D01*
X110Y-16141D01*
X112Y-16145D01*
X113Y-16145D01*
Y-16146D01*
X118Y-16156D01*
X121Y-16166D01*
X123Y-16177D01*
X125Y-16187D01*
X126Y-16196D01*
Y-16199D01*
X127Y-16202D01*
Y-16205D01*
Y-16207D01*
Y-16208D01*
Y-16208D01*
X126Y-16222D01*
X125Y-16234D01*
X122Y-16244D01*
X120Y-16254D01*
X118Y-16261D01*
X116Y-16264D01*
X115Y-16267D01*
X114Y-16269D01*
X113Y-16271D01*
X113Y-16271D01*
Y-16272D01*
X107Y-16281D01*
X101Y-16289D01*
X95Y-16295D01*
X88Y-16301D01*
X83Y-16306D01*
X79Y-16309D01*
X76Y-16311D01*
X75Y-16311D01*
X75D01*
X66Y-16316D01*
X56Y-16319D01*
X47Y-16322D01*
X39Y-16323D01*
X32Y-16324D01*
X26Y-16325D01*
X22D01*
X12Y-16324D01*
X4Y-16323D01*
X-4Y-16322D01*
X-10Y-16319D01*
X-15Y-16318D01*
X-19Y-16316D01*
X-21Y-16315D01*
X-22Y-16315D01*
X-29Y-16311D01*
X-34Y-16307D01*
X-40Y-16302D01*
X-44Y-16298D01*
X-47Y-16293D01*
X-50Y-16290D01*
X-51Y-16288D01*
X-52Y-16287D01*
X-53D01*
Y-16318D01*
X-110D01*
Y-15986D01*
X-53D01*
Y-16130D01*
D02*
G37*
G36*
X-461D02*
X-460D01*
X-456Y-16124D01*
X-451Y-16118D01*
X-446Y-16113D01*
X-441Y-16109D01*
X-437Y-16106D01*
X-434Y-16104D01*
X-432Y-16102D01*
X-431Y-16102D01*
X-424Y-16098D01*
X-416Y-16096D01*
X-409Y-16094D01*
X-402Y-16093D01*
X-396Y-16092D01*
X-391Y-16092D01*
X-387D01*
X-376Y-16092D01*
X-366Y-16094D01*
X-358Y-16096D01*
X-350Y-16098D01*
X-343Y-16101D01*
X-338Y-16103D01*
X-336Y-16104D01*
X-335Y-16105D01*
X-334Y-16105D01*
X-334D01*
X-325Y-16111D01*
X-318Y-16118D01*
X-311Y-16124D01*
X-306Y-16131D01*
X-301Y-16136D01*
X-298Y-16141D01*
X-296Y-16145D01*
X-296Y-16145D01*
Y-16146D01*
X-291Y-16156D01*
X-287Y-16166D01*
X-285Y-16177D01*
X-283Y-16187D01*
X-282Y-16196D01*
Y-16199D01*
X-282Y-16202D01*
Y-16205D01*
Y-16207D01*
Y-16208D01*
Y-16208D01*
X-282Y-16222D01*
X-284Y-16234D01*
X-286Y-16244D01*
X-289Y-16254D01*
X-291Y-16261D01*
X-293Y-16264D01*
X-294Y-16267D01*
X-295Y-16269D01*
X-295Y-16271D01*
X-296Y-16271D01*
Y-16272D01*
X-301Y-16281D01*
X-308Y-16289D01*
X-314Y-16295D01*
X-320Y-16301D01*
X-326Y-16306D01*
X-330Y-16309D01*
X-333Y-16311D01*
X-333Y-16311D01*
X-334D01*
X-343Y-16316D01*
X-353Y-16319D01*
X-361Y-16322D01*
X-370Y-16323D01*
X-377Y-16324D01*
X-382Y-16325D01*
X-387D01*
X-396Y-16324D01*
X-405Y-16323D01*
X-412Y-16322D01*
X-418Y-16319D01*
X-424Y-16318D01*
X-428Y-16316D01*
X-430Y-16315D01*
X-431Y-16315D01*
X-437Y-16311D01*
X-443Y-16307D01*
X-448Y-16302D01*
X-453Y-16298D01*
X-456Y-16293D01*
X-458Y-16290D01*
X-460Y-16288D01*
X-460Y-16287D01*
X-461D01*
Y-16318D01*
X-519D01*
Y-15986D01*
X-461D01*
Y-16130D01*
D02*
G37*
G36*
X-2129Y-16092D02*
X-2117Y-16094D01*
X-2106Y-16096D01*
X-2097Y-16099D01*
X-2089Y-16102D01*
X-2086Y-16103D01*
X-2084Y-16104D01*
X-2082Y-16105D01*
X-2080Y-16106D01*
X-2079Y-16107D01*
X-2079D01*
X-2069Y-16113D01*
X-2060Y-16120D01*
X-2053Y-16126D01*
X-2046Y-16133D01*
X-2042Y-16139D01*
X-2038Y-16144D01*
X-2036Y-16147D01*
X-2035Y-16148D01*
Y-16148D01*
X-2030Y-16158D01*
X-2027Y-16169D01*
X-2023Y-16179D01*
X-2022Y-16188D01*
X-2021Y-16196D01*
X-2020Y-16200D01*
Y-16203D01*
X-2020Y-16205D01*
Y-16207D01*
Y-16208D01*
Y-16208D01*
X-2020Y-16221D01*
X-2022Y-16232D01*
X-2025Y-16242D01*
X-2028Y-16252D01*
X-2031Y-16259D01*
X-2032Y-16262D01*
X-2033Y-16264D01*
X-2034Y-16266D01*
X-2035Y-16268D01*
X-2035Y-16268D01*
Y-16269D01*
X-2042Y-16278D01*
X-2048Y-16287D01*
X-2056Y-16293D01*
X-2063Y-16300D01*
X-2069Y-16304D01*
X-2074Y-16308D01*
X-2076Y-16309D01*
X-2078Y-16310D01*
X-2078Y-16310D01*
X-2079D01*
X-2089Y-16315D01*
X-2100Y-16318D01*
X-2111Y-16321D01*
X-2120Y-16323D01*
X-2129Y-16324D01*
X-2133Y-16324D01*
X-2136Y-16325D01*
X-2141D01*
X-2154Y-16324D01*
X-2166Y-16323D01*
X-2176Y-16320D01*
X-2186Y-16317D01*
X-2193Y-16315D01*
X-2196Y-16313D01*
X-2199Y-16312D01*
X-2201Y-16312D01*
X-2202Y-16311D01*
X-2203Y-16310D01*
X-2203D01*
X-2213Y-16304D01*
X-2222Y-16298D01*
X-2229Y-16291D01*
X-2236Y-16284D01*
X-2241Y-16278D01*
X-2244Y-16274D01*
X-2246Y-16270D01*
X-2247Y-16269D01*
Y-16269D01*
X-2252Y-16259D01*
X-2256Y-16248D01*
X-2259Y-16238D01*
X-2261Y-16229D01*
X-2262Y-16221D01*
X-2262Y-16217D01*
X-2263Y-16214D01*
Y-16211D01*
Y-16210D01*
Y-16209D01*
Y-16208D01*
X-2262Y-16196D01*
X-2260Y-16185D01*
X-2258Y-16175D01*
X-2255Y-16165D01*
X-2252Y-16158D01*
X-2249Y-16153D01*
X-2248Y-16151D01*
X-2247Y-16149D01*
X-2247Y-16149D01*
Y-16148D01*
X-2241Y-16139D01*
X-2234Y-16130D01*
X-2226Y-16123D01*
X-2219Y-16118D01*
X-2213Y-16113D01*
X-2208Y-16109D01*
X-2206Y-16108D01*
X-2204Y-16107D01*
X-2204Y-16107D01*
X-2203D01*
X-2193Y-16102D01*
X-2182Y-16098D01*
X-2172Y-16095D01*
X-2162Y-16094D01*
X-2154Y-16093D01*
X-2150Y-16092D01*
X-2147Y-16092D01*
X-2141D01*
X-2129Y-16092D01*
D02*
G37*
G36*
X-2905Y-16130D02*
X-2904D01*
X-2899Y-16124D01*
X-2895Y-16118D01*
X-2889Y-16113D01*
X-2885Y-16109D01*
X-2881Y-16106D01*
X-2877Y-16104D01*
X-2875Y-16102D01*
X-2874Y-16102D01*
X-2867Y-16098D01*
X-2860Y-16096D01*
X-2852Y-16094D01*
X-2846Y-16093D01*
X-2839Y-16092D01*
X-2835Y-16092D01*
X-2830D01*
X-2820Y-16092D01*
X-2810Y-16094D01*
X-2801Y-16096D01*
X-2793Y-16098D01*
X-2786Y-16101D01*
X-2781Y-16103D01*
X-2780Y-16104D01*
X-2778Y-16105D01*
X-2778Y-16105D01*
X-2777D01*
X-2769Y-16111D01*
X-2761Y-16118D01*
X-2755Y-16124D01*
X-2749Y-16131D01*
X-2745Y-16136D01*
X-2742Y-16141D01*
X-2739Y-16145D01*
X-2739Y-16145D01*
Y-16146D01*
X-2734Y-16156D01*
X-2731Y-16166D01*
X-2729Y-16177D01*
X-2727Y-16187D01*
X-2726Y-16196D01*
Y-16199D01*
X-2725Y-16202D01*
Y-16205D01*
Y-16207D01*
Y-16208D01*
Y-16208D01*
X-2726Y-16222D01*
X-2727Y-16234D01*
X-2730Y-16244D01*
X-2732Y-16254D01*
X-2734Y-16261D01*
X-2736Y-16264D01*
X-2737Y-16267D01*
X-2738Y-16269D01*
X-2738Y-16271D01*
X-2739Y-16271D01*
Y-16272D01*
X-2745Y-16281D01*
X-2751Y-16289D01*
X-2757Y-16295D01*
X-2763Y-16301D01*
X-2769Y-16306D01*
X-2773Y-16309D01*
X-2776Y-16311D01*
X-2777Y-16311D01*
X-2777D01*
X-2786Y-16316D01*
X-2796Y-16319D01*
X-2805Y-16322D01*
X-2813Y-16323D01*
X-2820Y-16324D01*
X-2826Y-16325D01*
X-2830D01*
X-2839Y-16324D01*
X-2848Y-16323D01*
X-2856Y-16322D01*
X-2862Y-16319D01*
X-2867Y-16318D01*
X-2871Y-16316D01*
X-2873Y-16315D01*
X-2874Y-16315D01*
X-2881Y-16311D01*
X-2886Y-16307D01*
X-2891Y-16302D01*
X-2896Y-16298D01*
X-2899Y-16293D01*
X-2902Y-16290D01*
X-2903Y-16288D01*
X-2904Y-16287D01*
X-2905D01*
Y-16318D01*
X-2962D01*
Y-15986D01*
X-2905D01*
Y-16130D01*
D02*
G37*
%LPC*%
G36*
X-2262Y-17186D02*
X-2360D01*
X-2368Y-17187D01*
X-2379Y-17188D01*
X-2385Y-17188D01*
X-2391Y-17190D01*
X-2400Y-17192D01*
X-2405Y-17194D01*
X-2412Y-17196D01*
X-2418Y-17200D01*
X-2426Y-17205D01*
X-2432Y-17210D01*
X-2441Y-17220D01*
X-2444Y-17224D01*
X-2448Y-17231D01*
X-2452Y-17242D01*
X-2455Y-17254D01*
X-2456Y-17263D01*
X-2456Y-17275D01*
X-2455Y-17288D01*
X-2452Y-17302D01*
X-2447Y-17313D01*
X-2443Y-17321D01*
X-2434Y-17331D01*
X-2428Y-17336D01*
X-2423Y-17339D01*
X-2417Y-17343D01*
X-2407Y-17347D01*
X-2399Y-17350D01*
X-2391Y-17352D01*
X-2385Y-17353D01*
X-2376Y-17354D01*
X-2368Y-17354D01*
X-2360Y-17354D01*
X-2262D01*
Y-17186D01*
D02*
G37*
G36*
X-2826Y-17186D02*
X-2919Y-17186D01*
X-2924Y-17187D01*
X-2932Y-17187D01*
X-2946Y-17188D01*
X-2958Y-17190D01*
X-2968Y-17192D01*
X-2978Y-17195D01*
X-2989Y-17198D01*
X-2998Y-17202D01*
X-3011Y-17207D01*
X-3022Y-17213D01*
X-3032Y-17220D01*
X-3044Y-17229D01*
X-3055Y-17238D01*
X-3063Y-17248D01*
X-3071Y-17258D01*
X-3076Y-17265D01*
X-3082Y-17275D01*
X-3087Y-17283D01*
X-3091Y-17291D01*
X-3096Y-17303D01*
X-3100Y-17316D01*
X-3102Y-17324D01*
X-3104Y-17332D01*
X-3106Y-17343D01*
X-3108Y-17353D01*
X-3110Y-17370D01*
X-3110Y-17383D01*
X-3110Y-17393D01*
X-3110Y-17407D01*
X-3109Y-17421D01*
X-3107Y-17436D01*
X-3105Y-17447D01*
X-3103Y-17457D01*
X-3100Y-17468D01*
X-3095Y-17481D01*
X-3090Y-17493D01*
X-3086Y-17501D01*
X-3080Y-17513D01*
X-3073Y-17524D01*
X-3065Y-17533D01*
X-3052Y-17547D01*
X-3044Y-17555D01*
X-3035Y-17561D01*
X-3025Y-17568D01*
X-3017Y-17573D01*
X-3007Y-17578D01*
X-3000Y-17581D01*
X-2994Y-17583D01*
X-2989Y-17585D01*
X-2978Y-17589D01*
X-2967Y-17591D01*
X-2953Y-17594D01*
X-2937Y-17596D01*
X-2926Y-17597D01*
X-2916Y-17597D01*
X-2826Y-17597D01*
Y-17186D01*
D02*
G37*
G36*
X-1698Y-17185D02*
X-1706Y-17185D01*
X-1714Y-17185D01*
X-1724Y-17186D01*
X-1734Y-17187D01*
X-1745Y-17189D01*
X-1753Y-17190D01*
X-1761Y-17192D01*
X-1769Y-17195D01*
X-1778Y-17198D01*
X-1788Y-17202D01*
X-1800Y-17208D01*
X-1807Y-17212D01*
X-1824Y-17222D01*
X-1834Y-17231D01*
X-1843Y-17239D01*
X-1852Y-17249D01*
X-1859Y-17257D01*
X-1863Y-17263D01*
X-1867Y-17269D01*
X-1874Y-17279D01*
X-1878Y-17288D01*
X-1884Y-17300D01*
X-1887Y-17307D01*
X-1890Y-17315D01*
X-1893Y-17323D01*
X-1895Y-17332D01*
X-1898Y-17345D01*
X-1899Y-17352D01*
X-1900Y-17361D01*
X-1901Y-17367D01*
X-1901Y-17373D01*
X-1902Y-17380D01*
X-1902Y-17388D01*
X-1902Y-17393D01*
X-1902Y-17402D01*
X-1901Y-17408D01*
X-1901Y-17418D01*
X-1900Y-17424D01*
X-1899Y-17433D01*
X-1897Y-17440D01*
X-1896Y-17446D01*
X-1893Y-17457D01*
X-1891Y-17464D01*
X-1888Y-17474D01*
X-1883Y-17486D01*
X-1879Y-17494D01*
X-1875Y-17503D01*
X-1872Y-17507D01*
X-1865Y-17518D01*
X-1860Y-17524D01*
X-1854Y-17532D01*
X-1847Y-17540D01*
X-1837Y-17550D01*
X-1826Y-17559D01*
X-1813Y-17568D01*
X-1805Y-17573D01*
X-1798Y-17576D01*
X-1787Y-17582D01*
X-1782Y-17584D01*
X-1769Y-17588D01*
X-1757Y-17592D01*
X-1745Y-17594D01*
X-1738Y-17596D01*
X-1718Y-17598D01*
X-1709Y-17598D01*
X-1702Y-17599D01*
X-1686Y-17598D01*
X-1676Y-17597D01*
X-1664Y-17595D01*
X-1653Y-17593D01*
X-1640Y-17590D01*
X-1630Y-17587D01*
X-1620Y-17583D01*
X-1608Y-17577D01*
X-1593Y-17568D01*
X-1581Y-17561D01*
X-1570Y-17552D01*
X-1560Y-17543D01*
X-1549Y-17531D01*
X-1543Y-17523D01*
X-1539Y-17517D01*
X-1532Y-17506D01*
X-1526Y-17496D01*
X-1524Y-17492D01*
X-1520Y-17483D01*
X-1515Y-17471D01*
X-1511Y-17457D01*
X-1508Y-17446D01*
X-1506Y-17436D01*
X-1505Y-17429D01*
X-1504Y-17423D01*
X-1503Y-17414D01*
X-1503Y-17407D01*
X-1502Y-17401D01*
X-1502Y-17392D01*
X-1503Y-17376D01*
X-1503Y-17366D01*
X-1505Y-17357D01*
X-1506Y-17350D01*
X-1507Y-17340D01*
X-1510Y-17330D01*
X-1513Y-17319D01*
X-1517Y-17307D01*
X-1520Y-17299D01*
X-1524Y-17291D01*
X-1529Y-17282D01*
X-1536Y-17271D01*
X-1544Y-17258D01*
X-1551Y-17250D01*
X-1563Y-17238D01*
X-1572Y-17230D01*
X-1579Y-17224D01*
X-1590Y-17216D01*
X-1599Y-17211D01*
X-1606Y-17207D01*
X-1613Y-17204D01*
X-1619Y-17201D01*
X-1629Y-17197D01*
X-1638Y-17194D01*
X-1647Y-17191D01*
X-1655Y-17190D01*
X-1663Y-17188D01*
X-1670Y-17187D01*
X-1678Y-17186D01*
X-1688Y-17185D01*
X-1698Y-17185D01*
D02*
G37*
G36*
X-4003Y-17903D02*
X-4043Y-17903D01*
X-4049Y-17903D01*
X-4056Y-17905D01*
X-4060Y-17907D01*
X-4066Y-17911D01*
X-4071Y-17918D01*
X-4073Y-17922D01*
X-4075Y-17930D01*
X-4075Y-17934D01*
X-4074Y-17941D01*
X-4073Y-17946D01*
X-4070Y-17952D01*
X-4067Y-17956D01*
X-4062Y-17960D01*
X-4058Y-17962D01*
X-4054Y-17963D01*
X-4047Y-17964D01*
X-4041Y-17965D01*
X-4003Y-17965D01*
Y-17903D01*
D02*
G37*
G36*
X-2617Y-17903D02*
X-2651D01*
X-2658Y-17903D01*
X-2666Y-17904D01*
X-2674Y-17906D01*
X-2680Y-17908D01*
X-2686Y-17910D01*
X-2693Y-17915D01*
X-2698Y-17918D01*
X-2704Y-17925D01*
X-2708Y-17929D01*
X-2712Y-17935D01*
X-2714Y-17939D01*
X-2716Y-17943D01*
X-2717Y-17946D01*
X-2718Y-17950D01*
X-2720Y-17955D01*
X-2721Y-17960D01*
X-2722Y-17967D01*
X-2722Y-17974D01*
X-2722Y-17981D01*
X-2722Y-17988D01*
X-2721Y-17995D01*
X-2720Y-18000D01*
X-2718Y-18008D01*
X-2716Y-18013D01*
X-2713Y-18020D01*
X-2710Y-18025D01*
X-2706Y-18031D01*
X-2697Y-18039D01*
X-2694Y-18041D01*
X-2689Y-18045D01*
X-2685Y-18047D01*
X-2676Y-18050D01*
X-2668Y-18053D01*
X-2661Y-18054D01*
X-2650Y-18054D01*
X-2617Y-18054D01*
Y-17903D01*
D02*
G37*
G36*
X-3754Y-17902D02*
X-3759Y-17902D01*
X-3764Y-17902D01*
X-3773Y-17904D01*
X-3779Y-17905D01*
X-3784Y-17907D01*
X-3790Y-17909D01*
X-3795Y-17912D01*
X-3800Y-17915D01*
X-3805Y-17920D01*
X-3813Y-17928D01*
X-3817Y-17933D01*
X-3822Y-17942D01*
X-3824Y-17946D01*
X-3825Y-17951D01*
X-3827Y-17957D01*
X-3828Y-17964D01*
X-3829Y-17970D01*
X-3830Y-17976D01*
X-3829Y-17982D01*
X-3829Y-17989D01*
X-3828Y-17997D01*
X-3825Y-18008D01*
X-3823Y-18012D01*
X-3821Y-18016D01*
X-3818Y-18021D01*
X-3816Y-18025D01*
X-3812Y-18030D01*
X-3806Y-18037D01*
X-3801Y-18040D01*
X-3794Y-18045D01*
X-3785Y-18049D01*
X-3780Y-18051D01*
X-3776Y-18053D01*
X-3769Y-18054D01*
X-3761Y-18055D01*
X-3754Y-18055D01*
X-3748Y-18055D01*
X-3742Y-18054D01*
X-3736Y-18053D01*
X-3731Y-18051D01*
X-3725Y-18049D01*
X-3721Y-18047D01*
X-3715Y-18044D01*
X-3707Y-18037D01*
X-3703Y-18034D01*
X-3695Y-18025D01*
X-3692Y-18021D01*
X-3689Y-18014D01*
X-3687Y-18009D01*
X-3686Y-18005D01*
X-3684Y-17997D01*
X-3682Y-17989D01*
X-3682Y-17980D01*
X-3682Y-17974D01*
X-3683Y-17963D01*
X-3684Y-17955D01*
X-3687Y-17947D01*
X-3691Y-17939D01*
X-3695Y-17932D01*
X-3700Y-17926D01*
X-3707Y-17919D01*
X-3714Y-17914D01*
X-3720Y-17910D01*
X-3727Y-17907D01*
X-3732Y-17905D01*
X-3741Y-17903D01*
X-3749Y-17902D01*
X-3754Y-17902D01*
D02*
G37*
G36*
X-2070Y-17903D02*
X-2074Y-17903D01*
X-2079Y-17903D01*
X-2088Y-17904D01*
X-2094Y-17906D01*
X-2099Y-17908D01*
X-2105Y-17910D01*
X-2110Y-17913D01*
X-2115Y-17916D01*
X-2121Y-17920D01*
X-2129Y-17929D01*
X-2132Y-17934D01*
X-2137Y-17942D01*
X-2139Y-17947D01*
X-2141Y-17952D01*
X-2143Y-17958D01*
X-2144Y-17964D01*
X-2145Y-17971D01*
X-2145Y-17977D01*
X-2145Y-17983D01*
X-2144Y-17990D01*
X-2143Y-17998D01*
X-2140Y-18008D01*
X-2139Y-18013D01*
X-2137Y-18017D01*
X-2134Y-18022D01*
X-2131Y-18026D01*
X-2127Y-18031D01*
X-2121Y-18038D01*
X-2117Y-18041D01*
X-2109Y-18046D01*
X-2101Y-18050D01*
X-2096Y-18052D01*
X-2091Y-18053D01*
X-2084Y-18055D01*
X-2077Y-18056D01*
X-2069Y-18056D01*
X-2064Y-18056D01*
X-2057Y-18055D01*
X-2051Y-18053D01*
X-2046Y-18052D01*
X-2041Y-18050D01*
X-2036Y-18048D01*
X-2031Y-18045D01*
X-2022Y-18038D01*
X-2018Y-18035D01*
X-2010Y-18025D01*
X-2008Y-18021D01*
X-2004Y-18015D01*
X-2002Y-18010D01*
X-2001Y-18006D01*
X-1999Y-17998D01*
X-1998Y-17990D01*
X-1997Y-17980D01*
X-1997Y-17975D01*
X-1998Y-17964D01*
X-2000Y-17956D01*
X-2003Y-17948D01*
X-2006Y-17940D01*
X-2011Y-17932D01*
X-2015Y-17927D01*
X-2022Y-17920D01*
X-2029Y-17914D01*
X-2036Y-17911D01*
X-2042Y-17908D01*
X-2047Y-17906D01*
X-2056Y-17904D01*
X-2065Y-17903D01*
X-2070Y-17903D01*
D02*
G37*
G36*
X-2093Y-18610D02*
X-2098Y-18610D01*
X-2101Y-18610D01*
X-2104Y-18611D01*
X-2108Y-18612D01*
X-2113Y-18613D01*
X-2116Y-18615D01*
X-2119Y-18616D01*
X-2123Y-18618D01*
X-2126Y-18620D01*
X-2129Y-18622D01*
X-2132Y-18625D01*
X-2135Y-18628D01*
X-2138Y-18630D01*
X-2141Y-18634D01*
X-2143Y-18636D01*
X-2145Y-18639D01*
X-2147Y-18643D01*
X-2149Y-18646D01*
X-2151Y-18651D01*
X-2153Y-18655D01*
X-2155Y-18661D01*
X-2156Y-18666D01*
X-2157Y-18670D01*
X-2158Y-18675D01*
X-2158Y-18677D01*
X-2159Y-18679D01*
X-2159Y-18682D01*
X-2018Y-18682D01*
X-2018Y-18677D01*
X-2019Y-18672D01*
X-2021Y-18665D01*
X-2022Y-18661D01*
X-2024Y-18656D01*
X-2027Y-18651D01*
X-2029Y-18646D01*
X-2031Y-18643D01*
X-2033Y-18640D01*
X-2036Y-18636D01*
X-2039Y-18632D01*
X-2041Y-18629D01*
X-2044Y-18626D01*
X-2048Y-18623D01*
X-2052Y-18621D01*
X-2056Y-18618D01*
X-2060Y-18616D01*
X-2063Y-18614D01*
X-2068Y-18613D01*
X-2070Y-18612D01*
X-2076Y-18611D01*
X-2080Y-18610D01*
X-2085Y-18610D01*
X-2093Y-18610D01*
D02*
G37*
G36*
X-447Y-18613D02*
X-454Y-18613D01*
X-460Y-18614D01*
X-464Y-18615D01*
X-470Y-18616D01*
X-477Y-18618D01*
X-484Y-18621D01*
X-488Y-18623D01*
X-496Y-18628D01*
X-501Y-18632D01*
X-505Y-18635D01*
X-508Y-18638D01*
X-513Y-18644D01*
X-518Y-18650D01*
X-521Y-18656D01*
X-525Y-18663D01*
X-527Y-18670D01*
X-530Y-18677D01*
X-531Y-18684D01*
X-532Y-18691D01*
X-533Y-18698D01*
X-533Y-18705D01*
X-532Y-18710D01*
X-532Y-18715D01*
X-531Y-18720D01*
X-530Y-18724D01*
X-529Y-18729D01*
X-528Y-18733D01*
X-526Y-18737D01*
X-525Y-18742D01*
X-523Y-18746D01*
X-520Y-18750D01*
X-518Y-18754D01*
X-514Y-18759D01*
X-510Y-18764D01*
X-506Y-18769D01*
X-502Y-18772D01*
X-496Y-18776D01*
X-491Y-18779D01*
X-485Y-18782D01*
X-479Y-18785D01*
X-475Y-18786D01*
X-470Y-18787D01*
X-464Y-18789D01*
X-458Y-18789D01*
X-452Y-18790D01*
X-446Y-18790D01*
X-440Y-18789D01*
X-435Y-18788D01*
X-428Y-18787D01*
X-422Y-18785D01*
X-416Y-18783D01*
X-410Y-18780D01*
X-405Y-18777D01*
X-399Y-18773D01*
X-396Y-18770D01*
X-392Y-18767D01*
X-388Y-18762D01*
X-383Y-18756D01*
X-379Y-18750D01*
X-375Y-18743D01*
X-372Y-18737D01*
X-371Y-18733D01*
X-368Y-18724D01*
X-367Y-18716D01*
X-366Y-18710D01*
X-366Y-18702D01*
X-366Y-18696D01*
X-366Y-18691D01*
X-367Y-18684D01*
X-369Y-18676D01*
X-371Y-18667D01*
X-374Y-18659D01*
X-376Y-18655D01*
X-380Y-18650D01*
X-383Y-18645D01*
X-386Y-18641D01*
X-390Y-18636D01*
X-396Y-18631D01*
X-402Y-18627D01*
X-409Y-18623D01*
X-413Y-18620D01*
X-419Y-18618D01*
X-424Y-18617D01*
X-429Y-18615D01*
X-436Y-18614D01*
X-442Y-18613D01*
X-447Y-18613D01*
D02*
G37*
G36*
X-3516D02*
X-3523Y-18613D01*
X-3529Y-18614D01*
X-3533Y-18615D01*
X-3539Y-18616D01*
X-3546Y-18618D01*
X-3553Y-18621D01*
X-3557Y-18623D01*
X-3565Y-18628D01*
X-3570Y-18632D01*
X-3574Y-18635D01*
X-3577Y-18638D01*
X-3582Y-18644D01*
X-3587Y-18650D01*
X-3590Y-18656D01*
X-3594Y-18663D01*
X-3596Y-18670D01*
X-3599Y-18677D01*
X-3600Y-18684D01*
X-3601Y-18691D01*
X-3602Y-18698D01*
X-3602Y-18705D01*
X-3601Y-18710D01*
X-3601Y-18715D01*
X-3600Y-18720D01*
X-3599Y-18724D01*
X-3598Y-18729D01*
X-3597Y-18733D01*
X-3595Y-18737D01*
X-3594Y-18742D01*
X-3592Y-18746D01*
X-3589Y-18750D01*
X-3587Y-18754D01*
X-3583Y-18759D01*
X-3579Y-18764D01*
X-3575Y-18769D01*
X-3571Y-18772D01*
X-3565Y-18776D01*
X-3560Y-18779D01*
X-3554Y-18782D01*
X-3548Y-18785D01*
X-3544Y-18786D01*
X-3539Y-18787D01*
X-3533Y-18789D01*
X-3527Y-18789D01*
X-3521Y-18790D01*
X-3515Y-18790D01*
X-3509Y-18789D01*
X-3504Y-18788D01*
X-3497Y-18787D01*
X-3491Y-18785D01*
X-3485Y-18783D01*
X-3479Y-18780D01*
X-3474Y-18777D01*
X-3468Y-18773D01*
X-3465Y-18770D01*
X-3461Y-18767D01*
X-3457Y-18762D01*
X-3452Y-18756D01*
X-3448Y-18750D01*
X-3444Y-18743D01*
X-3441Y-18737D01*
X-3440Y-18733D01*
X-3437Y-18724D01*
X-3436Y-18716D01*
X-3435Y-18710D01*
X-3435Y-18702D01*
X-3435Y-18696D01*
X-3435Y-18691D01*
X-3436Y-18684D01*
X-3438Y-18676D01*
X-3440Y-18667D01*
X-3443Y-18659D01*
X-3445Y-18655D01*
X-3449Y-18650D01*
X-3452Y-18645D01*
X-3455Y-18641D01*
X-3459Y-18636D01*
X-3465Y-18631D01*
X-3471Y-18627D01*
X-3478Y-18623D01*
X-3482Y-18620D01*
X-3488Y-18618D01*
X-3493Y-18617D01*
X-3498Y-18615D01*
X-3505Y-18614D01*
X-3511Y-18613D01*
X-3516Y-18613D01*
D02*
G37*
G36*
X-2826Y-6285D02*
Y-6455D01*
X-2731D01*
X-2826Y-6285D01*
D02*
G37*
G36*
X-3123Y-6218D02*
X-3124D01*
X-3132Y-6220D01*
X-3140Y-6223D01*
X-3146Y-6228D01*
X-3151Y-6234D01*
X-3155Y-6240D01*
X-3158Y-6244D01*
X-3160Y-6248D01*
X-3160Y-6249D01*
X-3163Y-6256D01*
X-3165Y-6264D01*
X-3167Y-6274D01*
X-3169Y-6285D01*
X-3170Y-6296D01*
X-3171Y-6309D01*
X-3173Y-6333D01*
Y-6345D01*
X-3174Y-6356D01*
Y-6366D01*
X-3174Y-6375D01*
Y-6383D01*
Y-6388D01*
Y-6392D01*
Y-6394D01*
Y-6414D01*
X-3174Y-6433D01*
X-3173Y-6449D01*
X-3172Y-6464D01*
X-3172Y-6477D01*
X-3170Y-6489D01*
X-3169Y-6500D01*
X-3168Y-6508D01*
X-3166Y-6516D01*
X-3165Y-6522D01*
X-3163Y-6528D01*
X-3163Y-6531D01*
X-3162Y-6534D01*
X-3161Y-6536D01*
X-3160Y-6537D01*
Y-6538D01*
X-3155Y-6548D01*
X-3149Y-6556D01*
X-3143Y-6561D01*
X-3137Y-6565D01*
X-3132Y-6567D01*
X-3128Y-6568D01*
X-3125Y-6568D01*
X-3124D01*
X-3116Y-6567D01*
X-3109Y-6564D01*
X-3102Y-6559D01*
X-3097Y-6553D01*
X-3092Y-6548D01*
X-3089Y-6542D01*
X-3088Y-6539D01*
X-3087Y-6538D01*
X-3085Y-6531D01*
X-3083Y-6523D01*
X-3081Y-6514D01*
X-3080Y-6502D01*
X-3078Y-6491D01*
X-3077Y-6479D01*
X-3075Y-6454D01*
Y-6443D01*
X-3075Y-6431D01*
Y-6421D01*
X-3074Y-6412D01*
Y-6404D01*
Y-6399D01*
Y-6395D01*
Y-6394D01*
Y-6373D01*
X-3075Y-6354D01*
X-3075Y-6338D01*
X-3076Y-6323D01*
X-3077Y-6310D01*
X-3078Y-6298D01*
X-3079Y-6288D01*
X-3080Y-6279D01*
X-3082Y-6272D01*
X-3083Y-6265D01*
X-3084Y-6260D01*
X-3085Y-6256D01*
X-3086Y-6253D01*
X-3086Y-6251D01*
X-3087Y-6249D01*
X-3092Y-6239D01*
X-3098Y-6232D01*
X-3105Y-6226D01*
X-3111Y-6222D01*
X-3116Y-6220D01*
X-3120Y-6219D01*
X-3123Y-6218D01*
D02*
G37*
G36*
X-3442D02*
X-3443D01*
X-3451Y-6220D01*
X-3459Y-6223D01*
X-3465Y-6228D01*
X-3470Y-6234D01*
X-3474Y-6240D01*
X-3477Y-6244D01*
X-3479Y-6248D01*
X-3479Y-6249D01*
X-3482Y-6256D01*
X-3484Y-6264D01*
X-3486Y-6274D01*
X-3487Y-6285D01*
X-3489Y-6296D01*
X-3490Y-6309D01*
X-3492Y-6333D01*
Y-6345D01*
X-3493Y-6356D01*
Y-6366D01*
X-3493Y-6375D01*
Y-6383D01*
Y-6388D01*
Y-6392D01*
Y-6394D01*
Y-6414D01*
X-3493Y-6433D01*
X-3492Y-6449D01*
X-3491Y-6464D01*
X-3490Y-6477D01*
X-3489Y-6489D01*
X-3487Y-6500D01*
X-3487Y-6508D01*
X-3485Y-6516D01*
X-3484Y-6522D01*
X-3482Y-6528D01*
X-3482Y-6531D01*
X-3481Y-6534D01*
X-3480Y-6536D01*
X-3479Y-6537D01*
Y-6538D01*
X-3474Y-6548D01*
X-3468Y-6556D01*
X-3462Y-6561D01*
X-3456Y-6565D01*
X-3451Y-6567D01*
X-3447Y-6568D01*
X-3444Y-6568D01*
X-3443D01*
X-3435Y-6567D01*
X-3428Y-6564D01*
X-3421Y-6559D01*
X-3416Y-6553D01*
X-3411Y-6548D01*
X-3408Y-6542D01*
X-3407Y-6539D01*
X-3406Y-6538D01*
X-3404Y-6531D01*
X-3402Y-6523D01*
X-3400Y-6514D01*
X-3399Y-6502D01*
X-3397Y-6491D01*
X-3396Y-6479D01*
X-3394Y-6454D01*
Y-6443D01*
X-3394Y-6431D01*
Y-6421D01*
X-3393Y-6412D01*
Y-6404D01*
Y-6399D01*
Y-6395D01*
Y-6394D01*
Y-6373D01*
X-3394Y-6354D01*
X-3394Y-6338D01*
X-3395Y-6323D01*
X-3396Y-6310D01*
X-3397Y-6298D01*
X-3398Y-6288D01*
X-3399Y-6279D01*
X-3401Y-6272D01*
X-3402Y-6265D01*
X-3403Y-6260D01*
X-3404Y-6256D01*
X-3405Y-6253D01*
X-3405Y-6251D01*
X-3406Y-6249D01*
X-3411Y-6239D01*
X-3417Y-6232D01*
X-3424Y-6226D01*
X-3430Y-6222D01*
X-3435Y-6220D01*
X-3439Y-6219D01*
X-3442Y-6218D01*
D02*
G37*
G36*
X412Y-4361D02*
X343Y-4548D01*
X481D01*
X412Y-4361D01*
D02*
G37*
G36*
X44Y-4340D02*
X-43D01*
X-54Y-4341D01*
X-63Y-4342D01*
X-72Y-4344D01*
X-78Y-4347D01*
X-83Y-4350D01*
X-88Y-4352D01*
X-90Y-4354D01*
X-91Y-4354D01*
X-97Y-4360D01*
X-101Y-4367D01*
X-105Y-4374D01*
X-107Y-4381D01*
X-108Y-4387D01*
X-109Y-4392D01*
Y-4395D01*
Y-4396D01*
X-108Y-4405D01*
X-106Y-4414D01*
X-103Y-4422D01*
X-100Y-4428D01*
X-97Y-4432D01*
X-94Y-4436D01*
X-91Y-4438D01*
X-91Y-4439D01*
X-83Y-4444D01*
X-75Y-4448D01*
X-67Y-4450D01*
X-59Y-4451D01*
X-52Y-4453D01*
X-45Y-4454D01*
X44D01*
Y-4340D01*
D02*
G37*
G36*
Y-4528D02*
X-51D01*
X-65Y-4529D01*
X-77Y-4531D01*
X-87Y-4533D01*
X-95Y-4536D01*
X-102Y-4540D01*
X-107Y-4542D01*
X-110Y-4544D01*
X-110Y-4545D01*
X-117Y-4551D01*
X-122Y-4559D01*
X-126Y-4567D01*
X-129Y-4575D01*
X-130Y-4581D01*
X-131Y-4586D01*
Y-4590D01*
Y-4591D01*
X-130Y-4602D01*
X-128Y-4611D01*
X-124Y-4619D01*
X-121Y-4626D01*
X-117Y-4631D01*
X-113Y-4635D01*
X-111Y-4637D01*
X-110Y-4638D01*
X-102Y-4644D01*
X-93Y-4647D01*
X-84Y-4650D01*
X-75Y-4653D01*
X-67Y-4654D01*
X-61Y-4655D01*
X44D01*
Y-4528D01*
D02*
G37*
G36*
X-348Y-15108D02*
X-353D01*
X-362Y-15108D01*
X-371Y-15110D01*
X-378Y-15113D01*
X-384Y-15116D01*
X-389Y-15119D01*
X-392Y-15123D01*
X-395Y-15125D01*
X-396Y-15125D01*
X-401Y-15132D01*
X-405Y-15139D01*
X-408Y-15147D01*
X-410Y-15154D01*
X-411Y-15160D01*
X-412Y-15165D01*
Y-15167D01*
Y-15168D01*
Y-15169D01*
Y-15169D01*
X-412Y-15179D01*
X-410Y-15188D01*
X-407Y-15196D01*
X-404Y-15202D01*
X-401Y-15207D01*
X-398Y-15211D01*
X-396Y-15213D01*
X-396Y-15214D01*
X-389Y-15220D01*
X-382Y-15224D01*
X-375Y-15227D01*
X-368Y-15229D01*
X-362Y-15230D01*
X-357Y-15231D01*
X-355Y-15231D01*
X-353D01*
X-343Y-15231D01*
X-335Y-15229D01*
X-328Y-15226D01*
X-322Y-15223D01*
X-316Y-15219D01*
X-313Y-15217D01*
X-311Y-15215D01*
X-310Y-15214D01*
X-304Y-15207D01*
X-301Y-15200D01*
X-298Y-15192D01*
X-296Y-15185D01*
X-295Y-15179D01*
X-294Y-15174D01*
X-294Y-15172D01*
Y-15170D01*
Y-15170D01*
Y-15169D01*
X-294Y-15160D01*
X-296Y-15151D01*
X-299Y-15143D01*
X-302Y-15137D01*
X-305Y-15132D01*
X-307Y-15128D01*
X-309Y-15126D01*
X-310Y-15125D01*
X-316Y-15119D01*
X-324Y-15115D01*
X-331Y-15112D01*
X-337Y-15110D01*
X-344Y-15109D01*
X-348Y-15108D01*
D02*
G37*
G36*
X-1684Y-15634D02*
X-1689D01*
X-1699Y-15635D01*
X-1707Y-15637D01*
X-1714Y-15640D01*
X-1721Y-15643D01*
X-1725Y-15646D01*
X-1729Y-15649D01*
X-1731Y-15651D01*
X-1732Y-15652D01*
X-1737Y-15658D01*
X-1741Y-15665D01*
X-1744Y-15673D01*
X-1747Y-15680D01*
X-1748Y-15686D01*
X-1749Y-15691D01*
Y-15693D01*
Y-15695D01*
Y-15696D01*
Y-15696D01*
X-1748Y-15706D01*
X-1746Y-15714D01*
X-1743Y-15723D01*
X-1740Y-15729D01*
X-1737Y-15734D01*
X-1734Y-15738D01*
X-1732Y-15740D01*
X-1732Y-15741D01*
X-1725Y-15747D01*
X-1718Y-15751D01*
X-1711Y-15754D01*
X-1704Y-15756D01*
X-1698Y-15757D01*
X-1693Y-15757D01*
X-1691Y-15758D01*
X-1689D01*
X-1679Y-15757D01*
X-1671Y-15755D01*
X-1664Y-15753D01*
X-1658Y-15749D01*
X-1653Y-15746D01*
X-1649Y-15743D01*
X-1647Y-15741D01*
X-1646Y-15741D01*
X-1640Y-15734D01*
X-1637Y-15727D01*
X-1634Y-15719D01*
X-1632Y-15712D01*
X-1631Y-15706D01*
X-1630Y-15701D01*
X-1630Y-15699D01*
Y-15697D01*
Y-15697D01*
Y-15696D01*
X-1630Y-15686D01*
X-1632Y-15678D01*
X-1635Y-15670D01*
X-1638Y-15663D01*
X-1641Y-15658D01*
X-1644Y-15655D01*
X-1646Y-15652D01*
X-1646Y-15652D01*
X-1653Y-15646D01*
X-1660Y-15641D01*
X-1667Y-15638D01*
X-1674Y-15636D01*
X-1680Y-15635D01*
X-1684Y-15634D01*
D02*
G37*
G36*
X-246Y-15627D02*
X-250D01*
X-257Y-15627D01*
X-264Y-15629D01*
X-270Y-15630D01*
X-275Y-15632D01*
X-279Y-15635D01*
X-282Y-15636D01*
X-284Y-15638D01*
X-284Y-15638D01*
X-289Y-15643D01*
X-293Y-15648D01*
X-295Y-15654D01*
X-297Y-15659D01*
X-299Y-15663D01*
X-299Y-15667D01*
X-300Y-15670D01*
Y-15671D01*
X-196D01*
X-198Y-15663D01*
X-200Y-15656D01*
X-203Y-15650D01*
X-206Y-15646D01*
X-209Y-15642D01*
X-211Y-15639D01*
X-213Y-15638D01*
X-213Y-15637D01*
X-219Y-15634D01*
X-225Y-15631D01*
X-231Y-15629D01*
X-237Y-15628D01*
X-242Y-15627D01*
X-246Y-15627D01*
D02*
G37*
G36*
X-1432D02*
X-1436D01*
X-1444Y-15627D01*
X-1450Y-15629D01*
X-1456Y-15630D01*
X-1461Y-15632D01*
X-1466Y-15635D01*
X-1468Y-15636D01*
X-1470Y-15638D01*
X-1471Y-15638D01*
X-1475Y-15643D01*
X-1479Y-15648D01*
X-1481Y-15654D01*
X-1483Y-15659D01*
X-1485Y-15663D01*
X-1485Y-15667D01*
X-1486Y-15670D01*
Y-15671D01*
X-1382D01*
X-1384Y-15663D01*
X-1386Y-15656D01*
X-1390Y-15650D01*
X-1393Y-15646D01*
X-1395Y-15642D01*
X-1398Y-15639D01*
X-1399Y-15638D01*
X-1400Y-15637D01*
X-1405Y-15634D01*
X-1411Y-15631D01*
X-1418Y-15629D01*
X-1423Y-15628D01*
X-1428Y-15627D01*
X-1432Y-15627D01*
D02*
G37*
G36*
X-2570Y-15627D02*
X-2574D01*
X-2581Y-15627D01*
X-2588Y-15629D01*
X-2594Y-15630D01*
X-2599Y-15632D01*
X-2603Y-15635D01*
X-2606Y-15636D01*
X-2608Y-15638D01*
X-2608Y-15638D01*
X-2613Y-15643D01*
X-2617Y-15648D01*
X-2619Y-15654D01*
X-2621Y-15659D01*
X-2623Y-15663D01*
X-2623Y-15667D01*
X-2624Y-15670D01*
Y-15671D01*
X-2520D01*
X-2522Y-15663D01*
X-2524Y-15656D01*
X-2527Y-15650D01*
X-2530Y-15646D01*
X-2533Y-15642D01*
X-2535Y-15639D01*
X-2537Y-15638D01*
X-2538Y-15637D01*
X-2543Y-15634D01*
X-2549Y-15631D01*
X-2555Y-15629D01*
X-2561Y-15628D01*
X-2566Y-15627D01*
X-2570Y-15627D01*
D02*
G37*
G36*
X-3205D02*
X-3208D01*
X-3216Y-15627D01*
X-3222Y-15629D01*
X-3229Y-15630D01*
X-3234Y-15632D01*
X-3238Y-15635D01*
X-3240Y-15636D01*
X-3242Y-15638D01*
X-3243Y-15638D01*
X-3247Y-15643D01*
X-3251Y-15648D01*
X-3254Y-15654D01*
X-3256Y-15659D01*
X-3257Y-15663D01*
X-3258Y-15667D01*
X-3258Y-15670D01*
Y-15671D01*
X-3155D01*
X-3157Y-15663D01*
X-3159Y-15656D01*
X-3162Y-15650D01*
X-3165Y-15646D01*
X-3167Y-15642D01*
X-3170Y-15639D01*
X-3171Y-15638D01*
X-3172Y-15637D01*
X-3178Y-15634D01*
X-3184Y-15631D01*
X-3190Y-15629D01*
X-3195Y-15628D01*
X-3201Y-15627D01*
X-3205Y-15627D01*
D02*
G37*
G36*
X547Y-16147D02*
X543D01*
X533Y-16147D01*
X525Y-16149D01*
X518Y-16152D01*
X511Y-16155D01*
X507Y-16158D01*
X503Y-16161D01*
X501Y-16163D01*
X500Y-16164D01*
X494Y-16171D01*
X490Y-16178D01*
X487Y-16185D01*
X485Y-16192D01*
X484Y-16199D01*
X483Y-16204D01*
Y-16206D01*
Y-16207D01*
Y-16208D01*
Y-16208D01*
X484Y-16218D01*
X486Y-16227D01*
X488Y-16235D01*
X491Y-16241D01*
X495Y-16246D01*
X497Y-16250D01*
X500Y-16252D01*
X500Y-16253D01*
X507Y-16259D01*
X514Y-16263D01*
X521Y-16266D01*
X528Y-16268D01*
X534Y-16269D01*
X538Y-16269D01*
X540Y-16270D01*
X543D01*
X553Y-16269D01*
X561Y-16267D01*
X568Y-16265D01*
X574Y-16261D01*
X579Y-16258D01*
X583Y-16256D01*
X585Y-16254D01*
X586Y-16253D01*
X591Y-16246D01*
X595Y-16239D01*
X598Y-16231D01*
X600Y-16224D01*
X601Y-16218D01*
X602Y-16213D01*
X602Y-16211D01*
Y-16209D01*
Y-16209D01*
Y-16208D01*
X602Y-16199D01*
X599Y-16190D01*
X597Y-16182D01*
X594Y-16176D01*
X591Y-16171D01*
X588Y-16167D01*
X586Y-16164D01*
X586Y-16164D01*
X579Y-16158D01*
X572Y-16154D01*
X565Y-16151D01*
X558Y-16149D01*
X552Y-16148D01*
X547Y-16147D01*
D02*
G37*
G36*
X-931D02*
X-935D01*
X-945Y-16147D01*
X-953Y-16149D01*
X-960Y-16152D01*
X-967Y-16155D01*
X-971Y-16158D01*
X-975Y-16161D01*
X-977Y-16163D01*
X-978Y-16164D01*
X-984Y-16171D01*
X-988Y-16178D01*
X-990Y-16185D01*
X-992Y-16192D01*
X-993Y-16199D01*
X-994Y-16204D01*
Y-16206D01*
Y-16207D01*
Y-16208D01*
Y-16208D01*
X-994Y-16218D01*
X-992Y-16227D01*
X-989Y-16235D01*
X-986Y-16241D01*
X-983Y-16246D01*
X-980Y-16250D01*
X-978Y-16252D01*
X-978Y-16253D01*
X-971Y-16259D01*
X-964Y-16263D01*
X-957Y-16266D01*
X-950Y-16268D01*
X-944Y-16269D01*
X-940Y-16269D01*
X-938Y-16270D01*
X-935D01*
X-925Y-16269D01*
X-917Y-16267D01*
X-910Y-16265D01*
X-903Y-16261D01*
X-898Y-16258D01*
X-895Y-16256D01*
X-893Y-16254D01*
X-892Y-16253D01*
X-886Y-16246D01*
X-883Y-16239D01*
X-880Y-16231D01*
X-877Y-16224D01*
X-876Y-16218D01*
X-876Y-16213D01*
X-875Y-16211D01*
Y-16209D01*
Y-16209D01*
Y-16208D01*
X-876Y-16199D01*
X-878Y-16190D01*
X-881Y-16182D01*
X-884Y-16176D01*
X-887Y-16171D01*
X-889Y-16167D01*
X-891Y-16164D01*
X-892Y-16164D01*
X-898Y-16158D01*
X-906Y-16154D01*
X-913Y-16151D01*
X-920Y-16149D01*
X-926Y-16148D01*
X-931Y-16147D01*
D02*
G37*
G36*
X-1452D02*
X-1457D01*
X-1467Y-16147D01*
X-1475Y-16149D01*
X-1482Y-16152D01*
X-1488Y-16155D01*
X-1493Y-16158D01*
X-1497Y-16161D01*
X-1499Y-16163D01*
X-1500Y-16164D01*
X-1505Y-16171D01*
X-1509Y-16178D01*
X-1512Y-16185D01*
X-1514Y-16192D01*
X-1515Y-16199D01*
X-1517Y-16204D01*
Y-16206D01*
Y-16207D01*
Y-16208D01*
Y-16208D01*
X-1516Y-16218D01*
X-1514Y-16227D01*
X-1511Y-16235D01*
X-1508Y-16241D01*
X-1505Y-16246D01*
X-1502Y-16250D01*
X-1500Y-16252D01*
X-1500Y-16253D01*
X-1493Y-16259D01*
X-1486Y-16263D01*
X-1479Y-16266D01*
X-1472Y-16268D01*
X-1466Y-16269D01*
X-1461Y-16269D01*
X-1459Y-16270D01*
X-1457D01*
X-1447Y-16269D01*
X-1439Y-16267D01*
X-1432Y-16265D01*
X-1426Y-16261D01*
X-1421Y-16258D01*
X-1417Y-16256D01*
X-1415Y-16254D01*
X-1414Y-16253D01*
X-1408Y-16246D01*
X-1405Y-16239D01*
X-1402Y-16231D01*
X-1400Y-16224D01*
X-1399Y-16218D01*
X-1398Y-16213D01*
X-1398Y-16211D01*
Y-16209D01*
Y-16209D01*
Y-16208D01*
X-1398Y-16199D01*
X-1400Y-16190D01*
X-1403Y-16182D01*
X-1406Y-16176D01*
X-1409Y-16171D01*
X-1411Y-16167D01*
X-1413Y-16164D01*
X-1414Y-16164D01*
X-1421Y-16158D01*
X-1428Y-16154D01*
X-1435Y-16151D01*
X-1442Y-16149D01*
X-1448Y-16148D01*
X-1452Y-16147D01*
D02*
G37*
G36*
X-1870D02*
X-1875D01*
X-1885Y-16147D01*
X-1893Y-16149D01*
X-1900Y-16152D01*
X-1907Y-16155D01*
X-1911Y-16158D01*
X-1915Y-16161D01*
X-1917Y-16163D01*
X-1918Y-16164D01*
X-1923Y-16171D01*
X-1928Y-16178D01*
X-1930Y-16185D01*
X-1932Y-16192D01*
X-1933Y-16199D01*
X-1934Y-16204D01*
Y-16206D01*
Y-16207D01*
Y-16208D01*
Y-16208D01*
X-1934Y-16218D01*
X-1932Y-16227D01*
X-1929Y-16235D01*
X-1926Y-16241D01*
X-1923Y-16246D01*
X-1920Y-16250D01*
X-1918Y-16252D01*
X-1918Y-16253D01*
X-1911Y-16259D01*
X-1904Y-16263D01*
X-1897Y-16266D01*
X-1890Y-16268D01*
X-1884Y-16269D01*
X-1880Y-16269D01*
X-1878Y-16270D01*
X-1875D01*
X-1865Y-16269D01*
X-1857Y-16267D01*
X-1850Y-16265D01*
X-1843Y-16261D01*
X-1838Y-16258D01*
X-1835Y-16256D01*
X-1833Y-16254D01*
X-1832Y-16253D01*
X-1826Y-16246D01*
X-1823Y-16239D01*
X-1819Y-16231D01*
X-1817Y-16224D01*
X-1816Y-16218D01*
X-1816Y-16213D01*
X-1815Y-16211D01*
Y-16209D01*
Y-16209D01*
Y-16208D01*
X-1816Y-16199D01*
X-1818Y-16190D01*
X-1820Y-16182D01*
X-1824Y-16176D01*
X-1827Y-16171D01*
X-1829Y-16167D01*
X-1831Y-16164D01*
X-1832Y-16164D01*
X-1838Y-16158D01*
X-1845Y-16154D01*
X-1853Y-16151D01*
X-1860Y-16149D01*
X-1866Y-16148D01*
X-1870Y-16147D01*
D02*
G37*
G36*
X-2402Y-16147D02*
X-2407D01*
X-2417Y-16147D01*
X-2425Y-16149D01*
X-2432Y-16152D01*
X-2439Y-16155D01*
X-2443Y-16158D01*
X-2447Y-16161D01*
X-2449Y-16163D01*
X-2450Y-16164D01*
X-2455Y-16171D01*
X-2459Y-16178D01*
X-2463Y-16185D01*
X-2465Y-16192D01*
X-2466Y-16199D01*
X-2467Y-16204D01*
Y-16206D01*
Y-16207D01*
Y-16208D01*
Y-16208D01*
X-2466Y-16218D01*
X-2464Y-16227D01*
X-2462Y-16235D01*
X-2458Y-16241D01*
X-2455Y-16246D01*
X-2452Y-16250D01*
X-2450Y-16252D01*
X-2450Y-16253D01*
X-2443Y-16259D01*
X-2436Y-16263D01*
X-2429Y-16266D01*
X-2422Y-16268D01*
X-2416Y-16269D01*
X-2412Y-16269D01*
X-2410Y-16270D01*
X-2407D01*
X-2397Y-16269D01*
X-2389Y-16267D01*
X-2382Y-16265D01*
X-2376Y-16261D01*
X-2371Y-16258D01*
X-2367Y-16256D01*
X-2365Y-16254D01*
X-2364Y-16253D01*
X-2359Y-16246D01*
X-2355Y-16239D01*
X-2352Y-16231D01*
X-2350Y-16224D01*
X-2349Y-16218D01*
X-2348Y-16213D01*
X-2348Y-16211D01*
Y-16209D01*
Y-16209D01*
Y-16208D01*
X-2348Y-16199D01*
X-2350Y-16190D01*
X-2353Y-16182D01*
X-2356Y-16176D01*
X-2359Y-16171D01*
X-2362Y-16167D01*
X-2364Y-16164D01*
X-2364Y-16164D01*
X-2371Y-16158D01*
X-2378Y-16154D01*
X-2385Y-16151D01*
X-2392Y-16149D01*
X-2398Y-16148D01*
X-2402Y-16147D01*
D02*
G37*
G36*
X-666Y-16139D02*
X-670D01*
X-678Y-16139D01*
X-684Y-16141D01*
X-690Y-16142D01*
X-695Y-16145D01*
X-699Y-16147D01*
X-702Y-16149D01*
X-704Y-16150D01*
X-705Y-16151D01*
X-709Y-16155D01*
X-713Y-16160D01*
X-715Y-16166D01*
X-717Y-16171D01*
X-719Y-16176D01*
X-719Y-16179D01*
X-720Y-16182D01*
Y-16183D01*
X-616D01*
X-618Y-16175D01*
X-620Y-16168D01*
X-624Y-16162D01*
X-627Y-16158D01*
X-629Y-16154D01*
X-632Y-16152D01*
X-633Y-16150D01*
X-634Y-16150D01*
X-639Y-16146D01*
X-645Y-16144D01*
X-652Y-16141D01*
X-657Y-16140D01*
X-662Y-16139D01*
X-666Y-16139D01*
D02*
G37*
G36*
X11Y-16147D02*
X7D01*
X-3Y-16147D01*
X-11Y-16149D01*
X-18Y-16152D01*
X-25Y-16155D01*
X-29Y-16158D01*
X-33Y-16161D01*
X-35Y-16163D01*
X-36Y-16164D01*
X-42Y-16171D01*
X-46Y-16178D01*
X-49Y-16185D01*
X-51Y-16192D01*
X-52Y-16199D01*
X-53Y-16204D01*
Y-16206D01*
Y-16207D01*
Y-16208D01*
Y-16208D01*
X-52Y-16218D01*
X-50Y-16227D01*
X-48Y-16235D01*
X-45Y-16241D01*
X-41Y-16246D01*
X-39Y-16250D01*
X-36Y-16252D01*
X-36Y-16253D01*
X-29Y-16259D01*
X-22Y-16263D01*
X-15Y-16266D01*
X-8Y-16268D01*
X-2Y-16269D01*
X2Y-16269D01*
X4Y-16270D01*
X7D01*
X17Y-16269D01*
X25Y-16267D01*
X32Y-16265D01*
X38Y-16261D01*
X43Y-16258D01*
X47Y-16256D01*
X49Y-16254D01*
X50Y-16253D01*
X55Y-16246D01*
X59Y-16239D01*
X62Y-16231D01*
X64Y-16224D01*
X65Y-16218D01*
X66Y-16213D01*
X66Y-16211D01*
Y-16209D01*
Y-16209D01*
Y-16208D01*
X66Y-16199D01*
X63Y-16190D01*
X61Y-16182D01*
X58Y-16176D01*
X55Y-16171D01*
X52Y-16167D01*
X50Y-16164D01*
X50Y-16164D01*
X43Y-16158D01*
X36Y-16154D01*
X29Y-16151D01*
X22Y-16149D01*
X16Y-16148D01*
X11Y-16147D01*
D02*
G37*
G36*
X-397D02*
X-402D01*
X-411Y-16147D01*
X-419Y-16149D01*
X-427Y-16152D01*
X-433Y-16155D01*
X-438Y-16158D01*
X-441Y-16161D01*
X-444Y-16163D01*
X-444Y-16164D01*
X-450Y-16171D01*
X-454Y-16178D01*
X-457Y-16185D01*
X-459Y-16192D01*
X-460Y-16199D01*
X-461Y-16204D01*
Y-16206D01*
Y-16207D01*
Y-16208D01*
Y-16208D01*
X-461Y-16218D01*
X-459Y-16227D01*
X-456Y-16235D01*
X-453Y-16241D01*
X-450Y-16246D01*
X-447Y-16250D01*
X-445Y-16252D01*
X-444Y-16253D01*
X-438Y-16259D01*
X-431Y-16263D01*
X-424Y-16266D01*
X-417Y-16268D01*
X-411Y-16269D01*
X-406Y-16269D01*
X-404Y-16270D01*
X-402D01*
X-392Y-16269D01*
X-384Y-16267D01*
X-377Y-16265D01*
X-371Y-16261D01*
X-365Y-16258D01*
X-362Y-16256D01*
X-360Y-16254D01*
X-359Y-16253D01*
X-353Y-16246D01*
X-350Y-16239D01*
X-347Y-16231D01*
X-345Y-16224D01*
X-344Y-16218D01*
X-343Y-16213D01*
X-342Y-16211D01*
Y-16209D01*
Y-16209D01*
Y-16208D01*
X-343Y-16199D01*
X-345Y-16190D01*
X-348Y-16182D01*
X-351Y-16176D01*
X-354Y-16171D01*
X-356Y-16167D01*
X-358Y-16164D01*
X-359Y-16164D01*
X-365Y-16158D01*
X-373Y-16154D01*
X-380Y-16151D01*
X-386Y-16149D01*
X-392Y-16148D01*
X-397Y-16147D01*
D02*
G37*
G36*
X-2137D02*
X-2141D01*
X-2151Y-16147D01*
X-2160Y-16149D01*
X-2167Y-16152D01*
X-2173Y-16155D01*
X-2178Y-16158D01*
X-2182Y-16161D01*
X-2185Y-16163D01*
X-2185Y-16164D01*
X-2191Y-16171D01*
X-2195Y-16178D01*
X-2198Y-16185D01*
X-2200Y-16192D01*
X-2201Y-16199D01*
X-2202Y-16204D01*
Y-16206D01*
Y-16207D01*
Y-16208D01*
Y-16208D01*
X-2202Y-16218D01*
X-2200Y-16227D01*
X-2197Y-16235D01*
X-2194Y-16241D01*
X-2191Y-16247D01*
X-2188Y-16250D01*
X-2186Y-16252D01*
X-2185Y-16253D01*
X-2178Y-16259D01*
X-2171Y-16263D01*
X-2164Y-16266D01*
X-2157Y-16268D01*
X-2151Y-16269D01*
X-2146Y-16269D01*
X-2144Y-16270D01*
X-2141D01*
X-2132Y-16269D01*
X-2123Y-16267D01*
X-2115Y-16265D01*
X-2109Y-16261D01*
X-2104Y-16258D01*
X-2100Y-16256D01*
X-2098Y-16254D01*
X-2097Y-16253D01*
X-2091Y-16247D01*
X-2087Y-16239D01*
X-2084Y-16232D01*
X-2082Y-16225D01*
X-2081Y-16218D01*
X-2080Y-16213D01*
X-2080Y-16211D01*
Y-16209D01*
Y-16209D01*
Y-16208D01*
X-2080Y-16199D01*
X-2082Y-16190D01*
X-2085Y-16182D01*
X-2088Y-16176D01*
X-2091Y-16171D01*
X-2094Y-16167D01*
X-2096Y-16164D01*
X-2097Y-16164D01*
X-2104Y-16158D01*
X-2111Y-16154D01*
X-2119Y-16151D01*
X-2125Y-16149D01*
X-2132Y-16148D01*
X-2137Y-16147D01*
D02*
G37*
G36*
X-2840Y-16147D02*
X-2845D01*
X-2855Y-16147D01*
X-2863Y-16149D01*
X-2870Y-16152D01*
X-2877Y-16155D01*
X-2881Y-16158D01*
X-2885Y-16161D01*
X-2887Y-16163D01*
X-2888Y-16164D01*
X-2894Y-16171D01*
X-2898Y-16178D01*
X-2901Y-16185D01*
X-2903Y-16192D01*
X-2904Y-16199D01*
X-2905Y-16204D01*
Y-16206D01*
Y-16207D01*
Y-16208D01*
Y-16208D01*
X-2904Y-16218D01*
X-2902Y-16227D01*
X-2900Y-16235D01*
X-2897Y-16241D01*
X-2893Y-16246D01*
X-2890Y-16250D01*
X-2888Y-16252D01*
X-2888Y-16253D01*
X-2881Y-16259D01*
X-2874Y-16263D01*
X-2867Y-16266D01*
X-2860Y-16268D01*
X-2854Y-16269D01*
X-2850Y-16269D01*
X-2848Y-16270D01*
X-2845D01*
X-2835Y-16269D01*
X-2827Y-16267D01*
X-2820Y-16265D01*
X-2814Y-16261D01*
X-2809Y-16258D01*
X-2805Y-16256D01*
X-2803Y-16254D01*
X-2802Y-16253D01*
X-2797Y-16246D01*
X-2793Y-16239D01*
X-2790Y-16231D01*
X-2788Y-16224D01*
X-2787Y-16218D01*
X-2786Y-16213D01*
X-2786Y-16211D01*
Y-16209D01*
Y-16209D01*
Y-16208D01*
X-2786Y-16199D01*
X-2788Y-16190D01*
X-2791Y-16182D01*
X-2794Y-16176D01*
X-2797Y-16171D01*
X-2800Y-16167D01*
X-2802Y-16164D01*
X-2802Y-16164D01*
X-2809Y-16158D01*
X-2816Y-16154D01*
X-2823Y-16151D01*
X-2830Y-16149D01*
X-2836Y-16148D01*
X-2840Y-16147D01*
D02*
G37*
%LPD*%
D11*
X-1240Y-1801D02*
X-1306D01*
X-1273D01*
Y-1604D01*
X-1240Y-1637D01*
X-1404Y-1801D02*
X-1470D01*
X-1437D01*
Y-1604D01*
X-1404Y-1637D01*
X1503Y-1801D02*
X1634D01*
X1503Y-1670D01*
Y-1637D01*
X1535Y-1604D01*
X1601D01*
X1634Y-1637D01*
X1437D02*
X1404Y-1604D01*
X1339D01*
X1306Y-1637D01*
Y-1768D01*
X1339Y-1801D01*
X1404D01*
X1437Y-1768D01*
Y-1637D01*
D35*
X-1124Y-2874D02*
G03*
X-1582Y-3331I0J-457D01*
G01*
X1619Y-3331D02*
G03*
X1161Y-2874I-457J0D01*
G01*
X1161Y-6074D02*
G03*
X1619Y-5617I0J457D01*
G01*
X-1582Y-5617D02*
G03*
X-1124Y-6074I457J0D01*
G01*
X-1582Y-5617D02*
Y-3331D01*
X-1124Y-2874D02*
X1161D01*
X1619Y-5617D02*
Y-3331D01*
X-1124Y-6074D02*
X1161D01*
D36*
X-2935Y-6886D02*
X-2899Y-6898D01*
X-2875Y-6933D01*
X-2863Y-6993D01*
Y-7029D01*
X-2875Y-7088D01*
X-2899Y-7124D01*
X-2935Y-7136D01*
X-2958D01*
X-2994Y-7124D01*
X-3018Y-7088D01*
X-3030Y-7029D01*
Y-6993D01*
X-3018Y-6933D01*
X-2994Y-6898D01*
X-2958Y-6886D01*
X-2935D01*
X-3157D02*
X-3121Y-6898D01*
X-3098Y-6933D01*
X-3086Y-6993D01*
Y-7029D01*
X-3098Y-7088D01*
X-3121Y-7124D01*
X-3157Y-7136D01*
X-3181D01*
X-3217Y-7124D01*
X-3240Y-7088D01*
X-3252Y-7029D01*
Y-6993D01*
X-3240Y-6933D01*
X-3217Y-6898D01*
X-3181Y-6886D01*
X-3157D01*
X-3427D02*
X-3308Y-7053D01*
X-3487D01*
X-3427Y-6886D02*
Y-7136D01*
X-3543Y-6945D02*
Y-6933D01*
X-3555Y-6910D01*
X-3567Y-6898D01*
X-3590Y-6886D01*
X-3638D01*
X-3662Y-6898D01*
X-3674Y-6910D01*
X-3686Y-6933D01*
Y-6957D01*
X-3674Y-6981D01*
X-3650Y-7017D01*
X-3531Y-7136D01*
X-3697D01*
X-3753Y-6886D02*
Y-7136D01*
Y-6886D02*
X-3849Y-7136D01*
X-3944Y-6886D02*
X-3849Y-7136D01*
X-3944Y-6886D02*
Y-7136D01*
X-4206D02*
X-4110Y-6886D01*
X-4015Y-7136D01*
X-4051Y-7053D02*
X-4170D01*
X-4431Y-6922D02*
X-4407Y-6898D01*
X-4371Y-6886D01*
X-4324D01*
X-4288Y-6898D01*
X-4264Y-6922D01*
Y-6945D01*
X-4276Y-6969D01*
X-4288Y-6981D01*
X-4312Y-6993D01*
X-4383Y-7017D01*
X-4407Y-7029D01*
X-4419Y-7041D01*
X-4431Y-7064D01*
Y-7100D01*
X-4407Y-7124D01*
X-4371Y-7136D01*
X-4324D01*
X-4288Y-7124D01*
X-4264Y-7100D01*
X-4487Y-6886D02*
Y-7136D01*
M02*
