G04*
G04 #@! TF.GenerationSoftware,Altium Limited,Altium Designer,21.3.2 (30)*
G04*
G04 Layer_Color=65535*
%FSLAX24Y24*%
%MOIN*%
G70*
G04*
G04 #@! TF.SameCoordinates,11860592-E2A6-4BD8-AD77-BCEE7ED4812A*
G04*
G04*
G04 #@! TF.FilePolarity,Positive*
G04*
G01*
G75*
%ADD10C,0.0100*%
%ADD11C,0.0059*%
%ADD12C,0.0118*%
%ADD13C,0.0049*%
%ADD14C,0.0060*%
%ADD15R,0.0463X0.0325*%
G36*
X353Y-3406D02*
X-380D01*
X-14Y-2673D01*
X353Y-3406D01*
D02*
G37*
G36*
X318Y-4080D02*
X325D01*
X333Y-4081D01*
X341Y-4083D01*
X351Y-4084D01*
X361Y-4086D01*
X373Y-4089D01*
X398Y-4096D01*
X425Y-4105D01*
X440Y-4111D01*
X455Y-4118D01*
X421Y-4187D01*
X420D01*
X419Y-4185D01*
X415Y-4184D01*
X411Y-4182D01*
X405Y-4180D01*
X399Y-4177D01*
X383Y-4171D01*
X365Y-4165D01*
X346Y-4161D01*
X326Y-4157D01*
X305Y-4156D01*
X299D01*
X292Y-4157D01*
X284Y-4157D01*
X275Y-4159D01*
X265Y-4162D01*
X257Y-4165D01*
X249Y-4170D01*
X248Y-4171D01*
X247Y-4173D01*
X243Y-4176D01*
X241Y-4181D01*
X237Y-4187D01*
X234Y-4194D01*
X232Y-4201D01*
X231Y-4211D01*
Y-4212D01*
Y-4214D01*
X232Y-4219D01*
X233Y-4224D01*
X235Y-4231D01*
X237Y-4237D01*
X241Y-4243D01*
X245Y-4250D01*
X246Y-4251D01*
X247Y-4253D01*
X251Y-4257D01*
X255Y-4262D01*
X261Y-4267D01*
X268Y-4274D01*
X277Y-4280D01*
X287Y-4288D01*
X381Y-4362D01*
X382D01*
X382Y-4363D01*
X388Y-4367D01*
X396Y-4373D01*
X406Y-4381D01*
X417Y-4391D01*
X428Y-4402D01*
X439Y-4414D01*
X449Y-4428D01*
X450Y-4429D01*
X452Y-4434D01*
X456Y-4441D01*
X461Y-4452D01*
X465Y-4464D01*
X469Y-4478D01*
X472Y-4495D01*
X473Y-4513D01*
Y-4514D01*
Y-4516D01*
Y-4520D01*
X472Y-4525D01*
X471Y-4532D01*
X470Y-4538D01*
X467Y-4555D01*
X461Y-4574D01*
X457Y-4583D01*
X452Y-4593D01*
X446Y-4602D01*
X440Y-4611D01*
X432Y-4619D01*
X424Y-4627D01*
X423D01*
X421Y-4629D01*
X419Y-4630D01*
X415Y-4633D01*
X410Y-4636D01*
X404Y-4640D01*
X397Y-4643D01*
X389Y-4647D01*
X380Y-4650D01*
X370Y-4654D01*
X360Y-4657D01*
X348Y-4661D01*
X323Y-4665D01*
X308Y-4666D01*
X294Y-4667D01*
X285D01*
X276Y-4666D01*
X264Y-4665D01*
X250Y-4663D01*
X234Y-4661D01*
X216Y-4658D01*
X199Y-4654D01*
X198D01*
X198Y-4653D01*
X195Y-4652D01*
X192Y-4651D01*
X182Y-4648D01*
X171Y-4643D01*
X158Y-4637D01*
X143Y-4630D01*
X128Y-4622D01*
X112Y-4612D01*
X146Y-4545D01*
X147Y-4546D01*
X149Y-4547D01*
X154Y-4550D01*
X160Y-4552D01*
X167Y-4556D01*
X174Y-4560D01*
X184Y-4564D01*
X194Y-4568D01*
X216Y-4576D01*
X241Y-4584D01*
X268Y-4589D01*
X281Y-4590D01*
X294Y-4591D01*
X302D01*
X311Y-4590D01*
X321Y-4588D01*
X333Y-4586D01*
X345Y-4582D01*
X357Y-4577D01*
X367Y-4570D01*
X368Y-4569D01*
X371Y-4566D01*
X375Y-4562D01*
X380Y-4556D01*
X384Y-4548D01*
X388Y-4538D01*
X391Y-4528D01*
X392Y-4516D01*
Y-4515D01*
Y-4512D01*
X391Y-4507D01*
X390Y-4501D01*
X388Y-4494D01*
X385Y-4486D01*
X382Y-4477D01*
X376Y-4470D01*
X376Y-4469D01*
X373Y-4465D01*
X370Y-4461D01*
X364Y-4455D01*
X356Y-4447D01*
X346Y-4438D01*
X334Y-4428D01*
X321Y-4416D01*
X247Y-4354D01*
X247D01*
X245Y-4353D01*
X242Y-4351D01*
X239Y-4349D01*
X229Y-4342D01*
X217Y-4335D01*
X205Y-4325D01*
X192Y-4314D01*
X181Y-4303D01*
X172Y-4291D01*
X171Y-4289D01*
X168Y-4285D01*
X165Y-4278D01*
X161Y-4268D01*
X157Y-4257D01*
X154Y-4244D01*
X151Y-4230D01*
X150Y-4213D01*
Y-4212D01*
Y-4211D01*
Y-4207D01*
X151Y-4203D01*
Y-4198D01*
X153Y-4192D01*
X155Y-4178D01*
X161Y-4162D01*
X167Y-4145D01*
X178Y-4130D01*
X185Y-4122D01*
X192Y-4115D01*
X192Y-4114D01*
X193Y-4114D01*
X196Y-4112D01*
X199Y-4109D01*
X204Y-4107D01*
X209Y-4104D01*
X215Y-4101D01*
X222Y-4097D01*
X238Y-4090D01*
X257Y-4085D01*
X280Y-4081D01*
X306Y-4079D01*
X313D01*
X318Y-4080D01*
D02*
G37*
G36*
X-320D02*
X-313D01*
X-306Y-4081D01*
X-297Y-4083D01*
X-287Y-4084D01*
X-277Y-4086D01*
X-265Y-4089D01*
X-240Y-4096D01*
X-213Y-4105D01*
X-198Y-4111D01*
X-183Y-4118D01*
X-217Y-4187D01*
X-218D01*
X-220Y-4185D01*
X-223Y-4184D01*
X-227Y-4182D01*
X-233Y-4180D01*
X-239Y-4177D01*
X-255Y-4171D01*
X-273Y-4165D01*
X-292Y-4161D01*
X-312Y-4157D01*
X-333Y-4156D01*
X-339D01*
X-346Y-4157D01*
X-354Y-4157D01*
X-363Y-4159D01*
X-373Y-4162D01*
X-381Y-4165D01*
X-389Y-4170D01*
X-390Y-4171D01*
X-392Y-4173D01*
X-395Y-4176D01*
X-398Y-4181D01*
X-401Y-4187D01*
X-404Y-4194D01*
X-406Y-4201D01*
X-407Y-4211D01*
Y-4212D01*
Y-4214D01*
X-406Y-4219D01*
X-405Y-4224D01*
X-404Y-4231D01*
X-401Y-4237D01*
X-398Y-4243D01*
X-393Y-4250D01*
X-392Y-4251D01*
X-391Y-4253D01*
X-387Y-4257D01*
X-383Y-4262D01*
X-377Y-4267D01*
X-370Y-4274D01*
X-361Y-4280D01*
X-351Y-4288D01*
X-257Y-4362D01*
X-257D01*
X-256Y-4363D01*
X-250Y-4367D01*
X-242Y-4373D01*
X-232Y-4381D01*
X-221Y-4391D01*
X-210Y-4402D01*
X-199Y-4414D01*
X-189Y-4428D01*
X-189Y-4429D01*
X-186Y-4434D01*
X-182Y-4441D01*
X-177Y-4452D01*
X-173Y-4464D01*
X-169Y-4478D01*
X-166Y-4495D01*
X-165Y-4513D01*
Y-4514D01*
Y-4516D01*
Y-4520D01*
X-166Y-4525D01*
X-167Y-4532D01*
X-168Y-4538D01*
X-171Y-4555D01*
X-177Y-4574D01*
X-181Y-4583D01*
X-186Y-4593D01*
X-192Y-4602D01*
X-198Y-4611D01*
X-206Y-4619D01*
X-214Y-4627D01*
X-215D01*
X-217Y-4629D01*
X-220Y-4630D01*
X-223Y-4633D01*
X-228Y-4636D01*
X-234Y-4640D01*
X-241Y-4643D01*
X-249Y-4647D01*
X-258Y-4650D01*
X-268Y-4654D01*
X-278Y-4657D01*
X-290Y-4661D01*
X-315Y-4665D01*
X-330Y-4666D01*
X-344Y-4667D01*
X-353D01*
X-362Y-4666D01*
X-374Y-4665D01*
X-388Y-4663D01*
X-404Y-4661D01*
X-422Y-4658D01*
X-439Y-4654D01*
X-440D01*
X-441Y-4653D01*
X-443Y-4652D01*
X-447Y-4651D01*
X-456Y-4648D01*
X-467Y-4643D01*
X-480Y-4637D01*
X-495Y-4630D01*
X-510Y-4622D01*
X-526Y-4612D01*
X-492Y-4545D01*
X-491Y-4546D01*
X-489Y-4547D01*
X-484Y-4550D01*
X-478Y-4552D01*
X-472Y-4556D01*
X-464Y-4560D01*
X-454Y-4564D01*
X-444Y-4568D01*
X-422Y-4576D01*
X-397Y-4584D01*
X-370Y-4589D01*
X-357Y-4590D01*
X-344Y-4591D01*
X-337D01*
X-327Y-4590D01*
X-317Y-4588D01*
X-305Y-4586D01*
X-293Y-4582D01*
X-281Y-4577D01*
X-271Y-4570D01*
X-270Y-4569D01*
X-267Y-4566D01*
X-263Y-4562D01*
X-258Y-4556D01*
X-254Y-4548D01*
X-250Y-4538D01*
X-247Y-4528D01*
X-246Y-4516D01*
Y-4515D01*
Y-4512D01*
X-247Y-4507D01*
X-248Y-4501D01*
X-250Y-4494D01*
X-253Y-4486D01*
X-257Y-4477D01*
X-262Y-4470D01*
X-263Y-4469D01*
X-265Y-4465D01*
X-269Y-4461D01*
X-275Y-4455D01*
X-282Y-4447D01*
X-292Y-4438D01*
X-304Y-4428D01*
X-318Y-4416D01*
X-391Y-4354D01*
X-392D01*
X-393Y-4353D01*
X-396Y-4351D01*
X-399Y-4349D01*
X-409Y-4342D01*
X-421Y-4335D01*
X-433Y-4325D01*
X-446Y-4314D01*
X-457Y-4303D01*
X-466Y-4291D01*
X-467Y-4289D01*
X-470Y-4285D01*
X-473Y-4278D01*
X-477Y-4268D01*
X-481Y-4257D01*
X-484Y-4244D01*
X-487Y-4230D01*
X-488Y-4213D01*
Y-4212D01*
Y-4211D01*
Y-4207D01*
X-487Y-4203D01*
Y-4198D01*
X-485Y-4192D01*
X-483Y-4178D01*
X-478Y-4162D01*
X-471Y-4145D01*
X-460Y-4130D01*
X-453Y-4122D01*
X-447Y-4115D01*
X-446Y-4114D01*
X-445Y-4114D01*
X-442Y-4112D01*
X-439Y-4109D01*
X-435Y-4107D01*
X-429Y-4104D01*
X-423Y-4101D01*
X-416Y-4097D01*
X-400Y-4090D01*
X-381Y-4085D01*
X-358Y-4081D01*
X-332Y-4079D01*
X-325D01*
X-320Y-4080D01*
D02*
G37*
G36*
X-777Y-4655D02*
X-853D01*
Y-4393D01*
X-1152D01*
Y-4655D01*
X-1228D01*
Y-4090D01*
X-1152D01*
Y-4319D01*
X-853D01*
Y-4090D01*
X-777D01*
Y-4655D01*
D02*
G37*
G36*
X1609Y-4163D02*
X1361D01*
Y-4306D01*
X1589D01*
Y-4378D01*
X1361D01*
Y-4583D01*
X1613D01*
Y-4655D01*
X1285D01*
Y-4090D01*
X1609D01*
Y-4163D01*
D02*
G37*
G36*
X930Y-4091D02*
X938D01*
X946Y-4092D01*
X955Y-4093D01*
X966Y-4095D01*
X989Y-4099D01*
X1014Y-4105D01*
X1039Y-4114D01*
X1064Y-4126D01*
X1064D01*
X1066Y-4127D01*
X1070Y-4129D01*
X1075Y-4132D01*
X1080Y-4136D01*
X1086Y-4140D01*
X1101Y-4151D01*
X1117Y-4164D01*
X1134Y-4182D01*
X1150Y-4201D01*
X1165Y-4224D01*
X1166Y-4225D01*
X1167Y-4226D01*
X1169Y-4230D01*
X1171Y-4235D01*
X1174Y-4241D01*
X1176Y-4249D01*
X1180Y-4256D01*
X1183Y-4266D01*
X1187Y-4277D01*
X1190Y-4288D01*
X1193Y-4300D01*
X1195Y-4314D01*
X1199Y-4342D01*
X1201Y-4373D01*
Y-4374D01*
Y-4377D01*
Y-4382D01*
X1200Y-4388D01*
Y-4395D01*
X1199Y-4404D01*
X1199Y-4414D01*
X1197Y-4424D01*
X1193Y-4447D01*
X1186Y-4473D01*
X1177Y-4498D01*
X1165Y-4523D01*
Y-4524D01*
X1163Y-4526D01*
X1162Y-4529D01*
X1158Y-4533D01*
X1155Y-4538D01*
X1150Y-4544D01*
X1139Y-4559D01*
X1125Y-4575D01*
X1107Y-4591D01*
X1087Y-4607D01*
X1064Y-4621D01*
X1063D01*
X1061Y-4623D01*
X1057Y-4624D01*
X1052Y-4626D01*
X1046Y-4629D01*
X1039Y-4632D01*
X1030Y-4635D01*
X1021Y-4638D01*
X1010Y-4642D01*
X999Y-4644D01*
X974Y-4650D01*
X947Y-4654D01*
X917Y-4655D01*
X737D01*
Y-4090D01*
X924D01*
X930Y-4091D01*
D02*
G37*
G36*
X632Y-4655D02*
X554D01*
Y-4090D01*
X632D01*
Y-4655D01*
D02*
G37*
G36*
X-588D02*
X-665D01*
Y-4090D01*
X-588D01*
Y-4655D01*
D02*
G37*
G36*
X-1286Y-4163D02*
X-1450D01*
Y-4655D01*
X-1528D01*
Y-4163D01*
X-1691D01*
Y-4090D01*
X-1286D01*
Y-4163D01*
D02*
G37*
G36*
X-33Y-5327D02*
Y-5328D01*
Y-5330D01*
Y-5334D01*
Y-5338D01*
X-33Y-5344D01*
X-34Y-5351D01*
X-36Y-5367D01*
X-39Y-5386D01*
X-44Y-5405D01*
X-51Y-5426D01*
X-60Y-5446D01*
Y-5447D01*
X-61Y-5448D01*
X-63Y-5451D01*
X-65Y-5454D01*
X-71Y-5464D01*
X-80Y-5475D01*
X-91Y-5488D01*
X-104Y-5501D01*
X-119Y-5514D01*
X-137Y-5525D01*
X-138D01*
X-140Y-5526D01*
X-143Y-5528D01*
X-146Y-5529D01*
X-151Y-5531D01*
X-157Y-5534D01*
X-164Y-5536D01*
X-172Y-5539D01*
X-189Y-5544D01*
X-210Y-5548D01*
X-233Y-5552D01*
X-258Y-5553D01*
X-265D01*
X-270Y-5552D01*
X-276D01*
X-283Y-5551D01*
X-299Y-5549D01*
X-318Y-5546D01*
X-338Y-5540D01*
X-358Y-5534D01*
X-378Y-5525D01*
X-379D01*
X-381Y-5523D01*
X-383Y-5522D01*
X-387Y-5520D01*
X-395Y-5514D01*
X-407Y-5504D01*
X-419Y-5493D01*
X-432Y-5480D01*
X-444Y-5464D01*
X-456Y-5446D01*
Y-5445D01*
X-456Y-5443D01*
X-458Y-5441D01*
X-460Y-5436D01*
X-462Y-5432D01*
X-464Y-5426D01*
X-467Y-5419D01*
X-469Y-5411D01*
X-474Y-5394D01*
X-478Y-5374D01*
X-481Y-5351D01*
X-482Y-5327D01*
Y-4976D01*
X-402D01*
Y-5323D01*
Y-5324D01*
Y-5326D01*
Y-5330D01*
X-401Y-5335D01*
Y-5341D01*
X-401Y-5348D01*
X-397Y-5363D01*
X-393Y-5381D01*
X-386Y-5400D01*
X-376Y-5418D01*
X-370Y-5427D01*
X-363Y-5435D01*
X-362D01*
X-361Y-5436D01*
X-358Y-5438D01*
X-356Y-5441D01*
X-346Y-5448D01*
X-334Y-5454D01*
X-320Y-5462D01*
X-302Y-5469D01*
X-281Y-5473D01*
X-270Y-5474D01*
X-258Y-5475D01*
X-252D01*
X-247Y-5474D01*
X-241D01*
X-235Y-5473D01*
X-220Y-5470D01*
X-204Y-5465D01*
X-186Y-5458D01*
X-168Y-5448D01*
X-161Y-5442D01*
X-153Y-5435D01*
X-152Y-5434D01*
X-151Y-5433D01*
X-149Y-5430D01*
X-147Y-5427D01*
X-143Y-5424D01*
X-140Y-5418D01*
X-137Y-5412D01*
X-132Y-5405D01*
X-125Y-5390D01*
X-119Y-5370D01*
X-114Y-5348D01*
X-112Y-5336D01*
Y-5323D01*
Y-4976D01*
X-33D01*
Y-5327D01*
D02*
G37*
G36*
X287Y-4977D02*
X299Y-4979D01*
X314Y-4981D01*
X330Y-4986D01*
X345Y-4991D01*
X361Y-4999D01*
X361D01*
X362Y-5000D01*
X367Y-5003D01*
X374Y-5008D01*
X383Y-5015D01*
X392Y-5024D01*
X403Y-5034D01*
X412Y-5046D01*
X421Y-5060D01*
X422Y-5061D01*
X424Y-5067D01*
X428Y-5074D01*
X431Y-5085D01*
X434Y-5098D01*
X438Y-5113D01*
X441Y-5129D01*
X441Y-5147D01*
Y-5147D01*
Y-5148D01*
Y-5151D01*
Y-5154D01*
X441Y-5164D01*
X439Y-5176D01*
X436Y-5189D01*
X432Y-5203D01*
X427Y-5219D01*
X420Y-5233D01*
X419Y-5235D01*
X416Y-5239D01*
X411Y-5246D01*
X404Y-5255D01*
X396Y-5264D01*
X385Y-5275D01*
X373Y-5284D01*
X360Y-5294D01*
X358Y-5295D01*
X353Y-5297D01*
X345Y-5301D01*
X334Y-5305D01*
X320Y-5309D01*
X305Y-5313D01*
X287Y-5315D01*
X268Y-5316D01*
X151D01*
Y-5541D01*
X74D01*
Y-4976D01*
X276D01*
X287Y-4977D01*
D02*
G37*
G36*
X-4094Y-14915D02*
X-3983Y-15118D01*
X-4061D01*
X-4132Y-14985D01*
X-4204Y-15118D01*
X-4281D01*
X-4170Y-14915D01*
X-4271Y-14727D01*
X-4196D01*
X-4132Y-14845D01*
X-4069Y-14727D01*
X-3994D01*
X-4094Y-14915D01*
D02*
G37*
G36*
X-2752Y-14728D02*
X-2748D01*
X-2738Y-14729D01*
X-2727Y-14730D01*
X-2716Y-14732D01*
X-2705Y-14734D01*
X-2696Y-14738D01*
X-2695Y-14738D01*
X-2692Y-14740D01*
X-2688Y-14742D01*
X-2682Y-14746D01*
X-2676Y-14750D01*
X-2668Y-14756D01*
X-2661Y-14763D01*
X-2654Y-14771D01*
X-2653Y-14772D01*
X-2650Y-14775D01*
X-2647Y-14781D01*
X-2643Y-14788D01*
X-2638Y-14797D01*
X-2632Y-14807D01*
X-2628Y-14819D01*
X-2623Y-14833D01*
Y-14834D01*
X-2623Y-14835D01*
X-2622Y-14837D01*
X-2621Y-14840D01*
X-2621Y-14844D01*
X-2620Y-14848D01*
X-2618Y-14853D01*
X-2617Y-14859D01*
X-2617Y-14866D01*
X-2616Y-14872D01*
X-2614Y-14880D01*
X-2614Y-14889D01*
X-2613Y-14907D01*
X-2612Y-14927D01*
Y-14927D01*
Y-14929D01*
Y-14932D01*
Y-14935D01*
X-2613Y-14940D01*
Y-14945D01*
X-2613Y-14950D01*
Y-14957D01*
X-2615Y-14971D01*
X-2617Y-14986D01*
X-2620Y-15001D01*
X-2624Y-15015D01*
Y-15016D01*
X-2624Y-15017D01*
X-2625Y-15019D01*
X-2626Y-15022D01*
X-2628Y-15029D01*
X-2632Y-15037D01*
X-2636Y-15046D01*
X-2641Y-15056D01*
X-2647Y-15066D01*
X-2653Y-15075D01*
X-2654Y-15076D01*
X-2656Y-15078D01*
X-2660Y-15082D01*
X-2665Y-15087D01*
X-2671Y-15092D01*
X-2678Y-15097D01*
X-2686Y-15102D01*
X-2695Y-15107D01*
X-2696Y-15108D01*
X-2700Y-15109D01*
X-2705Y-15111D01*
X-2713Y-15112D01*
X-2722Y-15115D01*
X-2733Y-15116D01*
X-2746Y-15118D01*
X-2759Y-15118D01*
X-2881D01*
Y-14727D01*
X-2755D01*
X-2752Y-14728D01*
D02*
G37*
G36*
X-3054D02*
X-3049D01*
X-3038Y-14729D01*
X-3026Y-14730D01*
X-3014Y-14732D01*
X-3002Y-14735D01*
X-2997Y-14737D01*
X-2992Y-14738D01*
X-2991Y-14739D01*
X-2988Y-14740D01*
X-2984Y-14743D01*
X-2979Y-14747D01*
X-2973Y-14752D01*
X-2968Y-14758D01*
X-2961Y-14766D01*
X-2955Y-14775D01*
X-2955Y-14776D01*
X-2953Y-14779D01*
X-2951Y-14785D01*
X-2948Y-14792D01*
X-2946Y-14801D01*
X-2943Y-14812D01*
X-2942Y-14824D01*
X-2941Y-14837D01*
Y-14838D01*
Y-14839D01*
Y-14842D01*
X-2942Y-14845D01*
Y-14849D01*
X-2942Y-14853D01*
X-2944Y-14864D01*
X-2946Y-14875D01*
X-2950Y-14887D01*
X-2956Y-14900D01*
X-2964Y-14911D01*
Y-14912D01*
X-2965Y-14912D01*
X-2968Y-14916D01*
X-2973Y-14920D01*
X-2980Y-14926D01*
X-2988Y-14932D01*
X-2999Y-14938D01*
X-3011Y-14942D01*
X-3026Y-14946D01*
X-3025Y-14946D01*
X-3022Y-14949D01*
X-3018Y-14952D01*
X-3014Y-14956D01*
X-3009Y-14960D01*
X-3003Y-14966D01*
X-2997Y-14972D01*
X-2992Y-14979D01*
X-2991Y-14979D01*
X-2990Y-14982D01*
X-2986Y-14987D01*
X-2982Y-14993D01*
X-2977Y-15002D01*
X-2974Y-15007D01*
X-2970Y-15013D01*
X-2967Y-15019D01*
X-2963Y-15026D01*
X-2959Y-15034D01*
X-2955Y-15042D01*
X-2916Y-15118D01*
X-2994D01*
X-3040Y-15033D01*
Y-15033D01*
X-3041Y-15031D01*
X-3042Y-15029D01*
X-3044Y-15026D01*
X-3046Y-15022D01*
X-3048Y-15018D01*
X-3054Y-15009D01*
X-3059Y-14999D01*
X-3065Y-14989D01*
X-3068Y-14985D01*
X-3070Y-14982D01*
X-3073Y-14978D01*
X-3074Y-14976D01*
X-3075Y-14975D01*
X-3076Y-14974D01*
X-3078Y-14972D01*
X-3080Y-14970D01*
X-3086Y-14964D01*
X-3090Y-14961D01*
X-3094Y-14960D01*
X-3094D01*
X-3095Y-14959D01*
X-3098Y-14958D01*
X-3101Y-14957D01*
X-3106Y-14956D01*
X-3111Y-14956D01*
X-3118Y-14955D01*
X-3139D01*
Y-15118D01*
X-3203D01*
Y-14727D01*
X-3058D01*
X-3054Y-14728D01*
D02*
G37*
G36*
X-3381D02*
X-3370Y-14729D01*
X-3358Y-14730D01*
X-3346Y-14731D01*
X-3334Y-14734D01*
X-3329Y-14735D01*
X-3325Y-14737D01*
X-3324Y-14738D01*
X-3321Y-14739D01*
X-3317Y-14742D01*
X-3312Y-14745D01*
X-3307Y-14750D01*
X-3300Y-14756D01*
X-3295Y-14763D01*
X-3289Y-14771D01*
X-3288Y-14772D01*
X-3287Y-14775D01*
X-3284Y-14781D01*
X-3281Y-14787D01*
X-3279Y-14795D01*
X-3276Y-14804D01*
X-3274Y-14815D01*
X-3274Y-14826D01*
Y-14826D01*
Y-14827D01*
Y-14830D01*
X-3274Y-14836D01*
X-3276Y-14842D01*
X-3277Y-14850D01*
X-3279Y-14859D01*
X-3283Y-14868D01*
X-3287Y-14877D01*
X-3287Y-14878D01*
X-3289Y-14881D01*
X-3292Y-14885D01*
X-3295Y-14890D01*
X-3300Y-14895D01*
X-3306Y-14901D01*
X-3312Y-14906D01*
X-3320Y-14911D01*
X-3319D01*
X-3318Y-14911D01*
X-3315Y-14912D01*
X-3310Y-14915D01*
X-3303Y-14919D01*
X-3296Y-14923D01*
X-3288Y-14929D01*
X-3281Y-14937D01*
X-3274Y-14945D01*
X-3274Y-14946D01*
X-3272Y-14949D01*
X-3269Y-14955D01*
X-3266Y-14962D01*
X-3264Y-14971D01*
X-3261Y-14981D01*
X-3259Y-14992D01*
X-3258Y-15005D01*
Y-15005D01*
Y-15007D01*
Y-15009D01*
X-3259Y-15012D01*
Y-15016D01*
X-3259Y-15020D01*
X-3261Y-15030D01*
X-3264Y-15041D01*
X-3267Y-15053D01*
X-3272Y-15066D01*
X-3279Y-15077D01*
Y-15078D01*
X-3280Y-15078D01*
X-3283Y-15082D01*
X-3287Y-15087D01*
X-3293Y-15093D01*
X-3300Y-15099D01*
X-3309Y-15105D01*
X-3318Y-15110D01*
X-3328Y-15113D01*
X-3329D01*
X-3330Y-15114D01*
X-3332D01*
X-3335Y-15115D01*
X-3337D01*
X-3342Y-15115D01*
X-3346Y-15116D01*
X-3352Y-15116D01*
X-3358D01*
X-3366Y-15117D01*
X-3374Y-15118D01*
X-3384D01*
X-3394Y-15118D01*
X-3527D01*
Y-14727D01*
X-3386D01*
X-3381Y-14728D01*
D02*
G37*
G36*
X-3816D02*
X-3802Y-14729D01*
X-3790Y-14730D01*
X-3784Y-14730D01*
X-3779Y-14731D01*
X-3774Y-14732D01*
X-3770Y-14733D01*
X-3770D01*
X-3769Y-14734D01*
X-3766Y-14735D01*
X-3761Y-14738D01*
X-3754Y-14741D01*
X-3747Y-14746D01*
X-3739Y-14753D01*
X-3731Y-14761D01*
X-3724Y-14772D01*
Y-14772D01*
X-3723Y-14773D01*
X-3722Y-14775D01*
X-3721Y-14777D01*
X-3719Y-14780D01*
X-3718Y-14783D01*
X-3716Y-14787D01*
X-3714Y-14793D01*
X-3710Y-14804D01*
X-3707Y-14816D01*
X-3705Y-14831D01*
X-3705Y-14848D01*
Y-14849D01*
Y-14850D01*
Y-14852D01*
Y-14855D01*
X-3705Y-14859D01*
Y-14863D01*
X-3706Y-14873D01*
X-3709Y-14884D01*
X-3711Y-14896D01*
X-3715Y-14908D01*
X-3721Y-14919D01*
Y-14920D01*
X-3721Y-14920D01*
X-3724Y-14924D01*
X-3727Y-14929D01*
X-3732Y-14935D01*
X-3737Y-14941D01*
X-3744Y-14948D01*
X-3752Y-14954D01*
X-3761Y-14959D01*
X-3762Y-14960D01*
X-3763Y-14960D01*
X-3766Y-14961D01*
X-3769Y-14962D01*
X-3772Y-14963D01*
X-3776Y-14964D01*
X-3780Y-14965D01*
X-3785Y-14966D01*
X-3792Y-14967D01*
X-3798Y-14968D01*
X-3806Y-14969D01*
X-3814Y-14970D01*
X-3823Y-14970D01*
X-3833Y-14971D01*
X-3885D01*
Y-15118D01*
X-3950D01*
Y-14727D01*
X-3827D01*
X-3816Y-14728D01*
D02*
G37*
G36*
X-4309Y-14793D02*
X-4483D01*
Y-14880D01*
X-4321D01*
Y-14946D01*
X-4483D01*
Y-15052D01*
X-4303D01*
Y-15118D01*
X-4547D01*
Y-14727D01*
X-4309D01*
Y-14793D01*
D02*
G37*
G36*
X-4294Y-7464D02*
X-4373D01*
X-4500Y-7026D01*
X-4422D01*
X-4331Y-7350D01*
X-4244Y-7026D01*
X-4166D01*
X-4294Y-7464D01*
D02*
G37*
G36*
X-3144Y-7100D02*
X-3250D01*
Y-7464D01*
X-3323D01*
Y-7100D01*
X-3430D01*
Y-7026D01*
X-3144D01*
Y-7100D01*
D02*
G37*
G36*
X-3442Y-7464D02*
X-3520D01*
X-3552Y-7365D01*
X-3697D01*
X-3726Y-7464D01*
X-3803D01*
X-3664Y-7026D01*
X-3587D01*
X-3442Y-7464D01*
D02*
G37*
G36*
X-3965Y-7026D02*
X-3953Y-7027D01*
X-3939Y-7028D01*
X-3925Y-7030D01*
X-3913Y-7033D01*
X-3907Y-7035D01*
X-3902Y-7037D01*
X-3901Y-7037D01*
X-3898Y-7039D01*
X-3894Y-7042D01*
X-3888Y-7046D01*
X-3882Y-7051D01*
X-3875Y-7057D01*
X-3868Y-7065D01*
X-3862Y-7075D01*
X-3861Y-7076D01*
X-3859Y-7079D01*
X-3857Y-7085D01*
X-3854Y-7092D01*
X-3850Y-7101D01*
X-3848Y-7112D01*
X-3846Y-7124D01*
X-3845Y-7136D01*
Y-7136D01*
Y-7137D01*
Y-7141D01*
X-3846Y-7147D01*
X-3847Y-7155D01*
X-3848Y-7164D01*
X-3851Y-7173D01*
X-3855Y-7184D01*
X-3859Y-7193D01*
X-3860Y-7195D01*
X-3862Y-7197D01*
X-3865Y-7202D01*
X-3869Y-7208D01*
X-3875Y-7214D01*
X-3881Y-7220D01*
X-3888Y-7226D01*
X-3896Y-7231D01*
X-3896D01*
X-3895Y-7232D01*
X-3891Y-7233D01*
X-3885Y-7236D01*
X-3878Y-7240D01*
X-3870Y-7245D01*
X-3861Y-7252D01*
X-3853Y-7260D01*
X-3846Y-7270D01*
X-3845Y-7271D01*
X-3843Y-7274D01*
X-3840Y-7280D01*
X-3837Y-7289D01*
X-3833Y-7298D01*
X-3830Y-7309D01*
X-3828Y-7322D01*
X-3828Y-7337D01*
Y-7337D01*
Y-7339D01*
Y-7341D01*
X-3828Y-7344D01*
Y-7349D01*
X-3829Y-7354D01*
X-3830Y-7365D01*
X-3833Y-7378D01*
X-3837Y-7391D01*
X-3843Y-7405D01*
X-3851Y-7418D01*
Y-7418D01*
X-3852Y-7419D01*
X-3855Y-7423D01*
X-3860Y-7429D01*
X-3866Y-7435D01*
X-3874Y-7442D01*
X-3884Y-7449D01*
X-3894Y-7455D01*
X-3905Y-7459D01*
X-3907D01*
X-3908Y-7459D01*
X-3910D01*
X-3913Y-7460D01*
X-3916D01*
X-3921Y-7460D01*
X-3926Y-7461D01*
X-3933Y-7462D01*
X-3940D01*
X-3948Y-7462D01*
X-3958Y-7463D01*
X-3968D01*
X-3980Y-7464D01*
X-4129D01*
Y-7026D01*
X-3971D01*
X-3965Y-7026D01*
D02*
G37*
G36*
X-4294Y-10017D02*
X-4373D01*
X-4500Y-9579D01*
X-4422D01*
X-4331Y-9904D01*
X-4244Y-9579D01*
X-4166D01*
X-4294Y-10017D01*
D02*
G37*
G36*
X-3622Y-9580D02*
X-3618D01*
X-3607Y-9581D01*
X-3594Y-9582D01*
X-3582Y-9585D01*
X-3570Y-9587D01*
X-3559Y-9591D01*
X-3558Y-9592D01*
X-3555Y-9593D01*
X-3550Y-9596D01*
X-3544Y-9600D01*
X-3537Y-9605D01*
X-3528Y-9612D01*
X-3520Y-9620D01*
X-3512Y-9629D01*
X-3511Y-9630D01*
X-3508Y-9633D01*
X-3504Y-9639D01*
X-3500Y-9647D01*
X-3494Y-9657D01*
X-3488Y-9669D01*
X-3483Y-9682D01*
X-3478Y-9698D01*
Y-9699D01*
X-3477Y-9700D01*
X-3476Y-9702D01*
X-3476Y-9706D01*
X-3475Y-9710D01*
X-3474Y-9715D01*
X-3473Y-9721D01*
X-3471Y-9727D01*
X-3471Y-9734D01*
X-3469Y-9742D01*
X-3468Y-9750D01*
X-3467Y-9760D01*
X-3466Y-9780D01*
X-3465Y-9803D01*
Y-9804D01*
Y-9806D01*
Y-9809D01*
Y-9813D01*
X-3466Y-9817D01*
Y-9823D01*
X-3467Y-9829D01*
Y-9837D01*
X-3469Y-9852D01*
X-3471Y-9869D01*
X-3474Y-9886D01*
X-3478Y-9902D01*
Y-9903D01*
X-3479Y-9904D01*
X-3480Y-9906D01*
X-3481Y-9909D01*
X-3484Y-9917D01*
X-3487Y-9926D01*
X-3492Y-9937D01*
X-3498Y-9948D01*
X-3504Y-9959D01*
X-3511Y-9969D01*
X-3512Y-9970D01*
X-3515Y-9973D01*
X-3519Y-9977D01*
X-3524Y-9982D01*
X-3531Y-9988D01*
X-3539Y-9994D01*
X-3548Y-10000D01*
X-3559Y-10005D01*
X-3560Y-10006D01*
X-3564Y-10007D01*
X-3570Y-10009D01*
X-3578Y-10011D01*
X-3589Y-10014D01*
X-3601Y-10015D01*
X-3615Y-10017D01*
X-3631Y-10017D01*
X-3767D01*
Y-9579D01*
X-3626D01*
X-3622Y-9580D01*
D02*
G37*
G36*
X-3984D02*
X-3980D01*
X-3969Y-9581D01*
X-3957Y-9582D01*
X-3944Y-9585D01*
X-3932Y-9587D01*
X-3922Y-9591D01*
X-3920Y-9592D01*
X-3917Y-9593D01*
X-3913Y-9596D01*
X-3906Y-9600D01*
X-3899Y-9605D01*
X-3890Y-9612D01*
X-3883Y-9620D01*
X-3874Y-9629D01*
X-3873Y-9630D01*
X-3870Y-9633D01*
X-3866Y-9639D01*
X-3862Y-9647D01*
X-3856Y-9657D01*
X-3850Y-9669D01*
X-3845Y-9682D01*
X-3840Y-9698D01*
Y-9699D01*
X-3839Y-9700D01*
X-3839Y-9702D01*
X-3838Y-9706D01*
X-3837Y-9710D01*
X-3836Y-9715D01*
X-3835Y-9721D01*
X-3833Y-9727D01*
X-3833Y-9734D01*
X-3832Y-9742D01*
X-3830Y-9750D01*
X-3830Y-9760D01*
X-3828Y-9780D01*
X-3828Y-9803D01*
Y-9804D01*
Y-9806D01*
Y-9809D01*
Y-9813D01*
X-3828Y-9817D01*
Y-9823D01*
X-3829Y-9829D01*
Y-9837D01*
X-3831Y-9852D01*
X-3833Y-9869D01*
X-3836Y-9886D01*
X-3841Y-9902D01*
Y-9903D01*
X-3841Y-9904D01*
X-3842Y-9906D01*
X-3843Y-9909D01*
X-3846Y-9917D01*
X-3850Y-9926D01*
X-3854Y-9937D01*
X-3860Y-9948D01*
X-3866Y-9959D01*
X-3874Y-9969D01*
X-3874Y-9970D01*
X-3877Y-9973D01*
X-3881Y-9977D01*
X-3887Y-9982D01*
X-3894Y-9988D01*
X-3901Y-9994D01*
X-3911Y-10000D01*
X-3921Y-10005D01*
X-3922Y-10006D01*
X-3926Y-10007D01*
X-3932Y-10009D01*
X-3940Y-10011D01*
X-3951Y-10014D01*
X-3963Y-10015D01*
X-3977Y-10017D01*
X-3993Y-10017D01*
X-4129D01*
Y-9579D01*
X-3988D01*
X-3984Y-9580D01*
D02*
G37*
G36*
X-3512Y-12581D02*
X-3579D01*
Y-12236D01*
X-3652Y-12581D01*
X-3721D01*
X-3793Y-12236D01*
Y-12581D01*
X-3860D01*
Y-12143D01*
X-3752D01*
X-3686Y-12443D01*
X-3622Y-12143D01*
X-3512D01*
Y-12581D01*
D02*
G37*
G36*
X-3927Y-12217D02*
X-4121D01*
Y-12314D01*
X-3940D01*
Y-12388D01*
X-4121D01*
Y-12507D01*
X-3920D01*
Y-12581D01*
X-4194D01*
Y-12143D01*
X-3927D01*
Y-12217D01*
D02*
G37*
G36*
X-4254D02*
X-4428D01*
Y-12321D01*
X-4277D01*
Y-12395D01*
X-4428D01*
Y-12581D01*
X-4500D01*
Y-12143D01*
X-4254D01*
Y-12217D01*
D02*
G37*
%LPC*%
G36*
X917Y-4163D02*
X813D01*
Y-4584D01*
X926D01*
X931Y-4583D01*
X937Y-4582D01*
X952Y-4581D01*
X967Y-4578D01*
X985Y-4574D01*
X1003Y-4568D01*
X1021Y-4560D01*
X1021D01*
X1022Y-4559D01*
X1025Y-4557D01*
X1028Y-4556D01*
X1037Y-4550D01*
X1047Y-4542D01*
X1059Y-4532D01*
X1071Y-4519D01*
X1082Y-4504D01*
X1094Y-4488D01*
Y-4487D01*
X1095Y-4485D01*
X1096Y-4483D01*
X1098Y-4479D01*
X1100Y-4475D01*
X1102Y-4469D01*
X1105Y-4463D01*
X1107Y-4456D01*
X1112Y-4439D01*
X1116Y-4420D01*
X1119Y-4397D01*
X1120Y-4373D01*
Y-4372D01*
Y-4371D01*
Y-4366D01*
Y-4362D01*
X1119Y-4356D01*
X1119Y-4349D01*
X1117Y-4334D01*
X1113Y-4316D01*
X1109Y-4297D01*
X1102Y-4277D01*
X1094Y-4259D01*
Y-4258D01*
X1093Y-4257D01*
X1091Y-4255D01*
X1089Y-4251D01*
X1082Y-4243D01*
X1075Y-4232D01*
X1064Y-4221D01*
X1052Y-4209D01*
X1037Y-4198D01*
X1021Y-4188D01*
X1020D01*
X1019Y-4187D01*
X1016Y-4185D01*
X1013Y-4184D01*
X1009Y-4182D01*
X1003Y-4180D01*
X990Y-4176D01*
X975Y-4171D01*
X958Y-4167D01*
X938Y-4164D01*
X917Y-4163D01*
D02*
G37*
G36*
X261Y-5049D02*
X151D01*
Y-5244D01*
X269D01*
X276Y-5242D01*
X287Y-5240D01*
X299Y-5238D01*
X311Y-5233D01*
X323Y-5227D01*
X333Y-5219D01*
X334Y-5218D01*
X337Y-5215D01*
X342Y-5209D01*
X347Y-5201D01*
X351Y-5190D01*
X355Y-5178D01*
X359Y-5163D01*
X360Y-5147D01*
Y-5146D01*
Y-5145D01*
Y-5142D01*
Y-5139D01*
X358Y-5130D01*
X356Y-5120D01*
X353Y-5108D01*
X348Y-5096D01*
X342Y-5085D01*
X333Y-5074D01*
X332Y-5074D01*
X328Y-5070D01*
X322Y-5067D01*
X314Y-5061D01*
X304Y-5057D01*
X292Y-5053D01*
X277Y-5050D01*
X261Y-5049D01*
D02*
G37*
G36*
X-2774Y-14793D02*
X-2816D01*
Y-15052D01*
X-2763D01*
X-2758Y-15052D01*
X-2751D01*
X-2743Y-15051D01*
X-2736Y-15050D01*
X-2729Y-15048D01*
X-2723Y-15046D01*
X-2722Y-15046D01*
X-2721Y-15045D01*
X-2718Y-15044D01*
X-2715Y-15042D01*
X-2707Y-15037D01*
X-2701Y-15029D01*
X-2700Y-15029D01*
X-2699Y-15027D01*
X-2697Y-15024D01*
X-2695Y-15020D01*
X-2693Y-15015D01*
X-2690Y-15008D01*
X-2688Y-15000D01*
X-2686Y-14992D01*
Y-14991D01*
X-2685Y-14990D01*
X-2684Y-14987D01*
X-2683Y-14981D01*
X-2682Y-14974D01*
X-2681Y-14964D01*
X-2680Y-14952D01*
X-2679Y-14939D01*
Y-14924D01*
Y-14923D01*
Y-14922D01*
Y-14920D01*
Y-14917D01*
Y-14913D01*
X-2680Y-14909D01*
Y-14899D01*
X-2681Y-14888D01*
X-2682Y-14877D01*
X-2683Y-14866D01*
X-2686Y-14856D01*
Y-14855D01*
Y-14855D01*
X-2687Y-14852D01*
X-2688Y-14847D01*
X-2690Y-14841D01*
X-2692Y-14835D01*
X-2696Y-14828D01*
X-2699Y-14822D01*
X-2704Y-14816D01*
X-2705Y-14815D01*
X-2706Y-14813D01*
X-2709Y-14811D01*
X-2713Y-14808D01*
X-2717Y-14805D01*
X-2722Y-14801D01*
X-2728Y-14799D01*
X-2735Y-14797D01*
X-2735D01*
X-2738Y-14796D01*
X-2741Y-14796D01*
X-2746Y-14795D01*
X-2754Y-14794D01*
X-2762Y-14794D01*
X-2774Y-14793D01*
D02*
G37*
G36*
X-3074D02*
X-3139D01*
Y-14893D01*
X-3077D01*
X-3068Y-14892D01*
X-3058D01*
X-3049Y-14891D01*
X-3041Y-14890D01*
X-3038Y-14890D01*
X-3035Y-14889D01*
X-3035D01*
X-3033Y-14889D01*
X-3031Y-14887D01*
X-3028Y-14886D01*
X-3025Y-14883D01*
X-3022Y-14881D01*
X-3018Y-14878D01*
X-3016Y-14874D01*
X-3015Y-14873D01*
X-3014Y-14871D01*
X-3013Y-14869D01*
X-3011Y-14865D01*
X-3010Y-14861D01*
X-3009Y-14855D01*
X-3009Y-14849D01*
X-3008Y-14842D01*
Y-14842D01*
Y-14840D01*
X-3009Y-14836D01*
X-3009Y-14831D01*
X-3011Y-14822D01*
X-3013Y-14817D01*
X-3016Y-14812D01*
X-3016Y-14812D01*
X-3017Y-14811D01*
X-3018Y-14808D01*
X-3021Y-14806D01*
X-3024Y-14804D01*
X-3027Y-14801D01*
X-3031Y-14798D01*
X-3036Y-14797D01*
X-3036D01*
X-3038Y-14796D01*
X-3041Y-14796D01*
X-3046Y-14795D01*
X-3049Y-14794D01*
X-3053D01*
X-3057Y-14794D01*
X-3068D01*
X-3074Y-14793D01*
D02*
G37*
G36*
X-3400Y-14793D02*
X-3462D01*
Y-14882D01*
X-3399D01*
X-3391Y-14882D01*
X-3377D01*
X-3374Y-14881D01*
X-3372D01*
X-3369Y-14881D01*
X-3366Y-14880D01*
X-3363Y-14879D01*
X-3359Y-14877D01*
X-3355Y-14875D01*
X-3350Y-14871D01*
X-3347Y-14868D01*
X-3346Y-14867D01*
X-3345Y-14866D01*
X-3344Y-14863D01*
X-3342Y-14860D01*
X-3340Y-14855D01*
X-3339Y-14850D01*
X-3337Y-14844D01*
X-3337Y-14837D01*
Y-14836D01*
Y-14834D01*
X-3337Y-14831D01*
X-3338Y-14827D01*
X-3340Y-14818D01*
X-3342Y-14813D01*
X-3345Y-14809D01*
X-3346Y-14809D01*
X-3346Y-14808D01*
X-3348Y-14806D01*
X-3350Y-14804D01*
X-3356Y-14799D01*
X-3359Y-14797D01*
X-3363Y-14796D01*
X-3364D01*
X-3366Y-14795D01*
X-3369Y-14794D01*
X-3372D01*
X-3375Y-14794D01*
X-3383D01*
X-3388Y-14793D01*
X-3394D01*
X-3400Y-14793D01*
D02*
G37*
G36*
X-3396Y-14948D02*
X-3462D01*
Y-15052D01*
X-3390D01*
X-3382Y-15052D01*
X-3373Y-15051D01*
X-3365Y-15050D01*
X-3358Y-15049D01*
X-3355Y-15049D01*
X-3353Y-15048D01*
X-3352D01*
X-3351Y-15048D01*
X-3348Y-15046D01*
X-3346Y-15045D01*
X-3343Y-15042D01*
X-3340Y-15039D01*
X-3336Y-15036D01*
X-3333Y-15032D01*
X-3333Y-15031D01*
X-3332Y-15030D01*
X-3331Y-15027D01*
X-3329Y-15023D01*
X-3328Y-15019D01*
X-3327Y-15014D01*
X-3326Y-15008D01*
X-3325Y-15001D01*
Y-15001D01*
Y-14998D01*
X-3326Y-14994D01*
X-3327Y-14990D01*
X-3328Y-14985D01*
X-3329Y-14980D01*
X-3331Y-14975D01*
X-3334Y-14970D01*
X-3335Y-14970D01*
X-3336Y-14968D01*
X-3337Y-14966D01*
X-3340Y-14963D01*
X-3343Y-14960D01*
X-3346Y-14957D01*
X-3351Y-14955D01*
X-3355Y-14953D01*
X-3356D01*
X-3358Y-14952D01*
X-3362Y-14951D01*
X-3367Y-14950D01*
X-3374Y-14949D01*
X-3384Y-14948D01*
X-3390D01*
X-3396Y-14948D01*
D02*
G37*
G36*
X-3840Y-14793D02*
X-3885D01*
Y-14905D01*
X-3838D01*
X-3831Y-14904D01*
X-3822Y-14904D01*
X-3814Y-14903D01*
X-3807Y-14902D01*
X-3802Y-14900D01*
X-3801D01*
X-3799Y-14899D01*
X-3797Y-14898D01*
X-3794Y-14896D01*
X-3791Y-14893D01*
X-3787Y-14890D01*
X-3784Y-14886D01*
X-3780Y-14882D01*
X-3780Y-14881D01*
X-3779Y-14879D01*
X-3777Y-14877D01*
X-3776Y-14872D01*
X-3774Y-14868D01*
X-3773Y-14863D01*
X-3772Y-14856D01*
X-3772Y-14849D01*
Y-14848D01*
Y-14846D01*
X-3772Y-14842D01*
X-3773Y-14838D01*
X-3774Y-14833D01*
X-3775Y-14827D01*
X-3777Y-14822D01*
X-3780Y-14816D01*
X-3781Y-14816D01*
X-3782Y-14814D01*
X-3784Y-14812D01*
X-3786Y-14809D01*
X-3789Y-14806D01*
X-3793Y-14803D01*
X-3797Y-14800D01*
X-3802Y-14798D01*
X-3802D01*
X-3804Y-14797D01*
X-3807Y-14796D01*
X-3813Y-14796D01*
X-3820Y-14794D01*
X-3829Y-14794D01*
X-3835D01*
X-3840Y-14793D01*
D02*
G37*
G36*
X-3625Y-7128D02*
X-3674Y-7291D01*
X-3576D01*
X-3625Y-7128D01*
D02*
G37*
G36*
X-3987Y-7099D02*
X-4056D01*
Y-7199D01*
X-3986D01*
X-3977Y-7199D01*
X-3960D01*
X-3958Y-7198D01*
X-3955D01*
X-3952Y-7197D01*
X-3949Y-7197D01*
X-3945Y-7195D01*
X-3940Y-7193D01*
X-3936Y-7191D01*
X-3931Y-7187D01*
X-3927Y-7183D01*
X-3926Y-7182D01*
X-3925Y-7181D01*
X-3924Y-7178D01*
X-3921Y-7174D01*
X-3919Y-7169D01*
X-3918Y-7163D01*
X-3916Y-7156D01*
X-3916Y-7148D01*
Y-7147D01*
Y-7145D01*
X-3916Y-7142D01*
X-3917Y-7137D01*
X-3920Y-7127D01*
X-3922Y-7122D01*
X-3925Y-7118D01*
X-3925Y-7117D01*
X-3926Y-7116D01*
X-3928Y-7114D01*
X-3931Y-7111D01*
X-3937Y-7106D01*
X-3941Y-7103D01*
X-3946Y-7102D01*
X-3946D01*
X-3948Y-7101D01*
X-3952Y-7101D01*
X-3955D01*
X-3959Y-7100D01*
X-3968D01*
X-3973Y-7100D01*
X-3980D01*
X-3987Y-7099D01*
D02*
G37*
G36*
X-3982Y-7273D02*
X-4056D01*
Y-7390D01*
X-3975D01*
X-3966Y-7389D01*
X-3957Y-7389D01*
X-3947Y-7388D01*
X-3939Y-7387D01*
X-3936Y-7386D01*
X-3933Y-7385D01*
X-3933D01*
X-3931Y-7385D01*
X-3929Y-7383D01*
X-3925Y-7381D01*
X-3922Y-7379D01*
X-3919Y-7376D01*
X-3915Y-7372D01*
X-3912Y-7367D01*
X-3911Y-7366D01*
X-3911Y-7365D01*
X-3909Y-7362D01*
X-3907Y-7357D01*
X-3905Y-7353D01*
X-3904Y-7347D01*
X-3903Y-7340D01*
X-3903Y-7333D01*
Y-7332D01*
Y-7329D01*
X-3903Y-7325D01*
X-3904Y-7320D01*
X-3905Y-7315D01*
X-3907Y-7309D01*
X-3909Y-7303D01*
X-3913Y-7298D01*
X-3913Y-7297D01*
X-3914Y-7295D01*
X-3916Y-7293D01*
X-3919Y-7290D01*
X-3922Y-7287D01*
X-3926Y-7284D01*
X-3931Y-7281D01*
X-3936Y-7278D01*
X-3937D01*
X-3940Y-7278D01*
X-3944Y-7276D01*
X-3949Y-7275D01*
X-3958Y-7274D01*
X-3969Y-7273D01*
X-3975D01*
X-3982Y-7273D01*
D02*
G37*
G36*
X-3647Y-9653D02*
X-3694D01*
Y-9944D01*
X-3635D01*
X-3629Y-9943D01*
X-3621D01*
X-3612Y-9942D01*
X-3604Y-9941D01*
X-3596Y-9939D01*
X-3590Y-9937D01*
X-3589Y-9936D01*
X-3587Y-9936D01*
X-3585Y-9934D01*
X-3581Y-9932D01*
X-3572Y-9926D01*
X-3565Y-9918D01*
X-3564Y-9917D01*
X-3563Y-9915D01*
X-3561Y-9912D01*
X-3559Y-9907D01*
X-3556Y-9901D01*
X-3553Y-9894D01*
X-3550Y-9885D01*
X-3548Y-9875D01*
Y-9875D01*
X-3547Y-9874D01*
X-3546Y-9870D01*
X-3545Y-9864D01*
X-3544Y-9855D01*
X-3542Y-9844D01*
X-3542Y-9831D01*
X-3541Y-9817D01*
Y-9800D01*
Y-9799D01*
Y-9798D01*
Y-9795D01*
Y-9792D01*
Y-9787D01*
X-3541Y-9783D01*
Y-9772D01*
X-3542Y-9760D01*
X-3544Y-9747D01*
X-3545Y-9734D01*
X-3548Y-9723D01*
Y-9723D01*
Y-9722D01*
X-3549Y-9719D01*
X-3550Y-9713D01*
X-3553Y-9707D01*
X-3555Y-9700D01*
X-3559Y-9692D01*
X-3563Y-9685D01*
X-3568Y-9679D01*
X-3569Y-9678D01*
X-3571Y-9676D01*
X-3574Y-9673D01*
X-3578Y-9669D01*
X-3583Y-9666D01*
X-3589Y-9662D01*
X-3596Y-9660D01*
X-3603Y-9657D01*
X-3603D01*
X-3606Y-9656D01*
X-3610Y-9656D01*
X-3616Y-9655D01*
X-3624Y-9655D01*
X-3634Y-9654D01*
X-3647Y-9653D01*
D02*
G37*
G36*
X-4009D02*
X-4056D01*
Y-9944D01*
X-3997D01*
X-3991Y-9943D01*
X-3983D01*
X-3975Y-9942D01*
X-3966Y-9941D01*
X-3959Y-9939D01*
X-3952Y-9937D01*
X-3951Y-9936D01*
X-3949Y-9936D01*
X-3947Y-9934D01*
X-3943Y-9932D01*
X-3935Y-9926D01*
X-3927Y-9918D01*
X-3926Y-9917D01*
X-3925Y-9915D01*
X-3923Y-9912D01*
X-3921Y-9907D01*
X-3918Y-9901D01*
X-3915Y-9894D01*
X-3913Y-9885D01*
X-3910Y-9875D01*
Y-9875D01*
X-3909Y-9874D01*
X-3909Y-9870D01*
X-3907Y-9864D01*
X-3906Y-9855D01*
X-3905Y-9844D01*
X-3904Y-9831D01*
X-3903Y-9817D01*
Y-9800D01*
Y-9799D01*
Y-9798D01*
Y-9795D01*
Y-9792D01*
Y-9787D01*
X-3903Y-9783D01*
Y-9772D01*
X-3905Y-9760D01*
X-3906Y-9747D01*
X-3907Y-9734D01*
X-3910Y-9723D01*
Y-9723D01*
Y-9722D01*
X-3911Y-9719D01*
X-3913Y-9713D01*
X-3915Y-9707D01*
X-3918Y-9700D01*
X-3922Y-9692D01*
X-3925Y-9685D01*
X-3931Y-9679D01*
X-3931Y-9678D01*
X-3933Y-9676D01*
X-3936Y-9673D01*
X-3940Y-9669D01*
X-3946Y-9666D01*
X-3951Y-9662D01*
X-3958Y-9660D01*
X-3965Y-9657D01*
X-3966D01*
X-3968Y-9656D01*
X-3972Y-9656D01*
X-3978Y-9655D01*
X-3986Y-9655D01*
X-3996Y-9654D01*
X-4009Y-9653D01*
D02*
G37*
%LPD*%
D10*
X-2417Y-10804D02*
Y-8804D01*
X-1417Y-10804D02*
Y-8804D01*
X-2417Y-10804D02*
X-1417D01*
X-2417Y-8804D02*
X-1417D01*
X710Y-16292D02*
Y-6292D01*
X1710D01*
Y-16292D02*
Y-6292D01*
X710Y-16292D02*
X1710D01*
X1410Y-15292D02*
X1710Y-15292D01*
X710D02*
X1010Y-15292D01*
X-2417Y-11363D02*
X-1417Y-11363D01*
X-2417Y-13363D02*
X-1417D01*
Y-11363D01*
X-2417Y-13363D02*
Y-11363D01*
Y-6245D02*
X-1417D01*
X-2417Y-8245D02*
X-1417D01*
Y-6245D01*
X-2417Y-8245D02*
Y-6245D01*
Y-13922D02*
X-1417D01*
X-2417Y-15922D02*
X-1417D01*
Y-13922D01*
X-2417Y-15922D02*
Y-13922D01*
D11*
X-4605Y-9454D02*
X-4555Y-9404D01*
Y-9204D01*
X-4605Y-9154D02*
X-4555Y-9204D01*
X-4605Y-10154D02*
X-4555Y-10204D01*
Y-10404D02*
Y-10204D01*
X-4605Y-10454D02*
X-4555Y-10404D01*
X-2417Y-9804D02*
X-1417D01*
X-4605Y-9154D02*
X-2417D01*
X-4605Y-9454D02*
X-2417D01*
X-4705Y-9354D02*
Y-9254D01*
X-4605Y-9154D01*
X-4705Y-9354D02*
X-4605Y-9454D01*
X-4705Y-10354D02*
X-4605Y-10454D01*
X-4705Y-10254D02*
X-4605Y-10154D01*
X-4705Y-10354D02*
Y-10254D01*
X-4605Y-10454D02*
X-2417D01*
X-4605Y-10154D02*
X-2417D01*
X-1417Y-9154D02*
X-855D01*
X-1417Y-9454D02*
X-855D01*
X-1417Y-10454D02*
X-855D01*
X-1417Y-10154D02*
X-855D01*
X-1417Y-12713D02*
X-855Y-12713D01*
X-1417Y-13013D02*
X-855Y-13013D01*
X-1417Y-12013D02*
X-855D01*
X-1417Y-11713D02*
X-855D01*
X-4605Y-12713D02*
X-2417D01*
X-4605Y-13013D02*
X-2417D01*
X-4705Y-12913D02*
Y-12813D01*
X-4605Y-12713D01*
X-4705Y-12913D02*
X-4605Y-13013D01*
X-4705Y-11913D02*
X-4605Y-12013D01*
X-4705Y-11813D02*
X-4605Y-11713D01*
X-4705Y-11913D02*
Y-11813D01*
X-4605Y-12013D02*
X-2417D01*
X-4605Y-11713D02*
X-2417D01*
Y-12363D02*
X-1417D01*
X-4605Y-13013D02*
X-4555Y-12963D01*
Y-12763D01*
X-4605Y-12713D02*
X-4555Y-12763D01*
X-4605Y-11713D02*
X-4555Y-11763D01*
Y-11963D02*
Y-11763D01*
X-4605Y-12013D02*
X-4555Y-11963D01*
X-1417Y-7595D02*
X-855D01*
X-1417Y-7895D02*
X-855D01*
X-1417Y-6895D02*
X-855D01*
X-1417Y-6595D02*
X-855D01*
X-4605Y-7595D02*
X-2417D01*
X-4605Y-7895D02*
X-2417D01*
X-4705Y-7795D02*
Y-7695D01*
X-4605Y-7595D01*
X-4705Y-7795D02*
X-4605Y-7895D01*
X-4705Y-6795D02*
X-4605Y-6895D01*
X-4705Y-6695D02*
X-4605Y-6595D01*
X-4705Y-6795D02*
Y-6695D01*
X-4605Y-6895D02*
X-2417D01*
X-4605Y-6595D02*
X-2417D01*
Y-7245D02*
X-1417D01*
X-4605Y-7895D02*
X-4555Y-7845D01*
Y-7645D01*
X-4605Y-7595D02*
X-4555Y-7645D01*
X-4605Y-6595D02*
X-4555Y-6645D01*
Y-6845D02*
Y-6645D01*
X-4605Y-6895D02*
X-4555Y-6845D01*
X-1417Y-15272D02*
X-855D01*
X-1417Y-15572D02*
X-855D01*
X-1417Y-14572D02*
X-855D01*
X-1417Y-14272D02*
X-855D01*
X-4605Y-15272D02*
X-2417D01*
X-4605Y-15572D02*
X-2417D01*
X-4705Y-15472D02*
Y-15372D01*
X-4605Y-15272D01*
X-4705Y-15472D02*
X-4605Y-15572D01*
X-4705Y-14472D02*
X-4605Y-14572D01*
X-4705Y-14372D02*
X-4605Y-14272D01*
X-4705Y-14472D02*
Y-14372D01*
X-4605Y-14572D02*
X-2417D01*
X-4605Y-14272D02*
X-2417D01*
Y-14922D02*
X-1417D01*
X-4605Y-15572D02*
X-4555Y-15522D01*
Y-15322D01*
X-4605Y-15272D02*
X-4555Y-15322D01*
X-4605Y-14272D02*
X-4555Y-14322D01*
Y-14522D02*
Y-14322D01*
X-4605Y-14572D02*
X-4555Y-14522D01*
X-1634Y-1801D02*
X-1568D01*
X-1601D01*
Y-1604D01*
X-1634Y-1637D01*
X-1470D02*
X-1437Y-1604D01*
X-1371D01*
X-1339Y-1637D01*
Y-1768D01*
X-1371Y-1801D01*
X-1437D01*
X-1470Y-1768D01*
Y-1637D01*
X1319Y-1801D02*
X1384D01*
X1352D01*
Y-1604D01*
X1319Y-1637D01*
D12*
X-3763Y-17838D02*
X-3261D01*
Y-18901D02*
Y-17838D01*
X-3763Y-16421D02*
X1237D01*
X-3763Y-18901D02*
X1237D01*
X-3763D02*
Y-16421D01*
X1237Y-18901D02*
Y-16421D01*
D13*
X1873Y-9967D02*
X1841Y-9934D01*
Y-9869D01*
X1873Y-9836D01*
X2005D01*
X2037Y-9869D01*
Y-9934D01*
X2005Y-9967D01*
X1873D01*
X1841Y-9639D02*
Y-9770D01*
X1939D01*
X1906Y-9705D01*
Y-9672D01*
X1939Y-9639D01*
X2005D01*
X2037Y-9672D01*
Y-9738D01*
X2005Y-9770D01*
X1879Y-10961D02*
X1846Y-10928D01*
Y-10863D01*
X1879Y-10830D01*
X2010D01*
X2043Y-10863D01*
Y-10928D01*
X2010Y-10961D01*
X1879D01*
Y-10764D02*
X1846Y-10732D01*
Y-10666D01*
X1879Y-10633D01*
X1911D01*
X1944Y-10666D01*
X1977Y-10633D01*
X2010D01*
X2043Y-10666D01*
Y-10732D01*
X2010Y-10764D01*
X1977D01*
X1944Y-10732D01*
X1911Y-10764D01*
X1879D01*
X1944Y-10732D02*
Y-10666D01*
X2043Y-13904D02*
Y-13839D01*
Y-13871D01*
X1846D01*
X1879Y-13904D01*
X2043Y-13740D02*
Y-13675D01*
Y-13707D01*
X1846D01*
X1879Y-13740D01*
X1874Y-7055D02*
X1841Y-7022D01*
Y-6956D01*
X1874Y-6924D01*
X1907D01*
X1940Y-6956D01*
Y-6989D01*
Y-6956D01*
X1972Y-6924D01*
X2005D01*
X2038Y-6956D01*
Y-7022D01*
X2005Y-7055D01*
X1841Y-6858D02*
X1972D01*
X2038Y-6793D01*
X1972Y-6727D01*
X1841D01*
X1874Y-6661D02*
X1841Y-6629D01*
Y-6563D01*
X1874Y-6530D01*
X1907D01*
X1940Y-6563D01*
Y-6596D01*
Y-6563D01*
X1972Y-6530D01*
X2005D01*
X2038Y-6563D01*
Y-6629D01*
X2005Y-6661D01*
X1841Y-8058D02*
X1972D01*
X2038Y-7992D01*
X1972Y-7926D01*
X1841D01*
Y-7861D02*
X2038D01*
Y-7762D01*
X2005Y-7730D01*
X1874D01*
X1841Y-7762D01*
Y-7861D01*
Y-7664D02*
X2038D01*
Y-7566D01*
X2005Y-7533D01*
X1874D01*
X1841Y-7566D01*
Y-7664D01*
X2043Y-12953D02*
Y-12887D01*
Y-12920D01*
X1846D01*
X1879Y-12953D01*
Y-12789D02*
X1846Y-12756D01*
Y-12690D01*
X1879Y-12658D01*
X2010D01*
X2043Y-12690D01*
Y-12756D01*
X2010Y-12789D01*
X1879D01*
X1879Y-11946D02*
X1846Y-11913D01*
Y-11847D01*
X1879Y-11814D01*
X2010D01*
X2043Y-11847D01*
Y-11913D01*
X2010Y-11946D01*
X1879D01*
X2010Y-11749D02*
X2043Y-11716D01*
Y-11650D01*
X2010Y-11618D01*
X1879D01*
X1846Y-11650D01*
Y-11716D01*
X1879Y-11749D01*
X1911D01*
X1944Y-11716D01*
Y-11618D01*
X1879Y-15968D02*
X1846Y-16001D01*
Y-16066D01*
X1879Y-16099D01*
X2010D01*
X2043Y-16066D01*
Y-16001D01*
X2010Y-15968D01*
X1944D01*
Y-16033D01*
X2043Y-15902D02*
X1846D01*
X2043Y-15771D01*
X1846D01*
Y-15705D02*
X2043D01*
Y-15607D01*
X2010Y-15574D01*
X1879D01*
X1846Y-15607D01*
Y-15705D01*
X1873Y-8953D02*
X1841Y-8921D01*
Y-8855D01*
X1873Y-8822D01*
X2005D01*
X2037Y-8855D01*
Y-8921D01*
X2005Y-8953D01*
X1873D01*
X2037Y-8658D02*
X1841D01*
X1939Y-8757D01*
Y-8625D01*
X2043Y-14951D02*
Y-14885D01*
Y-14918D01*
X1846D01*
X1879Y-14951D01*
X2043Y-14656D02*
Y-14787D01*
X1911Y-14656D01*
X1879D01*
X1846Y-14688D01*
Y-14754D01*
X1879Y-14787D01*
X1047Y-6122D02*
Y-5925D01*
X1145D01*
X1178Y-5958D01*
Y-6024D01*
X1145Y-6056D01*
X1047D01*
X1375Y-5925D02*
X1309Y-5958D01*
X1243Y-6024D01*
Y-6089D01*
X1276Y-6122D01*
X1342D01*
X1375Y-6089D01*
Y-6056D01*
X1342Y-6024D01*
X1243D01*
X-4357Y-16602D02*
Y-16405D01*
X-4259D01*
X-4226Y-16438D01*
Y-16504D01*
X-4259Y-16537D01*
X-4357D01*
X-4029Y-16405D02*
X-4160D01*
Y-16504D01*
X-4095Y-16471D01*
X-4062D01*
X-4029Y-16504D01*
Y-16569D01*
X-4062Y-16602D01*
X-4127D01*
X-4160Y-16569D01*
D14*
X-4203Y-18901D02*
X-4070D01*
X-4137D01*
Y-18501D01*
X-4203Y-18568D01*
X-1131Y-9962D02*
Y-9692D01*
X-996D01*
X-951Y-9737D01*
Y-9827D01*
X-996Y-9872D01*
X-1131D01*
X-681Y-9962D02*
X-861D01*
X-681Y-9782D01*
Y-9737D01*
X-726Y-9692D01*
X-816D01*
X-861Y-9737D01*
X-1131Y-15080D02*
Y-14810D01*
X-996D01*
X-951Y-14855D01*
Y-14945D01*
X-996Y-14990D01*
X-1131D01*
X-726Y-15080D02*
Y-14810D01*
X-861Y-14945D01*
X-681D01*
X-1131Y-7403D02*
Y-7133D01*
X-996D01*
X-951Y-7178D01*
Y-7268D01*
X-996Y-7313D01*
X-1131D01*
X-861Y-7403D02*
X-771D01*
X-816D01*
Y-7133D01*
X-861Y-7178D01*
X-1131Y-12521D02*
Y-12251D01*
X-996D01*
X-951Y-12296D01*
Y-12386D01*
X-996Y-12431D01*
X-1131D01*
X-861Y-12296D02*
X-816Y-12251D01*
X-726D01*
X-681Y-12296D01*
Y-12341D01*
X-726Y-12386D01*
X-771D01*
X-726D01*
X-681Y-12431D01*
Y-12476D01*
X-726Y-12521D01*
X-816D01*
X-861Y-12476D01*
D15*
X-12Y-3558D02*
D03*
M02*
