G04*
G04 #@! TF.GenerationSoftware,Altium Limited,Altium Designer,21.3.2 (30)*
G04*
G04 Layer_Color=8388736*
%FSLAX24Y24*%
%MOIN*%
G70*
G04*
G04 #@! TF.SameCoordinates,11860592-E2A6-4BD8-AD77-BCEE7ED4812A*
G04*
G04*
G04 #@! TF.FilePolarity,Negative*
G04*
G01*
G75*
%ADD18R,0.3622X0.1575*%
%ADD19R,0.1312X0.0560*%
%ADD20R,0.0256X0.1004*%
%ADD21R,0.0359X0.1005*%
%ADD22R,0.0256X0.1319*%
%ADD23C,0.0651*%
%ADD24C,0.0761*%
%ADD25R,0.0651X0.0651*%
D18*
X-0Y-758D02*
D03*
D19*
X-146Y-12863D02*
D03*
Y-10304D02*
D03*
Y-9304D02*
D03*
Y-11863D02*
D03*
Y-7745D02*
D03*
Y-6745D02*
D03*
Y-15422D02*
D03*
Y-14422D02*
D03*
D20*
X709Y-974D02*
D03*
X394D02*
D03*
X-551D02*
D03*
X-236D02*
D03*
X-1181Y-974D02*
D03*
X-866Y-974D02*
D03*
X79Y-974D02*
D03*
D21*
X-3513Y-18429D02*
D03*
X-1513D02*
D03*
X-2513D02*
D03*
X-3013D02*
D03*
X-1513Y-16893D02*
D03*
X-2013Y-16893D02*
D03*
X-2513Y-16893D02*
D03*
X-3013D02*
D03*
X-3513D02*
D03*
X-1013D02*
D03*
X-513Y-16893D02*
D03*
X-13Y-16893D02*
D03*
X487D02*
D03*
X987D02*
D03*
X-1013Y-18429D02*
D03*
X-513D02*
D03*
X-13D02*
D03*
X487D02*
D03*
X987D02*
D03*
D22*
X1024Y-817D02*
D03*
X1339D02*
D03*
X-1496Y-817D02*
D03*
D23*
X1210Y-7792D02*
D03*
Y-6792D02*
D03*
Y-8792D02*
D03*
Y-9792D02*
D03*
Y-10792D02*
D03*
Y-11792D02*
D03*
Y-12792D02*
D03*
Y-13792D02*
D03*
Y-14792D02*
D03*
D24*
X-1917Y-9804D02*
D03*
Y-12363D02*
D03*
Y-7245D02*
D03*
Y-14922D02*
D03*
D25*
X1210Y-15792D02*
D03*
M02*
