G04*
G04 #@! TF.GenerationSoftware,Altium Limited,Altium Designer,21.3.2 (30)*
G04*
G04 Layer_Color=16711935*
%FSLAX24Y24*%
%MOIN*%
G70*
G04*
G04 #@! TF.SameCoordinates,11860592-E2A6-4BD8-AD77-BCEE7ED4812A*
G04*
G04*
G04 #@! TF.FilePolarity,Positive*
G04*
G01*
G75*
%ADD36C,0.0050*%
D36*
X-4794Y-7872D02*
G03*
X-4794Y-7874I30J-2D01*
G01*
X-4175Y-5560D02*
G03*
X-4794Y-6179I2J-621D01*
G01*
X-2754Y-5560D02*
G03*
X-2195Y-5002I-2J560D01*
G01*
X-2165Y-2529D02*
G03*
X-2195Y-2559I0J-30D01*
G01*
X-1811Y30D02*
G03*
X-1841Y0I0J-30D01*
G01*
X1841D02*
G03*
X1811Y30I-30J0D01*
G01*
X2195Y-2559D02*
G03*
X2165Y-2529I-30J0D01*
G01*
X1577Y-19321D02*
G03*
X2195Y-18703I-2J621D01*
G01*
X1181Y-19322D02*
G03*
X1183Y-19321I0J30D01*
G01*
X-4794Y-18703D02*
G03*
X-4175Y-19321I621J2D01*
G01*
X-4794Y-17913D02*
G03*
X-4794Y-17916I30J0D01*
G01*
X-4794Y-6179D02*
X-4794Y-18703D01*
X-4175Y-5560D02*
X-2756D01*
X-2195Y-5009D02*
Y-2559D01*
X-2165Y-2529D02*
X-1841D01*
Y0D01*
X-1811Y30D02*
X1811D01*
X1841Y-2529D02*
Y0D01*
Y-2529D02*
X2165D01*
X2195Y-4727D02*
Y-2559D01*
X2195Y-18703D02*
X2195Y-4727D01*
X-4170Y-19322D02*
X1577D01*
M02*
