G04*
G04 #@! TF.GenerationSoftware,Altium Limited,Altium Designer,21.3.2 (30)*
G04*
G04 Layer_Color=32896*
%FSLAX24Y24*%
%MOIN*%
G70*
G04*
G04 #@! TF.SameCoordinates,11860592-E2A6-4BD8-AD77-BCEE7ED4812A*
G04*
G04*
G04 #@! TF.FilePolarity,Positive*
G04*
G01*
G75*
%ADD10C,0.0100*%
%ADD28C,0.0080*%
%ADD37C,0.0090*%
%ADD38C,0.0072*%
%ADD39C,0.0150*%
D10*
X1000Y30D02*
G03*
X1000Y30I-1000J0D01*
G01*
X1203Y554D02*
X1407Y586D01*
X1418Y48D01*
X1203Y554D02*
X1418Y48D01*
X1420Y-500D02*
Y50D01*
X1220Y-450D02*
X1420Y50D01*
X1220Y-450D02*
X1420Y-500D01*
D28*
X-10532Y19222D02*
X-1378Y10069D01*
X-11171Y17884D02*
X-11030Y17742D01*
X-11030Y17813D02*
X-10429Y18485D01*
X-11383Y17884D02*
X-11030Y17530D01*
X-11242Y17884D02*
X-11030Y17672D01*
X-11312Y17884D02*
X-11030Y17601D01*
X-12320Y16593D02*
X-10146Y18767D01*
X-11030Y17530D02*
X-10146Y18767D01*
X-11030Y17601D02*
X-10216Y18697D01*
X-11030Y17742D02*
X-10358Y18555D01*
X-11030Y17672D02*
X-10287Y18626D01*
X-11312Y17884D02*
X-10216Y18697D01*
X-11100Y17884D02*
X-11030Y17813D01*
X-11100Y17884D02*
X-10429Y18485D01*
X-11383Y17884D02*
X-10146Y18767D01*
X-11171Y17884D02*
X-10358Y18555D01*
X-11242Y17884D02*
X-10287Y18626D01*
X-1181Y9872D02*
X-827Y9518D01*
X5807Y11330D02*
X6007Y9980D01*
X5857Y11280D02*
X6157D01*
X5757Y11380D02*
X6007Y9880D01*
X5757Y11380D02*
X6257D01*
X5807Y11330D02*
X6207D01*
X5857Y11280D02*
X6007Y10080D01*
X5907Y11230D02*
X6107D01*
X6007Y10080D02*
X6157Y11280D01*
X6007Y9980D02*
X6207Y11330D01*
X5957Y11180D02*
X6057D01*
X5957D02*
X6007Y10280D01*
X5907Y11230D02*
X6007Y10180D01*
Y10280D02*
X6057Y11180D01*
X6007Y10180D02*
X6107Y11230D01*
X6007Y9880D02*
Y12830D01*
Y9880D02*
X6257Y11380D01*
X-1181Y9872D02*
Y19748D01*
X-354Y9518D02*
X-0Y9872D01*
X6000Y6518D02*
Y9468D01*
X-354Y5659D02*
Y9203D01*
X-827Y5659D02*
Y9203D01*
X1096Y6297D02*
Y6597D01*
X1046Y6347D02*
Y6547D01*
X1196Y6197D02*
Y6697D01*
X1146Y6247D02*
Y6647D01*
X-104Y6447D02*
X1096Y6297D01*
X-4Y6447D02*
X1046Y6347D01*
X-304Y6447D02*
X1196Y6197D01*
X-204Y6447D02*
X1146Y6247D01*
X96Y6447D02*
X996Y6397D01*
Y6497D01*
X-4Y6447D02*
X1046Y6547D01*
X96Y6447D02*
X996Y6497D01*
X-304Y6447D02*
X2646D01*
X-3827D02*
X-877D01*
X-304D02*
X1196Y6697D01*
X-204Y6447D02*
X1146Y6647D01*
X-104Y6447D02*
X1096Y6597D01*
X-2327Y6247D02*
X-977Y6447D01*
X-2277Y6297D02*
X-1077Y6447D01*
X-2277Y6297D02*
Y6597D01*
X-2327Y6247D02*
Y6647D01*
X-2377Y6197D02*
X-877Y6447D01*
X-2377Y6197D02*
Y6697D01*
X-2227Y6347D02*
X-1177Y6447D01*
X-2177Y6397D02*
X-1277Y6447D01*
X-2177Y6497D02*
X-1277Y6447D01*
X-2177Y6397D02*
Y6497D01*
X-2227Y6547D02*
X-1177Y6447D01*
X-2227Y6347D02*
Y6547D01*
X-2377Y6697D02*
X-877Y6447D01*
X-2327Y6647D02*
X-977Y6447D01*
X-2277Y6597D02*
X-1077Y6447D01*
X5900Y8118D02*
X6100D01*
X6000Y9168D02*
X6100Y8118D01*
X5950Y8168D02*
X6050D01*
X6000Y9068D02*
X6050Y8168D01*
X5950D02*
X6000Y9068D01*
Y9468D02*
X6250Y7968D01*
X6000Y9368D02*
X6200Y8018D01*
X6000Y9268D02*
X6150Y8068D01*
X5750Y7968D02*
X6250D01*
X5800Y8018D02*
X6200D01*
X5850Y8068D02*
X6150D01*
X5900Y8118D02*
X6000Y9168D01*
X5850Y8068D02*
X6000Y9268D01*
X-0Y9518D02*
X6299D01*
X354Y9872D02*
X6299D01*
X5750Y7968D02*
X6000Y9468D01*
X5800Y8018D02*
X6000Y9368D01*
X-0Y9872D02*
Y18873D01*
X-1131Y22470D02*
X369Y22220D01*
X-1131Y22470D02*
X1944D01*
X-431Y18873D02*
X-0D01*
X369Y22220D02*
Y22720D01*
X-1131Y22470D02*
X369Y22720D01*
X-556Y18248D02*
X-431Y18873D01*
X-827Y9518D02*
X-354D01*
X-1181Y19748D02*
X-556Y18248D01*
X-1181Y20108D02*
Y23258D01*
X-931Y22470D02*
X269Y22320D01*
X-831Y22470D02*
X219Y22370D01*
X-731Y22470D02*
X169Y22420D01*
Y22520D01*
X-731Y22470D02*
X169Y22520D01*
X319Y22270D02*
Y22670D01*
X269Y22320D02*
Y22620D01*
X219Y22370D02*
Y22570D01*
X-831Y22470D02*
X219Y22570D01*
X-931Y22470D02*
X269Y22620D01*
X-1031Y22470D02*
X319Y22270D01*
X-1031Y22470D02*
X319Y22670D01*
X8387Y229D02*
X8458Y300D01*
X8565Y336D01*
X8708D01*
X8815Y300D01*
X8887Y229D01*
Y158D01*
X8851Y86D01*
X8815Y51D01*
X8744Y15D01*
X8530Y-57D01*
X8458Y-92D01*
X8423Y-128D01*
X8387Y-199D01*
Y-307D01*
X8458Y-378D01*
X8565Y-414D01*
X8708D01*
X8815Y-378D01*
X8887Y-307D01*
X7755Y336D02*
X8219D01*
Y-414D01*
X7755D01*
X8219Y-21D02*
X7933D01*
X7166Y336D02*
X7630D01*
Y-414D01*
X7166D01*
X7630Y-21D02*
X7344D01*
X6452Y336D02*
Y-414D01*
Y336D02*
X6202D01*
X6094Y300D01*
X6023Y229D01*
X5987Y158D01*
X5952Y51D01*
Y-128D01*
X5987Y-235D01*
X6023Y-307D01*
X6094Y-378D01*
X6202Y-414D01*
X6452D01*
X5320Y336D02*
X5784D01*
Y-414D01*
X5320D01*
X5784Y-21D02*
X5498D01*
X4945Y336D02*
Y-414D01*
X5195Y336D02*
X4695D01*
X4034Y-414D02*
X4320Y336D01*
X4605Y-414D01*
X4498Y-164D02*
X4141D01*
X3859Y336D02*
Y-414D01*
X3702Y336D02*
Y-414D01*
X3274D01*
X2031D02*
X2317Y336D01*
X2602Y-414D01*
X2495Y-164D02*
X2138D01*
D37*
X-4709Y6847D02*
X-4580Y6804D01*
X-4494Y6675D01*
X-4452Y6461D01*
Y6332D01*
X-4494Y6118D01*
X-4580Y5990D01*
X-4709Y5947D01*
X-4794D01*
X-4923Y5990D01*
X-5009Y6118D01*
X-5051Y6332D01*
Y6461D01*
X-5009Y6675D01*
X-4923Y6804D01*
X-4794Y6847D01*
X-4709D01*
X-5296Y6033D02*
X-5253Y5990D01*
X-5296Y5947D01*
X-5339Y5990D01*
X-5296Y6033D01*
X-5793Y6847D02*
X-5664Y6804D01*
X-5578Y6675D01*
X-5536Y6461D01*
Y6332D01*
X-5578Y6118D01*
X-5664Y5990D01*
X-5793Y5947D01*
X-5878D01*
X-6007Y5990D01*
X-6093Y6118D01*
X-6136Y6332D01*
Y6461D01*
X-6093Y6675D01*
X-6007Y6804D01*
X-5878Y6847D01*
X-5793D01*
X-6337Y6675D02*
X-6423Y6718D01*
X-6551Y6847D01*
Y5947D01*
X-7511Y6718D02*
X-7468Y6804D01*
X-7340Y6847D01*
X-7254D01*
X-7125Y6804D01*
X-7040Y6675D01*
X-6997Y6461D01*
Y6247D01*
X-7040Y6075D01*
X-7125Y5990D01*
X-7254Y5947D01*
X-7297D01*
X-7425Y5990D01*
X-7511Y6075D01*
X-7554Y6204D01*
Y6247D01*
X-7511Y6375D01*
X-7425Y6461D01*
X-7297Y6504D01*
X-7254D01*
X-7125Y6461D01*
X-7040Y6375D01*
X-6997Y6247D01*
X-7837Y6847D02*
X-7879Y6804D01*
X-7922Y6847D01*
X-7879Y6890D01*
X-7837Y6847D01*
X-7879Y6547D02*
Y5947D01*
X-8081Y6547D02*
Y5947D01*
Y6375D02*
X-8209Y6504D01*
X-8295Y6547D01*
X-8424D01*
X-8509Y6504D01*
X-8552Y6375D01*
Y5947D01*
X-9495Y6761D02*
Y5904D01*
X-9538Y6761D02*
Y5904D01*
X-9495Y6761D02*
X-9709D01*
X-9495Y5904D02*
X-9709D01*
X-10082Y6847D02*
X-9953Y6804D01*
X-9868Y6675D01*
X-9825Y6461D01*
Y6332D01*
X-9868Y6118D01*
X-9953Y5990D01*
X-10082Y5947D01*
X-10167D01*
X-10296Y5990D01*
X-10382Y6118D01*
X-10425Y6332D01*
Y6461D01*
X-10382Y6675D01*
X-10296Y6804D01*
X-10167Y6847D01*
X-10082D01*
X-10669Y6033D02*
X-10626Y5990D01*
X-10669Y5947D01*
X-10712Y5990D01*
X-10669Y6033D01*
X-11337Y6847D02*
X-10909Y6247D01*
X-11551D01*
X-11337Y6847D02*
Y5947D01*
X-11710Y6547D02*
Y5947D01*
Y6375D02*
X-11839Y6504D01*
X-11924Y6547D01*
X-12053D01*
X-12139Y6504D01*
X-12181Y6375D01*
Y5947D01*
Y6375D02*
X-12310Y6504D01*
X-12396Y6547D01*
X-12524D01*
X-12610Y6504D01*
X-12653Y6375D01*
Y5947D01*
X-12935Y6547D02*
Y5947D01*
Y6375D02*
X-13064Y6504D01*
X-13150Y6547D01*
X-13278D01*
X-13364Y6504D01*
X-13407Y6375D01*
Y5947D01*
Y6375D02*
X-13535Y6504D01*
X-13621Y6547D01*
X-13750D01*
X-13835Y6504D01*
X-13878Y6375D01*
Y5947D01*
X-14332Y6761D02*
Y5904D01*
X-14375Y6761D02*
Y5904D01*
X-14161Y6761D02*
X-14375D01*
X-14161Y5904D02*
X-14375D01*
X-4896Y19646D02*
X-4468Y19047D01*
X-5110D01*
X-4896Y19646D02*
Y18747D01*
X-5783Y19646D02*
X-5354D01*
X-5312Y19261D01*
X-5354Y19304D01*
X-5483Y19347D01*
X-5612D01*
X-5740Y19304D01*
X-5826Y19218D01*
X-5869Y19089D01*
Y19004D01*
X-5826Y18875D01*
X-5740Y18789D01*
X-5612Y18747D01*
X-5483D01*
X-5354Y18789D01*
X-5312Y18832D01*
X-5269Y18918D01*
X12020Y13937D02*
X12148Y13894D01*
X12234Y13766D01*
X12277Y13552D01*
Y13423D01*
X12234Y13209D01*
X12148Y13080D01*
X12020Y13037D01*
X11934D01*
X11806Y13080D01*
X11720Y13209D01*
X11677Y13423D01*
Y13552D01*
X11720Y13766D01*
X11806Y13894D01*
X11934Y13937D01*
X12020D01*
X11433Y13123D02*
X11476Y13080D01*
X11433Y13037D01*
X11390Y13080D01*
X11433Y13123D01*
X10936Y13937D02*
X11064Y13894D01*
X11150Y13766D01*
X11193Y13552D01*
Y13423D01*
X11150Y13209D01*
X11064Y13080D01*
X10936Y13037D01*
X10850D01*
X10721Y13080D01*
X10636Y13209D01*
X10593Y13423D01*
Y13552D01*
X10636Y13766D01*
X10721Y13894D01*
X10850Y13937D01*
X10936D01*
X10392Y13766D02*
X10306Y13809D01*
X10177Y13937D01*
Y13037D01*
X9689Y13723D02*
Y13766D01*
X9646Y13852D01*
X9603Y13894D01*
X9517Y13937D01*
X9346D01*
X9260Y13894D01*
X9218Y13852D01*
X9175Y13766D01*
Y13680D01*
X9218Y13594D01*
X9303Y13466D01*
X9732Y13037D01*
X9132D01*
X8845Y13937D02*
X8802Y13894D01*
X8759Y13937D01*
X8802Y13980D01*
X8845Y13937D01*
X8802Y13637D02*
Y13037D01*
X8600Y13637D02*
Y13037D01*
Y13466D02*
X8472Y13594D01*
X8386Y13637D01*
X8258D01*
X8172Y13594D01*
X8129Y13466D01*
Y13037D01*
X7187Y13852D02*
Y12995D01*
X7144Y13852D02*
Y12995D01*
X7187Y13852D02*
X6972D01*
X7187Y12995D02*
X6972D01*
X6599Y13937D02*
X6728Y13894D01*
X6814Y13766D01*
X6857Y13552D01*
Y13423D01*
X6814Y13209D01*
X6728Y13080D01*
X6599Y13037D01*
X6514D01*
X6385Y13080D01*
X6300Y13209D01*
X6257Y13423D01*
Y13552D01*
X6300Y13766D01*
X6385Y13894D01*
X6514Y13937D01*
X6599D01*
X6012Y13123D02*
X6055Y13080D01*
X6012Y13037D01*
X5970Y13080D01*
X6012Y13123D01*
X5687Y13937D02*
X5216D01*
X5473Y13594D01*
X5344D01*
X5258Y13552D01*
X5216Y13509D01*
X5173Y13380D01*
Y13294D01*
X5216Y13166D01*
X5301Y13080D01*
X5430Y13037D01*
X5558D01*
X5687Y13080D01*
X5730Y13123D01*
X5773Y13209D01*
X4971Y13637D02*
Y13037D01*
Y13466D02*
X4843Y13594D01*
X4757Y13637D01*
X4628D01*
X4543Y13594D01*
X4500Y13466D01*
Y13037D01*
Y13466D02*
X4371Y13594D01*
X4286Y13637D01*
X4157D01*
X4071Y13594D01*
X4029Y13466D01*
Y13037D01*
X3746Y13637D02*
Y13037D01*
Y13466D02*
X3617Y13594D01*
X3532Y13637D01*
X3403D01*
X3317Y13594D01*
X3274Y13466D01*
Y13037D01*
Y13466D02*
X3146Y13594D01*
X3060Y13637D01*
X2932D01*
X2846Y13594D01*
X2803Y13466D01*
Y13037D01*
X2349Y13852D02*
Y12995D01*
X2306Y13852D02*
Y12995D01*
X2520Y13852D02*
X2306D01*
X2520Y12995D02*
X2306D01*
D38*
X-6207Y20067D02*
X-6161Y20044D01*
X-6115Y19998D01*
X-6093Y19929D01*
Y19884D01*
X-6115Y19815D01*
X-6161Y19770D01*
X-6207Y19747D01*
X-6275D01*
X-6321Y19770D01*
X-6367Y19815D01*
X-6390Y19884D01*
Y19929D01*
X-6367Y19998D01*
X-6321Y20044D01*
X-6275Y20067D01*
X-6207D01*
D39*
X2500Y25747D02*
Y24248D01*
Y25747D02*
X2000D01*
X1786Y25676D01*
X1643Y25533D01*
X1572Y25390D01*
X1500Y25176D01*
Y24819D01*
X1572Y24605D01*
X1643Y24462D01*
X1786Y24319D01*
X2000Y24248D01*
X2500D01*
X236Y25747D02*
X1165D01*
Y24248D01*
X236D01*
X1165Y25033D02*
X593D01*
X-514Y25747D02*
Y24248D01*
X-14Y25747D02*
X-1014D01*
X-2335Y24248D02*
X-1763Y25747D01*
X-1192Y24248D01*
X-1406Y24748D02*
X-2120D01*
X-2685Y25747D02*
Y24248D01*
X-2999Y25747D02*
Y24248D01*
X-3856D01*
X-6341D02*
X-5770Y25747D01*
X-5198Y24248D01*
X-5413Y24748D02*
X-6127D01*
M02*
