G04*
G04 #@! TF.GenerationSoftware,Altium Limited,Altium Designer,21.3.2 (30)*
G04*
G04 Layer_Color=39423*
%FSLAX24Y24*%
%MOIN*%
G70*
G04*
G04 #@! TF.SameCoordinates,11860592-E2A6-4BD8-AD77-BCEE7ED4812A*
G04*
G04*
G04 #@! TF.FilePolarity,Positive*
G04*
G01*
G75*
%ADD16R,0.1252X0.0500*%
%ADD17R,0.0299X0.0945*%
G36*
X-306Y-3106D02*
X-306Y-3106D01*
X-305Y-3108D01*
X-303Y-3111D01*
X-301Y-3115D01*
X-298Y-3120D01*
X-295Y-3125D01*
X-292Y-3130D01*
X-288Y-3135D01*
X-287Y-3136D01*
X-285Y-3138D01*
X-283Y-3141D01*
X-279Y-3145D01*
X-274Y-3150D01*
X-269Y-3156D01*
X-262Y-3162D01*
X-254Y-3169D01*
Y-3181D01*
X-255Y-3181D01*
X-256Y-3180D01*
X-257Y-3180D01*
X-260Y-3178D01*
X-262Y-3177D01*
X-265Y-3175D01*
X-268Y-3174D01*
X-272Y-3172D01*
X-279Y-3167D01*
X-287Y-3162D01*
X-295Y-3157D01*
X-298Y-3154D01*
X-302Y-3151D01*
Y-3376D01*
X-317D01*
Y-3151D01*
X-318Y-3151D01*
X-319Y-3153D01*
X-322Y-3155D01*
X-325Y-3157D01*
X-329Y-3160D01*
X-332Y-3162D01*
X-336Y-3165D01*
X-339Y-3167D01*
X-339Y-3167D01*
X-340Y-3168D01*
X-342Y-3169D01*
X-345Y-3170D01*
X-348Y-3172D01*
X-353Y-3175D01*
X-358Y-3177D01*
X-364Y-3181D01*
Y-3169D01*
X-364Y-3169D01*
X-363Y-3168D01*
X-362Y-3167D01*
X-361Y-3165D01*
X-359Y-3164D01*
X-357Y-3162D01*
X-352Y-3157D01*
X-346Y-3151D01*
X-341Y-3146D01*
X-335Y-3140D01*
X-330Y-3134D01*
Y-3134D01*
X-330Y-3133D01*
X-329Y-3131D01*
X-327Y-3128D01*
X-324Y-3125D01*
X-321Y-3121D01*
X-318Y-3116D01*
X-316Y-3111D01*
X-313Y-3106D01*
X-306D01*
Y-3106D01*
D02*
G37*
D16*
X-146Y-12863D02*
D03*
Y-10304D02*
D03*
Y-9304D02*
D03*
Y-11863D02*
D03*
Y-7745D02*
D03*
Y-6745D02*
D03*
Y-15422D02*
D03*
Y-14422D02*
D03*
D17*
X-3513Y-18429D02*
D03*
X-1513D02*
D03*
X-2513D02*
D03*
X-3013D02*
D03*
X-1513Y-16893D02*
D03*
X-2013Y-16893D02*
D03*
X-2513Y-16893D02*
D03*
X-3013D02*
D03*
X-3513D02*
D03*
X-1013D02*
D03*
X-513Y-16893D02*
D03*
X-13Y-16893D02*
D03*
X487D02*
D03*
X987D02*
D03*
X-1013Y-18429D02*
D03*
X-513D02*
D03*
X-13D02*
D03*
X487D02*
D03*
X987D02*
D03*
M02*
