G04*
G04 #@! TF.GenerationSoftware,Altium Limited,Altium Designer,21.3.2 (30)*
G04*
G04 Layer_Physical_Order=2*
G04 Layer_Color=16711680*
%FSLAX24Y24*%
%MOIN*%
G70*
G04*
G04 #@! TF.SameCoordinates,11860592-E2A6-4BD8-AD77-BCEE7ED4812A*
G04*
G04*
G04 #@! TF.FilePolarity,Positive*
G04*
G01*
G75*
%ADD26R,0.0236X0.0984*%
%ADD27R,0.0236X0.1299*%
%ADD28C,0.0080*%
%ADD29C,0.0200*%
%ADD30C,0.0236*%
%ADD31C,0.0591*%
%ADD32C,0.0701*%
%ADD33R,0.0591X0.0591*%
%ADD34C,0.0240*%
G36*
X-1557Y-1596D02*
X-1542Y-1640D01*
Y-2009D01*
X-1527Y-2087D01*
X-1483Y-2153D01*
X-938Y-2698D01*
Y-4380D01*
X-976Y-4411D01*
X-1014Y-4404D01*
X-1100Y-4421D01*
X-1172Y-4469D01*
X-1182Y-4483D01*
X-1201D01*
X-1201Y-4483D01*
X-1255Y-4494D01*
X-1302Y-4525D01*
X-1302Y-4525D01*
X-1410Y-4633D01*
X-1441Y-4680D01*
X-1452Y-4734D01*
X-1452Y-4734D01*
Y-5168D01*
X-1452Y-5168D01*
X-1441Y-5223D01*
X-1410Y-5269D01*
X-1218Y-5461D01*
Y-7796D01*
X-1725Y-8303D01*
X-1756Y-8350D01*
X-1767Y-8404D01*
X-1767Y-8404D01*
Y-9232D01*
X-1767Y-9232D01*
X-1756Y-9287D01*
X-1725Y-9333D01*
X-1710Y-9348D01*
X-1738Y-9390D01*
X-1799Y-9365D01*
X-1917Y-9350D01*
X-2034Y-9365D01*
X-2144Y-9411D01*
X-2238Y-9483D01*
X-2310Y-9577D01*
X-2355Y-9687D01*
X-2371Y-9804D01*
X-2355Y-9922D01*
X-2310Y-10031D01*
X-2238Y-10125D01*
X-2144Y-10198D01*
X-2034Y-10243D01*
X-1917Y-10258D01*
X-1799Y-10243D01*
X-1689Y-10198D01*
X-1595Y-10125D01*
X-1523Y-10031D01*
X-1478Y-9922D01*
X-1462Y-9804D01*
X-1478Y-9687D01*
X-1503Y-9626D01*
X-1460Y-9598D01*
X-1383Y-9675D01*
Y-10589D01*
X-1399Y-10599D01*
X-1447Y-10672D01*
X-1464Y-10758D01*
X-1447Y-10844D01*
X-1399Y-10916D01*
X-1326Y-10965D01*
X-1286Y-10973D01*
X-1246Y-11030D01*
X-1247Y-11033D01*
X-1230Y-11119D01*
X-1181Y-11192D01*
X-1108Y-11241D01*
X-1022Y-11258D01*
X-976Y-11249D01*
X-938Y-11280D01*
Y-12027D01*
X-968Y-12057D01*
X-1012Y-12124D01*
X-1028Y-12202D01*
Y-12780D01*
X-1031Y-12785D01*
X-1048Y-12871D01*
X-1031Y-12957D01*
X-982Y-13030D01*
X-910Y-13078D01*
X-824Y-13095D01*
X-738Y-13078D01*
X-665Y-13030D01*
X-616Y-12957D01*
X-599Y-12871D01*
X-616Y-12785D01*
X-620Y-12780D01*
Y-12584D01*
X-570Y-12553D01*
X-502Y-12567D01*
X-456Y-12558D01*
X-418Y-12589D01*
Y-13765D01*
X-423Y-13771D01*
X-477Y-13807D01*
X-526Y-13880D01*
X-543Y-13966D01*
X-526Y-14051D01*
X-477Y-14124D01*
X-404Y-14173D01*
X-319Y-14190D01*
X-233Y-14173D01*
X-208Y-14156D01*
X-158Y-14183D01*
Y-14722D01*
X-174Y-14739D01*
X-179Y-14740D01*
X-252Y-14788D01*
X-301Y-14861D01*
X-318Y-14947D01*
X-301Y-15033D01*
X-252Y-15106D01*
X-179Y-15154D01*
X-94Y-15171D01*
X-8Y-15154D01*
X62Y-15107D01*
X89Y-15113D01*
X112Y-15120D01*
Y-16509D01*
X112Y-16509D01*
X123Y-16563D01*
X154Y-16609D01*
X532Y-16987D01*
X532Y-16987D01*
X532Y-16987D01*
X818Y-17273D01*
X775Y-17338D01*
X766Y-17380D01*
X710Y-17405D01*
X702Y-17400D01*
X690Y-17338D01*
X641Y-17265D01*
X568Y-17216D01*
X483Y-17199D01*
X397Y-17216D01*
X324Y-17265D01*
X275Y-17338D01*
X267Y-17381D01*
X211Y-17406D01*
X202Y-17401D01*
X190Y-17338D01*
X141Y-17265D01*
X68Y-17216D01*
X-17Y-17199D01*
X-103Y-17216D01*
X-176Y-17265D01*
X-225Y-17338D01*
X-233Y-17381D01*
X-289Y-17406D01*
X-298Y-17401D01*
X-310Y-17338D01*
X-359Y-17265D01*
X-432Y-17216D01*
X-517Y-17199D01*
X-603Y-17216D01*
X-676Y-17265D01*
X-725Y-17338D01*
X-733Y-17381D01*
X-789Y-17406D01*
X-798Y-17401D01*
X-810Y-17338D01*
X-859Y-17265D01*
X-932Y-17216D01*
X-1017Y-17199D01*
X-1103Y-17216D01*
X-1176Y-17265D01*
X-1225Y-17338D01*
X-1242Y-17424D01*
X-1225Y-17510D01*
X-1176Y-17582D01*
X-1103Y-17631D01*
X-1017Y-17648D01*
X-999Y-17644D01*
X-478Y-18165D01*
X-478Y-18165D01*
X-432Y-18196D01*
X-377Y-18206D01*
X-377Y-18206D01*
X1255D01*
X1255Y-18206D01*
X1310Y-18196D01*
X1356Y-18165D01*
X1723Y-17798D01*
X1723Y-17798D01*
X1754Y-17751D01*
X1765Y-17697D01*
Y-17083D01*
X1765Y-17083D01*
X1754Y-17029D01*
X1723Y-16982D01*
X1617Y-16877D01*
X1617Y-16877D01*
X978Y-16238D01*
X999Y-16188D01*
X1160D01*
Y-15792D01*
Y-15397D01*
X958D01*
Y-15247D01*
X1051Y-15154D01*
X1107Y-15177D01*
X1210Y-15191D01*
X1314Y-15177D01*
X1410Y-15138D01*
X1492Y-15074D01*
X1556Y-14992D01*
X1595Y-14896D01*
X1609Y-14792D01*
X1595Y-14689D01*
X1572Y-14633D01*
X2022Y-14183D01*
X2068Y-14202D01*
Y-18703D01*
X2069Y-18707D01*
X2053Y-18829D01*
X2003Y-18948D01*
X1925Y-19051D01*
X1822Y-19129D01*
X1703Y-19179D01*
X1581Y-19195D01*
X1577Y-19194D01*
X1223D01*
X1184Y-19194D01*
X1183Y-19194D01*
X1181Y-19183D01*
X1173Y-19187D01*
X1166Y-19194D01*
X-4125D01*
X-4170Y-19194D01*
X-4175Y-19194D01*
X-4223Y-19189D01*
X-4301Y-19179D01*
X-4421Y-19129D01*
X-4523Y-19051D01*
X-4602Y-18948D01*
X-4651Y-18829D01*
X-4667Y-18707D01*
X-4666Y-18703D01*
Y-17963D01*
X-4656Y-17913D01*
X-4659Y-17906D01*
X-4666Y-17899D01*
X-4666Y-17863D01*
X-4666Y-7930D01*
X-4662Y-7899D01*
X-4656Y-7874D01*
X-4656Y-7874D01*
X-4660Y-7873D01*
X-4666Y-7836D01*
Y-7827D01*
X-4666Y-6179D01*
X-4667Y-6175D01*
X-4651Y-6053D01*
X-4602Y-5934D01*
X-4523Y-5831D01*
X-4421Y-5753D01*
X-4301Y-5703D01*
X-4179Y-5687D01*
X-4175Y-5688D01*
X-2803D01*
X-2753Y-5689D01*
Y-5689D01*
X-2622Y-5676D01*
X-2492Y-5636D01*
X-2373Y-5573D01*
X-2269Y-5487D01*
X-2183Y-5383D01*
X-2120Y-5264D01*
X-2080Y-5134D01*
X-2067Y-5003D01*
X-2068Y-5003D01*
X-2068Y-5002D01*
X-2068Y-5002D01*
Y-2656D01*
X-1841D01*
X-1828Y-2654D01*
X-1811Y-2657D01*
X-1762Y-2647D01*
X-1721Y-2620D01*
X-1693Y-2578D01*
X-1684Y-2530D01*
Y-1596D01*
X-1557D01*
D02*
G37*
G36*
X1546Y-1567D02*
X1684D01*
Y-2530D01*
X1693Y-2578D01*
X1721Y-2620D01*
X1762Y-2647D01*
X1811Y-2657D01*
X1828Y-2654D01*
X1841Y-2656D01*
X2068D01*
Y-4727D01*
Y-5334D01*
X2022Y-5353D01*
X949Y-4281D01*
Y-1982D01*
X1261Y-1670D01*
X1261Y-1670D01*
X1292Y-1624D01*
X1303Y-1569D01*
X1350Y-1567D01*
X1446D01*
Y-817D01*
X1546D01*
Y-1567D01*
D02*
G37*
%LPC*%
G36*
X-1917Y-6791D02*
X-2034Y-6806D01*
X-2144Y-6852D01*
X-2238Y-6924D01*
X-2310Y-7018D01*
X-2355Y-7128D01*
X-2371Y-7245D01*
X-2355Y-7363D01*
X-2310Y-7472D01*
X-2238Y-7566D01*
X-2144Y-7639D01*
X-2034Y-7684D01*
X-1917Y-7699D01*
X-1799Y-7684D01*
X-1689Y-7639D01*
X-1595Y-7566D01*
X-1523Y-7472D01*
X-1478Y-7363D01*
X-1462Y-7245D01*
X-1478Y-7128D01*
X-1523Y-7018D01*
X-1595Y-6924D01*
X-1689Y-6852D01*
X-1799Y-6806D01*
X-1917Y-6791D01*
D02*
G37*
G36*
Y-11909D02*
X-2034Y-11924D01*
X-2144Y-11970D01*
X-2238Y-12042D01*
X-2310Y-12136D01*
X-2355Y-12246D01*
X-2371Y-12363D01*
X-2355Y-12481D01*
X-2310Y-12590D01*
X-2238Y-12684D01*
X-2144Y-12757D01*
X-2034Y-12802D01*
X-1917Y-12818D01*
X-1799Y-12802D01*
X-1689Y-12757D01*
X-1595Y-12684D01*
X-1523Y-12590D01*
X-1478Y-12481D01*
X-1462Y-12363D01*
X-1478Y-12246D01*
X-1523Y-12136D01*
X-1595Y-12042D01*
X-1689Y-11970D01*
X-1799Y-11924D01*
X-1917Y-11909D01*
D02*
G37*
G36*
Y-14468D02*
X-2034Y-14483D01*
X-2144Y-14529D01*
X-2238Y-14601D01*
X-2310Y-14695D01*
X-2355Y-14805D01*
X-2371Y-14922D01*
X-2355Y-15040D01*
X-2310Y-15149D01*
X-2238Y-15244D01*
X-2144Y-15316D01*
X-2034Y-15361D01*
X-1917Y-15377D01*
X-1799Y-15361D01*
X-1689Y-15316D01*
X-1595Y-15244D01*
X-1523Y-15149D01*
X-1478Y-15040D01*
X-1462Y-14922D01*
X-1478Y-14805D01*
X-1523Y-14695D01*
X-1595Y-14601D01*
X-1689Y-14529D01*
X-1799Y-14483D01*
X-1917Y-14468D01*
D02*
G37*
G36*
X1606Y-15397D02*
X1260D01*
Y-15742D01*
X1606D01*
Y-15397D01*
D02*
G37*
G36*
Y-15842D02*
X1260D01*
Y-16188D01*
X1606D01*
Y-15842D01*
D02*
G37*
G36*
X-3266Y-16045D02*
X-3352Y-16062D01*
X-3425Y-16111D01*
X-3474Y-16184D01*
X-3475Y-16189D01*
X-3662Y-16376D01*
X-3706Y-16442D01*
X-3721Y-16520D01*
Y-17810D01*
X-3725Y-17815D01*
X-3742Y-17901D01*
X-3725Y-17987D01*
X-3676Y-18060D01*
X-3603Y-18108D01*
X-3517Y-18125D01*
X-3432Y-18108D01*
X-3359Y-18060D01*
X-3310Y-17987D01*
X-3293Y-17901D01*
X-3310Y-17815D01*
X-3314Y-17810D01*
Y-16605D01*
X-3186Y-16478D01*
X-3181Y-16477D01*
X-3108Y-16428D01*
X-3059Y-16355D01*
X-3042Y-16269D01*
X-3059Y-16184D01*
X-3108Y-16111D01*
X-3181Y-16062D01*
X-3266Y-16045D01*
D02*
G37*
%LPD*%
D26*
X-1339Y-974D02*
D03*
X-1024Y-974D02*
D03*
X-709D02*
D03*
X-394Y-974D02*
D03*
X236D02*
D03*
X551D02*
D03*
X866Y-974D02*
D03*
X1181D02*
D03*
X-79Y-974D02*
D03*
D27*
X1496Y-817D02*
D03*
D28*
X982Y-17268D02*
G03*
X958Y-17212I-80J-0D01*
G01*
X1178Y-17538D02*
G03*
X1202Y-17482I-57J57D01*
G01*
X1318Y-17604D02*
G03*
X1342Y-17548I-57J57D01*
G01*
X1482Y-17174D02*
G03*
X1458Y-17118I-80J0D01*
G01*
X246Y-1919D02*
G03*
X223Y-1863I-80J0D01*
G01*
X-1309Y-5168D02*
X-1075Y-5402D01*
X-1309Y-5168D02*
Y-4734D01*
X-1087Y-4956D02*
Y-4919D01*
X-1201Y-4626D02*
X-1016D01*
X-1309Y-4734D02*
X-1201Y-4626D01*
X-1087Y-4956D02*
X-935Y-5107D01*
Y-5610D02*
Y-5107D01*
X-1016Y-4626D02*
X-1014Y-4628D01*
X-934Y-7912D02*
Y-5610D01*
X-1624Y-8404D02*
X-1075Y-7855D01*
Y-5402D01*
X815Y-10397D02*
X1210Y-10792D01*
X815Y-10397D02*
Y-5143D01*
X255Y-11748D02*
X1210Y-10792D01*
X255Y-16509D02*
Y-11748D01*
X633Y-16887D02*
X958Y-17212D01*
X982Y-17268D02*
X982Y-17424D01*
X-1624Y-9232D02*
X-1240Y-9616D01*
Y-10758D02*
Y-9616D01*
X-1020Y-11031D02*
Y-9629D01*
X-1022Y-11033D02*
X-1020Y-11031D01*
X-1481Y-9168D02*
X-1020Y-9629D01*
X1210Y-12792D02*
X1746Y-12257D01*
X535Y-13468D02*
X1210Y-12792D01*
X535Y-16393D02*
Y-13468D01*
X1210Y-11792D02*
X1606Y-11397D01*
X395Y-12608D02*
X1210Y-11792D01*
X395Y-16451D02*
Y-12608D01*
Y-16451D02*
X1058Y-17113D01*
X675Y-16335D02*
Y-14328D01*
X1886Y-13117D01*
X255Y-16509D02*
X633Y-16887D01*
X675Y-16335D02*
X925Y-16585D01*
X535Y-16393D02*
X743Y-16600D01*
X526Y-4456D02*
Y-1727D01*
X551Y-1702D01*
X386Y-4514D02*
X1606Y-5733D01*
Y-11397D02*
Y-5733D01*
X236Y-1537D02*
X386Y-1688D01*
Y-4514D02*
Y-1688D01*
X666Y-4398D02*
Y-1785D01*
X1746Y-12257D02*
Y-5675D01*
X1886Y-13117D02*
Y-5617D01*
X806Y-4340D02*
Y-1923D01*
X551Y-1702D02*
Y-1004D01*
X666Y-1785D02*
X866Y-1585D01*
X526Y-4456D02*
X1746Y-5675D01*
X666Y-4398D02*
X1886Y-5617D01*
X806Y-4340D02*
X2026Y-5559D01*
Y-13977D02*
Y-5559D01*
X246Y-4575D02*
X815Y-5143D01*
X806Y-1923D02*
X1160Y-1569D01*
X815Y-15188D02*
X1210Y-14792D01*
X2026Y-13977D01*
X1058Y-17113D02*
X1202Y-17257D01*
Y-17482D02*
X1202Y-17482D01*
X1202Y-17482D02*
Y-17257D01*
X815Y-16277D02*
X1516Y-16978D01*
X743Y-16600D02*
Y-16600D01*
Y-16600D02*
X1342Y-17199D01*
Y-17548D02*
Y-17199D01*
X815Y-16277D02*
Y-15188D01*
X1058Y-17113D02*
Y-17113D01*
X743Y-16600D02*
X743D01*
X1516Y-16978D02*
X1622Y-17083D01*
X1516Y-16978D02*
X1516D01*
X925Y-16585D02*
X1458Y-17118D01*
X246Y-4575D02*
Y-1919D01*
X-1481Y-8460D02*
X-934Y-7912D01*
X1139Y-17784D02*
X1318Y-17604D01*
X-1481Y-9168D02*
Y-8460D01*
X-1624Y-9232D02*
Y-8404D01*
X1482Y-17639D02*
Y-17174D01*
X-71Y-1569D02*
X223Y-1863D01*
X1622Y-17697D02*
Y-17083D01*
X633Y-16887D02*
X633D01*
X1073Y-17644D02*
X1178Y-17538D01*
X343Y-17784D02*
X1139D01*
X-17Y-17424D02*
X343Y-17784D01*
X-17Y-17924D02*
X1197D01*
X-517Y-17424D02*
X-17Y-17924D01*
X-1017Y-17424D02*
X-377Y-18064D01*
X1255D01*
X483Y-17424D02*
X703Y-17644D01*
X1073D01*
X1255Y-18064D02*
X1622Y-17697D01*
X1197Y-17924D02*
X1482Y-17639D01*
X1160Y-1025D02*
X1181Y-1004D01*
X1160Y-1569D02*
Y-1025D01*
X866Y-1585D02*
Y-1004D01*
X-79Y-1004D02*
X-71Y-1012D01*
Y-1569D02*
Y-1012D01*
X236Y-1537D02*
Y-1004D01*
D29*
X46Y-8347D02*
X68Y-8326D01*
X-214Y-13850D02*
Y-2396D01*
X-824Y-12871D02*
Y-12202D01*
X-516Y-12344D02*
X-474Y-12301D01*
X-734Y-12112D02*
Y-2614D01*
X-474Y-12301D02*
Y-2506D01*
X46Y-14807D02*
Y-8347D01*
X68Y-8326D02*
Y-8318D01*
X-94Y-14947D02*
X46Y-14807D01*
X-319Y-13966D02*
Y-13955D01*
X-824Y-12202D02*
X-734Y-12112D01*
X-319Y-13955D02*
X-214Y-13850D01*
X57Y-8307D02*
X68Y-8318D01*
X46Y-8307D02*
Y-2286D01*
X-1339Y-2009D02*
X-734Y-2614D01*
X-1339Y-2009D02*
Y-1004D01*
X-3517Y-16520D02*
X-3266Y-16269D01*
X-3517Y-17901D02*
Y-16520D01*
X-394Y-1846D02*
Y-1004D01*
Y-1846D02*
X46Y-2286D01*
X-1024Y-1956D02*
X-474Y-2506D01*
X-709Y-1901D02*
X-214Y-2396D01*
X-1260Y-9070D02*
Y-8553D01*
Y-9070D02*
X-1022Y-9307D01*
X-1024Y-1956D02*
Y-1004D01*
X-709Y-1901D02*
Y-1004D01*
D30*
X1496Y-1801D02*
Y-817D01*
D31*
X1210Y-7792D02*
D03*
Y-6792D02*
D03*
Y-8792D02*
D03*
Y-9792D02*
D03*
Y-10792D02*
D03*
Y-11792D02*
D03*
Y-12792D02*
D03*
Y-13792D02*
D03*
Y-14792D02*
D03*
D32*
X-1917Y-9804D02*
D03*
Y-12363D02*
D03*
Y-7245D02*
D03*
Y-14922D02*
D03*
D33*
X1210Y-15792D02*
D03*
D34*
X-3002Y-10118D02*
D03*
Y-8622D02*
D03*
X-1107Y-3359D02*
D03*
Y-13859D02*
D03*
Y-15359D02*
D03*
X-732Y-16109D02*
D03*
X-1482Y-2609D02*
D03*
X-1857Y-3359D02*
D03*
X-1482Y-4109D02*
D03*
X-1857Y-4859D02*
D03*
X-1482Y-11609D02*
D03*
Y-13109D02*
D03*
X-1857Y-13859D02*
D03*
X-1482Y-16109D02*
D03*
X-2607Y-6359D02*
D03*
Y-12359D02*
D03*
X-2232Y-13109D02*
D03*
X-2607Y-13859D02*
D03*
Y-15359D02*
D03*
X-2232Y-16109D02*
D03*
X-3357Y-6359D02*
D03*
Y-7859D02*
D03*
Y-9359D02*
D03*
Y-10859D02*
D03*
X-2982Y-13109D02*
D03*
Y-14609D02*
D03*
X-4107Y-6359D02*
D03*
X-3732Y-7109D02*
D03*
X-4107Y-7859D02*
D03*
X-3732Y-8609D02*
D03*
X-4107Y-9359D02*
D03*
X-3732Y-10109D02*
D03*
X-4107Y-10859D02*
D03*
X-3732Y-11609D02*
D03*
X-4107Y-12359D02*
D03*
Y-13859D02*
D03*
Y-15359D02*
D03*
Y-18359D02*
D03*
X-1087Y-4919D02*
D03*
X-1014Y-4628D02*
D03*
X1535Y-4616D02*
D03*
X1939Y-5098D02*
D03*
X1949Y-4154D02*
D03*
X-1240Y-10758D02*
D03*
X-1022Y-11033D02*
D03*
X-319Y-13966D02*
D03*
X-94Y-14947D02*
D03*
X-824Y-12871D02*
D03*
X-3266Y-16269D02*
D03*
X-3517Y-17901D02*
D03*
X-502Y-12343D02*
D03*
X75Y-8307D02*
D03*
X1949Y-15295D02*
D03*
X1900Y-16841D02*
D03*
X-1417Y-11250D02*
D03*
X-1988Y-5738D02*
D03*
X-1260Y-8553D02*
D03*
X-1329Y-17677D02*
D03*
X-4163Y-16968D02*
D03*
X1890Y-17901D02*
D03*
X1398Y-18425D02*
D03*
X1939Y-3228D02*
D03*
X1556Y-3643D02*
D03*
X1555Y-2746D02*
D03*
X1557Y-2077D02*
D03*
X-2513Y-19075D02*
D03*
X-3017D02*
D03*
X982D02*
D03*
X483D02*
D03*
X-17D02*
D03*
X1210Y-16216D02*
D03*
X1634Y-15768D02*
D03*
X-2156Y-18429D02*
D03*
X-2513Y-17838D02*
D03*
X-3013Y-17832D02*
D03*
X-1017Y-17424D02*
D03*
X-517D02*
D03*
X-17D02*
D03*
X483D02*
D03*
X982D02*
D03*
X-1022Y-9307D02*
D03*
M02*
