G04*
G04 #@! TF.GenerationSoftware,Altium Limited,Altium Designer,19.0.15 (446)*
G04*
G04 Layer_Physical_Order=2*
G04 Layer_Color=16711680*
%FSLAX24Y24*%
%MOIN*%
G70*
G01*
G75*
%ADD11C,0.0100*%
%ADD12C,0.0059*%
%ADD15C,0.0060*%
%ADD17C,0.0080*%
%ADD37R,0.0295X0.0315*%
%ADD38R,0.0236X0.0197*%
%ADD39R,0.0197X0.0236*%
%ADD41R,0.0315X0.0295*%
%ADD75C,0.1220*%
%ADD77C,0.0591*%
%ADD78C,0.0079*%
%ADD82C,0.0150*%
%ADD83C,0.0200*%
%ADD84C,0.0058*%
%ADD85C,0.0300*%
%ADD86C,0.0090*%
%ADD87C,0.0250*%
%ADD88C,0.0110*%
%ADD90C,0.0075*%
%ADD91C,0.0116*%
%ADD92C,0.0138*%
%ADD93C,0.0350*%
%ADD98R,0.0500X0.0500*%
%ADD99C,0.0500*%
%ADD100C,0.0354*%
%ADD101C,0.0402*%
%ADD102O,0.0630X0.0354*%
%ADD103R,0.0591X0.0591*%
%ADD104C,0.0118*%
%ADD105C,0.0240*%
%ADD106C,0.0260*%
%ADD107R,0.0709X0.0472*%
%ADD108R,0.0610X0.0236*%
%ADD109R,0.0217X0.0236*%
%ADD110R,0.0256X0.0138*%
%ADD111R,0.0118X0.0276*%
%ADD112R,0.0236X0.0394*%
%ADD113R,0.0217X0.0138*%
%ADD114R,0.0827X0.0138*%
%ADD115R,0.0433X0.0591*%
%ADD116R,0.0138X0.0177*%
%ADD117R,0.0591X0.0433*%
%ADD118O,0.0256X0.0087*%
%ADD119O,0.0087X0.0256*%
%ADD120R,0.0472X0.0945*%
%ADD121R,0.0354X0.0118*%
%ADD122R,0.0256X0.0098*%
%ADD123R,0.0295X0.0591*%
%ADD124R,0.0177X0.0335*%
%ADD125R,0.0335X0.0177*%
%ADD126R,0.0118X0.0315*%
%ADD127R,0.0315X0.0118*%
%ADD128R,0.0276X0.0118*%
%ADD129R,0.0118X0.0276*%
%ADD130O,0.0079X0.0276*%
%ADD131O,0.0276X0.0079*%
%ADD132O,0.0079X0.0335*%
%ADD133O,0.0335X0.0079*%
%ADD134R,0.1043X0.1043*%
%ADD135R,0.0630X0.0394*%
%ADD136R,0.1181X0.1181*%
%ADD137R,0.0236X0.0217*%
%ADD138R,0.0276X0.0118*%
%ADD139R,0.0799X0.0299*%
%ADD140R,0.0417X0.0622*%
%ADD141R,0.0236X0.0858*%
%ADD142R,0.0622X0.0417*%
%ADD143R,0.0858X0.0236*%
%ADD144R,0.0256X0.0335*%
%ADD145R,0.1417X0.0591*%
%ADD146R,0.0236X0.1024*%
%ADD147R,0.0531X0.0157*%
%ADD148R,0.0610X0.0748*%
%ADD149R,0.0551X0.0630*%
%ADD150R,0.0157X0.0197*%
%ADD151C,0.0394*%
%ADD152C,0.0170*%
%ADD153C,0.0190*%
%ADD154C,0.0160*%
%ADD155C,0.0140*%
%ADD156C,0.0079*%
%ADD157C,0.0125*%
%ADD158R,0.0850X0.0800*%
%ADD159R,0.0200X0.1100*%
%ADD160R,0.0200X0.0550*%
%ADD161R,0.0710X0.0250*%
G36*
X12552Y19714D02*
X12552Y19702D01*
X12534Y19686D01*
X12515Y19664D01*
X12499Y19640D01*
X12486Y19614D01*
X12480Y19596D01*
X12315D01*
Y19427D01*
X12265D01*
Y19399D01*
X12037D01*
Y19335D01*
X12022Y19322D01*
X11956Y19256D01*
X11943Y19241D01*
X11932Y19223D01*
X11883Y19235D01*
Y19596D01*
X11478D01*
Y19695D01*
X11062D01*
Y19184D01*
X10938D01*
X10938Y19185D01*
X10932Y19213D01*
Y19358D01*
X10831D01*
X10539Y19649D01*
X10517Y19669D01*
X10493Y19685D01*
X10466Y19698D01*
X10456Y19702D01*
X10464Y19752D01*
X12536D01*
X12552Y19714D01*
D02*
G37*
G36*
X8134Y19702D02*
X8124Y19698D01*
X8097Y19685D01*
X8073Y19669D01*
X8051Y19649D01*
X8051Y19649D01*
X7741Y19339D01*
X7721Y19317D01*
X7705Y19293D01*
X7692Y19266D01*
X7682Y19238D01*
X7676Y19209D01*
X7675Y19180D01*
X7675Y19180D01*
Y18833D01*
X7643D01*
Y18821D01*
X5868D01*
Y19372D01*
X4959D01*
Y18699D01*
X5280D01*
X5299Y18653D01*
X4672Y18026D01*
X4666Y18025D01*
X4615Y18040D01*
X4614Y18044D01*
X4601Y18070D01*
X4585Y18094D01*
X4566Y18116D01*
X4544Y18135D01*
X4520Y18151D01*
X4494Y18164D01*
X4467Y18173D01*
X4439Y18179D01*
X4410Y18180D01*
X4381Y18179D01*
X4353Y18173D01*
X4343Y18170D01*
X4318Y18179D01*
X4307Y18186D01*
X4293Y18203D01*
Y18356D01*
X3888D01*
Y18406D01*
X3838D01*
Y18624D01*
X3521D01*
X3515Y18632D01*
X3495Y18655D01*
X3495Y18655D01*
X3315Y18835D01*
X3292Y18855D01*
X3267Y18873D01*
X3240Y18888D01*
X3211Y18900D01*
X3181Y18909D01*
X3151Y18914D01*
X3120Y18915D01*
X3120Y18915D01*
X2797D01*
X2775Y18965D01*
X2782Y18972D01*
X2808Y19007D01*
X2831Y19043D01*
X2851Y19082D01*
X2868Y19122D01*
X2881Y19163D01*
X2890Y19205D01*
X2896Y19248D01*
X2898Y19291D01*
X2896Y19335D01*
X2890Y19377D01*
X2881Y19420D01*
X2868Y19461D01*
X2851Y19501D01*
X2831Y19539D01*
X2808Y19576D01*
X2782Y19610D01*
X2752Y19642D01*
X2720Y19671D01*
X2686Y19698D01*
X2680Y19702D01*
X2694Y19752D01*
X8126D01*
X8134Y19702D01*
D02*
G37*
G36*
X10496Y19055D02*
Y18765D01*
X10932D01*
Y18883D01*
X11062D01*
Y18865D01*
X11427D01*
Y18864D01*
X11883D01*
X11922Y18838D01*
X11924Y18830D01*
X11932Y18811D01*
X11943Y18793D01*
X11956Y18778D01*
X12017Y18717D01*
Y18045D01*
X11990D01*
Y17827D01*
X11940D01*
Y17777D01*
X11732D01*
Y17570D01*
X11708Y17557D01*
X11682Y17552D01*
X11665Y17571D01*
X11640Y17594D01*
X11612Y17614D01*
X11583Y17632D01*
X11551Y17647D01*
X11519Y17658D01*
X11486Y17667D01*
X11452Y17672D01*
X11417Y17673D01*
X11383Y17672D01*
X11349Y17667D01*
X11316Y17658D01*
X11283Y17647D01*
X11252Y17632D01*
X11223Y17614D01*
X11195Y17594D01*
X11170Y17571D01*
X11146Y17545D01*
X11126Y17518D01*
X11108Y17488D01*
X11094Y17457D01*
X11090Y17448D01*
X11040Y17457D01*
Y17923D01*
X11039Y17951D01*
X11034Y17978D01*
X11026Y18005D01*
X11016Y18031D01*
X11002Y18056D01*
X10986Y18079D01*
X10967Y18100D01*
X10932Y18134D01*
Y18295D01*
X10390D01*
Y17998D01*
Y17702D01*
X10540D01*
Y17467D01*
X10472D01*
X10458Y17467D01*
Y17467D01*
X10422D01*
Y17467D01*
X10224D01*
Y17210D01*
X10124D01*
Y17478D01*
X10096Y17516D01*
Y17702D01*
X10290D01*
Y17998D01*
Y18295D01*
X9748D01*
Y17702D01*
X9836D01*
Y17570D01*
X9540Y17275D01*
X9490Y17296D01*
Y18125D01*
X9502D01*
Y18462D01*
X9294D01*
Y18558D01*
X9502D01*
Y18558D01*
Y18895D01*
X9490D01*
Y19210D01*
X9490Y19215D01*
X9514Y19251D01*
X9529Y19265D01*
X9748D01*
Y18765D01*
X10184D01*
Y19265D01*
X10287D01*
X10496Y19055D01*
D02*
G37*
G36*
X2124Y19702D02*
X2117Y19698D01*
X2083Y19671D01*
X2051Y19642D01*
X2022Y19610D01*
X1995Y19576D01*
X1972Y19539D01*
X1952Y19501D01*
X1935Y19461D01*
X1922Y19420D01*
X1913Y19377D01*
X1907Y19335D01*
X1905Y19291D01*
X1907Y19248D01*
X1913Y19205D01*
X1922Y19163D01*
X1935Y19122D01*
X1952Y19082D01*
X1972Y19043D01*
X1995Y19007D01*
X2022Y18972D01*
X2051Y18941D01*
X2083Y18911D01*
X2117Y18885D01*
X2154Y18862D01*
X2192Y18842D01*
X2227Y18827D01*
X2234Y18812D01*
X2240Y18770D01*
X2128Y18658D01*
X2074Y18675D01*
X2071Y18694D01*
X2058Y18743D01*
X2042Y18791D01*
X2023Y18838D01*
X2000Y18883D01*
X1974Y18927D01*
X1946Y18968D01*
X1914Y19008D01*
X1879Y19045D01*
X1842Y19079D01*
X1803Y19111D01*
X1761Y19140D01*
X1718Y19166D01*
X1673Y19188D01*
X1626Y19208D01*
X1578Y19224D01*
X1529Y19236D01*
X1479Y19245D01*
X1429Y19251D01*
X1378Y19252D01*
X1327Y19251D01*
X1277Y19245D01*
X1227Y19236D01*
X1178Y19224D01*
X1130Y19208D01*
X1083Y19188D01*
X1038Y19166D01*
X995Y19140D01*
X953Y19111D01*
X914Y19079D01*
X877Y19045D01*
X842Y19008D01*
X810Y18968D01*
X781Y18927D01*
X756Y18883D01*
X733Y18838D01*
X714Y18791D01*
X698Y18743D01*
X685Y18694D01*
X676Y18644D01*
X671Y18594D01*
X669Y18543D01*
X671Y18493D01*
X676Y18442D01*
X685Y18393D01*
X698Y18344D01*
X714Y18296D01*
X733Y18249D01*
X756Y18203D01*
X781Y18160D01*
X810Y18118D01*
X842Y18079D01*
X877Y18042D01*
X914Y18007D01*
X953Y17976D01*
X995Y17947D01*
X1038Y17921D01*
X1083Y17898D01*
X1130Y17879D01*
X1178Y17863D01*
X1227Y17850D01*
X1277Y17841D01*
X1327Y17836D01*
X1378Y17834D01*
X1429Y17836D01*
X1479Y17841D01*
X1529Y17850D01*
X1578Y17863D01*
X1626Y17879D01*
X1673Y17898D01*
X1718Y17921D01*
X1725Y17925D01*
X1756Y17885D01*
X1331Y17460D01*
X1310Y17437D01*
X1292Y17412D01*
X1277Y17385D01*
X1266Y17357D01*
X1257Y17327D01*
X1252Y17296D01*
X1250Y17266D01*
X1250Y17266D01*
Y17109D01*
X1244Y17106D01*
X1200Y17095D01*
X1190Y17109D01*
X1170Y17132D01*
X1147Y17153D01*
X1121Y17171D01*
X1094Y17186D01*
X1066Y17198D01*
X1036Y17206D01*
X1005Y17211D01*
X974Y17213D01*
X944Y17211D01*
X913Y17206D01*
X883Y17198D01*
X855Y17186D01*
X828Y17171D01*
X802Y17153D01*
X779Y17132D01*
X759Y17109D01*
X741Y17084D01*
X726Y17057D01*
X714Y17028D01*
X705Y16998D01*
X700Y16968D01*
X698Y16937D01*
X699Y16930D01*
X662Y16880D01*
X130D01*
Y19752D01*
X2109D01*
X2124Y19702D01*
D02*
G37*
G36*
X7643Y18302D02*
Y18104D01*
X8157D01*
Y18125D01*
X8162Y18133D01*
X8197Y18161D01*
X8207Y18164D01*
X8222Y18163D01*
X8278D01*
Y18125D01*
X8377D01*
Y17839D01*
X8390D01*
Y17676D01*
X8362Y17637D01*
X8164D01*
Y17380D01*
X8114D01*
Y17330D01*
X7867D01*
Y17123D01*
Y16960D01*
X8114D01*
Y16860D01*
X7867D01*
Y16658D01*
X7848D01*
Y16065D01*
X7848D01*
X7864Y16015D01*
X7483Y15634D01*
X7437Y15653D01*
Y16098D01*
X6737D01*
Y15398D01*
X7252D01*
X7300Y15367D01*
Y15081D01*
X7296Y15074D01*
X7287Y15047D01*
X7281Y15019D01*
X7280Y14990D01*
X7281Y14961D01*
X7287Y14933D01*
X7296Y14906D01*
X7309Y14880D01*
X7325Y14856D01*
X7344Y14834D01*
X7366Y14815D01*
X7390Y14799D01*
X7416Y14786D01*
X7443Y14777D01*
X7471Y14771D01*
X7500Y14770D01*
X7529Y14771D01*
X7557Y14777D01*
X7584Y14786D01*
X7610Y14799D01*
X7634Y14815D01*
X7656Y14834D01*
X7675Y14856D01*
X7691Y14880D01*
X7704Y14906D01*
X7713Y14933D01*
X7719Y14961D01*
X7720Y14977D01*
X7736Y15000D01*
X7769Y15020D01*
X7780Y15020D01*
X7798Y15021D01*
X7848Y15002D01*
Y15002D01*
X8390D01*
Y15299D01*
Y15595D01*
X8077D01*
X8058Y15642D01*
X8126Y15710D01*
X8280D01*
X8306Y15711D01*
X8332Y15716D01*
X8357Y15725D01*
X8380Y15736D01*
X8402Y15751D01*
X8422Y15768D01*
X8718Y16065D01*
X8960D01*
Y15728D01*
X8827Y15595D01*
X8490D01*
Y15299D01*
Y15002D01*
X8614D01*
Y14864D01*
X8188Y14438D01*
X7178D01*
X7152Y14437D01*
X7126Y14431D01*
X7101Y14423D01*
X7078Y14411D01*
X7056Y14397D01*
X7036Y14380D01*
X6468Y13811D01*
X6446Y13804D01*
X6420Y13791D01*
X6396Y13775D01*
X6374Y13756D01*
X6355Y13734D01*
X6339Y13710D01*
X6326Y13684D01*
X6319Y13662D01*
X5867Y13210D01*
X3413D01*
X3096Y13528D01*
X3076Y13545D01*
X3056Y13572D01*
X3063Y13611D01*
X3065Y13614D01*
X3080Y13645D01*
X3091Y13678D01*
X3100Y13711D01*
X3102Y13730D01*
X2409D01*
X2412Y13711D01*
X2421Y13678D01*
X2432Y13645D01*
X2445Y13619D01*
X2447Y13613D01*
X2436Y13561D01*
X2426Y13553D01*
X2414Y13545D01*
X2394Y13528D01*
X2008Y13142D01*
X1991Y13122D01*
X1976Y13100D01*
X1965Y13077D01*
X1956Y13052D01*
X1951Y13026D01*
X1950Y13000D01*
Y11663D01*
X1911Y11635D01*
X1900Y11635D01*
X1585D01*
Y11220D01*
Y10806D01*
X1911D01*
Y11003D01*
X1961Y11011D01*
X1965Y11000D01*
X1976Y10976D01*
X1991Y10955D01*
X2008Y10935D01*
X2835Y10108D01*
X2814Y10058D01*
X2687D01*
Y9910D01*
X2855D01*
Y10018D01*
X2905Y10038D01*
X3080Y9863D01*
Y9730D01*
X3043Y9697D01*
X3030Y9697D01*
X2855D01*
Y9810D01*
X2637D01*
Y9860D01*
X2587D01*
Y10058D01*
X2444D01*
Y10137D01*
X2442Y10163D01*
X2439Y10175D01*
X2439Y10189D01*
X2433Y10217D01*
X2424Y10244D01*
X2411Y10270D01*
X2395Y10294D01*
X2376Y10316D01*
X2354Y10335D01*
X2330Y10351D01*
X2304Y10364D01*
X2277Y10373D01*
X2249Y10379D01*
X2220Y10380D01*
X2191Y10379D01*
X2163Y10373D01*
X2136Y10364D01*
X2110Y10351D01*
X2086Y10335D01*
X2064Y10316D01*
X2045Y10294D01*
X2040Y10286D01*
X2005Y10291D01*
X1990Y10301D01*
Y10422D01*
X1258D01*
Y10294D01*
Y10038D01*
Y9782D01*
Y9526D01*
Y9270D01*
X1534D01*
X1547Y9264D01*
X1572Y9255D01*
X1598Y9250D01*
X1624Y9248D01*
X2017D01*
Y9183D01*
X2512D01*
Y9183D01*
X2548D01*
Y9183D01*
X2746D01*
Y9440D01*
X2846D01*
Y9183D01*
X3023Y9183D01*
X3057Y9141D01*
X3056Y9135D01*
X3034Y9116D01*
X3015Y9094D01*
X2999Y9070D01*
X2986Y9044D01*
X2977Y9017D01*
X2971Y8989D01*
X2970Y8960D01*
X2971Y8931D01*
X2977Y8903D01*
X2986Y8876D01*
X2989Y8870D01*
X2965Y8825D01*
X2959Y8820D01*
X2100D01*
X2080Y8819D01*
X2060Y8814D01*
X2041Y8806D01*
X2023Y8795D01*
X2008Y8782D01*
X1957Y8732D01*
X1911Y8751D01*
Y9116D01*
X1585D01*
Y8701D01*
Y8286D01*
X1716D01*
X1735Y8240D01*
X1470Y7974D01*
X1457Y7959D01*
X1446Y7941D01*
X1438Y7922D01*
X1433Y7903D01*
X1432Y7882D01*
Y7483D01*
X1433Y7463D01*
X1438Y7443D01*
X1446Y7424D01*
X1457Y7407D01*
X1470Y7391D01*
X1570Y7292D01*
Y7090D01*
X1527Y7048D01*
X1471Y7063D01*
X1469Y7072D01*
X1456Y7108D01*
X1440Y7143D01*
X1420Y7177D01*
X1396Y7208D01*
X1370Y7237D01*
X1342Y7263D01*
X1310Y7286D01*
X1277Y7306D01*
X1242Y7322D01*
X1205Y7335D01*
X1168Y7345D01*
X1129Y7351D01*
X1091Y7352D01*
X1052Y7351D01*
X1013Y7345D01*
X976Y7335D01*
X939Y7322D01*
X904Y7306D01*
X871Y7286D01*
X839Y7263D01*
X811Y7237D01*
X785Y7208D01*
X762Y7177D01*
X742Y7143D01*
X725Y7108D01*
X712Y7072D01*
X702Y7034D01*
X697Y6995D01*
X695Y6957D01*
X697Y6918D01*
X702Y6879D01*
X708Y6858D01*
X408Y6558D01*
X391Y6538D01*
X376Y6516D01*
X365Y6493D01*
X356Y6468D01*
X351Y6442D01*
X350Y6416D01*
Y5710D01*
X351Y5684D01*
X356Y5658D01*
X365Y5633D01*
X376Y5610D01*
X391Y5588D01*
X408Y5568D01*
X628Y5348D01*
X648Y5331D01*
X670Y5316D01*
X681Y5311D01*
X695Y5278D01*
X697Y5251D01*
X683Y5232D01*
X667Y5203D01*
X654Y5172D01*
X645Y5140D01*
X639Y5106D01*
X637Y5073D01*
X639Y5039D01*
X644Y5011D01*
X643Y5008D01*
X638Y4997D01*
X632Y4989D01*
X605Y4965D01*
X130D01*
Y8538D01*
X180Y8548D01*
X183Y8541D01*
X198Y8514D01*
X216Y8488D01*
X237Y8465D01*
X260Y8444D01*
X285Y8426D01*
X313Y8411D01*
X341Y8399D01*
X371Y8391D01*
X402Y8386D01*
X433Y8384D01*
X521D01*
Y8661D01*
Y8939D01*
X433D01*
X402Y8937D01*
X371Y8932D01*
X341Y8923D01*
X313Y8912D01*
X285Y8896D01*
X260Y8878D01*
X237Y8858D01*
X216Y8834D01*
X198Y8809D01*
X183Y8782D01*
X180Y8775D01*
X130Y8784D01*
Y8980D01*
X166Y9014D01*
X180Y9014D01*
X521D01*
Y9488D01*
X571D01*
Y9538D01*
X976D01*
Y9959D01*
Y10383D01*
X571D01*
Y10433D01*
X521D01*
Y10907D01*
X180D01*
X166Y10907D01*
X130Y10941D01*
Y11137D01*
X180Y11147D01*
X183Y11139D01*
X198Y11112D01*
X216Y11087D01*
X237Y11064D01*
X260Y11043D01*
X285Y11025D01*
X313Y11010D01*
X341Y10998D01*
X371Y10989D01*
X402Y10984D01*
X433Y10982D01*
X521D01*
Y11260D01*
Y11537D01*
X433D01*
X402Y11536D01*
X371Y11530D01*
X341Y11522D01*
X313Y11510D01*
X285Y11495D01*
X260Y11477D01*
X237Y11456D01*
X216Y11433D01*
X198Y11408D01*
X183Y11380D01*
X180Y11373D01*
X130Y11383D01*
Y14317D01*
X662D01*
X699Y14267D01*
X698Y14260D01*
X700Y14229D01*
X705Y14198D01*
X714Y14169D01*
X726Y14140D01*
X741Y14113D01*
X759Y14088D01*
X779Y14065D01*
X802Y14044D01*
X828Y14026D01*
X855Y14011D01*
X883Y13999D01*
X913Y13991D01*
X944Y13986D01*
X974Y13984D01*
X1005Y13986D01*
X1036Y13991D01*
X1066Y13999D01*
X1094Y14011D01*
X1121Y14026D01*
X1140Y14039D01*
X1163Y14029D01*
X1184Y14010D01*
X1181Y13999D01*
X1180Y13970D01*
X1181Y13941D01*
X1187Y13913D01*
X1196Y13886D01*
X1209Y13860D01*
X1225Y13836D01*
X1244Y13814D01*
X1266Y13795D01*
X1290Y13779D01*
X1316Y13766D01*
X1343Y13757D01*
X1371Y13751D01*
X1400Y13750D01*
X1429Y13751D01*
X1457Y13757D01*
X1484Y13766D01*
X1510Y13779D01*
X1534Y13795D01*
X1850D01*
X1873Y13796D01*
X1895Y13801D01*
X1917Y13808D01*
X1938Y13818D01*
X1957Y13831D01*
X1974Y13846D01*
X2393Y14265D01*
X3217D01*
X3222Y14260D01*
X3227Y14233D01*
X3236Y14206D01*
X3249Y14180D01*
X3265Y14156D01*
X3284Y14134D01*
X3306Y14115D01*
X3330Y14099D01*
X3356Y14086D01*
X3383Y14077D01*
X3411Y14071D01*
X3440Y14070D01*
X3469Y14071D01*
X3472Y14072D01*
X3522Y14038D01*
Y13769D01*
Y13375D01*
X3938D01*
Y13375D01*
X4308D01*
Y13463D01*
X5637D01*
X5658Y13464D01*
X5677Y13469D01*
X5696Y13477D01*
X5714Y13488D01*
X5729Y13501D01*
X6282Y14053D01*
X6291Y14051D01*
X6320Y14050D01*
X6349Y14051D01*
X6377Y14057D01*
X6404Y14066D01*
X6430Y14079D01*
X6454Y14095D01*
X6476Y14114D01*
X6495Y14136D01*
X6511Y14160D01*
X6524Y14186D01*
X6533Y14213D01*
X6539Y14241D01*
X6540Y14270D01*
X6539Y14299D01*
X6533Y14327D01*
X6524Y14354D01*
X6511Y14380D01*
X6495Y14404D01*
X6476Y14426D01*
X6454Y14445D01*
X6430Y14461D01*
X6404Y14474D01*
X6377Y14483D01*
X6349Y14489D01*
X6320Y14490D01*
X6291Y14489D01*
X6263Y14483D01*
X6236Y14474D01*
X6210Y14461D01*
X6186Y14445D01*
X6164Y14426D01*
X6145Y14404D01*
X6129Y14380D01*
X6116Y14354D01*
X6107Y14327D01*
X6101Y14299D01*
X6100Y14270D01*
X6101Y14242D01*
X5583Y13724D01*
X4308D01*
Y13937D01*
X4100D01*
Y14037D01*
X4308D01*
Y14153D01*
X4346D01*
Y14410D01*
X4446D01*
Y14153D01*
X4643D01*
Y14402D01*
X5187D01*
Y14610D01*
X5237D01*
Y14660D01*
X5455D01*
Y14762D01*
Y14920D01*
X5237D01*
Y15020D01*
X5455D01*
Y15122D01*
Y15280D01*
X5237D01*
Y15380D01*
X5455D01*
Y15538D01*
X5445D01*
Y15650D01*
X5227D01*
Y15750D01*
X5445D01*
Y15807D01*
X5465Y15828D01*
X5495Y15845D01*
X5511Y15841D01*
X5540Y15840D01*
X5569Y15841D01*
X5597Y15847D01*
X5624Y15856D01*
X5650Y15869D01*
X5674Y15885D01*
X5696Y15904D01*
X5715Y15926D01*
X5731Y15950D01*
X5742Y15973D01*
X5744Y15976D01*
X5800Y15986D01*
X5923Y15863D01*
X5933Y15854D01*
X6115Y15672D01*
Y15238D01*
X6111Y15235D01*
X6089Y15216D01*
X6070Y15194D01*
X6054Y15170D01*
X6041Y15144D01*
X6032Y15117D01*
X6026Y15089D01*
X6024Y15060D01*
X6026Y15031D01*
X6032Y15003D01*
X6041Y14976D01*
X6054Y14950D01*
X6070Y14926D01*
X6089Y14904D01*
X6111Y14885D01*
X6135Y14869D01*
X6160Y14856D01*
X6188Y14847D01*
X6216Y14841D01*
X6245Y14840D01*
X6274Y14841D01*
X6302Y14847D01*
X6329Y14856D01*
X6355Y14869D01*
X6379Y14885D01*
X6401Y14904D01*
X6420Y14926D01*
X6436Y14950D01*
X6448Y14976D01*
X6458Y15003D01*
X6463Y15031D01*
X6465Y15060D01*
X6463Y15089D01*
X6458Y15117D01*
X6448Y15144D01*
X6436Y15170D01*
X6420Y15194D01*
X6401Y15216D01*
X6379Y15235D01*
X6374Y15238D01*
Y15725D01*
X6373Y15745D01*
X6368Y15765D01*
X6360Y15784D01*
X6349Y15801D01*
X6336Y15817D01*
X6116Y16037D01*
X6107Y16047D01*
X5742Y16412D01*
X5727Y16425D01*
X5709Y16436D01*
X5690Y16444D01*
X5670Y16449D01*
X5650Y16450D01*
X5093D01*
X5073Y16449D01*
X5053Y16444D01*
X5034Y16436D01*
X5016Y16425D01*
X5001Y16412D01*
X4857Y16268D01*
X4643D01*
Y16340D01*
X4446D01*
Y16133D01*
X4615D01*
Y15960D01*
X4465D01*
Y15972D01*
X4039D01*
Y16133D01*
X4098D01*
X4112Y16133D01*
Y16133D01*
X4148D01*
Y16133D01*
X4346D01*
Y16390D01*
Y16647D01*
X4148D01*
X4115Y16684D01*
Y16761D01*
X5674Y18320D01*
X6746D01*
X6769Y18288D01*
X6775Y18270D01*
X6763Y18244D01*
X6751Y18212D01*
X6743Y18179D01*
X6740Y18160D01*
X7433D01*
X7430Y18179D01*
X7422Y18212D01*
X7410Y18244D01*
X7398Y18270D01*
X7404Y18288D01*
X7427Y18320D01*
X7600D01*
X7643Y18302D01*
D02*
G37*
G36*
X2806Y17764D02*
X2824Y17767D01*
X2858Y17775D01*
X2890Y17786D01*
X2921Y17801D01*
X2951Y17819D01*
X2975Y17837D01*
X2988Y17834D01*
X3025Y17814D01*
Y17746D01*
X3025Y17746D01*
X3026Y17715D01*
X3031Y17685D01*
X3040Y17655D01*
X3052Y17627D01*
X3067Y17600D01*
X3085Y17575D01*
X3105Y17552D01*
X3233Y17423D01*
X3233Y17423D01*
X3256Y17403D01*
X3282Y17385D01*
X3309Y17370D01*
X3337Y17358D01*
X3367Y17350D01*
X3397Y17344D01*
X3428Y17343D01*
X3428Y17343D01*
X3888D01*
X3919Y17344D01*
X3920Y17345D01*
X3944Y17298D01*
X3687Y17041D01*
X3668Y17020D01*
X3652Y16997D01*
X3639Y16973D01*
X3628Y16947D01*
X3620Y16920D01*
X3615Y16892D01*
X3614Y16864D01*
Y16640D01*
X3596Y16639D01*
X3568Y16634D01*
X3541Y16626D01*
X3515Y16616D01*
X3491Y16602D01*
X3468Y16586D01*
X3447Y16567D01*
X3093Y16213D01*
X3074Y16192D01*
X3058Y16169D01*
X3044Y16145D01*
X3034Y16119D01*
X3028Y16098D01*
X2406D01*
Y15694D01*
X2360Y15674D01*
X2259Y15775D01*
X2238Y15794D01*
X2215Y15810D01*
X2190Y15824D01*
X2164Y15835D01*
X2137Y15843D01*
X2110Y15847D01*
X2082Y15849D01*
X2034D01*
X2030Y15853D01*
Y16090D01*
X2029Y16118D01*
X2024Y16146D01*
X2016Y16173D01*
X2006Y16199D01*
X1992Y16223D01*
X1976Y16246D01*
X1973Y16249D01*
X1941Y16286D01*
Y16880D01*
X1801D01*
Y17151D01*
X2456Y17807D01*
X2456Y17807D01*
X2474Y17827D01*
X2479Y17830D01*
X2526Y17838D01*
X2535Y17837D01*
X2540Y17834D01*
X2561Y17819D01*
X2591Y17801D01*
X2622Y17786D01*
X2654Y17775D01*
X2688Y17767D01*
X2706Y17764D01*
Y18110D01*
X2806D01*
Y17764D01*
D02*
G37*
G36*
X14016Y17548D02*
X14035Y17534D01*
Y17502D01*
X14564D01*
Y17402D01*
X14035D01*
Y17234D01*
Y17148D01*
X14564D01*
Y17048D01*
X14035D01*
Y16959D01*
X13985Y16938D01*
X13765Y17158D01*
Y17426D01*
X13858Y17520D01*
X13860Y17520D01*
X13889Y17521D01*
X13917Y17527D01*
X13944Y17536D01*
X13970Y17549D01*
X13985Y17559D01*
X14016Y17548D01*
D02*
G37*
G36*
X12556Y19355D02*
X12580Y19339D01*
X12606Y19326D01*
X12633Y19317D01*
X12659Y19312D01*
Y17622D01*
X12526Y17488D01*
X12510Y17471D01*
X12498Y17450D01*
X12489Y17429D01*
X12484Y17406D01*
X12482Y17382D01*
Y16994D01*
X12478Y16945D01*
X12320D01*
Y16727D01*
X12220D01*
Y16945D01*
X12126D01*
X12105Y16995D01*
X12280Y17170D01*
X12285Y17172D01*
X12300Y17186D01*
X12357Y17243D01*
X12371Y17258D01*
X12381Y17276D01*
X12389Y17295D01*
X12394Y17315D01*
X12396Y17335D01*
Y18864D01*
X12493D01*
Y19345D01*
X12511Y19358D01*
X12543Y19366D01*
X12556Y19355D01*
D02*
G37*
G36*
X9927Y17227D02*
Y16953D01*
X10124D01*
X10151Y16903D01*
X10149Y16900D01*
X10136Y16874D01*
X10127Y16847D01*
X10121Y16819D01*
X10120Y16790D01*
X10121Y16761D01*
X10127Y16733D01*
X10136Y16706D01*
X10149Y16680D01*
X10165Y16656D01*
X10184Y16634D01*
X10206Y16615D01*
X10210Y16613D01*
Y16474D01*
X9902Y16166D01*
X9889Y16151D01*
X9878Y16133D01*
X9870Y16115D01*
X9865Y16095D01*
X9864Y16074D01*
Y14809D01*
X9865Y14789D01*
X9870Y14769D01*
X9878Y14750D01*
X9889Y14732D01*
X9902Y14717D01*
X9940Y14679D01*
X9939Y14674D01*
X9937Y14646D01*
X9939Y14617D01*
X9945Y14589D01*
X9954Y14561D01*
X9967Y14535D01*
X9983Y14511D01*
X10002Y14490D01*
X10023Y14471D01*
X10014Y14441D01*
X10002Y14415D01*
X9992Y14388D01*
X9987Y14359D01*
X9985Y14331D01*
X9987Y14302D01*
X9992Y14274D01*
X10002Y14246D01*
X10014Y14220D01*
X10030Y14196D01*
X10049Y14175D01*
X10071Y14156D01*
X10095Y14140D01*
X10121Y14127D01*
X10148Y14118D01*
X10177Y14112D01*
X10205Y14110D01*
X10234Y14112D01*
X10239Y14113D01*
X10593Y13758D01*
Y13595D01*
X10547Y13575D01*
X10222Y13900D01*
X10207Y13913D01*
X10189Y13924D01*
X10170Y13932D01*
X10165Y13933D01*
Y14046D01*
X9763D01*
Y14268D01*
X9761Y14291D01*
X9755Y14314D01*
X9746Y14336D01*
X9734Y14356D01*
X9719Y14374D01*
X9486Y14606D01*
X9484Y14635D01*
X9485Y14636D01*
X9501Y14660D01*
X9514Y14686D01*
X9523Y14713D01*
X9529Y14741D01*
X9530Y14770D01*
X9529Y14799D01*
X9523Y14827D01*
X9514Y14854D01*
X9501Y14880D01*
X9485Y14904D01*
X9466Y14926D01*
X9444Y14945D01*
X9420Y14961D01*
X9394Y14974D01*
X9367Y14983D01*
X9339Y14989D01*
X9310Y14990D01*
X9281Y14989D01*
X9253Y14983D01*
X9226Y14974D01*
X9219Y14970D01*
X9111D01*
X9032Y15049D01*
Y15233D01*
X9302Y15503D01*
X9319Y15522D01*
X9334Y15544D01*
X9345Y15568D01*
X9354Y15593D01*
X9359Y15618D01*
X9360Y15644D01*
Y16538D01*
X9387Y16554D01*
X9410Y16559D01*
X9426Y16545D01*
X9450Y16529D01*
X9476Y16516D01*
X9503Y16507D01*
X9531Y16501D01*
X9560Y16500D01*
X9589Y16501D01*
X9617Y16507D01*
X9644Y16516D01*
X9670Y16529D01*
X9694Y16545D01*
X9716Y16564D01*
X9735Y16586D01*
X9751Y16610D01*
X9764Y16636D01*
X9773Y16663D01*
X9779Y16691D01*
X9780Y16720D01*
X9779Y16749D01*
X9773Y16777D01*
X9764Y16804D01*
X9751Y16830D01*
X9735Y16854D01*
X9716Y16876D01*
X9698Y16892D01*
X9702Y16901D01*
X9707Y16921D01*
X9708Y16941D01*
Y17074D01*
X9880Y17246D01*
X9927Y17227D01*
D02*
G37*
G36*
X16040Y15089D02*
Y14274D01*
X16198D01*
Y13912D01*
X16200Y13888D01*
X16205Y13865D01*
X16214Y13843D01*
X16227Y13823D01*
X16242Y13805D01*
X16414Y13634D01*
X16432Y13618D01*
X16452Y13606D01*
X16473Y13597D01*
X16496Y13591D01*
X16520Y13590D01*
X17161D01*
X17192Y13540D01*
X17190Y13529D01*
X17188Y13500D01*
Y13227D01*
X17181Y13219D01*
X17181Y13219D01*
X17147Y13185D01*
X16840D01*
X16820Y13208D01*
X16807Y13235D01*
X16813Y13253D01*
X16819Y13281D01*
X16820Y13310D01*
X16819Y13339D01*
X16813Y13367D01*
X16804Y13394D01*
X16791Y13420D01*
X16775Y13444D01*
X16756Y13466D01*
X16734Y13485D01*
X16710Y13501D01*
X16684Y13514D01*
X16657Y13523D01*
X16629Y13529D01*
X16600Y13530D01*
X16571Y13529D01*
X16543Y13523D01*
X16516Y13514D01*
X16490Y13501D01*
X16466Y13485D01*
X16447Y13468D01*
X15009D01*
Y13646D01*
X14124D01*
X14111Y13659D01*
Y13784D01*
X14113D01*
Y14178D01*
Y14319D01*
X13885D01*
Y14347D01*
X13835D01*
Y14516D01*
X13796D01*
Y14687D01*
X13795Y14708D01*
X13790Y14728D01*
X13790Y14728D01*
X13814Y14736D01*
X13840Y14749D01*
X13864Y14765D01*
X13886Y14784D01*
X13905Y14806D01*
X13921Y14830D01*
X13934Y14856D01*
X13943Y14883D01*
X13949Y14911D01*
X13950Y14940D01*
X13949Y14969D01*
X13943Y14997D01*
X13934Y15024D01*
X13921Y15050D01*
X13905Y15074D01*
X13886Y15096D01*
X13864Y15115D01*
X13840Y15131D01*
X13814Y15144D01*
X13787Y15153D01*
X13759Y15159D01*
X13730Y15160D01*
X13701Y15159D01*
X13673Y15153D01*
X13646Y15144D01*
X13620Y15131D01*
X13616Y15128D01*
X13592Y15152D01*
X13577Y15165D01*
X13559Y15176D01*
X13540Y15184D01*
X13520Y15189D01*
X13500Y15190D01*
X12814D01*
X12794Y15189D01*
X12774Y15184D01*
X12763Y15179D01*
X12743Y15225D01*
X12794Y15276D01*
X13136D01*
X13147Y15267D01*
X13165Y15256D01*
X13184Y15248D01*
X13204Y15243D01*
X13224Y15242D01*
X13868D01*
X13889Y15243D01*
X13909Y15248D01*
X13928Y15256D01*
X13945Y15267D01*
X13961Y15280D01*
X14106Y15425D01*
X14119Y15441D01*
X14130Y15458D01*
X14138Y15477D01*
X14142Y15497D01*
X14144Y15517D01*
Y15841D01*
X14145Y15842D01*
X14194Y15866D01*
X14211Y15852D01*
X14211Y15841D01*
X14217Y15813D01*
X14226Y15786D01*
X14239Y15760D01*
X14255Y15736D01*
X14274Y15714D01*
X14296Y15695D01*
X14320Y15679D01*
X14346Y15666D01*
X14373Y15657D01*
X14401Y15651D01*
X14430Y15650D01*
X14459Y15651D01*
X14487Y15657D01*
X14514Y15666D01*
X14540Y15679D01*
X14564Y15695D01*
X14586Y15714D01*
X14605Y15736D01*
X14621Y15760D01*
X14634Y15786D01*
X14643Y15813D01*
X14649Y15841D01*
X14650Y15870D01*
X14649Y15899D01*
X14643Y15927D01*
X14641Y15932D01*
X14668Y15977D01*
X14676Y15982D01*
X15093D01*
Y15982D01*
X15143Y15986D01*
X16040Y15089D01*
D02*
G37*
G36*
X3688Y16035D02*
Y15784D01*
X3689Y15767D01*
X3685Y15717D01*
X3685D01*
Y15450D01*
X4475D01*
Y15700D01*
X4615D01*
Y15492D01*
X4625D01*
Y15122D01*
Y15100D01*
X4475D01*
Y15350D01*
X3685D01*
Y15083D01*
X3685Y15083D01*
X3689Y15033D01*
X3688Y15016D01*
Y14985D01*
X3665Y14969D01*
X3638Y14961D01*
X3623Y14972D01*
X3599Y14986D01*
X3573Y14996D01*
X3546Y15004D01*
X3518Y15009D01*
X3490Y15010D01*
X3315D01*
X3295Y15060D01*
X3447Y15213D01*
X3466Y15234D01*
X3482Y15257D01*
X3496Y15281D01*
X3506Y15307D01*
X3514Y15334D01*
X3519Y15362D01*
X3520Y15390D01*
Y15933D01*
X3642Y16054D01*
X3688Y16035D01*
D02*
G37*
G36*
X19791Y13289D02*
X18552D01*
Y13146D01*
X18480D01*
X18082Y13543D01*
X18102Y13590D01*
X18500D01*
X18524Y13591D01*
X18547Y13597D01*
X18568Y13606D01*
X18588Y13618D01*
X18606Y13634D01*
X18679Y13706D01*
X18740Y13696D01*
X18744Y13689D01*
X18767Y13652D01*
X18793Y13618D01*
X18822Y13586D01*
X18854Y13557D01*
X18889Y13531D01*
X18925Y13507D01*
X18964Y13487D01*
X19004Y13471D01*
X19045Y13458D01*
X19087Y13448D01*
X19130Y13443D01*
X19173Y13441D01*
X19216Y13443D01*
X19259Y13448D01*
X19302Y13458D01*
X19343Y13471D01*
X19383Y13487D01*
X19421Y13507D01*
X19458Y13531D01*
X19492Y13557D01*
X19524Y13586D01*
X19553Y13618D01*
X19580Y13652D01*
X19603Y13689D01*
X19623Y13727D01*
X19639Y13767D01*
X19652Y13809D01*
X19662Y13851D01*
X19667Y13894D01*
X19669Y13937D01*
X19667Y13980D01*
X19662Y14023D01*
X19652Y14065D01*
X19639Y14107D01*
X19623Y14147D01*
X19603Y14185D01*
X19580Y14222D01*
X19553Y14256D01*
X19524Y14288D01*
X19492Y14317D01*
X19458Y14343D01*
X19421Y14367D01*
X19383Y14387D01*
X19343Y14403D01*
X19302Y14416D01*
X19259Y14426D01*
X19216Y14431D01*
X19173Y14433D01*
X19130Y14431D01*
X19087Y14426D01*
X19045Y14416D01*
X19030Y14412D01*
X18980Y14444D01*
Y14736D01*
X19030Y14766D01*
X19057Y14757D01*
X19085Y14751D01*
X19114Y14750D01*
X19143Y14751D01*
X19171Y14757D01*
X19198Y14766D01*
X19224Y14779D01*
X19248Y14795D01*
X19270Y14814D01*
X19289Y14836D01*
X19305Y14860D01*
X19318Y14886D01*
X19327Y14913D01*
X19333Y14941D01*
X19334Y14970D01*
X19333Y14999D01*
X19327Y15027D01*
X19318Y15054D01*
X19305Y15080D01*
X19295Y15096D01*
X19303Y15124D01*
X19319Y15146D01*
X19791D01*
Y13289D01*
D02*
G37*
G36*
X13430Y14930D02*
Y14591D01*
X13418Y14570D01*
X13398Y14563D01*
X13358Y14575D01*
X13322Y14598D01*
X13289Y14630D01*
X13256Y14684D01*
X13246Y14712D01*
X13244Y14799D01*
X13255Y14836D01*
X13278Y14875D01*
X13299Y14898D01*
X13328Y14927D01*
X13353Y14944D01*
X13400Y14959D01*
X13430Y14930D01*
D02*
G37*
G36*
X13562Y14945D02*
X13598Y14922D01*
X13631Y14890D01*
X13664Y14836D01*
X13674Y14808D01*
X13676Y14721D01*
X13665Y14684D01*
X13642Y14645D01*
X13621Y14622D01*
X13592Y14593D01*
X13567Y14576D01*
X13520Y14561D01*
X13490Y14590D01*
Y14929D01*
X13502Y14950D01*
X13522Y14957D01*
X13562Y14945D01*
D02*
G37*
G36*
X10980Y16629D02*
X11006Y16616D01*
X11033Y16607D01*
X11061Y16601D01*
X11071Y16589D01*
X11069Y16570D01*
X11067Y16535D01*
X11069Y16501D01*
X11074Y16467D01*
X11082Y16434D01*
X11094Y16401D01*
X11108Y16370D01*
X11126Y16341D01*
X11146Y16313D01*
X11170Y16288D01*
X11195Y16265D01*
X11223Y16244D01*
X11252Y16226D01*
X11283Y16212D01*
X11316Y16200D01*
X11349Y16192D01*
X11383Y16187D01*
X11417Y16185D01*
X11452Y16187D01*
X11486Y16192D01*
X11519Y16200D01*
X11551Y16212D01*
X11583Y16226D01*
X11612Y16244D01*
X11632Y16259D01*
X11659Y16251D01*
X11682Y16235D01*
Y16115D01*
X11639Y16098D01*
X11067D01*
Y15398D01*
X11071D01*
X11090Y15352D01*
X10947Y15209D01*
X10934Y15193D01*
X10923Y15176D01*
X10915Y15157D01*
X10910Y15137D01*
X10909Y15117D01*
Y14249D01*
X10749Y14089D01*
X10736Y14074D01*
X10729Y14062D01*
X10700Y14050D01*
X10694Y14049D01*
X10675Y14049D01*
X10670Y14051D01*
X10452Y14268D01*
X10455Y14277D01*
X10478Y14314D01*
X10492Y14311D01*
X10520Y14310D01*
X10548Y14311D01*
X10576Y14316D01*
X10603Y14324D01*
X10629Y14334D01*
X10653Y14348D01*
X10676Y14364D01*
X10697Y14383D01*
X10716Y14404D01*
X10732Y14427D01*
X10746Y14451D01*
X10756Y14477D01*
X10764Y14504D01*
X10769Y14532D01*
X10770Y14560D01*
Y14909D01*
X10769Y14937D01*
X10764Y14965D01*
X10756Y14992D01*
X10746Y15018D01*
X10732Y15042D01*
X10716Y15065D01*
X10697Y15086D01*
X10483Y15301D01*
Y15872D01*
X10845Y16234D01*
X10864Y16255D01*
X10880Y16278D01*
X10893Y16303D01*
X10904Y16329D01*
X10912Y16356D01*
X10917Y16383D01*
X10918Y16411D01*
Y16611D01*
X10931Y16623D01*
X10968Y16637D01*
X10980Y16629D01*
D02*
G37*
G36*
X17063Y15177D02*
X17157Y15163D01*
X17251Y15153D01*
X17346Y15148D01*
X17417Y15146D01*
X17417Y15096D01*
X17206D01*
Y14567D01*
Y14038D01*
X17460D01*
Y14567D01*
X17560D01*
Y14038D01*
X17814D01*
Y14567D01*
X17914D01*
Y14038D01*
X18437D01*
Y14274D01*
X18509D01*
Y13962D01*
X18438Y13890D01*
X16582D01*
X16499Y13974D01*
Y14274D01*
X16583D01*
Y14038D01*
X17106D01*
Y14567D01*
Y15096D01*
X16951D01*
X16950Y15112D01*
X16944Y15135D01*
X16938Y15150D01*
X16949Y15172D01*
X16967Y15191D01*
X16971Y15194D01*
X17063Y15177D01*
D02*
G37*
G36*
X8870Y14190D02*
Y13851D01*
X8858Y13830D01*
X8838Y13823D01*
X8798Y13835D01*
X8762Y13858D01*
X8729Y13890D01*
X8696Y13944D01*
X8686Y13972D01*
X8684Y14059D01*
X8695Y14096D01*
X8718Y14135D01*
X8739Y14158D01*
X8768Y14187D01*
X8793Y14204D01*
X8840Y14219D01*
X8870Y14190D01*
D02*
G37*
G36*
X9022Y14205D02*
X9058Y14182D01*
X9091Y14150D01*
X9124Y14096D01*
X9134Y14068D01*
X9136Y13981D01*
X9125Y13944D01*
X9102Y13905D01*
X9081Y13882D01*
X9052Y13853D01*
X9027Y13836D01*
X8980Y13821D01*
X8950Y13850D01*
Y14189D01*
X8962Y14210D01*
X8982Y14217D01*
X9022Y14205D01*
D02*
G37*
G36*
X11835Y14330D02*
X12053D01*
Y14280D01*
X12103D01*
Y14082D01*
X12235D01*
Y13856D01*
X12186D01*
X12162Y13855D01*
X12139Y13850D01*
X12117Y13842D01*
X12096Y13832D01*
X12076Y13819D01*
X12058Y13803D01*
X11882Y13628D01*
X11867Y13610D01*
X11854Y13590D01*
X11843Y13569D01*
X11836Y13547D01*
X11831Y13524D01*
X11830Y13510D01*
X11777D01*
X11756Y13509D01*
X11737Y13504D01*
X11725Y13499D01*
X11718Y13496D01*
X11705Y13488D01*
X11208D01*
Y13845D01*
X11766Y14403D01*
X11835D01*
Y14330D01*
D02*
G37*
G36*
X9857Y13363D02*
Y13278D01*
X9565D01*
Y13363D01*
Y13570D01*
X9857D01*
Y13363D01*
D02*
G37*
G36*
X8880Y13640D02*
Y13301D01*
X8868Y13280D01*
X8848Y13273D01*
X8808Y13285D01*
X8772Y13308D01*
X8739Y13340D01*
X8706Y13394D01*
X8696Y13422D01*
X8694Y13509D01*
X8705Y13546D01*
X8728Y13585D01*
X8749Y13608D01*
X8778Y13637D01*
X8803Y13654D01*
X8850Y13669D01*
X8880Y13640D01*
D02*
G37*
G36*
X9012Y13655D02*
X9048Y13632D01*
X9081Y13600D01*
X9114Y13546D01*
X9124Y13518D01*
X9126Y13431D01*
X9115Y13394D01*
X9092Y13355D01*
X9071Y13332D01*
X9042Y13303D01*
X9017Y13286D01*
X8970Y13271D01*
X8940Y13300D01*
Y13639D01*
X8952Y13660D01*
X8972Y13667D01*
X9012Y13655D01*
D02*
G37*
G36*
X7014Y13327D02*
X7020Y13320D01*
X7049Y13294D01*
X7080Y13271D01*
X7113Y13251D01*
X7149Y13234D01*
X7185Y13221D01*
X7223Y13212D01*
X7261Y13206D01*
X7300Y13204D01*
X7339Y13206D01*
X7377Y13212D01*
X7415Y13221D01*
X7451Y13234D01*
X7452Y13235D01*
X7640Y13048D01*
Y12888D01*
X7590Y12869D01*
X7580Y12880D01*
X7551Y12906D01*
X7520Y12929D01*
X7487Y12949D01*
X7451Y12966D01*
X7415Y12979D01*
X7377Y12988D01*
X7339Y12994D01*
X7300Y12996D01*
X7261Y12994D01*
X7223Y12988D01*
X7185Y12979D01*
X7149Y12966D01*
X7113Y12949D01*
X7080Y12929D01*
X7049Y12906D01*
X7020Y12880D01*
X6994Y12851D01*
X6971Y12820D01*
X6951Y12787D01*
X6934Y12751D01*
X6921Y12715D01*
X6912Y12677D01*
X6906Y12639D01*
X6904Y12600D01*
X6906Y12561D01*
X6912Y12523D01*
X6921Y12485D01*
X6934Y12449D01*
X6951Y12413D01*
X6971Y12380D01*
X6994Y12349D01*
X7020Y12320D01*
X7049Y12294D01*
X7080Y12271D01*
X7113Y12251D01*
X7149Y12234D01*
X7185Y12221D01*
X7223Y12212D01*
X7261Y12206D01*
X7300Y12204D01*
X7339Y12206D01*
X7377Y12212D01*
X7415Y12221D01*
X7451Y12234D01*
X7487Y12251D01*
X7520Y12271D01*
X7551Y12294D01*
X7580Y12320D01*
X7592Y12333D01*
X7603Y12334D01*
X7641Y12322D01*
X7646Y12319D01*
X7647Y12313D01*
X7656Y12292D01*
X7668Y12272D01*
X7684Y12254D01*
X7882Y12055D01*
X7900Y12040D01*
X7920Y12028D01*
X7942Y12019D01*
X7965Y12013D01*
X7988Y12011D01*
X8089D01*
X8108Y11965D01*
X7947Y11805D01*
X7930Y11807D01*
X7897Y11825D01*
X7896Y11840D01*
X7890Y11868D01*
X7881Y11895D01*
X7868Y11921D01*
X7852Y11945D01*
X7833Y11967D01*
X7811Y11986D01*
X7787Y12002D01*
X7762Y12015D01*
X7734Y12024D01*
X7706Y12030D01*
X7677Y12032D01*
X7648Y12030D01*
X7620Y12024D01*
X7593Y12015D01*
X7567Y12002D01*
X7543Y11986D01*
X7521Y11967D01*
X7492Y11950D01*
X7458Y11968D01*
X7439Y11981D01*
X7413Y11994D01*
X7385Y12003D01*
X7357Y12009D01*
X7328Y12010D01*
X7300Y12009D01*
X7271Y12003D01*
X7244Y11994D01*
X7218Y11981D01*
X7194Y11965D01*
X7172Y11946D01*
X7153Y11924D01*
X7137Y11900D01*
X7125Y11874D01*
X7115Y11847D01*
X7110Y11819D01*
X7108Y11790D01*
X7110Y11761D01*
X7110Y11759D01*
X7076Y11709D01*
X6985D01*
Y11511D01*
X6935D01*
Y11461D01*
X6716D01*
Y11423D01*
X6685D01*
X6664Y11422D01*
X6645Y11417D01*
X6626Y11409D01*
X6608Y11399D01*
X6593Y11385D01*
X6518Y11311D01*
X6505Y11295D01*
X6494Y11278D01*
X6486Y11259D01*
X6482Y11239D01*
X6480Y11219D01*
Y11128D01*
X6367D01*
X6263Y11232D01*
X6247Y11245D01*
X6230Y11256D01*
X6211Y11263D01*
X6195Y11267D01*
Y11550D01*
X5405D01*
Y11270D01*
X5281D01*
X5261Y11268D01*
X5241Y11263D01*
X5222Y11256D01*
X5205Y11245D01*
X5189Y11232D01*
X4365Y10408D01*
X4352Y10392D01*
X4341Y10375D01*
X4334Y10356D01*
X4329Y10336D01*
X4327Y10316D01*
Y10195D01*
X4277Y10170D01*
X4275Y10172D01*
X4242Y10192D01*
X4207Y10208D01*
X4170Y10221D01*
X4132Y10231D01*
X4094Y10236D01*
X4055Y10238D01*
X4016Y10236D01*
X3978Y10231D01*
X3940Y10221D01*
X3904Y10208D01*
X3869Y10192D01*
X3835Y10172D01*
X3804Y10148D01*
X3775Y10122D01*
X3765Y10111D01*
X3715Y10130D01*
Y11533D01*
X4377Y12196D01*
X5122D01*
X5127Y12173D01*
X5136Y12146D01*
X5149Y12120D01*
X5165Y12096D01*
X5184Y12074D01*
X5206Y12055D01*
X5230Y12039D01*
X5256Y12026D01*
X5283Y12017D01*
X5311Y12011D01*
X5340Y12010D01*
X5361Y12011D01*
X5383Y11995D01*
X5405Y11968D01*
Y11650D01*
X5750D01*
Y11995D01*
X5473D01*
X5464Y12012D01*
X5460Y12045D01*
X5474Y12055D01*
X5496Y12074D01*
X5515Y12096D01*
X5531Y12120D01*
X5543Y12144D01*
X5563Y12137D01*
X5591Y12131D01*
X5620Y12130D01*
X5649Y12131D01*
X5677Y12137D01*
X5704Y12146D01*
X5730Y12159D01*
X5754Y12175D01*
X5776Y12194D01*
X5795Y12216D01*
X5811Y12240D01*
X5823Y12264D01*
X5843Y12257D01*
X5871Y12251D01*
X5900Y12250D01*
X5929Y12251D01*
X5957Y12257D01*
X5984Y12266D01*
X6010Y12279D01*
X6034Y12295D01*
X6056Y12314D01*
X6075Y12336D01*
X6091Y12360D01*
X6104Y12386D01*
X6113Y12413D01*
X6119Y12441D01*
X6120Y12470D01*
X6119Y12499D01*
X6117Y12505D01*
X6117Y12505D01*
X6137Y12559D01*
X6162Y12567D01*
X6185Y12579D01*
X6207Y12593D01*
X6227Y12610D01*
X6950Y13334D01*
X7014Y13327D01*
D02*
G37*
G36*
X18227Y12761D02*
X18227Y12761D01*
X18249Y12742D01*
X18274Y12725D01*
X18300Y12712D01*
X18328Y12703D01*
X18357Y12697D01*
X18386Y12695D01*
X18386Y12695D01*
X18552D01*
Y12227D01*
X18375Y12050D01*
X16413D01*
Y12735D01*
X17240D01*
X17240Y12735D01*
X17269Y12736D01*
X17298Y12742D01*
X17326Y12752D01*
X17353Y12765D01*
X17377Y12781D01*
X17399Y12801D01*
X17499Y12901D01*
X17499Y12901D01*
X17573Y12974D01*
X17573Y12974D01*
X17592Y12996D01*
X17608Y13020D01*
X17621Y13047D01*
X17631Y13075D01*
X17637Y13104D01*
X17639Y13133D01*
X17639Y13133D01*
Y13296D01*
X17689Y13299D01*
X18227Y12761D01*
D02*
G37*
G36*
X13287Y13158D02*
X13302Y13146D01*
X13302Y13143D01*
X13288Y13096D01*
X13155D01*
Y12977D01*
X13333D01*
Y13040D01*
X13383Y13072D01*
X13391Y13069D01*
Y12855D01*
X13711D01*
X13724Y12807D01*
X13697Y12794D01*
X13673Y12777D01*
X13662Y12768D01*
X13628D01*
X13606Y12766D01*
X13585Y12762D01*
X13564Y12755D01*
X13544Y12745D01*
X13525Y12733D01*
X13509Y12718D01*
X13493Y12702D01*
X13333D01*
Y12899D01*
X13105D01*
Y12927D01*
X13055D01*
Y13096D01*
X12923D01*
X12841Y13177D01*
X12826Y13190D01*
X12808Y13201D01*
X12789Y13209D01*
X12770Y13214D01*
X12749Y13215D01*
X12369D01*
X12350Y13234D01*
Y13376D01*
X12352Y13377D01*
X13068D01*
X13287Y13158D01*
D02*
G37*
G36*
X9089Y13166D02*
Y13166D01*
X9256D01*
Y12892D01*
X9063D01*
Y12694D01*
X8963D01*
Y12892D01*
X8931D01*
Y13129D01*
X8958Y13157D01*
X9003Y13174D01*
X9028Y13182D01*
X9039Y13186D01*
X9089Y13166D01*
D02*
G37*
G36*
X7905Y13650D02*
X8300D01*
Y13600D01*
X8350D01*
Y13205D01*
X8671D01*
Y12995D01*
X8350D01*
Y12600D01*
X8250D01*
Y12995D01*
X7940D01*
Y13110D01*
X7939Y13134D01*
X7934Y13155D01*
X7933Y13157D01*
X7961Y13201D01*
X7967Y13205D01*
X8250D01*
Y13550D01*
X7905D01*
Y13279D01*
X7855Y13258D01*
X7665Y13448D01*
X7666Y13449D01*
X7679Y13485D01*
X7688Y13523D01*
X7694Y13561D01*
X7696Y13600D01*
X7694Y13639D01*
X7688Y13677D01*
X7679Y13715D01*
X7666Y13751D01*
X7665Y13752D01*
X7792Y13880D01*
X7905D01*
Y13650D01*
D02*
G37*
G36*
X12000Y12740D02*
Y12401D01*
X11988Y12380D01*
X11968Y12373D01*
X11928Y12385D01*
X11892Y12408D01*
X11859Y12440D01*
X11826Y12494D01*
X11816Y12522D01*
X11814Y12609D01*
X11825Y12646D01*
X11848Y12685D01*
X11869Y12708D01*
X11898Y12737D01*
X11923Y12754D01*
X11970Y12769D01*
X12000Y12740D01*
D02*
G37*
G36*
X12132Y12755D02*
X12168Y12732D01*
X12201Y12700D01*
X12234Y12646D01*
X12244Y12618D01*
X12246Y12531D01*
X12235Y12494D01*
X12212Y12455D01*
X12191Y12432D01*
X12162Y12403D01*
X12137Y12386D01*
X12090Y12371D01*
X12060Y12400D01*
Y12739D01*
X12072Y12760D01*
X12092Y12767D01*
X12132Y12755D01*
D02*
G37*
G36*
X10475Y13278D02*
Y12329D01*
X10429Y12283D01*
X10383Y12302D01*
Y12495D01*
X10394D01*
Y12644D01*
X10176D01*
Y12744D01*
X10394D01*
Y12892D01*
X10165D01*
Y12990D01*
X10006D01*
Y13090D01*
X10165D01*
Y13166D01*
X10332D01*
Y13276D01*
X10094D01*
Y13376D01*
X10374D01*
X10377Y13377D01*
X10475Y13278D01*
D02*
G37*
G36*
X19791Y5172D02*
X19741Y5138D01*
X19739Y5139D01*
X19710Y5140D01*
X19681Y5139D01*
X19680Y5138D01*
X19630Y5173D01*
Y5790D01*
X19629Y5810D01*
X19624Y5830D01*
X19616Y5849D01*
X19605Y5867D01*
X19592Y5882D01*
X19228Y6246D01*
X19239Y6278D01*
X19251Y6294D01*
X19272Y6292D01*
X19301Y6294D01*
X19329Y6300D01*
X19355Y6309D01*
X19381Y6321D01*
X19405Y6337D01*
X19426Y6356D01*
X19445Y6377D01*
X19460Y6401D01*
X19473Y6426D01*
X19482Y6453D01*
X19488Y6481D01*
X19489Y6509D01*
X19488Y6538D01*
X19482Y6566D01*
X19473Y6592D01*
X19460Y6618D01*
X19445Y6641D01*
X19426Y6663D01*
X19405Y6682D01*
X19381Y6697D01*
X19355Y6710D01*
X19329Y6719D01*
X19301Y6725D01*
X19272Y6726D01*
X19244Y6725D01*
X19216Y6719D01*
X19206Y6716D01*
X19167Y6737D01*
X19156Y6749D01*
Y7291D01*
X19155Y7312D01*
X19150Y7332D01*
X19142Y7350D01*
X19131Y7368D01*
X19118Y7383D01*
X18932Y7569D01*
X18917Y7582D01*
X18899Y7593D01*
X18880Y7601D01*
X18861Y7606D01*
X18840Y7607D01*
X18664D01*
X18644Y7606D01*
X18624Y7601D01*
X18605Y7593D01*
X18588Y7582D01*
X18572Y7569D01*
X18486Y7483D01*
X18482Y7484D01*
X18453Y7486D01*
X18424Y7484D01*
X18396Y7479D01*
X18369Y7469D01*
X18343Y7457D01*
X18319Y7440D01*
X18297Y7421D01*
X18278Y7400D01*
X18262Y7376D01*
X18249Y7350D01*
X18240Y7323D01*
X18234Y7294D01*
X18233Y7266D01*
X18234Y7237D01*
X18240Y7209D01*
X18249Y7181D01*
X18262Y7155D01*
X18278Y7131D01*
X18297Y7110D01*
X18319Y7091D01*
X18343Y7075D01*
X18369Y7062D01*
X18396Y7053D01*
X18424Y7047D01*
X18453Y7045D01*
X18482Y7047D01*
X18510Y7053D01*
X18528Y7059D01*
X18555Y7046D01*
X18578Y7026D01*
Y6877D01*
X18395D01*
Y6679D01*
X18345D01*
Y6629D01*
X18127D01*
Y6536D01*
X17938D01*
Y6329D01*
X18186D01*
Y6229D01*
X17938D01*
Y6077D01*
X17798D01*
Y6077D01*
X17762D01*
Y6077D01*
X17462D01*
X17454Y6086D01*
X17437Y6101D01*
X17417Y6112D01*
X17396Y6121D01*
X17374Y6127D01*
X17351Y6128D01*
X16966D01*
X16947Y6175D01*
X17716Y6944D01*
X17732Y6962D01*
X17744Y6982D01*
X17753Y7003D01*
X17759Y7026D01*
X17760Y7050D01*
Y8378D01*
X17759Y8402D01*
X17753Y8425D01*
X17744Y8446D01*
X17732Y8466D01*
X17716Y8484D01*
X17326Y8874D01*
X17308Y8890D01*
X17288Y8902D01*
X17266Y8911D01*
X17244Y8917D01*
X17220Y8918D01*
X16465D01*
Y9130D01*
X16464Y9153D01*
X16459Y9175D01*
X16452Y9197D01*
X16442Y9218D01*
X16429Y9237D01*
X16414Y9254D01*
X16274Y9394D01*
X16257Y9409D01*
X16238Y9422D01*
X16217Y9432D01*
X16195Y9439D01*
X16173Y9444D01*
X16150Y9445D01*
X15703D01*
Y9660D01*
X15716Y9680D01*
X15729Y9706D01*
X15738Y9733D01*
X15744Y9761D01*
X15745Y9790D01*
X15744Y9819D01*
X15738Y9847D01*
X15729Y9874D01*
X15716Y9900D01*
X15700Y9924D01*
X15681Y9946D01*
X15659Y9965D01*
X15635Y9981D01*
X15609Y9994D01*
X15582Y10003D01*
X15555Y10008D01*
X15334Y10229D01*
Y10302D01*
X15335Y10307D01*
X15337Y10330D01*
X15337Y10330D01*
Y11310D01*
X15335Y11333D01*
X15331Y11355D01*
X15323Y11377D01*
X15313Y11398D01*
X15300Y11417D01*
X15285Y11434D01*
X15170Y11550D01*
X15190Y11600D01*
X18469D01*
X18469Y11600D01*
X18498Y11601D01*
X18527Y11607D01*
X18555Y11617D01*
X18581Y11630D01*
X18606Y11646D01*
X18628Y11666D01*
X18870Y11908D01*
X19791D01*
Y5172D01*
D02*
G37*
G36*
X12353Y12360D02*
X12486Y12228D01*
X12486Y12228D01*
X12505Y12211D01*
X12527Y12196D01*
X12551Y12185D01*
X12575Y12176D01*
X12601Y12171D01*
X12627Y12170D01*
X12627Y12170D01*
X12639D01*
X12646Y12166D01*
X12673Y12157D01*
X12701Y12151D01*
X12730Y12150D01*
X12759Y12151D01*
X12787Y12157D01*
X12814Y12166D01*
X12840Y12179D01*
X12864Y12195D01*
X12886Y12214D01*
X12905Y12236D01*
X12921Y12260D01*
X12934Y12286D01*
X12943Y12313D01*
X12949Y12341D01*
X12950Y12364D01*
X13105D01*
X13105Y12364D01*
X13391D01*
Y11674D01*
X13391D01*
X13388Y11625D01*
X12970D01*
X12947Y11624D01*
X12925Y11619D01*
X12903Y11612D01*
X12882Y11602D01*
X12863Y11589D01*
X12846Y11574D01*
X12657Y11385D01*
X12504D01*
X12480Y11401D01*
X12454Y11414D01*
X12427Y11423D01*
X12399Y11429D01*
X12370Y11430D01*
X12364Y11430D01*
X12330Y11472D01*
X12328Y11477D01*
Y11633D01*
X12180D01*
Y11465D01*
X12281D01*
X12290Y11415D01*
X12286Y11414D01*
X12260Y11401D01*
X12236Y11385D01*
X12214Y11366D01*
X12195Y11344D01*
X12179Y11320D01*
X12166Y11294D01*
X12157Y11267D01*
X12151Y11239D01*
X12150Y11210D01*
X12151Y11181D01*
X12157Y11153D01*
X12166Y11126D01*
X12179Y11100D01*
X12195Y11076D01*
X12214Y11054D01*
X12236Y11035D01*
X12260Y11019D01*
X12286Y11006D01*
X12313Y10997D01*
X12341Y10991D01*
X12370Y10990D01*
X12399Y10991D01*
X12427Y10997D01*
X12454Y11006D01*
X12480Y11019D01*
X12504Y11035D01*
X12730D01*
X12753Y11036D01*
X12775Y11041D01*
X12797Y11048D01*
X12818Y11058D01*
X12837Y11071D01*
X12854Y11086D01*
X13043Y11275D01*
X13215D01*
Y11179D01*
X12817Y10781D01*
X12803Y10765D01*
X12791Y10746D01*
X12783Y10725D01*
X12778Y10704D01*
X12776Y10682D01*
Y10476D01*
X12761Y10465D01*
X12726Y10455D01*
X12714Y10465D01*
X12690Y10481D01*
X12664Y10494D01*
X12637Y10503D01*
X12609Y10509D01*
X12580Y10510D01*
X12551Y10509D01*
X12547Y10508D01*
X12282Y10772D01*
X12267Y10785D01*
X12249Y10796D01*
X12230Y10804D01*
X12210Y10809D01*
X12190Y10810D01*
X12000D01*
X11980Y10809D01*
X11960Y10804D01*
X11941Y10796D01*
X11923Y10785D01*
X11908Y10772D01*
X11796Y10660D01*
X11793Y10657D01*
X11780Y10662D01*
Y10641D01*
X11772Y10627D01*
X11764Y10608D01*
X11760Y10594D01*
X11760Y10593D01*
X11751Y10572D01*
X11746Y10550D01*
X11744Y10528D01*
Y10443D01*
X11717D01*
Y10528D01*
X11715Y10550D01*
X11710Y10572D01*
X11701Y10593D01*
X11690Y10611D01*
X11689Y10613D01*
X11684Y10622D01*
X11680Y10627D01*
Y10662D01*
X11665Y10656D01*
X11659Y10652D01*
X11353Y10959D01*
Y11436D01*
X11401Y11472D01*
X11403Y11471D01*
X11439Y11462D01*
X11477Y11457D01*
X11516Y11455D01*
X11555Y11457D01*
X11593Y11462D01*
X11631Y11472D01*
X11667Y11485D01*
X11702Y11501D01*
X11736Y11521D01*
X11767Y11544D01*
X11796Y11571D01*
X11822Y11599D01*
X11845Y11631D01*
X11865Y11664D01*
X11881Y11699D01*
X11882Y11700D01*
X11932Y11691D01*
Y11465D01*
X12080D01*
Y11683D01*
X12130D01*
Y11733D01*
X12328D01*
Y11859D01*
Y12295D01*
X12283D01*
Y12364D01*
X12350D01*
X12353Y12360D01*
D02*
G37*
G36*
X9639Y11414D02*
X9639Y11410D01*
X9597Y11368D01*
X9248D01*
X9229Y11418D01*
X9236Y11424D01*
X9255Y11446D01*
X9271Y11470D01*
X9284Y11496D01*
X9293Y11523D01*
X9299Y11551D01*
X9300Y11580D01*
X9299Y11608D01*
X9299Y11609D01*
X9335Y11658D01*
X9395D01*
X9639Y11414D01*
D02*
G37*
G36*
X8480Y11146D02*
X8513Y11113D01*
Y10888D01*
X8514Y10868D01*
X8519Y10848D01*
X8527Y10829D01*
X8538Y10812D01*
X8551Y10796D01*
X8591Y10756D01*
X8571Y10706D01*
X8383D01*
Y10558D01*
X8342Y10521D01*
X8333Y10519D01*
X8310Y10520D01*
X8281Y10519D01*
X8268Y10516D01*
X8237Y10544D01*
X8230Y10558D01*
X8234Y10573D01*
X8236Y10595D01*
X8234Y10617D01*
X8229Y10638D01*
X8220Y10658D01*
X8211Y10674D01*
X8220Y10689D01*
X8229Y10709D01*
X8234Y10731D01*
X8236Y10752D01*
X8234Y10774D01*
X8229Y10796D01*
X8220Y10816D01*
X8209Y10835D01*
X8195Y10851D01*
X8178Y10866D01*
X8159Y10877D01*
X8139Y10885D01*
X8118Y10891D01*
X8098Y10892D01*
Y11083D01*
X8148Y11110D01*
X8150Y11109D01*
X8176Y11096D01*
X8203Y11087D01*
X8231Y11081D01*
X8260Y11080D01*
X8289Y11081D01*
X8317Y11087D01*
X8344Y11096D01*
X8370Y11109D01*
X8394Y11125D01*
X8416Y11144D01*
X8416Y11145D01*
X8475Y11148D01*
X8480Y11146D01*
D02*
G37*
G36*
X9945Y10972D02*
X9982D01*
X10003Y10922D01*
X9940Y10859D01*
X9926Y10842D01*
X9914Y10823D01*
X9907Y10807D01*
X9907Y10807D01*
X9906Y10803D01*
X9901Y10781D01*
X9899Y10759D01*
Y10571D01*
X9865D01*
Y10709D01*
X9863Y10731D01*
X9858Y10752D01*
X9850Y10773D01*
X9838Y10791D01*
X9832Y10799D01*
Y10799D01*
X9831Y10799D01*
X9824Y10808D01*
X9737Y10895D01*
Y10972D01*
X9815D01*
Y11190D01*
X9863Y11238D01*
X9945D01*
Y10972D01*
D02*
G37*
G36*
X10607D02*
X10658D01*
Y10810D01*
X10631Y10809D01*
X10603Y10803D01*
X10576Y10794D01*
X10550Y10781D01*
X10526Y10765D01*
X10521Y10760D01*
X10499Y10757D01*
X10471Y10759D01*
X10455Y10766D01*
X10453Y10768D01*
X10437Y10782D01*
X10418Y10794D01*
X10398Y10802D01*
X10376Y10807D01*
X10354Y10809D01*
X10338Y10808D01*
X10319Y10822D01*
X10299Y10851D01*
X10302Y10861D01*
X10304Y10883D01*
Y10972D01*
X10507D01*
Y11170D01*
X10607D01*
Y10972D01*
D02*
G37*
G36*
X9456Y10836D02*
X9458Y10814D01*
X9463Y10793D01*
X9472Y10773D01*
X9472Y10772D01*
X9468Y10768D01*
X9454Y10751D01*
X9442Y10733D01*
X9434Y10712D01*
X9429Y10691D01*
X9427Y10669D01*
Y10494D01*
X9255D01*
Y10908D01*
X9254Y10922D01*
X9257Y10933D01*
X9285Y10967D01*
X9293Y10972D01*
X9456D01*
Y10836D01*
D02*
G37*
G36*
X6123Y10503D02*
X6138Y10489D01*
X6156Y10479D01*
X6158Y10453D01*
X6115Y10412D01*
X6004D01*
X6000Y10413D01*
X5948D01*
X5903Y10458D01*
Y10542D01*
X5901Y10562D01*
X5896Y10582D01*
X5888Y10601D01*
X5886Y10605D01*
X5901Y10643D01*
X5912Y10655D01*
X5970D01*
X6123Y10503D01*
D02*
G37*
G36*
X14958Y9668D02*
X14937Y9618D01*
X14880D01*
Y9568D01*
X14735D01*
Y9173D01*
Y8778D01*
X14880D01*
Y8729D01*
X15015D01*
X15034Y8683D01*
X14852Y8500D01*
X14172D01*
X14028Y8644D01*
Y8681D01*
X14034Y8729D01*
X14212D01*
Y8878D01*
X14312D01*
Y8729D01*
X14490D01*
Y8778D01*
X14635D01*
Y9173D01*
Y9568D01*
X14490D01*
Y9618D01*
X14312D01*
Y9469D01*
X14212D01*
Y9618D01*
X14075D01*
Y9777D01*
X14125Y9789D01*
X14129Y9780D01*
X14145Y9756D01*
X14164Y9734D01*
X14186Y9715D01*
X14210Y9699D01*
X14236Y9686D01*
X14263Y9677D01*
X14291Y9671D01*
X14320Y9670D01*
X14349Y9671D01*
X14377Y9677D01*
X14404Y9686D01*
X14430Y9699D01*
X14454Y9715D01*
X14476Y9734D01*
X14495Y9756D01*
X14511Y9780D01*
X14524Y9806D01*
X14533Y9833D01*
X14539Y9861D01*
X14539Y9862D01*
X14764D01*
X14958Y9668D01*
D02*
G37*
G36*
X14111Y10021D02*
X14124Y9990D01*
X14116Y9974D01*
X14107Y9947D01*
X14101Y9919D01*
X14100Y9890D01*
X14101Y9874D01*
X14073Y9844D01*
X14056Y9834D01*
X13926D01*
Y9616D01*
X13826D01*
Y9834D01*
X13748D01*
Y9922D01*
X13747Y9942D01*
X13742Y9962D01*
X13734Y9981D01*
X13729Y9990D01*
X13739Y10019D01*
X13754Y10040D01*
X14095D01*
X14111Y10021D01*
D02*
G37*
G36*
X10985Y9746D02*
X11118D01*
Y9593D01*
X10922D01*
X10900Y9591D01*
X10879Y9586D01*
X10858Y9577D01*
X10832Y9583D01*
X10812Y9594D01*
X10804Y9601D01*
X10802Y9610D01*
X10794Y9630D01*
X10784Y9646D01*
X10794Y9661D01*
X10802Y9681D01*
X10807Y9703D01*
X10809Y9724D01*
X10829Y9746D01*
X10885D01*
Y9964D01*
X10985D01*
Y9746D01*
D02*
G37*
G36*
X11341Y9262D02*
X11334Y9256D01*
X11315Y9234D01*
X11299Y9210D01*
X11286Y9184D01*
X11277Y9157D01*
X11271Y9129D01*
X11270Y9100D01*
X11271Y9071D01*
X11277Y9043D01*
X11286Y9016D01*
X11299Y8990D01*
X11315Y8966D01*
X11334Y8944D01*
X11356Y8925D01*
X11380Y8909D01*
X11406Y8896D01*
X11433Y8887D01*
X11461Y8881D01*
X11490Y8880D01*
X11519Y8881D01*
X11547Y8887D01*
X11552Y8889D01*
X11561Y8887D01*
X11596Y8863D01*
X11602Y8854D01*
Y8753D01*
X11800D01*
Y8653D01*
X11602D01*
Y8592D01*
X10732D01*
X10534Y8790D01*
X10554Y8836D01*
X10587D01*
X10609Y8838D01*
X10630Y8843D01*
X10631Y8843D01*
X10641Y8841D01*
X10670Y8840D01*
X10699Y8841D01*
X10727Y8847D01*
X10754Y8856D01*
X10780Y8869D01*
X10804Y8885D01*
X10826Y8904D01*
X10845Y8926D01*
X10861Y8950D01*
X10874Y8976D01*
X10883Y9003D01*
X10889Y9031D01*
X10890Y9060D01*
X10889Y9089D01*
X10883Y9117D01*
X10874Y9144D01*
X10861Y9170D01*
X10852Y9183D01*
X10980Y9312D01*
X11322D01*
X11341Y9262D01*
D02*
G37*
G36*
X3775Y9563D02*
X3804Y9537D01*
X3835Y9513D01*
X3869Y9493D01*
X3904Y9477D01*
X3940Y9464D01*
X3978Y9454D01*
X3999Y9451D01*
X4697Y8754D01*
Y8568D01*
X4458D01*
X4379Y8646D01*
X4364Y8659D01*
X4347Y8670D01*
X4328Y8678D01*
X4308Y8682D01*
X4288Y8684D01*
X4073D01*
X4053Y8682D01*
X4033Y8678D01*
X4014Y8670D01*
X3997Y8659D01*
X3982Y8646D01*
X3931Y8595D01*
X3918Y8580D01*
X3914Y8574D01*
X3894Y8584D01*
X3867Y8593D01*
X3839Y8599D01*
X3810Y8600D01*
X3781Y8599D01*
X3776Y8597D01*
X3715Y8658D01*
Y9555D01*
X3765Y9575D01*
X3775Y9563D01*
D02*
G37*
G36*
X7528Y8782D02*
X7696D01*
Y8782D01*
X7746Y8805D01*
X7770Y8789D01*
X7796Y8776D01*
X7823Y8767D01*
X7851Y8761D01*
X7880Y8760D01*
X7909Y8761D01*
X7937Y8767D01*
X7964Y8776D01*
X7990Y8789D01*
X8014Y8805D01*
X8025Y8815D01*
X8200Y8640D01*
X8200Y8640D01*
X8201Y8611D01*
X8204Y8600D01*
X8180Y8562D01*
X8165Y8550D01*
X7826D01*
X7786Y8591D01*
X7769Y8606D01*
X7750Y8617D01*
X7730Y8626D01*
X7708Y8631D01*
X7686Y8632D01*
X7333D01*
X7320Y8643D01*
X7299Y8682D01*
X7303Y8693D01*
X7309Y8721D01*
X7310Y8750D01*
X7358Y8782D01*
X7428D01*
Y8981D01*
X7528D01*
Y8782D01*
D02*
G37*
G36*
X13678Y9534D02*
Y9004D01*
X13727D01*
Y8582D01*
X13729Y8559D01*
X13735Y8536D01*
X13744Y8514D01*
X13756Y8494D01*
X13771Y8476D01*
X14004Y8244D01*
X14022Y8228D01*
X14042Y8216D01*
X14064Y8207D01*
X14086Y8201D01*
X14110Y8200D01*
X14914D01*
X14938Y8201D01*
X14961Y8207D01*
X14982Y8216D01*
X15002Y8228D01*
X15020Y8244D01*
X15394Y8618D01*
X16200D01*
X16202Y8616D01*
X16223Y8606D01*
X16245Y8599D01*
X16267Y8594D01*
X16290Y8593D01*
X16313Y8594D01*
X16335Y8599D01*
X16357Y8606D01*
X16378Y8616D01*
X16380Y8618D01*
X17158D01*
X17460Y8316D01*
Y7112D01*
X16408Y6060D01*
X16392Y6042D01*
X16380Y6022D01*
X16371Y6000D01*
X16365Y5978D01*
X16364Y5954D01*
Y4106D01*
X16365Y4082D01*
X16371Y4060D01*
X16380Y4038D01*
X16392Y4018D01*
X16408Y4000D01*
X17231Y3176D01*
X17249Y3161D01*
X17269Y3149D01*
X17291Y3140D01*
X17314Y3134D01*
X17337Y3132D01*
X17403D01*
X17443Y3092D01*
X17461Y3077D01*
X17481Y3065D01*
X17503Y3056D01*
X17526Y3050D01*
X17549Y3048D01*
X17587D01*
Y3000D01*
X18149D01*
Y3199D01*
X18199D01*
Y3249D01*
X18417D01*
Y3397D01*
X18453Y3432D01*
X19399D01*
X19419Y3433D01*
X19439Y3438D01*
X19458Y3446D01*
X19475Y3457D01*
X19491Y3470D01*
X19710Y3689D01*
X19723Y3705D01*
X19734Y3722D01*
X19742Y3741D01*
X19791Y3733D01*
Y2634D01*
X17280D01*
Y169D01*
X6429D01*
Y709D01*
X6428Y729D01*
X6423Y749D01*
X6415Y768D01*
X6404Y785D01*
X6391Y801D01*
X6376Y814D01*
X6358Y824D01*
X6339Y832D01*
X6320Y837D01*
X6299Y839D01*
X3150D01*
X3129Y837D01*
X3109Y832D01*
X3091Y824D01*
X3073Y814D01*
X3058Y801D01*
X3044Y785D01*
X3034Y768D01*
X3026Y749D01*
X3021Y729D01*
X3020Y709D01*
Y169D01*
X130D01*
Y3681D01*
X605D01*
X632Y3657D01*
X638Y3649D01*
X643Y3638D01*
X644Y3634D01*
X639Y3606D01*
X637Y3573D01*
X639Y3539D01*
X645Y3506D01*
X654Y3474D01*
X667Y3443D01*
X683Y3413D01*
X703Y3386D01*
X725Y3361D01*
X750Y3339D01*
X778Y3319D01*
X807Y3303D01*
X838Y3290D01*
X870Y3281D01*
X903Y3275D01*
X937Y3273D01*
X971Y3275D01*
X1004Y3281D01*
X1036Y3290D01*
X1067Y3303D01*
X1086Y3313D01*
X1117Y3301D01*
X1136Y3286D01*
Y2980D01*
X1086Y2955D01*
X1072Y2965D01*
X1035Y2989D01*
X997Y3009D01*
X957Y3025D01*
X916Y3038D01*
X874Y3048D01*
X831Y3053D01*
X787Y3055D01*
X744Y3053D01*
X701Y3048D01*
X659Y3038D01*
X618Y3025D01*
X578Y3009D01*
X539Y2989D01*
X503Y2965D01*
X468Y2939D01*
X437Y2910D01*
X407Y2878D01*
X381Y2844D01*
X358Y2807D01*
X338Y2769D01*
X321Y2729D01*
X308Y2687D01*
X299Y2645D01*
X293Y2602D01*
X291Y2559D01*
X293Y2516D01*
X299Y2473D01*
X308Y2431D01*
X321Y2389D01*
X338Y2349D01*
X358Y2311D01*
X381Y2274D01*
X407Y2240D01*
X437Y2208D01*
X468Y2179D01*
X503Y2153D01*
X539Y2129D01*
X578Y2109D01*
X618Y2093D01*
X659Y2080D01*
X701Y2070D01*
X744Y2065D01*
X787Y2063D01*
X831Y2065D01*
X874Y2070D01*
X916Y2080D01*
X957Y2093D01*
X997Y2109D01*
X1035Y2129D01*
X1072Y2153D01*
X1106Y2179D01*
X1138Y2208D01*
X1167Y2240D01*
X1194Y2274D01*
X1217Y2311D01*
X1237Y2349D01*
X1254Y2389D01*
X1267Y2431D01*
X1276Y2473D01*
X1279Y2497D01*
X1323Y2515D01*
X1332Y2515D01*
X1530Y2317D01*
X1549Y2300D01*
X1571Y2285D01*
X1595Y2274D01*
X1619Y2265D01*
X1645Y2260D01*
X1671Y2258D01*
X1671Y2258D01*
X4378D01*
X4384Y2255D01*
X4412Y2246D01*
X4440Y2240D01*
X4469Y2238D01*
X4497Y2240D01*
X4526Y2246D01*
X4553Y2255D01*
X4579Y2268D01*
X4603Y2284D01*
X4625Y2303D01*
X4644Y2324D01*
X4660Y2348D01*
X4672Y2374D01*
X4682Y2402D01*
X4687Y2430D01*
X4689Y2459D01*
X4687Y2487D01*
X4682Y2516D01*
X4672Y2543D01*
X4660Y2569D01*
X4644Y2593D01*
X4625Y2615D01*
X4603Y2634D01*
X4579Y2650D01*
X4553Y2662D01*
X4526Y2672D01*
X4497Y2677D01*
X4469Y2679D01*
X4440Y2677D01*
X4412Y2672D01*
X4384Y2662D01*
X4378Y2659D01*
X1754D01*
X1537Y2877D01*
Y3024D01*
X1538Y3073D01*
X2537D01*
Y3523D01*
X2537Y3572D01*
X2537D01*
Y3573D01*
X2537D01*
Y3773D01*
X2037D01*
Y3873D01*
X2537D01*
Y4072D01*
X2537D01*
Y4073D01*
X2537D01*
Y4273D01*
X2037D01*
Y4373D01*
X2537D01*
Y4572D01*
X2537D01*
Y4573D01*
X2537D01*
Y5072D01*
X2537D01*
Y5073D01*
X2537D01*
Y5273D01*
X2037D01*
Y5373D01*
X2537D01*
Y5572D01*
X2316D01*
X2302Y5622D01*
X2310Y5628D01*
X2342Y5651D01*
X2370Y5677D01*
X2396Y5706D01*
X2420Y5737D01*
X2440Y5770D01*
X2456Y5805D01*
X2469Y5842D01*
X2479Y5879D01*
X2484Y5918D01*
X2486Y5957D01*
X2484Y5995D01*
X2479Y6034D01*
X2469Y6072D01*
X2458Y6104D01*
X2591Y6237D01*
X2723Y6104D01*
X2712Y6072D01*
X2702Y6034D01*
X2697Y5995D01*
X2695Y5957D01*
X2697Y5918D01*
X2702Y5879D01*
X2712Y5842D01*
X2725Y5805D01*
X2742Y5770D01*
X2761Y5737D01*
X2785Y5706D01*
X2811Y5677D01*
X2839Y5651D01*
X2871Y5628D01*
X2879Y5622D01*
X2866Y5572D01*
X2739D01*
Y5122D01*
X2739Y5073D01*
X2739Y5023D01*
Y4622D01*
X2739Y4573D01*
X2739Y4523D01*
Y4122D01*
X2739Y4073D01*
X2739Y4023D01*
Y3573D01*
X2739D01*
Y3572D01*
X2739D01*
Y3073D01*
X3710D01*
X3729Y3064D01*
X3756Y3055D01*
X3784Y3049D01*
X3813Y3047D01*
X3842Y3049D01*
X3870Y3055D01*
X3898Y3064D01*
X3923Y3077D01*
X3947Y3093D01*
X3969Y3112D01*
X3988Y3133D01*
X4004Y3157D01*
X4017Y3183D01*
X4026Y3211D01*
X4032Y3239D01*
X4034Y3268D01*
X4032Y3296D01*
X4026Y3325D01*
X4017Y3352D01*
X4012Y3361D01*
X4582Y3931D01*
X4595Y3947D01*
X4606Y3964D01*
X4614Y3983D01*
X4619Y4003D01*
X4620Y4023D01*
Y4426D01*
X4657Y4462D01*
X4661Y4461D01*
X4690Y4460D01*
X4719Y4461D01*
X4747Y4467D01*
X4774Y4476D01*
X4800Y4489D01*
X4824Y4505D01*
X4827Y4507D01*
X4877Y4485D01*
Y2049D01*
X4878Y2026D01*
X4884Y2004D01*
X4893Y1983D01*
X4904Y1963D01*
X4919Y1946D01*
X5768Y1097D01*
X5785Y1082D01*
X5805Y1070D01*
X5826Y1062D01*
X5848Y1056D01*
X5871Y1055D01*
X8609D01*
Y868D01*
Y743D01*
X9006D01*
Y868D01*
Y1055D01*
X9335D01*
X9348Y1040D01*
X9350Y1007D01*
X9356Y974D01*
X9365Y942D01*
X9378Y911D01*
X9394Y882D01*
X9413Y855D01*
X9435Y830D01*
X9460Y808D01*
X9487Y788D01*
X9517Y772D01*
X9547Y759D01*
X9580Y750D01*
X9612Y745D01*
X9646Y743D01*
X9679Y745D01*
X9712Y750D01*
X9744Y759D01*
X9775Y772D01*
X9804Y788D01*
X9831Y808D01*
X9856Y830D01*
X9878Y855D01*
X9897Y882D01*
X9914Y911D01*
X9926Y942D01*
X9936Y974D01*
X9941Y1007D01*
X9943Y1040D01*
X9957Y1055D01*
X10177D01*
X10178Y1054D01*
X10202Y1005D01*
X10199Y1000D01*
X10186Y974D01*
X10177Y947D01*
X10171Y919D01*
X10170Y890D01*
X10171Y861D01*
X10177Y833D01*
X10186Y806D01*
X10199Y780D01*
X10215Y756D01*
X10234Y734D01*
X10256Y715D01*
X10280Y699D01*
X10306Y686D01*
X10333Y677D01*
X10361Y671D01*
X10390Y670D01*
X10419Y671D01*
X10422Y672D01*
X10447Y660D01*
X10466Y643D01*
X10472Y633D01*
Y523D01*
X10670D01*
Y473D01*
X10720D01*
Y255D01*
X10868D01*
Y448D01*
X10918Y469D01*
X11024Y364D01*
X11042Y348D01*
X11062Y336D01*
X11084Y327D01*
X11106Y321D01*
X11130Y320D01*
X11390D01*
X11414Y321D01*
X11437Y327D01*
X11458Y336D01*
X11478Y348D01*
X11496Y364D01*
X11561Y428D01*
X11649D01*
Y675D01*
X11774D01*
Y863D01*
X11824D01*
Y913D01*
X12091D01*
Y1052D01*
X12091Y1052D01*
Y1068D01*
X12091D01*
X12091Y1102D01*
Y1445D01*
X11649D01*
Y1544D01*
X11822Y1718D01*
X11836Y1733D01*
X11846Y1751D01*
X11854Y1770D01*
X11859Y1790D01*
X11860Y1810D01*
Y2553D01*
X11864Y2555D01*
X11886Y2574D01*
X11905Y2596D01*
X11921Y2620D01*
X11934Y2646D01*
X11943Y2673D01*
X11949Y2701D01*
X11950Y2730D01*
X11949Y2759D01*
X11943Y2787D01*
X11934Y2814D01*
X11921Y2840D01*
X11905Y2864D01*
X11886Y2886D01*
X11864Y2905D01*
X11840Y2921D01*
X11814Y2934D01*
X11787Y2943D01*
X11759Y2949D01*
X11730Y2950D01*
X11701Y2949D01*
X11673Y2943D01*
X11646Y2934D01*
X11635Y2929D01*
X11596Y2947D01*
X11585Y2958D01*
Y5577D01*
X11590Y5580D01*
X11635Y5594D01*
X11644Y5584D01*
X11666Y5565D01*
X11690Y5549D01*
X11716Y5536D01*
X11743Y5527D01*
X11771Y5521D01*
X11800Y5520D01*
X11829Y5521D01*
X11857Y5527D01*
X11884Y5536D01*
X11910Y5549D01*
X11934Y5565D01*
X12508D01*
X12531Y5566D01*
X12554Y5571D01*
X12575Y5578D01*
X12596Y5588D01*
X12615Y5601D01*
X12632Y5616D01*
X13530Y6514D01*
X14022Y6514D01*
Y3502D01*
X14024Y3480D01*
X14028Y3457D01*
X14036Y3435D01*
X14046Y3415D01*
X14058Y3396D01*
X14061Y3392D01*
X14061Y3391D01*
X14067Y3363D01*
X14076Y3336D01*
X14089Y3310D01*
X14105Y3286D01*
X14124Y3264D01*
X14146Y3245D01*
X14170Y3229D01*
X14196Y3216D01*
X14223Y3207D01*
X14251Y3201D01*
X14280Y3200D01*
X14309Y3201D01*
X14337Y3207D01*
X14364Y3216D01*
X14390Y3229D01*
X14414Y3245D01*
X14436Y3264D01*
X14455Y3286D01*
X14471Y3310D01*
X14484Y3336D01*
X14493Y3363D01*
X14499Y3391D01*
X14500Y3420D01*
X14499Y3449D01*
X14493Y3477D01*
X14484Y3504D01*
X14471Y3530D01*
X14455Y3554D01*
X14436Y3576D01*
X14414Y3595D01*
X14390Y3611D01*
X14373Y3619D01*
Y6472D01*
X14395Y6476D01*
X14423Y6485D01*
X14448Y6498D01*
X14472Y6514D01*
X14494Y6533D01*
X14513Y6555D01*
X14529Y6579D01*
X14542Y6605D01*
X14551Y6632D01*
X14557Y6660D01*
X14559Y6689D01*
X14557Y6718D01*
X14551Y6746D01*
X14542Y6773D01*
X14529Y6799D01*
X14513Y6823D01*
X14494Y6845D01*
X14472Y6864D01*
X14448Y6880D01*
X14423Y6893D01*
X14395Y6902D01*
X14367Y6908D01*
X14338Y6909D01*
X14309Y6908D01*
X14281Y6902D01*
X14254Y6893D01*
X14228Y6880D01*
X14205Y6864D01*
X13457Y6864D01*
X13434Y6863D01*
X13412Y6858D01*
X13390Y6851D01*
X13369Y6841D01*
X13350Y6828D01*
X13333Y6813D01*
X12435Y5915D01*
X11934D01*
X11910Y5931D01*
X11884Y5944D01*
X11857Y5953D01*
X11829Y5959D01*
X11800Y5960D01*
X11771Y5959D01*
X11743Y5953D01*
X11716Y5944D01*
X11690Y5931D01*
X11666Y5915D01*
X11644Y5896D01*
X11633Y5883D01*
X11624Y5882D01*
X11602Y5885D01*
X11579Y5896D01*
X11578Y5900D01*
X11570Y5921D01*
X11558Y5940D01*
X11543Y5958D01*
X11543Y5958D01*
Y6046D01*
X11549Y6061D01*
X11554Y6084D01*
X11556Y6106D01*
Y6110D01*
X11574Y6116D01*
X11600Y6129D01*
X11624Y6145D01*
X11646Y6164D01*
X11665Y6186D01*
X11681Y6210D01*
X11694Y6236D01*
X11703Y6263D01*
X11709Y6291D01*
X11710Y6320D01*
X11709Y6349D01*
X11703Y6377D01*
X11694Y6404D01*
X11681Y6430D01*
X11665Y6454D01*
X11646Y6476D01*
X11624Y6495D01*
X11600Y6511D01*
X11574Y6524D01*
X11547Y6533D01*
X11519Y6539D01*
X11490Y6540D01*
X11461Y6539D01*
X11455Y6537D01*
X11453Y6547D01*
X11444Y6574D01*
X11431Y6600D01*
X11415Y6624D01*
X11396Y6646D01*
X11374Y6665D01*
X11350Y6681D01*
X11324Y6694D01*
X11297Y6703D01*
X11269Y6709D01*
X11240Y6710D01*
X11211Y6709D01*
X11183Y6703D01*
X11156Y6694D01*
X11130Y6681D01*
X11106Y6665D01*
X11084Y6646D01*
X11065Y6624D01*
X11049Y6600D01*
X11036Y6574D01*
X11027Y6547D01*
X11021Y6519D01*
X11020Y6490D01*
X11021Y6461D01*
X11027Y6433D01*
X11036Y6406D01*
X11049Y6380D01*
X11065Y6356D01*
X11084Y6334D01*
X11106Y6315D01*
X11117Y6307D01*
Y6215D01*
X11111Y6199D01*
X11106Y6177D01*
X11104Y6154D01*
Y5836D01*
X11106Y5814D01*
X11111Y5791D01*
X11120Y5770D01*
X11132Y5751D01*
X11146Y5734D01*
X11147Y5733D01*
Y3480D01*
X11139Y3472D01*
X11097Y3453D01*
X11095Y3454D01*
X11076Y3462D01*
X11056Y3467D01*
X11036Y3468D01*
X10864D01*
X10843Y3467D01*
X10824Y3462D01*
X10805Y3454D01*
X10787Y3443D01*
X10772Y3430D01*
X10636Y3294D01*
X10586Y3304D01*
Y3354D01*
X10427D01*
Y3404D01*
X10389D01*
Y3661D01*
X10349D01*
X10346Y3669D01*
X10336Y3687D01*
X10322Y3702D01*
X10172Y3852D01*
X10157Y3865D01*
X10139Y3876D01*
X10120Y3884D01*
X10100Y3889D01*
X10080Y3890D01*
X9681D01*
X9671Y3910D01*
X9655Y3934D01*
X9636Y3956D01*
X9614Y3975D01*
X9609Y3979D01*
X9598Y4023D01*
X9598Y4026D01*
X9602Y4041D01*
X9615Y4056D01*
X9631Y4080D01*
X9644Y4106D01*
X9653Y4133D01*
X9659Y4161D01*
X9660Y4190D01*
X9659Y4219D01*
X9653Y4247D01*
X9644Y4274D01*
X9631Y4300D01*
X9615Y4324D01*
X9596Y4346D01*
X9574Y4365D01*
X9550Y4381D01*
X9524Y4394D01*
X9497Y4403D01*
X9469Y4409D01*
X9440Y4410D01*
X9411Y4409D01*
X9390Y4404D01*
X9377Y4408D01*
X9339Y4441D01*
X9339Y4449D01*
X9333Y4477D01*
X9324Y4504D01*
X9311Y4530D01*
X9295Y4554D01*
X9276Y4576D01*
X9254Y4595D01*
X9230Y4611D01*
X9204Y4624D01*
X9177Y4633D01*
X9149Y4639D01*
X9120Y4640D01*
X9091Y4639D01*
X9063Y4633D01*
X9036Y4624D01*
X9010Y4611D01*
X8986Y4595D01*
X8964Y4576D01*
X8945Y4554D01*
X8929Y4530D01*
X8916Y4504D01*
X8907Y4477D01*
X8901Y4449D01*
X8900Y4420D01*
X8901Y4391D01*
X8903Y4384D01*
X8876Y4342D01*
X8864Y4334D01*
X8683D01*
Y4275D01*
X8518D01*
Y3702D01*
Y3130D01*
X8683D01*
Y3071D01*
X9193D01*
Y2936D01*
X8976Y2718D01*
X8868D01*
X8844Y2716D01*
X8821Y2711D01*
X8800Y2702D01*
X8779Y2690D01*
X8761Y2674D01*
X8657Y2570D01*
X8644Y2569D01*
X8618Y2564D01*
X8593Y2555D01*
X8570Y2544D01*
X8548Y2529D01*
X8528Y2512D01*
X8379Y2362D01*
X8333Y2382D01*
Y2452D01*
X8165D01*
Y2304D01*
X8255D01*
X8274Y2258D01*
X8187Y2170D01*
X6947D01*
Y2542D01*
X7015D01*
Y2691D01*
X7038Y2712D01*
X7065Y2724D01*
X7083Y2718D01*
X7111Y2712D01*
X7140Y2710D01*
X7147Y2710D01*
X7462Y2396D01*
X7480Y2381D01*
X7500Y2368D01*
X7503Y2367D01*
Y2304D01*
X8065D01*
Y2502D01*
Y2701D01*
X7970D01*
Y2756D01*
X8082Y2868D01*
X8097Y2886D01*
X8110Y2906D01*
X8119Y2928D01*
X8124Y2951D01*
X8126Y2975D01*
Y3071D01*
X8253D01*
Y3130D01*
X8418D01*
Y3702D01*
Y4275D01*
X8253D01*
Y4334D01*
X7996D01*
X7984Y4342D01*
X7957Y4384D01*
X7959Y4391D01*
X7960Y4420D01*
X7959Y4449D01*
X7953Y4477D01*
X7944Y4504D01*
X7931Y4530D01*
X7915Y4554D01*
X7896Y4576D01*
X7874Y4595D01*
X7850Y4611D01*
X7824Y4624D01*
X7797Y4633D01*
X7769Y4639D01*
X7740Y4640D01*
X7711Y4639D01*
X7706Y4637D01*
X7620Y4723D01*
Y4931D01*
X7618Y4951D01*
X7613Y4971D01*
X7605Y4990D01*
X7595Y5007D01*
X7582Y5023D01*
X7093Y5511D01*
X7113Y5562D01*
X7129Y5563D01*
X7168Y5569D01*
X7205Y5578D01*
X7242Y5591D01*
X7277Y5608D01*
X7310Y5628D01*
X7342Y5651D01*
X7370Y5677D01*
X7396Y5706D01*
X7420Y5737D01*
X7440Y5770D01*
X7456Y5805D01*
X7469Y5842D01*
X7479Y5879D01*
X7484Y5918D01*
X7486Y5957D01*
X7484Y5995D01*
X7479Y6034D01*
X7469Y6072D01*
X7456Y6108D01*
X7440Y6143D01*
X7420Y6177D01*
X7396Y6208D01*
X7370Y6237D01*
X7342Y6263D01*
X7310Y6286D01*
X7277Y6306D01*
X7243Y6322D01*
X7242Y6325D01*
X7234Y6377D01*
X7564Y6707D01*
X7577Y6722D01*
X7588Y6740D01*
X7596Y6758D01*
X7601Y6778D01*
X7602Y6798D01*
Y7131D01*
X7615Y7146D01*
X7631Y7170D01*
X7644Y7196D01*
X7653Y7223D01*
X7659Y7251D01*
X7660Y7280D01*
X7659Y7309D01*
X7653Y7337D01*
X7644Y7364D01*
X7631Y7390D01*
X7615Y7414D01*
X7596Y7436D01*
X7574Y7455D01*
X7550Y7471D01*
X7526Y7483D01*
X7533Y7503D01*
X7539Y7531D01*
X7540Y7560D01*
X7539Y7589D01*
X7538Y7592D01*
X7572Y7642D01*
X7890D01*
X8044Y7488D01*
X8059Y7474D01*
X8077Y7464D01*
X8096Y7456D01*
X8116Y7451D01*
X8136Y7450D01*
X8306D01*
X8326Y7451D01*
X8346Y7456D01*
X8365Y7464D01*
X8377Y7471D01*
X8408Y7432D01*
X8280Y7304D01*
X8277Y7306D01*
X8242Y7322D01*
X8205Y7335D01*
X8168Y7345D01*
X8129Y7351D01*
X8091Y7352D01*
X8052Y7351D01*
X8013Y7345D01*
X7976Y7335D01*
X7939Y7322D01*
X7904Y7306D01*
X7871Y7286D01*
X7839Y7263D01*
X7811Y7237D01*
X7785Y7208D01*
X7761Y7177D01*
X7742Y7143D01*
X7725Y7108D01*
X7712Y7072D01*
X7702Y7034D01*
X7697Y6995D01*
X7695Y6957D01*
X7697Y6918D01*
X7702Y6879D01*
X7712Y6842D01*
X7725Y6805D01*
X7742Y6770D01*
X7761Y6737D01*
X7785Y6706D01*
X7811Y6677D01*
X7839Y6651D01*
X7871Y6628D01*
X7904Y6608D01*
X7939Y6591D01*
X7976Y6578D01*
X8013Y6569D01*
X8052Y6563D01*
X8091Y6561D01*
X8129Y6563D01*
X8168Y6569D01*
X8205Y6578D01*
X8242Y6591D01*
X8277Y6608D01*
X8310Y6628D01*
X8342Y6651D01*
X8370Y6677D01*
X8396Y6706D01*
X8420Y6737D01*
X8440Y6770D01*
X8456Y6805D01*
X8469Y6842D01*
X8479Y6879D01*
X8484Y6918D01*
X8486Y6957D01*
X8484Y6995D01*
X8479Y7034D01*
X8469Y7072D01*
X8456Y7108D01*
X8455Y7110D01*
X8555Y7210D01*
X8724D01*
X8732Y7203D01*
X8751Y7160D01*
X8742Y7143D01*
X8725Y7108D01*
X8712Y7072D01*
X8702Y7034D01*
X8697Y6995D01*
X8695Y6957D01*
X8697Y6918D01*
X8702Y6879D01*
X8712Y6842D01*
X8725Y6805D01*
X8742Y6770D01*
X8761Y6737D01*
X8785Y6706D01*
X8811Y6677D01*
X8839Y6651D01*
X8871Y6628D01*
X8904Y6608D01*
X8939Y6591D01*
X8976Y6578D01*
X9013Y6569D01*
X9052Y6563D01*
X9056Y6563D01*
X9076Y6512D01*
X8999Y6435D01*
X8986Y6419D01*
X8975Y6402D01*
X8967Y6383D01*
X8963Y6363D01*
X8961Y6343D01*
Y6330D01*
X8939Y6322D01*
X8904Y6306D01*
X8871Y6286D01*
X8839Y6263D01*
X8811Y6237D01*
X8785Y6208D01*
X8761Y6177D01*
X8742Y6143D01*
X8725Y6108D01*
X8712Y6072D01*
X8702Y6034D01*
X8697Y5995D01*
X8695Y5957D01*
X8697Y5918D01*
X8702Y5879D01*
X8712Y5842D01*
X8725Y5805D01*
X8742Y5770D01*
X8761Y5737D01*
X8785Y5706D01*
X8811Y5677D01*
X8839Y5651D01*
X8871Y5628D01*
X8904Y5608D01*
X8939Y5591D01*
X8976Y5578D01*
X9013Y5569D01*
X9052Y5563D01*
X9091Y5561D01*
X9129Y5563D01*
X9168Y5569D01*
X9205Y5578D01*
X9242Y5591D01*
X9277Y5608D01*
X9310Y5628D01*
X9342Y5651D01*
X9370Y5677D01*
X9396Y5706D01*
X9420Y5737D01*
X9440Y5770D01*
X9456Y5805D01*
X9469Y5842D01*
X9479Y5879D01*
X9484Y5918D01*
X9486Y5957D01*
X9484Y5995D01*
X9479Y6034D01*
X9469Y6072D01*
X9465Y6084D01*
X9464Y6136D01*
X9490Y6149D01*
X9514Y6165D01*
X9536Y6184D01*
X9555Y6206D01*
X9557Y6209D01*
X9724D01*
X9731Y6203D01*
X9751Y6159D01*
X9742Y6143D01*
X9725Y6108D01*
X9712Y6072D01*
X9702Y6034D01*
X9697Y5995D01*
X9695Y5957D01*
X9697Y5918D01*
X9702Y5879D01*
X9712Y5842D01*
X9725Y5805D01*
X9742Y5770D01*
X9761Y5737D01*
X9785Y5706D01*
X9811Y5677D01*
X9839Y5651D01*
X9871Y5628D01*
X9904Y5608D01*
X9939Y5591D01*
X9976Y5578D01*
X10013Y5569D01*
X10052Y5563D01*
X10091Y5561D01*
X10129Y5563D01*
X10168Y5569D01*
X10205Y5578D01*
X10242Y5591D01*
X10277Y5608D01*
X10310Y5628D01*
X10342Y5651D01*
X10370Y5677D01*
X10396Y5706D01*
X10420Y5737D01*
X10440Y5770D01*
X10456Y5805D01*
X10469Y5842D01*
X10479Y5879D01*
X10484Y5918D01*
X10486Y5957D01*
X10484Y5995D01*
X10479Y6034D01*
X10469Y6072D01*
X10456Y6108D01*
X10440Y6143D01*
X10430Y6159D01*
X10450Y6203D01*
X10457Y6209D01*
X10514D01*
X10534Y6211D01*
X10554Y6216D01*
X10573Y6224D01*
X10590Y6234D01*
X10605Y6247D01*
X11140Y6782D01*
X12391D01*
X12412Y6784D01*
X12431Y6788D01*
X12436Y6790D01*
X12450Y6790D01*
X12479Y6791D01*
X12507Y6797D01*
X12534Y6806D01*
X12560Y6819D01*
X12584Y6835D01*
X12606Y6854D01*
X12625Y6876D01*
X12627Y6880D01*
X12880D01*
X12900Y6881D01*
X12920Y6886D01*
X12939Y6894D01*
X12957Y6905D01*
X12972Y6918D01*
X13352Y7297D01*
X15928D01*
X15948Y7299D01*
X15968Y7304D01*
X15987Y7312D01*
X16005Y7322D01*
X16005Y7323D01*
X16011Y7321D01*
X16040Y7320D01*
X16069Y7321D01*
X16097Y7327D01*
X16124Y7336D01*
X16150Y7349D01*
X16174Y7365D01*
X16190Y7379D01*
X16206Y7365D01*
X16230Y7349D01*
X16256Y7336D01*
X16283Y7327D01*
X16311Y7321D01*
X16340Y7320D01*
X16369Y7321D01*
X16397Y7327D01*
X16424Y7336D01*
X16450Y7349D01*
X16474Y7365D01*
X16496Y7384D01*
X16515Y7406D01*
X16531Y7430D01*
X16544Y7456D01*
X16553Y7483D01*
X16559Y7511D01*
X16560Y7540D01*
X16559Y7569D01*
X16553Y7597D01*
X16544Y7624D01*
X16531Y7650D01*
X16515Y7674D01*
X16496Y7696D01*
X16490Y7701D01*
X16489Y7716D01*
X16502Y7752D01*
X16503Y7754D01*
X16517Y7757D01*
X16544Y7766D01*
X16570Y7779D01*
X16594Y7795D01*
X16616Y7814D01*
X16635Y7836D01*
X16651Y7860D01*
X16664Y7886D01*
X16673Y7913D01*
X16679Y7941D01*
X16680Y7970D01*
X16679Y7999D01*
X16673Y8027D01*
X16664Y8054D01*
X16651Y8080D01*
X16635Y8104D01*
X16616Y8126D01*
X16594Y8145D01*
X16570Y8161D01*
X16544Y8174D01*
X16517Y8183D01*
X16489Y8189D01*
X16460Y8190D01*
X16431Y8189D01*
X16403Y8183D01*
X16376Y8174D01*
X16350Y8161D01*
X16326Y8145D01*
X16304Y8126D01*
X16285Y8104D01*
X16283Y8100D01*
X15893D01*
X15873Y8099D01*
X15853Y8094D01*
X15834Y8086D01*
X15817Y8076D01*
X15801Y8062D01*
X15765Y8096D01*
X15781Y8120D01*
X15794Y8146D01*
X15803Y8173D01*
X15809Y8201D01*
X15810Y8230D01*
X15809Y8259D01*
X15803Y8287D01*
X15794Y8314D01*
X15781Y8340D01*
X15765Y8364D01*
X15746Y8386D01*
X15724Y8405D01*
X15700Y8421D01*
X15674Y8434D01*
X15647Y8443D01*
X15619Y8449D01*
X15590Y8450D01*
X15561Y8449D01*
X15533Y8443D01*
X15506Y8434D01*
X15480Y8421D01*
X15456Y8405D01*
X15434Y8386D01*
X15415Y8364D01*
X15399Y8340D01*
X15386Y8314D01*
X15377Y8287D01*
X15371Y8259D01*
X15370Y8230D01*
X15371Y8201D01*
X15377Y8173D01*
X15386Y8146D01*
X15399Y8120D01*
X15415Y8096D01*
X15423Y8086D01*
X15365Y8028D01*
X13103D01*
X13083Y8026D01*
X13063Y8021D01*
X13044Y8014D01*
X13027Y8003D01*
X13011Y7990D01*
X12728Y7706D01*
X12515D01*
X12496Y7753D01*
X13036Y8292D01*
X13049Y8308D01*
X13060Y8325D01*
X13068Y8344D01*
X13073Y8364D01*
X13074Y8385D01*
Y9091D01*
X13418Y9436D01*
X13460D01*
X13480Y9437D01*
X13500Y9442D01*
X13519Y9450D01*
X13537Y9461D01*
X13552Y9474D01*
X13632Y9553D01*
X13678Y9534D01*
D02*
G37*
G36*
X3456Y8682D02*
Y8605D01*
X3457Y8585D01*
X3462Y8565D01*
X3470Y8546D01*
X3480Y8529D01*
X3494Y8513D01*
X3593Y8414D01*
X3591Y8409D01*
X3590Y8380D01*
X3591Y8351D01*
X3596Y8330D01*
X3576Y8324D01*
X3550Y8311D01*
X3526Y8295D01*
X3504Y8276D01*
X3485Y8254D01*
X3469Y8230D01*
X3456Y8204D01*
X3447Y8177D01*
X3441Y8149D01*
X3440Y8120D01*
X3441Y8091D01*
X3447Y8063D01*
X3456Y8036D01*
X3469Y8010D01*
X3485Y7986D01*
X3504Y7964D01*
X3526Y7945D01*
X3550Y7929D01*
X3562Y7923D01*
X3566Y7919D01*
X3578Y7881D01*
X3579Y7870D01*
X3577Y7863D01*
X3566Y7846D01*
X3557Y7823D01*
X3551Y7799D01*
X3550Y7775D01*
Y7543D01*
X3551Y7518D01*
X3557Y7495D01*
X3566Y7472D01*
X3579Y7451D01*
X3595Y7433D01*
X3771Y7257D01*
X3782Y7218D01*
X3773Y7192D01*
X3761Y7177D01*
X3742Y7143D01*
X3725Y7108D01*
X3712Y7072D01*
X3702Y7034D01*
X3697Y6995D01*
X3695Y6957D01*
X3697Y6918D01*
X3702Y6879D01*
X3712Y6842D01*
X3725Y6805D01*
X3742Y6770D01*
X3761Y6737D01*
X3785Y6706D01*
X3811Y6677D01*
X3839Y6651D01*
X3871Y6628D01*
X3904Y6608D01*
X3939Y6591D01*
X3976Y6578D01*
X4013Y6569D01*
X4052Y6563D01*
X4091Y6561D01*
X4129Y6563D01*
X4168Y6569D01*
X4205Y6578D01*
X4242Y6591D01*
X4277Y6608D01*
X4295Y6619D01*
X4336Y6601D01*
X4345Y6591D01*
Y6431D01*
X4238Y6324D01*
X4205Y6335D01*
X4168Y6345D01*
X4129Y6351D01*
X4091Y6352D01*
X4052Y6351D01*
X4013Y6345D01*
X3976Y6335D01*
X3939Y6322D01*
X3904Y6306D01*
X3871Y6286D01*
X3839Y6263D01*
X3811Y6237D01*
X3785Y6208D01*
X3761Y6177D01*
X3742Y6143D01*
X3725Y6108D01*
X3712Y6072D01*
X3702Y6034D01*
X3697Y5995D01*
X3695Y5957D01*
X3697Y5918D01*
X3702Y5879D01*
X3712Y5842D01*
X3725Y5805D01*
X3742Y5770D01*
X3761Y5737D01*
X3785Y5706D01*
X3811Y5677D01*
X3839Y5651D01*
X3871Y5628D01*
X3904Y5608D01*
X3939Y5591D01*
X3976Y5578D01*
X4013Y5569D01*
X4052Y5563D01*
X4091Y5561D01*
X4122Y5562D01*
X4134Y5558D01*
X4172Y5519D01*
Y5180D01*
X4172Y5176D01*
X4138Y5139D01*
X3758D01*
X3738Y5181D01*
Y5572D01*
X3316D01*
X3302Y5622D01*
X3310Y5628D01*
X3342Y5651D01*
X3370Y5677D01*
X3396Y5706D01*
X3420Y5737D01*
X3440Y5770D01*
X3456Y5805D01*
X3469Y5842D01*
X3479Y5879D01*
X3484Y5918D01*
X3486Y5957D01*
X3484Y5995D01*
X3479Y6034D01*
X3469Y6072D01*
X3456Y6108D01*
X3440Y6143D01*
X3420Y6177D01*
X3396Y6208D01*
X3370Y6237D01*
X3342Y6263D01*
X3310Y6286D01*
X3277Y6306D01*
X3242Y6322D01*
X3205Y6335D01*
X3168Y6345D01*
X3129Y6351D01*
X3091Y6352D01*
X3052Y6351D01*
X3013Y6345D01*
X2976Y6335D01*
X2943Y6324D01*
X2836Y6431D01*
Y6591D01*
X2845Y6601D01*
X2886Y6619D01*
X2904Y6608D01*
X2939Y6591D01*
X2976Y6578D01*
X3013Y6569D01*
X3052Y6563D01*
X3091Y6561D01*
X3129Y6563D01*
X3168Y6569D01*
X3205Y6578D01*
X3242Y6591D01*
X3277Y6608D01*
X3310Y6628D01*
X3342Y6651D01*
X3370Y6677D01*
X3396Y6706D01*
X3420Y6737D01*
X3440Y6770D01*
X3456Y6805D01*
X3469Y6842D01*
X3479Y6879D01*
X3484Y6918D01*
X3486Y6957D01*
X3484Y6995D01*
X3479Y7034D01*
X3469Y7072D01*
X3456Y7108D01*
X3440Y7143D01*
X3420Y7177D01*
X3396Y7208D01*
X3370Y7237D01*
X3342Y7263D01*
X3310Y7286D01*
X3309Y7287D01*
X3300Y7305D01*
X3294Y7349D01*
X3296Y7352D01*
X3301Y7360D01*
X3314Y7386D01*
X3323Y7413D01*
X3329Y7441D01*
X3330Y7470D01*
X3329Y7499D01*
X3323Y7527D01*
X3314Y7554D01*
X3301Y7580D01*
X3285Y7604D01*
X3266Y7626D01*
X3244Y7645D01*
X3240Y7647D01*
Y8250D01*
X3239Y8270D01*
X3234Y8290D01*
X3226Y8309D01*
X3216Y8327D01*
X3202Y8342D01*
X3031Y8513D01*
X3050Y8560D01*
X3214D01*
X3234Y8561D01*
X3254Y8566D01*
X3273Y8574D01*
X3291Y8584D01*
X3306Y8598D01*
X3410Y8701D01*
X3456Y8682D01*
D02*
G37*
G36*
X1337Y6598D02*
X1343Y6590D01*
Y6324D01*
X1337Y6316D01*
X1293Y6296D01*
X1277Y6306D01*
X1242Y6322D01*
X1205Y6335D01*
X1168Y6345D01*
X1141Y6349D01*
Y5957D01*
X1041D01*
Y6349D01*
X1013Y6345D01*
X976Y6335D01*
X939Y6322D01*
X904Y6306D01*
X871Y6286D01*
X839Y6263D01*
X811Y6237D01*
X800Y6225D01*
X750Y6244D01*
Y6333D01*
X991Y6574D01*
X1013Y6569D01*
X1052Y6563D01*
X1091Y6561D01*
X1129Y6563D01*
X1168Y6569D01*
X1205Y6578D01*
X1242Y6591D01*
X1277Y6608D01*
X1293Y6617D01*
X1337Y6598D01*
D02*
G37*
G36*
X19370Y5736D02*
Y5468D01*
X19320Y5443D01*
X19314Y5447D01*
X19281Y5467D01*
X19246Y5484D01*
X19209Y5497D01*
X19172Y5506D01*
X19133Y5512D01*
X19094Y5514D01*
X19056Y5512D01*
X19017Y5506D01*
X18980Y5497D01*
X18943Y5484D01*
X18908Y5467D01*
X18875Y5447D01*
X18843Y5424D01*
X18815Y5398D01*
X18789Y5369D01*
X18765Y5338D01*
X18745Y5305D01*
X18729Y5270D01*
X18716Y5233D01*
X18706Y5195D01*
X18701Y5157D01*
X18699Y5118D01*
X18701Y5079D01*
X18706Y5041D01*
X18716Y5003D01*
X18729Y4967D01*
X18745Y4932D01*
X18765Y4898D01*
X18789Y4867D01*
X18815Y4838D01*
X18843Y4812D01*
X18875Y4789D01*
X18908Y4769D01*
X18943Y4752D01*
X18980Y4739D01*
X19017Y4730D01*
X19056Y4724D01*
X19094Y4722D01*
X19133Y4724D01*
X19172Y4730D01*
X19209Y4739D01*
X19246Y4752D01*
X19281Y4769D01*
X19314Y4789D01*
X19320Y4793D01*
X19370Y4768D01*
Y4468D01*
X19320Y4443D01*
X19314Y4447D01*
X19281Y4467D01*
X19246Y4484D01*
X19209Y4497D01*
X19172Y4506D01*
X19133Y4512D01*
X19094Y4514D01*
X19056Y4512D01*
X19017Y4506D01*
X18980Y4497D01*
X18943Y4484D01*
X18908Y4467D01*
X18875Y4447D01*
X18843Y4424D01*
X18815Y4398D01*
X18789Y4369D01*
X18765Y4338D01*
X18745Y4305D01*
X18729Y4270D01*
X18721Y4249D01*
X18476D01*
X18379Y4345D01*
X18378Y4361D01*
X18391Y4404D01*
X18400Y4409D01*
X18424Y4425D01*
X18446Y4444D01*
X18465Y4466D01*
X18481Y4490D01*
X18494Y4516D01*
X18503Y4543D01*
X18509Y4571D01*
X18510Y4600D01*
X18509Y4629D01*
X18503Y4657D01*
X18494Y4684D01*
X18481Y4710D01*
X18465Y4734D01*
X18446Y4756D01*
X18424Y4775D01*
X18400Y4791D01*
X18374Y4804D01*
X18347Y4813D01*
X18319Y4819D01*
X18290Y4820D01*
X18261Y4819D01*
X18233Y4813D01*
X18206Y4804D01*
X18180Y4791D01*
X18156Y4775D01*
X18134Y4756D01*
X18115Y4734D01*
X18113Y4730D01*
X18054D01*
X18040Y4747D01*
X18036Y4751D01*
X18027Y4795D01*
X18030Y4816D01*
X18472Y5258D01*
X18485Y5273D01*
X18496Y5291D01*
X18504Y5310D01*
X18506Y5320D01*
X18514Y5325D01*
X18536Y5344D01*
X18555Y5366D01*
X18571Y5390D01*
X18584Y5416D01*
X18593Y5443D01*
X18599Y5471D01*
X18600Y5500D01*
X18599Y5529D01*
X18593Y5557D01*
X18584Y5584D01*
X18571Y5610D01*
X18555Y5634D01*
X18536Y5656D01*
X18514Y5675D01*
X18490Y5691D01*
X18464Y5704D01*
X18437Y5713D01*
X18409Y5719D01*
X18380Y5720D01*
X18358Y5769D01*
X18610Y6021D01*
X18965D01*
Y6075D01*
X19011Y6094D01*
X19370Y5736D01*
D02*
G37*
G36*
X17267Y5563D02*
X17762D01*
Y5563D01*
X17798D01*
Y5563D01*
X18002D01*
X18004Y5562D01*
X18025Y5553D01*
X18048Y5547D01*
X18072Y5545D01*
X18095Y5547D01*
X18118Y5553D01*
X18132Y5545D01*
X18158Y5520D01*
X18160Y5513D01*
X18160Y5500D01*
X18161Y5471D01*
X18167Y5443D01*
X18176Y5416D01*
X18189Y5390D01*
X18205Y5366D01*
X18208Y5362D01*
X17688Y4843D01*
X17675Y4827D01*
X17664Y4810D01*
X17657Y4791D01*
X17655Y4785D01*
X17655Y4785D01*
X17652Y4771D01*
X17650Y4751D01*
Y4705D01*
X17644Y4690D01*
X17639Y4668D01*
X17637Y4646D01*
Y4561D01*
X17609D01*
Y4646D01*
X17608Y4668D01*
X17602Y4690D01*
X17594Y4711D01*
X17582Y4730D01*
X17573Y4741D01*
Y4780D01*
X17558Y4774D01*
X17544Y4766D01*
X17531Y4774D01*
X17510Y4782D01*
X17488Y4788D01*
X17466Y4789D01*
X17443Y4788D01*
X17421Y4782D01*
X17400Y4774D01*
X17381Y4762D01*
X17364Y4747D01*
X17349Y4730D01*
X17338Y4711D01*
X17329Y4690D01*
X17324Y4668D01*
X17322Y4646D01*
Y4476D01*
X17273Y4457D01*
X17270Y4457D01*
X17248Y4452D01*
X17227Y4443D01*
X17208Y4431D01*
X17191Y4417D01*
X17176Y4400D01*
X17164Y4380D01*
X17156Y4359D01*
X17102Y4347D01*
X17004Y4445D01*
Y5572D01*
X17024Y5585D01*
X17046Y5604D01*
X17065Y5626D01*
X17081Y5650D01*
X17094Y5676D01*
X17103Y5703D01*
X17109Y5731D01*
X17110Y5760D01*
X17109Y5787D01*
X17109Y5789D01*
X17145Y5837D01*
X17267D01*
Y5563D01*
D02*
G37*
G36*
X6334Y5604D02*
X6336Y5603D01*
X6347Y5592D01*
X6350Y5581D01*
X6357Y5562D01*
X6368Y5545D01*
X6381Y5529D01*
X6570Y5341D01*
X6571Y5339D01*
X6584Y5324D01*
X6699Y5209D01*
Y4728D01*
X6675Y4712D01*
X6653Y4693D01*
X6634Y4672D01*
X6618Y4648D01*
X6605Y4622D01*
X6596Y4594D01*
X6590Y4566D01*
X6589Y4537D01*
X6590Y4509D01*
X6596Y4480D01*
X6602Y4464D01*
X6600Y4458D01*
X6598Y4438D01*
X6598Y4437D01*
X6571Y4391D01*
X6549Y4389D01*
X6527Y4384D01*
X6506Y4375D01*
X6493Y4367D01*
X6479Y4375D01*
X6458Y4384D01*
X6436Y4389D01*
X6434Y4389D01*
X6379Y4444D01*
Y5160D01*
X6378Y5180D01*
X6373Y5200D01*
X6365Y5219D01*
X6355Y5236D01*
X6342Y5252D01*
X6082Y5511D01*
X6086Y5534D01*
X6102Y5562D01*
X6129Y5563D01*
X6168Y5569D01*
X6205Y5578D01*
X6242Y5591D01*
X6277Y5608D01*
X6294Y5618D01*
X6334Y5604D01*
D02*
G37*
G36*
X17715Y4348D02*
X17736Y4340D01*
X17758Y4334D01*
X17786Y4321D01*
X17800Y4293D01*
X17805Y4271D01*
X17814Y4250D01*
X17822Y4236D01*
X17814Y4223D01*
X17805Y4202D01*
X17800Y4180D01*
X17798Y4158D01*
X17800Y4135D01*
X17805Y4113D01*
X17814Y4092D01*
X17822Y4079D01*
X17814Y4065D01*
X17805Y4044D01*
X17800Y4023D01*
X17798Y4000D01*
X17800Y3978D01*
X17805Y3956D01*
X17814Y3935D01*
X17822Y3921D01*
X17814Y3908D01*
X17805Y3887D01*
X17800Y3865D01*
X17798Y3843D01*
X17758Y3823D01*
X17736Y3818D01*
X17715Y3809D01*
X17702Y3801D01*
X17688Y3809D01*
X17668Y3818D01*
X17646Y3823D01*
X17605Y3843D01*
X17604Y3865D01*
X17598Y3887D01*
X17590Y3908D01*
X17582Y3921D01*
X17590Y3935D01*
X17598Y3956D01*
X17604Y3978D01*
X17605Y4000D01*
X17604Y4023D01*
X17598Y4044D01*
X17590Y4065D01*
X17582Y4079D01*
X17590Y4092D01*
X17598Y4113D01*
X17604Y4135D01*
X17605Y4158D01*
X17604Y4180D01*
X17598Y4202D01*
X17590Y4223D01*
X17582Y4236D01*
X17590Y4250D01*
X17598Y4271D01*
X17604Y4293D01*
X17617Y4321D01*
X17646Y4334D01*
X17668Y4340D01*
X17688Y4348D01*
X17702Y4357D01*
X17715Y4348D01*
D02*
G37*
G36*
X9324Y3644D02*
X9346Y3625D01*
X9370Y3609D01*
X9396Y3596D01*
X9423Y3587D01*
X9451Y3581D01*
X9480Y3580D01*
X9509Y3581D01*
X9537Y3587D01*
X9564Y3596D01*
X9590Y3609D01*
X9614Y3625D01*
X9619Y3630D01*
X9824D01*
X9827Y3625D01*
X9828Y3619D01*
X9821Y3606D01*
X9789Y3576D01*
X9777Y3577D01*
X9748Y3575D01*
X9720Y3569D01*
X9693Y3560D01*
X9667Y3547D01*
X9643Y3531D01*
X9621Y3512D01*
X9602Y3491D01*
X9586Y3467D01*
X9574Y3441D01*
X9564Y3413D01*
X9559Y3385D01*
X9557Y3356D01*
X9559Y3328D01*
X9564Y3299D01*
X9574Y3272D01*
X9586Y3246D01*
X9599Y3228D01*
Y3129D01*
X9590Y3082D01*
X9237D01*
Y3307D01*
Y3629D01*
X9261Y3648D01*
X9305Y3666D01*
X9324Y3644D01*
D02*
G37*
G36*
X6663Y3950D02*
X6684Y3941D01*
X6706Y3936D01*
X6734Y3922D01*
X6748Y3894D01*
X6753Y3872D01*
X6762Y3851D01*
X6770Y3837D01*
X6762Y3824D01*
X6753Y3803D01*
X6748Y3781D01*
X6746Y3759D01*
X6748Y3736D01*
X6753Y3714D01*
X6762Y3693D01*
X6770Y3680D01*
X6762Y3667D01*
X6753Y3646D01*
X6748Y3624D01*
X6746Y3601D01*
X6748Y3579D01*
X6753Y3557D01*
X6762Y3536D01*
X6770Y3523D01*
X6762Y3509D01*
X6753Y3488D01*
X6748Y3466D01*
X6746Y3444D01*
X6706Y3424D01*
X6684Y3419D01*
X6663Y3410D01*
X6650Y3402D01*
X6637Y3410D01*
X6616Y3419D01*
X6594Y3424D01*
X6554Y3444D01*
X6552Y3466D01*
X6547Y3488D01*
X6538Y3509D01*
X6530Y3523D01*
X6538Y3536D01*
X6547Y3557D01*
X6552Y3579D01*
X6554Y3601D01*
X6552Y3624D01*
X6547Y3646D01*
X6538Y3667D01*
X6530Y3680D01*
X6538Y3693D01*
X6547Y3714D01*
X6552Y3736D01*
X6554Y3759D01*
X6552Y3781D01*
X6547Y3803D01*
X6538Y3824D01*
X6530Y3837D01*
X6538Y3851D01*
X6547Y3872D01*
X6552Y3894D01*
X6565Y3922D01*
X6594Y3936D01*
X6616Y3941D01*
X6637Y3950D01*
X6650Y3958D01*
X6663Y3950D01*
D02*
G37*
G36*
X10347Y2969D02*
Y2913D01*
X10280D01*
Y2656D01*
X10192D01*
Y2913D01*
X10113D01*
Y2969D01*
Y3147D01*
X10347D01*
Y2969D01*
D02*
G37*
G36*
X10921Y2911D02*
X10950Y2910D01*
X10979Y2911D01*
X11029Y2876D01*
Y2580D01*
X10718Y2269D01*
X10700Y2281D01*
X10674Y2294D01*
X10647Y2303D01*
X10619Y2309D01*
X10590Y2310D01*
X10561Y2309D01*
X10533Y2303D01*
X10506Y2294D01*
X10480Y2281D01*
X10456Y2265D01*
X10434Y2246D01*
X10426Y2237D01*
X10377Y2254D01*
X10376Y2254D01*
Y2398D01*
X10377D01*
Y2656D01*
X10427D01*
Y2706D01*
X10586D01*
Y2773D01*
X10861D01*
Y2857D01*
X10917Y2912D01*
X10921Y2911D01*
D02*
G37*
G36*
X9441Y2252D02*
X9546D01*
Y2174D01*
X9081D01*
X8924Y2331D01*
X8918Y2384D01*
X8947Y2417D01*
X9038D01*
X9061Y2419D01*
X9084Y2425D01*
X9106Y2434D01*
X9126Y2446D01*
X9143Y2460D01*
X9160Y2459D01*
X9193Y2445D01*
Y2252D01*
X9341D01*
Y2470D01*
X9441D01*
Y2252D01*
D02*
G37*
G36*
X9874Y2446D02*
X9814D01*
Y2247D01*
X9714D01*
Y2446D01*
X9590D01*
Y2726D01*
X9599Y2773D01*
X9874D01*
Y2446D01*
D02*
G37*
G36*
X5540Y3561D02*
X5540Y3561D01*
X5516Y3545D01*
X5494Y3526D01*
X5475Y3504D01*
X5459Y3480D01*
X5446Y3454D01*
X5437Y3427D01*
X5431Y3399D01*
X5430Y3370D01*
X5431Y3341D01*
X5437Y3313D01*
X5446Y3286D01*
X5459Y3260D01*
X5475Y3236D01*
X5494Y3214D01*
X5516Y3195D01*
X5540Y3179D01*
X5566Y3166D01*
X5593Y3157D01*
X5621Y3151D01*
X5650Y3150D01*
X5679Y3151D01*
X5680Y3152D01*
X5721Y3135D01*
X5735Y3114D01*
X5737Y3103D01*
X5746Y3076D01*
X5759Y3050D01*
X5775Y3026D01*
X5794Y3004D01*
X5816Y2985D01*
X5840Y2969D01*
X5866Y2956D01*
X5893Y2947D01*
X5921Y2941D01*
X5950Y2940D01*
X5979Y2941D01*
X6007Y2947D01*
X6034Y2956D01*
X6060Y2969D01*
X6084Y2985D01*
X6106Y3004D01*
X6111Y3010D01*
X6301D01*
X6324Y2977D01*
X6316Y2946D01*
X6311Y2938D01*
X6185D01*
Y2790D01*
X6403D01*
Y2740D01*
X6453D01*
Y2542D01*
X6646D01*
Y2170D01*
X6425D01*
X6382Y2214D01*
X6362Y2231D01*
X6340Y2246D01*
X6317Y2257D01*
X6292Y2266D01*
X6266Y2271D01*
X6240Y2273D01*
X5893D01*
X5886Y2276D01*
X5859Y2285D01*
X5831Y2291D01*
X5802Y2293D01*
X5773Y2291D01*
X5745Y2285D01*
X5718Y2276D01*
X5692Y2263D01*
X5668Y2247D01*
X5646Y2228D01*
X5627Y2206D01*
X5611Y2182D01*
X5598Y2157D01*
X5589Y2129D01*
X5583Y2101D01*
X5581Y2072D01*
X5583Y2043D01*
X5589Y2015D01*
X5598Y1988D01*
X5611Y1962D01*
X5627Y1938D01*
X5646Y1916D01*
X5668Y1897D01*
X5692Y1881D01*
X5718Y1868D01*
X5745Y1859D01*
X5773Y1854D01*
X5802Y1852D01*
X5831Y1854D01*
X5859Y1859D01*
X5886Y1868D01*
X5893Y1872D01*
X6157D01*
X6200Y1828D01*
X6220Y1811D01*
X6242Y1796D01*
X6265Y1785D01*
X6290Y1776D01*
X6316Y1771D01*
X6342Y1770D01*
X8270D01*
X8296Y1771D01*
X8322Y1776D01*
X8347Y1785D01*
X8370Y1796D01*
X8392Y1811D01*
X8412Y1828D01*
X8562Y1979D01*
X8609Y1960D01*
Y1916D01*
X8807D01*
Y1816D01*
X8609D01*
Y1493D01*
X5992D01*
X5315Y2170D01*
Y3916D01*
X5540D01*
Y3561D01*
D02*
G37*
G36*
X10439Y1824D02*
X10108Y1493D01*
X9949D01*
X9943Y1500D01*
X9941Y1533D01*
X9936Y1566D01*
X9926Y1598D01*
X9914Y1629D01*
X9897Y1658D01*
X9878Y1685D01*
X9856Y1710D01*
X9831Y1732D01*
X9804Y1752D01*
X9775Y1768D01*
X9744Y1781D01*
X9712Y1790D01*
X9679Y1795D01*
X9646Y1797D01*
X9612Y1795D01*
X9580Y1790D01*
X9547Y1781D01*
X9517Y1768D01*
X9487Y1752D01*
X9460Y1732D01*
X9435Y1710D01*
X9413Y1685D01*
X9394Y1658D01*
X9378Y1629D01*
X9365Y1598D01*
X9356Y1566D01*
X9350Y1533D01*
X9348Y1500D01*
X9342Y1493D01*
X9006D01*
Y1862D01*
X9018Y1874D01*
X10418D01*
X10439Y1824D01*
D02*
G37*
%LPC*%
G36*
X12215Y19596D02*
X12037D01*
Y19477D01*
X12215D01*
Y19596D01*
D02*
G37*
G36*
X4293Y18624D02*
X3938D01*
Y18456D01*
X4293D01*
Y18624D01*
D02*
G37*
G36*
X11467Y18457D02*
Y18160D01*
X11764D01*
X11761Y18179D01*
X11753Y18212D01*
X11741Y18244D01*
X11726Y18275D01*
X11709Y18305D01*
X11688Y18333D01*
X11665Y18358D01*
X11640Y18381D01*
X11612Y18402D01*
X11583Y18419D01*
X11551Y18434D01*
X11519Y18446D01*
X11486Y18454D01*
X11467Y18457D01*
D02*
G37*
G36*
X11367D02*
X11349Y18454D01*
X11316Y18446D01*
X11283Y18434D01*
X11252Y18419D01*
X11223Y18402D01*
X11195Y18381D01*
X11170Y18358D01*
X11146Y18333D01*
X11126Y18305D01*
X11108Y18275D01*
X11094Y18244D01*
X11082Y18212D01*
X11074Y18179D01*
X11071Y18160D01*
X11367D01*
Y18457D01*
D02*
G37*
G36*
X11792Y18060D02*
X11467D01*
Y17764D01*
X11486Y17767D01*
X11519Y17775D01*
X11551Y17786D01*
X11583Y17801D01*
X11612Y17819D01*
X11640Y17839D01*
X11665Y17862D01*
X11682Y17881D01*
X11705Y17877D01*
X11890D01*
Y18045D01*
X11803D01*
X11792Y18060D01*
D02*
G37*
G36*
X11367D02*
X11071D01*
X11074Y18042D01*
X11082Y18009D01*
X11094Y17976D01*
X11108Y17945D01*
X11126Y17916D01*
X11146Y17888D01*
X11170Y17862D01*
X11195Y17839D01*
X11223Y17819D01*
X11252Y17801D01*
X11283Y17786D01*
X11316Y17775D01*
X11349Y17767D01*
X11367Y17764D01*
Y18060D01*
D02*
G37*
G36*
X8157Y18004D02*
X7950D01*
Y17807D01*
X8157D01*
Y18004D01*
D02*
G37*
G36*
X7850D02*
X7643D01*
Y17807D01*
X7850D01*
Y18004D01*
D02*
G37*
G36*
X7037Y18060D02*
X6740D01*
X6743Y18042D01*
X6751Y18009D01*
X6763Y17976D01*
X6778Y17945D01*
X6795Y17916D01*
X6816Y17888D01*
X6839Y17862D01*
X6864Y17839D01*
X6892Y17819D01*
X6921Y17801D01*
X6953Y17786D01*
X6985Y17775D01*
X7018Y17767D01*
X7037Y17764D01*
Y18060D01*
D02*
G37*
G36*
X7433D02*
X7137D01*
Y17764D01*
X7155Y17767D01*
X7188Y17775D01*
X7221Y17786D01*
X7252Y17801D01*
X7281Y17819D01*
X7309Y17839D01*
X7334Y17862D01*
X7357Y17888D01*
X7378Y17916D01*
X7396Y17945D01*
X7410Y17976D01*
X7422Y18009D01*
X7430Y18042D01*
X7433Y18060D01*
D02*
G37*
G36*
X8064Y17637D02*
X7867D01*
Y17430D01*
X8064D01*
Y17637D01*
D02*
G37*
G36*
X7087Y17673D02*
X7052Y17672D01*
X7018Y17667D01*
X6985Y17658D01*
X6953Y17647D01*
X6921Y17632D01*
X6892Y17614D01*
X6864Y17594D01*
X6839Y17571D01*
X6816Y17545D01*
X6795Y17518D01*
X6778Y17488D01*
X6763Y17457D01*
X6751Y17425D01*
X6743Y17391D01*
X6738Y17357D01*
X6736Y17323D01*
X6738Y17288D01*
X6743Y17254D01*
X6751Y17221D01*
X6763Y17189D01*
X6778Y17158D01*
X6795Y17128D01*
X6816Y17101D01*
X6839Y17075D01*
X6864Y17052D01*
X6892Y17031D01*
X6921Y17014D01*
X6953Y16999D01*
X6985Y16988D01*
X7018Y16979D01*
X7052Y16974D01*
X7087Y16972D01*
X7121Y16974D01*
X7155Y16979D01*
X7188Y16988D01*
X7221Y16999D01*
X7252Y17014D01*
X7281Y17031D01*
X7309Y17052D01*
X7334Y17075D01*
X7357Y17101D01*
X7378Y17128D01*
X7396Y17158D01*
X7410Y17189D01*
X7422Y17221D01*
X7430Y17254D01*
X7435Y17288D01*
X7437Y17323D01*
X7435Y17357D01*
X7430Y17391D01*
X7422Y17425D01*
X7410Y17457D01*
X7396Y17488D01*
X7378Y17518D01*
X7357Y17545D01*
X7334Y17571D01*
X7309Y17594D01*
X7281Y17614D01*
X7252Y17632D01*
X7221Y17647D01*
X7188Y17658D01*
X7155Y17667D01*
X7121Y17672D01*
X7087Y17673D01*
D02*
G37*
G36*
X5868Y17324D02*
X4959D01*
Y16652D01*
X5868D01*
Y17324D01*
D02*
G37*
G36*
X4446Y16647D02*
Y16440D01*
X4643D01*
Y16647D01*
X4446D01*
D02*
G37*
G36*
X7087Y16886D02*
X7052Y16884D01*
X7018Y16879D01*
X6985Y16871D01*
X6953Y16859D01*
X6921Y16844D01*
X6892Y16827D01*
X6864Y16806D01*
X6839Y16783D01*
X6816Y16758D01*
X6795Y16730D01*
X6778Y16701D01*
X6763Y16670D01*
X6751Y16637D01*
X6743Y16604D01*
X6738Y16570D01*
X6736Y16535D01*
X6738Y16501D01*
X6743Y16467D01*
X6751Y16434D01*
X6763Y16401D01*
X6778Y16370D01*
X6795Y16341D01*
X6816Y16313D01*
X6839Y16288D01*
X6864Y16265D01*
X6892Y16244D01*
X6921Y16226D01*
X6953Y16212D01*
X6985Y16200D01*
X7018Y16192D01*
X7052Y16187D01*
X7087Y16185D01*
X7121Y16187D01*
X7155Y16192D01*
X7188Y16200D01*
X7221Y16212D01*
X7252Y16226D01*
X7281Y16244D01*
X7309Y16265D01*
X7334Y16288D01*
X7357Y16313D01*
X7378Y16341D01*
X7396Y16370D01*
X7410Y16401D01*
X7422Y16434D01*
X7430Y16467D01*
X7435Y16501D01*
X7437Y16535D01*
X7435Y16570D01*
X7430Y16604D01*
X7422Y16637D01*
X7410Y16670D01*
X7396Y16701D01*
X7378Y16730D01*
X7357Y16758D01*
X7334Y16783D01*
X7309Y16806D01*
X7281Y16827D01*
X7252Y16844D01*
X7221Y16859D01*
X7188Y16871D01*
X7155Y16879D01*
X7121Y16884D01*
X7087Y16886D01*
D02*
G37*
G36*
X5455Y14560D02*
X5287D01*
Y14402D01*
X5455D01*
Y14560D01*
D02*
G37*
G36*
X2806Y14126D02*
Y13830D01*
X3102D01*
X3100Y13848D01*
X3091Y13881D01*
X3080Y13914D01*
X3065Y13945D01*
X3047Y13974D01*
X3027Y14002D01*
X3004Y14027D01*
X2978Y14050D01*
X2951Y14071D01*
X2921Y14089D01*
X2890Y14103D01*
X2858Y14115D01*
X2824Y14123D01*
X2806Y14126D01*
D02*
G37*
G36*
X2706D02*
X2688Y14123D01*
X2654Y14115D01*
X2622Y14103D01*
X2591Y14089D01*
X2561Y14071D01*
X2534Y14050D01*
X2508Y14027D01*
X2485Y14002D01*
X2465Y13974D01*
X2447Y13945D01*
X2432Y13914D01*
X2421Y13881D01*
X2412Y13848D01*
X2409Y13830D01*
X2706D01*
Y14126D01*
D02*
G37*
G36*
X709Y11537D02*
X621D01*
Y11310D01*
X981D01*
X979Y11322D01*
X971Y11352D01*
X959Y11380D01*
X944Y11408D01*
X926Y11433D01*
X905Y11456D01*
X882Y11477D01*
X856Y11495D01*
X829Y11510D01*
X800Y11522D01*
X770Y11530D01*
X740Y11536D01*
X709Y11537D01*
D02*
G37*
G36*
X1485Y11635D02*
X1160D01*
Y11270D01*
X1485D01*
Y11635D01*
D02*
G37*
G36*
X981Y11210D02*
X621D01*
Y10982D01*
X709D01*
X740Y10984D01*
X770Y10989D01*
X800Y10998D01*
X829Y11010D01*
X856Y11025D01*
X882Y11043D01*
X905Y11064D01*
X926Y11087D01*
X944Y11112D01*
X959Y11139D01*
X971Y11168D01*
X979Y11198D01*
X981Y11210D01*
D02*
G37*
G36*
X1485Y11170D02*
X1160D01*
Y10806D01*
X1485D01*
Y11170D01*
D02*
G37*
G36*
X1990Y10651D02*
X1674D01*
Y10522D01*
X1990D01*
Y10651D01*
D02*
G37*
G36*
X1574D02*
X1258D01*
Y10522D01*
X1574D01*
Y10651D01*
D02*
G37*
G36*
X621Y10907D02*
Y10483D01*
X976D01*
Y10907D01*
X621D01*
D02*
G37*
G36*
X976Y9438D02*
X621D01*
Y9014D01*
X976D01*
Y9438D01*
D02*
G37*
G36*
X1485Y9116D02*
X1160D01*
Y8751D01*
X1485D01*
Y9116D01*
D02*
G37*
G36*
X709Y8939D02*
X621D01*
Y8711D01*
X981D01*
X979Y8723D01*
X971Y8753D01*
X959Y8782D01*
X944Y8809D01*
X926Y8834D01*
X905Y8858D01*
X882Y8878D01*
X856Y8896D01*
X829Y8912D01*
X800Y8923D01*
X770Y8932D01*
X740Y8937D01*
X709Y8939D01*
D02*
G37*
G36*
X981Y8611D02*
X621D01*
Y8384D01*
X709D01*
X740Y8386D01*
X770Y8391D01*
X800Y8399D01*
X829Y8411D01*
X856Y8426D01*
X882Y8444D01*
X905Y8465D01*
X926Y8488D01*
X944Y8514D01*
X959Y8541D01*
X971Y8570D01*
X979Y8600D01*
X981Y8611D01*
D02*
G37*
G36*
X1485Y8651D02*
X1160D01*
Y8286D01*
X1485D01*
Y8651D01*
D02*
G37*
G36*
X2756Y17673D02*
X2722Y17672D01*
X2688Y17667D01*
X2654Y17658D01*
X2622Y17647D01*
X2591Y17632D01*
X2561Y17614D01*
X2534Y17594D01*
X2508Y17571D01*
X2485Y17545D01*
X2465Y17518D01*
X2447Y17488D01*
X2432Y17457D01*
X2421Y17425D01*
X2412Y17391D01*
X2407Y17357D01*
X2405Y17323D01*
X2407Y17288D01*
X2412Y17254D01*
X2421Y17221D01*
X2432Y17189D01*
X2447Y17158D01*
X2465Y17128D01*
X2485Y17101D01*
X2508Y17075D01*
X2534Y17052D01*
X2561Y17031D01*
X2591Y17014D01*
X2622Y16999D01*
X2654Y16988D01*
X2688Y16979D01*
X2722Y16974D01*
X2756Y16972D01*
X2790Y16974D01*
X2824Y16979D01*
X2858Y16988D01*
X2890Y16999D01*
X2921Y17014D01*
X2951Y17031D01*
X2978Y17052D01*
X3004Y17075D01*
X3027Y17101D01*
X3047Y17128D01*
X3065Y17158D01*
X3080Y17189D01*
X3091Y17221D01*
X3100Y17254D01*
X3105Y17288D01*
X3106Y17323D01*
X3105Y17357D01*
X3100Y17391D01*
X3091Y17425D01*
X3080Y17457D01*
X3065Y17488D01*
X3047Y17518D01*
X3027Y17545D01*
X3004Y17571D01*
X2978Y17594D01*
X2951Y17614D01*
X2921Y17632D01*
X2890Y17647D01*
X2858Y17658D01*
X2824Y17667D01*
X2790Y17672D01*
X2756Y17673D01*
D02*
G37*
G36*
Y16886D02*
X2722Y16884D01*
X2688Y16879D01*
X2654Y16871D01*
X2622Y16859D01*
X2591Y16844D01*
X2561Y16827D01*
X2534Y16806D01*
X2508Y16783D01*
X2485Y16758D01*
X2465Y16730D01*
X2447Y16701D01*
X2432Y16670D01*
X2421Y16637D01*
X2412Y16604D01*
X2407Y16570D01*
X2405Y16535D01*
X2407Y16501D01*
X2412Y16467D01*
X2421Y16434D01*
X2432Y16401D01*
X2447Y16370D01*
X2465Y16341D01*
X2485Y16313D01*
X2508Y16288D01*
X2534Y16265D01*
X2561Y16244D01*
X2591Y16226D01*
X2622Y16212D01*
X2654Y16200D01*
X2688Y16192D01*
X2722Y16187D01*
X2756Y16185D01*
X2790Y16187D01*
X2824Y16192D01*
X2858Y16200D01*
X2890Y16212D01*
X2921Y16226D01*
X2951Y16244D01*
X2978Y16265D01*
X3004Y16288D01*
X3027Y16313D01*
X3047Y16341D01*
X3065Y16370D01*
X3080Y16401D01*
X3091Y16434D01*
X3100Y16467D01*
X3105Y16501D01*
X3106Y16535D01*
X3105Y16570D01*
X3100Y16604D01*
X3091Y16637D01*
X3080Y16670D01*
X3065Y16701D01*
X3047Y16730D01*
X3027Y16758D01*
X3004Y16783D01*
X2978Y16806D01*
X2951Y16827D01*
X2921Y16844D01*
X2890Y16859D01*
X2858Y16871D01*
X2824Y16879D01*
X2790Y16884D01*
X2756Y16886D01*
D02*
G37*
G36*
X14113Y14516D02*
X13935D01*
Y14397D01*
X14113D01*
Y14516D01*
D02*
G37*
G36*
X15071Y15394D02*
X15020Y15392D01*
X14970Y15387D01*
X14920Y15378D01*
X14871Y15365D01*
X14823Y15349D01*
X14776Y15330D01*
X14731Y15307D01*
X14687Y15282D01*
X14646Y15253D01*
X14606Y15221D01*
X14569Y15186D01*
X14535Y15149D01*
X14503Y15110D01*
X14474Y15068D01*
X14448Y15025D01*
X14426Y14980D01*
X14406Y14933D01*
X14390Y14885D01*
X14378Y14836D01*
X14369Y14786D01*
X14364Y14736D01*
X14362Y14685D01*
X14364Y14634D01*
X14369Y14584D01*
X14378Y14534D01*
X14390Y14485D01*
X14406Y14437D01*
X14426Y14390D01*
X14448Y14345D01*
X14474Y14302D01*
X14503Y14260D01*
X14535Y14221D01*
X14569Y14184D01*
X14606Y14149D01*
X14646Y14117D01*
X14687Y14088D01*
X14731Y14063D01*
X14776Y14040D01*
X14823Y14021D01*
X14871Y14005D01*
X14920Y13992D01*
X14970Y13983D01*
X15020Y13978D01*
X15071Y13976D01*
X15121Y13978D01*
X15172Y13983D01*
X15222Y13992D01*
X15271Y14005D01*
X15319Y14021D01*
X15365Y14040D01*
X15411Y14063D01*
X15454Y14088D01*
X15496Y14117D01*
X15535Y14149D01*
X15572Y14184D01*
X15607Y14221D01*
X15639Y14260D01*
X15667Y14302D01*
X15693Y14345D01*
X15716Y14390D01*
X15735Y14437D01*
X15751Y14485D01*
X15764Y14534D01*
X15773Y14584D01*
X15778Y14634D01*
X15780Y14685D01*
X15778Y14736D01*
X15773Y14786D01*
X15764Y14836D01*
X15751Y14885D01*
X15735Y14933D01*
X15716Y14980D01*
X15693Y15025D01*
X15667Y15068D01*
X15639Y15110D01*
X15607Y15149D01*
X15572Y15186D01*
X15535Y15221D01*
X15496Y15253D01*
X15454Y15282D01*
X15411Y15307D01*
X15365Y15330D01*
X15319Y15349D01*
X15271Y15365D01*
X15222Y15378D01*
X15172Y15387D01*
X15121Y15392D01*
X15071Y15394D01*
D02*
G37*
G36*
X12003Y14230D02*
X11835D01*
Y14082D01*
X12003D01*
Y14230D01*
D02*
G37*
G36*
X6195Y11995D02*
X5850D01*
Y11650D01*
X6195D01*
Y11995D01*
D02*
G37*
G36*
X6885Y11709D02*
X6716D01*
Y11561D01*
X6885D01*
Y11709D01*
D02*
G37*
G36*
X4800Y11996D02*
X4761Y11994D01*
X4723Y11988D01*
X4685Y11979D01*
X4649Y11966D01*
X4613Y11949D01*
X4580Y11929D01*
X4549Y11906D01*
X4520Y11880D01*
X4494Y11851D01*
X4471Y11820D01*
X4451Y11787D01*
X4434Y11751D01*
X4421Y11715D01*
X4412Y11677D01*
X4406Y11639D01*
X4404Y11600D01*
X4406Y11561D01*
X4412Y11523D01*
X4421Y11485D01*
X4434Y11449D01*
X4451Y11413D01*
X4471Y11380D01*
X4494Y11349D01*
X4520Y11320D01*
X4549Y11294D01*
X4580Y11271D01*
X4613Y11251D01*
X4649Y11234D01*
X4685Y11221D01*
X4723Y11212D01*
X4761Y11206D01*
X4800Y11204D01*
X4839Y11206D01*
X4877Y11212D01*
X4915Y11221D01*
X4951Y11234D01*
X4987Y11251D01*
X5020Y11271D01*
X5051Y11294D01*
X5080Y11320D01*
X5106Y11349D01*
X5129Y11380D01*
X5149Y11413D01*
X5166Y11449D01*
X5179Y11485D01*
X5188Y11523D01*
X5194Y11561D01*
X5196Y11600D01*
X5194Y11639D01*
X5188Y11677D01*
X5179Y11715D01*
X5166Y11751D01*
X5149Y11787D01*
X5129Y11820D01*
X5106Y11851D01*
X5080Y11880D01*
X5051Y11906D01*
X5020Y11929D01*
X4987Y11949D01*
X4951Y11966D01*
X4915Y11979D01*
X4877Y11988D01*
X4839Y11994D01*
X4800Y11996D01*
D02*
G37*
G36*
X18295Y6877D02*
X18127D01*
Y6729D01*
X18295D01*
Y6877D01*
D02*
G37*
G36*
X8141Y6349D02*
Y6007D01*
X8483D01*
X8479Y6034D01*
X8469Y6072D01*
X8456Y6108D01*
X8440Y6143D01*
X8420Y6177D01*
X8396Y6208D01*
X8370Y6237D01*
X8342Y6263D01*
X8310Y6286D01*
X8277Y6306D01*
X8242Y6322D01*
X8205Y6335D01*
X8168Y6345D01*
X8141Y6349D01*
D02*
G37*
G36*
X8041Y6349D02*
X8013Y6345D01*
X7976Y6335D01*
X7939Y6322D01*
X7904Y6306D01*
X7871Y6286D01*
X7839Y6263D01*
X7811Y6237D01*
X7785Y6208D01*
X7761Y6177D01*
X7742Y6143D01*
X7725Y6108D01*
X7712Y6072D01*
X7702Y6034D01*
X7698Y6007D01*
X8041D01*
Y6349D01*
D02*
G37*
G36*
X8483Y5907D02*
X8141D01*
Y5565D01*
X8168Y5569D01*
X8205Y5578D01*
X8242Y5591D01*
X8277Y5608D01*
X8310Y5628D01*
X8342Y5651D01*
X8370Y5677D01*
X8396Y5706D01*
X8420Y5737D01*
X8440Y5770D01*
X8456Y5805D01*
X8469Y5842D01*
X8479Y5879D01*
X8483Y5907D01*
D02*
G37*
G36*
X8041D02*
X7698D01*
X7702Y5879D01*
X7712Y5842D01*
X7725Y5805D01*
X7742Y5770D01*
X7761Y5737D01*
X7785Y5706D01*
X7811Y5677D01*
X7839Y5651D01*
X7871Y5628D01*
X7904Y5608D01*
X7939Y5591D01*
X7976Y5578D01*
X8013Y5569D01*
X8041Y5565D01*
Y5907D01*
D02*
G37*
G36*
X10586Y3661D02*
X10477D01*
Y3454D01*
X10586D01*
Y3661D01*
D02*
G37*
G36*
X18417Y3149D02*
X18249D01*
Y3000D01*
X18417D01*
Y3149D01*
D02*
G37*
G36*
X8333Y2701D02*
X8165D01*
Y2552D01*
X8333D01*
Y2701D01*
D02*
G37*
G36*
X2806Y1770D02*
Y1428D01*
X3148D01*
X3144Y1455D01*
X3135Y1493D01*
X3122Y1529D01*
X3105Y1565D01*
X3085Y1598D01*
X3062Y1629D01*
X3036Y1658D01*
X3007Y1684D01*
X2976Y1707D01*
X2942Y1727D01*
X2907Y1744D01*
X2871Y1757D01*
X2833Y1766D01*
X2806Y1770D01*
D02*
G37*
G36*
X2706D02*
X2679Y1766D01*
X2641Y1757D01*
X2604Y1744D01*
X2569Y1727D01*
X2536Y1707D01*
X2505Y1684D01*
X2476Y1658D01*
X2450Y1629D01*
X2427Y1598D01*
X2407Y1565D01*
X2390Y1529D01*
X2377Y1493D01*
X2368Y1455D01*
X2364Y1428D01*
X2706D01*
Y1770D01*
D02*
G37*
G36*
X3148Y1328D02*
X2806D01*
Y986D01*
X2833Y990D01*
X2871Y999D01*
X2907Y1012D01*
X2942Y1029D01*
X2976Y1049D01*
X3007Y1072D01*
X3036Y1098D01*
X3062Y1127D01*
X3085Y1158D01*
X3105Y1191D01*
X3122Y1226D01*
X3135Y1263D01*
X3144Y1301D01*
X3148Y1328D01*
D02*
G37*
G36*
X2706D02*
X2364D01*
X2368Y1301D01*
X2377Y1263D01*
X2390Y1226D01*
X2407Y1191D01*
X2427Y1158D01*
X2450Y1127D01*
X2476Y1098D01*
X2505Y1072D01*
X2536Y1049D01*
X2569Y1029D01*
X2604Y1012D01*
X2641Y999D01*
X2679Y990D01*
X2706Y986D01*
Y1328D01*
D02*
G37*
G36*
X12091Y813D02*
X11874D01*
Y675D01*
X12091D01*
Y813D01*
D02*
G37*
G36*
X1378Y2087D02*
X1327Y2085D01*
X1277Y2080D01*
X1227Y2071D01*
X1178Y2058D01*
X1130Y2042D01*
X1083Y2023D01*
X1038Y2000D01*
X995Y1974D01*
X953Y1946D01*
X914Y1914D01*
X877Y1879D01*
X842Y1842D01*
X810Y1803D01*
X781Y1761D01*
X756Y1718D01*
X733Y1673D01*
X714Y1626D01*
X698Y1578D01*
X685Y1529D01*
X676Y1479D01*
X671Y1429D01*
X669Y1378D01*
X671Y1327D01*
X676Y1277D01*
X685Y1227D01*
X698Y1178D01*
X714Y1130D01*
X733Y1083D01*
X756Y1038D01*
X781Y995D01*
X810Y953D01*
X842Y914D01*
X877Y877D01*
X914Y842D01*
X953Y810D01*
X995Y781D01*
X1038Y756D01*
X1083Y733D01*
X1130Y714D01*
X1178Y698D01*
X1227Y685D01*
X1277Y676D01*
X1327Y671D01*
X1378Y669D01*
X1429Y671D01*
X1479Y676D01*
X1529Y685D01*
X1578Y698D01*
X1626Y714D01*
X1673Y733D01*
X1718Y756D01*
X1761Y781D01*
X1803Y810D01*
X1842Y842D01*
X1879Y877D01*
X1914Y914D01*
X1946Y953D01*
X1974Y995D01*
X2000Y1038D01*
X2023Y1083D01*
X2042Y1130D01*
X2058Y1178D01*
X2071Y1227D01*
X2080Y1277D01*
X2085Y1327D01*
X2087Y1378D01*
X2085Y1429D01*
X2080Y1479D01*
X2071Y1529D01*
X2058Y1578D01*
X2042Y1626D01*
X2023Y1673D01*
X2000Y1718D01*
X1974Y1761D01*
X1946Y1803D01*
X1914Y1842D01*
X1879Y1879D01*
X1842Y1914D01*
X1803Y1946D01*
X1761Y1974D01*
X1718Y2000D01*
X1673Y2023D01*
X1626Y2042D01*
X1578Y2058D01*
X1529Y2071D01*
X1479Y2080D01*
X1429Y2085D01*
X1378Y2087D01*
D02*
G37*
G36*
X9006Y643D02*
X8857D01*
Y474D01*
X9006D01*
Y643D01*
D02*
G37*
G36*
X8757D02*
X8609D01*
Y474D01*
X8757D01*
Y643D01*
D02*
G37*
G36*
X10620Y423D02*
X10472D01*
Y255D01*
X10620D01*
Y423D01*
D02*
G37*
G36*
X10586Y2606D02*
X10477D01*
Y2398D01*
X10586D01*
Y2606D01*
D02*
G37*
G36*
X6353Y2690D02*
X6185D01*
Y2542D01*
X6353D01*
Y2690D01*
D02*
G37*
%LPD*%
D11*
X15101Y17441D02*
G03*
X16455Y15319I2340J0D01*
G01*
X2358Y12313D02*
X2665Y12620D01*
X2864D02*
X2996Y12752D01*
X2665Y12620D02*
X2864D01*
X3390Y12317D02*
Y12742D01*
X2358Y11163D02*
Y12313D01*
Y11163D02*
X2461Y11059D01*
X3051D01*
X3154Y11163D01*
X7790Y12360D02*
X7988Y12162D01*
X7790Y12360D02*
Y13110D01*
X7300Y13600D02*
X7790Y13110D01*
X3154Y11163D02*
X3390D01*
X7988Y12162D02*
X9254D01*
X14914Y8350D02*
X15332Y8768D01*
X14110Y8350D02*
X14914D01*
X13878Y8582D02*
X14110Y8350D01*
X16514Y4106D02*
Y5954D01*
X17337Y3283D02*
X17466D01*
X16514Y4106D02*
X17337Y3283D01*
X9612Y13808D02*
Y14268D01*
X9380Y14500D02*
X9612Y14268D01*
X8830Y14500D02*
X9380D01*
X8360Y14030D02*
X8830Y14500D01*
X7730Y14030D02*
X8360D01*
X7300Y13600D02*
X7730Y14030D01*
X9366Y12274D02*
X9604D01*
X9254Y12162D02*
X9366Y12274D01*
X7328Y11511D02*
Y11790D01*
X5527Y9453D02*
Y9680D01*
X5971Y9249D02*
Y9564D01*
X5750Y9230D02*
X5990D01*
X5527Y9453D02*
X5750Y9230D01*
X6003Y10437D02*
X6452D01*
X5950Y10490D02*
X6003Y10437D01*
X5802Y2072D02*
X5820Y2090D01*
X10742Y19033D02*
X11655D01*
X10714Y19061D02*
X10742Y19033D01*
X16520Y13740D02*
X18500D01*
X18660Y13900D01*
Y14674D01*
X18671Y14685D01*
X16348Y13912D02*
X16520Y13740D01*
X16348Y13912D02*
Y14685D01*
X13860Y17734D02*
Y17740D01*
X13576Y17450D02*
X13860Y17734D01*
X13547Y17450D02*
X13576D01*
X13830Y18040D02*
X13910D01*
X13590Y17800D02*
X13830Y18040D01*
X13547Y17800D02*
X13590D01*
X13967Y16743D02*
X14564D01*
X13610Y17100D02*
X13967Y16743D01*
X13547Y17100D02*
X13610D01*
X13547Y18150D02*
X13681Y18284D01*
X14104D01*
X14227Y18161D01*
X14564D01*
X18418Y15104D02*
X18980D01*
X16680Y15210D02*
X16801Y15089D01*
Y14567D02*
Y15089D01*
X16455Y15319D02*
X16680Y15210D01*
X16455Y15319D02*
X16455Y15319D01*
X16348Y14685D02*
Y14994D01*
X18219Y14905D02*
X18418Y15104D01*
X18219Y14567D02*
Y14905D01*
X14180Y18530D02*
X14263Y18613D01*
X14682D01*
X13547Y18500D02*
X13770D01*
X14557Y16750D02*
X14564Y16743D01*
X10170Y2024D02*
X10474D01*
X9459Y2932D02*
X9650D01*
X9391Y2864D02*
X9459Y2932D01*
X8670Y2370D02*
X8815Y2225D01*
X8817D01*
X2640Y10180D02*
X2740D01*
X2940Y9980D01*
Y9850D02*
Y9980D01*
Y9670D02*
Y9850D01*
X2796Y9526D02*
X2940Y9670D01*
X2796Y9440D02*
Y9526D01*
X6900Y10448D02*
X6993D01*
X8890Y18510D02*
X9294D01*
X4080Y15990D02*
X4130Y16040D01*
X4080Y15784D02*
Y15990D01*
Y15400D02*
Y15784D01*
X8180Y14860D02*
X8190D01*
X8440Y15110D01*
Y15299D01*
X15332Y8768D02*
X16290D01*
X9290Y12350D02*
Y12578D01*
X17466Y3283D02*
X17549Y3199D01*
X17805D01*
X18196Y5820D02*
X18655Y6279D01*
X18072Y5696D02*
X18121Y5745D01*
X18046Y5820D02*
X18196D01*
X14024Y9075D02*
X14262D01*
X9290Y12350D02*
X9366Y12274D01*
X9290Y12578D02*
X9406Y12694D01*
X9604Y12274D02*
X9733Y12403D01*
X13090Y17450D02*
X13153Y17513D01*
X13090Y17450D02*
X13153D01*
Y17513D02*
Y17800D01*
X12927Y17287D02*
X13090Y17450D01*
X13153Y16750D02*
Y17100D01*
X13150Y18503D02*
X13153Y18500D01*
X13150Y18503D02*
Y18890D01*
X13153Y18150D02*
Y18500D01*
X17781Y3223D02*
X17805Y3199D01*
X17781Y3223D02*
Y3597D01*
X18655Y6279D02*
X18718D01*
X10674Y863D02*
X11096D01*
X11460Y540D02*
Y696D01*
X11390Y470D02*
X11460Y540D01*
X11130Y470D02*
X11390D01*
X11000Y600D02*
X11130Y470D01*
X11000Y600D02*
Y767D01*
X11096Y863D01*
X2103Y3323D02*
X2156D01*
X10393Y887D02*
X10650D01*
X10390Y890D02*
X10393Y887D01*
X10474Y2024D02*
X10560Y2110D01*
X2070Y3290D02*
X2103Y3323D01*
X9921Y3622D02*
X10033Y3510D01*
Y3404D02*
Y3510D01*
X12690Y19530D02*
X13140D01*
X12927Y16263D02*
X13000Y16190D01*
X12809Y17559D02*
Y19411D01*
X12690Y19530D02*
X12809Y19411D01*
X12632Y17382D02*
X12809Y17559D01*
X13536Y15678D02*
X13630D01*
X13212D02*
X13310Y15580D01*
X13000Y15678D02*
X13212D01*
X9612Y12888D02*
Y13040D01*
Y12888D02*
X9783Y12717D01*
Y12694D02*
Y12717D01*
X9733Y12403D02*
Y12694D01*
X9415Y12703D02*
Y13040D01*
X9406Y12694D02*
X9415Y12703D01*
X14514Y10459D02*
X14518Y10463D01*
X13153Y16520D02*
X13246Y16427D01*
Y15969D02*
X13536Y15678D01*
X13153Y16520D02*
Y16750D01*
X13246Y15969D02*
Y16427D01*
X14231Y16441D02*
X14532D01*
X14682Y16291D01*
X13630Y16190D02*
X13723D01*
X13547Y16750D02*
X13586D01*
X12927Y16263D02*
Y17287D01*
X12560Y16030D02*
X12632Y16102D01*
Y17382D01*
X14564Y17452D02*
Y17806D01*
X9470Y3410D02*
X9682Y3622D01*
X9921D01*
X9470Y3334D02*
Y3410D01*
X9334Y2864D02*
X9391D01*
X9038Y2568D02*
X9334Y2864D01*
X8868Y2568D02*
X9038D01*
X8670Y2370D02*
X8868Y2568D01*
X15180Y16162D02*
Y16220D01*
Y16162D02*
X16348Y14994D01*
X18980Y15104D02*
X19114Y14970D01*
X8817Y2225D02*
X9018Y2024D01*
X10170D01*
X11892Y19302D02*
X11970Y19380D01*
X11892Y18855D02*
Y19302D01*
X11800Y18763D02*
X11892Y18855D01*
X9950Y16790D02*
X10174Y17014D01*
Y17210D01*
X9920D02*
X10174D01*
X9840Y17130D02*
X9920Y17210D01*
X8114Y16910D02*
Y17380D01*
X16290Y8768D02*
X17220D01*
X16514Y5954D02*
X17610Y7050D01*
Y8378D01*
X17220Y8768D02*
X17610Y8378D01*
X7568Y2502D02*
X7721D01*
X7819Y2601D01*
Y2818D01*
X7976Y2975D02*
Y3230D01*
X7140Y2930D02*
X7568Y2502D01*
X7819Y2818D02*
X7976Y2975D01*
X6797Y1980D02*
Y2740D01*
Y2743D02*
Y2830D01*
X5950Y3160D02*
X6376D01*
X6414Y3198D01*
X13876Y9223D02*
X13878D01*
Y8582D02*
Y9221D01*
Y9223D01*
Y9221D02*
X14024Y9075D01*
X13770Y18500D02*
X14200Y18930D01*
X15038D01*
X15101Y18867D01*
Y17441D02*
Y18867D01*
X13723Y16190D02*
X13876Y16038D01*
Y15574D02*
Y16038D01*
X13586Y16750D02*
X14151Y16185D01*
Y16149D02*
Y16185D01*
Y16149D02*
X14430Y15870D01*
X13812Y15511D02*
X13876Y15574D01*
X13310Y15580D02*
X13379Y15511D01*
X13812D01*
X14717Y19620D02*
X14770Y19567D01*
X14120Y19620D02*
X14717D01*
X8560Y9800D02*
Y10073D01*
X8570Y10082D01*
X8581Y10094D01*
X9612Y13808D02*
X9809D01*
D12*
X9177Y13326D02*
X9327D01*
X9033Y13470D02*
X9092Y13411D01*
X9177Y13326D01*
D15*
X13268Y14760D02*
G03*
X13400Y14591I175J0D01*
G01*
Y14929D02*
G03*
X13268Y14760I44J-170D01*
G01*
X12163Y12439D02*
G03*
X12216Y12613I-116J131D01*
G01*
X12153Y12431D02*
G03*
X12163Y12439I-106J139D01*
G01*
X8970Y13300D02*
G03*
X8970Y13640I-44J170D01*
G01*
X8850D02*
G03*
X8850Y13300I44J-170D01*
G01*
X8980Y13851D02*
G03*
X8980Y14189I-44J170D01*
G01*
X8840D02*
G03*
X8840Y13851I44J-170D01*
G01*
X11838Y12570D02*
G03*
X11970Y12400I175J0D01*
G01*
X11897Y12701D02*
G03*
X11848Y12629I116J-131D01*
G01*
D02*
G03*
X11838Y12570I165J-59D01*
G01*
X11970Y12739D02*
G03*
X11897Y12701I44J-170D01*
G01*
X12216Y12613D02*
G03*
X12090Y12739I-170J-43D01*
G01*
Y12400D02*
G03*
X12153Y12431I-44J170D01*
G01*
X13593Y14891D02*
G03*
X13520Y14929I-116J-131D01*
G01*
X13632Y14842D02*
G03*
X13593Y14891I-155J-82D01*
G01*
X13520Y14591D02*
G03*
X13632Y14842I-44J170D01*
G01*
X4080Y14948D02*
X4278Y14750D01*
X4458Y10316D02*
X5281Y11139D01*
X3214Y8690D02*
X3468Y8944D01*
X2100Y8690D02*
X3214D01*
X3051Y11059D02*
X3468Y10642D01*
Y8944D02*
Y10642D01*
X3110Y7470D02*
Y8250D01*
X5637Y13593D02*
X6314Y14270D01*
X6320D01*
X4275Y12442D02*
X5528D01*
X4226Y12560D02*
X5810D01*
X5528Y12442D02*
X5620Y12350D01*
X3390Y11557D02*
X4275Y12442D01*
X3589Y11923D02*
X4226Y12560D01*
X5810D02*
X5900Y12470D01*
X4100Y13593D02*
X5637D01*
X5650Y16320D02*
X6015Y15955D01*
X11078Y11820D02*
Y13110D01*
X9731Y11506D02*
X10763D01*
X11078Y11820D01*
X10960Y11869D02*
Y12991D01*
X10841Y11917D02*
Y13997D01*
X10666Y11742D02*
X10841Y11917D01*
X9828Y11742D02*
X10666D01*
X9780Y11624D02*
X10714D01*
X10960Y11869D01*
X10724Y12227D02*
Y13812D01*
X10580Y12083D02*
X10724Y12227D01*
X10580Y11950D02*
Y12083D01*
X10606Y12275D02*
Y13332D01*
X10280Y11950D02*
X10606Y12275D01*
X9920Y11950D02*
X10280D01*
X11222Y11537D02*
X11535Y11850D01*
X8351Y12024D02*
X9449D01*
X9546Y12024D02*
X9828Y11742D01*
X9449Y12024D02*
X9546D01*
X9449Y12024D02*
X9449Y12024D01*
X9497Y11906D02*
X9780Y11624D01*
X8400Y11906D02*
X9497D01*
X8449Y11788D02*
X9449D01*
X9731Y11506D01*
X10959Y12992D02*
Y13948D01*
Y12992D02*
X10960Y12991D01*
X11222Y10905D02*
Y11537D01*
X11077Y13110D02*
Y13899D01*
Y13110D02*
X11078Y13110D01*
X10130Y13808D02*
X10606Y13332D01*
X10205Y14331D02*
X10724Y13812D01*
X10841Y13997D02*
X11039Y14195D01*
X10959Y13948D02*
X11157Y14146D01*
X11077Y13899D02*
X11712Y14534D01*
X8997Y11497D02*
X9080Y11580D01*
X8780D02*
X8879Y11481D01*
X8997Y11035D02*
Y11497D01*
X8879Y10986D02*
Y11481D01*
X7900Y18586D02*
X7930D01*
X8222Y18293D01*
X15910Y7820D02*
X16140D01*
X15636Y7546D02*
X15910Y7820D01*
X13249Y7546D02*
X15636D01*
X15587Y7664D02*
X15893Y7970D01*
X16460D01*
X13200Y7664D02*
X15587D01*
X12872Y7336D02*
X13200Y7664D01*
X12921Y7218D02*
X13249Y7546D01*
X15928Y7428D02*
X16040Y7540D01*
X13298Y7428D02*
X15928D01*
X12880Y7010D02*
X13298Y7428D01*
X16874Y4391D02*
Y5744D01*
Y4391D02*
X17238Y4026D01*
X17351D01*
X17377Y4000D01*
X11100Y10670D02*
X11259Y10511D01*
Y10081D02*
Y10511D01*
Y10081D02*
X11301Y10039D01*
X11484D01*
X11222Y10905D02*
X11573Y10554D01*
Y10443D02*
Y10554D01*
X11888Y10568D02*
X12000Y10680D01*
X11888Y10443D02*
Y10568D01*
X12190Y10680D02*
X12580Y10290D01*
X12000Y10680D02*
X12190D01*
X12494Y10082D02*
X12532D01*
X12045Y10443D02*
X12158D01*
X12372Y10229D01*
Y10204D02*
Y10229D01*
Y10204D02*
X12494Y10082D01*
X12438Y9882D02*
X12450Y9870D01*
X12134Y9882D02*
X12438D01*
X17781Y4751D02*
X18380Y5350D01*
Y5500D01*
X17781Y4561D02*
Y4751D01*
X19618Y3781D02*
Y4828D01*
X19399Y3562D02*
X19618Y3781D01*
Y4828D02*
X19710Y4920D01*
X19500Y3830D02*
Y5790D01*
X19026Y6264D02*
X19500Y5790D01*
X19360Y3690D02*
X19500Y3830D01*
X17938Y3562D02*
X19399D01*
X17938D02*
Y3597D01*
Y4645D02*
X17983Y4600D01*
X18027Y3843D02*
X18247D01*
X18320Y3770D01*
X18027Y4000D02*
X18460D01*
X18422Y4118D02*
X19094D01*
X18225Y4315D02*
X18422Y4118D01*
X18027Y4315D02*
X18225D01*
X18770Y3690D02*
X19360D01*
X18460Y4000D02*
X18770Y3690D01*
X19026Y6264D02*
Y7291D01*
X9415Y13808D02*
Y14075D01*
X9330Y14160D02*
X9415Y14075D01*
X8007Y15240D02*
X8066Y15299D01*
X7780Y15240D02*
X8007D01*
X7367Y11207D02*
X7677Y11517D01*
Y11811D01*
X9994Y14809D02*
Y16074D01*
Y14809D02*
X10157Y14646D01*
X8801Y12547D02*
X8940Y12408D01*
X8801Y12547D02*
Y13456D01*
X5133Y9496D02*
Y9680D01*
X5578Y9052D02*
X5818D01*
X5133Y9496D02*
X5578Y9052D01*
X4927Y9535D02*
X5529Y8934D01*
X4458Y9341D02*
Y10316D01*
X4576Y9390D02*
Y10267D01*
X4693Y9439D02*
Y10218D01*
X4927Y9535D02*
Y9825D01*
X5143Y10041D01*
X4576Y10267D02*
X5330Y11021D01*
X4693Y10218D02*
X5379Y10904D01*
X5133Y9763D02*
X5260Y9890D01*
X5133Y9680D02*
Y9763D01*
X5281Y11139D02*
X6171D01*
X5330Y11021D02*
X6122D01*
X5379Y10904D02*
X6073D01*
X5530Y10786D02*
X6024D01*
X5474Y10668D02*
X5646D01*
X5143Y10337D02*
X5474Y10668D01*
X5772Y10404D02*
Y10542D01*
X5646Y10668D02*
X5772Y10542D01*
X6024Y10786D02*
X6215Y10595D01*
X6073Y10904D02*
X6224Y10752D01*
X6122Y11021D02*
X6264Y10880D01*
X6171Y11139D02*
X6313Y10998D01*
X6000Y10282D02*
X6450D01*
X5772Y10404D02*
X5894Y10282D01*
X6000D01*
X6000Y10282D01*
X5143Y10041D02*
Y10337D01*
X5260Y9890D02*
X5685D01*
X5745Y10095D02*
X5814Y10164D01*
X5745Y9950D02*
Y10095D01*
X5685Y9890D02*
X5745Y9950D01*
X6313Y10998D02*
X6575D01*
X6264Y10880D02*
X6624D01*
X6224Y10752D02*
X6452D01*
X6215Y10595D02*
X6452D01*
X6575Y10998D02*
X6610Y11033D01*
Y11219D01*
X6685Y11293D01*
X6790D01*
X6895Y11188D01*
X9994Y16074D02*
X10340Y16420D01*
X11270Y19477D02*
X11320Y19427D01*
X11655D01*
Y19230D02*
Y19427D01*
X11200Y16930D02*
X11570D01*
X11090Y16820D02*
X11200Y16930D01*
X10340Y16420D02*
Y16790D01*
X9578Y17128D02*
X9966Y17516D01*
X9560Y16720D02*
Y16924D01*
X9578Y16941D01*
Y17128D01*
X9966Y17516D02*
Y17998D01*
X11890Y16333D02*
X11890Y16333D01*
X12270D01*
Y16068D02*
Y16333D01*
X12222Y16020D02*
X12270Y16068D01*
X13593Y14810D02*
X13600D01*
X12514Y14760D02*
X12814Y15060D01*
X12315Y13085D02*
X12749D01*
X12220Y13180D02*
X12315Y13085D01*
X12220Y13180D02*
Y13430D01*
X12298Y13508D02*
X13122D01*
X12220Y13430D02*
X12298Y13508D01*
X11677Y13280D02*
X11777Y13380D01*
X12010D01*
X3790Y3323D02*
X4490Y4023D01*
X3356Y3323D02*
X3790D01*
X3780Y3823D02*
X4123D01*
X3238D02*
X3780D01*
X12780Y14150D02*
X13275D01*
X12650Y14280D02*
X12780Y14150D01*
X12447Y14280D02*
X12650D01*
X13268Y14760D02*
X13337D01*
X13066D02*
X13268D01*
X12447Y14280D02*
X12927Y14760D01*
X13066D01*
X12447Y13936D02*
X12453Y13930D01*
X12447Y13936D02*
Y14280D01*
X13337Y14760D02*
X13367D01*
X12216Y12613D02*
X12333Y12730D01*
X12153Y12431D02*
Y12570D01*
X12130Y12077D02*
X12153Y12100D01*
X10841Y1132D02*
Y1481D01*
X10900Y1073D02*
X11543D01*
X10841Y1481D02*
X11290Y1930D01*
X10841Y1132D02*
X10900Y1073D01*
X11543D02*
X11727Y1257D01*
X11824D01*
X11520Y1864D02*
Y2130D01*
X11096Y1440D02*
X11520Y1864D01*
X11096Y1257D02*
Y1440D01*
X10743Y2110D02*
X11159Y2526D01*
X10560Y2110D02*
X10743D01*
X11440Y1520D02*
X11730Y1810D01*
Y2730D01*
X6676Y5416D02*
X6829Y5263D01*
X3390Y11923D02*
X3589D01*
X8343Y8848D02*
X8530D01*
X8223Y8968D02*
X8343Y8848D01*
X7840Y8980D02*
X7880D01*
X10641Y10571D02*
X10660Y10590D01*
X10354Y10571D02*
X10641D01*
X17983Y4600D02*
X18290D01*
X15108Y9075D02*
X15935D01*
X9071Y8538D02*
X9265Y8344D01*
X8802Y7888D02*
X8996Y7694D01*
X8851Y8006D02*
X9045Y7812D01*
X8628Y8632D02*
Y8750D01*
Y8632D02*
X8722Y8538D01*
X9071D01*
X7601Y8006D02*
X8851D01*
X13490Y10170D02*
X14820D01*
X13430Y10110D02*
X13490Y10170D01*
X14422Y9992D02*
X14818D01*
X14320Y9890D02*
X14422Y9992D01*
X14818D02*
X15108Y9702D01*
Y9469D02*
Y9702D01*
X12888Y12821D02*
X12979Y12730D01*
X13105D01*
X8480Y11497D02*
X8761Y11216D01*
X8480Y11497D02*
Y11520D01*
X8510Y11300D02*
X8643Y11167D01*
X8260Y11300D02*
X8510D01*
X9152Y9068D02*
X9342D01*
X8530Y8848D02*
X8628Y8750D01*
X7968Y11307D02*
X8449Y11788D01*
X7968Y10752D02*
Y11307D01*
X2756Y12205D02*
X3037Y11923D01*
X3390D01*
X2756Y11417D02*
X2895Y11557D01*
X3390D01*
X6450Y10282D02*
X6452Y10280D01*
X6250Y10123D02*
X6452D01*
X5814Y10164D02*
X6209D01*
X6250Y10123D01*
X6780Y9060D02*
X7053Y9333D01*
X6780Y8840D02*
Y9060D01*
X7525Y9295D02*
X7840Y8980D01*
X7682Y9360D02*
Y9522D01*
Y9360D02*
X7762Y9280D01*
X7850D01*
X7525Y9295D02*
Y9522D01*
X7968Y9965D02*
X8118D01*
X7682Y11189D02*
X8400Y11906D01*
X7682Y11038D02*
Y11189D01*
X7525Y11198D02*
X8351Y12024D01*
X7525Y11038D02*
Y11198D01*
X7367Y11038D02*
Y11207D01*
X6895Y11038D02*
Y11188D01*
X7053Y9333D02*
Y9522D01*
X9146Y8740D02*
X9200D01*
X9342Y9068D02*
X9700Y8710D01*
X9567Y9143D02*
X9979Y8731D01*
X9567Y9143D02*
Y9350D01*
X9103Y8950D02*
X9293D01*
X9440Y8803D01*
Y8560D02*
Y8803D01*
X13430Y10110D02*
X13618Y9922D01*
X9724Y9156D02*
X10031Y8849D01*
X9724Y9156D02*
Y9350D01*
X5093Y16320D02*
X5650D01*
X4833Y16060D02*
X5093Y16320D01*
X4343Y15830D02*
X4833D01*
Y16060D01*
Y15700D02*
Y15830D01*
Y15700D02*
X4833Y15700D01*
X13120Y19190D02*
X13290D01*
X13406Y19306D01*
Y19520D01*
X2800Y8560D02*
X3110Y8250D01*
X2510Y8560D02*
X2800D01*
X2424Y8474D02*
X2510Y8560D01*
X2424Y8330D02*
Y8474D01*
X2424Y8010D02*
X2424Y8010D01*
X2424Y7700D02*
Y8010D01*
X5971Y9958D02*
X5979Y9965D01*
X6452D01*
X8960Y3466D02*
X8960Y3230D01*
X11728Y9882D02*
X11820Y9790D01*
X11484Y9882D02*
X11728D01*
X11733Y10197D02*
X11820Y10110D01*
X11484Y10197D02*
X11733D01*
X17938Y4561D02*
Y4645D01*
X18840Y7477D02*
X19026Y7291D01*
X18664Y7477D02*
X18840D01*
X18453Y7266D02*
X18664Y7477D01*
X4297Y15016D02*
X4343Y14970D01*
X4843D01*
Y15330D01*
X4297Y15784D02*
X4343Y15830D01*
X4080Y14948D02*
Y15016D01*
X4278Y14750D02*
X4703D01*
X4843Y14610D01*
X8222Y18293D02*
X8486D01*
X3730Y13593D02*
X4100D01*
X4100Y13593D01*
X4370Y4070D02*
Y4740D01*
X4123Y3823D02*
X4370Y4070D01*
X4490Y4023D02*
Y4480D01*
X4690Y4680D01*
X11440Y1444D02*
Y1520D01*
X10654Y3128D02*
X10864Y3338D01*
X10604Y3128D02*
X10654D01*
X10604Y2932D02*
X10752D01*
X10950Y3130D01*
X1939Y8529D02*
X2100Y8690D01*
X1939Y8259D02*
Y8529D01*
X1542Y3558D02*
X1750Y3350D01*
X1542Y3558D02*
Y5578D01*
X1474Y5646D02*
X1542Y5578D01*
X1562Y7483D02*
Y7882D01*
X1939Y8259D01*
X1562Y7483D02*
X1700Y7346D01*
X1474Y6810D02*
X1700Y7036D01*
Y7346D01*
X1474Y5646D02*
Y6810D01*
X9777Y3207D02*
Y3356D01*
Y3207D02*
X9856Y3128D01*
X7851Y3939D02*
X7976D01*
Y3944D02*
X7980D01*
X7851Y4175D02*
X7976D01*
X7519Y8088D02*
X7601Y8006D01*
X8105Y8919D02*
X8347Y8677D01*
X6738Y10994D02*
Y11038D01*
X6624Y10880D02*
X6738Y10994D01*
X13759Y14150D02*
X13885D01*
X13666Y14243D02*
X13759Y14150D01*
X12934Y15934D02*
X13000D01*
X12947Y19017D02*
X13120Y19190D01*
X12770Y17325D02*
X12947Y17502D01*
Y19017D01*
X9002Y9218D02*
X9152Y9068D01*
X8884Y9169D02*
X9103Y8950D01*
X8766Y9120D02*
X9146Y8740D01*
X8648Y9071D02*
X8860Y8859D01*
X8997Y11035D02*
X9125Y10908D01*
X8879Y10986D02*
X9007Y10859D01*
X8761Y10937D02*
Y11216D01*
Y10937D02*
X8889Y10810D01*
X8643Y10888D02*
X8771Y10761D01*
X8643Y10888D02*
Y11167D01*
X12333Y12730D02*
X12495D01*
X15324Y9350D02*
Y9666D01*
X14820Y10170D02*
X15324Y9666D01*
X15108Y9272D02*
X15246D01*
X15324Y9350D01*
X13379Y13251D02*
X14200D01*
X13122Y13508D02*
X13379Y13251D01*
X12888Y12821D02*
Y12946D01*
X12749Y13085D02*
X12888Y12946D01*
X13476Y15934D02*
X13630D01*
X13384Y16026D02*
X13476Y15934D01*
X13384Y16026D02*
Y16304D01*
X13417Y16337D01*
X13804D01*
X12770Y15937D02*
Y17325D01*
X8960Y3702D02*
X9084D01*
X9480Y3800D02*
X9520Y3760D01*
X13666Y14243D02*
Y14687D01*
X13652Y14701D02*
X13666Y14687D01*
X10864Y3338D02*
X11036D01*
X11159Y3215D01*
Y2526D02*
Y3215D01*
X9520Y3760D02*
X10080D01*
X10230Y3610D01*
Y3404D02*
Y3610D01*
X9043Y13827D02*
Y14020D01*
Y13827D02*
X9327Y13543D01*
Y13522D02*
Y13543D01*
X8777Y13601D02*
Y14020D01*
X8787Y13470D02*
X8801Y13456D01*
X12265Y19013D02*
Y19033D01*
Y19013D02*
X12285Y19033D01*
X12114Y19230D02*
X12265D01*
X12048Y19164D02*
X12114Y19230D01*
X12204Y17278D02*
X12208D01*
X11890Y16964D02*
X12204Y17278D01*
X11890Y16727D02*
Y16964D01*
X12208Y17278D02*
X12265Y17335D01*
Y19013D01*
X12147Y17507D02*
Y18771D01*
X12048Y18870D02*
X12147Y18771D01*
X11570Y16930D02*
X12147Y17507D01*
X12048Y18870D02*
Y19164D01*
X11796Y12681D02*
Y12890D01*
Y12681D02*
X11848Y12629D01*
X11907Y12570D01*
X12212Y13172D02*
X12220Y13180D01*
X12078Y13172D02*
X12212D01*
X11796Y12890D02*
X12078Y13172D01*
X11283Y12885D02*
Y13280D01*
Y12885D02*
X12091Y12077D01*
X12130D01*
X12153Y12100D02*
Y12431D01*
X10006Y13808D02*
X10130D01*
X16874Y5744D02*
X16890Y5760D01*
X6729Y4162D02*
Y4437D01*
X6829Y4537D02*
Y5263D01*
X6071Y3759D02*
X6325D01*
X6204Y3916D02*
X6325D01*
X5902Y4218D02*
X6204Y3916D01*
X5902Y4562D02*
X6000Y4660D01*
X5902Y4218D02*
Y4562D01*
X6412Y4252D02*
X6414D01*
X7701Y3561D02*
Y3789D01*
X7851Y3939D01*
X7154Y4366D02*
Y4590D01*
X6886Y4162D02*
X6999D01*
X7301Y3860D01*
X7537D01*
X7851Y4175D01*
X7154Y4366D02*
X7410Y4110D01*
Y4070D02*
Y4110D01*
X6975Y3601D02*
X7290D01*
X6975Y3444D02*
X7166D01*
X7218Y3392D01*
X7532D01*
X7701Y3561D01*
X9979Y8731D02*
X10243D01*
X10031Y8849D02*
X10291D01*
X12170Y7120D02*
X12268Y7218D01*
X16140Y7820D02*
X16340Y7620D01*
Y7540D02*
Y7620D01*
X8091Y6957D02*
X8117D01*
X8501Y7340D01*
X11890Y7240D02*
X11986Y7336D01*
X8996Y7694D02*
X10623D01*
X11486D02*
X12253D01*
X10970Y7710D02*
X11072Y7812D01*
X10774Y7710D02*
X10970D01*
X10672Y7812D02*
X10774Y7710D01*
X10550Y7812D02*
X10672D01*
X10550Y7812D02*
X10550Y7812D01*
X11072D02*
X12204D01*
X9045Y7812D02*
X10550D01*
X10629Y8344D02*
X11985D01*
X10243Y8731D02*
X10629Y8344D01*
X10678Y8462D02*
X11936D01*
X10291Y8849D02*
X10678Y8462D01*
X10024Y8344D02*
X10170Y8490D01*
X9265Y8344D02*
X10024D01*
X13618Y9724D02*
Y9922D01*
X12134Y9724D02*
X12177Y9682D01*
Y8702D02*
Y9682D01*
X11936Y8462D02*
X12177Y8702D01*
X11985Y8344D02*
X12294Y8654D01*
Y9414D01*
X12658Y9778D01*
Y9956D01*
X12532Y10082D02*
X12658Y9956D01*
X12204Y7812D02*
X12826Y8433D01*
Y9194D01*
X13410Y9778D01*
X12253Y7694D02*
X12944Y8385D01*
Y9145D01*
X13364Y9566D01*
X13460D01*
X13618Y9724D01*
X13406Y19306D02*
X13417Y19294D01*
X14649D02*
X14770Y19173D01*
X13417Y19294D02*
X14649D01*
X13804Y16337D02*
X14014Y16128D01*
Y15517D02*
Y16128D01*
X12814Y15060D02*
X13500D01*
X13593Y14967D01*
X12524Y15524D02*
X12934Y15934D01*
X12475Y15642D02*
X12770Y15937D01*
X13190Y15406D02*
X13224Y15372D01*
X13868D01*
X14014Y15517D01*
X11757Y15090D02*
X12030D01*
X13254Y15524D02*
X13310Y15580D01*
X12066Y15292D02*
X12298Y15524D01*
X12524D01*
X12017Y15410D02*
X12249Y15642D01*
X12475D01*
X12622Y15288D02*
X12740Y15406D01*
X13190D01*
X12030Y15090D02*
X12346Y15406D01*
X12573D01*
X12691Y15524D01*
X13254D01*
X11363Y15090D02*
X11565Y15292D01*
X12066D01*
X11157Y14146D02*
Y14884D01*
X11363Y15090D01*
X11039Y14195D02*
Y15117D01*
X11333Y15410D01*
X12017D01*
X11911Y14534D02*
X11970Y14592D01*
Y14860D01*
X12399Y15288D01*
X11559Y14534D02*
X11712D01*
X12399Y15288D02*
X12622D01*
X11363Y14730D02*
X11559Y14534D01*
X11712D02*
X11911D01*
X10623Y7694D02*
X10823Y7494D01*
X11286D01*
X11486Y7694D01*
X12268Y7218D02*
X12921D01*
X11986Y7336D02*
X12872D01*
X9002Y9218D02*
Y9400D01*
X9125Y9523D01*
Y10908D01*
X8884Y9169D02*
Y9449D01*
X9007Y9572D01*
Y10859D01*
X8766Y9120D02*
Y9498D01*
X8889Y9621D01*
Y10810D01*
X8648Y9071D02*
Y9547D01*
X8771Y9670D01*
Y10761D01*
X7968Y9808D02*
X8082D01*
X8105Y9785D01*
Y8919D02*
Y9785D01*
X8118Y9965D02*
X8223Y9860D01*
Y8968D02*
Y9860D01*
X6990Y7990D02*
X7088Y8088D01*
X7519D01*
X8306Y7580D02*
X8614Y7888D01*
X8802D01*
X5529Y8934D02*
X5770D01*
X8136Y7580D02*
X8306D01*
X7944Y7772D02*
X8136Y7580D01*
X7232Y7772D02*
X7944D01*
X7126Y7666D02*
X7232Y7772D01*
X5971Y9938D02*
Y9958D01*
X8501Y7340D02*
X9249D01*
X9084Y3702D02*
X9440Y4058D01*
Y4190D01*
X9249Y7340D02*
X9390Y7200D01*
X9610Y7350D02*
X9718Y7458D01*
X10529D01*
X11510Y7260D02*
X11600Y7350D01*
X10529Y7458D02*
X10727Y7260D01*
X11510D01*
X13593Y14891D02*
Y14967D01*
X13632Y14842D02*
X13730Y14940D01*
X13600Y14810D02*
X13632Y14842D01*
X13593Y14760D02*
Y14810D01*
X8860Y8750D02*
Y8859D01*
X12490Y7010D02*
X12880D01*
X7968Y10280D02*
X8290D01*
X8310Y10300D01*
X7010Y7666D02*
X7126D01*
X6040Y8482D02*
Y8830D01*
Y8482D02*
X6848Y7674D01*
Y7666D02*
Y7674D01*
X5818Y9052D02*
X6040Y8830D01*
X5922Y8433D02*
Y8781D01*
Y8433D02*
X6590Y7765D01*
Y7630D02*
Y7765D01*
X5770Y8934D02*
X5922Y8781D01*
X4693Y9439D02*
X5522Y8610D01*
X4458Y9341D02*
X4943Y8856D01*
X5260Y8110D02*
Y8116D01*
X4943Y8433D02*
Y8856D01*
X5180Y8650D02*
Y8785D01*
X4576Y9390D02*
X5180Y8785D01*
X5522Y8610D02*
X5590D01*
X4943Y8433D02*
X5260Y8116D01*
D17*
X3888Y18012D02*
X4358D01*
X4410Y17960D01*
X3839Y14359D02*
Y14411D01*
X9597Y11170D02*
X9805Y11378D01*
X10704D01*
X10798Y11284D01*
Y10782D02*
Y11284D01*
X9203Y11329D02*
X9409Y11535D01*
X9203Y11170D02*
Y11329D01*
X9409Y11535D02*
Y11575D01*
X8777Y14020D02*
X9043D01*
X10400Y2360D02*
X10460D01*
X10230Y2530D02*
X10400Y2360D01*
X10230Y2530D02*
Y2656D01*
X9481Y2560D02*
X9780D01*
X9391Y2470D02*
X9481Y2560D01*
X6571Y3843D02*
X6644Y3770D01*
X6571Y3843D02*
Y4479D01*
X6510Y4540D02*
X6571Y4479D01*
X6890Y10437D02*
X6900Y10448D01*
X6452Y10437D02*
X6890D01*
X7367Y9522D02*
Y10123D01*
X7210Y10280D02*
X7367Y10123D01*
X7210Y10280D02*
X7367Y10437D01*
X7053D02*
Y11038D01*
Y10437D02*
X7210Y10280D01*
X9809Y13040D02*
X10006D01*
X10197Y10709D02*
X10388Y10900D01*
X10560D01*
X9203Y11170D02*
X9360Y11013D01*
Y10800D02*
Y11013D01*
X9882Y10571D02*
Y10868D01*
X10870Y9670D02*
X11020D01*
X10767Y9567D02*
X10870Y9670D01*
X10571Y9567D02*
X10767D01*
X14262Y9272D02*
X14587D01*
X14262D02*
Y9469D01*
X17623Y4833D02*
X17690Y4900D01*
X17623Y4317D02*
Y4833D01*
Y4317D02*
X17690Y4250D01*
X10798Y10782D02*
X10878Y10702D01*
Y10415D02*
Y10702D01*
X10938Y10354D02*
X10981Y10311D01*
X10935Y10357D02*
X10938Y10354D01*
X10571D02*
X10938D01*
X11061Y10311D02*
X11132Y10241D01*
X10981Y10311D02*
X11061D01*
X10878Y10415D02*
X10935Y10357D01*
X7085Y8755D02*
X7090Y8750D01*
X7085Y8755D02*
Y8981D01*
X10670Y9060D02*
X10709Y9099D01*
Y9239D01*
X10587Y8977D02*
X10670Y9060D01*
X10085Y8977D02*
X10587D01*
X10571Y9274D02*
Y9567D01*
X10411Y9115D02*
X10571Y9274D01*
X10295Y9115D02*
X10411D01*
X9018Y8410D02*
X9212Y8216D01*
X8904Y8134D02*
X9098Y7940D01*
X8961Y8272D02*
X9155Y8078D01*
X7768Y8410D02*
X9018D01*
X7711Y8272D02*
X8961D01*
X7654Y8134D02*
X8904D01*
X6895Y9357D02*
Y9522D01*
X6738Y9422D02*
Y9522D01*
X9210Y9427D02*
X9350Y9567D01*
X10197Y9213D02*
X10295Y9115D01*
X9882Y9180D02*
X10085Y8977D01*
X9882Y9180D02*
Y9350D01*
X10197Y9213D02*
Y9350D01*
X7210Y11038D02*
Y11393D01*
X7367Y9092D02*
X7478Y8981D01*
X7367Y9092D02*
Y9522D01*
X7085Y8981D02*
X7210Y9106D01*
X6935Y11511D02*
X7053Y11393D01*
Y11038D02*
Y11393D01*
X7210Y11393D02*
X7328Y11511D01*
X10163Y10883D02*
Y11170D01*
X10039Y10759D02*
X10163Y10883D01*
X9597Y10836D02*
X9724Y10709D01*
X9597Y10836D02*
Y11170D01*
X10039Y10571D02*
Y10759D01*
X10197Y10571D02*
Y10709D01*
X9724Y10571D02*
Y10709D01*
X5227Y16060D02*
X5540D01*
X3730Y14250D02*
X3839Y14359D01*
X3730Y13987D02*
Y14250D01*
X7210Y9106D02*
Y9522D01*
X7572Y8216D02*
X7654Y8134D01*
X7629Y8354D02*
X7711Y8272D01*
X7686Y8492D02*
X7768Y8410D01*
X10714Y17998D02*
Y18094D01*
X13827Y10829D02*
X13929D01*
X13827Y10459D02*
X14514D01*
X14384Y10900D02*
X14518Y11033D01*
X14000Y10900D02*
X14384D01*
X13929Y10829D02*
X14000Y10900D01*
X10220Y13060D02*
Y13200D01*
X10094Y13326D02*
X10220Y13200D01*
X10094Y13326D02*
Y13522D01*
X10094Y13522D02*
X10094Y13522D01*
X9812Y13522D02*
X10094D01*
X9809Y13519D02*
X9812Y13522D01*
X9804Y13326D02*
X10094D01*
X9809Y13040D02*
Y13321D01*
X9804Y13326D02*
X9809Y13321D01*
X9060Y2340D02*
X9190Y2210D01*
X9727D01*
X9764Y2247D01*
X13192Y10218D02*
X13433Y10459D01*
X9098Y7940D02*
X12152D01*
X9155Y8078D02*
X12095D01*
X13054Y10450D02*
X13433Y10829D01*
X12916Y10682D02*
X13433Y11199D01*
X9212Y8216D02*
X12038D01*
X11132Y10028D02*
Y10241D01*
Y10028D02*
X11258Y9901D01*
Y9453D02*
Y9901D01*
X10709Y9239D02*
X10922Y9452D01*
X11260D01*
X11547D01*
X11573Y9478D01*
X11258Y9453D02*
X11260Y9452D01*
X12038Y8216D02*
X12422Y8601D01*
Y9361D01*
X12916Y9856D01*
Y10682D01*
X12095Y8078D02*
X12560Y8544D01*
Y9304D01*
X13054Y9798D01*
Y10450D01*
X12152Y7940D02*
X12698Y8486D01*
Y9247D01*
X13192Y9741D01*
Y10218D01*
X6284Y8638D02*
X6706Y8216D01*
X7572D01*
X6763Y8354D02*
X7629D01*
X6284Y8638D02*
Y9164D01*
X6820Y8492D02*
X7686D01*
X6560Y8752D02*
X6820Y8492D01*
X6560Y8752D02*
Y9022D01*
X6895Y9357D01*
X6422Y8695D02*
X6763Y8354D01*
X6422Y8695D02*
Y9107D01*
X6738Y9422D01*
X6284Y9164D02*
X6452Y9332D01*
Y9808D01*
X7968Y10437D02*
X8132D01*
X7367D02*
X7968D01*
Y10123D02*
X8179D01*
X8220Y10082D01*
X8570D01*
X8213Y10518D02*
X8551D01*
X8132Y10437D02*
X8213Y10518D01*
X8551D02*
X8581Y10488D01*
Y10709D01*
X8450Y10840D02*
X8581Y10709D01*
X8430Y10840D02*
X8450D01*
X8902Y4233D02*
X8960Y4175D01*
X8902Y4233D02*
Y4338D01*
X8820Y4420D02*
X8902Y4338D01*
X8468Y3702D02*
Y3878D01*
X8765Y4175D01*
X8960D01*
D37*
X17514Y5820D02*
D03*
X18046D02*
D03*
X10174Y17210D02*
D03*
X10706D02*
D03*
X8114Y16910D02*
D03*
X8646D02*
D03*
X8114Y17380D02*
D03*
X8646D02*
D03*
X4396Y14410D02*
D03*
X3864D02*
D03*
X4396Y16390D02*
D03*
X3864D02*
D03*
X2264Y9440D02*
D03*
X2796D02*
D03*
X18186Y6279D02*
D03*
X18718D02*
D03*
X10135Y12274D02*
D03*
X9604D02*
D03*
D38*
X12447Y14280D02*
D03*
X12053D02*
D03*
X2637Y9860D02*
D03*
X2243D02*
D03*
X17807Y13500D02*
D03*
X17413D02*
D03*
X17805Y3199D02*
D03*
X18199D02*
D03*
X18739Y6679D02*
D03*
X18345D02*
D03*
X6797Y2740D02*
D03*
X6403D02*
D03*
X7721Y2502D02*
D03*
X8115D02*
D03*
X10158Y2247D02*
D03*
X9764D02*
D03*
X9406Y12694D02*
D03*
X9013D02*
D03*
X9783D02*
D03*
X10176D02*
D03*
X10163Y11170D02*
D03*
X10557D02*
D03*
X9597D02*
D03*
X9203D02*
D03*
X7085Y8981D02*
D03*
X7478D02*
D03*
X7328Y11511D02*
D03*
X6935D02*
D03*
D39*
X8807Y1086D02*
D03*
Y693D02*
D03*
Y1866D02*
D03*
Y1473D02*
D03*
X12130Y12077D02*
D03*
Y11683D02*
D03*
X13876Y9223D02*
D03*
Y9616D02*
D03*
X10670Y867D02*
D03*
Y473D02*
D03*
X9391Y2864D02*
D03*
Y2470D02*
D03*
X11800Y9097D02*
D03*
Y8703D02*
D03*
X10935Y10357D02*
D03*
Y9964D02*
D03*
X8581Y10094D02*
D03*
Y10488D02*
D03*
D41*
X7900Y18054D02*
D03*
Y18586D02*
D03*
D75*
X15071Y14685D02*
D03*
X1378Y1378D02*
D03*
Y18543D02*
D03*
D77*
X2756Y1378D02*
D03*
X4055Y9843D02*
D03*
X11516Y11850D02*
D03*
X4800Y11600D02*
D03*
X7300Y12600D02*
D03*
X7300Y13600D02*
D03*
X3091Y6957D02*
D03*
Y5957D02*
D03*
X6091D02*
D03*
Y6957D02*
D03*
X8091Y5957D02*
D03*
Y6957D02*
D03*
X9091Y5957D02*
D03*
Y6957D02*
D03*
X10091Y5957D02*
D03*
X7091Y6957D02*
D03*
Y5957D02*
D03*
X5091Y6957D02*
D03*
Y5957D02*
D03*
X4091D02*
D03*
Y6957D02*
D03*
X2091D02*
D03*
Y5957D02*
D03*
X1091D02*
D03*
Y6957D02*
D03*
X19094Y4118D02*
D03*
Y5118D02*
D03*
D78*
X9033Y13470D02*
D03*
X8787D02*
D03*
X8777Y14020D02*
D03*
X9043D02*
D03*
X12153Y12570D02*
D03*
X11907D02*
D03*
X13337Y14760D02*
D03*
X13583D02*
D03*
D82*
X2320Y14440D02*
X3290D01*
X1400Y13970D02*
X1850D01*
X2320Y14440D01*
X3290D02*
X3440Y14290D01*
X5537Y10170D02*
Y10443D01*
X14198Y6689D02*
X14338D01*
X13457Y6689D02*
X14198Y6689D01*
Y6548D02*
X14338Y6689D01*
X18753Y6314D02*
Y7267D01*
X18718Y6279D02*
X18753Y6314D01*
X12508Y5740D02*
X13457Y6689D01*
X3863Y15784D02*
Y16389D01*
Y14411D02*
Y15016D01*
X15527Y9353D02*
X15610Y9270D01*
X16150D01*
X16290Y9130D01*
Y8768D02*
Y9130D01*
X15527Y9353D02*
Y9747D01*
X12370Y11210D02*
X12730D01*
X15159Y10333D02*
X15161Y10330D01*
X15159Y10156D02*
Y10333D01*
X12730Y11210D02*
X12970Y11450D01*
X15021D01*
X15161Y11310D01*
X11800Y5740D02*
X12508D01*
X15525Y9749D02*
X15527Y9747D01*
X15525Y9749D02*
Y9790D01*
X15159Y10156D02*
X15525Y9790D01*
X14852Y10463D02*
X15159D01*
X15161Y10330D02*
Y11310D01*
X14198Y3502D02*
Y6548D01*
Y3502D02*
X14280Y3420D01*
X11490Y9100D02*
X11797D01*
X11757Y14730D02*
Y15090D01*
D83*
X3218Y8960D02*
X3280Y9023D01*
Y9946D01*
X2150Y11077D02*
X3280Y9946D01*
X5950Y13010D02*
X7178Y14238D01*
X2996Y12752D02*
X6085D01*
X3330Y13010D02*
X5950D01*
X2756Y12992D02*
X2996Y12752D01*
X6085D02*
X6933Y13600D01*
X7300D01*
X2940Y13386D02*
X2954D01*
X3330Y13010D01*
X2150Y11077D02*
Y13000D01*
X2536Y13386D02*
X2573D01*
X2150Y13000D02*
X2536Y13386D01*
X7178Y14238D02*
X8271D01*
X8814Y14984D02*
X9028Y14770D01*
X8271Y14238D02*
X8814Y14781D01*
X7500Y15367D02*
X8043Y15910D01*
X7500Y14990D02*
Y15367D01*
X8280Y15910D02*
X8646Y16276D01*
X8043Y15910D02*
X8280D01*
X8646Y16276D02*
Y16910D01*
X1671Y2459D02*
X4469D01*
X9160Y15644D02*
Y16860D01*
X8814Y15299D02*
X9160Y15644D01*
Y16860D02*
X9340Y17040D01*
X8814Y14781D02*
Y14984D01*
X1336Y2794D02*
X1671Y2459D01*
X1336Y2794D02*
Y5356D01*
X13140Y19530D02*
X13150Y19520D01*
X9028Y14770D02*
X9310D01*
X550Y5710D02*
Y6416D01*
X1091Y6957D01*
X8814Y14984D02*
Y15299D01*
X8646Y16910D02*
Y17380D01*
X2255Y9449D02*
X2264Y9440D01*
X1624Y9449D02*
X2255D01*
X2264Y9440D02*
Y9839D01*
X2243Y9860D02*
X2264Y9839D01*
X2243Y9860D02*
Y10137D01*
X2220Y10160D02*
X2243Y10137D01*
X550Y5710D02*
X770Y5490D01*
X1203D01*
X1336Y5356D01*
X12627Y12370D02*
X12730D01*
X12495Y12502D02*
X12627Y12370D01*
X6342Y1970D02*
X8270D01*
X6240Y2072D02*
X6342Y1970D01*
X5802Y2072D02*
X6240D01*
X8270Y1970D02*
X8670Y2370D01*
D84*
X3585Y11587D02*
X4324Y12325D01*
X6245Y15060D02*
Y15725D01*
X4324Y12325D02*
X5245D01*
X5340Y12230D01*
X6015Y15955D02*
X6245Y15725D01*
X15590Y8070D02*
Y8230D01*
X15418Y7898D02*
X15590Y8070D01*
X13103Y7898D02*
X15418D01*
X12782Y7577D02*
X13103Y7898D01*
X7620Y3233D02*
X7853Y3466D01*
X4810Y9487D02*
X5480Y8817D01*
X4055Y9578D02*
Y9843D01*
X4810Y9487D02*
Y10170D01*
X5426Y10786D01*
X5530D01*
X5592Y5654D02*
X5785Y5461D01*
X5476Y5606D02*
X5670Y5413D01*
X7490Y4670D02*
Y4931D01*
Y4670D02*
X7740Y4420D01*
X8960Y3939D02*
X9083D01*
X6473Y5621D02*
X6677Y5417D01*
X7620Y3110D02*
Y3233D01*
X6589Y5668D02*
X7154Y5104D01*
X6705Y5716D02*
X7490Y4931D01*
X7853Y3466D02*
X7976D01*
X7091Y5957D02*
Y6416D01*
X7473Y6798D01*
X5650Y3370D02*
X5670Y3390D01*
X5785Y3655D02*
X5839Y3601D01*
X6325D01*
X5670Y3390D02*
Y5413D01*
X5785Y3655D02*
Y5461D01*
X5708Y5702D02*
X6250Y5160D01*
Y4390D02*
X6414Y4226D01*
Y4162D02*
Y4226D01*
X6250Y4390D02*
Y5160D01*
X7154Y4590D02*
Y5104D01*
X8700Y7680D02*
X8803Y7577D01*
X10575D01*
X10775Y7377D01*
X11334D01*
X11535Y7577D01*
X12782D01*
X6473Y7513D02*
X6590Y7630D01*
X4424Y8330D02*
Y8418D01*
X4022Y8293D02*
Y8504D01*
X4073Y8555D01*
X4288D01*
X4424Y8418D01*
X3585Y8605D02*
X3810Y8380D01*
X3585Y8605D02*
Y11587D01*
X5531Y7821D02*
X5800Y8090D01*
X6010Y7584D02*
Y7870D01*
X6217Y7627D02*
Y7966D01*
X5886Y8297D02*
X6217Y7966D01*
X7182Y7889D02*
X8121D01*
X7076Y7783D02*
X7182Y7889D01*
X6904Y7783D02*
X7076D01*
X5480Y8817D02*
X5721D01*
X6157Y8530D02*
X6904Y7783D01*
X6157Y8530D02*
Y9217D01*
X6230Y9289D01*
X8121Y7889D02*
X8220Y7790D01*
X5476Y5606D02*
Y7040D01*
X5476Y7040D01*
Y7214D01*
X5531Y7269D01*
Y7821D01*
X5592Y5654D02*
Y7166D01*
X6010Y7584D01*
X5708Y5702D02*
Y7118D01*
X6217Y7627D01*
X6473Y5621D02*
Y7513D01*
X6589Y7336D02*
X6848Y7595D01*
Y7666D01*
X6589Y5668D02*
Y7336D01*
X6705Y7288D02*
X6966Y7549D01*
X6705Y5716D02*
Y7288D01*
X7309Y7549D02*
X7320Y7560D01*
X6966Y7549D02*
X7309D01*
X7440Y7280D02*
X7473Y7247D01*
Y6798D02*
Y7247D01*
X5941Y9938D02*
X5942D01*
X6230Y9289D02*
Y9650D01*
X5942Y9938D02*
X6230Y9650D01*
X9091Y5957D02*
Y6343D01*
X9294Y6547D01*
X9466D01*
X9380Y6340D02*
X9381Y6339D01*
X9380Y6360D02*
X9400Y6340D01*
X9466Y6547D02*
X9558Y6455D01*
X9140Y4420D02*
X9224Y4336D01*
X9083Y3939D02*
X9224Y4080D01*
Y4336D01*
X9500Y6751D02*
Y7089D01*
X9390Y7200D02*
X9500Y7089D01*
Y6751D02*
X9680Y6571D01*
X10418D01*
X10990Y7143D01*
X11793D01*
X11890Y7240D01*
X9558Y6455D02*
X10466D01*
X11038Y7027D01*
X12077D01*
X12170Y7120D01*
X9381Y6339D02*
X10514D01*
X11086Y6911D01*
X9380Y6339D02*
X9381D01*
X11086Y6911D02*
X12391D01*
X12490Y7010D01*
X7009Y7665D02*
X7010Y7666D01*
X6849Y7665D02*
X7009D01*
X6848Y7666D02*
X6849Y7665D01*
X5743Y8413D02*
X5806Y8475D01*
Y8733D01*
X5721Y8817D02*
X5806Y8733D01*
X5097Y7903D02*
X5346D01*
X4424Y7700D02*
Y7880D01*
X4544Y8000D01*
X3660Y8120D02*
X3849D01*
X4022Y8293D01*
X4994Y8006D02*
X5097Y7903D01*
X4994Y8006D02*
Y8217D01*
X5346Y7903D02*
X5467Y8024D01*
Y8057D01*
X4826Y8385D02*
Y8807D01*
X4055Y9578D02*
X4826Y8807D01*
Y8385D02*
X4994Y8217D01*
X5467Y8057D02*
X5707Y8297D01*
X5886D01*
X5653Y8413D02*
X5743D01*
X5630Y8390D02*
X5653Y8413D01*
X5380Y8390D02*
X5630D01*
D85*
X1526Y15598D02*
X2082D01*
X1526D02*
X1780Y15853D01*
Y16090D01*
X7884Y18570D02*
X7900Y18586D01*
X6200Y18570D02*
X7884D01*
X10232Y15197D02*
Y15976D01*
Y15197D02*
X10520Y14909D01*
Y14560D02*
Y14909D01*
X10232Y15976D02*
X10668Y16411D01*
X10706Y17210D02*
X10790Y17294D01*
Y17923D01*
X10668Y17172D02*
X10706Y17210D01*
X10668Y16411D02*
Y17172D01*
X10714Y17998D02*
X10790Y17923D01*
X541Y15598D02*
X1020Y15120D01*
X2000D01*
X3864Y16390D02*
Y16864D01*
X5570Y18570D01*
X6200D01*
X2470Y15210D02*
X3090D01*
X3270Y15390D01*
X3490Y14760D02*
X3839Y14411D01*
X3863D01*
X2360Y14760D02*
X3490D01*
X2000Y15120D02*
X2360Y14760D01*
X1065Y16059D02*
X1199D01*
X541Y16583D02*
X1065Y16059D01*
X2082Y15598D02*
X2470Y15210D01*
X3624Y16390D02*
X3864D01*
X3270Y15390D02*
Y16036D01*
X3624Y16390D01*
D86*
X16667Y4203D02*
Y5891D01*
X17273Y3597D02*
X17466D01*
X16667Y4203D02*
X17273Y3597D01*
X11430Y10885D02*
X11730Y10584D01*
X11430Y10885D02*
Y11300D01*
X11730Y10443D02*
Y10584D01*
X17466Y3283D02*
X17623Y3440D01*
Y3597D01*
X10230Y1200D02*
X11440Y2410D01*
X5871Y1200D02*
X10230D01*
X10169Y1348D02*
X11292Y2471D01*
X5932Y1348D02*
X10169D01*
X11263Y6168D02*
Y6467D01*
X11240Y6490D02*
X11263Y6467D01*
X11411Y6221D02*
X11490Y6300D01*
X11411Y6106D02*
Y6221D01*
X5022Y2049D02*
X5871Y1200D01*
X5170Y2110D02*
X5932Y1348D01*
X5170Y2110D02*
Y4780D01*
X5022Y2049D02*
Y4708D01*
X4921Y5029D02*
X5170Y4780D01*
X4528Y5202D02*
X5022Y4708D01*
X4528Y5202D02*
Y5433D01*
X4921Y5029D02*
Y5433D01*
X10158Y2036D02*
Y2247D01*
X10033Y2477D02*
Y2656D01*
X10158Y2247D02*
Y2352D01*
X10033Y2477D02*
X10158Y2352D01*
X9650Y2932D02*
X9856D01*
X11249Y6154D02*
X11263Y6168D01*
X11397Y6093D02*
X11411Y6106D01*
X10158Y2036D02*
X10170Y2024D01*
X11440Y2410D02*
Y5855D01*
X11292Y2471D02*
Y5794D01*
X16667Y5891D02*
X16759Y5983D01*
X17351D01*
X17482Y5852D01*
X6729Y2899D02*
X6797Y2830D01*
X6729Y2899D02*
Y3198D01*
X6571Y2969D02*
Y3198D01*
Y2969D02*
X6797Y2743D01*
Y2740D02*
Y2743D01*
X11730Y9166D02*
Y9478D01*
Y9166D02*
X11797Y9100D01*
X11888Y9191D02*
Y9478D01*
X11797Y9100D02*
X11888Y9191D01*
X13698Y9616D02*
X13876D01*
X13571Y9489D02*
X13698Y9616D01*
X13571Y9440D02*
Y9489D01*
X11397Y5898D02*
X11440Y5855D01*
X11397Y5898D02*
Y6093D01*
X11249Y5836D02*
Y6154D01*
Y5836D02*
X11292Y5794D01*
D87*
X7900Y19180D02*
X8210Y19490D01*
X7900Y18586D02*
Y19180D01*
X8210Y19490D02*
X10380D01*
X18386Y12920D02*
X18997D01*
X17807Y13500D02*
X18386Y12920D01*
X13885Y13565D02*
X14200Y13251D01*
X13885Y13565D02*
Y13897D01*
X10380Y19490D02*
X10714Y19156D01*
X17413Y13133D02*
Y13500D01*
X17240Y12960D02*
X17340Y13060D01*
X17413Y13133D01*
X16022Y12960D02*
X17240D01*
X19246Y12594D02*
X19250Y12598D01*
X18997Y12920D02*
X19319Y12598D01*
X14815Y11825D02*
X18469D01*
X14571Y12069D02*
X14815Y11825D01*
X18469D02*
X19242Y12598D01*
X13810D02*
X15660D01*
X16022Y12960D01*
D88*
X3705Y7543D02*
Y7775D01*
X4168Y8238D02*
Y8330D01*
X12722Y12890D02*
X12742Y12870D01*
Y12730D02*
X12752Y12720D01*
X4091Y5957D02*
X4501Y6367D01*
X4680Y6367D02*
X5091Y5957D01*
X3940Y7640D02*
X4000Y7700D01*
X4168D01*
X4680D02*
X4680Y7700D01*
X3705Y7543D02*
X3881Y7367D01*
X4263D01*
X2854Y7193D02*
X3091Y6957D01*
X2854Y7193D02*
Y8106D01*
X1705Y7543D02*
Y7775D01*
X2501Y6367D02*
Y7129D01*
X2680Y6367D02*
Y7700D01*
X2680D02*
X2680Y7700D01*
X2680Y8280D02*
X2854Y8106D01*
X2168Y8238D02*
Y8330D01*
X1705Y7775D02*
X2168Y8238D01*
X2000Y7700D02*
X2168D01*
X1940Y7640D02*
X2000Y7700D01*
X2680Y8280D02*
Y8330D01*
X2680Y6367D02*
X3091Y5957D01*
X2091Y5957D02*
X2501Y6367D01*
X2263Y7367D02*
X2501Y7129D01*
X1705Y7543D02*
X1881Y7367D01*
X2263D01*
X3705Y7775D02*
X4168Y8238D01*
X4501Y6367D02*
Y7129D01*
X4263Y7367D02*
X4501Y7129D01*
X4680Y6367D02*
Y7700D01*
X4680Y8330D02*
X4852Y8158D01*
Y7195D02*
Y8158D01*
Y7195D02*
X5091Y6957D01*
D90*
X14852Y10872D02*
Y11033D01*
X14091Y11199D02*
X14140Y11150D01*
X13827Y11199D02*
X14091D01*
X14190Y10680D02*
X14235Y10725D01*
X14705D02*
X14852Y10872D01*
X14235Y10725D02*
X14705D01*
D91*
X12740Y12730D02*
Y12870D01*
X13275Y14347D02*
X13440D01*
X13520Y14267D01*
Y14124D02*
Y14267D01*
X13691Y13953D02*
X13885D01*
X13520Y14124D02*
X13691Y13953D01*
X14200Y13251D02*
X14259Y13310D01*
X16600D01*
D92*
X13105Y12533D02*
Y12533D01*
X12495Y12927D02*
X12685D01*
X12722Y12890D01*
X12752Y12700D02*
Y12720D01*
Y12700D02*
X12919Y12533D01*
X13105D01*
X12847Y13717D02*
Y13960D01*
X13628Y12598D02*
X13810D01*
X13105Y12533D02*
X13563D01*
X13628Y12598D01*
D93*
X1526Y16583D02*
Y17266D01*
X2262Y18002D01*
Y18402D01*
X2500Y18640D01*
X3300Y17746D02*
Y18460D01*
Y17746D02*
X3428Y17618D01*
X3888D01*
X3120Y18640D02*
X3300Y18460D01*
X2500Y18640D02*
X3120D01*
D98*
X11417Y15748D02*
D03*
X2756Y11417D02*
D03*
X7087Y15748D02*
D03*
X2756D02*
D03*
D99*
X11417Y16535D02*
D03*
Y17323D02*
D03*
Y18110D02*
D03*
X2756Y12205D02*
D03*
Y12992D02*
D03*
Y13780D02*
D03*
X7087Y16535D02*
D03*
Y17323D02*
D03*
Y18110D02*
D03*
X2756Y16535D02*
D03*
Y17323D02*
D03*
Y18110D02*
D03*
D100*
X974Y16937D02*
D03*
Y14260D02*
D03*
D101*
X937Y5073D02*
D03*
Y3573D02*
D03*
D102*
X571Y11260D02*
D03*
Y8661D02*
D03*
D103*
X5800Y11600D02*
D03*
X8300Y12600D02*
D03*
X8300Y13600D02*
D03*
X10091Y6957D02*
D03*
D104*
X19272Y6509D02*
D03*
D105*
X4154Y14764D02*
D03*
X5980Y13600D02*
D03*
X6245Y15060D02*
D03*
X6320Y14270D02*
D03*
X6530Y13600D02*
D03*
X5620Y12350D02*
D03*
X5900Y12470D02*
D03*
X1400Y13970D02*
D03*
X3440Y14290D02*
D03*
X1780Y16090D02*
D03*
X5430Y14210D02*
D03*
X6770Y12840D02*
D03*
X7160Y13100D02*
D03*
X7328Y11790D02*
D03*
X5340Y12230D02*
D03*
X10390Y12420D02*
D03*
X10580Y11950D02*
D03*
X9920D02*
D03*
X10205Y14331D02*
D03*
X9379Y11555D02*
D03*
X7550Y17800D02*
D03*
X14390Y7220D02*
D03*
X17130Y4570D02*
D03*
X19230Y4610D02*
D03*
X18620Y4430D02*
D03*
X3930Y10350D02*
D03*
X11100Y10670D02*
D03*
X11430Y11300D02*
D03*
X18380Y5500D02*
D03*
X19710Y4920D02*
D03*
X18320Y3770D02*
D03*
X18290Y4600D02*
D03*
X10690Y14140D02*
D03*
X9330Y14160D02*
D03*
X8110Y14590D02*
D03*
X7780Y15240D02*
D03*
X7960Y11930D02*
D03*
X10157Y14646D02*
D03*
X7677Y11811D02*
D03*
X5360Y8410D02*
D03*
X5180Y8650D02*
D03*
X5590Y8610D02*
D03*
X6310Y11650D02*
D03*
X6400Y11210D02*
D03*
X11240Y6490D02*
D03*
X4469Y2459D02*
D03*
X5802Y2072D02*
D03*
X10520Y14560D02*
D03*
X10340Y16790D02*
D03*
X11090Y16820D02*
D03*
X9560Y16720D02*
D03*
X9340Y17080D02*
D03*
X9950Y16790D02*
D03*
X10350Y17610D02*
D03*
X12580Y19220D02*
D03*
X12290Y17070D02*
D03*
X11970Y19380D02*
D03*
X13730Y14940D02*
D03*
X12222Y16020D02*
D03*
X12010Y13380D02*
D03*
X1830Y2770D02*
D03*
X3150Y2990D02*
D03*
X2283Y2953D02*
D03*
X3813Y3268D02*
D03*
X3780Y3823D02*
D03*
X11720Y14150D02*
D03*
X11390Y13900D02*
D03*
X8890Y18353D02*
D03*
X8468Y4017D02*
D03*
Y3387D02*
D03*
X8468Y3702D02*
D03*
X14685Y9006D02*
D03*
Y9341D02*
D03*
X6993Y10497D02*
D03*
Y10063D02*
D03*
X7427Y10497D02*
D03*
Y10063D02*
D03*
X17500Y14000D02*
D03*
X14430Y15870D02*
D03*
X14231Y16441D02*
D03*
X13930Y17120D02*
D03*
X13920Y17430D02*
D03*
X13910Y18040D02*
D03*
X13860Y17740D02*
D03*
X15180Y16220D02*
D03*
X12560Y16030D02*
D03*
X14180Y18530D02*
D03*
X12690Y19530D02*
D03*
X11670Y330D02*
D03*
X8790Y310D02*
D03*
X9190Y1700D02*
D03*
X10060Y1710D02*
D03*
X9180Y730D02*
D03*
X5400Y3830D02*
D03*
X5490Y2420D02*
D03*
X4680Y3490D02*
D03*
X4650Y1590D02*
D03*
X3350Y1610D02*
D03*
X2810Y410D02*
D03*
X7047Y827D02*
D03*
X6010Y1780D02*
D03*
X7120Y2540D02*
D03*
X7150Y1650D02*
D03*
X19646Y13375D02*
D03*
X11290Y1930D02*
D03*
X11520Y2130D02*
D03*
X7740Y4420D02*
D03*
X9120D02*
D03*
X9740Y3970D02*
D03*
X7620Y3110D02*
D03*
X10460Y2360D02*
D03*
X9060Y2340D02*
D03*
X9780Y2560D02*
D03*
X5980Y10490D02*
D03*
X8000Y8700D02*
D03*
X8520Y6470D02*
D03*
X7598Y5846D02*
D03*
X8170Y1670D02*
D03*
X3650Y2800D02*
D03*
X1750Y430D02*
D03*
X410Y1500D02*
D03*
X500Y500D02*
D03*
X400Y3500D02*
D03*
X410Y7550D02*
D03*
X4900Y13350D02*
D03*
X4330Y11890D02*
D03*
X3900Y11360D02*
D03*
X4850Y12100D02*
D03*
X2130Y17290D02*
D03*
X3320Y13760D02*
D03*
X5540Y14610D02*
D03*
X6670Y14260D02*
D03*
X6010Y16864D02*
D03*
X6700Y15210D02*
D03*
X6800Y14600D02*
D03*
X5720Y18030D02*
D03*
X6520Y16600D02*
D03*
X14230Y15590D02*
D03*
X16620Y13970D02*
D03*
X19640Y14550D02*
D03*
X16590Y12570D02*
D03*
X18450Y12560D02*
D03*
X18240Y11350D02*
D03*
X18250Y9500D02*
D03*
X17380Y7240D02*
D03*
X19500Y11500D02*
D03*
Y10500D02*
D03*
Y9500D02*
D03*
X18250Y10500D02*
D03*
X13330Y8920D02*
D03*
X17970Y8280D02*
D03*
X16631Y6560D02*
D03*
X17050Y2060D02*
D03*
X17160Y2840D02*
D03*
X16040Y2290D02*
D03*
X18260Y2860D02*
D03*
X19520Y2840D02*
D03*
X13500Y1100D02*
D03*
Y300D02*
D03*
X15000D02*
D03*
X16000D02*
D03*
X15000Y1100D02*
D03*
X16000D02*
D03*
X16780Y1410D02*
D03*
X10310Y450D02*
D03*
X3990Y6470D02*
D03*
X3270D02*
D03*
X3400Y7880D02*
D03*
X730Y13730D02*
D03*
Y11800D02*
D03*
X1030Y8170D02*
D03*
X1100Y10700D02*
D03*
X580Y18120D02*
D03*
X550Y17120D02*
D03*
X540Y19420D02*
D03*
X6260Y19430D02*
D03*
X10670Y18480D02*
D03*
X8690Y15780D02*
D03*
X10660Y10590D02*
D03*
X7090Y8750D02*
D03*
X9310Y14770D02*
D03*
X3860Y9220D02*
D03*
X3410Y8440D02*
D03*
X2631Y3860D02*
D03*
X2611Y4320D02*
D03*
X2622Y5310D02*
D03*
X2640Y10180D02*
D03*
X2940Y9850D02*
D03*
X2850Y9030D02*
D03*
X3190Y8960D02*
D03*
X9250Y17820D02*
D03*
X9640Y18360D02*
D03*
X9630Y17670D02*
D03*
X17870Y6270D02*
D03*
X17900Y6720D02*
D03*
X15590Y8230D02*
D03*
X16890Y5760D02*
D03*
X15320Y7210D02*
D03*
X14290Y8590D02*
D03*
X15560Y8540D02*
D03*
X14790Y6640D02*
D03*
X15990Y9000D02*
D03*
X16040Y7540D02*
D03*
X16460Y7970D02*
D03*
X8700Y7680D02*
D03*
X9710Y13420D02*
D03*
X10220Y13060D02*
D03*
X14670Y9740D02*
D03*
X13900Y9960D02*
D03*
X14320Y9890D02*
D03*
X9100Y13050D02*
D03*
X8940Y12408D02*
D03*
X8260Y11300D02*
D03*
X8780Y11580D02*
D03*
X8480Y11520D02*
D03*
X9360Y10800D02*
D03*
X8420Y8640D02*
D03*
X9080Y11580D02*
D03*
X5560Y10460D02*
D03*
X7880Y8980D02*
D03*
X7850Y9280D02*
D03*
X6990Y7990D02*
D03*
X6780Y8840D02*
D03*
X8430Y10840D02*
D03*
X8560Y9800D02*
D03*
X9440Y8560D02*
D03*
X8840Y8750D02*
D03*
X9200Y8740D02*
D03*
X9700Y8710D02*
D03*
X10670Y9060D02*
D03*
X9210Y9310D02*
D03*
X13410Y9810D02*
D03*
X13430Y10110D02*
D03*
X12450Y9870D02*
D03*
X10970Y7710D02*
D03*
X11250Y7590D02*
D03*
X12580Y10290D02*
D03*
X13090Y6710D02*
D03*
X11620Y5990D02*
D03*
X11800Y5740D02*
D03*
X14340Y13750D02*
D03*
X13100Y12170D02*
D03*
X18400Y13970D02*
D03*
X16140Y13700D02*
D03*
X3940Y7640D02*
D03*
X4574Y8020D02*
D03*
X3110Y7470D02*
D03*
X2424Y8010D02*
D03*
X1940Y7640D02*
D03*
X11730Y2730D02*
D03*
X11820Y9790D02*
D03*
Y10110D02*
D03*
X11040Y9670D02*
D03*
X17710Y3900D02*
D03*
X19190Y5750D02*
D03*
X18753Y5753D02*
D03*
X18453Y7266D02*
D03*
X18753Y7267D02*
D03*
X14481Y4921D02*
D03*
X13100Y2200D02*
D03*
X15811Y6721D02*
D03*
X13901Y2001D02*
D03*
X13571D02*
D03*
X13721Y7211D02*
D03*
X14338Y6689D02*
D03*
X15811Y4941D02*
D03*
X15231Y3171D02*
D03*
X15231Y2891D02*
D03*
X15301Y2501D02*
D03*
X14171Y1491D02*
D03*
X12300Y2200D02*
D03*
X16381Y6151D02*
D03*
X14451Y5821D02*
D03*
X19500Y7500D02*
D03*
Y8500D02*
D03*
X17972Y7679D02*
D03*
X11490Y6320D02*
D03*
X4530Y15600D02*
D03*
X4540Y15200D02*
D03*
X3540Y15150D02*
D03*
X3620Y15610D02*
D03*
X4130Y16040D02*
D03*
X4840Y13930D02*
D03*
X4420Y14040D02*
D03*
X5540Y14980D02*
D03*
X5550Y15350D02*
D03*
X5530Y15720D02*
D03*
X2910Y18670D02*
D03*
X5540Y16060D02*
D03*
X6200Y18570D02*
D03*
X3750Y18710D02*
D03*
X4410Y17960D02*
D03*
X4810Y19470D02*
D03*
X4750Y18610D02*
D03*
X4800Y16420D02*
D03*
X4350Y16792D02*
D03*
X8100Y17730D02*
D03*
X7720Y16910D02*
D03*
X3490Y14760D02*
D03*
X2220Y10160D02*
D03*
X6870Y12380D02*
D03*
X7460Y8710D02*
D03*
X5930Y9230D02*
D03*
X1199Y16059D02*
D03*
X10560Y10900D02*
D03*
X9860Y10890D02*
D03*
X11190Y9230D02*
D03*
X4370Y4740D02*
D03*
X4690Y4680D02*
D03*
X10390Y890D02*
D03*
X10950Y3130D02*
D03*
X10840Y2580D02*
D03*
X10590Y2090D02*
D03*
X1480Y7240D02*
D03*
X6060Y2850D02*
D03*
X7140Y2930D02*
D03*
X6644Y3770D02*
D03*
X6510Y4540D02*
D03*
X6166Y2350D02*
D03*
X6809Y4537D02*
D03*
X9777Y3356D02*
D03*
X6000Y4660D02*
D03*
X8540Y5790D02*
D03*
X10370Y18940D02*
D03*
X17340Y13060D02*
D03*
X16600Y13310D02*
D03*
X13310Y15580D02*
D03*
X10630Y15730D02*
D03*
X12730Y12370D02*
D03*
X12370Y11210D02*
D03*
X14140Y11150D02*
D03*
X14190Y10680D02*
D03*
X17340Y9840D02*
D03*
X15540Y10150D02*
D03*
X15780Y9530D02*
D03*
X12430Y13300D02*
D03*
X17300Y11440D02*
D03*
X11120Y16210D02*
D03*
X7190Y18970D02*
D03*
X9650Y15740D02*
D03*
X10370Y13870D02*
D03*
X11130Y17720D02*
D03*
X11040Y5740D02*
D03*
Y6260D02*
D03*
X9440Y4190D02*
D03*
X9470Y3360D02*
D03*
X9480Y3800D02*
D03*
X7490Y6360D02*
D03*
X6590Y7630D02*
D03*
X6010Y7870D02*
D03*
X5800Y8090D02*
D03*
X19114Y14970D02*
D03*
X15525Y9790D02*
D03*
X15580Y13560D02*
D03*
X3820Y5210D02*
D03*
X3490Y16950D02*
D03*
X6960Y19560D02*
D03*
X8660Y2750D02*
D03*
X7500Y14990D02*
D03*
X7470Y12130D02*
D03*
X7610Y14650D02*
D03*
X9880Y14140D02*
D03*
X12620Y11590D02*
D03*
X12640Y11970D02*
D03*
X11920Y18250D02*
D03*
X12480Y18120D02*
D03*
X14280Y3420D02*
D03*
X15270Y3610D02*
D03*
Y4030D02*
D03*
X16000D02*
D03*
X16420Y3540D02*
D03*
X4530Y8790D02*
D03*
X10950Y19410D02*
D03*
X18590Y13420D02*
D03*
X17240Y8400D02*
D03*
X17860Y5480D02*
D03*
X17610Y4950D02*
D03*
X14000Y1100D02*
D03*
X14500D02*
D03*
X15500D02*
D03*
X16500D02*
D03*
X17100D02*
D03*
X17000Y300D02*
D03*
X16500D02*
D03*
X15500D02*
D03*
X14500D02*
D03*
X14000D02*
D03*
X12300Y1700D02*
D03*
X13100D02*
D03*
X13170Y1290D02*
D03*
X12580Y750D02*
D03*
X12985Y428D02*
D03*
X12340Y1200D02*
D03*
X5950Y3160D02*
D03*
X8230Y2840D02*
D03*
X5650Y3370D02*
D03*
X6000Y3820D02*
D03*
X7410Y4070D02*
D03*
X7340Y3600D02*
D03*
X12970Y8090D02*
D03*
X12450Y7010D02*
D03*
X12170Y7120D02*
D03*
X16340Y7540D02*
D03*
X11890Y7240D02*
D03*
X11420Y8700D02*
D03*
X11490Y9100D02*
D03*
X10170Y8490D02*
D03*
X10760Y8730D02*
D03*
X14120Y19620D02*
D03*
X9380Y6340D02*
D03*
X8610Y7050D02*
D03*
X13770Y8260D02*
D03*
X8220Y7790D02*
D03*
X3660Y8120D02*
D03*
X3810Y8380D02*
D03*
X3840Y8700D02*
D03*
X7320Y7560D02*
D03*
X7440Y7280D02*
D03*
X8310Y10300D02*
D03*
X11600Y7350D02*
D03*
X9610D02*
D03*
X13890Y14610D02*
D03*
X5260Y8120D02*
D03*
D106*
X12182Y3882D02*
D03*
Y4354D02*
D03*
Y4827D02*
D03*
Y5299D02*
D03*
X12654Y3882D02*
D03*
Y4354D02*
D03*
Y4827D02*
D03*
Y5299D02*
D03*
X13127Y3882D02*
D03*
Y4354D02*
D03*
Y4827D02*
D03*
Y5299D02*
D03*
X13599Y3882D02*
D03*
Y4354D02*
D03*
Y4827D02*
D03*
Y5299D02*
D03*
D107*
X5413Y16988D02*
D03*
Y19035D02*
D03*
D108*
X3888Y18012D02*
D03*
Y18406D02*
D03*
Y17618D02*
D03*
D109*
X11270Y19477D02*
D03*
Y19083D02*
D03*
X3390Y11557D02*
D03*
Y11163D02*
D03*
Y11923D02*
D03*
Y12317D02*
D03*
X4100Y13987D02*
D03*
Y13593D02*
D03*
X3730Y13593D02*
D03*
Y13987D02*
D03*
X5941Y9544D02*
D03*
Y9938D02*
D03*
X11940Y17433D02*
D03*
Y17827D02*
D03*
X14770Y19173D02*
D03*
Y19567D02*
D03*
X11890Y16727D02*
D03*
Y16333D02*
D03*
X12270Y16333D02*
D03*
Y16727D02*
D03*
D110*
X12265Y19427D02*
D03*
Y19230D02*
D03*
Y19033D02*
D03*
X11655D02*
D03*
Y19230D02*
D03*
Y19427D02*
D03*
X13105Y12927D02*
D03*
Y12730D02*
D03*
Y12533D02*
D03*
X12495D02*
D03*
Y12730D02*
D03*
Y12927D02*
D03*
X13885Y14347D02*
D03*
Y14150D02*
D03*
Y13953D02*
D03*
X13275D02*
D03*
Y14150D02*
D03*
Y14347D02*
D03*
D111*
X2680Y7700D02*
D03*
X2424D02*
D03*
X2168D02*
D03*
Y8330D02*
D03*
X2424D02*
D03*
X2680D02*
D03*
X4680Y7700D02*
D03*
X4424D02*
D03*
X4168D02*
D03*
Y8330D02*
D03*
X4424D02*
D03*
X4680D02*
D03*
X13150Y19520D02*
D03*
X13406D02*
D03*
X13662D02*
D03*
Y18890D02*
D03*
X13406D02*
D03*
X13150D02*
D03*
D112*
X8814Y16362D02*
D03*
X8066D02*
D03*
Y15299D02*
D03*
X8440D02*
D03*
X8814D02*
D03*
X10714Y19061D02*
D03*
X9966D02*
D03*
Y17998D02*
D03*
X10340D02*
D03*
X10714D02*
D03*
D113*
X8486Y18293D02*
D03*
X9294D02*
D03*
Y18510D02*
D03*
Y18727D02*
D03*
X8486Y18510D02*
D03*
Y18727D02*
D03*
D114*
X8890Y19012D02*
D03*
Y18008D02*
D03*
D115*
Y18510D02*
D03*
D116*
X3863Y15784D02*
D03*
X4080D02*
D03*
X4297D02*
D03*
Y15016D02*
D03*
X4080D02*
D03*
X3863D02*
D03*
D117*
X4080Y15400D02*
D03*
D118*
X17377Y3843D02*
D03*
Y4000D02*
D03*
Y4158D02*
D03*
Y4315D02*
D03*
X18027D02*
D03*
Y4158D02*
D03*
Y4000D02*
D03*
Y3843D02*
D03*
X6325Y3444D02*
D03*
Y3601D02*
D03*
Y3759D02*
D03*
Y3916D02*
D03*
X6975D02*
D03*
Y3759D02*
D03*
Y3601D02*
D03*
Y3444D02*
D03*
X11484Y9724D02*
D03*
Y9882D02*
D03*
Y10039D02*
D03*
Y10197D02*
D03*
X12134D02*
D03*
Y10039D02*
D03*
Y9882D02*
D03*
Y9724D02*
D03*
D119*
X17466Y4561D02*
D03*
X17623D02*
D03*
X17781D02*
D03*
X17938D02*
D03*
Y3597D02*
D03*
X17781D02*
D03*
X17623D02*
D03*
X17466D02*
D03*
X6414Y4162D02*
D03*
X6571D02*
D03*
X6729D02*
D03*
X6886D02*
D03*
Y3198D02*
D03*
X6729D02*
D03*
X6571D02*
D03*
X6414D02*
D03*
X11573Y10443D02*
D03*
X11730D02*
D03*
X11888D02*
D03*
X12045D02*
D03*
Y9478D02*
D03*
X11888D02*
D03*
X11730D02*
D03*
X11573D02*
D03*
D120*
X8468Y3702D02*
D03*
D121*
X7976Y4175D02*
D03*
Y3939D02*
D03*
Y3702D02*
D03*
Y3466D02*
D03*
Y3230D02*
D03*
X8960D02*
D03*
Y3466D02*
D03*
Y3702D02*
D03*
Y3939D02*
D03*
Y4175D02*
D03*
D122*
X14262Y8878D02*
D03*
Y9075D02*
D03*
Y9272D02*
D03*
Y9469D02*
D03*
X15108Y8878D02*
D03*
Y9075D02*
D03*
Y9272D02*
D03*
Y9469D02*
D03*
D123*
X14685Y9173D02*
D03*
D124*
X11460Y696D02*
D03*
Y1424D02*
D03*
D125*
X11824Y863D02*
D03*
Y1257D02*
D03*
X11096D02*
D03*
Y863D02*
D03*
D126*
X10033Y2656D02*
D03*
X10230D02*
D03*
X10427D02*
D03*
Y3404D02*
D03*
X10230D02*
D03*
X10033D02*
D03*
X4331Y5433D02*
D03*
X5118D02*
D03*
X4921D02*
D03*
X4724D02*
D03*
X4528D02*
D03*
D127*
X10604Y2932D02*
D03*
Y3128D02*
D03*
X9856D02*
D03*
Y2932D02*
D03*
D128*
X9327Y13522D02*
D03*
Y13326D02*
D03*
X10094D02*
D03*
Y13522D02*
D03*
D129*
X9415Y13040D02*
D03*
X9612D02*
D03*
X9809D02*
D03*
X10006D02*
D03*
Y13808D02*
D03*
X9612D02*
D03*
X9415D02*
D03*
X9809D02*
D03*
D130*
X9567Y9350D02*
D03*
X9724D02*
D03*
X9882D02*
D03*
X10039D02*
D03*
X10197D02*
D03*
X10354D02*
D03*
Y10571D02*
D03*
X10197D02*
D03*
X10039D02*
D03*
X9882D02*
D03*
X9724D02*
D03*
X9567D02*
D03*
D131*
X10571Y9567D02*
D03*
Y9724D02*
D03*
Y9882D02*
D03*
Y10039D02*
D03*
Y10197D02*
D03*
Y10354D02*
D03*
X9350D02*
D03*
Y10197D02*
D03*
Y10039D02*
D03*
Y9882D02*
D03*
Y9724D02*
D03*
Y9567D02*
D03*
D132*
X6738Y11038D02*
D03*
X6895D02*
D03*
X7053D02*
D03*
X7210D02*
D03*
X7367D02*
D03*
X7525D02*
D03*
X7682D02*
D03*
Y9522D02*
D03*
X7525D02*
D03*
X7367D02*
D03*
X7210D02*
D03*
X7053D02*
D03*
X6895D02*
D03*
X6738D02*
D03*
D133*
X7968Y10752D02*
D03*
Y10595D02*
D03*
Y10437D02*
D03*
Y10280D02*
D03*
Y10123D02*
D03*
Y9965D02*
D03*
Y9808D02*
D03*
X6452D02*
D03*
Y9965D02*
D03*
Y10123D02*
D03*
Y10280D02*
D03*
Y10437D02*
D03*
Y10595D02*
D03*
Y10752D02*
D03*
D134*
X7210Y10280D02*
D03*
D135*
X423Y16583D02*
D03*
Y14614D02*
D03*
Y15598D02*
D03*
X1526D02*
D03*
Y14614D02*
D03*
Y16583D02*
D03*
D136*
X19242Y12598D02*
D03*
X15722D02*
D03*
D137*
X11283Y13280D02*
D03*
X11677D02*
D03*
X12453Y13930D02*
D03*
X12847D02*
D03*
X5143Y10140D02*
D03*
X5537D02*
D03*
X5133Y9680D02*
D03*
X5527D02*
D03*
X5237Y14610D02*
D03*
X4843D02*
D03*
X5237Y15330D02*
D03*
X4843D02*
D03*
X5237Y14970D02*
D03*
X4843D02*
D03*
X5227Y15700D02*
D03*
X4833D02*
D03*
X4833Y16060D02*
D03*
X5227D02*
D03*
X13827Y10459D02*
D03*
X13433D02*
D03*
X13827Y10829D02*
D03*
X13433D02*
D03*
X13827Y11199D02*
D03*
X13433D02*
D03*
X13547Y16750D02*
D03*
X13153D02*
D03*
X13547Y18500D02*
D03*
X13153D02*
D03*
X13547Y17800D02*
D03*
X13153D02*
D03*
X13547Y17100D02*
D03*
X13153D02*
D03*
X13547Y18150D02*
D03*
X13153D02*
D03*
X13547Y17450D02*
D03*
X13153D02*
D03*
X11363Y15090D02*
D03*
X11757D02*
D03*
X11363Y14730D02*
D03*
X11757D02*
D03*
D138*
X13630Y16190D02*
D03*
Y15934D02*
D03*
Y15678D02*
D03*
X13000D02*
D03*
Y15934D02*
D03*
Y16190D02*
D03*
D139*
X2037Y5323D02*
D03*
Y4323D02*
D03*
Y3823D02*
D03*
Y3323D02*
D03*
X3238Y5323D02*
D03*
Y4823D02*
D03*
Y4323D02*
D03*
Y3823D02*
D03*
Y3323D02*
D03*
X2037Y4823D02*
D03*
D140*
X18671Y14685D02*
D03*
X16348D02*
D03*
D141*
X17510Y14567D02*
D03*
X18219D02*
D03*
X17864D02*
D03*
X17156D02*
D03*
X16801D02*
D03*
D142*
X14682Y16291D02*
D03*
Y18613D02*
D03*
D143*
X14564Y17452D02*
D03*
Y16743D02*
D03*
Y17098D02*
D03*
Y17806D02*
D03*
Y18161D02*
D03*
D144*
X14852Y10463D02*
D03*
Y11033D02*
D03*
X14518D02*
D03*
Y10463D02*
D03*
D145*
X14200Y12069D02*
D03*
Y13251D02*
D03*
D146*
X5472Y4528D02*
D03*
X3976D02*
D03*
D147*
X1624Y9961D02*
D03*
Y9705D02*
D03*
Y9449D02*
D03*
Y10217D02*
D03*
Y10472D02*
D03*
D148*
X571Y9488D02*
D03*
Y10433D02*
D03*
D149*
X1535Y11220D02*
D03*
Y8701D02*
D03*
D150*
X11796Y12890D02*
D03*
X11244D02*
D03*
X12514Y14760D02*
D03*
X13066D02*
D03*
D151*
X2402Y19291D02*
D03*
X19173Y13937D02*
D03*
X787Y2559D02*
D03*
X9646Y1500D02*
D03*
Y1040D02*
D03*
D152*
X2573Y13386D02*
X2940D01*
D153*
X7930Y18586D02*
X8100D01*
X8264Y18750D02*
X8500D01*
X8100Y18586D02*
X8264Y18750D01*
D154*
X12186Y13676D02*
X13009D01*
X12010Y13500D02*
X12186Y13676D01*
X12010Y13380D02*
Y13500D01*
X13009Y13676D02*
X13275Y13942D01*
D155*
X8670Y17470D02*
Y17510D01*
D156*
X11583Y5953D02*
X11620Y5990D01*
X11583Y5467D02*
Y5953D01*
Y5467D02*
X11690Y5360D01*
D157*
X9470Y3334D02*
Y3360D01*
X9171Y3034D02*
X9470Y3334D01*
X8580Y3034D02*
X9171D01*
D158*
X8915Y17660D02*
D03*
D159*
X9290Y17810D02*
D03*
D160*
Y18935D02*
D03*
D161*
X8835Y19085D02*
D03*
M02*
