G04*
G04 #@! TF.GenerationSoftware,Altium Limited,Altium Designer,19.0.15 (446)*
G04*
G04 Layer_Color=16711935*
%FSLAX24Y24*%
%MOIN*%
G70*
G01*
G75*
%ADD43C,0.0240*%
%ADD50C,0.0651*%
%ADD51C,0.0139*%
%ADD62R,0.0355X0.0375*%
%ADD63R,0.0296X0.0257*%
%ADD64R,0.0257X0.0296*%
%ADD66R,0.0375X0.0355*%
%ADD68R,0.0560X0.0560*%
%ADD69C,0.0560*%
%ADD70C,0.0414*%
%ADD71C,0.0462*%
%ADD72O,0.0690X0.0414*%
%ADD73R,0.0651X0.0651*%
%ADD74C,0.0178*%
%ADD75C,0.1220*%
%ADD162R,0.0769X0.0532*%
%ADD163R,0.0670X0.0296*%
%ADD164R,0.0277X0.0296*%
%ADD165R,0.0316X0.0198*%
%ADD166R,0.0178X0.0336*%
%ADD167R,0.0296X0.0454*%
%ADD168R,0.0277X0.0198*%
%ADD169R,0.0887X0.0198*%
%ADD170R,0.0493X0.0651*%
%ADD171R,0.0198X0.0237*%
%ADD172R,0.0651X0.0493*%
%ADD173O,0.0305X0.0136*%
%ADD174O,0.0136X0.0305*%
%ADD175R,0.0512X0.0984*%
%ADD176R,0.0394X0.0157*%
%ADD177R,0.0316X0.0158*%
%ADD178R,0.0355X0.0651*%
%ADD179R,0.0237X0.0395*%
%ADD180R,0.0395X0.0237*%
%ADD181R,0.0157X0.0354*%
%ADD182R,0.0354X0.0157*%
%ADD183R,0.0315X0.0158*%
%ADD184R,0.0157X0.0315*%
%ADD185O,0.0139X0.0336*%
%ADD186O,0.0336X0.0139*%
%ADD187O,0.0139X0.0395*%
%ADD188O,0.0395X0.0139*%
%ADD189R,0.1103X0.1103*%
%ADD190R,0.0690X0.0454*%
%ADD191R,0.1241X0.1241*%
%ADD192R,0.0296X0.0277*%
%ADD193R,0.0336X0.0178*%
%ADD194R,0.0859X0.0359*%
%ADD195R,0.0477X0.0682*%
%ADD196R,0.0296X0.0918*%
%ADD197R,0.0682X0.0477*%
%ADD198R,0.0918X0.0296*%
%ADD199R,0.0316X0.0395*%
%ADD200R,0.1477X0.0651*%
%ADD201R,0.0178X0.0375*%
%ADD202R,0.0296X0.1084*%
%ADD203R,0.0592X0.0217*%
%ADD204R,0.0670X0.0808*%
%ADD205R,0.0611X0.0690*%
%ADD206R,0.0217X0.0257*%
%ADD207C,0.0787*%
%ADD208C,0.0454*%
D43*
X9021Y13470D02*
G03*
X9021Y13470I-110J0D01*
G01*
X9009Y14020D02*
G03*
X9009Y14020I-110J0D01*
G01*
X9031D02*
G03*
X9031Y14020I-110J0D01*
G01*
X12141Y12570D02*
G03*
X12141Y12570I-110J0D01*
G01*
X13569Y14760D02*
G03*
X13569Y14760I-110J0D01*
G01*
D50*
X2756Y1378D02*
D03*
X4055Y9843D02*
D03*
X11516Y11850D02*
D03*
X4800Y11600D02*
D03*
X7300Y12600D02*
D03*
X7300Y13600D02*
D03*
X3091Y6957D02*
D03*
Y5957D02*
D03*
X6091D02*
D03*
Y6957D02*
D03*
X8091Y5957D02*
D03*
Y6957D02*
D03*
X9091Y5957D02*
D03*
Y6957D02*
D03*
X10091Y5957D02*
D03*
X7091Y6957D02*
D03*
Y5957D02*
D03*
X5091Y6957D02*
D03*
Y5957D02*
D03*
X4091D02*
D03*
Y6957D02*
D03*
X2091D02*
D03*
Y5957D02*
D03*
X1091D02*
D03*
Y6957D02*
D03*
X19094Y4118D02*
D03*
Y5118D02*
D03*
D51*
X9033Y13470D02*
D03*
X8787D02*
D03*
X8777Y14020D02*
D03*
X9043D02*
D03*
X12153Y12570D02*
D03*
X11907D02*
D03*
X13337Y14760D02*
D03*
X13583D02*
D03*
D62*
X17514Y5820D02*
D03*
X18046D02*
D03*
X10174Y17210D02*
D03*
X10706D02*
D03*
X8114Y16910D02*
D03*
X8646D02*
D03*
X8114Y17380D02*
D03*
X8646D02*
D03*
X4396Y14410D02*
D03*
X3864D02*
D03*
X4396Y16390D02*
D03*
X3864D02*
D03*
X2264Y9440D02*
D03*
X2796D02*
D03*
X18186Y6279D02*
D03*
X18718D02*
D03*
X10135Y12274D02*
D03*
X9604D02*
D03*
D63*
X12447Y14280D02*
D03*
X12053D02*
D03*
X2637Y9860D02*
D03*
X2243D02*
D03*
X17807Y13500D02*
D03*
X17413D02*
D03*
X17805Y3199D02*
D03*
X18199D02*
D03*
X18739Y6679D02*
D03*
X18345D02*
D03*
X6797Y2740D02*
D03*
X6403D02*
D03*
X7721Y2502D02*
D03*
X8115D02*
D03*
X10158Y2247D02*
D03*
X9764D02*
D03*
X9406Y12694D02*
D03*
X9013D02*
D03*
X9783D02*
D03*
X10176D02*
D03*
X10163Y11170D02*
D03*
X10557D02*
D03*
X9597D02*
D03*
X9203D02*
D03*
X7085Y8981D02*
D03*
X7478D02*
D03*
X7328Y11511D02*
D03*
X6935D02*
D03*
D64*
X8807Y1086D02*
D03*
Y693D02*
D03*
Y1866D02*
D03*
Y1473D02*
D03*
X12130Y12077D02*
D03*
Y11683D02*
D03*
X13876Y9223D02*
D03*
Y9616D02*
D03*
X10670Y867D02*
D03*
Y473D02*
D03*
X9391Y2864D02*
D03*
Y2470D02*
D03*
X11800Y9097D02*
D03*
Y8703D02*
D03*
X10935Y10357D02*
D03*
Y9964D02*
D03*
X8581Y10094D02*
D03*
Y10488D02*
D03*
D66*
X7900Y18054D02*
D03*
Y18586D02*
D03*
D68*
X11417Y15748D02*
D03*
X2756Y11417D02*
D03*
X7087Y15748D02*
D03*
X2756D02*
D03*
D69*
X11417Y16535D02*
D03*
Y17323D02*
D03*
Y18110D02*
D03*
X2756Y12205D02*
D03*
Y12992D02*
D03*
Y13780D02*
D03*
X7087Y16535D02*
D03*
Y17323D02*
D03*
Y18110D02*
D03*
X2756Y16535D02*
D03*
Y17323D02*
D03*
Y18110D02*
D03*
D70*
X974Y16937D02*
D03*
Y14260D02*
D03*
D71*
X937Y5073D02*
D03*
Y3573D02*
D03*
D72*
X571Y11260D02*
D03*
Y8661D02*
D03*
D73*
X5800Y11600D02*
D03*
X8300Y12600D02*
D03*
X8300Y13600D02*
D03*
X10091Y6957D02*
D03*
D74*
X19272Y6509D02*
D03*
D75*
X15071Y14685D02*
D03*
X1378Y1378D02*
D03*
Y18543D02*
D03*
D162*
X5413Y16988D02*
D03*
Y19035D02*
D03*
D163*
X3888Y18012D02*
D03*
Y18406D02*
D03*
Y17618D02*
D03*
D164*
X11270Y19477D02*
D03*
Y19083D02*
D03*
X3390Y11557D02*
D03*
Y11163D02*
D03*
Y11923D02*
D03*
Y12317D02*
D03*
X4100Y13987D02*
D03*
Y13593D02*
D03*
X3730Y13593D02*
D03*
Y13987D02*
D03*
X5941Y9544D02*
D03*
Y9938D02*
D03*
X11940Y17433D02*
D03*
Y17827D02*
D03*
X14770Y19173D02*
D03*
Y19567D02*
D03*
X11890Y16727D02*
D03*
Y16333D02*
D03*
X12270Y16333D02*
D03*
Y16727D02*
D03*
D165*
X12265Y19427D02*
D03*
Y19230D02*
D03*
Y19033D02*
D03*
X11655D02*
D03*
Y19230D02*
D03*
Y19427D02*
D03*
X13105Y12927D02*
D03*
Y12730D02*
D03*
Y12533D02*
D03*
X12495D02*
D03*
Y12730D02*
D03*
Y12927D02*
D03*
X13885Y14347D02*
D03*
Y14150D02*
D03*
Y13953D02*
D03*
X13275D02*
D03*
Y14150D02*
D03*
Y14347D02*
D03*
D166*
X2680Y7700D02*
D03*
X2424D02*
D03*
X2168D02*
D03*
Y8330D02*
D03*
X2424D02*
D03*
X2680D02*
D03*
X4680Y7700D02*
D03*
X4424D02*
D03*
X4168D02*
D03*
Y8330D02*
D03*
X4424D02*
D03*
X4680D02*
D03*
X13150Y19520D02*
D03*
X13406D02*
D03*
X13662D02*
D03*
Y18890D02*
D03*
X13406D02*
D03*
X13150D02*
D03*
D167*
X8814Y16362D02*
D03*
X8066D02*
D03*
Y15299D02*
D03*
X8440D02*
D03*
X8814D02*
D03*
X10714Y19061D02*
D03*
X9966D02*
D03*
Y17998D02*
D03*
X10340D02*
D03*
X10714D02*
D03*
D168*
X8486Y18293D02*
D03*
X9294D02*
D03*
Y18510D02*
D03*
Y18727D02*
D03*
X8486Y18510D02*
D03*
Y18727D02*
D03*
D169*
X8890Y19012D02*
D03*
Y18008D02*
D03*
D170*
Y18510D02*
D03*
D171*
X3863Y15784D02*
D03*
X4080D02*
D03*
X4297D02*
D03*
Y15016D02*
D03*
X4080D02*
D03*
X3863D02*
D03*
D172*
X4080Y15400D02*
D03*
D173*
X17377Y3843D02*
D03*
Y4000D02*
D03*
Y4158D02*
D03*
Y4315D02*
D03*
X18027D02*
D03*
Y4158D02*
D03*
Y4000D02*
D03*
Y3843D02*
D03*
X6325Y3444D02*
D03*
Y3601D02*
D03*
Y3759D02*
D03*
Y3916D02*
D03*
X6975D02*
D03*
Y3759D02*
D03*
Y3601D02*
D03*
Y3444D02*
D03*
X11484Y9724D02*
D03*
Y9882D02*
D03*
Y10039D02*
D03*
Y10197D02*
D03*
X12134D02*
D03*
Y10039D02*
D03*
Y9882D02*
D03*
Y9724D02*
D03*
D174*
X17466Y4561D02*
D03*
X17623D02*
D03*
X17781D02*
D03*
X17938D02*
D03*
Y3597D02*
D03*
X17781D02*
D03*
X17623D02*
D03*
X17466D02*
D03*
X6414Y4162D02*
D03*
X6571D02*
D03*
X6729D02*
D03*
X6886D02*
D03*
Y3198D02*
D03*
X6729D02*
D03*
X6571D02*
D03*
X6414D02*
D03*
X11573Y10443D02*
D03*
X11730D02*
D03*
X11888D02*
D03*
X12045D02*
D03*
Y9478D02*
D03*
X11888D02*
D03*
X11730D02*
D03*
X11573D02*
D03*
D175*
X8468Y3702D02*
D03*
D176*
X7976Y4175D02*
D03*
Y3939D02*
D03*
Y3702D02*
D03*
Y3466D02*
D03*
Y3230D02*
D03*
X8960D02*
D03*
Y3466D02*
D03*
Y3702D02*
D03*
Y3939D02*
D03*
Y4175D02*
D03*
D177*
X14262Y8878D02*
D03*
Y9075D02*
D03*
Y9272D02*
D03*
Y9469D02*
D03*
X15108Y8878D02*
D03*
Y9075D02*
D03*
Y9272D02*
D03*
Y9469D02*
D03*
D178*
X14685Y9173D02*
D03*
D179*
X11460Y696D02*
D03*
Y1424D02*
D03*
D180*
X11824Y863D02*
D03*
Y1257D02*
D03*
X11096D02*
D03*
Y863D02*
D03*
D181*
X10033Y2656D02*
D03*
X10230D02*
D03*
X10427D02*
D03*
Y3404D02*
D03*
X10230D02*
D03*
X10033D02*
D03*
D182*
X10604Y2932D02*
D03*
Y3128D02*
D03*
X9856D02*
D03*
Y2932D02*
D03*
D183*
X9327Y13522D02*
D03*
Y13326D02*
D03*
X10094D02*
D03*
Y13522D02*
D03*
D184*
X9415Y13040D02*
D03*
X9612D02*
D03*
X9809D02*
D03*
X10006D02*
D03*
Y13808D02*
D03*
X9612D02*
D03*
X9415D02*
D03*
X9809D02*
D03*
D185*
X9567Y9350D02*
D03*
X9724D02*
D03*
X9882D02*
D03*
X10039D02*
D03*
X10197D02*
D03*
X10354D02*
D03*
Y10571D02*
D03*
X10197D02*
D03*
X10039D02*
D03*
X9882D02*
D03*
X9724D02*
D03*
X9567D02*
D03*
D186*
X10571Y9567D02*
D03*
Y9724D02*
D03*
Y9882D02*
D03*
Y10039D02*
D03*
Y10197D02*
D03*
Y10354D02*
D03*
X9350D02*
D03*
Y10197D02*
D03*
Y10039D02*
D03*
Y9882D02*
D03*
Y9724D02*
D03*
Y9567D02*
D03*
D187*
X6738Y11038D02*
D03*
X6895D02*
D03*
X7053D02*
D03*
X7210D02*
D03*
X7367D02*
D03*
X7525D02*
D03*
X7682D02*
D03*
Y9522D02*
D03*
X7525D02*
D03*
X7367D02*
D03*
X7210D02*
D03*
X7053D02*
D03*
X6895D02*
D03*
X6738D02*
D03*
D188*
X7968Y10752D02*
D03*
Y10595D02*
D03*
Y10437D02*
D03*
Y10280D02*
D03*
Y10123D02*
D03*
Y9965D02*
D03*
Y9808D02*
D03*
X6452D02*
D03*
Y9965D02*
D03*
Y10123D02*
D03*
Y10280D02*
D03*
Y10437D02*
D03*
Y10595D02*
D03*
Y10752D02*
D03*
D189*
X7210Y10280D02*
D03*
D190*
X423Y16583D02*
D03*
Y14614D02*
D03*
Y15598D02*
D03*
X1526D02*
D03*
Y14614D02*
D03*
Y16583D02*
D03*
D191*
X19242Y12598D02*
D03*
X15722D02*
D03*
D192*
X11283Y13280D02*
D03*
X11677D02*
D03*
X12453Y13930D02*
D03*
X12847D02*
D03*
X5143Y10140D02*
D03*
X5537D02*
D03*
X5133Y9680D02*
D03*
X5527D02*
D03*
X5237Y14610D02*
D03*
X4843D02*
D03*
X5237Y15330D02*
D03*
X4843D02*
D03*
X5237Y14970D02*
D03*
X4843D02*
D03*
X5227Y15700D02*
D03*
X4833D02*
D03*
X4833Y16060D02*
D03*
X5227D02*
D03*
X13827Y10459D02*
D03*
X13433D02*
D03*
X13827Y10829D02*
D03*
X13433D02*
D03*
X13827Y11199D02*
D03*
X13433D02*
D03*
X13547Y16750D02*
D03*
X13153D02*
D03*
X13547Y18500D02*
D03*
X13153D02*
D03*
X13547Y17800D02*
D03*
X13153D02*
D03*
X13547Y17100D02*
D03*
X13153D02*
D03*
X13547Y18150D02*
D03*
X13153D02*
D03*
X13547Y17450D02*
D03*
X13153D02*
D03*
X11363Y15090D02*
D03*
X11757D02*
D03*
X11363Y14730D02*
D03*
X11757D02*
D03*
D193*
X13630Y16190D02*
D03*
Y15934D02*
D03*
Y15678D02*
D03*
X13000D02*
D03*
Y15934D02*
D03*
Y16190D02*
D03*
D194*
X2037Y5323D02*
D03*
Y4323D02*
D03*
Y3823D02*
D03*
Y3323D02*
D03*
X3238Y5323D02*
D03*
Y4823D02*
D03*
Y4323D02*
D03*
Y3823D02*
D03*
Y3323D02*
D03*
X2037Y4823D02*
D03*
D195*
X18671Y14685D02*
D03*
X16348D02*
D03*
D196*
X17510Y14567D02*
D03*
X18219D02*
D03*
X17864D02*
D03*
X17156D02*
D03*
X16801D02*
D03*
D197*
X14682Y16291D02*
D03*
Y18613D02*
D03*
D198*
X14564Y17452D02*
D03*
Y16743D02*
D03*
Y17098D02*
D03*
Y17806D02*
D03*
Y18161D02*
D03*
D199*
X14852Y10463D02*
D03*
Y11033D02*
D03*
X14518D02*
D03*
Y10463D02*
D03*
D200*
X14200Y12069D02*
D03*
Y13251D02*
D03*
D201*
X4331Y5433D02*
D03*
X5118D02*
D03*
X4921D02*
D03*
X4724D02*
D03*
X4528D02*
D03*
D202*
X5472Y4528D02*
D03*
X3976D02*
D03*
D203*
X1624Y9961D02*
D03*
Y9705D02*
D03*
Y9449D02*
D03*
Y10217D02*
D03*
Y10472D02*
D03*
D204*
X571Y9488D02*
D03*
Y10433D02*
D03*
D205*
X1535Y11220D02*
D03*
Y8701D02*
D03*
D206*
X11796Y12890D02*
D03*
X11244D02*
D03*
X12514Y14760D02*
D03*
X13066D02*
D03*
D207*
X2402Y19291D02*
D03*
X19173Y13937D02*
D03*
X787Y2559D02*
D03*
D208*
X9646Y1500D02*
D03*
Y1040D02*
D03*
M02*
