G04*
G04 #@! TF.GenerationSoftware,Altium Limited,Altium Designer,23.6.0 (18)*
G04*
G04 Layer_Physical_Order=2*
G04 Layer_Color=2130677*
%FSLAX24Y24*%
%MOIN*%
G70*
G04*
G04 #@! TF.SameCoordinates,7E18E310-DAB5-435A-A8D0-C5F7F634A292*
G04*
G04*
G04 #@! TF.FilePolarity,Positive*
G04*
G01*
G75*
%ADD11C,0.0079*%
%ADD13C,0.0059*%
%ADD17C,0.0049*%
%ADD70C,0.0197*%
%ADD145C,0.0197*%
%ADD146C,0.0118*%
%ADD156C,0.0150*%
%ADD157R,0.0591X0.0591*%
%ADD167C,0.0118*%
G36*
X17008Y20770D02*
X20669D01*
X20689Y20770D01*
X20726Y20754D01*
X20754Y20726D01*
X20770Y20689D01*
X20770Y20669D01*
Y20070D01*
X20758Y20062D01*
X20741Y20047D01*
X20726Y20029D01*
X20713Y20010D01*
X20702Y19989D01*
X20695Y19967D01*
X20690Y19944D01*
X20689Y19921D01*
X20690Y19898D01*
X20695Y19875D01*
X20702Y19853D01*
X20713Y19833D01*
X20726Y19813D01*
X20741Y19796D01*
X20741Y19796D01*
X20746Y19782D01*
Y19745D01*
X20741Y19732D01*
X20741Y19732D01*
X20726Y19714D01*
X20713Y19695D01*
X20702Y19674D01*
X20695Y19652D01*
X20690Y19629D01*
X20689Y19606D01*
X20690Y19583D01*
X20695Y19560D01*
X20702Y19538D01*
X20713Y19518D01*
X20726Y19498D01*
X20741Y19481D01*
X20741Y19481D01*
X20746Y19467D01*
Y19430D01*
X20741Y19417D01*
X20741Y19417D01*
X20726Y19399D01*
X20713Y19380D01*
X20702Y19359D01*
X20695Y19337D01*
X20690Y19314D01*
X20689Y19291D01*
X20690Y19268D01*
X20695Y19245D01*
X20702Y19224D01*
X20713Y19203D01*
X20726Y19183D01*
X20741Y19166D01*
X20741Y19166D01*
X20746Y19152D01*
Y19115D01*
X20741Y19102D01*
X20741Y19102D01*
X20726Y19084D01*
X20713Y19065D01*
X20702Y19044D01*
X20695Y19022D01*
X20690Y19000D01*
X20689Y18976D01*
X20690Y18953D01*
X20695Y18931D01*
X20702Y18909D01*
X20713Y18888D01*
X20726Y18868D01*
X20741Y18851D01*
X20741Y18851D01*
X20746Y18837D01*
Y18801D01*
X20741Y18787D01*
X20741Y18787D01*
X20726Y18769D01*
X20713Y18750D01*
X20702Y18729D01*
X20695Y18707D01*
X20690Y18685D01*
X20689Y18661D01*
X20690Y18638D01*
X20695Y18616D01*
X20702Y18594D01*
X20713Y18573D01*
X20726Y18554D01*
X20741Y18536D01*
X20758Y18521D01*
X20770Y18513D01*
Y12128D01*
X20748Y12087D01*
X20720Y12087D01*
X20600D01*
Y11929D01*
X20400Y11929D01*
X20364Y11964D01*
X20364Y12244D01*
X20187D01*
Y12884D01*
X20187D01*
X20186Y12922D01*
X20185Y12933D01*
X20182Y12960D01*
X20175Y12997D01*
X20166Y13034D01*
X20154Y13070D01*
X20139Y13105D01*
X20122Y13139D01*
X20103Y13171D01*
X20081Y13203D01*
X20057Y13232D01*
X20032Y13260D01*
X20004Y13286D01*
X19974Y13310D01*
X19943Y13331D01*
X19910Y13351D01*
X19876Y13368D01*
X19841Y13382D01*
X19805Y13394D01*
X19769Y13404D01*
X19731Y13410D01*
X19704Y13413D01*
X19693Y13414D01*
X19656Y13416D01*
Y13416D01*
X18561D01*
X18546Y13414D01*
X18531Y13411D01*
X18516Y13405D01*
X18503Y13397D01*
X18491Y13387D01*
X18481Y13375D01*
X18473Y13362D01*
X18467Y13347D01*
X18464Y13332D01*
X18462Y13317D01*
X18464Y13301D01*
X18467Y13286D01*
X18473Y13272D01*
X18481Y13259D01*
X18491Y13247D01*
X18503Y13237D01*
X18516Y13229D01*
X18531Y13223D01*
X18546Y13219D01*
X18561Y13218D01*
X19656D01*
X19657Y13218D01*
X19685Y13217D01*
X19714Y13213D01*
X19742Y13207D01*
X19770Y13198D01*
X19797Y13187D01*
X19823Y13174D01*
X19847Y13158D01*
X19871Y13140D01*
X19892Y13120D01*
X19912Y13099D01*
X19930Y13076D01*
X19945Y13051D01*
X19959Y13025D01*
X19970Y12998D01*
X19979Y12970D01*
X19985Y12942D01*
X19989Y12913D01*
X19990Y12886D01*
X19990Y12884D01*
Y12244D01*
X18632D01*
Y10512D01*
X19734D01*
Y10118D01*
X20720D01*
X20748Y10118D01*
X20770Y10077D01*
Y2353D01*
X20758Y2345D01*
X20741Y2330D01*
X20726Y2313D01*
X20713Y2293D01*
X20702Y2273D01*
X20695Y2251D01*
X20690Y2228D01*
X20689Y2205D01*
X20690Y2182D01*
X20695Y2159D01*
X20702Y2137D01*
X20713Y2116D01*
X20726Y2097D01*
X20741Y2079D01*
X20741Y2079D01*
X20746Y2066D01*
Y2029D01*
X20741Y2015D01*
X20741Y2015D01*
X20726Y1998D01*
X20713Y1978D01*
X20702Y1958D01*
X20695Y1936D01*
X20690Y1913D01*
X20689Y1890D01*
X20690Y1867D01*
X20695Y1844D01*
X20702Y1822D01*
X20713Y1801D01*
X20726Y1782D01*
X20741Y1764D01*
X20741Y1764D01*
X20746Y1751D01*
Y1714D01*
X20741Y1700D01*
X20741Y1700D01*
X20726Y1683D01*
X20713Y1663D01*
X20702Y1643D01*
X20695Y1621D01*
X20690Y1598D01*
X20689Y1575D01*
X20690Y1552D01*
X20695Y1529D01*
X20702Y1507D01*
X20713Y1486D01*
X20726Y1467D01*
X20741Y1449D01*
X20741Y1449D01*
X20746Y1436D01*
Y1399D01*
X20741Y1385D01*
X20741Y1385D01*
X20726Y1368D01*
X20713Y1348D01*
X20702Y1328D01*
X20695Y1306D01*
X20690Y1283D01*
X20689Y1260D01*
X20690Y1237D01*
X20695Y1214D01*
X20702Y1192D01*
X20713Y1171D01*
X20726Y1152D01*
X20741Y1135D01*
X20741Y1134D01*
X20746Y1121D01*
Y1084D01*
X20741Y1071D01*
X20741Y1070D01*
X20726Y1053D01*
X20713Y1033D01*
X20702Y1013D01*
X20695Y991D01*
X20690Y968D01*
X20689Y945D01*
X20690Y922D01*
X20695Y899D01*
X20702Y877D01*
X20713Y856D01*
X20726Y837D01*
X20741Y820D01*
X20758Y804D01*
X20770Y797D01*
Y197D01*
X20770Y177D01*
X20754Y140D01*
X20726Y112D01*
X20689Y96D01*
X20669D01*
X16104D01*
X16063Y146D01*
Y266D01*
X15906D01*
X15906Y467D01*
X15941Y502D01*
X16220Y502D01*
Y679D01*
X17133D01*
Y679D01*
X17162Y680D01*
X17191Y684D01*
X17219Y690D01*
X17247Y699D01*
X17274Y710D01*
X17300Y724D01*
X17325Y739D01*
X17348Y757D01*
X17369Y777D01*
X17389Y798D01*
X17407Y822D01*
X17423Y846D01*
X17436Y872D01*
X17447Y899D01*
X17456Y927D01*
X17462Y956D01*
X17466Y985D01*
X17467Y1014D01*
X17467D01*
Y1498D01*
X17466Y1513D01*
X17463Y1529D01*
X17457Y1543D01*
X17449Y1556D01*
X17439Y1568D01*
X17427Y1578D01*
X17414Y1586D01*
X17399Y1592D01*
X17384Y1596D01*
X17369Y1597D01*
X17353Y1596D01*
X17338Y1592D01*
X17324Y1586D01*
X17311Y1578D01*
X17299Y1568D01*
X17289Y1556D01*
X17281Y1543D01*
X17275Y1529D01*
X17271Y1513D01*
X17270Y1498D01*
Y1014D01*
X17270Y1012D01*
X17269Y996D01*
X17266Y978D01*
X17260Y961D01*
X17252Y945D01*
X17242Y930D01*
X17230Y916D01*
X17216Y905D01*
X17201Y895D01*
X17185Y887D01*
X17168Y881D01*
X17150Y877D01*
X17134Y876D01*
X17133Y876D01*
X16220D01*
Y2234D01*
X14488D01*
Y1132D01*
X14094D01*
Y146D01*
X14094Y118D01*
X14053Y96D01*
X11211Y96D01*
X11204Y108D01*
X11188Y125D01*
X11171Y141D01*
X11152Y153D01*
X11131Y164D01*
X11109Y171D01*
X11086Y176D01*
X11063Y177D01*
X11040Y176D01*
X11017Y171D01*
X10995Y164D01*
X10974Y153D01*
X10955Y141D01*
X10938Y125D01*
X10937Y125D01*
X10924Y120D01*
X10887D01*
X10874Y125D01*
X10873Y125D01*
X10856Y141D01*
X10837Y153D01*
X10816Y164D01*
X10794Y171D01*
X10771Y176D01*
X10748Y177D01*
X10725Y176D01*
X10702Y171D01*
X10680Y164D01*
X10659Y153D01*
X10640Y141D01*
X10623Y125D01*
X10622Y125D01*
X10609Y120D01*
X10572D01*
X10559Y125D01*
X10558Y125D01*
X10541Y141D01*
X10522Y153D01*
X10501Y164D01*
X10479Y171D01*
X10456Y176D01*
X10433Y177D01*
X10410Y176D01*
X10387Y171D01*
X10365Y164D01*
X10344Y153D01*
X10325Y141D01*
X10308Y125D01*
X10307Y125D01*
X10294Y120D01*
X10257D01*
X10244Y125D01*
X10243Y125D01*
X10226Y141D01*
X10207Y153D01*
X10186Y164D01*
X10164Y171D01*
X10141Y176D01*
X10118Y177D01*
X10095Y176D01*
X10072Y171D01*
X10050Y164D01*
X10029Y153D01*
X10010Y141D01*
X9993Y125D01*
X9992Y125D01*
X9979Y120D01*
X9942D01*
X9929Y125D01*
X9928Y125D01*
X9911Y141D01*
X9892Y153D01*
X9871Y164D01*
X9849Y171D01*
X9826Y176D01*
X9803Y177D01*
X9780Y176D01*
X9757Y171D01*
X9735Y164D01*
X9715Y153D01*
X9695Y141D01*
X9678Y125D01*
X9663Y108D01*
X9655Y96D01*
X6693D01*
X6664Y96D01*
X6606Y108D01*
X6552Y130D01*
X6503Y163D01*
X6483Y183D01*
X6320Y346D01*
X6318Y348D01*
X6316Y350D01*
X6288Y376D01*
X6281Y379D01*
X6276Y384D01*
X6212Y427D01*
X6203Y431D01*
X6196Y436D01*
X6124Y466D01*
X6115Y468D01*
X6106Y471D01*
X6031Y486D01*
X6023D01*
X6016Y488D01*
X5978Y490D01*
X5975Y489D01*
X5973Y490D01*
X5693Y490D01*
X5677Y517D01*
X5672Y540D01*
X5682Y551D01*
X5695Y571D01*
X5705Y592D01*
X5713Y613D01*
X5717Y636D01*
X5719Y659D01*
X5717Y683D01*
X5713Y705D01*
X5705Y727D01*
X5695Y748D01*
X5682Y768D01*
X5667Y785D01*
X5649Y800D01*
X5630Y813D01*
X5609Y823D01*
X5587Y831D01*
X5565Y835D01*
X5541Y837D01*
X5518Y835D01*
X5495Y831D01*
X5473Y823D01*
X5453Y813D01*
X5433Y800D01*
X5416Y785D01*
X5400Y768D01*
X5388Y748D01*
X5377Y727D01*
X5370Y705D01*
X5365Y683D01*
X5364Y659D01*
X5365Y636D01*
X5370Y613D01*
X5377Y592D01*
X5388Y571D01*
X5400Y551D01*
X5410Y540D01*
X5406Y517D01*
X5390Y490D01*
X3484Y490D01*
X3482Y490D01*
X3480Y490D01*
X3441Y488D01*
X3434Y486D01*
X3427D01*
X3351Y471D01*
X3342Y468D01*
X3333Y466D01*
X3262Y436D01*
X3254Y431D01*
X3245Y427D01*
X3181Y384D01*
X3176Y379D01*
X3170Y376D01*
X3141Y350D01*
X3140Y348D01*
X3138Y347D01*
X2975Y184D01*
X2954Y163D01*
X2905Y130D01*
X2851Y108D01*
X2794Y96D01*
X2764D01*
X2764Y96D01*
X2764Y96D01*
X2755Y96D01*
X177D01*
X140Y112D01*
X112Y140D01*
X96Y177D01*
Y797D01*
X108Y804D01*
X125Y820D01*
X141Y837D01*
X153Y856D01*
X164Y877D01*
X171Y899D01*
X176Y922D01*
X177Y945D01*
X176Y968D01*
X171Y991D01*
X164Y1013D01*
X153Y1033D01*
X141Y1053D01*
X125Y1070D01*
X125Y1071D01*
X120Y1084D01*
Y1121D01*
X125Y1134D01*
X125Y1135D01*
X141Y1152D01*
X153Y1171D01*
X164Y1192D01*
X171Y1214D01*
X176Y1237D01*
X177Y1260D01*
X176Y1283D01*
X171Y1306D01*
X164Y1328D01*
X153Y1348D01*
X141Y1368D01*
X125Y1385D01*
X125Y1385D01*
X120Y1399D01*
Y1436D01*
X125Y1449D01*
X125Y1449D01*
X141Y1467D01*
X153Y1486D01*
X164Y1507D01*
X171Y1529D01*
X176Y1552D01*
X177Y1575D01*
X176Y1598D01*
X171Y1621D01*
X164Y1643D01*
X153Y1663D01*
X141Y1683D01*
X125Y1700D01*
X125Y1700D01*
X120Y1714D01*
Y1751D01*
X125Y1764D01*
X125Y1764D01*
X141Y1782D01*
X153Y1801D01*
X164Y1822D01*
X171Y1844D01*
X176Y1867D01*
X177Y1890D01*
X176Y1913D01*
X171Y1936D01*
X164Y1958D01*
X153Y1978D01*
X141Y1998D01*
X125Y2015D01*
X125Y2015D01*
X120Y2029D01*
Y2066D01*
X125Y2079D01*
X125Y2079D01*
X141Y2097D01*
X153Y2116D01*
X164Y2137D01*
X171Y2159D01*
X176Y2182D01*
X177Y2205D01*
X176Y2228D01*
X171Y2251D01*
X164Y2273D01*
X153Y2293D01*
X141Y2313D01*
X125Y2330D01*
X108Y2345D01*
X96Y2353D01*
Y3110D01*
X96Y3130D01*
X112Y3167D01*
X140Y3195D01*
X177Y3211D01*
X417D01*
X422Y3212D01*
X427Y3211D01*
X465Y3215D01*
X479Y3219D01*
X493Y3222D01*
X564Y3251D01*
X595Y3272D01*
X595Y3272D01*
X649Y3326D01*
X670Y3358D01*
X699Y3429D01*
X702Y3443D01*
X706Y3456D01*
X710Y3494D01*
X710Y3499D01*
X711Y3504D01*
X711Y4134D01*
X710Y4139D01*
X710Y4143D01*
X706Y4182D01*
X702Y4195D01*
X699Y4209D01*
X670Y4280D01*
X649Y4311D01*
X649Y4311D01*
X595Y4366D01*
X564Y4387D01*
X493Y4416D01*
X479Y4419D01*
X465Y4423D01*
X427Y4427D01*
X422Y4426D01*
X417Y4427D01*
X177D01*
X140Y4442D01*
X112Y4471D01*
X96Y4508D01*
Y4528D01*
Y18513D01*
X108Y18521D01*
X125Y18536D01*
X141Y18554D01*
X153Y18573D01*
X164Y18594D01*
X171Y18616D01*
X176Y18638D01*
X177Y18661D01*
X176Y18685D01*
X171Y18707D01*
X164Y18729D01*
X153Y18750D01*
X141Y18769D01*
X125Y18787D01*
X125Y18787D01*
X120Y18801D01*
Y18837D01*
X125Y18851D01*
X125Y18851D01*
X141Y18868D01*
X153Y18888D01*
X164Y18909D01*
X171Y18931D01*
X176Y18953D01*
X177Y18976D01*
X176Y19000D01*
X171Y19022D01*
X164Y19044D01*
X153Y19065D01*
X141Y19084D01*
X125Y19102D01*
X125Y19102D01*
X120Y19115D01*
Y19152D01*
X125Y19166D01*
X125Y19166D01*
X141Y19183D01*
X153Y19203D01*
X164Y19224D01*
X171Y19245D01*
X176Y19268D01*
X177Y19291D01*
X176Y19314D01*
X171Y19337D01*
X164Y19359D01*
X153Y19380D01*
X141Y19399D01*
X125Y19417D01*
X125Y19417D01*
X120Y19430D01*
Y19467D01*
X125Y19481D01*
X125Y19481D01*
X141Y19498D01*
X153Y19518D01*
X164Y19538D01*
X171Y19560D01*
X176Y19583D01*
X177Y19606D01*
X176Y19629D01*
X171Y19652D01*
X164Y19674D01*
X153Y19695D01*
X141Y19714D01*
X125Y19732D01*
X125Y19732D01*
X120Y19745D01*
Y19782D01*
X125Y19796D01*
X125Y19796D01*
X141Y19813D01*
X153Y19833D01*
X164Y19853D01*
X171Y19875D01*
X176Y19898D01*
X177Y19921D01*
X176Y19944D01*
X171Y19967D01*
X164Y19989D01*
X153Y20010D01*
X141Y20029D01*
X125Y20047D01*
X108Y20062D01*
X96Y20070D01*
Y20689D01*
X112Y20726D01*
X140Y20754D01*
X177Y20770D01*
X197Y20770D01*
X9655D01*
X9663Y20758D01*
X9678Y20741D01*
X9695Y20726D01*
X9715Y20713D01*
X9735Y20702D01*
X9757Y20695D01*
X9780Y20690D01*
X9803Y20689D01*
X9826Y20690D01*
X9849Y20695D01*
X9871Y20702D01*
X9892Y20713D01*
X9911Y20726D01*
X9928Y20741D01*
X9929Y20741D01*
X9942Y20746D01*
X9979D01*
X9992Y20741D01*
X9993Y20741D01*
X10010Y20726D01*
X10029Y20713D01*
X10050Y20702D01*
X10072Y20695D01*
X10095Y20690D01*
X10118Y20689D01*
X10141Y20690D01*
X10164Y20695D01*
X10186Y20702D01*
X10207Y20713D01*
X10226Y20726D01*
X10243Y20741D01*
X10244Y20741D01*
X10257Y20746D01*
X10294D01*
X10307Y20741D01*
X10308Y20741D01*
X10325Y20726D01*
X10344Y20713D01*
X10365Y20702D01*
X10387Y20695D01*
X10410Y20690D01*
X10433Y20689D01*
X10456Y20690D01*
X10479Y20695D01*
X10501Y20702D01*
X10522Y20713D01*
X10541Y20726D01*
X10558Y20741D01*
X10559Y20741D01*
X10572Y20746D01*
X10609D01*
X10622Y20741D01*
X10623Y20741D01*
X10640Y20726D01*
X10659Y20713D01*
X10680Y20702D01*
X10702Y20695D01*
X10725Y20690D01*
X10748Y20689D01*
X10771Y20690D01*
X10794Y20695D01*
X10816Y20702D01*
X10837Y20713D01*
X10856Y20726D01*
X10873Y20741D01*
X10874Y20741D01*
X10887Y20746D01*
X10924D01*
X10937Y20741D01*
X10938Y20741D01*
X10955Y20726D01*
X10974Y20713D01*
X10995Y20702D01*
X11017Y20695D01*
X11040Y20690D01*
X11063Y20689D01*
X11086Y20690D01*
X11109Y20695D01*
X11131Y20702D01*
X11152Y20713D01*
X11171Y20726D01*
X11188Y20741D01*
X11204Y20758D01*
X11211Y20770D01*
X14075D01*
X14112Y20754D01*
X14140Y20726D01*
X14156Y20689D01*
X14156Y19291D01*
X14157Y19287D01*
X14156Y19282D01*
X14160Y19243D01*
X14164Y19230D01*
X14167Y19216D01*
X14196Y19145D01*
X14217Y19114D01*
X14217Y19114D01*
X14271Y19060D01*
X14303Y19039D01*
X14374Y19009D01*
X14410Y19002D01*
X14487D01*
X14524Y19009D01*
X14551Y19020D01*
X16512D01*
X16539Y19009D01*
X16576Y19002D01*
X16653D01*
X16689Y19009D01*
X16760Y19039D01*
X16792Y19060D01*
X16792Y19060D01*
X16846Y19114D01*
X16867Y19145D01*
X16896Y19216D01*
X16899Y19230D01*
X16903Y19243D01*
X16907Y19282D01*
X16906Y19287D01*
X16907Y19291D01*
Y20689D01*
X16923Y20726D01*
X16951Y20755D01*
X16988Y20770D01*
X17008Y20770D01*
D02*
G37*
%LPC*%
G36*
X9821Y20286D02*
X9798Y20284D01*
X9775Y20280D01*
X9753Y20272D01*
X9732Y20262D01*
X9713Y20249D01*
X9695Y20234D01*
X9680Y20216D01*
X9667Y20197D01*
X9657Y20176D01*
X9649Y20154D01*
X9645Y20131D01*
X9643Y20108D01*
X9645Y20085D01*
X9649Y20062D01*
X9657Y20040D01*
X9667Y20019D01*
X9680Y20000D01*
X9695Y19983D01*
X9713Y19967D01*
X9732Y19955D01*
X9753Y19944D01*
X9775Y19937D01*
X9798Y19932D01*
X9821Y19931D01*
X9844Y19932D01*
X9867Y19937D01*
X9889Y19944D01*
X9910Y19955D01*
X9929Y19967D01*
X9946Y19983D01*
X9962Y20000D01*
X9975Y20019D01*
X9985Y20040D01*
X9992Y20062D01*
X9997Y20085D01*
X9998Y20108D01*
X9997Y20131D01*
X9992Y20154D01*
X9985Y20176D01*
X9975Y20197D01*
X9962Y20216D01*
X9946Y20234D01*
X9929Y20249D01*
X9910Y20262D01*
X9889Y20272D01*
X9867Y20280D01*
X9844Y20284D01*
X9821Y20286D01*
D02*
G37*
G36*
X7362Y19843D02*
X7339Y19841D01*
X7316Y19837D01*
X7294Y19829D01*
X7273Y19819D01*
X7254Y19806D01*
X7237Y19791D01*
X7221Y19773D01*
X7208Y19754D01*
X7198Y19733D01*
X7191Y19711D01*
X7186Y19689D01*
X7185Y19665D01*
X7186Y19642D01*
X7191Y19619D01*
X7198Y19597D01*
X7208Y19577D01*
X7221Y19557D01*
X7237Y19540D01*
X7254Y19525D01*
X7273Y19512D01*
X7294Y19501D01*
X7316Y19494D01*
X7339Y19489D01*
X7362Y19488D01*
X7385Y19489D01*
X7408Y19494D01*
X7430Y19501D01*
X7451Y19512D01*
X7470Y19525D01*
X7488Y19540D01*
X7503Y19557D01*
X7516Y19577D01*
X7526Y19597D01*
X7534Y19619D01*
X7538Y19642D01*
X7540Y19665D01*
X7538Y19689D01*
X7534Y19711D01*
X7526Y19733D01*
X7516Y19754D01*
X7503Y19773D01*
X7488Y19791D01*
X7470Y19806D01*
X7451Y19819D01*
X7430Y19829D01*
X7408Y19837D01*
X7385Y19841D01*
X7362Y19843D01*
D02*
G37*
G36*
X1594Y19420D02*
X1571Y19418D01*
X1549Y19414D01*
X1527Y19406D01*
X1506Y19396D01*
X1486Y19383D01*
X1469Y19368D01*
X1454Y19350D01*
X1441Y19331D01*
X1430Y19310D01*
X1423Y19288D01*
X1418Y19265D01*
X1417Y19242D01*
X1418Y19219D01*
X1423Y19196D01*
X1430Y19174D01*
X1441Y19153D01*
X1454Y19134D01*
X1469Y19117D01*
X1486Y19101D01*
X1506Y19088D01*
X1527Y19078D01*
X1549Y19071D01*
X1571Y19066D01*
X1594Y19065D01*
X1618Y19066D01*
X1640Y19071D01*
X1662Y19078D01*
X1683Y19088D01*
X1703Y19101D01*
X1720Y19117D01*
X1735Y19134D01*
X1748Y19153D01*
X1759Y19174D01*
X1766Y19196D01*
X1771Y19219D01*
X1772Y19242D01*
X1771Y19265D01*
X1766Y19288D01*
X1759Y19310D01*
X1748Y19331D01*
X1735Y19350D01*
X1720Y19368D01*
X1703Y19383D01*
X1683Y19396D01*
X1662Y19406D01*
X1640Y19414D01*
X1618Y19418D01*
X1594Y19420D01*
D02*
G37*
G36*
X15463Y18937D02*
X15439Y18936D01*
X15417Y18931D01*
X15395Y18924D01*
X15374Y18914D01*
X15355Y18901D01*
X15325Y18890D01*
X15295Y18901D01*
X15276Y18914D01*
X15255Y18924D01*
X15233Y18931D01*
X15210Y18936D01*
X15187Y18937D01*
X15164Y18936D01*
X15141Y18931D01*
X15119Y18924D01*
X15098Y18914D01*
X15079Y18901D01*
X15061Y18885D01*
X15046Y18868D01*
X15033Y18849D01*
X15023Y18828D01*
X15016Y18806D01*
X15011Y18783D01*
X15009Y18760D01*
X15011Y18737D01*
X15016Y18714D01*
X15023Y18692D01*
X15033Y18671D01*
X15046Y18652D01*
X15061Y18634D01*
X15079Y18619D01*
X15098Y18606D01*
X15119Y18596D01*
X15141Y18588D01*
X15164Y18584D01*
X15187Y18582D01*
X15210Y18584D01*
X15233Y18588D01*
X15255Y18596D01*
X15276Y18606D01*
X15295Y18619D01*
X15325Y18630D01*
X15355Y18619D01*
X15374Y18606D01*
X15395Y18596D01*
X15417Y18588D01*
X15439Y18584D01*
X15463Y18582D01*
X15486Y18584D01*
X15509Y18588D01*
X15531Y18596D01*
X15551Y18606D01*
X15571Y18619D01*
X15588Y18634D01*
X15603Y18652D01*
X15616Y18671D01*
X15627Y18692D01*
X15634Y18714D01*
X15639Y18737D01*
X15640Y18760D01*
X15639Y18783D01*
X15634Y18806D01*
X15627Y18828D01*
X15616Y18849D01*
X15603Y18868D01*
X15588Y18885D01*
X15571Y18901D01*
X15551Y18914D01*
X15531Y18924D01*
X15509Y18931D01*
X15486Y18936D01*
X15463Y18937D01*
D02*
G37*
G36*
X9055Y19233D02*
X9032Y19231D01*
X9009Y19227D01*
X8987Y19219D01*
X8966Y19209D01*
X8947Y19196D01*
X8930Y19181D01*
X8914Y19163D01*
X8901Y19144D01*
X8891Y19123D01*
X8884Y19101D01*
X8879Y19078D01*
X8878Y19055D01*
X8879Y19032D01*
X8884Y19009D01*
X8891Y18987D01*
X8901Y18966D01*
X8914Y18947D01*
X8930Y18930D01*
X8947Y18914D01*
X8966Y18901D01*
X8987Y18891D01*
X9009Y18884D01*
X9032Y18879D01*
X9055Y18878D01*
X9078Y18879D01*
X9101Y18884D01*
X9123Y18891D01*
X9144Y18901D01*
X9163Y18914D01*
X9181Y18930D01*
X9196Y18947D01*
X9209Y18966D01*
X9219Y18987D01*
X9227Y19009D01*
X9231Y19032D01*
X9233Y19055D01*
X9231Y19078D01*
X9227Y19101D01*
X9219Y19123D01*
X9209Y19144D01*
X9196Y19163D01*
X9181Y19181D01*
X9163Y19196D01*
X9144Y19209D01*
X9123Y19219D01*
X9101Y19227D01*
X9078Y19231D01*
X9055Y19233D01*
D02*
G37*
G36*
X7874D02*
X7851Y19231D01*
X7828Y19227D01*
X7806Y19219D01*
X7785Y19209D01*
X7766Y19196D01*
X7748Y19181D01*
X7733Y19163D01*
X7720Y19144D01*
X7710Y19123D01*
X7703Y19101D01*
X7698Y19078D01*
X7696Y19055D01*
X7698Y19032D01*
X7703Y19009D01*
X7710Y18987D01*
X7720Y18966D01*
X7733Y18947D01*
X7748Y18930D01*
X7766Y18914D01*
X7785Y18901D01*
X7806Y18891D01*
X7828Y18884D01*
X7851Y18879D01*
X7874Y18878D01*
X7897Y18879D01*
X7920Y18884D01*
X7942Y18891D01*
X7963Y18901D01*
X7982Y18914D01*
X8000Y18930D01*
X8015Y18947D01*
X8028Y18966D01*
X8038Y18987D01*
X8046Y19009D01*
X8050Y19032D01*
X8052Y19055D01*
X8050Y19078D01*
X8046Y19101D01*
X8038Y19123D01*
X8028Y19144D01*
X8015Y19163D01*
X8000Y19181D01*
X7982Y19196D01*
X7963Y19209D01*
X7942Y19219D01*
X7920Y19227D01*
X7897Y19231D01*
X7874Y19233D01*
D02*
G37*
G36*
X3209Y19231D02*
X3174Y19229D01*
X3141Y19225D01*
X3107Y19217D01*
X3075Y19207D01*
X3043Y19194D01*
X3013Y19178D01*
X2984Y19160D01*
X2957Y19139D01*
X2931Y19116D01*
X2908Y19091D01*
X2887Y19063D01*
X2869Y19035D01*
X2853Y19004D01*
X2840Y18973D01*
X2830Y18940D01*
X2823Y18907D01*
X2818Y18873D01*
X2817Y18839D01*
X2818Y18804D01*
X2823Y18770D01*
X2830Y18737D01*
X2840Y18704D01*
X2853Y18673D01*
X2856Y18668D01*
X2849Y18651D01*
X2823Y18622D01*
X2815Y18622D01*
X2792Y18621D01*
X2769Y18616D01*
X2747Y18609D01*
X2726Y18599D01*
X2707Y18586D01*
X2689Y18570D01*
X2674Y18553D01*
X2661Y18534D01*
X2651Y18513D01*
X2643Y18491D01*
X2639Y18468D01*
X2637Y18445D01*
X2639Y18422D01*
X2643Y18399D01*
X2651Y18377D01*
X2661Y18356D01*
X2674Y18337D01*
X2689Y18319D01*
X2707Y18304D01*
X2726Y18291D01*
X2747Y18281D01*
X2769Y18273D01*
X2792Y18269D01*
X2815Y18267D01*
X2838Y18269D01*
X2861Y18273D01*
X2883Y18281D01*
X2904Y18291D01*
X2923Y18304D01*
X2941Y18319D01*
X2956Y18337D01*
X2969Y18356D01*
X2979Y18377D01*
X2986Y18399D01*
X2991Y18422D01*
X2993Y18445D01*
X2992Y18453D01*
X3021Y18479D01*
X3038Y18486D01*
X3043Y18483D01*
X3075Y18470D01*
X3107Y18460D01*
X3141Y18452D01*
X3174Y18448D01*
X3209Y18446D01*
X3243Y18448D01*
X3277Y18452D01*
X3310Y18460D01*
X3343Y18470D01*
X3374Y18483D01*
X3405Y18499D01*
X3434Y18517D01*
X3461Y18538D01*
X3486Y18561D01*
X3509Y18587D01*
X3530Y18614D01*
X3548Y18643D01*
X3564Y18673D01*
X3577Y18704D01*
X3587Y18737D01*
X3595Y18770D01*
X3599Y18804D01*
X3601Y18839D01*
X3599Y18873D01*
X3595Y18907D01*
X3587Y18940D01*
X3577Y18973D01*
X3564Y19004D01*
X3548Y19035D01*
X3530Y19063D01*
X3509Y19091D01*
X3486Y19116D01*
X3461Y19139D01*
X3434Y19160D01*
X3405Y19178D01*
X3374Y19194D01*
X3343Y19207D01*
X3310Y19217D01*
X3277Y19225D01*
X3243Y19229D01*
X3209Y19231D01*
D02*
G37*
G36*
X12795Y19772D02*
X12751Y19771D01*
X12707Y19766D01*
X12663Y19759D01*
X12620Y19749D01*
X12577Y19736D01*
X12536Y19720D01*
X12496Y19702D01*
X12457Y19681D01*
X12419Y19658D01*
X12383Y19632D01*
X12349Y19604D01*
X12316Y19574D01*
X12286Y19541D01*
X12258Y19507D01*
X12232Y19471D01*
X12209Y19433D01*
X12188Y19394D01*
X12169Y19354D01*
X12154Y19312D01*
X12141Y19270D01*
X12131Y19227D01*
X12124Y19183D01*
X12119Y19139D01*
X12118Y19094D01*
X12119Y19050D01*
X12124Y19006D01*
X12131Y18962D01*
X12141Y18919D01*
X12154Y18877D01*
X12169Y18835D01*
X12188Y18795D01*
X12209Y18756D01*
X12232Y18718D01*
X12258Y18682D01*
X12286Y18648D01*
X12316Y18615D01*
X12349Y18585D01*
X12383Y18557D01*
X12419Y18531D01*
X12457Y18508D01*
X12496Y18487D01*
X12536Y18469D01*
X12577Y18453D01*
X12620Y18440D01*
X12663Y18430D01*
X12707Y18423D01*
X12751Y18418D01*
X12795Y18417D01*
X12840Y18418D01*
X12884Y18423D01*
X12927Y18430D01*
X12971Y18440D01*
X13013Y18453D01*
X13055Y18469D01*
X13095Y18487D01*
X13134Y18508D01*
X13172Y18531D01*
X13208Y18557D01*
X13242Y18585D01*
X13274Y18615D01*
X13305Y18648D01*
X13333Y18682D01*
X13359Y18718D01*
X13382Y18756D01*
X13403Y18795D01*
X13421Y18835D01*
X13437Y18877D01*
X13450Y18919D01*
X13460Y18962D01*
X13467Y19006D01*
X13471Y19050D01*
X13473Y19094D01*
X13471Y19139D01*
X13467Y19183D01*
X13460Y19227D01*
X13450Y19270D01*
X13437Y19312D01*
X13421Y19354D01*
X13403Y19394D01*
X13382Y19433D01*
X13359Y19471D01*
X13333Y19507D01*
X13305Y19541D01*
X13274Y19574D01*
X13242Y19604D01*
X13208Y19632D01*
X13172Y19658D01*
X13134Y19681D01*
X13095Y19702D01*
X13055Y19720D01*
X13013Y19736D01*
X12971Y19749D01*
X12927Y19759D01*
X12884Y19766D01*
X12840Y19771D01*
X12795Y19772D01*
D02*
G37*
G36*
X9350Y18485D02*
X9327Y18483D01*
X9304Y18479D01*
X9282Y18471D01*
X9262Y18461D01*
X9242Y18448D01*
X9225Y18433D01*
X9210Y18415D01*
X9197Y18396D01*
X9186Y18375D01*
X9179Y18353D01*
X9174Y18330D01*
X9173Y18307D01*
X9174Y18284D01*
X9179Y18261D01*
X9186Y18239D01*
X9197Y18218D01*
X9210Y18199D01*
X9225Y18182D01*
X9242Y18166D01*
X9262Y18153D01*
X9282Y18143D01*
X9304Y18136D01*
X9327Y18131D01*
X9350Y18130D01*
X9374Y18131D01*
X9396Y18136D01*
X9418Y18143D01*
X9439Y18153D01*
X9458Y18166D01*
X9476Y18182D01*
X9491Y18199D01*
X9504Y18218D01*
X9514Y18239D01*
X9522Y18261D01*
X9526Y18284D01*
X9528Y18307D01*
X9526Y18330D01*
X9522Y18353D01*
X9514Y18375D01*
X9504Y18396D01*
X9491Y18415D01*
X9476Y18433D01*
X9458Y18448D01*
X9439Y18461D01*
X9418Y18471D01*
X9396Y18479D01*
X9374Y18483D01*
X9350Y18485D01*
D02*
G37*
G36*
X7904Y18376D02*
X7880Y18375D01*
X7858Y18370D01*
X7836Y18363D01*
X7815Y18353D01*
X7795Y18340D01*
X7778Y18324D01*
X7763Y18307D01*
X7750Y18288D01*
X7740Y18267D01*
X7732Y18245D01*
X7728Y18222D01*
X7726Y18199D01*
X7728Y18176D01*
X7732Y18153D01*
X7740Y18131D01*
X7750Y18110D01*
X7763Y18091D01*
X7778Y18073D01*
X7795Y18058D01*
X7815Y18045D01*
X7836Y18035D01*
X7858Y18027D01*
X7880Y18023D01*
X7904Y18021D01*
X7927Y18023D01*
X7949Y18027D01*
X7971Y18035D01*
X7992Y18045D01*
X8012Y18058D01*
X8029Y18073D01*
X8044Y18091D01*
X8057Y18110D01*
X8068Y18131D01*
X8075Y18153D01*
X8080Y18176D01*
X8081Y18199D01*
X8080Y18222D01*
X8075Y18245D01*
X8068Y18267D01*
X8057Y18288D01*
X8044Y18307D01*
X8029Y18324D01*
X8012Y18340D01*
X7992Y18353D01*
X7971Y18363D01*
X7949Y18370D01*
X7927Y18375D01*
X7904Y18376D01*
D02*
G37*
G36*
X15984Y18357D02*
X15961Y18355D01*
X15938Y18351D01*
X15916Y18343D01*
X15895Y18333D01*
X15876Y18320D01*
X15859Y18305D01*
X15843Y18287D01*
X15830Y18268D01*
X15820Y18247D01*
X15813Y18225D01*
X15808Y18202D01*
X15807Y18179D01*
X15808Y18156D01*
X15813Y18133D01*
X15820Y18111D01*
X15830Y18090D01*
X15843Y18071D01*
X15859Y18054D01*
X15876Y18038D01*
X15895Y18025D01*
X15916Y18015D01*
X15941Y17989D01*
X15936Y17966D01*
X15935Y17943D01*
X15936Y17920D01*
X15941Y17897D01*
X15948Y17875D01*
X15958Y17854D01*
X15971Y17835D01*
X15987Y17817D01*
X16004Y17802D01*
X16023Y17789D01*
X16044Y17779D01*
X16066Y17771D01*
X16089Y17767D01*
X16112Y17765D01*
X16135Y17767D01*
X16158Y17771D01*
X16180Y17779D01*
X16201Y17789D01*
X16220Y17802D01*
X16238Y17817D01*
X16253Y17835D01*
X16266Y17854D01*
X16276Y17875D01*
X16284Y17897D01*
X16288Y17920D01*
X16290Y17943D01*
X16288Y17966D01*
X16284Y17989D01*
X16276Y18011D01*
X16266Y18032D01*
X16253Y18051D01*
X16238Y18068D01*
X16220Y18084D01*
X16201Y18097D01*
X16180Y18107D01*
X16156Y18133D01*
X16160Y18156D01*
X16162Y18179D01*
X16160Y18202D01*
X16156Y18225D01*
X16148Y18247D01*
X16138Y18268D01*
X16125Y18287D01*
X16110Y18305D01*
X16092Y18320D01*
X16073Y18333D01*
X16052Y18343D01*
X16030Y18351D01*
X16007Y18355D01*
X15984Y18357D01*
D02*
G37*
G36*
X15128Y18032D02*
X15105Y18030D01*
X15082Y18026D01*
X15060Y18018D01*
X15039Y18008D01*
X15020Y17995D01*
X15002Y17980D01*
X14987Y17962D01*
X14974Y17943D01*
X14964Y17922D01*
X14956Y17900D01*
X14952Y17878D01*
X14950Y17854D01*
X14952Y17831D01*
X14956Y17808D01*
X14964Y17786D01*
X14974Y17766D01*
X14987Y17746D01*
X15002Y17729D01*
X15020Y17713D01*
X15039Y17701D01*
X15060Y17690D01*
X15082Y17683D01*
X15105Y17678D01*
X15128Y17677D01*
X15151Y17678D01*
X15174Y17683D01*
X15196Y17690D01*
X15217Y17701D01*
X15236Y17713D01*
X15253Y17729D01*
X15269Y17746D01*
X15282Y17766D01*
X15292Y17786D01*
X15299Y17808D01*
X15304Y17831D01*
X15306Y17854D01*
X15304Y17878D01*
X15299Y17900D01*
X15292Y17922D01*
X15282Y17943D01*
X15269Y17962D01*
X15253Y17980D01*
X15236Y17995D01*
X15217Y18008D01*
X15196Y18018D01*
X15174Y18026D01*
X15151Y18030D01*
X15128Y18032D01*
D02*
G37*
G36*
X9055Y17737D02*
X9032Y17735D01*
X9009Y17731D01*
X8987Y17723D01*
X8966Y17713D01*
X8947Y17700D01*
X8930Y17685D01*
X8923Y17677D01*
X8907Y17690D01*
X8888Y17703D01*
X8867Y17713D01*
X8845Y17721D01*
X8822Y17725D01*
X8799Y17727D01*
X8776Y17725D01*
X8753Y17721D01*
X8731Y17713D01*
X8710Y17703D01*
X8691Y17690D01*
X8674Y17675D01*
X8658Y17657D01*
X8645Y17638D01*
X8635Y17617D01*
X8628Y17595D01*
X8623Y17572D01*
X8622Y17549D01*
X8623Y17526D01*
X8628Y17503D01*
X8635Y17481D01*
X8645Y17460D01*
X8658Y17441D01*
X8674Y17424D01*
X8691Y17408D01*
X8710Y17395D01*
X8731Y17385D01*
X8753Y17378D01*
X8776Y17373D01*
X8799Y17372D01*
X8822Y17373D01*
X8845Y17378D01*
X8867Y17385D01*
X8888Y17395D01*
X8907Y17408D01*
X8925Y17424D01*
X8932Y17432D01*
X8947Y17418D01*
X8966Y17405D01*
X8987Y17395D01*
X9009Y17388D01*
X9032Y17383D01*
X9055Y17382D01*
X9078Y17383D01*
X9101Y17388D01*
X9123Y17395D01*
X9144Y17405D01*
X9163Y17418D01*
X9181Y17434D01*
X9196Y17451D01*
X9209Y17470D01*
X9219Y17491D01*
X9227Y17513D01*
X9231Y17536D01*
X9233Y17559D01*
X9231Y17582D01*
X9227Y17605D01*
X9219Y17627D01*
X9209Y17648D01*
X9196Y17667D01*
X9181Y17685D01*
X9163Y17700D01*
X9144Y17713D01*
X9123Y17723D01*
X9101Y17731D01*
X9078Y17735D01*
X9055Y17737D01*
D02*
G37*
G36*
X925Y18551D02*
X899Y18550D01*
X874Y18546D01*
X849Y18540D01*
X824Y18531D01*
X801Y18520D01*
X778Y18507D01*
X758Y18492D01*
X738Y18474D01*
X721Y18455D01*
X706Y18434D01*
X692Y18412D01*
X681Y18388D01*
X672Y18364D01*
X666Y18339D01*
X662Y18313D01*
X661Y18287D01*
X662Y18262D01*
X666Y18236D01*
X672Y18211D01*
X681Y18186D01*
X692Y18163D01*
X706Y18141D01*
X721Y18120D01*
X738Y18101D01*
X758Y18083D01*
X778Y18068D01*
X801Y18054D01*
X824Y18043D01*
X849Y18035D01*
X870Y18029D01*
X877Y18016D01*
X882Y17998D01*
X883Y17976D01*
X870Y17965D01*
X855Y17948D01*
X842Y17928D01*
X831Y17908D01*
X824Y17886D01*
X819Y17863D01*
X818Y17840D01*
X819Y17816D01*
X824Y17794D01*
X831Y17772D01*
X842Y17751D01*
X855Y17731D01*
X870Y17714D01*
X859Y17660D01*
X859Y17659D01*
X809Y17609D01*
X771Y17615D01*
X752Y17623D01*
X744Y17638D01*
X731Y17657D01*
X716Y17675D01*
X699Y17690D01*
X679Y17703D01*
X658Y17713D01*
X636Y17721D01*
X614Y17725D01*
X591Y17727D01*
X567Y17725D01*
X545Y17721D01*
X523Y17713D01*
X502Y17703D01*
X482Y17690D01*
X465Y17675D01*
X450Y17657D01*
X437Y17638D01*
X427Y17617D01*
X419Y17595D01*
X415Y17572D01*
X413Y17549D01*
X415Y17526D01*
X417Y17512D01*
X413Y17503D01*
X409Y17487D01*
X408Y17470D01*
Y15177D01*
X409Y15161D01*
X413Y15145D01*
X419Y15130D01*
X415Y15098D01*
X398Y15075D01*
X394Y15072D01*
X376Y15057D01*
X361Y15039D01*
X348Y15020D01*
X338Y14999D01*
X330Y14977D01*
X326Y14954D01*
X324Y14931D01*
X326Y14908D01*
X330Y14885D01*
X338Y14863D01*
X348Y14842D01*
X361Y14823D01*
X376Y14806D01*
X378Y14804D01*
X368Y14793D01*
X355Y14774D01*
X345Y14753D01*
X337Y14731D01*
X333Y14708D01*
X331Y14685D01*
X333Y14662D01*
X337Y14639D01*
X345Y14617D01*
X355Y14596D01*
X368Y14577D01*
X383Y14560D01*
X392Y14552D01*
X398Y14534D01*
X399Y14525D01*
X396Y14489D01*
X291Y14384D01*
X280Y14372D01*
X272Y14358D01*
X266Y14343D01*
X262Y14327D01*
X261Y14311D01*
Y14280D01*
X253Y14275D01*
X235Y14259D01*
X220Y14242D01*
X207Y14223D01*
X197Y14202D01*
X189Y14180D01*
X185Y14157D01*
X183Y14134D01*
X185Y14111D01*
X189Y14088D01*
X197Y14066D01*
X207Y14045D01*
X220Y14026D01*
X235Y14008D01*
X253Y13993D01*
X272Y13980D01*
X293Y13970D01*
X315Y13962D01*
X338Y13958D01*
X361Y13956D01*
X384Y13958D01*
X407Y13962D01*
X429Y13970D01*
X450Y13980D01*
X469Y13993D01*
X486Y14008D01*
X502Y14026D01*
X515Y14045D01*
X525Y14066D01*
X527Y14072D01*
X542Y14078D01*
X564Y14071D01*
X587Y14066D01*
X610Y14065D01*
X617Y14065D01*
X746Y13936D01*
X727Y13888D01*
X726Y13886D01*
X512D01*
X490Y13885D01*
X468Y13881D01*
X447Y13875D01*
X426Y13867D01*
X407Y13856D01*
X389Y13843D01*
X372Y13828D01*
X358Y13812D01*
X345Y13794D01*
X334Y13775D01*
X326Y13754D01*
X320Y13733D01*
X316Y13711D01*
X315Y13689D01*
X316Y13667D01*
X320Y13645D01*
X326Y13624D01*
X334Y13603D01*
X345Y13584D01*
X358Y13566D01*
X372Y13550D01*
X389Y13535D01*
X407Y13522D01*
X426Y13511D01*
X447Y13503D01*
X468Y13497D01*
X490Y13493D01*
X512Y13492D01*
X1024D01*
X1046Y13493D01*
X1067Y13497D01*
X1089Y13503D01*
X1109Y13511D01*
X1129Y13522D01*
X1147Y13535D01*
X1163Y13550D01*
X1178Y13566D01*
X1191Y13584D01*
X1201Y13603D01*
X1210Y13624D01*
X1216Y13645D01*
X1220Y13667D01*
X1221Y13689D01*
X1220Y13711D01*
X1216Y13733D01*
X1210Y13754D01*
X1201Y13775D01*
X1191Y13794D01*
X1178Y13812D01*
X1163Y13828D01*
X1152Y13838D01*
X1167Y13885D01*
X1210Y13889D01*
X1309Y13791D01*
Y13083D01*
X1259Y13075D01*
X1257Y13080D01*
X1247Y13101D01*
X1234Y13120D01*
X1219Y13137D01*
X1201Y13153D01*
X1182Y13166D01*
X1161Y13176D01*
X1139Y13183D01*
X1116Y13188D01*
X1093Y13189D01*
X1070Y13188D01*
X1047Y13183D01*
X1025Y13176D01*
X1004Y13166D01*
X985Y13153D01*
X968Y13137D01*
X952Y13120D01*
X939Y13101D01*
X929Y13080D01*
X922Y13058D01*
X917Y13035D01*
X916Y13012D01*
X917Y12989D01*
X922Y12966D01*
X929Y12944D01*
X939Y12923D01*
X952Y12904D01*
X968Y12886D01*
X985Y12871D01*
X1004Y12858D01*
X1025Y12848D01*
X1047Y12840D01*
X1070Y12836D01*
X1093Y12834D01*
X1116Y12836D01*
X1139Y12840D01*
X1161Y12848D01*
X1182Y12858D01*
X1201Y12871D01*
X1219Y12886D01*
X1234Y12904D01*
X1247Y12923D01*
X1257Y12944D01*
X1259Y12949D01*
X1309Y12940D01*
Y12799D01*
X1066Y12556D01*
X1055Y12544D01*
X1047Y12530D01*
X1041Y12515D01*
X1037Y12499D01*
X1036Y12483D01*
Y12334D01*
X1037Y12318D01*
X1041Y12302D01*
X1047Y12287D01*
X1055Y12274D01*
X1066Y12261D01*
X1119Y12209D01*
X1114Y12203D01*
X1101Y12184D01*
X1091Y12163D01*
X1083Y12141D01*
X1079Y12118D01*
X1077Y12095D01*
X1079Y12072D01*
X1038Y12046D01*
X1033Y12046D01*
X1028Y12052D01*
X802Y12278D01*
X789Y12289D01*
X775Y12297D01*
X760Y12303D01*
X745Y12307D01*
X728Y12308D01*
X642D01*
X635Y12314D01*
X620Y12324D01*
X604Y12332D01*
X587Y12338D01*
X569Y12342D01*
X551Y12343D01*
X533Y12342D01*
X515Y12338D01*
X498Y12332D01*
X482Y12324D01*
X467Y12314D01*
X454Y12302D01*
X442Y12289D01*
X432Y12274D01*
X424Y12258D01*
X418Y12240D01*
X414Y12223D01*
X413Y12205D01*
X414Y12187D01*
X418Y12169D01*
X424Y12152D01*
X432Y12136D01*
X442Y12121D01*
X454Y12107D01*
X467Y12095D01*
X482Y12085D01*
X498Y12077D01*
X515Y12071D01*
X533Y12068D01*
X551Y12067D01*
X569Y12068D01*
X587Y12071D01*
X604Y12077D01*
X620Y12085D01*
X635Y12095D01*
X642Y12101D01*
X685D01*
X851Y11935D01*
Y11320D01*
X768Y11237D01*
X758Y11225D01*
X749Y11211D01*
X743Y11196D01*
X739Y11180D01*
X738Y11164D01*
Y11021D01*
X739Y11005D01*
X743Y10989D01*
X749Y10974D01*
X758Y10960D01*
X768Y10948D01*
X869Y10847D01*
X882Y10836D01*
X895Y10828D01*
X910Y10822D01*
X926Y10818D01*
X942Y10817D01*
X1064D01*
X1156Y10725D01*
Y10495D01*
X1154Y10493D01*
X1109Y10465D01*
X1089Y10473D01*
X1067Y10480D01*
X1046Y10483D01*
X1024Y10485D01*
X512D01*
X490Y10483D01*
X468Y10480D01*
X447Y10473D01*
X426Y10465D01*
X407Y10454D01*
X389Y10442D01*
X372Y10427D01*
X358Y10410D01*
X345Y10392D01*
X334Y10373D01*
X326Y10353D01*
X320Y10331D01*
X316Y10309D01*
X315Y10287D01*
X316Y10265D01*
X320Y10244D01*
X326Y10222D01*
X334Y10202D01*
X345Y10182D01*
X358Y10164D01*
X372Y10148D01*
X389Y10133D01*
X407Y10120D01*
X426Y10110D01*
X447Y10101D01*
X468Y10095D01*
X490Y10091D01*
X512Y10090D01*
X1024D01*
X1046Y10091D01*
X1067Y10095D01*
X1089Y10101D01*
X1109Y10110D01*
X1129Y10120D01*
X1147Y10133D01*
X1163Y10148D01*
X1178Y10164D01*
X1191Y10182D01*
X1200Y10199D01*
X1202Y10202D01*
X1251Y10213D01*
X1259Y10211D01*
X1289Y10181D01*
Y8907D01*
X1290Y8891D01*
X1294Y8875D01*
X1300Y8860D01*
X1309Y8846D01*
X1319Y8834D01*
X2185Y7968D01*
X2197Y7957D01*
X2211Y7949D01*
X2226Y7943D01*
X2242Y7939D01*
X2258Y7938D01*
X2439D01*
X2445Y7932D01*
X2460Y7922D01*
X2477Y7914D01*
X2494Y7908D01*
X2512Y7904D01*
X2530Y7903D01*
X2548Y7904D01*
X2565Y7908D01*
X2582Y7914D01*
X2599Y7922D01*
X2614Y7932D01*
X2627Y7944D01*
X2639Y7957D01*
X2649Y7972D01*
X2657Y7988D01*
X2663Y8006D01*
X2666Y8023D01*
X2667Y8024D01*
X2669Y8031D01*
X2692Y8056D01*
X2750Y8058D01*
X2839Y7969D01*
Y6272D01*
X2841Y6256D01*
X2844Y6240D01*
X2851Y6225D01*
X2859Y6211D01*
X2870Y6199D01*
X4053Y5015D01*
X4066Y5005D01*
X4079Y4996D01*
X4094Y4990D01*
X4110Y4986D01*
X4126Y4985D01*
X5996D01*
X6006Y4978D01*
X6035Y4935D01*
X6035Y4935D01*
X6033Y4911D01*
X6035Y4888D01*
X6039Y4865D01*
X6047Y4843D01*
X6057Y4823D01*
X6070Y4803D01*
X6085Y4786D01*
X6103Y4771D01*
X6107Y4768D01*
Y4678D01*
X6108Y4661D01*
X6112Y4645D01*
X6118Y4630D01*
X6127Y4617D01*
X6137Y4604D01*
X6620Y4121D01*
X6633Y4111D01*
X6646Y4102D01*
X6649Y4098D01*
X6658Y4066D01*
X6656Y4046D01*
X6641Y4029D01*
X6628Y4009D01*
X6617Y3988D01*
X6610Y3966D01*
X6605Y3944D01*
X6604Y3920D01*
X6605Y3897D01*
X6610Y3874D01*
X6617Y3852D01*
X6628Y3832D01*
X6641Y3812D01*
X6654Y3797D01*
X6641Y3782D01*
X6628Y3763D01*
X6617Y3742D01*
X6610Y3720D01*
X6605Y3698D01*
X6604Y3674D01*
X6605Y3651D01*
X6610Y3628D01*
X6617Y3606D01*
X6628Y3586D01*
X6641Y3566D01*
X6655Y3550D01*
X6641Y3533D01*
X6628Y3514D01*
X6617Y3493D01*
X6610Y3471D01*
X6605Y3448D01*
X6604Y3425D01*
X6605Y3402D01*
X6610Y3379D01*
X6617Y3357D01*
X6628Y3336D01*
X6641Y3317D01*
X6656Y3300D01*
X6673Y3284D01*
X6693Y3271D01*
X6714Y3261D01*
X6736Y3254D01*
X6758Y3249D01*
X6781Y3248D01*
X6805Y3249D01*
X6813Y3251D01*
X6817Y3232D01*
X6824Y3210D01*
X6834Y3189D01*
X6847Y3169D01*
X6863Y3152D01*
X6880Y3137D01*
X6899Y3124D01*
X6920Y3114D01*
X6942Y3106D01*
X6965Y3102D01*
X6988Y3100D01*
X7010Y3101D01*
X7014Y3084D01*
X7021Y3062D01*
X7031Y3041D01*
X7044Y3022D01*
X7060Y3004D01*
X7077Y2989D01*
X7089Y2981D01*
X7093Y2953D01*
X7089Y2924D01*
X7077Y2916D01*
X7060Y2901D01*
X7044Y2884D01*
X7031Y2864D01*
X7021Y2844D01*
X7014Y2822D01*
X7009Y2799D01*
X7007Y2776D01*
X7009Y2752D01*
X7014Y2730D01*
X7021Y2708D01*
X7031Y2687D01*
X7044Y2668D01*
X7060Y2650D01*
X7077Y2635D01*
X7089Y2627D01*
X7093Y2598D01*
X7089Y2570D01*
X7077Y2562D01*
X7060Y2547D01*
X7044Y2529D01*
X7031Y2510D01*
X7021Y2489D01*
X7014Y2467D01*
X7009Y2444D01*
X7007Y2421D01*
X7009Y2398D01*
X7014Y2375D01*
X7021Y2353D01*
X7031Y2332D01*
X7044Y2313D01*
X7060Y2296D01*
X7077Y2280D01*
X7096Y2268D01*
X7117Y2257D01*
X7139Y2250D01*
X7162Y2245D01*
X7185Y2244D01*
X7208Y2245D01*
X7231Y2250D01*
X7253Y2257D01*
X7274Y2268D01*
X7293Y2280D01*
X7311Y2296D01*
X7326Y2313D01*
X7329Y2318D01*
X7501D01*
X7517Y2319D01*
X7533Y2323D01*
X7548Y2329D01*
X7562Y2337D01*
X7574Y2348D01*
X7977Y2750D01*
X8023Y2726D01*
X8022Y2724D01*
X8021Y2701D01*
X8022Y2678D01*
X8027Y2655D01*
X8034Y2633D01*
X8045Y2612D01*
X8057Y2593D01*
X8073Y2575D01*
X8090Y2560D01*
X8110Y2547D01*
X8130Y2537D01*
X8152Y2529D01*
X8175Y2525D01*
X8198Y2523D01*
X8222Y2525D01*
X8227Y2526D01*
X8265Y2503D01*
X8277Y2488D01*
Y2092D01*
X8279Y2075D01*
X8282Y2060D01*
X8289Y2044D01*
X8297Y2031D01*
X8308Y2018D01*
X8568Y1758D01*
Y1404D01*
X8562Y1397D01*
X8552Y1382D01*
X8544Y1366D01*
X8541Y1358D01*
X8519Y1346D01*
X8486Y1342D01*
X8483Y1344D01*
X8470Y1352D01*
X8455Y1358D01*
X8439Y1362D01*
X8422Y1364D01*
X7112D01*
X7112Y1364D01*
X7111Y1364D01*
X7103Y1377D01*
X7091Y1391D01*
X7077Y1403D01*
X7062Y1413D01*
X7046Y1421D01*
X7029Y1427D01*
X7011Y1430D01*
X6993Y1431D01*
X6975Y1430D01*
X6957Y1427D01*
X6940Y1421D01*
X6924Y1413D01*
X6909Y1403D01*
X6895Y1391D01*
X6884Y1377D01*
X6874Y1362D01*
X6866Y1346D01*
X6860Y1329D01*
X6856Y1311D01*
X6855Y1293D01*
X6856Y1275D01*
X6860Y1258D01*
X6866Y1240D01*
X6874Y1224D01*
X6884Y1209D01*
X6895Y1196D01*
X6909Y1184D01*
X6924Y1174D01*
X6940Y1166D01*
X6957Y1160D01*
X6975Y1156D01*
X6993Y1155D01*
X7011Y1156D01*
X7029Y1160D01*
X7036Y1162D01*
X7039Y1161D01*
X7055Y1157D01*
X7071Y1156D01*
X8380D01*
X8448Y1088D01*
X8460Y1078D01*
X8474Y1069D01*
X8489Y1063D01*
X8505Y1059D01*
X8521Y1058D01*
X8583D01*
X8602Y1012D01*
X8598Y1007D01*
X8587Y995D01*
X8579Y981D01*
X8573Y966D01*
X8569Y950D01*
X8568Y934D01*
Y904D01*
X8562Y897D01*
X8552Y882D01*
X8544Y866D01*
X8538Y849D01*
X8534Y831D01*
X8533Y813D01*
X8534Y795D01*
X8538Y777D01*
X8544Y760D01*
X8552Y744D01*
X8562Y729D01*
X8574Y715D01*
X8587Y703D01*
X8602Y693D01*
X8618Y685D01*
X8636Y680D01*
X8653Y676D01*
X8671Y675D01*
X8689Y676D01*
X8707Y680D01*
X8724Y685D01*
X8740Y693D01*
X8755Y703D01*
X8769Y715D01*
X8781Y729D01*
X8791Y744D01*
X8799Y760D01*
X8805Y777D01*
X8808Y795D01*
X8809Y813D01*
X8808Y831D01*
X8805Y849D01*
X8799Y866D01*
X8791Y882D01*
X8781Y897D01*
X9394Y1510D01*
X9405Y1523D01*
X9413Y1537D01*
X9420Y1552D01*
X9423Y1567D01*
X9425Y1584D01*
Y1990D01*
X9431Y2000D01*
X9475Y2029D01*
X9475Y2029D01*
X9498Y2027D01*
X9521Y2029D01*
X9544Y2033D01*
X9566Y2041D01*
X9587Y2051D01*
X9606Y2064D01*
X9624Y2079D01*
X9639Y2097D01*
X9652Y2116D01*
X9662Y2137D01*
X9670Y2159D01*
X9674Y2182D01*
X9676Y2205D01*
X9674Y2228D01*
X9673Y2233D01*
X9768Y2328D01*
X9779Y2341D01*
X9787Y2355D01*
X9794Y2370D01*
X9797Y2386D01*
X9799Y2402D01*
Y2804D01*
X9845Y2823D01*
X9951Y2717D01*
Y2589D01*
X9952Y2573D01*
X9956Y2557D01*
X9962Y2542D01*
X9970Y2528D01*
X9981Y2516D01*
X10365Y2132D01*
X10370Y2080D01*
X10355Y2063D01*
X10342Y2044D01*
X10332Y2023D01*
X10324Y2001D01*
X10320Y1978D01*
X10318Y1955D01*
X10320Y1932D01*
X10324Y1909D01*
X10332Y1887D01*
X10342Y1866D01*
X10355Y1847D01*
X10370Y1829D01*
X10388Y1814D01*
X10407Y1801D01*
X10428Y1791D01*
X10450Y1783D01*
X10473Y1779D01*
X10496Y1777D01*
X10519Y1779D01*
X10542Y1783D01*
X10564Y1791D01*
X10585Y1801D01*
X10604Y1814D01*
X10622Y1829D01*
X10637Y1847D01*
X10650Y1866D01*
X10660Y1887D01*
X10667Y1909D01*
X10672Y1932D01*
X10673Y1941D01*
X10677Y1958D01*
X10706Y1985D01*
X10721Y1989D01*
X10732Y1989D01*
X10755Y1994D01*
X10777Y2001D01*
X10797Y2012D01*
X10817Y2025D01*
X10834Y2040D01*
X10850Y2057D01*
X10862Y2077D01*
X10873Y2097D01*
X10880Y2119D01*
X10885Y2142D01*
X10886Y2165D01*
X10885Y2183D01*
X10888Y2187D01*
X10897Y2194D01*
X10931Y2211D01*
X10935Y2208D01*
X10956Y2198D01*
X10978Y2191D01*
X11000Y2186D01*
X11024Y2185D01*
X11047Y2186D01*
X11070Y2191D01*
X11092Y2198D01*
X11112Y2208D01*
X11132Y2221D01*
X11149Y2237D01*
X11164Y2254D01*
X11177Y2273D01*
X11188Y2294D01*
X11195Y2316D01*
X11200Y2339D01*
X11201Y2362D01*
X11200Y2385D01*
X11196Y2403D01*
X11217Y2407D01*
X11239Y2415D01*
X11260Y2425D01*
X11279Y2438D01*
X11297Y2453D01*
X11312Y2471D01*
X11325Y2490D01*
X11335Y2511D01*
X11343Y2533D01*
X11347Y2556D01*
X11349Y2579D01*
X11347Y2602D01*
X11347Y2603D01*
X11366Y2617D01*
X11394Y2624D01*
X11398Y2619D01*
X11567Y2450D01*
X11566Y2444D01*
X11565Y2421D01*
X11566Y2398D01*
X11571Y2375D01*
X11578Y2353D01*
X11588Y2332D01*
X11601Y2313D01*
X11617Y2296D01*
X11634Y2280D01*
X11653Y2268D01*
X11674Y2257D01*
X11696Y2250D01*
X11719Y2245D01*
X11742Y2244D01*
X11765Y2245D01*
X11788Y2250D01*
X11810Y2257D01*
X11831Y2268D01*
X11850Y2280D01*
X11868Y2296D01*
X11883Y2313D01*
X11896Y2332D01*
X11906Y2353D01*
X11914Y2375D01*
X11918Y2398D01*
X11920Y2421D01*
X11918Y2444D01*
X11914Y2467D01*
X11906Y2489D01*
X11896Y2510D01*
X11883Y2529D01*
X11870Y2544D01*
X11883Y2559D01*
X11896Y2579D01*
X11906Y2599D01*
X11914Y2621D01*
X11918Y2644D01*
X11920Y2667D01*
X11918Y2691D01*
X11914Y2713D01*
X11906Y2735D01*
X11896Y2756D01*
X11883Y2775D01*
X11870Y2790D01*
X11883Y2805D01*
X11896Y2825D01*
X11906Y2845D01*
X11914Y2867D01*
X11918Y2890D01*
X11920Y2913D01*
X11918Y2937D01*
X11914Y2959D01*
X11906Y2981D01*
X11896Y3002D01*
X11883Y3021D01*
X11868Y3039D01*
X11850Y3054D01*
X11831Y3067D01*
X11810Y3077D01*
X11788Y3085D01*
X11765Y3089D01*
X11742Y3091D01*
X11719Y3089D01*
X11714Y3088D01*
X11456Y3346D01*
X11444Y3356D01*
X11430Y3365D01*
X11415Y3371D01*
X11399Y3375D01*
X11383Y3376D01*
X11093D01*
X11085Y3380D01*
X11054Y3420D01*
X11052Y3426D01*
X11054Y3445D01*
X11052Y3462D01*
X11069Y3480D01*
X11078Y3487D01*
X11097Y3496D01*
X11115Y3490D01*
X11138Y3485D01*
X11161Y3484D01*
X11185Y3485D01*
X11207Y3490D01*
X11229Y3497D01*
X11250Y3508D01*
X11270Y3521D01*
X11287Y3536D01*
X11302Y3553D01*
X11315Y3573D01*
X11330Y3596D01*
X11352Y3588D01*
X11374Y3584D01*
X11398Y3582D01*
X11421Y3584D01*
X11444Y3588D01*
X11466Y3596D01*
X11486Y3606D01*
X11506Y3619D01*
X11523Y3634D01*
X11538Y3652D01*
X11551Y3671D01*
X11562Y3692D01*
X11588Y3687D01*
X11611Y3682D01*
X11634Y3681D01*
X11657Y3682D01*
X11680Y3687D01*
X11702Y3694D01*
X11723Y3705D01*
X11742Y3717D01*
X11759Y3733D01*
X11775Y3750D01*
X11788Y3769D01*
X11798Y3790D01*
X11805Y3812D01*
X11810Y3835D01*
X11811Y3858D01*
X11810Y3881D01*
X11805Y3904D01*
X11798Y3926D01*
X11788Y3947D01*
X11775Y3966D01*
X11759Y3984D01*
X11742Y3999D01*
X11723Y4012D01*
X11702Y4022D01*
X11680Y4030D01*
X11657Y4034D01*
X11634Y4036D01*
X11611Y4034D01*
X11588Y4030D01*
X11566Y4022D01*
X11545Y4012D01*
X11526Y3999D01*
X11508Y3984D01*
X11493Y3966D01*
X11480Y3947D01*
X11466Y3924D01*
X11444Y3931D01*
X11421Y3936D01*
X11398Y3937D01*
X11374Y3936D01*
X11352Y3931D01*
X11330Y3924D01*
X11309Y3914D01*
X11290Y3901D01*
X11272Y3885D01*
X11257Y3868D01*
X11244Y3849D01*
X11229Y3825D01*
X11207Y3833D01*
X11185Y3837D01*
X11161Y3839D01*
X11138Y3837D01*
X11115Y3833D01*
X11093Y3825D01*
X11073Y3815D01*
X11053Y3802D01*
X11036Y3787D01*
X11021Y3769D01*
X11008Y3750D01*
X10997Y3729D01*
X10990Y3707D01*
X10985Y3685D01*
X10984Y3661D01*
X10985Y3644D01*
X10968Y3626D01*
X10959Y3620D01*
X10940Y3610D01*
X10922Y3616D01*
X10899Y3621D01*
X10876Y3622D01*
X10853Y3621D01*
X10830Y3616D01*
X10808Y3609D01*
X10787Y3599D01*
X10768Y3586D01*
X10750Y3570D01*
X10735Y3553D01*
X10722Y3534D01*
X10712Y3513D01*
X10704Y3491D01*
X10700Y3468D01*
X10698Y3445D01*
X10700Y3426D01*
X10698Y3420D01*
X10667Y3380D01*
X10659Y3376D01*
X10544D01*
X10530Y3387D01*
X10502Y3425D01*
X10501Y3443D01*
X10498Y3461D01*
X10492Y3478D01*
X10484Y3494D01*
X10474Y3509D01*
X10462Y3523D01*
X10448Y3535D01*
X10433Y3545D01*
X10417Y3553D01*
X10400Y3559D01*
X10382Y3562D01*
X10364Y3563D01*
X10346Y3562D01*
X10329Y3559D01*
X10311Y3553D01*
X10295Y3545D01*
X10286Y3538D01*
X10276Y3545D01*
X10260Y3553D01*
X10243Y3559D01*
X10225Y3562D01*
X10207Y3563D01*
X10189Y3562D01*
X10171Y3559D01*
X10154Y3553D01*
X10138Y3545D01*
X10128Y3538D01*
X10118Y3545D01*
X10102Y3553D01*
X10085Y3559D01*
X10067Y3562D01*
X10049Y3563D01*
X10031Y3562D01*
X10014Y3559D01*
X9997Y3553D01*
X9980Y3545D01*
X9971Y3538D01*
X9961Y3545D01*
X9945Y3553D01*
X9928Y3559D01*
X9910Y3562D01*
X9892Y3563D01*
X9874Y3562D01*
X9856Y3559D01*
X9839Y3553D01*
X9823Y3545D01*
X9813Y3538D01*
X9803Y3545D01*
X9787Y3553D01*
X9770Y3559D01*
X9752Y3562D01*
X9734Y3563D01*
X9716Y3562D01*
X9699Y3559D01*
X9682Y3553D01*
X9665Y3545D01*
X9656Y3538D01*
X9646Y3545D01*
X9630Y3553D01*
X9613Y3559D01*
X9595Y3562D01*
X9577Y3563D01*
X9559Y3562D01*
X9541Y3559D01*
X9524Y3553D01*
X9508Y3545D01*
X9498Y3538D01*
X9488Y3545D01*
X9472Y3553D01*
X9455Y3559D01*
X9437Y3562D01*
X9419Y3563D01*
X9401Y3562D01*
X9384Y3559D01*
X9367Y3553D01*
X9350Y3545D01*
X9341Y3538D01*
X9331Y3545D01*
X9315Y3553D01*
X9298Y3559D01*
X9280Y3562D01*
X9262Y3563D01*
X9244Y3562D01*
X9226Y3559D01*
X9209Y3553D01*
X9193Y3545D01*
X9183Y3538D01*
X9174Y3545D01*
X9157Y3553D01*
X9140Y3559D01*
X9123Y3562D01*
X9104Y3563D01*
X9086Y3562D01*
X9069Y3559D01*
X9052Y3553D01*
X9035Y3545D01*
X9026Y3538D01*
X9016Y3545D01*
X9000Y3553D01*
X8983Y3559D01*
X8965Y3562D01*
X8947Y3563D01*
X8929Y3562D01*
X8911Y3559D01*
X8894Y3553D01*
X8878Y3545D01*
X8868Y3538D01*
X8859Y3545D01*
X8842Y3553D01*
X8825Y3559D01*
X8808Y3562D01*
X8790Y3563D01*
X8771Y3562D01*
X8754Y3559D01*
X8737Y3553D01*
X8720Y3545D01*
X8711Y3538D01*
X8701Y3545D01*
X8685Y3553D01*
X8668Y3559D01*
X8650Y3562D01*
X8632Y3563D01*
X8614Y3562D01*
X8596Y3559D01*
X8579Y3553D01*
X8563Y3545D01*
X8553Y3538D01*
X8544Y3545D01*
X8527Y3553D01*
X8510Y3559D01*
X8493Y3562D01*
X8475Y3563D01*
X8457Y3562D01*
X8439Y3559D01*
X8422Y3553D01*
X8406Y3545D01*
X8396Y3538D01*
X8386Y3545D01*
X8370Y3553D01*
X8353Y3559D01*
X8335Y3562D01*
X8317Y3563D01*
X8298Y3583D01*
X8297Y3601D01*
X8293Y3619D01*
X8287Y3636D01*
X8279Y3652D01*
X8273Y3662D01*
X8279Y3671D01*
X8287Y3687D01*
X8293Y3705D01*
X8297Y3722D01*
X8298Y3740D01*
X8297Y3758D01*
X8293Y3776D01*
X8287Y3793D01*
X8279Y3809D01*
X8273Y3819D01*
X8279Y3829D01*
X8287Y3845D01*
X8293Y3862D01*
X8297Y3880D01*
X8298Y3898D01*
X8297Y3916D01*
X8293Y3934D01*
X8287Y3951D01*
X8279Y3967D01*
X8273Y3977D01*
X8279Y3986D01*
X8287Y4002D01*
X8293Y4020D01*
X8297Y4037D01*
X8298Y4055D01*
X8297Y4073D01*
X8293Y4091D01*
X8287Y4108D01*
X8279Y4124D01*
X8273Y4134D01*
X8279Y4144D01*
X8287Y4160D01*
X8293Y4177D01*
X8297Y4195D01*
X8298Y4213D01*
X8297Y4231D01*
X8293Y4248D01*
X8287Y4266D01*
X8279Y4282D01*
X8273Y4291D01*
X8279Y4301D01*
X8287Y4317D01*
X8293Y4334D01*
X8297Y4352D01*
X8298Y4370D01*
X8297Y4388D01*
X8293Y4406D01*
X8287Y4423D01*
X8279Y4439D01*
X8269Y4454D01*
X8257Y4468D01*
X8244Y4480D01*
X8229Y4490D01*
X8212Y4498D01*
X8204Y4528D01*
X8212Y4558D01*
X8229Y4566D01*
X8244Y4576D01*
X8257Y4588D01*
X8269Y4601D01*
X8279Y4616D01*
X8287Y4632D01*
X8293Y4649D01*
X8297Y4667D01*
X8298Y4685D01*
X8297Y4703D01*
X8293Y4721D01*
X8287Y4738D01*
X8279Y4754D01*
X8273Y4764D01*
X8279Y4774D01*
X8287Y4790D01*
X8293Y4807D01*
X8297Y4825D01*
X8298Y4843D01*
X8297Y4861D01*
X8293Y4878D01*
X8287Y4896D01*
X8279Y4912D01*
X8269Y4927D01*
X8257Y4940D01*
X8244Y4952D01*
X8229Y4962D01*
X8212Y4970D01*
X8195Y4976D01*
X8178Y4980D01*
X8160Y4981D01*
X8142Y4980D01*
X8124Y4976D01*
X8107Y4970D01*
X8091Y4962D01*
X8076Y4952D01*
X8062Y4940D01*
X8050Y4927D01*
X8040Y4912D01*
X8032Y4896D01*
X8030Y4890D01*
X7993Y4853D01*
X7422D01*
X7414Y4857D01*
X7382Y4896D01*
X7381Y4903D01*
X7382Y4921D01*
X7381Y4945D01*
X7376Y4967D01*
X7369Y4989D01*
X7359Y5010D01*
X7346Y5030D01*
X7330Y5047D01*
X7313Y5062D01*
X7294Y5075D01*
X7273Y5085D01*
X7251Y5093D01*
X7228Y5097D01*
X7205Y5099D01*
X7182Y5097D01*
X7159Y5093D01*
X7137Y5085D01*
X7116Y5075D01*
X7097Y5062D01*
X7079Y5047D01*
X7066Y5032D01*
X7063Y5029D01*
X7012Y5022D01*
X7003Y5025D01*
X6557Y5470D01*
X6559Y5476D01*
X6564Y5498D01*
X6565Y5522D01*
X6564Y5545D01*
X6559Y5568D01*
X6552Y5590D01*
X6542Y5610D01*
X6529Y5630D01*
X6513Y5647D01*
X6496Y5663D01*
X6477Y5675D01*
X6456Y5686D01*
X6434Y5693D01*
X6411Y5698D01*
X6388Y5699D01*
X6365Y5698D01*
X6342Y5693D01*
X6338Y5692D01*
X6319Y5704D01*
X6302Y5725D01*
X6300Y5731D01*
X6303Y5741D01*
X6308Y5764D01*
X6309Y5787D01*
X6308Y5811D01*
X6303Y5833D01*
X6296Y5855D01*
X6286Y5876D01*
X6273Y5895D01*
X6257Y5913D01*
X6240Y5928D01*
X6221Y5941D01*
X6200Y5951D01*
X6178Y5959D01*
X6155Y5963D01*
X6132Y5965D01*
X6109Y5963D01*
X6086Y5959D01*
X6064Y5951D01*
X6054Y5946D01*
X6023Y5958D01*
X6004Y5975D01*
Y6831D01*
X6422Y7250D01*
X6432Y7262D01*
X6441Y7276D01*
X6447Y7291D01*
X6451Y7307D01*
X6452Y7323D01*
Y7360D01*
X6458Y7367D01*
X6468Y7382D01*
X6476Y7398D01*
X6482Y7415D01*
X6485Y7433D01*
X6487Y7451D01*
X6485Y7469D01*
X6484Y7478D01*
X6499Y7507D01*
X6513Y7524D01*
X6520Y7528D01*
X6794D01*
X6830Y7543D01*
X6857Y7570D01*
X6872Y7607D01*
Y8116D01*
X6882Y8127D01*
X6922Y8146D01*
X6927Y8143D01*
X6949Y8136D01*
X6972Y8131D01*
X6995Y8130D01*
X7019Y8131D01*
X7041Y8136D01*
X7063Y8143D01*
X7084Y8153D01*
X7103Y8166D01*
X7121Y8182D01*
X7136Y8199D01*
X7149Y8218D01*
X7159Y8239D01*
X7167Y8261D01*
X7171Y8284D01*
X7173Y8307D01*
X7171Y8330D01*
X7167Y8353D01*
X7159Y8375D01*
X7149Y8396D01*
X7136Y8415D01*
X7121Y8433D01*
X7103Y8448D01*
X7084Y8461D01*
X7063Y8471D01*
X7041Y8479D01*
X7019Y8483D01*
X6995Y8485D01*
X6972Y8483D01*
X6949Y8479D01*
X6927Y8471D01*
X6907Y8461D01*
X6887Y8448D01*
X6872Y8435D01*
X6857Y8448D01*
X6838Y8461D01*
X6817Y8471D01*
X6795Y8479D01*
X6773Y8483D01*
X6749Y8485D01*
X6726Y8483D01*
X6703Y8479D01*
X6681Y8471D01*
X6661Y8461D01*
X6641Y8448D01*
X6626Y8435D01*
X6611Y8448D01*
X6592Y8461D01*
X6571Y8471D01*
X6549Y8479D01*
X6526Y8483D01*
X6503Y8485D01*
X6480Y8483D01*
X6457Y8479D01*
X6435Y8471D01*
X6414Y8461D01*
X6395Y8448D01*
X6380Y8435D01*
X6365Y8448D01*
X6346Y8461D01*
X6325Y8471D01*
X6303Y8479D01*
X6280Y8483D01*
X6257Y8485D01*
X6234Y8483D01*
X6211Y8479D01*
X6189Y8471D01*
X6168Y8461D01*
X6149Y8448D01*
X6132Y8433D01*
X6116Y8415D01*
X6103Y8396D01*
X6093Y8375D01*
X6086Y8353D01*
X6081Y8330D01*
X6080Y8307D01*
X6081Y8284D01*
X6086Y8261D01*
X6090Y8249D01*
X6085Y8236D01*
Y7607D01*
X6100Y7570D01*
X6128Y7543D01*
X6164Y7528D01*
X6177D01*
X6184Y7524D01*
X6198Y7507D01*
X6213Y7478D01*
X6212Y7469D01*
X6210Y7451D01*
X6212Y7433D01*
X6215Y7415D01*
X6221Y7398D01*
X6229Y7382D01*
X6239Y7367D01*
X6242Y7363D01*
X5827Y6948D01*
X5816Y6935D01*
X5808Y6921D01*
X5801Y6906D01*
X5798Y6891D01*
X5796Y6874D01*
Y5826D01*
X5684Y5714D01*
X4344D01*
X3578Y6480D01*
Y7271D01*
X3584Y7278D01*
X3594Y7293D01*
X3602Y7309D01*
X3608Y7326D01*
X3611Y7344D01*
X3613Y7362D01*
X3611Y7380D01*
X3608Y7398D01*
X3602Y7415D01*
X3594Y7431D01*
X3584Y7446D01*
X3572Y7460D01*
X3558Y7472D01*
X3543Y7482D01*
X3527Y7490D01*
X3510Y7496D01*
X3492Y7499D01*
X3474Y7500D01*
X3445Y7545D01*
Y8411D01*
X3444Y8427D01*
X3440Y8443D01*
X3434Y8458D01*
X3425Y8472D01*
X3415Y8484D01*
X2938Y8961D01*
X2925Y8972D01*
X2912Y8980D01*
X2897Y8986D01*
X2881Y8990D01*
X2864Y8991D01*
X2151D01*
X1989Y9154D01*
Y10057D01*
X1992Y10063D01*
X2029Y10092D01*
X2039Y10094D01*
X2055Y10091D01*
X2077Y10090D01*
X2470D01*
X2493Y10091D01*
X2514Y10095D01*
X2536Y10101D01*
X2556Y10110D01*
X2575Y10120D01*
X2593Y10133D01*
X2610Y10148D01*
X2625Y10164D01*
X2637Y10182D01*
X2648Y10202D01*
X2657Y10222D01*
X2663Y10244D01*
X2666Y10265D01*
X2668Y10287D01*
X2666Y10309D01*
X2663Y10331D01*
X2657Y10353D01*
X2648Y10373D01*
X2637Y10392D01*
X2625Y10410D01*
X2610Y10427D01*
X2593Y10442D01*
X2575Y10454D01*
X2556Y10465D01*
X2536Y10473D01*
X2514Y10480D01*
X2493Y10483D01*
X2470Y10485D01*
X2077D01*
X2055Y10483D01*
X2037Y10480D01*
X2030Y10481D01*
X1983Y10497D01*
X1977Y10512D01*
X1969Y10526D01*
X1958Y10538D01*
X1939Y10557D01*
X1963Y10604D01*
X1965Y10603D01*
X1988Y10602D01*
X2011Y10603D01*
X2034Y10607D01*
X2056Y10614D01*
X2077Y10622D01*
X2097Y10633D01*
X2116Y10647D01*
X2133Y10662D01*
X2148Y10679D01*
X2162Y10698D01*
X2173Y10718D01*
X2182Y10739D01*
X2188Y10761D01*
X2192Y10784D01*
X2193Y10807D01*
X2192Y10830D01*
X2188Y10853D01*
X2182Y10875D01*
X2173Y10896D01*
X2162Y10916D01*
X2148Y10935D01*
X2133Y10952D01*
X2116Y10967D01*
X2097Y10981D01*
X2077Y10992D01*
X2056Y11001D01*
X2034Y11007D01*
X2011Y11011D01*
X1988Y11012D01*
X1965Y11011D01*
X1946Y11008D01*
X1942Y11011D01*
X1926Y11058D01*
X2069Y11201D01*
X2170D01*
X2186Y11202D01*
X2202Y11206D01*
X2217Y11212D01*
X2230Y11221D01*
X2243Y11231D01*
X2416Y11404D01*
X2426Y11417D01*
X2435Y11430D01*
X2441Y11445D01*
X2445Y11461D01*
X2446Y11477D01*
Y12125D01*
X2445Y12141D01*
X2441Y12157D01*
X2435Y12172D01*
X2426Y12186D01*
X2416Y12198D01*
X2260Y12354D01*
X2261Y12359D01*
X2263Y12382D01*
X2261Y12405D01*
X2257Y12428D01*
X2249Y12450D01*
X2239Y12471D01*
X2226Y12490D01*
X2211Y12507D01*
X2193Y12523D01*
X2174Y12536D01*
X2153Y12546D01*
X2131Y12553D01*
X2108Y12558D01*
X2085Y12559D01*
X2062Y12558D01*
X2039Y12553D01*
X2017Y12546D01*
X1996Y12536D01*
X1977Y12523D01*
X1960Y12507D01*
X1944Y12490D01*
X1931Y12471D01*
X1921Y12450D01*
X1914Y12428D01*
X1909Y12405D01*
X1908Y12382D01*
X1909Y12359D01*
X1914Y12336D01*
X1921Y12314D01*
X1931Y12293D01*
X1944Y12274D01*
X1944Y12274D01*
X1960Y12256D01*
X1951Y12232D01*
X1936Y12214D01*
X1923Y12195D01*
X1913Y12174D01*
X1905Y12152D01*
X1901Y12129D01*
X1899Y12106D01*
X1901Y12083D01*
X1905Y12060D01*
X1913Y12038D01*
X1923Y12018D01*
X1936Y11998D01*
X1951Y11981D01*
X1969Y11965D01*
X1988Y11953D01*
X2009Y11942D01*
X2031Y11935D01*
X2054Y11930D01*
X2077Y11929D01*
X2098Y11930D01*
X2132Y11900D01*
X2136Y11896D01*
Y11801D01*
X2132Y11794D01*
X2092Y11762D01*
X2086Y11761D01*
X2067Y11762D01*
X2044Y11761D01*
X2021Y11756D01*
X1999Y11749D01*
X1978Y11738D01*
X1959Y11725D01*
X1941Y11710D01*
X1926Y11693D01*
X1913Y11673D01*
X1903Y11653D01*
X1895Y11631D01*
X1891Y11608D01*
X1890Y11594D01*
X1856Y11567D01*
X1811Y11587D01*
Y12936D01*
X1858Y12958D01*
X1861Y12959D01*
X1879Y12946D01*
X1899Y12935D01*
X1920Y12927D01*
X1943Y12920D01*
X1965Y12916D01*
X1988Y12915D01*
X2011Y12916D01*
X2034Y12920D01*
X2056Y12927D01*
X2077Y12935D01*
X2097Y12946D01*
X2116Y12960D01*
X2133Y12975D01*
X2148Y12992D01*
X2162Y13011D01*
X2173Y13031D01*
X2182Y13052D01*
X2188Y13074D01*
X2192Y13097D01*
X2193Y13120D01*
Y13218D01*
X2192Y13241D01*
X2188Y13264D01*
X2182Y13286D01*
X2173Y13307D01*
X2162Y13328D01*
X2148Y13346D01*
X2133Y13363D01*
X2116Y13379D01*
X2097Y13392D01*
X2077Y13403D01*
X2056Y13412D01*
X2034Y13418D01*
X2011Y13422D01*
X1988Y13424D01*
X1965Y13422D01*
X1943Y13418D01*
X1920Y13412D01*
X1899Y13403D01*
X1879Y13392D01*
X1861Y13380D01*
X1858Y13380D01*
X1811Y13402D01*
Y14120D01*
X1810Y14137D01*
X1806Y14153D01*
X1800Y14168D01*
X1792Y14181D01*
X1781Y14194D01*
X934Y15041D01*
X931Y15057D01*
X942Y15103D01*
X945Y15105D01*
X962Y15121D01*
X977Y15138D01*
X990Y15157D01*
X1001Y15178D01*
X1008Y15200D01*
X1013Y15223D01*
X1014Y15246D01*
X1013Y15269D01*
X1008Y15292D01*
X1003Y15306D01*
X1003Y15319D01*
X1024Y15364D01*
X1029Y15367D01*
X1050Y15377D01*
X1072Y15391D01*
X1093Y15406D01*
X1112Y15423D01*
X1129Y15443D01*
X1145Y15464D01*
X1158Y15486D01*
X1169Y15509D01*
X1178Y15534D01*
X1184Y15559D01*
X1188Y15584D01*
X1189Y15610D01*
X1188Y15636D01*
X1184Y15662D01*
X1178Y15687D01*
X1169Y15711D01*
X1158Y15735D01*
X1145Y15757D01*
X1129Y15778D01*
X1112Y15797D01*
X1093Y15814D01*
X1072Y15830D01*
X1050Y15843D01*
X1026Y15854D01*
X1002Y15863D01*
X977Y15869D01*
X951Y15873D01*
X925Y15874D01*
X899Y15873D01*
X874Y15869D01*
X849Y15863D01*
X824Y15854D01*
X801Y15843D01*
X778Y15830D01*
X764Y15819D01*
X742Y15824D01*
X714Y15842D01*
Y16081D01*
X720Y16086D01*
X764Y16103D01*
X768Y16099D01*
X787Y16086D01*
X808Y16076D01*
X830Y16069D01*
X853Y16064D01*
X876Y16063D01*
X899Y16064D01*
X922Y16069D01*
X944Y16076D01*
X965Y16086D01*
X984Y16099D01*
X1002Y16115D01*
X1017Y16132D01*
X1030Y16151D01*
X1040Y16172D01*
X1047Y16194D01*
X1052Y16217D01*
X1054Y16240D01*
X1052Y16263D01*
X1047Y16286D01*
X1040Y16308D01*
X1030Y16329D01*
X1017Y16348D01*
X1002Y16366D01*
X984Y16381D01*
X965Y16394D01*
X944Y16404D01*
X922Y16412D01*
X899Y16416D01*
X876Y16418D01*
X853Y16416D01*
X830Y16412D01*
X808Y16404D01*
X787Y16394D01*
X768Y16381D01*
X764Y16377D01*
X720Y16394D01*
X714Y16399D01*
Y16514D01*
X720Y16519D01*
X764Y16536D01*
X768Y16532D01*
X787Y16519D01*
X808Y16509D01*
X830Y16502D01*
X853Y16497D01*
X876Y16496D01*
X899Y16497D01*
X922Y16502D01*
X944Y16509D01*
X965Y16519D01*
X984Y16532D01*
X1002Y16548D01*
X1017Y16565D01*
X1030Y16584D01*
X1040Y16605D01*
X1047Y16627D01*
X1052Y16650D01*
X1054Y16673D01*
X1052Y16696D01*
X1047Y16719D01*
X1040Y16741D01*
X1030Y16762D01*
X1017Y16781D01*
X1002Y16799D01*
X984Y16814D01*
X965Y16827D01*
X944Y16837D01*
X922Y16845D01*
X899Y16849D01*
X876Y16851D01*
X853Y16849D01*
X830Y16845D01*
X808Y16837D01*
X787Y16827D01*
X768Y16814D01*
X764Y16811D01*
X720Y16827D01*
X714Y16832D01*
Y17221D01*
X1067Y17574D01*
X1078Y17587D01*
X1086Y17601D01*
X1093Y17616D01*
X1096Y17631D01*
X1098Y17648D01*
Y17695D01*
X1103Y17699D01*
X1121Y17714D01*
X1136Y17731D01*
X1149Y17751D01*
X1159Y17772D01*
X1167Y17794D01*
X1171Y17816D01*
X1173Y17840D01*
X1171Y17863D01*
X1167Y17886D01*
X1159Y17908D01*
X1149Y17928D01*
X1136Y17948D01*
X1121Y17965D01*
X1103Y17980D01*
X1084Y17993D01*
X1063Y18004D01*
X1061Y18004D01*
X1054Y18036D01*
X1056Y18058D01*
X1072Y18068D01*
X1093Y18083D01*
X1112Y18101D01*
X1129Y18120D01*
X1145Y18141D01*
X1158Y18163D01*
X1169Y18186D01*
X1178Y18211D01*
X1184Y18236D01*
X1188Y18262D01*
X1189Y18287D01*
X1188Y18313D01*
X1184Y18339D01*
X1178Y18364D01*
X1169Y18388D01*
X1158Y18412D01*
X1145Y18434D01*
X1129Y18455D01*
X1112Y18474D01*
X1093Y18492D01*
X1072Y18507D01*
X1050Y18520D01*
X1026Y18531D01*
X1002Y18540D01*
X977Y18546D01*
X951Y18550D01*
X925Y18551D01*
D02*
G37*
G36*
X4855Y19496D02*
X4832Y19494D01*
X4809Y19490D01*
X4787Y19482D01*
X4766Y19472D01*
X4747Y19459D01*
X4729Y19444D01*
X4714Y19426D01*
X4701Y19407D01*
X4691Y19386D01*
X4683Y19364D01*
X4679Y19341D01*
X4677Y19318D01*
X4679Y19295D01*
X4683Y19272D01*
X4691Y19250D01*
X4695Y19224D01*
X4680Y19214D01*
X4666Y19202D01*
X4654Y19188D01*
X4644Y19173D01*
X4636Y19157D01*
X4630Y19140D01*
X4627Y19122D01*
X4626Y19104D01*
X4627Y19086D01*
X4630Y19069D01*
X4636Y19051D01*
X4644Y19035D01*
X4654Y19020D01*
X4666Y19007D01*
X4838Y18835D01*
X4837Y18814D01*
X4823Y18779D01*
X4814Y18776D01*
X4793Y18766D01*
X4774Y18753D01*
X4756Y18738D01*
X4741Y18720D01*
X4728Y18701D01*
X4718Y18680D01*
X4710Y18658D01*
X4706Y18635D01*
X4704Y18612D01*
X4706Y18589D01*
X4710Y18566D01*
X4718Y18544D01*
X4728Y18523D01*
X4741Y18504D01*
X4756Y18487D01*
X4774Y18471D01*
X4793Y18458D01*
X4814Y18448D01*
X4836Y18441D01*
X4859Y18436D01*
X4882Y18435D01*
X4905Y18436D01*
X4928Y18441D01*
X4950Y18448D01*
X4971Y18458D01*
X4990Y18471D01*
X5007Y18487D01*
X5023Y18504D01*
X5036Y18523D01*
X5046Y18544D01*
X5053Y18566D01*
X5058Y18589D01*
X5058Y18594D01*
X5063Y18615D01*
X5106Y18641D01*
X5701D01*
X5729Y18613D01*
X5743Y18601D01*
X5758Y18591D01*
X5774Y18583D01*
X5791Y18577D01*
X5809Y18574D01*
X5827Y18573D01*
X5845Y18574D01*
X5863Y18577D01*
X5880Y18583D01*
X5896Y18591D01*
X5911Y18601D01*
X5924Y18613D01*
X5936Y18627D01*
X5946Y18642D01*
X5954Y18658D01*
X5960Y18675D01*
X5964Y18693D01*
X5965Y18711D01*
X5964Y18729D01*
X5960Y18746D01*
X5954Y18763D01*
X5946Y18780D01*
X5936Y18795D01*
X5924Y18808D01*
X5911Y18822D01*
X5930Y18868D01*
X6354D01*
X6776Y18445D01*
Y17810D01*
X6778Y17787D01*
X6782Y17764D01*
X6790Y17742D01*
X6800Y17721D01*
X6813Y17702D01*
X6828Y17685D01*
X7729Y16784D01*
X7746Y16769D01*
X7766Y16756D01*
X7786Y16745D01*
X7808Y16738D01*
X7831Y16733D01*
X7854Y16732D01*
X7878Y16733D01*
X7900Y16738D01*
X7922Y16745D01*
X7943Y16756D01*
X7962Y16769D01*
X7980Y16784D01*
X7995Y16801D01*
X8008Y16821D01*
X8018Y16842D01*
X8026Y16863D01*
X8030Y16886D01*
X8032Y16909D01*
X8030Y16933D01*
X8026Y16955D01*
X8018Y16977D01*
X8008Y16998D01*
X7995Y17018D01*
X7980Y17035D01*
X7670Y17345D01*
X7677Y17370D01*
X7693Y17392D01*
X7707Y17391D01*
X7730Y17393D01*
X7753Y17397D01*
X7775Y17405D01*
X7795Y17415D01*
X7815Y17428D01*
X7832Y17443D01*
X7848Y17461D01*
X7860Y17480D01*
X7871Y17501D01*
X7878Y17523D01*
X7883Y17546D01*
X7884Y17569D01*
X7883Y17592D01*
X7878Y17615D01*
X7871Y17637D01*
X7860Y17658D01*
X7848Y17677D01*
X7832Y17694D01*
X7815Y17710D01*
X7795Y17723D01*
X7775Y17733D01*
X7753Y17740D01*
X7730Y17745D01*
X7707Y17746D01*
X7684Y17745D01*
X7661Y17740D01*
X7639Y17733D01*
X7618Y17723D01*
X7599Y17710D01*
X7581Y17694D01*
X7566Y17677D01*
X7553Y17658D01*
X7543Y17637D01*
X7535Y17615D01*
X7531Y17592D01*
X7529Y17569D01*
X7530Y17556D01*
X7508Y17539D01*
X7482Y17533D01*
X7131Y17884D01*
Y18519D01*
X7130Y18542D01*
X7129Y18544D01*
X7129Y18570D01*
X7152Y18598D01*
X7174Y18606D01*
X7195Y18616D01*
X7214Y18629D01*
X7232Y18644D01*
X7247Y18662D01*
X7260Y18681D01*
X7270Y18702D01*
X7278Y18724D01*
X7282Y18747D01*
X7284Y18770D01*
X7282Y18793D01*
X7278Y18816D01*
X7270Y18838D01*
X7260Y18858D01*
X7247Y18878D01*
X7232Y18895D01*
X7214Y18911D01*
X7195Y18923D01*
X7174Y18934D01*
X7152Y18941D01*
X7129Y18946D01*
X7106Y18947D01*
X7083Y18946D01*
X7060Y18941D01*
X7038Y18934D01*
X7018Y18923D01*
X6998Y18911D01*
X6981Y18895D01*
X6965Y18878D01*
X6953Y18858D01*
X6947Y18847D01*
X6918Y18836D01*
X6889Y18835D01*
X6553Y19171D01*
X6535Y19186D01*
X6516Y19199D01*
X6495Y19209D01*
X6473Y19217D01*
X6450Y19221D01*
X6427Y19223D01*
X6319D01*
X6311Y19227D01*
X6280Y19266D01*
X6279Y19273D01*
X6280Y19291D01*
X6278Y19315D01*
X6274Y19337D01*
X6266Y19359D01*
X6256Y19380D01*
X6243Y19399D01*
X6228Y19417D01*
X6210Y19432D01*
X6191Y19445D01*
X6170Y19455D01*
X6148Y19463D01*
X6126Y19467D01*
X6102Y19469D01*
X6079Y19467D01*
X6056Y19463D01*
X6034Y19455D01*
X6014Y19445D01*
X5994Y19432D01*
X5977Y19417D01*
X5962Y19399D01*
X5949Y19380D01*
X5938Y19359D01*
X5931Y19337D01*
X5926Y19315D01*
X5925Y19291D01*
X5926Y19273D01*
X5925Y19266D01*
X5893Y19227D01*
X5886Y19223D01*
X5201D01*
X4981Y19444D01*
X4963Y19459D01*
X4944Y19472D01*
X4923Y19482D01*
X4901Y19490D01*
X4878Y19494D01*
X4855Y19496D01*
D02*
G37*
G36*
X6427Y18002D02*
X6409Y18001D01*
X6391Y17998D01*
X6374Y17992D01*
X6358Y17984D01*
X6343Y17974D01*
X6330Y17962D01*
X6318Y17948D01*
X6308Y17933D01*
X6300Y17917D01*
X6294Y17900D01*
X6290Y17882D01*
X6289Y17864D01*
X6290Y17846D01*
X6294Y17828D01*
X6300Y17811D01*
X6308Y17795D01*
X6318Y17780D01*
X6320Y17777D01*
Y17339D01*
X6319Y17338D01*
X6309Y17323D01*
X6301Y17307D01*
X6295Y17290D01*
X6292Y17272D01*
X6291Y17254D01*
X6292Y17236D01*
X6295Y17218D01*
X6301Y17201D01*
X6309Y17185D01*
X6319Y17170D01*
X6331Y17156D01*
X6345Y17144D01*
X6360Y17134D01*
X6376Y17126D01*
X6393Y17121D01*
X6411Y17117D01*
X6429Y17116D01*
X6447Y17117D01*
X6465Y17121D01*
X6482Y17126D01*
X6498Y17134D01*
X6513Y17144D01*
X6526Y17156D01*
X6538Y17170D01*
X6548Y17185D01*
X6556Y17201D01*
X6562Y17218D01*
X6566Y17236D01*
X6567Y17254D01*
X6566Y17272D01*
X6562Y17290D01*
X6556Y17307D01*
X6548Y17323D01*
X6538Y17338D01*
X6537Y17339D01*
Y17781D01*
X6547Y17795D01*
X6555Y17811D01*
X6561Y17828D01*
X6564Y17846D01*
X6565Y17864D01*
X6564Y17882D01*
X6561Y17900D01*
X6555Y17917D01*
X6547Y17933D01*
X6537Y17948D01*
X6525Y17962D01*
X6511Y17974D01*
X6496Y17984D01*
X6480Y17992D01*
X6463Y17998D01*
X6445Y18001D01*
X6427Y18002D01*
D02*
G37*
G36*
X14429Y17333D02*
X14406Y17332D01*
X14383Y17327D01*
X14361Y17320D01*
X14340Y17309D01*
X14321Y17296D01*
X14304Y17281D01*
X14288Y17264D01*
X14275Y17244D01*
X14265Y17223D01*
X14258Y17201D01*
X14253Y17179D01*
X14252Y17156D01*
X14253Y17132D01*
X14258Y17110D01*
X14265Y17088D01*
X14275Y17067D01*
X14288Y17047D01*
X14304Y17030D01*
X14321Y17015D01*
X14340Y17002D01*
X14361Y16991D01*
X14383Y16984D01*
X14406Y16979D01*
X14429Y16978D01*
X14452Y16979D01*
X14475Y16984D01*
X14497Y16991D01*
X14518Y17002D01*
X14537Y17015D01*
X14555Y17030D01*
X14570Y17047D01*
X14583Y17067D01*
X14593Y17088D01*
X14601Y17110D01*
X14605Y17132D01*
X14607Y17156D01*
X14605Y17179D01*
X14601Y17201D01*
X14593Y17223D01*
X14583Y17244D01*
X14570Y17264D01*
X14555Y17281D01*
X14537Y17296D01*
X14518Y17309D01*
X14497Y17320D01*
X14475Y17327D01*
X14452Y17332D01*
X14429Y17333D01*
D02*
G37*
G36*
X5856Y17284D02*
X5833Y17282D01*
X5810Y17278D01*
X5788Y17270D01*
X5768Y17260D01*
X5748Y17247D01*
X5731Y17232D01*
X5715Y17214D01*
X5703Y17195D01*
X5692Y17174D01*
X5685Y17152D01*
X5680Y17129D01*
X5679Y17106D01*
X5680Y17083D01*
X5685Y17060D01*
X5692Y17038D01*
X5703Y17018D01*
X5715Y16998D01*
X5731Y16981D01*
X5748Y16965D01*
X5768Y16953D01*
X5788Y16942D01*
X5810Y16935D01*
X5833Y16930D01*
X5856Y16929D01*
X5879Y16930D01*
X5902Y16935D01*
X5924Y16942D01*
X5945Y16953D01*
X5964Y16965D01*
X5982Y16981D01*
X5997Y16998D01*
X6010Y17018D01*
X6020Y17038D01*
X6028Y17060D01*
X6032Y17083D01*
X6034Y17106D01*
X6032Y17129D01*
X6028Y17152D01*
X6020Y17174D01*
X6010Y17195D01*
X5997Y17214D01*
X5982Y17232D01*
X5964Y17247D01*
X5945Y17260D01*
X5924Y17270D01*
X5902Y17278D01*
X5879Y17282D01*
X5856Y17284D01*
D02*
G37*
G36*
X14331Y16649D02*
X14308Y16648D01*
X14285Y16643D01*
X14263Y16636D01*
X14242Y16626D01*
X14223Y16613D01*
X14205Y16597D01*
X14190Y16580D01*
X14177Y16561D01*
X14167Y16540D01*
X14159Y16518D01*
X14155Y16495D01*
X14153Y16472D01*
X14155Y16449D01*
X14159Y16426D01*
X14167Y16404D01*
X14177Y16383D01*
X14190Y16364D01*
X14205Y16346D01*
X14223Y16331D01*
X14242Y16318D01*
X14263Y16308D01*
X14285Y16300D01*
X14308Y16296D01*
X14331Y16294D01*
X14354Y16296D01*
X14377Y16300D01*
X14399Y16308D01*
X14419Y16318D01*
X14439Y16331D01*
X14456Y16346D01*
X14472Y16364D01*
X14484Y16383D01*
X14495Y16404D01*
X14502Y16426D01*
X14507Y16449D01*
X14508Y16472D01*
X14507Y16495D01*
X14502Y16518D01*
X14495Y16540D01*
X14484Y16561D01*
X14472Y16580D01*
X14456Y16597D01*
X14439Y16613D01*
X14419Y16626D01*
X14399Y16636D01*
X14377Y16643D01*
X14354Y16648D01*
X14331Y16649D01*
D02*
G37*
G36*
X11014Y16152D02*
X10384D01*
X10348Y16137D01*
X10320Y16109D01*
X10269Y16116D01*
X10266Y16118D01*
X10245Y16129D01*
X10223Y16136D01*
X10200Y16141D01*
X10177Y16142D01*
X10154Y16141D01*
X10131Y16136D01*
X10109Y16129D01*
X10088Y16118D01*
X10069Y16105D01*
X10052Y16090D01*
X10036Y16073D01*
X10023Y16053D01*
X10013Y16033D01*
X10006Y16011D01*
X10001Y15988D01*
X10000Y15965D01*
X10001Y15941D01*
X10006Y15919D01*
X10013Y15897D01*
X10023Y15876D01*
X10036Y15856D01*
X10052Y15839D01*
X10069Y15824D01*
X10088Y15811D01*
X10109Y15801D01*
X10131Y15793D01*
X10154Y15789D01*
X10177Y15787D01*
X10200Y15789D01*
X10223Y15793D01*
X10245Y15801D01*
X10255Y15805D01*
X10287Y15793D01*
X10305Y15777D01*
Y15443D01*
X10320Y15407D01*
X10348Y15379D01*
X10384Y15364D01*
X10781D01*
X10795Y15344D01*
X10802Y15314D01*
X10794Y15305D01*
X10781Y15286D01*
X10771Y15265D01*
X10764Y15243D01*
X10759Y15220D01*
X10757Y15197D01*
X10759Y15174D01*
X10764Y15151D01*
X10771Y15129D01*
X10781Y15108D01*
X10794Y15089D01*
X10810Y15071D01*
X10827Y15056D01*
X10846Y15043D01*
X10867Y15033D01*
X10889Y15025D01*
X10912Y15021D01*
X10935Y15019D01*
X10958Y15021D01*
X10981Y15025D01*
X11003Y15033D01*
X11024Y15043D01*
X11043Y15056D01*
X11061Y15071D01*
X11076Y15089D01*
X11089Y15108D01*
X11092Y15114D01*
X11113Y15121D01*
X11135Y15114D01*
X11158Y15109D01*
X11181Y15108D01*
X11204Y15109D01*
X11227Y15114D01*
X11249Y15121D01*
X11270Y15132D01*
X11289Y15145D01*
X11307Y15160D01*
X11322Y15177D01*
X11335Y15197D01*
X11345Y15217D01*
X11353Y15239D01*
X11357Y15262D01*
X11359Y15285D01*
X11357Y15309D01*
X11353Y15331D01*
X11345Y15353D01*
X11335Y15374D01*
X11322Y15394D01*
X11307Y15411D01*
X11289Y15426D01*
X11270Y15439D01*
X11249Y15449D01*
X11227Y15457D01*
X11204Y15461D01*
X11181Y15463D01*
X11158Y15461D01*
X11143Y15458D01*
X11139Y15459D01*
X11126Y15464D01*
X11094Y15492D01*
X11093Y15494D01*
Y16073D01*
X11078Y16109D01*
X11050Y16137D01*
X11014Y16152D01*
D02*
G37*
G36*
X2451Y16349D02*
X2428Y16347D01*
X2405Y16343D01*
X2383Y16335D01*
X2362Y16325D01*
X2343Y16312D01*
X2325Y16297D01*
X2310Y16279D01*
X2297Y16260D01*
X2287Y16239D01*
X2279Y16217D01*
X2275Y16194D01*
X2273Y16171D01*
X2275Y16148D01*
X2279Y16125D01*
X2287Y16103D01*
X2297Y16082D01*
X2310Y16063D01*
X2325Y16046D01*
X2343Y16030D01*
X2362Y16018D01*
X2383Y16007D01*
X2405Y16000D01*
X2428Y15995D01*
X2451Y15994D01*
X2474Y15995D01*
X2497Y16000D01*
X2519Y16007D01*
X2540Y16018D01*
X2559Y16030D01*
X2576Y16046D01*
X2592Y16063D01*
X2605Y16082D01*
X2615Y16103D01*
X2622Y16125D01*
X2627Y16148D01*
X2628Y16171D01*
X2627Y16194D01*
X2622Y16217D01*
X2615Y16239D01*
X2605Y16260D01*
X2592Y16279D01*
X2576Y16297D01*
X2559Y16312D01*
X2540Y16325D01*
X2519Y16335D01*
X2497Y16343D01*
X2474Y16347D01*
X2451Y16349D01*
D02*
G37*
G36*
X7963Y16024D02*
X7934Y16023D01*
X7905Y16018D01*
X7877Y16011D01*
X7849Y16001D01*
X7825Y15990D01*
X7800Y16001D01*
X7773Y16011D01*
X7745Y16018D01*
X7716Y16023D01*
X7687Y16024D01*
X7658Y16023D01*
X7629Y16018D01*
X7601Y16011D01*
X7574Y16001D01*
X7548Y15989D01*
X7523Y15974D01*
X7499Y15957D01*
X7478Y15937D01*
X7458Y15916D01*
X7441Y15893D01*
X7426Y15868D01*
X7414Y15841D01*
X7404Y15814D01*
X7397Y15786D01*
X7393Y15757D01*
X7391Y15728D01*
X7393Y15699D01*
X7397Y15671D01*
X7404Y15643D01*
X7414Y15615D01*
X7426Y15589D01*
X7441Y15564D01*
X7458Y15541D01*
X7478Y15519D01*
X7499Y15500D01*
X7523Y15483D01*
X7548Y15468D01*
X7574Y15455D01*
X7601Y15445D01*
X7629Y15438D01*
X7658Y15434D01*
X7687Y15433D01*
X7716Y15434D01*
X7745Y15438D01*
X7773Y15445D01*
X7800Y15455D01*
X7825Y15467D01*
X7849Y15455D01*
X7877Y15445D01*
X7905Y15438D01*
X7934Y15434D01*
X7963Y15433D01*
X7992Y15434D01*
X8020Y15438D01*
X8048Y15445D01*
X8076Y15455D01*
X8102Y15468D01*
X8127Y15483D01*
X8150Y15500D01*
X8172Y15519D01*
X8191Y15541D01*
X8208Y15564D01*
X8223Y15589D01*
X8236Y15615D01*
X8245Y15643D01*
X8253Y15671D01*
X8257Y15699D01*
X8258Y15728D01*
X8257Y15757D01*
X8253Y15786D01*
X8245Y15814D01*
X8236Y15841D01*
X8223Y15868D01*
X8208Y15893D01*
X8191Y15916D01*
X8172Y15937D01*
X8150Y15957D01*
X8127Y15974D01*
X8102Y15989D01*
X8076Y16001D01*
X8048Y16011D01*
X8020Y16018D01*
X7992Y16023D01*
X7963Y16024D01*
D02*
G37*
G36*
X6358Y16044D02*
X6335Y16042D01*
X6312Y16038D01*
X6290Y16030D01*
X6269Y16020D01*
X6250Y16007D01*
X6233Y15992D01*
X6217Y15974D01*
X6205Y15955D01*
X6194Y15934D01*
X6187Y15912D01*
X6182Y15889D01*
X6181Y15866D01*
X6182Y15843D01*
X6187Y15820D01*
X6194Y15798D01*
X6205Y15777D01*
X6217Y15758D01*
X6233Y15741D01*
X6250Y15725D01*
X6269Y15712D01*
X6290Y15702D01*
X6312Y15695D01*
X6335Y15690D01*
X6358Y15689D01*
X6381Y15690D01*
X6404Y15695D01*
X6426Y15702D01*
X6447Y15712D01*
X6466Y15725D01*
X6484Y15741D01*
X6499Y15758D01*
X6512Y15777D01*
X6522Y15798D01*
X6530Y15820D01*
X6534Y15843D01*
X6536Y15866D01*
X6534Y15889D01*
X6530Y15912D01*
X6522Y15934D01*
X6512Y15955D01*
X6499Y15974D01*
X6484Y15992D01*
X6466Y16007D01*
X6447Y16020D01*
X6426Y16030D01*
X6404Y16038D01*
X6381Y16042D01*
X6358Y16044D01*
D02*
G37*
G36*
X7146Y16044D02*
X7122Y16042D01*
X7100Y16038D01*
X7078Y16030D01*
X7057Y16020D01*
X7038Y16007D01*
X7020Y15992D01*
X7005Y15974D01*
X6992Y15955D01*
X6982Y15934D01*
X6974Y15912D01*
X6970Y15889D01*
X6968Y15866D01*
X6970Y15843D01*
X6974Y15820D01*
X6982Y15798D01*
X6992Y15777D01*
X7005Y15758D01*
X7020Y15741D01*
X7038Y15725D01*
X7057Y15712D01*
X7078Y15702D01*
X7100Y15695D01*
X7122Y15690D01*
X7146Y15689D01*
X7169Y15690D01*
X7192Y15695D01*
X7214Y15702D01*
X7234Y15712D01*
X7254Y15725D01*
X7271Y15741D01*
X7287Y15758D01*
X7299Y15777D01*
X7310Y15798D01*
X7317Y15820D01*
X7322Y15843D01*
X7323Y15866D01*
X7322Y15889D01*
X7317Y15912D01*
X7310Y15934D01*
X7299Y15955D01*
X7287Y15974D01*
X7271Y15992D01*
X7254Y16007D01*
X7234Y16020D01*
X7214Y16030D01*
X7192Y16038D01*
X7169Y16042D01*
X7146Y16044D01*
D02*
G37*
G36*
X4311Y18543D02*
X3681D01*
X3645Y18528D01*
X3617Y18501D01*
X3602Y18464D01*
Y17835D01*
X3617Y17799D01*
X3621Y17795D01*
X3617Y17792D01*
X3602Y17756D01*
Y17126D01*
X3617Y17090D01*
X3621Y17087D01*
X3617Y17083D01*
X3602Y17047D01*
Y16417D01*
X3617Y16381D01*
X3621Y16378D01*
X3617Y16375D01*
X3602Y16338D01*
Y15709D01*
X3617Y15673D01*
X3645Y15645D01*
X3681Y15630D01*
X4311D01*
X4347Y15645D01*
X4375Y15673D01*
X4390Y15709D01*
Y16338D01*
X4375Y16375D01*
X4371Y16378D01*
X4375Y16381D01*
X4390Y16417D01*
Y17047D01*
X4375Y17083D01*
X4371Y17087D01*
X4375Y17090D01*
X4390Y17126D01*
Y17756D01*
X4375Y17792D01*
X4371Y17795D01*
X4375Y17799D01*
X4390Y17835D01*
Y18464D01*
X4375Y18501D01*
X4347Y18528D01*
X4311Y18543D01*
D02*
G37*
G36*
X5374Y18150D02*
X5351Y18148D01*
X5328Y18144D01*
X5306Y18136D01*
X5285Y18126D01*
X5266Y18113D01*
X5248Y18098D01*
X5233Y18081D01*
X5220Y18061D01*
X5210Y18040D01*
X5203Y18018D01*
X5198Y17996D01*
X5196Y17972D01*
X5198Y17949D01*
X5203Y17926D01*
X5210Y17904D01*
X5220Y17884D01*
X5233Y17864D01*
X5248Y17847D01*
X5249Y17847D01*
X5253Y17834D01*
Y17796D01*
X5249Y17783D01*
X5248Y17783D01*
X5233Y17766D01*
X5220Y17746D01*
X5210Y17725D01*
X5203Y17703D01*
X5198Y17681D01*
X5196Y17657D01*
X5198Y17634D01*
X5203Y17612D01*
X5210Y17590D01*
X5220Y17569D01*
X5233Y17549D01*
X5248Y17532D01*
X5249Y17532D01*
X5253Y17519D01*
Y17481D01*
X5249Y17468D01*
X5248Y17468D01*
X5233Y17451D01*
X5220Y17431D01*
X5210Y17410D01*
X5203Y17388D01*
X5198Y17366D01*
X5196Y17343D01*
X5198Y17319D01*
X5203Y17297D01*
X5210Y17275D01*
X5220Y17254D01*
X5233Y17234D01*
X5248Y17217D01*
X5249Y17217D01*
X5253Y17204D01*
Y17166D01*
X5249Y17153D01*
X5248Y17153D01*
X5233Y17136D01*
X5220Y17116D01*
X5210Y17096D01*
X5203Y17074D01*
X5198Y17051D01*
X5196Y17028D01*
X5198Y17004D01*
X5203Y16982D01*
X5210Y16960D01*
X5220Y16939D01*
X5233Y16919D01*
X5248Y16902D01*
X5249Y16902D01*
X5253Y16889D01*
Y16851D01*
X5249Y16838D01*
X5248Y16838D01*
X5233Y16821D01*
X5220Y16801D01*
X5210Y16781D01*
X5203Y16759D01*
X5198Y16736D01*
X5196Y16713D01*
X5198Y16689D01*
X5203Y16667D01*
X5210Y16645D01*
X5220Y16624D01*
X5233Y16605D01*
X5248Y16587D01*
X5249Y16587D01*
X5253Y16574D01*
Y16536D01*
X5249Y16523D01*
X5248Y16523D01*
X5233Y16506D01*
X5220Y16486D01*
X5210Y16466D01*
X5203Y16444D01*
X5198Y16421D01*
X5196Y16398D01*
X5198Y16374D01*
X5203Y16352D01*
X5210Y16330D01*
X5220Y16309D01*
X5233Y16290D01*
X5248Y16272D01*
X5249Y16272D01*
X5253Y16259D01*
Y16221D01*
X5249Y16208D01*
X5248Y16208D01*
X5233Y16191D01*
X5220Y16171D01*
X5210Y16151D01*
X5203Y16129D01*
X5198Y16106D01*
X5196Y16083D01*
X5198Y16059D01*
X5203Y16037D01*
X5210Y16015D01*
X5220Y15994D01*
X5233Y15975D01*
X5248Y15957D01*
X5249Y15957D01*
X5253Y15944D01*
Y15906D01*
X5249Y15893D01*
X5248Y15893D01*
X5233Y15876D01*
X5220Y15856D01*
X5210Y15836D01*
X5203Y15814D01*
X5198Y15791D01*
X5196Y15768D01*
X5198Y15745D01*
X5203Y15722D01*
X5210Y15700D01*
X5220Y15679D01*
X5233Y15660D01*
X5248Y15642D01*
X5266Y15627D01*
X5285Y15614D01*
X5306Y15604D01*
X5328Y15596D01*
X5351Y15592D01*
X5374Y15590D01*
X5397Y15592D01*
X5420Y15596D01*
X5442Y15604D01*
X5463Y15614D01*
X5482Y15627D01*
X5500Y15642D01*
X5515Y15660D01*
X5528Y15679D01*
X5538Y15700D01*
X5546Y15722D01*
X5550Y15745D01*
X5552Y15768D01*
X5550Y15791D01*
X5546Y15814D01*
X5538Y15836D01*
X5528Y15856D01*
X5515Y15876D01*
X5500Y15893D01*
X5500Y15893D01*
X5495Y15906D01*
Y15944D01*
X5500Y15957D01*
X5500Y15957D01*
X5515Y15975D01*
X5528Y15994D01*
X5538Y16015D01*
X5546Y16037D01*
X5550Y16059D01*
X5552Y16083D01*
X5550Y16106D01*
X5546Y16129D01*
X5538Y16151D01*
X5528Y16171D01*
X5515Y16191D01*
X5500Y16208D01*
X5500Y16208D01*
X5495Y16221D01*
Y16259D01*
X5500Y16272D01*
X5500Y16272D01*
X5515Y16290D01*
X5528Y16309D01*
X5538Y16330D01*
X5546Y16352D01*
X5550Y16374D01*
X5552Y16398D01*
X5550Y16421D01*
X5546Y16444D01*
X5538Y16466D01*
X5528Y16486D01*
X5515Y16506D01*
X5500Y16523D01*
X5500Y16523D01*
X5495Y16536D01*
Y16574D01*
X5500Y16587D01*
X5500Y16587D01*
X5515Y16605D01*
X5528Y16624D01*
X5538Y16645D01*
X5546Y16667D01*
X5550Y16689D01*
X5552Y16713D01*
X5550Y16736D01*
X5546Y16759D01*
X5538Y16781D01*
X5528Y16801D01*
X5515Y16821D01*
X5500Y16838D01*
X5500Y16838D01*
X5495Y16851D01*
Y16889D01*
X5500Y16902D01*
X5500Y16902D01*
X5515Y16919D01*
X5528Y16939D01*
X5538Y16960D01*
X5546Y16982D01*
X5550Y17004D01*
X5552Y17028D01*
X5550Y17051D01*
X5546Y17074D01*
X5538Y17096D01*
X5528Y17116D01*
X5515Y17136D01*
X5500Y17153D01*
X5500Y17153D01*
X5495Y17166D01*
Y17204D01*
X5500Y17217D01*
X5500Y17217D01*
X5515Y17234D01*
X5528Y17254D01*
X5538Y17275D01*
X5546Y17297D01*
X5550Y17319D01*
X5552Y17343D01*
X5550Y17366D01*
X5546Y17388D01*
X5538Y17410D01*
X5528Y17431D01*
X5515Y17451D01*
X5500Y17468D01*
X5500Y17468D01*
X5495Y17481D01*
Y17519D01*
X5500Y17532D01*
X5500Y17532D01*
X5515Y17549D01*
X5528Y17569D01*
X5538Y17590D01*
X5546Y17612D01*
X5550Y17634D01*
X5552Y17657D01*
X5550Y17681D01*
X5546Y17703D01*
X5538Y17725D01*
X5528Y17746D01*
X5515Y17766D01*
X5500Y17783D01*
X5500Y17783D01*
X5495Y17796D01*
Y17834D01*
X5500Y17847D01*
X5500Y17847D01*
X5515Y17864D01*
X5528Y17884D01*
X5538Y17904D01*
X5546Y17926D01*
X5550Y17949D01*
X5552Y17972D01*
X5550Y17996D01*
X5546Y18018D01*
X5538Y18040D01*
X5528Y18061D01*
X5515Y18081D01*
X5500Y18098D01*
X5482Y18113D01*
X5463Y18126D01*
X5442Y18136D01*
X5420Y18144D01*
X5397Y18148D01*
X5374Y18150D01*
D02*
G37*
G36*
X13524Y15507D02*
X13500Y15506D01*
X13478Y15501D01*
X13456Y15494D01*
X13435Y15483D01*
X13416Y15471D01*
X13398Y15455D01*
X13383Y15438D01*
X13370Y15418D01*
X13360Y15398D01*
X13352Y15376D01*
X13348Y15353D01*
X13346Y15330D01*
X13348Y15307D01*
X13352Y15284D01*
X13360Y15262D01*
X13370Y15241D01*
X13383Y15222D01*
X13398Y15204D01*
X13416Y15189D01*
X13435Y15176D01*
X13456Y15166D01*
X13478Y15158D01*
X13500Y15154D01*
X13524Y15152D01*
X13547Y15154D01*
X13570Y15158D01*
X13592Y15166D01*
X13612Y15176D01*
X13632Y15189D01*
X13649Y15204D01*
X13664Y15222D01*
X13677Y15241D01*
X13688Y15262D01*
X13695Y15284D01*
X13700Y15307D01*
X13701Y15330D01*
X13700Y15353D01*
X13695Y15376D01*
X13688Y15398D01*
X13677Y15418D01*
X13664Y15438D01*
X13649Y15455D01*
X13632Y15471D01*
X13612Y15483D01*
X13592Y15494D01*
X13570Y15501D01*
X13547Y15506D01*
X13524Y15507D01*
D02*
G37*
G36*
X14754Y15276D02*
X14731Y15274D01*
X14708Y15270D01*
X14686Y15262D01*
X14665Y15252D01*
X14646Y15239D01*
X14628Y15224D01*
X14613Y15207D01*
X14600Y15187D01*
X14590Y15166D01*
X14582Y15144D01*
X14578Y15122D01*
X14576Y15098D01*
X14578Y15075D01*
X14582Y15052D01*
X14590Y15030D01*
X14600Y15010D01*
X14613Y14990D01*
X14628Y14973D01*
X14646Y14958D01*
X14665Y14945D01*
X14686Y14934D01*
X14708Y14927D01*
X14731Y14922D01*
X14754Y14921D01*
X14777Y14922D01*
X14800Y14927D01*
X14822Y14934D01*
X14843Y14945D01*
X14862Y14958D01*
X14879Y14973D01*
X14895Y14990D01*
X14908Y15010D01*
X14918Y15030D01*
X14925Y15052D01*
X14930Y15075D01*
X14931Y15098D01*
X14930Y15122D01*
X14925Y15144D01*
X14918Y15166D01*
X14908Y15187D01*
X14895Y15207D01*
X14879Y15224D01*
X14862Y15239D01*
X14843Y15252D01*
X14822Y15262D01*
X14800Y15270D01*
X14777Y15274D01*
X14754Y15276D01*
D02*
G37*
G36*
X9774Y16024D02*
X9144D01*
X9108Y16009D01*
X9080Y15981D01*
X9065Y15945D01*
Y15315D01*
X9080Y15279D01*
X9108Y15251D01*
X9144Y15236D01*
X9675D01*
X9677Y15189D01*
X9672Y15186D01*
X9665Y15185D01*
X9649Y15181D01*
X9627Y15174D01*
X9606Y15164D01*
X9587Y15151D01*
X9569Y15135D01*
X9554Y15118D01*
X9541Y15099D01*
X9531Y15078D01*
X9523Y15056D01*
X9519Y15033D01*
X9517Y15010D01*
X9519Y14987D01*
X9523Y14964D01*
X9531Y14942D01*
X9541Y14921D01*
X9554Y14902D01*
X9569Y14884D01*
X9587Y14869D01*
X9606Y14856D01*
X9627Y14846D01*
X9649Y14838D01*
X9672Y14834D01*
X9695Y14832D01*
X9718Y14834D01*
X9741Y14838D01*
X9763Y14846D01*
X9784Y14856D01*
X9803Y14869D01*
X9818Y14882D01*
X9833Y14869D01*
X9852Y14856D01*
X9873Y14846D01*
X9895Y14838D01*
X9918Y14834D01*
X9941Y14832D01*
X9964Y14834D01*
X9987Y14838D01*
X10009Y14846D01*
X10030Y14856D01*
X10049Y14869D01*
X10066Y14884D01*
X10082Y14902D01*
X10095Y14921D01*
X10105Y14942D01*
X10112Y14964D01*
X10117Y14987D01*
X10118Y15010D01*
X10117Y15033D01*
X10112Y15056D01*
X10105Y15078D01*
X10095Y15099D01*
X10082Y15118D01*
X10066Y15135D01*
X10049Y15151D01*
X10030Y15164D01*
X10009Y15174D01*
X9987Y15181D01*
X9964Y15186D01*
X9941Y15187D01*
X9918Y15186D01*
X9895Y15181D01*
X9873Y15174D01*
X9852Y15164D01*
X9833Y15151D01*
X9818Y15138D01*
X9803Y15151D01*
X9784Y15164D01*
X9763Y15174D01*
X9741Y15181D01*
X9726Y15184D01*
X9718Y15186D01*
X9713Y15189D01*
X9714Y15236D01*
X9774D01*
X9810Y15251D01*
X9837Y15279D01*
X9852Y15315D01*
Y15945D01*
X9837Y15981D01*
X9810Y16009D01*
X9774Y16024D01*
D02*
G37*
G36*
X14359Y15044D02*
X14336Y15042D01*
X14313Y15038D01*
X14291Y15030D01*
X14270Y15020D01*
X14251Y15007D01*
X14234Y14992D01*
X14218Y14975D01*
X14205Y14955D01*
X14195Y14934D01*
X14188Y14912D01*
X14183Y14890D01*
X14182Y14866D01*
X14183Y14843D01*
X14188Y14820D01*
X14195Y14799D01*
X14205Y14778D01*
X14218Y14758D01*
X14234Y14741D01*
X14251Y14726D01*
X14270Y14713D01*
X14291Y14702D01*
X14313Y14695D01*
X14336Y14690D01*
X14359Y14689D01*
X14382Y14690D01*
X14405Y14695D01*
X14427Y14702D01*
X14448Y14713D01*
X14467Y14726D01*
X14485Y14741D01*
X14500Y14758D01*
X14513Y14778D01*
X14523Y14799D01*
X14531Y14820D01*
X14535Y14843D01*
X14537Y14866D01*
X14535Y14890D01*
X14531Y14912D01*
X14523Y14934D01*
X14513Y14955D01*
X14500Y14975D01*
X14485Y14992D01*
X14467Y15007D01*
X14448Y15020D01*
X14427Y15030D01*
X14405Y15038D01*
X14382Y15042D01*
X14359Y15044D01*
D02*
G37*
G36*
X3209Y15451D02*
X3174Y15450D01*
X3141Y15445D01*
X3107Y15438D01*
X3075Y15428D01*
X3043Y15414D01*
X3013Y15399D01*
X2984Y15380D01*
X2957Y15359D01*
X2931Y15336D01*
X2908Y15311D01*
X2887Y15284D01*
X2869Y15255D01*
X2853Y15225D01*
X2840Y15193D01*
X2830Y15161D01*
X2823Y15127D01*
X2818Y15093D01*
X2817Y15059D01*
X2818Y15025D01*
X2823Y14991D01*
X2830Y14958D01*
X2840Y14925D01*
X2853Y14893D01*
X2869Y14863D01*
X2887Y14834D01*
X2908Y14807D01*
X2931Y14782D01*
X2957Y14759D01*
X2984Y14738D01*
X3013Y14719D01*
X3043Y14704D01*
X3075Y14691D01*
X3107Y14680D01*
X3141Y14673D01*
X3174Y14668D01*
X3209Y14667D01*
X3243Y14668D01*
X3277Y14673D01*
X3310Y14680D01*
X3343Y14691D01*
X3374Y14704D01*
X3405Y14719D01*
X3434Y14738D01*
X3461Y14759D01*
X3486Y14782D01*
X3509Y14807D01*
X3530Y14834D01*
X3548Y14863D01*
X3564Y14893D01*
X3577Y14925D01*
X3587Y14958D01*
X3595Y14991D01*
X3599Y15025D01*
X3601Y15059D01*
X3599Y15093D01*
X3595Y15127D01*
X3587Y15161D01*
X3577Y15193D01*
X3564Y15225D01*
X3548Y15255D01*
X3530Y15284D01*
X3509Y15311D01*
X3486Y15336D01*
X3461Y15359D01*
X3434Y15380D01*
X3405Y15399D01*
X3374Y15414D01*
X3343Y15428D01*
X3310Y15438D01*
X3277Y15445D01*
X3243Y15450D01*
X3209Y15451D01*
D02*
G37*
G36*
X6879Y14872D02*
X6856Y14870D01*
X6833Y14866D01*
X6811Y14858D01*
X6791Y14848D01*
X6771Y14835D01*
X6754Y14820D01*
X6738Y14802D01*
X6726Y14783D01*
X6715Y14762D01*
X6708Y14740D01*
X6703Y14718D01*
X6702Y14694D01*
X6703Y14671D01*
X6708Y14648D01*
X6715Y14626D01*
X6726Y14606D01*
X6738Y14586D01*
X6754Y14569D01*
X6771Y14553D01*
X6791Y14541D01*
X6811Y14530D01*
X6833Y14523D01*
X6856Y14518D01*
X6879Y14517D01*
X6903Y14518D01*
X6925Y14523D01*
X6947Y14530D01*
X6968Y14541D01*
X6987Y14553D01*
X7005Y14569D01*
X7020Y14586D01*
X7033Y14606D01*
X7043Y14626D01*
X7051Y14648D01*
X7055Y14671D01*
X7057Y14694D01*
X7055Y14718D01*
X7051Y14740D01*
X7043Y14762D01*
X7033Y14783D01*
X7020Y14802D01*
X7005Y14820D01*
X6987Y14835D01*
X6968Y14848D01*
X6947Y14858D01*
X6925Y14866D01*
X6903Y14870D01*
X6879Y14872D01*
D02*
G37*
G36*
X11959Y14774D02*
X11935Y14772D01*
X11913Y14768D01*
X11891Y14760D01*
X11870Y14750D01*
X11851Y14737D01*
X11833Y14722D01*
X11818Y14705D01*
X11805Y14685D01*
X11795Y14664D01*
X11787Y14642D01*
X11783Y14620D01*
X11781Y14596D01*
X11783Y14573D01*
X11787Y14551D01*
X11795Y14529D01*
X11805Y14508D01*
X11818Y14488D01*
X11833Y14471D01*
X11851Y14456D01*
X11870Y14443D01*
X11891Y14432D01*
X11913Y14425D01*
X11935Y14420D01*
X11959Y14419D01*
X11982Y14420D01*
X12005Y14425D01*
X12027Y14432D01*
X12047Y14443D01*
X12067Y14456D01*
X12084Y14471D01*
X12100Y14488D01*
X12112Y14508D01*
X12123Y14529D01*
X12130Y14551D01*
X12135Y14573D01*
X12136Y14596D01*
X12135Y14620D01*
X12130Y14642D01*
X12123Y14664D01*
X12112Y14685D01*
X12100Y14705D01*
X12084Y14722D01*
X12067Y14737D01*
X12047Y14750D01*
X12027Y14760D01*
X12005Y14768D01*
X11982Y14772D01*
X11959Y14774D01*
D02*
G37*
G36*
X13637Y14764D02*
X13614Y14763D01*
X13591Y14758D01*
X13569Y14751D01*
X13548Y14740D01*
X13529Y14727D01*
X13511Y14712D01*
X13496Y14695D01*
X13483Y14675D01*
X13473Y14655D01*
X13465Y14633D01*
X13461Y14610D01*
X13459Y14587D01*
X13461Y14563D01*
X13465Y14541D01*
X13473Y14519D01*
X13483Y14498D01*
X13496Y14479D01*
X13511Y14461D01*
X13529Y14446D01*
X13548Y14433D01*
X13569Y14423D01*
X13591Y14415D01*
X13614Y14411D01*
X13637Y14409D01*
X13660Y14411D01*
X13683Y14415D01*
X13705Y14423D01*
X13726Y14433D01*
X13745Y14446D01*
X13762Y14461D01*
X13778Y14479D01*
X13791Y14498D01*
X13801Y14519D01*
X13808Y14541D01*
X13813Y14563D01*
X13814Y14587D01*
X13813Y14610D01*
X13808Y14633D01*
X13801Y14655D01*
X13791Y14675D01*
X13778Y14695D01*
X13762Y14712D01*
X13745Y14727D01*
X13726Y14740D01*
X13705Y14751D01*
X13683Y14758D01*
X13660Y14763D01*
X13637Y14764D01*
D02*
G37*
G36*
X14311Y14626D02*
X14288Y14625D01*
X14265Y14620D01*
X14243Y14613D01*
X14222Y14603D01*
X14203Y14590D01*
X14185Y14574D01*
X14170Y14557D01*
X14157Y14538D01*
X14147Y14517D01*
X14140Y14495D01*
X14135Y14472D01*
X14133Y14449D01*
X14135Y14426D01*
X14140Y14403D01*
X14147Y14381D01*
X14157Y14360D01*
X14170Y14341D01*
X14185Y14323D01*
X14203Y14308D01*
X14222Y14295D01*
X14243Y14285D01*
X14265Y14277D01*
X14288Y14273D01*
X14311Y14271D01*
X14334Y14273D01*
X14357Y14277D01*
X14379Y14285D01*
X14400Y14295D01*
X14419Y14308D01*
X14437Y14323D01*
X14452Y14341D01*
X14465Y14360D01*
X14475Y14381D01*
X14483Y14403D01*
X14487Y14426D01*
X14489Y14449D01*
X14487Y14472D01*
X14483Y14495D01*
X14475Y14517D01*
X14465Y14538D01*
X14452Y14557D01*
X14437Y14574D01*
X14419Y14590D01*
X14400Y14603D01*
X14379Y14613D01*
X14357Y14620D01*
X14334Y14625D01*
X14311Y14626D01*
D02*
G37*
G36*
X8519Y14410D02*
X8496Y14408D01*
X8473Y14404D01*
X8451Y14396D01*
X8430Y14386D01*
X8411Y14373D01*
X8393Y14358D01*
X8378Y14340D01*
X8365Y14321D01*
X8355Y14300D01*
X8347Y14278D01*
X8343Y14255D01*
X8341Y14232D01*
X8343Y14209D01*
X8347Y14186D01*
X8355Y14164D01*
X8365Y14144D01*
X8378Y14124D01*
X8393Y14107D01*
X8411Y14091D01*
X8430Y14079D01*
X8451Y14068D01*
X8473Y14061D01*
X8496Y14056D01*
X8519Y14055D01*
X8542Y14056D01*
X8565Y14061D01*
X8587Y14068D01*
X8607Y14079D01*
X8627Y14091D01*
X8644Y14107D01*
X8660Y14124D01*
X8672Y14144D01*
X8683Y14164D01*
X8690Y14186D01*
X8695Y14209D01*
X8696Y14232D01*
X8695Y14255D01*
X8690Y14278D01*
X8683Y14300D01*
X8672Y14321D01*
X8660Y14340D01*
X8644Y14358D01*
X8627Y14373D01*
X8607Y14386D01*
X8587Y14396D01*
X8565Y14404D01*
X8542Y14408D01*
X8519Y14410D01*
D02*
G37*
G36*
X12238Y14404D02*
X12215Y14402D01*
X12192Y14398D01*
X12170Y14390D01*
X12149Y14380D01*
X12130Y14367D01*
X12113Y14352D01*
X12097Y14334D01*
X12084Y14315D01*
X12074Y14294D01*
X12067Y14272D01*
X12062Y14249D01*
X12061Y14226D01*
X12062Y14203D01*
X12067Y14180D01*
X12074Y14158D01*
X12084Y14137D01*
X12097Y14118D01*
X12113Y14101D01*
X12130Y14085D01*
X12149Y14073D01*
X12170Y14062D01*
X12192Y14055D01*
X12215Y14050D01*
X12238Y14049D01*
X12261Y14050D01*
X12284Y14055D01*
X12306Y14062D01*
X12327Y14073D01*
X12346Y14085D01*
X12364Y14101D01*
X12379Y14118D01*
X12392Y14137D01*
X12399Y14152D01*
X12402Y14158D01*
X12448Y14141D01*
X12448Y14137D01*
X12447Y14136D01*
X12446Y14114D01*
X12448Y14091D01*
X12452Y14068D01*
X12460Y14046D01*
X12470Y14025D01*
X12483Y14006D01*
X12498Y13989D01*
X12515Y13973D01*
X12535Y13960D01*
X12556Y13950D01*
X12578Y13943D01*
X12600Y13938D01*
X12624Y13937D01*
X12647Y13938D01*
X12670Y13943D01*
X12692Y13950D01*
X12712Y13960D01*
X12732Y13973D01*
X12749Y13989D01*
X12764Y14006D01*
X12777Y14025D01*
X12788Y14046D01*
X12795Y14068D01*
X12800Y14091D01*
X12801Y14114D01*
X12800Y14137D01*
X12795Y14160D01*
X12788Y14182D01*
X12777Y14203D01*
X12764Y14222D01*
X12749Y14240D01*
X12732Y14255D01*
X12712Y14268D01*
X12692Y14278D01*
X12670Y14286D01*
X12647Y14290D01*
X12624Y14292D01*
X12600Y14290D01*
X12578Y14286D01*
X12556Y14278D01*
X12535Y14268D01*
X12515Y14255D01*
X12498Y14240D01*
X12483Y14222D01*
X12470Y14203D01*
X12463Y14189D01*
X12460Y14182D01*
X12414Y14199D01*
X12414Y14203D01*
X12414Y14205D01*
X12416Y14226D01*
X12414Y14249D01*
X12410Y14272D01*
X12402Y14294D01*
X12392Y14315D01*
X12379Y14334D01*
X12364Y14352D01*
X12346Y14367D01*
X12327Y14380D01*
X12306Y14390D01*
X12284Y14398D01*
X12261Y14402D01*
X12238Y14404D01*
D02*
G37*
G36*
X2470Y13886D02*
X2077D01*
X2055Y13885D01*
X2033Y13881D01*
X2012Y13875D01*
X1991Y13867D01*
X1972Y13856D01*
X1954Y13843D01*
X1937Y13828D01*
X1923Y13812D01*
X1910Y13794D01*
X1899Y13775D01*
X1891Y13754D01*
X1885Y13733D01*
X1881Y13711D01*
X1880Y13689D01*
X1881Y13667D01*
X1885Y13645D01*
X1891Y13624D01*
X1899Y13603D01*
X1910Y13584D01*
X1923Y13566D01*
X1937Y13550D01*
X1954Y13535D01*
X1972Y13522D01*
X1991Y13511D01*
X2012Y13503D01*
X2033Y13497D01*
X2055Y13493D01*
X2077Y13492D01*
X2470D01*
X2493Y13493D01*
X2514Y13497D01*
X2536Y13503D01*
X2556Y13511D01*
X2575Y13522D01*
X2593Y13535D01*
X2610Y13550D01*
X2625Y13566D01*
X2637Y13584D01*
X2648Y13603D01*
X2657Y13624D01*
X2663Y13645D01*
X2666Y13667D01*
X2668Y13689D01*
X2666Y13711D01*
X2663Y13733D01*
X2657Y13754D01*
X2648Y13775D01*
X2637Y13794D01*
X2625Y13812D01*
X2610Y13828D01*
X2593Y13843D01*
X2575Y13856D01*
X2556Y13867D01*
X2536Y13875D01*
X2514Y13881D01*
X2493Y13885D01*
X2470Y13886D01*
D02*
G37*
G36*
X11329Y13603D02*
X11306Y13601D01*
X11283Y13597D01*
X11261Y13589D01*
X11240Y13579D01*
X11221Y13566D01*
X11203Y13551D01*
X11188Y13533D01*
X11175Y13514D01*
X11165Y13493D01*
X11157Y13471D01*
X11153Y13448D01*
X11151Y13425D01*
X11153Y13402D01*
X11157Y13379D01*
X11165Y13357D01*
X11175Y13336D01*
X11188Y13317D01*
X11203Y13300D01*
X11221Y13284D01*
X11240Y13271D01*
X11261Y13261D01*
X11283Y13254D01*
X11306Y13249D01*
X11329Y13248D01*
X11352Y13249D01*
X11375Y13254D01*
X11397Y13261D01*
X11418Y13271D01*
X11437Y13284D01*
X11454Y13300D01*
X11470Y13317D01*
X11482Y13336D01*
X11493Y13357D01*
X11500Y13379D01*
X11505Y13402D01*
X11506Y13425D01*
X11505Y13448D01*
X11500Y13471D01*
X11493Y13493D01*
X11482Y13514D01*
X11470Y13533D01*
X11454Y13551D01*
X11437Y13566D01*
X11418Y13579D01*
X11397Y13589D01*
X11375Y13597D01*
X11352Y13601D01*
X11329Y13603D01*
D02*
G37*
G36*
X17872Y13416D02*
X17870Y13415D01*
X17870Y13415D01*
X17867Y13415D01*
X17840Y13414D01*
X17797Y13410D01*
X17754Y13402D01*
X17711Y13391D01*
X17669Y13377D01*
X17629Y13360D01*
X17590Y13341D01*
X17552Y13318D01*
X17516Y13293D01*
X17482Y13266D01*
X17450Y13236D01*
X17420Y13204D01*
X17392Y13170D01*
X17367Y13134D01*
X17345Y13096D01*
X17325Y13057D01*
X17309Y13016D01*
X17295Y12975D01*
X17284Y12932D01*
X17276Y12889D01*
X17272Y12851D01*
X17271Y12846D01*
X17270Y12802D01*
X17270D01*
X17270Y12802D01*
X17270Y10989D01*
X17220Y10939D01*
X16818D01*
Y9798D01*
X17270D01*
Y8323D01*
X17270Y8320D01*
X17269Y8272D01*
X17265Y8222D01*
X17258Y8172D01*
X17248Y8122D01*
X17235Y8073D01*
X17220Y8025D01*
X17202Y7978D01*
X17181Y7932D01*
X17158Y7887D01*
X17132Y7843D01*
X17104Y7801D01*
X17074Y7761D01*
X17041Y7722D01*
X17006Y7685D01*
X16970Y7651D01*
X16931Y7618D01*
X16891Y7588D01*
X16848Y7559D01*
X16805Y7534D01*
X16760Y7511D01*
X16714Y7490D01*
X16667Y7472D01*
X16618Y7457D01*
X16569Y7444D01*
X16520Y7434D01*
X16470Y7427D01*
X16419Y7423D01*
X16371Y7421D01*
X16369Y7422D01*
X14183D01*
Y7422D01*
X14135Y7420D01*
X14134Y7420D01*
X14088Y7415D01*
X14041Y7408D01*
X13994Y7397D01*
X13949Y7383D01*
X13904Y7366D01*
X13861Y7347D01*
X13819Y7324D01*
X13778Y7299D01*
X13739Y7271D01*
X13703Y7241D01*
X13668Y7208D01*
X13635Y7173D01*
X13605Y7137D01*
X13577Y7098D01*
X13552Y7057D01*
X13529Y7015D01*
X13510Y6972D01*
X13493Y6927D01*
X13479Y6882D01*
X13468Y6835D01*
X13461Y6788D01*
X13456Y6742D01*
X13456Y6741D01*
X13454Y6693D01*
X13454D01*
Y5428D01*
X13455Y5427D01*
X13453Y5408D01*
X13449Y5389D01*
X13443Y5370D01*
X13434Y5352D01*
X13423Y5335D01*
X13410Y5320D01*
X13395Y5307D01*
X13378Y5296D01*
X13361Y5287D01*
X13342Y5281D01*
X13322Y5277D01*
X13304Y5276D01*
X13302Y5276D01*
X13032D01*
X13016Y5275D01*
X13001Y5271D01*
X12987Y5265D01*
X12974Y5257D01*
X12962Y5247D01*
X12952Y5235D01*
X12944Y5222D01*
X12938Y5208D01*
X12934Y5193D01*
X12933Y5177D01*
X12934Y5162D01*
X12938Y5147D01*
X12944Y5132D01*
X12952Y5119D01*
X12962Y5107D01*
X12974Y5097D01*
X12987Y5089D01*
X13001Y5083D01*
X13016Y5080D01*
X13032Y5079D01*
X13302D01*
Y5078D01*
X13333Y5080D01*
X13363Y5084D01*
X13393Y5090D01*
X13422Y5100D01*
X13450Y5111D01*
X13477Y5125D01*
X13503Y5142D01*
X13527Y5160D01*
X13549Y5181D01*
X13570Y5203D01*
X13589Y5228D01*
X13605Y5253D01*
X13619Y5280D01*
X13631Y5309D01*
X13640Y5338D01*
X13647Y5368D01*
X13651Y5398D01*
X13652Y5428D01*
X13652D01*
Y6693D01*
X13652Y6695D01*
X13653Y6731D01*
X13657Y6769D01*
X13664Y6806D01*
X13673Y6843D01*
X13685Y6879D01*
X13700Y6914D01*
X13717Y6948D01*
X13736Y6980D01*
X13758Y7011D01*
X13781Y7041D01*
X13807Y7069D01*
X13835Y7095D01*
X13865Y7118D01*
X13896Y7140D01*
X13928Y7159D01*
X13962Y7176D01*
X13997Y7191D01*
X14033Y7203D01*
X14070Y7212D01*
X14107Y7219D01*
X14145Y7223D01*
X14181Y7224D01*
X14183Y7224D01*
X16369D01*
Y7224D01*
X16426Y7226D01*
X16484Y7230D01*
X16541Y7238D01*
X16597Y7248D01*
X16653Y7261D01*
X16708Y7278D01*
X16763Y7297D01*
X16816Y7319D01*
X16868Y7344D01*
X16918Y7371D01*
X16967Y7401D01*
X17015Y7434D01*
X17060Y7469D01*
X17104Y7506D01*
X17146Y7546D01*
X17185Y7588D01*
X17223Y7631D01*
X17258Y7677D01*
X17290Y7724D01*
X17320Y7774D01*
X17348Y7824D01*
X17373Y7876D01*
X17395Y7929D01*
X17414Y7983D01*
X17430Y8039D01*
X17444Y8094D01*
X17454Y8151D01*
X17462Y8208D01*
X17466Y8265D01*
X17468Y8323D01*
X17468D01*
Y9798D01*
X17920D01*
Y10939D01*
X17468D01*
X17468Y10939D01*
X17467Y12802D01*
X17467Y12804D01*
X17469Y12834D01*
X17472Y12867D01*
X17479Y12899D01*
X17488Y12931D01*
X17499Y12961D01*
X17513Y12991D01*
X17529Y13020D01*
X17547Y13047D01*
X17567Y13072D01*
X17589Y13096D01*
X17613Y13119D01*
X17639Y13139D01*
X17666Y13157D01*
X17695Y13173D01*
X17725Y13187D01*
X17755Y13198D01*
X17787Y13207D01*
X17819Y13213D01*
X17825Y13214D01*
X17874Y13218D01*
D01*
X17922Y13218D01*
X18051D01*
X18051Y13218D01*
X18051Y13218D01*
X18230D01*
X18246Y13219D01*
X18261Y13223D01*
X18275Y13229D01*
X18288Y13237D01*
X18300Y13247D01*
X18310Y13259D01*
X18318Y13272D01*
X18324Y13286D01*
X18328Y13301D01*
X18329Y13317D01*
X18328Y13332D01*
X18324Y13347D01*
X18318Y13362D01*
X18310Y13375D01*
X18300Y13387D01*
X18288Y13397D01*
X18275Y13405D01*
X18261Y13411D01*
X18246Y13414D01*
X18230Y13416D01*
X17920D01*
X17872Y13416D01*
D02*
G37*
G36*
X10620Y14430D02*
X10597Y14428D01*
X10574Y14423D01*
X10552Y14416D01*
X10531Y14406D01*
X10512Y14393D01*
X10495Y14378D01*
X10479Y14360D01*
X10466Y14341D01*
X10456Y14320D01*
X10449Y14298D01*
X10444Y14275D01*
X10443Y14252D01*
X10444Y14229D01*
X10449Y14206D01*
X10453Y14182D01*
X10416Y14151D01*
X10413Y14150D01*
X10394Y14137D01*
X10376Y14122D01*
X10361Y14104D01*
X10348Y14085D01*
X10338Y14064D01*
X10330Y14042D01*
X10326Y14019D01*
X10324Y13996D01*
X10326Y13973D01*
X10330Y13950D01*
X10338Y13928D01*
X10348Y13907D01*
X10361Y13888D01*
X10366Y13882D01*
X10353Y13843D01*
X10344Y13832D01*
X10326D01*
X10326Y13832D01*
X9794D01*
X9757Y13817D01*
X9730Y13790D01*
X9715Y13753D01*
Y13124D01*
X9730Y13088D01*
X9757Y13060D01*
X9794Y13045D01*
X10423D01*
X10423Y13045D01*
X10956D01*
X10992Y13060D01*
X11020Y13088D01*
X11035Y13124D01*
Y13564D01*
X11043Y13570D01*
X11061Y13585D01*
X11076Y13603D01*
X11089Y13622D01*
X11099Y13643D01*
X11107Y13665D01*
X11111Y13687D01*
X11113Y13711D01*
X11111Y13734D01*
X11107Y13757D01*
X11099Y13779D01*
X11089Y13799D01*
X11076Y13819D01*
X11061Y13836D01*
X11043Y13851D01*
X11024Y13864D01*
X11003Y13875D01*
X10981Y13882D01*
X10958Y13887D01*
X10940Y13888D01*
X10929Y13904D01*
X10923Y13922D01*
X10920Y13937D01*
X10933Y13952D01*
X10946Y13971D01*
X10956Y13992D01*
X10964Y14014D01*
X10968Y14037D01*
X10970Y14060D01*
X10968Y14083D01*
X10964Y14106D01*
X10956Y14128D01*
X10946Y14149D01*
X10933Y14168D01*
X10918Y14186D01*
X10900Y14201D01*
X10881Y14214D01*
X10860Y14224D01*
X10838Y14232D01*
X10816Y14236D01*
X10797Y14237D01*
X10798Y14252D01*
X10796Y14275D01*
X10792Y14298D01*
X10784Y14320D01*
X10774Y14341D01*
X10761Y14360D01*
X10746Y14378D01*
X10728Y14393D01*
X10709Y14406D01*
X10688Y14416D01*
X10666Y14423D01*
X10643Y14428D01*
X10620Y14430D01*
D02*
G37*
G36*
X5750Y13404D02*
X5725Y13403D01*
X5700Y13399D01*
X5676Y13393D01*
X5652Y13385D01*
X5629Y13374D01*
X5608Y13361D01*
X5587Y13346D01*
X5569Y13329D01*
X5552Y13311D01*
X5537Y13290D01*
X5524Y13269D01*
X5513Y13246D01*
X5505Y13222D01*
X5499Y13198D01*
X5495Y13173D01*
X5494Y13148D01*
X5495Y13123D01*
X5499Y13098D01*
X5505Y13074D01*
X5513Y13050D01*
X5524Y13027D01*
X5537Y13006D01*
X5552Y12985D01*
X5569Y12967D01*
X5587Y12950D01*
X5608Y12935D01*
X5629Y12922D01*
X5652Y12911D01*
X5676Y12903D01*
X5700Y12897D01*
X5725Y12893D01*
X5750Y12892D01*
X5775Y12893D01*
X5800Y12897D01*
X5824Y12903D01*
X5848Y12911D01*
X5871Y12922D01*
X5892Y12935D01*
X5913Y12950D01*
X5931Y12967D01*
X5948Y12985D01*
X5963Y13006D01*
X5976Y13027D01*
X5987Y13050D01*
X5995Y13074D01*
X6001Y13098D01*
X6005Y13123D01*
X6006Y13148D01*
X6005Y13173D01*
X6001Y13198D01*
X5995Y13222D01*
X5987Y13246D01*
X5976Y13269D01*
X5963Y13290D01*
X5948Y13311D01*
X5931Y13329D01*
X5913Y13346D01*
X5892Y13361D01*
X5871Y13374D01*
X5848Y13385D01*
X5824Y13393D01*
X5800Y13399D01*
X5775Y13403D01*
X5750Y13404D01*
D02*
G37*
G36*
X6750Y13404D02*
X6725Y13403D01*
X6700Y13399D01*
X6676Y13393D01*
X6652Y13385D01*
X6629Y13374D01*
X6608Y13361D01*
X6587Y13346D01*
X6569Y13329D01*
X6552Y13311D01*
X6537Y13290D01*
X6524Y13269D01*
X6513Y13246D01*
X6505Y13222D01*
X6499Y13198D01*
X6495Y13173D01*
X6494Y13148D01*
X6495Y13123D01*
X6499Y13098D01*
X6505Y13074D01*
X6513Y13050D01*
X6524Y13027D01*
X6537Y13006D01*
X6552Y12985D01*
X6569Y12967D01*
X6587Y12950D01*
X6608Y12935D01*
X6629Y12922D01*
X6652Y12911D01*
X6676Y12903D01*
X6700Y12897D01*
X6725Y12893D01*
X6750Y12892D01*
X6775Y12893D01*
X6800Y12897D01*
X6824Y12903D01*
X6848Y12911D01*
X6871Y12922D01*
X6892Y12935D01*
X6913Y12950D01*
X6931Y12967D01*
X6948Y12985D01*
X6963Y13006D01*
X6976Y13027D01*
X6987Y13050D01*
X6995Y13074D01*
X7001Y13098D01*
X7005Y13123D01*
X7006Y13148D01*
X7005Y13173D01*
X7001Y13198D01*
X6995Y13222D01*
X6987Y13246D01*
X6976Y13269D01*
X6963Y13290D01*
X6948Y13311D01*
X6931Y13329D01*
X6913Y13346D01*
X6892Y13361D01*
X6871Y13374D01*
X6848Y13385D01*
X6824Y13393D01*
X6800Y13399D01*
X6775Y13403D01*
X6750Y13404D01*
D02*
G37*
G36*
X7750Y13404D02*
X7725Y13403D01*
X7700Y13399D01*
X7676Y13393D01*
X7652Y13385D01*
X7629Y13374D01*
X7608Y13361D01*
X7587Y13346D01*
X7569Y13329D01*
X7552Y13311D01*
X7537Y13290D01*
X7524Y13269D01*
X7513Y13246D01*
X7505Y13222D01*
X7499Y13198D01*
X7495Y13173D01*
X7494Y13148D01*
X7495Y13123D01*
X7499Y13098D01*
X7505Y13074D01*
X7513Y13050D01*
X7524Y13027D01*
X7537Y13006D01*
X7552Y12985D01*
X7569Y12967D01*
X7587Y12950D01*
X7608Y12935D01*
X7629Y12922D01*
X7652Y12911D01*
X7676Y12903D01*
X7700Y12897D01*
X7725Y12893D01*
X7750Y12892D01*
X7775Y12893D01*
X7800Y12897D01*
X7824Y12903D01*
X7848Y12911D01*
X7871Y12922D01*
X7892Y12935D01*
X7913Y12950D01*
X7931Y12967D01*
X7948Y12985D01*
X7963Y13006D01*
X7976Y13027D01*
X7987Y13050D01*
X7995Y13074D01*
X8001Y13098D01*
X8005Y13123D01*
X8006Y13148D01*
X8005Y13173D01*
X8001Y13198D01*
X7995Y13222D01*
X7987Y13246D01*
X7976Y13269D01*
X7963Y13290D01*
X7948Y13311D01*
X7931Y13329D01*
X7913Y13346D01*
X7892Y13361D01*
X7871Y13374D01*
X7848Y13385D01*
X7824Y13393D01*
X7800Y13399D01*
X7775Y13403D01*
X7750Y13404D01*
D02*
G37*
G36*
X2923Y13170D02*
X2900Y13168D01*
X2877Y13164D01*
X2855Y13156D01*
X2834Y13146D01*
X2815Y13133D01*
X2798Y13118D01*
X2782Y13100D01*
X2769Y13081D01*
X2759Y13060D01*
X2752Y13038D01*
X2747Y13015D01*
X2746Y12992D01*
X2747Y12969D01*
X2752Y12946D01*
X2759Y12924D01*
X2769Y12903D01*
X2782Y12884D01*
X2798Y12867D01*
X2815Y12851D01*
X2834Y12838D01*
X2855Y12828D01*
X2877Y12821D01*
X2900Y12816D01*
X2923Y12815D01*
X2946Y12816D01*
X2969Y12821D01*
X2991Y12828D01*
X3012Y12838D01*
X3031Y12851D01*
X3049Y12867D01*
X3064Y12884D01*
X3077Y12903D01*
X3087Y12924D01*
X3095Y12946D01*
X3099Y12969D01*
X3101Y12992D01*
X3099Y13015D01*
X3095Y13038D01*
X3087Y13060D01*
X3077Y13081D01*
X3064Y13100D01*
X3049Y13118D01*
X3031Y13133D01*
X3012Y13146D01*
X2991Y13156D01*
X2969Y13164D01*
X2946Y13168D01*
X2923Y13170D01*
D02*
G37*
G36*
X11722Y13081D02*
X11699Y13080D01*
X11676Y13075D01*
X11654Y13068D01*
X11634Y13057D01*
X11614Y13044D01*
X11597Y13029D01*
X11582Y13012D01*
X11569Y12992D01*
X11558Y12971D01*
X11551Y12949D01*
X11546Y12927D01*
X11545Y12904D01*
X11546Y12880D01*
X11551Y12858D01*
X11558Y12836D01*
X11569Y12815D01*
X11582Y12795D01*
X11597Y12778D01*
X11614Y12763D01*
X11634Y12750D01*
X11654Y12740D01*
X11676Y12732D01*
X11699Y12728D01*
X11722Y12726D01*
X11746Y12728D01*
X11768Y12732D01*
X11790Y12740D01*
X11811Y12750D01*
X11831Y12763D01*
X11848Y12778D01*
X11863Y12795D01*
X11876Y12815D01*
X11886Y12836D01*
X11894Y12858D01*
X11898Y12880D01*
X11900Y12904D01*
X11898Y12927D01*
X11894Y12949D01*
X11886Y12971D01*
X11876Y12992D01*
X11863Y13012D01*
X11848Y13029D01*
X11831Y13044D01*
X11811Y13057D01*
X11790Y13068D01*
X11768Y13075D01*
X11746Y13080D01*
X11722Y13081D01*
D02*
G37*
G36*
X14321Y13849D02*
X14298Y13847D01*
X14275Y13843D01*
X14253Y13835D01*
X14232Y13825D01*
X14213Y13812D01*
X14195Y13797D01*
X14180Y13779D01*
X14167Y13760D01*
X14157Y13739D01*
X14149Y13717D01*
X14145Y13694D01*
X14143Y13671D01*
X14145Y13648D01*
X14149Y13625D01*
X14157Y13603D01*
X14167Y13582D01*
X14180Y13563D01*
X14195Y13546D01*
Y13541D01*
X14180Y13523D01*
X14167Y13504D01*
X14157Y13483D01*
X14149Y13461D01*
X14145Y13439D01*
X14143Y13415D01*
X14145Y13392D01*
X14149Y13369D01*
X14157Y13347D01*
X14167Y13327D01*
X14180Y13307D01*
X14195Y13290D01*
Y13285D01*
X14180Y13268D01*
X14167Y13248D01*
X14157Y13227D01*
X14149Y13205D01*
X14145Y13183D01*
X14143Y13159D01*
X14145Y13136D01*
X14149Y13113D01*
X14157Y13092D01*
X14167Y13071D01*
X14180Y13051D01*
X14195Y13034D01*
Y13029D01*
X14180Y13012D01*
X14167Y12992D01*
X14157Y12971D01*
X14149Y12950D01*
X14145Y12927D01*
X14143Y12904D01*
X14145Y12880D01*
X14149Y12858D01*
X14157Y12836D01*
X14167Y12815D01*
X14180Y12795D01*
X14193Y12781D01*
X14180Y12766D01*
X14167Y12746D01*
X14157Y12725D01*
X14149Y12703D01*
X14145Y12681D01*
X14143Y12657D01*
X14145Y12634D01*
X14149Y12612D01*
X14157Y12590D01*
X14167Y12569D01*
X14180Y12549D01*
X14195Y12532D01*
X14213Y12517D01*
X14232Y12504D01*
X14253Y12493D01*
X14275Y12486D01*
X14298Y12481D01*
X14321Y12480D01*
X14344Y12481D01*
X14367Y12486D01*
X14389Y12493D01*
X14410Y12504D01*
X14429Y12517D01*
X14446Y12532D01*
X14462Y12549D01*
X14475Y12569D01*
X14485Y12590D01*
X14492Y12612D01*
X14497Y12634D01*
X14498Y12657D01*
X14497Y12681D01*
X14492Y12703D01*
X14485Y12725D01*
X14475Y12746D01*
X14462Y12766D01*
X14449Y12781D01*
X14462Y12795D01*
X14475Y12815D01*
X14485Y12836D01*
X14492Y12858D01*
X14497Y12880D01*
X14498Y12904D01*
X14497Y12927D01*
X14492Y12950D01*
X14485Y12971D01*
X14475Y12992D01*
X14462Y13012D01*
X14446Y13029D01*
Y13034D01*
X14462Y13051D01*
X14475Y13071D01*
X14485Y13092D01*
X14492Y13113D01*
X14497Y13136D01*
X14498Y13159D01*
X14497Y13183D01*
X14492Y13205D01*
X14485Y13227D01*
X14475Y13248D01*
X14462Y13268D01*
X14446Y13285D01*
Y13290D01*
X14462Y13307D01*
X14475Y13327D01*
X14485Y13347D01*
X14492Y13369D01*
X14497Y13392D01*
X14498Y13415D01*
X14497Y13439D01*
X14492Y13461D01*
X14485Y13483D01*
X14475Y13504D01*
X14462Y13523D01*
X14446Y13541D01*
Y13546D01*
X14462Y13563D01*
X14475Y13582D01*
X14485Y13603D01*
X14492Y13625D01*
X14497Y13648D01*
X14498Y13671D01*
X14497Y13694D01*
X14492Y13717D01*
X14485Y13739D01*
X14475Y13760D01*
X14462Y13779D01*
X14446Y13797D01*
X14429Y13812D01*
X14410Y13825D01*
X14389Y13835D01*
X14367Y13843D01*
X14344Y13847D01*
X14321Y13849D01*
D02*
G37*
G36*
X3819Y12422D02*
X3790Y12420D01*
X3761Y12416D01*
X3733Y12409D01*
X3706Y12399D01*
X3681Y12387D01*
X3656Y12399D01*
X3629Y12409D01*
X3601Y12416D01*
X3572Y12420D01*
X3543Y12422D01*
X3514Y12420D01*
X3486Y12416D01*
X3457Y12409D01*
X3430Y12399D01*
X3404Y12387D01*
X3379Y12372D01*
X3356Y12355D01*
X3334Y12335D01*
X3315Y12314D01*
X3298Y12290D01*
X3283Y12265D01*
X3270Y12239D01*
X3260Y12212D01*
X3253Y12184D01*
X3249Y12155D01*
X3248Y12126D01*
X3249Y12097D01*
X3253Y12068D01*
X3260Y12040D01*
X3270Y12013D01*
X3283Y11987D01*
X3298Y11962D01*
X3315Y11938D01*
X3334Y11917D01*
X3356Y11897D01*
X3379Y11880D01*
X3404Y11865D01*
X3430Y11853D01*
X3457Y11843D01*
X3486Y11836D01*
X3514Y11832D01*
X3543Y11830D01*
X3572Y11832D01*
X3601Y11836D01*
X3629Y11843D01*
X3656Y11853D01*
X3681Y11865D01*
X3706Y11853D01*
X3733Y11843D01*
X3761Y11836D01*
X3790Y11832D01*
X3819Y11830D01*
X3848Y11832D01*
X3877Y11836D01*
X3905Y11843D01*
X3932Y11853D01*
X3958Y11865D01*
X3983Y11880D01*
X4006Y11897D01*
X4028Y11917D01*
X4047Y11938D01*
X4065Y11962D01*
X4080Y11987D01*
X4092Y12013D01*
X4102Y12040D01*
X4109Y12068D01*
X4113Y12097D01*
X4115Y12126D01*
X4113Y12155D01*
X4109Y12184D01*
X4102Y12212D01*
X4092Y12239D01*
X4080Y12265D01*
X4065Y12290D01*
X4047Y12314D01*
X4028Y12335D01*
X4006Y12355D01*
X3983Y12372D01*
X3958Y12387D01*
X3932Y12399D01*
X3905Y12409D01*
X3877Y12416D01*
X3848Y12420D01*
X3819Y12422D01*
D02*
G37*
G36*
X6124Y12522D02*
X5800D01*
Y12198D01*
X6124D01*
Y12522D01*
D02*
G37*
G36*
X5700D02*
X5376D01*
Y12198D01*
X5700D01*
Y12522D01*
D02*
G37*
G36*
X8124Y12522D02*
X7800D01*
Y12198D01*
X8124D01*
Y12522D01*
D02*
G37*
G36*
X7700D02*
X7376D01*
Y12198D01*
X7700D01*
Y12522D01*
D02*
G37*
G36*
X7124Y12522D02*
X6800D01*
Y12198D01*
X7124D01*
Y12522D01*
D02*
G37*
G36*
X6700D02*
X6376D01*
Y12198D01*
X6700D01*
Y12522D01*
D02*
G37*
G36*
X10039Y12491D02*
X10016Y12489D01*
X9993Y12485D01*
X9971Y12477D01*
X9951Y12467D01*
X9931Y12454D01*
X9914Y12439D01*
X9899Y12421D01*
X9886Y12402D01*
X9875Y12381D01*
X9868Y12359D01*
X9863Y12336D01*
X9862Y12313D01*
X9863Y12290D01*
X9836Y12268D01*
X9814Y12261D01*
X9793Y12250D01*
X9774Y12237D01*
X9756Y12222D01*
X9741Y12205D01*
X9728Y12185D01*
X9718Y12164D01*
X9710Y12142D01*
X9706Y12120D01*
X9704Y12096D01*
X9706Y12073D01*
X9710Y12051D01*
X9718Y12029D01*
X9728Y12008D01*
X9741Y11988D01*
X9756Y11971D01*
X9774Y11956D01*
X9793Y11943D01*
X9814Y11932D01*
X9836Y11925D01*
X9859Y11920D01*
X9882Y11919D01*
X9905Y11920D01*
X9928Y11925D01*
X9950Y11932D01*
X9971Y11943D01*
X9990Y11956D01*
X10007Y11971D01*
X10023Y11988D01*
X10036Y12008D01*
X10046Y12029D01*
X10053Y12051D01*
X10058Y12073D01*
X10059Y12096D01*
X10058Y12120D01*
X10085Y12142D01*
X10107Y12149D01*
X10128Y12159D01*
X10147Y12172D01*
X10165Y12187D01*
X10180Y12205D01*
X10193Y12224D01*
X10203Y12245D01*
X10211Y12267D01*
X10215Y12290D01*
X10217Y12313D01*
X10215Y12336D01*
X10211Y12359D01*
X10203Y12381D01*
X10193Y12402D01*
X10180Y12421D01*
X10165Y12439D01*
X10147Y12454D01*
X10128Y12467D01*
X10107Y12477D01*
X10085Y12485D01*
X10063Y12489D01*
X10039Y12491D01*
D02*
G37*
G36*
X11622Y11920D02*
X11599Y11918D01*
X11576Y11914D01*
X11554Y11906D01*
X11534Y11896D01*
X11514Y11883D01*
X11497Y11868D01*
X11481Y11850D01*
X11469Y11831D01*
X11458Y11810D01*
X11451Y11788D01*
X11451Y11787D01*
X11435Y11790D01*
X11412Y11792D01*
X11389Y11790D01*
X11366Y11786D01*
X11344Y11778D01*
X11323Y11768D01*
X11304Y11755D01*
X11287Y11740D01*
X11271Y11722D01*
X11258Y11703D01*
X11248Y11682D01*
X11241Y11660D01*
X11236Y11637D01*
X11235Y11614D01*
X11236Y11591D01*
X11241Y11568D01*
X11248Y11546D01*
X11258Y11525D01*
X11271Y11506D01*
X11287Y11489D01*
X11304Y11473D01*
X11323Y11460D01*
X11344Y11450D01*
X11366Y11443D01*
X11389Y11438D01*
X11412Y11437D01*
X11435Y11438D01*
X11458Y11443D01*
X11480Y11450D01*
X11501Y11460D01*
X11520Y11473D01*
X11538Y11489D01*
X11553Y11506D01*
X11566Y11525D01*
X11576Y11546D01*
X11584Y11568D01*
X11584Y11569D01*
X11599Y11566D01*
X11622Y11565D01*
X11646Y11566D01*
X11668Y11571D01*
X11690Y11578D01*
X11711Y11588D01*
X11730Y11601D01*
X11748Y11617D01*
X11763Y11634D01*
X11776Y11653D01*
X11786Y11674D01*
X11794Y11696D01*
X11798Y11719D01*
X11800Y11742D01*
X11798Y11765D01*
X11794Y11788D01*
X11786Y11810D01*
X11776Y11831D01*
X11763Y11850D01*
X11748Y11868D01*
X11730Y11883D01*
X11711Y11896D01*
X11690Y11906D01*
X11668Y11914D01*
X11646Y11918D01*
X11622Y11920D01*
D02*
G37*
G36*
X6124Y12098D02*
X5800D01*
Y11774D01*
X6124D01*
Y12098D01*
D02*
G37*
G36*
X5700D02*
X5376D01*
Y11774D01*
X5700D01*
Y12098D01*
D02*
G37*
G36*
X7124Y12098D02*
X6800D01*
Y11774D01*
X7124D01*
Y12098D01*
D02*
G37*
G36*
X6700D02*
X6376D01*
Y11774D01*
X6700D01*
Y12098D01*
D02*
G37*
G36*
X8124Y12098D02*
X7800D01*
Y11774D01*
X8124D01*
Y12098D01*
D02*
G37*
G36*
X7700D02*
X7376D01*
Y11774D01*
X7700D01*
Y12098D01*
D02*
G37*
G36*
X5821Y11240D02*
X5798Y11238D01*
X5776Y11234D01*
X5754Y11226D01*
X5733Y11216D01*
X5713Y11203D01*
X5696Y11188D01*
X5681Y11171D01*
X5668Y11151D01*
X5657Y11130D01*
X5650Y11108D01*
X5645Y11086D01*
X5644Y11062D01*
X5645Y11039D01*
X5650Y11016D01*
X5657Y10994D01*
X5668Y10974D01*
X5681Y10954D01*
X5696Y10937D01*
X5713Y10922D01*
X5733Y10909D01*
X5754Y10898D01*
X5776Y10891D01*
X5798Y10886D01*
X5821Y10885D01*
X5845Y10886D01*
X5867Y10891D01*
X5889Y10898D01*
X5910Y10909D01*
X5930Y10922D01*
X5947Y10937D01*
X5962Y10954D01*
X5975Y10974D01*
X5986Y10994D01*
X5993Y11016D01*
X5997Y11039D01*
X5999Y11062D01*
X5997Y11086D01*
X5993Y11108D01*
X5986Y11130D01*
X5975Y11151D01*
X5962Y11171D01*
X5947Y11188D01*
X5930Y11203D01*
X5910Y11216D01*
X5889Y11226D01*
X5867Y11234D01*
X5845Y11238D01*
X5821Y11240D01*
D02*
G37*
G36*
X7648Y11103D02*
X6850D01*
X6827Y11101D01*
X6804Y11097D01*
X6782Y11089D01*
X6762Y11079D01*
X6742Y11066D01*
X6725Y11051D01*
X6710Y11033D01*
X6697Y11014D01*
X6686Y10993D01*
X6679Y10971D01*
X6674Y10948D01*
X6673Y10925D01*
X6674Y10902D01*
X6679Y10879D01*
X6686Y10857D01*
X6697Y10836D01*
X6710Y10817D01*
X6725Y10800D01*
X6742Y10784D01*
X6762Y10771D01*
X6782Y10761D01*
X6804Y10754D01*
X6827Y10749D01*
X6850Y10748D01*
X7574D01*
X7827Y10495D01*
X7845Y10479D01*
X7864Y10466D01*
X7885Y10456D01*
X7907Y10449D01*
X7930Y10444D01*
X7953Y10443D01*
X7976Y10444D01*
X7999Y10449D01*
X8021Y10456D01*
X8042Y10466D01*
X8061Y10479D01*
X8078Y10495D01*
X8094Y10512D01*
X8107Y10531D01*
X8117Y10552D01*
X8124Y10574D01*
X8129Y10597D01*
X8130Y10620D01*
X8129Y10643D01*
X8124Y10666D01*
X8117Y10688D01*
X8107Y10709D01*
X8094Y10728D01*
X8078Y10746D01*
X7773Y11051D01*
X7756Y11066D01*
X7736Y11079D01*
X7716Y11089D01*
X7694Y11097D01*
X7671Y11101D01*
X7648Y11103D01*
D02*
G37*
G36*
X15059Y10394D02*
X15036Y10393D01*
X15013Y10388D01*
X14991Y10381D01*
X14970Y10370D01*
X14951Y10357D01*
X14934Y10342D01*
X14918Y10325D01*
X14905Y10305D01*
X14895Y10284D01*
X14888Y10262D01*
X14883Y10240D01*
X14882Y10217D01*
X14882Y10207D01*
X14864Y10206D01*
X14841Y10201D01*
X14819Y10194D01*
X14798Y10183D01*
X14779Y10170D01*
X14761Y10155D01*
X14746Y10138D01*
X14733Y10118D01*
X14723Y10097D01*
X14715Y10075D01*
X14711Y10053D01*
X14709Y10030D01*
X14711Y10006D01*
X14715Y9984D01*
X14723Y9962D01*
X14733Y9941D01*
X14746Y9921D01*
X14761Y9904D01*
X14779Y9889D01*
X14798Y9876D01*
X14819Y9866D01*
X14841Y9858D01*
X14864Y9854D01*
X14887Y9852D01*
X14910Y9854D01*
X14933Y9858D01*
X14955Y9866D01*
X14976Y9876D01*
X14995Y9889D01*
X15012Y9904D01*
X15028Y9921D01*
X15030Y9925D01*
X15043Y9929D01*
X15075D01*
X15088Y9925D01*
X15090Y9921D01*
X15106Y9904D01*
X15123Y9889D01*
X15143Y9876D01*
X15163Y9866D01*
X15185Y9858D01*
X15208Y9854D01*
X15231Y9852D01*
X15254Y9854D01*
X15277Y9858D01*
X15299Y9866D01*
X15320Y9876D01*
X15339Y9889D01*
X15357Y9904D01*
X15372Y9921D01*
X15385Y9941D01*
X15395Y9962D01*
X15403Y9984D01*
X15407Y10006D01*
X15409Y10030D01*
X15407Y10053D01*
X15403Y10075D01*
X15395Y10097D01*
X15385Y10118D01*
X15372Y10138D01*
X15357Y10155D01*
X15339Y10170D01*
X15320Y10183D01*
X15299Y10194D01*
X15277Y10201D01*
X15254Y10206D01*
X15236Y10207D01*
X15237Y10217D01*
X15235Y10240D01*
X15231Y10262D01*
X15223Y10284D01*
X15213Y10305D01*
X15200Y10325D01*
X15185Y10342D01*
X15167Y10357D01*
X15148Y10370D01*
X15127Y10381D01*
X15105Y10388D01*
X15082Y10393D01*
X15059Y10394D01*
D02*
G37*
G36*
X8287Y9892D02*
X8264Y9891D01*
X8241Y9886D01*
X8219Y9879D01*
X8199Y9868D01*
X8179Y9855D01*
X8162Y9840D01*
X8147Y9823D01*
X8134Y9803D01*
X8123Y9783D01*
X8116Y9761D01*
X8111Y9738D01*
X8110Y9715D01*
X8111Y9691D01*
X8116Y9669D01*
X8123Y9647D01*
X8134Y9626D01*
X8147Y9606D01*
X8162Y9589D01*
X8179Y9574D01*
X8199Y9561D01*
X8219Y9551D01*
X8241Y9543D01*
X8264Y9539D01*
X8287Y9537D01*
X8311Y9539D01*
X8333Y9543D01*
X8355Y9551D01*
X8376Y9561D01*
X8395Y9574D01*
X8413Y9589D01*
X8428Y9606D01*
X8441Y9626D01*
X8451Y9647D01*
X8459Y9669D01*
X8463Y9691D01*
X8465Y9715D01*
X8463Y9738D01*
X8459Y9761D01*
X8451Y9783D01*
X8441Y9803D01*
X8428Y9823D01*
X8413Y9840D01*
X8395Y9855D01*
X8376Y9868D01*
X8355Y9879D01*
X8333Y9886D01*
X8311Y9891D01*
X8287Y9892D01*
D02*
G37*
G36*
X16063Y9843D02*
X15433D01*
X15397Y9828D01*
X15369Y9800D01*
X15354Y9764D01*
Y9617D01*
X15331Y9615D01*
X15308Y9610D01*
X15286Y9603D01*
X15266Y9593D01*
X15246Y9580D01*
X15229Y9565D01*
X15213Y9547D01*
X15201Y9528D01*
X15190Y9507D01*
X15183Y9485D01*
X15178Y9462D01*
X15177Y9439D01*
X15178Y9416D01*
X15183Y9393D01*
X15190Y9371D01*
X15201Y9350D01*
X15213Y9331D01*
X15229Y9313D01*
X15246Y9298D01*
X15266Y9285D01*
X15286Y9275D01*
X15308Y9267D01*
X15331Y9263D01*
X15354Y9261D01*
Y9134D01*
X15369Y9098D01*
X15397Y9070D01*
X15433Y9055D01*
X16063D01*
X16099Y9070D01*
X16127Y9098D01*
X16142Y9134D01*
Y9764D01*
X16127Y9800D01*
X16099Y9828D01*
X16063Y9843D01*
D02*
G37*
G36*
X3591Y9882D02*
X3566Y9881D01*
X3541Y9877D01*
X3517Y9871D01*
X3493Y9863D01*
X3471Y9852D01*
X3449Y9839D01*
X3429Y9824D01*
X3410Y9807D01*
X3393Y9789D01*
X3378Y9768D01*
X3365Y9747D01*
X3355Y9724D01*
X3346Y9700D01*
X3340Y9676D01*
X3336Y9651D01*
X3335Y9626D01*
X3336Y9601D01*
X3340Y9576D01*
X3346Y9552D01*
X3355Y9528D01*
X3365Y9505D01*
X3378Y9484D01*
X3393Y9463D01*
X3402Y9454D01*
X3406Y9441D01*
X3422Y9407D01*
X3441Y9373D01*
X3462Y9342D01*
X3479Y9321D01*
X3486Y9312D01*
X3511Y9284D01*
X3515Y9236D01*
X3513Y9213D01*
X3515Y9187D01*
X3518Y9163D01*
X3525Y9138D01*
X3533Y9115D01*
X3544Y9092D01*
X3557Y9070D01*
X3572Y9050D01*
X3589Y9031D01*
X3607Y9015D01*
X3627Y9000D01*
X3649Y8987D01*
X3672Y8976D01*
X3695Y8967D01*
X3720Y8961D01*
X3745Y8958D01*
X3770Y8956D01*
X3795Y8958D01*
X3820Y8961D01*
X3844Y8967D01*
X3868Y8976D01*
X3890Y8987D01*
X3912Y9000D01*
X3932Y9015D01*
X3951Y9031D01*
X3968Y9050D01*
X3983Y9070D01*
X3996Y9092D01*
X4006Y9115D01*
X4015Y9138D01*
X4021Y9163D01*
X4025Y9187D01*
X4026Y9213D01*
X4025Y9238D01*
X4021Y9263D01*
X4015Y9287D01*
X4006Y9311D01*
X3996Y9333D01*
X3983Y9355D01*
X3968Y9375D01*
X3964Y9379D01*
X3958Y9397D01*
X3944Y9432D01*
X3927Y9466D01*
X3908Y9498D01*
X3886Y9529D01*
X3862Y9558D01*
X3843Y9579D01*
X3846Y9601D01*
X3848Y9626D01*
X3846Y9651D01*
X3843Y9676D01*
X3837Y9700D01*
X3828Y9724D01*
X3817Y9747D01*
X3804Y9768D01*
X3789Y9789D01*
X3773Y9807D01*
X3754Y9824D01*
X3734Y9839D01*
X3712Y9852D01*
X3689Y9863D01*
X3666Y9871D01*
X3641Y9877D01*
X3616Y9881D01*
X3591Y9882D01*
D02*
G37*
G36*
X9360Y9223D02*
X9337Y9221D01*
X9314Y9217D01*
X9292Y9209D01*
X9271Y9199D01*
X9252Y9186D01*
X9235Y9171D01*
X9219Y9153D01*
X9206Y9134D01*
X9196Y9113D01*
X9189Y9091D01*
X9184Y9068D01*
X9183Y9045D01*
X9184Y9022D01*
X9189Y8999D01*
X9196Y8977D01*
X9206Y8957D01*
X9219Y8937D01*
X9235Y8920D01*
X9252Y8904D01*
X9271Y8892D01*
X9292Y8881D01*
X9314Y8874D01*
X9337Y8869D01*
X9360Y8868D01*
X9383Y8869D01*
X9406Y8874D01*
X9428Y8881D01*
X9449Y8892D01*
X9468Y8904D01*
X9486Y8920D01*
X9501Y8937D01*
X9514Y8957D01*
X9524Y8977D01*
X9532Y8999D01*
X9536Y9022D01*
X9538Y9045D01*
X9536Y9068D01*
X9532Y9091D01*
X9524Y9113D01*
X9514Y9134D01*
X9501Y9153D01*
X9486Y9171D01*
X9468Y9186D01*
X9449Y9199D01*
X9428Y9209D01*
X9406Y9217D01*
X9383Y9221D01*
X9360Y9223D01*
D02*
G37*
G36*
X10763Y9651D02*
X10740Y9649D01*
X10717Y9645D01*
X10695Y9637D01*
X10674Y9627D01*
X10655Y9614D01*
X10637Y9599D01*
X10622Y9582D01*
X10619Y9577D01*
X10542D01*
X10526Y9576D01*
X10510Y9572D01*
X10495Y9566D01*
X10481Y9557D01*
X10469Y9547D01*
X9190Y8268D01*
X9146Y8295D01*
X9148Y8300D01*
X9152Y8323D01*
X9154Y8346D01*
X9152Y8370D01*
X9148Y8392D01*
X9140Y8414D01*
X9130Y8435D01*
X9117Y8455D01*
X9104Y8469D01*
X9117Y8484D01*
X9130Y8504D01*
X9140Y8525D01*
X9148Y8547D01*
X9152Y8569D01*
X9154Y8593D01*
X9152Y8616D01*
X9148Y8638D01*
X9140Y8660D01*
X9130Y8681D01*
X9117Y8701D01*
X9102Y8718D01*
X9084Y8733D01*
X9065Y8746D01*
X9044Y8757D01*
X9022Y8764D01*
X9000Y8769D01*
X8976Y8770D01*
X8953Y8769D01*
X8930Y8764D01*
X8908Y8757D01*
X8888Y8746D01*
X8868Y8733D01*
X8866Y8731D01*
X8852Y8729D01*
X8820Y8736D01*
X8806Y8743D01*
X8805Y8745D01*
X8792Y8765D01*
X8777Y8782D01*
X8760Y8797D01*
X8740Y8810D01*
X8720Y8821D01*
X8698Y8828D01*
X8675Y8833D01*
X8652Y8834D01*
X8628Y8833D01*
X8606Y8828D01*
X8584Y8821D01*
X8563Y8810D01*
X8543Y8797D01*
X8526Y8782D01*
X8511Y8765D01*
X8498Y8745D01*
X8488Y8724D01*
X8480Y8702D01*
X8476Y8680D01*
X8474Y8656D01*
X8476Y8633D01*
X8480Y8611D01*
X8488Y8589D01*
X8498Y8568D01*
X8511Y8548D01*
X8526Y8531D01*
X8543Y8516D01*
X8548Y8513D01*
Y7874D01*
X8549Y7858D01*
X8553Y7842D01*
X8559Y7827D01*
X8568Y7813D01*
X8578Y7801D01*
X8735Y7644D01*
Y6644D01*
X8736Y6628D01*
X8740Y6612D01*
X8746Y6597D01*
X8755Y6583D01*
X8765Y6571D01*
X9001Y6335D01*
Y5721D01*
X8995Y5714D01*
X8985Y5699D01*
X8977Y5683D01*
X8971Y5666D01*
X8968Y5648D01*
X8966Y5630D01*
X8968Y5612D01*
X8971Y5594D01*
X8977Y5577D01*
X8985Y5561D01*
X8995Y5546D01*
X9007Y5532D01*
X9020Y5521D01*
X9035Y5510D01*
X9052Y5502D01*
X9069Y5497D01*
X9086Y5493D01*
X9104Y5492D01*
X9123Y5493D01*
X9140Y5497D01*
X9157Y5502D01*
X9174Y5510D01*
X9183Y5517D01*
X9193Y5510D01*
X9209Y5502D01*
X9226Y5497D01*
X9244Y5493D01*
X9262Y5492D01*
X9280Y5493D01*
X9298Y5497D01*
X9315Y5502D01*
X9331Y5510D01*
X9341Y5517D01*
X9350Y5510D01*
X9367Y5502D01*
X9384Y5497D01*
X9401Y5493D01*
X9419Y5492D01*
X9437Y5493D01*
X9455Y5497D01*
X9472Y5502D01*
X9488Y5510D01*
X9498Y5517D01*
X9508Y5510D01*
X9524Y5502D01*
X9541Y5497D01*
X9559Y5493D01*
X9577Y5492D01*
X9595Y5493D01*
X9613Y5497D01*
X9630Y5502D01*
X9646Y5510D01*
X9656Y5517D01*
X9665Y5510D01*
X9682Y5502D01*
X9699Y5497D01*
X9716Y5493D01*
X9734Y5492D01*
X9752Y5493D01*
X9770Y5497D01*
X9787Y5502D01*
X9803Y5510D01*
X9813Y5517D01*
X9823Y5510D01*
X9839Y5502D01*
X9856Y5497D01*
X9874Y5493D01*
X9892Y5492D01*
X9910Y5493D01*
X9928Y5497D01*
X9945Y5502D01*
X9961Y5510D01*
X9976Y5521D01*
X9990Y5532D01*
X10001Y5546D01*
X10011Y5561D01*
X10019Y5577D01*
X10025Y5594D01*
X10029Y5612D01*
X10030Y5630D01*
X10029Y5648D01*
X10025Y5666D01*
X10019Y5683D01*
X10011Y5699D01*
X10001Y5714D01*
X9990Y5728D01*
X9976Y5740D01*
X9961Y5750D01*
X9945Y5758D01*
X9940Y5759D01*
X9877Y5822D01*
Y6569D01*
X9876Y6586D01*
X9872Y6601D01*
X9866Y6616D01*
X9858Y6630D01*
X9847Y6643D01*
X9533Y6957D01*
Y7415D01*
X9552Y7428D01*
X9583Y7436D01*
X9592Y7428D01*
X9611Y7415D01*
X9632Y7405D01*
X9654Y7398D01*
X9677Y7393D01*
X9700Y7392D01*
X9723Y7393D01*
X9746Y7398D01*
X9768Y7405D01*
X9789Y7415D01*
X9808Y7428D01*
X9826Y7444D01*
X9841Y7461D01*
X9854Y7480D01*
X9864Y7501D01*
X9871Y7523D01*
X9876Y7546D01*
X9878Y7569D01*
X9876Y7592D01*
X9871Y7615D01*
X9864Y7637D01*
X9854Y7658D01*
X9841Y7677D01*
X9826Y7695D01*
X9808Y7710D01*
X9789Y7723D01*
X9768Y7733D01*
X9746Y7741D01*
X9723Y7745D01*
X9700Y7747D01*
X9677Y7745D01*
X9654Y7741D01*
X9632Y7733D01*
X9611Y7723D01*
X9592Y7710D01*
X9583Y7702D01*
X9552Y7710D01*
X9533Y7723D01*
Y7900D01*
X10438Y8805D01*
X10492Y8818D01*
X10509Y8803D01*
X10528Y8790D01*
X10549Y8780D01*
X10571Y8772D01*
X10594Y8768D01*
X10617Y8766D01*
X10640Y8768D01*
X10663Y8772D01*
X10685Y8780D01*
X10706Y8790D01*
X10725Y8803D01*
X10743Y8818D01*
X10758Y8836D01*
X10771Y8855D01*
X10781Y8876D01*
X10789Y8898D01*
X10793Y8921D01*
X10795Y8944D01*
X10793Y8963D01*
X10795Y8969D01*
X10826Y9009D01*
X10834Y9013D01*
X11804D01*
X11811Y9006D01*
X11812Y8983D01*
X11817Y8960D01*
X11824Y8938D01*
X11834Y8917D01*
X11847Y8898D01*
X11863Y8880D01*
X11880Y8865D01*
X11899Y8852D01*
X11920Y8842D01*
X11942Y8834D01*
X11965Y8830D01*
X11988Y8828D01*
X12011Y8830D01*
X12034Y8834D01*
X12056Y8842D01*
X12077Y8852D01*
X12096Y8865D01*
X12114Y8880D01*
X12129Y8898D01*
X12142Y8917D01*
X12152Y8938D01*
X12160Y8960D01*
X12164Y8983D01*
X12166Y9006D01*
X12164Y9029D01*
X12160Y9052D01*
X12152Y9074D01*
X12142Y9095D01*
X12129Y9114D01*
X12114Y9131D01*
X12096Y9147D01*
X12077Y9160D01*
X12056Y9170D01*
X12034Y9177D01*
X12011Y9182D01*
X11988Y9183D01*
X11965Y9182D01*
X11960Y9181D01*
X11951Y9189D01*
X11939Y9200D01*
X11925Y9209D01*
X11910Y9215D01*
X11894Y9219D01*
X11878Y9220D01*
X10822D01*
X10792Y9259D01*
X10805Y9301D01*
X10809Y9302D01*
X10831Y9309D01*
X10852Y9320D01*
X10871Y9333D01*
X10888Y9348D01*
X10904Y9365D01*
X10917Y9385D01*
X10927Y9405D01*
X10934Y9427D01*
X10939Y9450D01*
X10940Y9473D01*
X10939Y9497D01*
X10934Y9519D01*
X10927Y9541D01*
X10917Y9562D01*
X10904Y9582D01*
X10888Y9599D01*
X10871Y9614D01*
X10852Y9627D01*
X10831Y9637D01*
X10809Y9645D01*
X10786Y9649D01*
X10763Y9651D01*
D02*
G37*
G36*
X15823Y8755D02*
X15799Y8753D01*
X15777Y8749D01*
X15755Y8741D01*
X15734Y8731D01*
X15714Y8718D01*
X15697Y8703D01*
X15682Y8685D01*
X15669Y8666D01*
X15659Y8645D01*
X15651Y8623D01*
X15647Y8600D01*
X15645Y8577D01*
X15647Y8554D01*
X15651Y8531D01*
X15659Y8509D01*
X15669Y8488D01*
X15682Y8469D01*
X15697Y8452D01*
X15714Y8436D01*
X15734Y8423D01*
X15755Y8413D01*
X15777Y8406D01*
X15799Y8401D01*
X15823Y8400D01*
X15846Y8401D01*
X15868Y8406D01*
X15890Y8413D01*
X15911Y8423D01*
X15931Y8436D01*
X15948Y8452D01*
X15963Y8469D01*
X15976Y8488D01*
X15987Y8509D01*
X15994Y8531D01*
X15999Y8554D01*
X16000Y8577D01*
X15999Y8600D01*
X15994Y8623D01*
X15987Y8645D01*
X15976Y8666D01*
X15963Y8685D01*
X15948Y8703D01*
X15931Y8718D01*
X15911Y8731D01*
X15890Y8741D01*
X15868Y8749D01*
X15846Y8753D01*
X15823Y8755D01*
D02*
G37*
G36*
X14115Y9065D02*
X14092Y9064D01*
X14069Y9059D01*
X14047Y9052D01*
X14026Y9042D01*
X14007Y9029D01*
X13990Y9013D01*
X13974Y8996D01*
X13961Y8977D01*
X13951Y8956D01*
X13944Y8934D01*
X13939Y8911D01*
X13938Y8888D01*
X13939Y8865D01*
X13944Y8842D01*
X13951Y8820D01*
X13961Y8799D01*
X13974Y8780D01*
X13990Y8762D01*
X14007Y8747D01*
X14026Y8734D01*
X14037Y8729D01*
X14043Y8694D01*
X14039Y8674D01*
X14026Y8664D01*
X14008Y8649D01*
X13993Y8632D01*
X13980Y8612D01*
X13970Y8592D01*
X13962Y8570D01*
X13958Y8547D01*
X13956Y8524D01*
X13958Y8500D01*
X13962Y8478D01*
X13970Y8456D01*
X13980Y8435D01*
X13980Y8435D01*
X13981Y8428D01*
X13963Y8384D01*
X13960Y8380D01*
X13938Y8373D01*
X13917Y8362D01*
X13898Y8350D01*
X13880Y8334D01*
X13865Y8317D01*
X13852Y8297D01*
X13842Y8277D01*
X13834Y8255D01*
X13830Y8232D01*
X13828Y8209D01*
X13830Y8185D01*
X13834Y8163D01*
X13842Y8141D01*
X13852Y8120D01*
X13865Y8101D01*
X13880Y8083D01*
X13898Y8068D01*
X13917Y8055D01*
X13938Y8045D01*
X13960Y8037D01*
X13983Y8033D01*
X14006Y8031D01*
X14029Y8033D01*
X14052Y8037D01*
X14074Y8045D01*
X14095Y8055D01*
X14114Y8068D01*
X14131Y8083D01*
X14147Y8101D01*
X14160Y8120D01*
X14170Y8141D01*
X14177Y8163D01*
X14182Y8185D01*
X14183Y8209D01*
X14182Y8232D01*
X14177Y8255D01*
X14170Y8277D01*
X14160Y8297D01*
X14160Y8298D01*
X14159Y8304D01*
X14176Y8348D01*
X14180Y8352D01*
X14202Y8360D01*
X14223Y8370D01*
X14242Y8383D01*
X14259Y8398D01*
X14275Y8416D01*
X14288Y8435D01*
X14298Y8456D01*
X14305Y8478D01*
X14310Y8500D01*
X14311Y8524D01*
X14310Y8547D01*
X14305Y8570D01*
X14298Y8592D01*
X14288Y8612D01*
X14275Y8632D01*
X14259Y8649D01*
X14242Y8664D01*
X14223Y8677D01*
X14212Y8682D01*
X14206Y8717D01*
X14210Y8738D01*
X14223Y8747D01*
X14241Y8762D01*
X14256Y8780D01*
X14269Y8799D01*
X14279Y8820D01*
X14287Y8842D01*
X14291Y8865D01*
X14293Y8888D01*
X14291Y8911D01*
X14287Y8934D01*
X14279Y8956D01*
X14269Y8977D01*
X14256Y8996D01*
X14241Y9013D01*
X14223Y9029D01*
X14204Y9042D01*
X14183Y9052D01*
X14161Y9059D01*
X14138Y9064D01*
X14115Y9065D01*
D02*
G37*
G36*
X5157Y8140D02*
X5134Y8139D01*
X5112Y8134D01*
X5090Y8127D01*
X5069Y8116D01*
X5049Y8103D01*
X5032Y8088D01*
X5017Y8071D01*
X5004Y8051D01*
X4993Y8031D01*
X4986Y8009D01*
X4981Y7986D01*
X4980Y7963D01*
X4981Y7939D01*
X4986Y7917D01*
X4993Y7895D01*
X5004Y7874D01*
X5017Y7855D01*
X5032Y7837D01*
X5049Y7822D01*
X5069Y7809D01*
X5090Y7799D01*
X5112Y7791D01*
X5134Y7787D01*
X5157Y7785D01*
X5181Y7787D01*
X5203Y7791D01*
X5225Y7799D01*
X5246Y7809D01*
X5266Y7822D01*
X5283Y7837D01*
X5298Y7855D01*
X5311Y7874D01*
X5322Y7895D01*
X5329Y7917D01*
X5334Y7939D01*
X5335Y7963D01*
X5334Y7986D01*
X5329Y8009D01*
X5322Y8031D01*
X5311Y8051D01*
X5298Y8071D01*
X5283Y8088D01*
X5266Y8103D01*
X5246Y8116D01*
X5225Y8127D01*
X5203Y8134D01*
X5181Y8139D01*
X5157Y8140D01*
D02*
G37*
G36*
X1398Y8032D02*
X1374Y8030D01*
X1352Y8026D01*
X1330Y8018D01*
X1309Y8008D01*
X1290Y7995D01*
X1272Y7980D01*
X1257Y7962D01*
X1244Y7943D01*
X1234Y7922D01*
X1226Y7900D01*
X1222Y7878D01*
X1220Y7854D01*
X1222Y7831D01*
X1226Y7808D01*
X1234Y7786D01*
X1244Y7766D01*
X1257Y7746D01*
X1272Y7729D01*
X1290Y7713D01*
X1309Y7701D01*
X1330Y7690D01*
X1352Y7683D01*
X1374Y7678D01*
X1398Y7677D01*
X1421Y7678D01*
X1444Y7683D01*
X1466Y7690D01*
X1486Y7701D01*
X1506Y7713D01*
X1523Y7729D01*
X1538Y7746D01*
X1551Y7766D01*
X1562Y7786D01*
X1569Y7808D01*
X1574Y7831D01*
X1575Y7854D01*
X1574Y7878D01*
X1569Y7900D01*
X1562Y7922D01*
X1551Y7943D01*
X1538Y7962D01*
X1523Y7980D01*
X1506Y7995D01*
X1486Y8008D01*
X1466Y8018D01*
X1444Y8026D01*
X1421Y8030D01*
X1398Y8032D01*
D02*
G37*
G36*
X20295Y7117D02*
X20272Y7115D01*
X20249Y7110D01*
X20227Y7103D01*
X20206Y7093D01*
X20187Y7080D01*
X20170Y7065D01*
X20154Y7047D01*
X20142Y7028D01*
X20131Y7007D01*
X20124Y6985D01*
X20119Y6962D01*
X20118Y6939D01*
X20119Y6916D01*
X20124Y6893D01*
X20131Y6871D01*
X20142Y6850D01*
X20154Y6831D01*
X20170Y6813D01*
X20187Y6798D01*
X20206Y6785D01*
X20227Y6775D01*
X20249Y6767D01*
X20272Y6763D01*
X20295Y6761D01*
X20318Y6763D01*
X20341Y6767D01*
X20363Y6775D01*
X20384Y6785D01*
X20403Y6798D01*
X20421Y6813D01*
X20436Y6831D01*
X20449Y6850D01*
X20459Y6871D01*
X20467Y6893D01*
X20471Y6916D01*
X20473Y6939D01*
X20471Y6962D01*
X20467Y6985D01*
X20459Y7007D01*
X20449Y7028D01*
X20436Y7047D01*
X20421Y7065D01*
X20403Y7080D01*
X20384Y7093D01*
X20363Y7103D01*
X20341Y7110D01*
X20318Y7115D01*
X20295Y7117D01*
D02*
G37*
G36*
X7884Y6792D02*
X7861Y6790D01*
X7838Y6786D01*
X7816Y6778D01*
X7795Y6768D01*
X7776Y6755D01*
X7758Y6740D01*
X7743Y6722D01*
X7730Y6703D01*
X7720Y6682D01*
X7713Y6660D01*
X7708Y6637D01*
X7706Y6614D01*
X7708Y6591D01*
X7713Y6568D01*
X7720Y6546D01*
X7730Y6526D01*
X7743Y6506D01*
X7758Y6489D01*
X7776Y6473D01*
X7795Y6461D01*
X7816Y6450D01*
X7838Y6443D01*
X7861Y6438D01*
X7884Y6437D01*
X7907Y6438D01*
X7930Y6443D01*
X7952Y6450D01*
X7973Y6461D01*
X7992Y6473D01*
X8010Y6489D01*
X8025Y6506D01*
X8038Y6526D01*
X8048Y6546D01*
X8055Y6568D01*
X8060Y6591D01*
X8062Y6614D01*
X8060Y6637D01*
X8055Y6660D01*
X8048Y6682D01*
X8038Y6703D01*
X8025Y6722D01*
X8010Y6740D01*
X7992Y6755D01*
X7973Y6768D01*
X7952Y6778D01*
X7930Y6786D01*
X7907Y6790D01*
X7884Y6792D01*
D02*
G37*
G36*
X11122Y6684D02*
X11099Y6682D01*
X11076Y6678D01*
X11054Y6670D01*
X11033Y6660D01*
X11014Y6647D01*
X10997Y6632D01*
X10981Y6614D01*
X10968Y6595D01*
X10958Y6574D01*
X10951Y6552D01*
X10946Y6529D01*
X10945Y6506D01*
X10946Y6483D01*
X10951Y6460D01*
X10958Y6438D01*
X10968Y6417D01*
X10981Y6398D01*
X10997Y6381D01*
X11014Y6365D01*
X11033Y6352D01*
X11054Y6342D01*
X11076Y6335D01*
X11099Y6330D01*
X11122Y6329D01*
X11145Y6330D01*
X11168Y6335D01*
X11190Y6342D01*
X11211Y6352D01*
X11230Y6365D01*
X11248Y6381D01*
X11263Y6398D01*
X11276Y6417D01*
X11286Y6438D01*
X11294Y6460D01*
X11298Y6483D01*
X11300Y6506D01*
X11298Y6529D01*
X11294Y6552D01*
X11286Y6574D01*
X11276Y6595D01*
X11263Y6614D01*
X11248Y6632D01*
X11230Y6647D01*
X11211Y6660D01*
X11190Y6670D01*
X11168Y6678D01*
X11145Y6682D01*
X11122Y6684D01*
D02*
G37*
G36*
X15670Y6695D02*
X15647Y6694D01*
X15624Y6689D01*
X15602Y6682D01*
X15581Y6671D01*
X15562Y6658D01*
X15544Y6643D01*
X15529Y6626D01*
X15516Y6606D01*
X15506Y6586D01*
X15499Y6564D01*
X15494Y6541D01*
X15492Y6518D01*
X15494Y6494D01*
X15495Y6488D01*
X15492Y6475D01*
X15476Y6452D01*
X15458Y6437D01*
X15435Y6433D01*
X15413Y6425D01*
X15392Y6415D01*
X15373Y6402D01*
X15355Y6387D01*
X15340Y6369D01*
X15327Y6350D01*
X15317Y6329D01*
X15309Y6307D01*
X15305Y6284D01*
X15303Y6261D01*
X15305Y6238D01*
X15309Y6215D01*
X15317Y6193D01*
X15327Y6172D01*
X15340Y6153D01*
X15355Y6136D01*
X15373Y6120D01*
X15392Y6107D01*
X15413Y6097D01*
X15435Y6090D01*
X15458Y6085D01*
X15481Y6084D01*
X15504Y6085D01*
X15527Y6090D01*
X15549Y6097D01*
X15570Y6107D01*
X15589Y6120D01*
X15606Y6136D01*
X15622Y6153D01*
X15635Y6172D01*
X15645Y6193D01*
X15652Y6215D01*
X15657Y6238D01*
X15658Y6261D01*
X15657Y6284D01*
X15656Y6291D01*
X15659Y6303D01*
X15675Y6326D01*
X15693Y6342D01*
X15716Y6346D01*
X15738Y6354D01*
X15759Y6364D01*
X15778Y6377D01*
X15796Y6392D01*
X15811Y6410D01*
X15824Y6429D01*
X15834Y6450D01*
X15841Y6472D01*
X15846Y6494D01*
X15848Y6518D01*
X15846Y6541D01*
X15841Y6564D01*
X15834Y6586D01*
X15824Y6606D01*
X15811Y6626D01*
X15796Y6643D01*
X15778Y6658D01*
X15759Y6671D01*
X15738Y6682D01*
X15716Y6689D01*
X15693Y6694D01*
X15670Y6695D01*
D02*
G37*
G36*
X19246Y6437D02*
X19223Y6436D01*
X19200Y6431D01*
X19178Y6424D01*
X19157Y6414D01*
X19138Y6401D01*
X19121Y6385D01*
X19105Y6368D01*
X19092Y6349D01*
X19082Y6328D01*
X19075Y6306D01*
X19070Y6283D01*
X19069Y6260D01*
X19070Y6237D01*
X19075Y6214D01*
X19082Y6192D01*
X19092Y6171D01*
X19105Y6152D01*
X19121Y6134D01*
X19138Y6119D01*
X19157Y6106D01*
X19178Y6096D01*
X19200Y6088D01*
X19223Y6084D01*
X19246Y6082D01*
X19269Y6084D01*
X19292Y6088D01*
X19314Y6096D01*
X19335Y6106D01*
X19354Y6119D01*
X19372Y6134D01*
X19387Y6152D01*
X19400Y6171D01*
X19410Y6192D01*
X19418Y6214D01*
X19422Y6237D01*
X19424Y6260D01*
X19422Y6283D01*
X19418Y6306D01*
X19410Y6328D01*
X19400Y6349D01*
X19387Y6368D01*
X19372Y6385D01*
X19354Y6401D01*
X19335Y6414D01*
X19314Y6424D01*
X19292Y6431D01*
X19269Y6436D01*
X19246Y6437D01*
D02*
G37*
G36*
X10423Y6398D02*
X10400Y6397D01*
X10377Y6392D01*
X10355Y6385D01*
X10335Y6374D01*
X10315Y6361D01*
X10298Y6346D01*
X10283Y6329D01*
X10270Y6309D01*
X10259Y6289D01*
X10252Y6267D01*
X10247Y6244D01*
X10246Y6221D01*
X10247Y6197D01*
X10252Y6175D01*
X10259Y6153D01*
X10270Y6132D01*
X10283Y6113D01*
X10298Y6095D01*
X10315Y6080D01*
X10335Y6067D01*
X10355Y6057D01*
X10377Y6049D01*
X10400Y6045D01*
X10423Y6043D01*
X10447Y6045D01*
X10469Y6049D01*
X10491Y6057D01*
X10512Y6067D01*
X10531Y6080D01*
X10549Y6095D01*
X10564Y6113D01*
X10577Y6132D01*
X10587Y6153D01*
X10595Y6175D01*
X10599Y6197D01*
X10601Y6221D01*
X10599Y6244D01*
X10595Y6267D01*
X10587Y6289D01*
X10577Y6309D01*
X10564Y6329D01*
X10549Y6346D01*
X10531Y6361D01*
X10512Y6374D01*
X10491Y6385D01*
X10469Y6392D01*
X10447Y6397D01*
X10423Y6398D01*
D02*
G37*
G36*
X14733Y5786D02*
X14710Y5785D01*
X14687Y5780D01*
X14665Y5773D01*
X14644Y5763D01*
X14625Y5750D01*
X14607Y5734D01*
X14600Y5726D01*
X14585Y5740D01*
X14566Y5753D01*
X14545Y5763D01*
X14523Y5771D01*
X14500Y5775D01*
X14477Y5777D01*
X14454Y5775D01*
X14431Y5771D01*
X14409Y5763D01*
X14388Y5753D01*
X14369Y5740D01*
X14351Y5725D01*
X14336Y5707D01*
X14323Y5688D01*
X14313Y5667D01*
X14306Y5645D01*
X14301Y5622D01*
X14299Y5599D01*
X14301Y5576D01*
X14306Y5553D01*
X14313Y5531D01*
X14323Y5510D01*
X14336Y5491D01*
X14351Y5474D01*
X14369Y5458D01*
X14388Y5445D01*
X14409Y5435D01*
X14431Y5428D01*
X14454Y5423D01*
X14477Y5422D01*
X14500Y5423D01*
X14523Y5428D01*
X14545Y5435D01*
X14566Y5445D01*
X14585Y5458D01*
X14603Y5474D01*
X14610Y5481D01*
X14625Y5468D01*
X14644Y5455D01*
X14665Y5445D01*
X14687Y5437D01*
X14710Y5433D01*
X14733Y5431D01*
X14756Y5433D01*
X14779Y5437D01*
X14801Y5445D01*
X14822Y5455D01*
X14841Y5468D01*
X14858Y5483D01*
X14874Y5501D01*
X14887Y5520D01*
X14897Y5541D01*
X14904Y5563D01*
X14909Y5586D01*
X14910Y5609D01*
X14909Y5632D01*
X14904Y5655D01*
X14897Y5677D01*
X14887Y5698D01*
X14874Y5717D01*
X14858Y5734D01*
X14841Y5750D01*
X14822Y5763D01*
X14801Y5773D01*
X14779Y5780D01*
X14756Y5785D01*
X14733Y5786D01*
D02*
G37*
G36*
X11093Y6044D02*
X11070Y6042D01*
X11047Y6038D01*
X11025Y6030D01*
X11004Y6020D01*
X10985Y6007D01*
X10967Y5992D01*
X10952Y5974D01*
X10939Y5955D01*
X10929Y5934D01*
X10921Y5912D01*
X10917Y5889D01*
X10915Y5866D01*
X10917Y5843D01*
X10921Y5820D01*
X10929Y5798D01*
X10939Y5778D01*
X10952Y5758D01*
X10967Y5741D01*
X10985Y5725D01*
X11004Y5713D01*
X11025Y5702D01*
X11047Y5695D01*
X11070Y5690D01*
X11093Y5689D01*
X11116Y5690D01*
X11139Y5695D01*
X11161Y5702D01*
X11181Y5713D01*
X11201Y5725D01*
X11218Y5741D01*
X11234Y5758D01*
X11246Y5778D01*
X11257Y5798D01*
X11264Y5820D01*
X11269Y5843D01*
X11270Y5866D01*
X11269Y5889D01*
X11264Y5912D01*
X11257Y5934D01*
X11246Y5955D01*
X11234Y5974D01*
X11218Y5992D01*
X11201Y6007D01*
X11181Y6020D01*
X11161Y6030D01*
X11139Y6038D01*
X11116Y6042D01*
X11093Y6044D01*
D02*
G37*
G36*
X19226Y6004D02*
X19203Y6003D01*
X19180Y5998D01*
X19158Y5991D01*
X19138Y5981D01*
X19118Y5968D01*
X19101Y5952D01*
X19086Y5935D01*
X19073Y5916D01*
X19062Y5895D01*
X19055Y5873D01*
X19050Y5850D01*
X19049Y5827D01*
X19050Y5804D01*
X19055Y5781D01*
X19062Y5759D01*
X19073Y5738D01*
X19086Y5719D01*
X19101Y5701D01*
X19118Y5686D01*
X19138Y5673D01*
X19158Y5663D01*
X19180Y5655D01*
X19203Y5651D01*
X19226Y5649D01*
X19250Y5651D01*
X19272Y5655D01*
X19294Y5663D01*
X19315Y5673D01*
X19334Y5686D01*
X19352Y5701D01*
X19367Y5719D01*
X19380Y5738D01*
X19390Y5759D01*
X19398Y5781D01*
X19402Y5804D01*
X19404Y5827D01*
X19402Y5850D01*
X19398Y5873D01*
X19390Y5895D01*
X19380Y5916D01*
X19367Y5935D01*
X19352Y5952D01*
X19334Y5968D01*
X19315Y5981D01*
X19294Y5991D01*
X19272Y5998D01*
X19250Y6003D01*
X19226Y6004D01*
D02*
G37*
G36*
X11526Y5788D02*
X11503Y5786D01*
X11480Y5782D01*
X11458Y5774D01*
X11437Y5764D01*
X11418Y5751D01*
X11400Y5736D01*
X11385Y5718D01*
X11372Y5699D01*
X11362Y5678D01*
X11354Y5656D01*
X11350Y5634D01*
X11348Y5610D01*
X11350Y5587D01*
X11354Y5564D01*
X11362Y5542D01*
X11372Y5522D01*
X11385Y5502D01*
X11400Y5485D01*
X11418Y5470D01*
X11437Y5457D01*
X11458Y5446D01*
X11480Y5439D01*
X11503Y5434D01*
X11526Y5433D01*
X11549Y5434D01*
X11572Y5439D01*
X11594Y5446D01*
X11615Y5457D01*
X11634Y5470D01*
X11651Y5485D01*
X11667Y5502D01*
X11680Y5522D01*
X11690Y5542D01*
X11697Y5564D01*
X11702Y5587D01*
X11703Y5610D01*
X11702Y5634D01*
X11697Y5656D01*
X11690Y5678D01*
X11680Y5699D01*
X11667Y5718D01*
X11651Y5736D01*
X11634Y5751D01*
X11615Y5764D01*
X11594Y5774D01*
X11572Y5782D01*
X11549Y5786D01*
X11526Y5788D01*
D02*
G37*
G36*
X7205Y5680D02*
X7182Y5678D01*
X7159Y5674D01*
X7137Y5666D01*
X7116Y5656D01*
X7097Y5643D01*
X7079Y5628D01*
X7064Y5610D01*
X7051Y5591D01*
X7041Y5570D01*
X7033Y5548D01*
X7029Y5525D01*
X7027Y5502D01*
X7029Y5479D01*
X7033Y5456D01*
X7041Y5434D01*
X7051Y5413D01*
X7064Y5394D01*
X7079Y5377D01*
X7097Y5361D01*
X7116Y5348D01*
X7137Y5338D01*
X7159Y5331D01*
X7182Y5326D01*
X7205Y5325D01*
X7228Y5326D01*
X7251Y5331D01*
X7273Y5338D01*
X7294Y5348D01*
X7313Y5361D01*
X7330Y5377D01*
X7346Y5394D01*
X7359Y5413D01*
X7369Y5434D01*
X7376Y5456D01*
X7381Y5479D01*
X7382Y5502D01*
X7381Y5525D01*
X7376Y5548D01*
X7369Y5570D01*
X7359Y5591D01*
X7346Y5610D01*
X7330Y5628D01*
X7313Y5643D01*
X7294Y5656D01*
X7273Y5666D01*
X7251Y5674D01*
X7228Y5678D01*
X7205Y5680D01*
D02*
G37*
G36*
X19921Y5620D02*
X19900Y5619D01*
X19880Y5616D01*
X19859Y5610D01*
X19840Y5602D01*
X19822Y5592D01*
X19804Y5580D01*
X19789Y5566D01*
X19775Y5550D01*
X19763Y5533D01*
X19752Y5514D01*
X19744Y5495D01*
X19739Y5475D01*
X19735Y5454D01*
X19734Y5433D01*
X19735Y5412D01*
X19739Y5391D01*
X19744Y5371D01*
X19752Y5352D01*
X19763Y5333D01*
X19775Y5316D01*
X19789Y5301D01*
X19804Y5287D01*
X19822Y5274D01*
X19840Y5264D01*
X19859Y5256D01*
X19880Y5250D01*
X19900Y5247D01*
X19921Y5246D01*
X19942Y5247D01*
X19963Y5250D01*
X19983Y5256D01*
X20003Y5264D01*
X20021Y5274D01*
X20038Y5287D01*
X20054Y5301D01*
X20068Y5316D01*
X20080Y5333D01*
X20090Y5352D01*
X20098Y5371D01*
X20104Y5391D01*
X20107Y5412D01*
X20109Y5433D01*
X20107Y5454D01*
X20104Y5475D01*
X20098Y5495D01*
X20090Y5514D01*
X20080Y5533D01*
X20068Y5550D01*
X20054Y5566D01*
X20038Y5580D01*
X20021Y5592D01*
X20003Y5602D01*
X19983Y5610D01*
X19963Y5616D01*
X19942Y5619D01*
X19921Y5620D01*
D02*
G37*
G36*
X16869Y5268D02*
X16853Y5267D01*
X16838Y5263D01*
X16824Y5257D01*
X16811Y5249D01*
X16799Y5239D01*
X16789Y5227D01*
X16781Y5214D01*
X16775Y5200D01*
X16771Y5185D01*
X16770Y5169D01*
Y5111D01*
X16430D01*
Y5169D01*
X16429Y5185D01*
X16426Y5200D01*
X16420Y5214D01*
X16412Y5227D01*
X16402Y5239D01*
X16390Y5249D01*
X16377Y5257D01*
X16362Y5263D01*
X16347Y5267D01*
X16332Y5268D01*
X16316Y5267D01*
X16301Y5263D01*
X16287Y5257D01*
X16274Y5249D01*
X16262Y5239D01*
X16252Y5227D01*
X16244Y5214D01*
X16238Y5200D01*
X16234Y5185D01*
X16233Y5169D01*
Y5012D01*
X16234Y4997D01*
X16238Y4982D01*
X16244Y4967D01*
X16252Y4954D01*
X16262Y4942D01*
X16274Y4932D01*
X16287Y4924D01*
X16301Y4918D01*
X16316Y4915D01*
X16332Y4913D01*
X17352D01*
X17368Y4915D01*
X17383Y4918D01*
X17397Y4924D01*
X17410Y4932D01*
X17422Y4942D01*
X17432Y4954D01*
X17440Y4967D01*
X17446Y4982D01*
X17450Y4997D01*
X17451Y5012D01*
X17450Y5028D01*
X17446Y5043D01*
X17440Y5057D01*
X17432Y5070D01*
X17422Y5082D01*
X17410Y5092D01*
X17397Y5100D01*
X17383Y5106D01*
X17368Y5110D01*
X17352Y5111D01*
X16967D01*
Y5169D01*
X16966Y5185D01*
X16963Y5200D01*
X16957Y5214D01*
X16949Y5227D01*
X16939Y5239D01*
X16927Y5249D01*
X16914Y5257D01*
X16899Y5263D01*
X16884Y5267D01*
X16869Y5268D01*
D02*
G37*
G36*
X12598Y5394D02*
X12575Y5393D01*
X12552Y5388D01*
X12530Y5381D01*
X12510Y5370D01*
X12490Y5357D01*
X12473Y5342D01*
X12458Y5325D01*
X12445Y5305D01*
X12434Y5284D01*
X12427Y5262D01*
X12422Y5240D01*
X12421Y5217D01*
X12422Y5193D01*
X12427Y5171D01*
X12434Y5149D01*
X12445Y5128D01*
X12458Y5108D01*
X12473Y5091D01*
X12490Y5076D01*
X12510Y5063D01*
X12530Y5053D01*
X12552Y5045D01*
X12575Y5041D01*
X12598Y5039D01*
X12622Y5041D01*
X12644Y5045D01*
X12666Y5053D01*
X12687Y5063D01*
X12707Y5076D01*
X12724Y5091D01*
X12739Y5108D01*
X12752Y5128D01*
X12762Y5149D01*
X12770Y5171D01*
X12774Y5193D01*
X12776Y5217D01*
X12774Y5240D01*
X12770Y5262D01*
X12762Y5284D01*
X12752Y5305D01*
X12739Y5325D01*
X12724Y5342D01*
X12707Y5357D01*
X12687Y5370D01*
X12666Y5381D01*
X12644Y5388D01*
X12622Y5393D01*
X12598Y5394D01*
D02*
G37*
G36*
X19226Y5359D02*
X19203Y5357D01*
X19180Y5353D01*
X19158Y5345D01*
X19138Y5335D01*
X19118Y5322D01*
X19101Y5307D01*
X19086Y5289D01*
X19073Y5270D01*
X19062Y5249D01*
X19055Y5227D01*
X19050Y5204D01*
X19049Y5181D01*
X19050Y5158D01*
X19055Y5135D01*
X19062Y5113D01*
X19073Y5092D01*
X19086Y5073D01*
X19101Y5056D01*
X19118Y5040D01*
X19138Y5027D01*
X19158Y5017D01*
X19180Y5010D01*
X19203Y5005D01*
X19226Y5004D01*
X19250Y5005D01*
X19272Y5010D01*
X19294Y5017D01*
X19315Y5027D01*
X19334Y5040D01*
X19352Y5056D01*
X19367Y5073D01*
X19380Y5092D01*
X19390Y5113D01*
X19398Y5135D01*
X19402Y5158D01*
X19404Y5181D01*
X19402Y5204D01*
X19398Y5227D01*
X19390Y5249D01*
X19380Y5270D01*
X19367Y5289D01*
X19352Y5307D01*
X19334Y5322D01*
X19315Y5335D01*
X19294Y5345D01*
X19272Y5353D01*
X19250Y5357D01*
X19226Y5359D01*
D02*
G37*
G36*
X13928Y5289D02*
X13904Y5287D01*
X13882Y5283D01*
X13860Y5275D01*
X13839Y5265D01*
X13820Y5252D01*
X13802Y5237D01*
X13787Y5219D01*
X13774Y5200D01*
X13764Y5179D01*
X13756Y5157D01*
X13752Y5134D01*
X13750Y5111D01*
X13752Y5088D01*
X13756Y5065D01*
X13764Y5043D01*
X13774Y5022D01*
X13787Y5003D01*
X13802Y4986D01*
X13820Y4970D01*
X13839Y4957D01*
X13860Y4947D01*
X13882Y4940D01*
X13904Y4935D01*
X13928Y4934D01*
X13951Y4935D01*
X13974Y4940D01*
X13996Y4947D01*
X14016Y4957D01*
X14036Y4970D01*
X14053Y4986D01*
X14068Y5003D01*
X14081Y5022D01*
X14092Y5043D01*
X14099Y5065D01*
X14104Y5088D01*
X14105Y5111D01*
X14104Y5134D01*
X14099Y5157D01*
X14092Y5179D01*
X14081Y5200D01*
X14068Y5219D01*
X14053Y5237D01*
X14036Y5252D01*
X14016Y5265D01*
X13996Y5275D01*
X13974Y5283D01*
X13951Y5287D01*
X13928Y5289D01*
D02*
G37*
G36*
X12362Y5020D02*
X11447D01*
X11431Y5019D01*
X11416Y5015D01*
X11402Y5009D01*
X11389Y5001D01*
X11377Y4991D01*
X11367Y4979D01*
X11359Y4966D01*
X11353Y4952D01*
X11349Y4937D01*
X11348Y4921D01*
X11349Y4906D01*
X11353Y4891D01*
X11359Y4876D01*
X11367Y4863D01*
X11377Y4851D01*
X11389Y4841D01*
X11402Y4833D01*
X11416Y4827D01*
X11431Y4824D01*
X11447Y4823D01*
X12362D01*
X12378Y4824D01*
X12393Y4827D01*
X12407Y4833D01*
X12420Y4841D01*
X12432Y4851D01*
X12442Y4863D01*
X12450Y4876D01*
X12456Y4891D01*
X12460Y4906D01*
X12461Y4921D01*
X12460Y4937D01*
X12456Y4952D01*
X12450Y4966D01*
X12442Y4979D01*
X12432Y4991D01*
X12420Y5001D01*
X12407Y5009D01*
X12393Y5015D01*
X12378Y5019D01*
X12362Y5020D01*
D02*
G37*
G36*
X20301Y5063D02*
X20278Y5062D01*
X20255Y5057D01*
X20233Y5050D01*
X20212Y5040D01*
X20193Y5027D01*
X20176Y5011D01*
X20160Y4994D01*
X20147Y4975D01*
X20137Y4954D01*
X20130Y4932D01*
X20125Y4909D01*
X20124Y4886D01*
X20125Y4863D01*
X20130Y4840D01*
X20137Y4818D01*
X20147Y4797D01*
X20160Y4778D01*
X20176Y4760D01*
X20193Y4745D01*
X20212Y4732D01*
X20233Y4722D01*
X20255Y4714D01*
X20278Y4710D01*
X20301Y4708D01*
X20324Y4710D01*
X20347Y4714D01*
X20369Y4722D01*
X20390Y4732D01*
X20409Y4745D01*
X20427Y4760D01*
X20442Y4778D01*
X20455Y4797D01*
X20465Y4818D01*
X20473Y4840D01*
X20477Y4863D01*
X20479Y4886D01*
X20477Y4909D01*
X20473Y4932D01*
X20465Y4954D01*
X20455Y4975D01*
X20442Y4994D01*
X20427Y5011D01*
X20409Y5027D01*
X20390Y5040D01*
X20369Y5050D01*
X20347Y5057D01*
X20324Y5062D01*
X20301Y5063D01*
D02*
G37*
G36*
X2800Y4981D02*
X2777Y4979D01*
X2754Y4975D01*
X2732Y4967D01*
X2711Y4957D01*
X2692Y4944D01*
X2675Y4929D01*
X2659Y4911D01*
X2646Y4892D01*
X2636Y4871D01*
X2629Y4849D01*
X2624Y4826D01*
X2623Y4803D01*
X2624Y4780D01*
X2629Y4757D01*
X2636Y4735D01*
X2646Y4714D01*
X2659Y4695D01*
X2675Y4678D01*
X2692Y4662D01*
X2711Y4649D01*
X2732Y4639D01*
X2754Y4632D01*
X2777Y4627D01*
X2800Y4626D01*
X2823Y4627D01*
X2846Y4632D01*
X2868Y4639D01*
X2889Y4649D01*
X2908Y4662D01*
X2926Y4678D01*
X2941Y4695D01*
X2954Y4714D01*
X2964Y4735D01*
X2972Y4757D01*
X2976Y4780D01*
X2978Y4803D01*
X2976Y4826D01*
X2972Y4849D01*
X2964Y4871D01*
X2954Y4892D01*
X2941Y4911D01*
X2926Y4929D01*
X2908Y4944D01*
X2889Y4957D01*
X2868Y4967D01*
X2846Y4975D01*
X2823Y4979D01*
X2800Y4981D01*
D02*
G37*
G36*
X16054Y5038D02*
X16039Y5037D01*
X16024Y5034D01*
X16010Y5028D01*
X15996Y5019D01*
X15985Y5009D01*
X15853Y4877D01*
X15852Y4876D01*
X15832Y4858D01*
X15809Y4840D01*
X15784Y4825D01*
X15759Y4811D01*
X15732Y4800D01*
X15704Y4792D01*
X15676Y4785D01*
X15667Y4784D01*
X15619Y4781D01*
X15603Y4779D01*
X15588Y4776D01*
X15588Y4776D01*
X15574Y4770D01*
X15574Y4770D01*
X15573Y4769D01*
X15561Y4762D01*
X15549Y4752D01*
X15539Y4740D01*
X15531Y4727D01*
X15525Y4712D01*
X15521Y4697D01*
X15520Y4682D01*
X15521Y4666D01*
X15525Y4651D01*
X15531Y4637D01*
X15539Y4624D01*
X15549Y4612D01*
X15561Y4602D01*
X15574Y4594D01*
X15588Y4588D01*
X15603Y4584D01*
X15619Y4583D01*
Y4583D01*
X15656Y4584D01*
X15668Y4586D01*
X15694Y4588D01*
X15731Y4595D01*
X15768Y4604D01*
X15803Y4616D01*
X15838Y4631D01*
X15872Y4648D01*
X15904Y4667D01*
X15935Y4688D01*
X15956Y4705D01*
X15965Y4712D01*
X15992Y4738D01*
X15992Y4738D01*
X16124Y4870D01*
X16134Y4882D01*
X16142Y4895D01*
X16148Y4909D01*
X16152Y4924D01*
X16153Y4940D01*
X16152Y4955D01*
X16148Y4970D01*
X16142Y4984D01*
X16134Y4998D01*
X16124Y5009D01*
X16113Y5019D01*
X16099Y5028D01*
X16085Y5034D01*
X16070Y5037D01*
X16054Y5038D01*
D02*
G37*
G36*
X13417Y4764D02*
X12953D01*
X12937Y4763D01*
X12922Y4759D01*
X12908Y4753D01*
X12895Y4745D01*
X12883Y4735D01*
X12873Y4723D01*
X12865Y4710D01*
X12859Y4696D01*
X12855Y4681D01*
X12854Y4665D01*
X12855Y4650D01*
X12859Y4635D01*
X12865Y4621D01*
X12873Y4607D01*
X12883Y4596D01*
X12895Y4586D01*
X12908Y4577D01*
X12922Y4572D01*
X12937Y4568D01*
X12953Y4567D01*
X13417D01*
X13433Y4568D01*
X13448Y4572D01*
X13462Y4577D01*
X13475Y4586D01*
X13487Y4596D01*
X13497Y4607D01*
X13505Y4621D01*
X13511Y4635D01*
X13515Y4650D01*
X13516Y4665D01*
X13515Y4681D01*
X13511Y4696D01*
X13505Y4710D01*
X13497Y4723D01*
X13487Y4735D01*
X13475Y4745D01*
X13462Y4753D01*
X13448Y4759D01*
X13433Y4763D01*
X13417Y4764D01*
D02*
G37*
G36*
X14065Y4761D02*
X13748Y4761D01*
X13733Y4760D01*
X13718Y4756D01*
X13703Y4750D01*
X13690Y4742D01*
X13678Y4732D01*
X13668Y4720D01*
X13660Y4707D01*
X13654Y4693D01*
X13651Y4678D01*
X13649Y4662D01*
X13651Y4647D01*
X13654Y4632D01*
X13660Y4617D01*
X13668Y4604D01*
X13678Y4592D01*
X13690Y4582D01*
X13703Y4574D01*
X13718Y4568D01*
X13733Y4565D01*
X13748Y4563D01*
X14065Y4563D01*
X14080Y4565D01*
X14095Y4568D01*
X14110Y4574D01*
X14123Y4582D01*
X14135Y4592D01*
X14145Y4604D01*
X14153Y4617D01*
X14159Y4632D01*
X14162Y4647D01*
X14164Y4662D01*
X14162Y4678D01*
X14159Y4693D01*
X14153Y4707D01*
X14145Y4720D01*
X14135Y4732D01*
X14123Y4742D01*
X14110Y4750D01*
X14095Y4756D01*
X14080Y4760D01*
X14065Y4761D01*
D02*
G37*
G36*
X937Y4837D02*
X909Y4836D01*
X881Y4831D01*
X853Y4825D01*
X827Y4815D01*
X801Y4803D01*
X777Y4788D01*
X754Y4772D01*
X734Y4753D01*
X715Y4732D01*
X698Y4709D01*
X683Y4685D01*
X671Y4659D01*
X662Y4633D01*
X655Y4605D01*
X651Y4577D01*
X649Y4549D01*
X651Y4521D01*
X655Y4493D01*
X662Y4466D01*
X671Y4439D01*
X683Y4414D01*
X698Y4389D01*
X715Y4367D01*
X734Y4346D01*
X754Y4327D01*
X777Y4310D01*
X801Y4295D01*
X827Y4283D01*
X853Y4274D01*
X881Y4267D01*
X909Y4263D01*
X937Y4261D01*
X965Y4263D01*
X993Y4267D01*
X1021Y4274D01*
X1047Y4283D01*
X1073Y4295D01*
X1097Y4310D01*
X1120Y4327D01*
X1140Y4346D01*
X1159Y4367D01*
X1176Y4389D01*
X1191Y4414D01*
X1203Y4439D01*
X1212Y4466D01*
X1219Y4493D01*
X1223Y4521D01*
X1225Y4549D01*
X1223Y4577D01*
X1219Y4605D01*
X1212Y4633D01*
X1203Y4659D01*
X1191Y4685D01*
X1176Y4709D01*
X1159Y4732D01*
X1140Y4753D01*
X1120Y4772D01*
X1097Y4788D01*
X1073Y4803D01*
X1047Y4815D01*
X1021Y4825D01*
X993Y4831D01*
X965Y4836D01*
X937Y4837D01*
D02*
G37*
G36*
X11122Y4479D02*
X11099Y4477D01*
X11076Y4473D01*
X11054Y4465D01*
X11033Y4455D01*
X11014Y4442D01*
X10997Y4427D01*
X10981Y4409D01*
X10968Y4390D01*
X10958Y4369D01*
X10951Y4347D01*
X10946Y4325D01*
X10945Y4301D01*
X10946Y4278D01*
X10951Y4255D01*
X10958Y4233D01*
X10968Y4213D01*
X10981Y4193D01*
X10997Y4176D01*
X11014Y4160D01*
X11033Y4148D01*
X11054Y4137D01*
X11076Y4130D01*
X11099Y4125D01*
X11122Y4124D01*
X11145Y4125D01*
X11168Y4130D01*
X11190Y4137D01*
X11211Y4148D01*
X11230Y4160D01*
X11248Y4176D01*
X11263Y4193D01*
X11276Y4213D01*
X11286Y4233D01*
X11294Y4255D01*
X11298Y4278D01*
X11300Y4301D01*
X11298Y4325D01*
X11294Y4347D01*
X11286Y4369D01*
X11276Y4390D01*
X11263Y4409D01*
X11248Y4427D01*
X11230Y4442D01*
X11211Y4455D01*
X11190Y4465D01*
X11168Y4473D01*
X11145Y4477D01*
X11122Y4479D01*
D02*
G37*
G36*
X19944Y4440D02*
X19920Y4438D01*
X19898Y4434D01*
X19876Y4426D01*
X19855Y4416D01*
X19836Y4403D01*
X19818Y4388D01*
X19803Y4371D01*
X19790Y4351D01*
X19780Y4330D01*
X19772Y4308D01*
X19768Y4286D01*
X19766Y4262D01*
X19768Y4239D01*
X19772Y4216D01*
X19780Y4194D01*
X19790Y4174D01*
X19803Y4154D01*
X19818Y4137D01*
X19836Y4122D01*
X19855Y4109D01*
X19876Y4098D01*
X19898Y4091D01*
X19920Y4086D01*
X19944Y4085D01*
X19967Y4086D01*
X19990Y4091D01*
X20012Y4098D01*
X20032Y4109D01*
X20052Y4122D01*
X20069Y4137D01*
X20085Y4154D01*
X20097Y4174D01*
X20108Y4194D01*
X20115Y4216D01*
X20120Y4239D01*
X20121Y4262D01*
X20120Y4286D01*
X20115Y4308D01*
X20108Y4330D01*
X20097Y4351D01*
X20085Y4371D01*
X20069Y4388D01*
X20052Y4403D01*
X20032Y4416D01*
X20012Y4426D01*
X19990Y4434D01*
X19967Y4438D01*
X19944Y4440D01*
D02*
G37*
G36*
X15619Y4485D02*
Y4485D01*
X15603Y4484D01*
X15588Y4480D01*
X15574Y4475D01*
X15561Y4466D01*
X15549Y4456D01*
X15539Y4445D01*
X15531Y4431D01*
X15525Y4417D01*
X15521Y4402D01*
X15520Y4387D01*
X15521Y4371D01*
X15525Y4356D01*
X15531Y4342D01*
X15539Y4329D01*
X15549Y4317D01*
X15561Y4307D01*
X15573Y4299D01*
X15574Y4299D01*
X15574Y4299D01*
X15588Y4293D01*
X15588Y4293D01*
X15603Y4289D01*
X15619Y4288D01*
X15667Y4284D01*
X15676Y4283D01*
X15704Y4277D01*
X15732Y4268D01*
X15759Y4257D01*
X15784Y4244D01*
X15809Y4228D01*
X15832Y4211D01*
X15852Y4192D01*
X15853Y4191D01*
X15981Y4062D01*
X15993Y4052D01*
X16006Y4044D01*
X16021Y4038D01*
X16036Y4034D01*
X16051Y4033D01*
X16067Y4034D01*
X16082Y4038D01*
X16096Y4044D01*
X16109Y4052D01*
X16121Y4062D01*
X16131Y4074D01*
X16139Y4087D01*
X16145Y4101D01*
X16149Y4117D01*
X16150Y4132D01*
X16149Y4147D01*
X16145Y4163D01*
X16139Y4177D01*
X16131Y4190D01*
X16121Y4202D01*
X15992Y4330D01*
X15992Y4330D01*
X15992Y4330D01*
X15965Y4356D01*
X15956Y4363D01*
X15935Y4380D01*
X15904Y4401D01*
X15872Y4421D01*
X15838Y4438D01*
X15803Y4452D01*
X15768Y4464D01*
X15731Y4473D01*
X15694Y4480D01*
X15668Y4483D01*
X15656Y4484D01*
X15619Y4485D01*
D02*
G37*
G36*
X12269Y4587D02*
X12246Y4585D01*
X12223Y4581D01*
X12201Y4573D01*
X12180Y4563D01*
X12161Y4550D01*
X12144Y4535D01*
X12128Y4518D01*
X12115Y4498D01*
X12105Y4477D01*
X12098Y4455D01*
X12093Y4433D01*
X12092Y4409D01*
X12093Y4386D01*
X12098Y4363D01*
X12100Y4356D01*
X12087Y4322D01*
X12069Y4303D01*
X12058Y4301D01*
X12036Y4293D01*
X12015Y4283D01*
X11996Y4270D01*
X11978Y4255D01*
X11963Y4237D01*
X11950Y4218D01*
X11940Y4197D01*
X11932Y4175D01*
X11928Y4152D01*
X11926Y4129D01*
X11928Y4106D01*
X11932Y4083D01*
X11940Y4061D01*
X11950Y4040D01*
X11963Y4021D01*
X11978Y4004D01*
X11996Y3988D01*
X12015Y3975D01*
X12036Y3965D01*
X12058Y3958D01*
X12081Y3953D01*
X12104Y3952D01*
X12127Y3953D01*
X12150Y3958D01*
X12172Y3965D01*
X12192Y3975D01*
X12212Y3988D01*
X12229Y4004D01*
X12245Y4021D01*
X12257Y4040D01*
X12268Y4061D01*
X12275Y4083D01*
X12280Y4106D01*
X12281Y4129D01*
X12280Y4152D01*
X12275Y4175D01*
X12273Y4182D01*
X12286Y4216D01*
X12304Y4236D01*
X12315Y4238D01*
X12337Y4245D01*
X12358Y4256D01*
X12377Y4269D01*
X12395Y4284D01*
X12410Y4301D01*
X12423Y4321D01*
X12433Y4342D01*
X12441Y4363D01*
X12445Y4386D01*
X12447Y4409D01*
X12445Y4433D01*
X12441Y4455D01*
X12433Y4477D01*
X12423Y4498D01*
X12410Y4518D01*
X12395Y4535D01*
X12377Y4550D01*
X12358Y4563D01*
X12337Y4573D01*
X12315Y4581D01*
X12292Y4585D01*
X12269Y4587D01*
D02*
G37*
G36*
X14418Y3534D02*
X14395Y3532D01*
X14372Y3528D01*
X14350Y3520D01*
X14329Y3510D01*
X14310Y3497D01*
X14292Y3482D01*
X14277Y3464D01*
X14261Y3445D01*
X14229Y3442D01*
X14207Y3449D01*
X14184Y3454D01*
X14161Y3455D01*
X14138Y3454D01*
X14115Y3449D01*
X14093Y3442D01*
X14072Y3431D01*
X14053Y3418D01*
X14035Y3403D01*
X14020Y3386D01*
X14007Y3366D01*
X13997Y3346D01*
X13989Y3324D01*
X13985Y3301D01*
X13983Y3278D01*
X13985Y3254D01*
X13989Y3232D01*
X13997Y3210D01*
X14007Y3189D01*
X14020Y3169D01*
X14035Y3152D01*
X14053Y3137D01*
X14072Y3124D01*
X14093Y3114D01*
X14115Y3106D01*
X14138Y3102D01*
X14161Y3100D01*
X14184Y3102D01*
X14207Y3106D01*
X14229Y3114D01*
X14249Y3124D01*
X14269Y3137D01*
X14286Y3152D01*
X14302Y3169D01*
X14314Y3189D01*
X14350Y3192D01*
X14372Y3185D01*
X14395Y3180D01*
X14418Y3179D01*
X14441Y3180D01*
X14464Y3185D01*
X14486Y3192D01*
X14521Y3189D01*
X14534Y3169D01*
X14550Y3152D01*
X14567Y3137D01*
X14586Y3124D01*
X14607Y3114D01*
X14629Y3106D01*
X14652Y3102D01*
X14675Y3100D01*
X14698Y3102D01*
X14721Y3106D01*
X14743Y3114D01*
X14764Y3124D01*
X14783Y3137D01*
X14801Y3152D01*
X14816Y3169D01*
X14829Y3189D01*
X14839Y3210D01*
X14847Y3232D01*
X14851Y3254D01*
X14853Y3278D01*
X14851Y3301D01*
X14847Y3324D01*
X14839Y3346D01*
X14829Y3366D01*
X14816Y3386D01*
X14801Y3403D01*
X14783Y3418D01*
X14764Y3431D01*
X14743Y3442D01*
X14721Y3449D01*
X14698Y3454D01*
X14675Y3455D01*
X14652Y3454D01*
X14629Y3449D01*
X14607Y3442D01*
X14575Y3445D01*
X14559Y3464D01*
X14543Y3482D01*
X14526Y3497D01*
X14507Y3510D01*
X14486Y3520D01*
X14464Y3528D01*
X14441Y3532D01*
X14418Y3534D01*
D02*
G37*
G36*
X937Y3337D02*
X909Y3336D01*
X881Y3331D01*
X853Y3325D01*
X827Y3315D01*
X801Y3303D01*
X777Y3288D01*
X754Y3272D01*
X734Y3253D01*
X715Y3232D01*
X698Y3209D01*
X683Y3185D01*
X671Y3159D01*
X662Y3133D01*
X655Y3105D01*
X651Y3077D01*
X649Y3049D01*
X651Y3021D01*
X655Y2993D01*
X662Y2966D01*
X671Y2939D01*
X683Y2914D01*
X698Y2889D01*
X715Y2867D01*
X734Y2846D01*
X754Y2827D01*
X777Y2810D01*
X801Y2795D01*
X827Y2783D01*
X853Y2774D01*
X881Y2767D01*
X909Y2763D01*
X937Y2761D01*
X965Y2763D01*
X993Y2767D01*
X1021Y2774D01*
X1047Y2783D01*
X1073Y2795D01*
X1097Y2810D01*
X1120Y2827D01*
X1140Y2846D01*
X1159Y2867D01*
X1176Y2889D01*
X1191Y2914D01*
X1203Y2939D01*
X1212Y2966D01*
X1219Y2993D01*
X1223Y3021D01*
X1225Y3049D01*
X1223Y3077D01*
X1219Y3105D01*
X1212Y3133D01*
X1203Y3159D01*
X1191Y3185D01*
X1176Y3209D01*
X1159Y3232D01*
X1140Y3253D01*
X1120Y3272D01*
X1097Y3288D01*
X1073Y3303D01*
X1047Y3315D01*
X1021Y3325D01*
X993Y3331D01*
X965Y3336D01*
X937Y3337D01*
D02*
G37*
G36*
X2677Y2963D02*
X2654Y2961D01*
X2631Y2957D01*
X2609Y2949D01*
X2588Y2939D01*
X2569Y2926D01*
X2552Y2911D01*
X2536Y2894D01*
X2523Y2874D01*
X2513Y2853D01*
X2506Y2831D01*
X2501Y2809D01*
X2500Y2785D01*
X2501Y2762D01*
X2506Y2739D01*
X2513Y2717D01*
X2523Y2697D01*
X2536Y2677D01*
X2552Y2660D01*
X2569Y2645D01*
X2588Y2632D01*
X2609Y2621D01*
X2631Y2614D01*
X2654Y2609D01*
X2677Y2608D01*
X2700Y2609D01*
X2723Y2614D01*
X2745Y2621D01*
X2766Y2632D01*
X2785Y2645D01*
X2803Y2660D01*
X2818Y2677D01*
X2831Y2697D01*
X2841Y2717D01*
X2849Y2739D01*
X2853Y2762D01*
X2855Y2785D01*
X2853Y2809D01*
X2849Y2831D01*
X2841Y2853D01*
X2831Y2874D01*
X2818Y2894D01*
X2803Y2911D01*
X2785Y2926D01*
X2766Y2939D01*
X2745Y2949D01*
X2723Y2957D01*
X2700Y2961D01*
X2677Y2963D01*
D02*
G37*
G36*
X3474Y2648D02*
X3451Y2646D01*
X3428Y2642D01*
X3406Y2634D01*
X3386Y2624D01*
X3366Y2611D01*
X3349Y2596D01*
X3334Y2579D01*
X3321Y2559D01*
X3310Y2538D01*
X3303Y2516D01*
X3298Y2494D01*
X3297Y2470D01*
X3298Y2447D01*
X3303Y2425D01*
X3310Y2403D01*
X3321Y2382D01*
X3334Y2362D01*
X3349Y2345D01*
X3366Y2330D01*
X3386Y2317D01*
X3406Y2306D01*
X3428Y2299D01*
X3451Y2294D01*
X3474Y2293D01*
X3498Y2294D01*
X3520Y2299D01*
X3542Y2306D01*
X3563Y2317D01*
X3582Y2330D01*
X3600Y2345D01*
X3615Y2362D01*
X3628Y2382D01*
X3638Y2403D01*
X3646Y2425D01*
X3650Y2447D01*
X3652Y2470D01*
X3650Y2494D01*
X3646Y2516D01*
X3638Y2538D01*
X3628Y2559D01*
X3615Y2579D01*
X3600Y2596D01*
X3582Y2611D01*
X3563Y2624D01*
X3542Y2634D01*
X3520Y2642D01*
X3498Y2646D01*
X3474Y2648D01*
D02*
G37*
G36*
X16941Y4155D02*
Y4155D01*
X16332D01*
X16316Y4154D01*
X16301Y4150D01*
X16287Y4144D01*
X16274Y4136D01*
X16262Y4126D01*
X16252Y4114D01*
X16244Y4101D01*
X16238Y4087D01*
X16234Y4072D01*
X16233Y4056D01*
Y3896D01*
X16234Y3880D01*
X16238Y3865D01*
X16244Y3851D01*
X16252Y3838D01*
X16262Y3826D01*
X16274Y3816D01*
X16287Y3808D01*
X16301Y3802D01*
X16316Y3798D01*
X16332Y3797D01*
X16347Y3798D01*
X16362Y3802D01*
X16377Y3808D01*
X16390Y3816D01*
X16402Y3826D01*
X16412Y3838D01*
X16420Y3851D01*
X16426Y3865D01*
X16429Y3880D01*
X16430Y3896D01*
Y3958D01*
X16770D01*
Y3896D01*
X16771Y3880D01*
X16775Y3865D01*
X16781Y3851D01*
X16789Y3838D01*
X16799Y3826D01*
X16811Y3816D01*
X16824Y3808D01*
X16838Y3802D01*
X16853Y3798D01*
X16869Y3797D01*
X16884Y3798D01*
X16899Y3802D01*
X16914Y3808D01*
X16927Y3816D01*
X16939Y3826D01*
X16949Y3838D01*
X16957Y3851D01*
X16963Y3865D01*
X16966Y3880D01*
X16967Y3896D01*
Y3906D01*
X16980Y3926D01*
X17017Y3948D01*
X17026Y3947D01*
X17054Y3938D01*
X17080Y3927D01*
X17106Y3914D01*
X17130Y3898D01*
X17153Y3881D01*
X17174Y3861D01*
X17193Y3840D01*
X17211Y3817D01*
X17226Y3793D01*
X17239Y3768D01*
X17250Y3741D01*
X17259Y3714D01*
X17265Y3686D01*
X17269Y3657D01*
X17270Y3630D01*
X17270Y3629D01*
Y3500D01*
X16818D01*
Y2358D01*
X17270D01*
Y1829D01*
X17271Y1813D01*
X17275Y1798D01*
X17281Y1784D01*
X17289Y1771D01*
X17299Y1759D01*
X17311Y1749D01*
X17324Y1741D01*
X17338Y1735D01*
X17353Y1731D01*
X17369Y1730D01*
X17384Y1731D01*
X17399Y1735D01*
X17414Y1741D01*
X17427Y1749D01*
X17439Y1759D01*
X17449Y1771D01*
X17457Y1784D01*
X17463Y1798D01*
X17466Y1813D01*
X17468Y1829D01*
Y2358D01*
X17920D01*
Y3500D01*
X17467D01*
Y3629D01*
X17468D01*
X17466Y3666D01*
X17465Y3678D01*
X17462Y3704D01*
X17455Y3741D01*
X17446Y3777D01*
X17434Y3813D01*
X17420Y3847D01*
X17403Y3881D01*
X17384Y3913D01*
X17363Y3944D01*
X17339Y3973D01*
X17313Y4001D01*
X17286Y4026D01*
X17257Y4050D01*
X17226Y4071D01*
X17193Y4091D01*
X17160Y4107D01*
X17125Y4122D01*
X17089Y4134D01*
X17053Y4143D01*
X17016Y4150D01*
X16990Y4152D01*
X16979Y4154D01*
X16941Y4155D01*
D02*
G37*
G36*
X1772Y2449D02*
X1727Y2448D01*
X1683Y2443D01*
X1639Y2436D01*
X1596Y2426D01*
X1554Y2413D01*
X1512Y2398D01*
X1472Y2379D01*
X1433Y2358D01*
X1395Y2335D01*
X1359Y2309D01*
X1325Y2281D01*
X1293Y2251D01*
X1262Y2218D01*
X1234Y2184D01*
X1208Y2148D01*
X1185Y2110D01*
X1164Y2071D01*
X1146Y2031D01*
X1130Y1989D01*
X1117Y1947D01*
X1107Y1904D01*
X1100Y1860D01*
X1096Y1816D01*
X1094Y1772D01*
X1096Y1727D01*
X1100Y1683D01*
X1107Y1639D01*
X1117Y1596D01*
X1130Y1554D01*
X1146Y1512D01*
X1164Y1472D01*
X1185Y1433D01*
X1208Y1395D01*
X1234Y1359D01*
X1262Y1325D01*
X1293Y1293D01*
X1325Y1262D01*
X1359Y1234D01*
X1395Y1208D01*
X1433Y1185D01*
X1472Y1164D01*
X1512Y1146D01*
X1554Y1130D01*
X1596Y1117D01*
X1639Y1107D01*
X1683Y1100D01*
X1727Y1096D01*
X1772Y1094D01*
X1816Y1096D01*
X1860Y1100D01*
X1904Y1107D01*
X1947Y1117D01*
X1989Y1130D01*
X2031Y1146D01*
X2071Y1164D01*
X2110Y1185D01*
X2148Y1208D01*
X2184Y1234D01*
X2218Y1262D01*
X2251Y1293D01*
X2281Y1325D01*
X2309Y1359D01*
X2335Y1395D01*
X2358Y1433D01*
X2379Y1472D01*
X2398Y1512D01*
X2413Y1554D01*
X2426Y1596D01*
X2436Y1639D01*
X2443Y1683D01*
X2448Y1727D01*
X2449Y1772D01*
X2448Y1816D01*
X2443Y1860D01*
X2436Y1904D01*
X2426Y1947D01*
X2413Y1989D01*
X2398Y2031D01*
X2379Y2071D01*
X2358Y2110D01*
X2335Y2148D01*
X2309Y2184D01*
X2281Y2218D01*
X2251Y2251D01*
X2218Y2281D01*
X2184Y2309D01*
X2148Y2335D01*
X2110Y2358D01*
X2071Y2379D01*
X2031Y2398D01*
X1989Y2413D01*
X1947Y2426D01*
X1904Y2436D01*
X1860Y2443D01*
X1816Y2448D01*
X1772Y2449D01*
D02*
G37*
G36*
X19094Y2449D02*
X19050Y2448D01*
X19006Y2443D01*
X18962Y2436D01*
X18919Y2426D01*
X18877Y2413D01*
X18835Y2398D01*
X18795Y2379D01*
X18756Y2358D01*
X18718Y2335D01*
X18682Y2309D01*
X18648Y2281D01*
X18615Y2251D01*
X18585Y2218D01*
X18557Y2184D01*
X18531Y2148D01*
X18508Y2110D01*
X18487Y2071D01*
X18469Y2031D01*
X18453Y1989D01*
X18440Y1947D01*
X18430Y1904D01*
X18423Y1860D01*
X18418Y1816D01*
X18417Y1772D01*
X18418Y1727D01*
X18423Y1683D01*
X18430Y1639D01*
X18440Y1596D01*
X18453Y1554D01*
X18469Y1512D01*
X18487Y1472D01*
X18508Y1433D01*
X18531Y1395D01*
X18557Y1359D01*
X18585Y1325D01*
X18615Y1293D01*
X18648Y1262D01*
X18682Y1234D01*
X18718Y1208D01*
X18756Y1185D01*
X18795Y1164D01*
X18835Y1146D01*
X18877Y1130D01*
X18919Y1117D01*
X18962Y1107D01*
X19006Y1100D01*
X19050Y1096D01*
X19094Y1094D01*
X19139Y1096D01*
X19183Y1100D01*
X19227Y1107D01*
X19270Y1117D01*
X19312Y1130D01*
X19354Y1146D01*
X19394Y1164D01*
X19433Y1185D01*
X19471Y1208D01*
X19507Y1234D01*
X19541Y1262D01*
X19574Y1293D01*
X19604Y1325D01*
X19632Y1359D01*
X19658Y1395D01*
X19681Y1433D01*
X19702Y1472D01*
X19720Y1512D01*
X19736Y1554D01*
X19749Y1596D01*
X19759Y1639D01*
X19766Y1683D01*
X19771Y1727D01*
X19772Y1772D01*
X19771Y1816D01*
X19766Y1860D01*
X19759Y1904D01*
X19749Y1947D01*
X19736Y1989D01*
X19720Y2031D01*
X19702Y2071D01*
X19681Y2110D01*
X19658Y2148D01*
X19632Y2184D01*
X19604Y2218D01*
X19574Y2251D01*
X19541Y2281D01*
X19507Y2309D01*
X19471Y2335D01*
X19433Y2358D01*
X19394Y2379D01*
X19354Y2398D01*
X19312Y2413D01*
X19270Y2426D01*
X19227Y2436D01*
X19183Y2443D01*
X19139Y2448D01*
X19094Y2449D01*
D02*
G37*
%LPD*%
G36*
X8107Y4498D02*
X8091Y4490D01*
X8076Y4480D01*
X8062Y4468D01*
X8050Y4454D01*
X8040Y4439D01*
X8032Y4423D01*
X8030Y4418D01*
X7870Y4257D01*
X7752D01*
X7674Y4335D01*
X7662Y4346D01*
X7648Y4354D01*
X7633Y4361D01*
X7617Y4364D01*
X7601Y4366D01*
X7410D01*
X7401Y4372D01*
X7376Y4416D01*
X7376Y4417D01*
X7381Y4440D01*
X7382Y4463D01*
X7381Y4486D01*
X7379Y4497D01*
X7395Y4527D01*
X7416Y4547D01*
X8096D01*
X8107Y4498D01*
D02*
G37*
G36*
X7824Y3433D02*
X7624Y3234D01*
X7349D01*
X7330Y3283D01*
X7330Y3284D01*
X7346Y3302D01*
X7359Y3321D01*
X7369Y3342D01*
X7376Y3364D01*
X7381Y3386D01*
X7382Y3410D01*
X7381Y3429D01*
X7382Y3434D01*
X7413Y3475D01*
X7421Y3479D01*
X7805D01*
X7824Y3433D01*
D02*
G37*
G36*
X9002Y2529D02*
X9022Y2525D01*
X9046Y2523D01*
X9069Y2525D01*
X9069Y2525D01*
X9112Y2497D01*
X9119Y2486D01*
Y1667D01*
X8842Y1391D01*
X8826Y1388D01*
X8781Y1397D01*
X8780Y1399D01*
X8775Y1404D01*
Y1801D01*
X8774Y1817D01*
X8770Y1833D01*
X8764Y1848D01*
X8755Y1862D01*
X8745Y1874D01*
X8629Y1990D01*
X8627Y2003D01*
X8640Y2050D01*
X8642Y2051D01*
X8661Y2064D01*
X8679Y2079D01*
X8694Y2097D01*
X8707Y2116D01*
X8717Y2137D01*
X8725Y2159D01*
X8729Y2182D01*
X8731Y2205D01*
X8729Y2228D01*
X8728Y2233D01*
X8922Y2427D01*
X8932Y2439D01*
X8941Y2453D01*
X8947Y2468D01*
X8951Y2484D01*
X8952Y2494D01*
X8957Y2502D01*
X8959Y2505D01*
X8999Y2529D01*
X9002Y2529D01*
D02*
G37*
D11*
X7766Y4341D02*
X7864D01*
X8051Y4528D01*
X8425D01*
X8425Y4528D01*
D13*
X6427Y17864D02*
X6429Y17863D01*
Y17254D02*
Y17863D01*
D17*
X3770Y9213D02*
G03*
X3680Y9429I-306J0D01*
G01*
X3592Y9626D02*
G03*
X3668Y9441I262J0D01*
G01*
X364Y14137D02*
Y14311D01*
X482Y14429D02*
X1121D01*
X361Y14134D02*
X364Y14137D01*
Y14311D02*
X482Y14429D01*
X610Y14218D02*
Y14242D01*
X832Y13996D02*
X1250D01*
X610Y14218D02*
X832Y13996D01*
X551Y12205D02*
X728D01*
X955Y11277D02*
Y11978D01*
X728Y12205D02*
X955Y11978D01*
X6348Y7323D02*
Y7451D01*
X5900Y6874D02*
X6348Y7323D01*
X5900Y5783D02*
Y6874D01*
X6132Y5772D02*
Y5787D01*
X4301Y5610D02*
X5727D01*
X5900Y5783D01*
X5861Y5502D02*
X6132Y5772D01*
X4270Y5502D02*
X5861D01*
X3474Y6437D02*
X4301Y5610D01*
X3581Y6190D02*
X4270Y5502D01*
X3046Y6308D02*
X4167Y5187D01*
X6103Y5359D02*
X6132D01*
X5906Y5394D02*
X6073Y5561D01*
X6289Y5089D02*
X6880Y4498D01*
X3243Y6390D02*
Y8370D01*
X3145Y6349D02*
Y8329D01*
X2943Y6272D02*
X4126Y5089D01*
X6289D01*
X3046Y6308D02*
Y8174D01*
X6339Y5187D02*
X6978Y4547D01*
X3243Y6390D02*
X4239Y5394D01*
X6029Y5285D02*
X6103Y5359D01*
X4208Y5285D02*
X6029D01*
X4167Y5187D02*
X6339D01*
X4239Y5394D02*
X5906D01*
X3145Y6349D02*
X4208Y5285D01*
X6073Y5561D02*
X6180D01*
X6216Y5526D01*
X6389Y4714D02*
X7039Y4065D01*
X6389Y4714D02*
Y4742D01*
X6216Y5526D02*
X6384D01*
X6211Y4678D02*
Y4911D01*
X6384Y5526D02*
X6388Y5522D01*
Y5494D02*
X7132Y4749D01*
X6388Y5494D02*
Y5522D01*
X7022Y4651D02*
X8125D01*
X6147Y5359D02*
X6314D01*
X7022Y4651D01*
X6211Y4678D02*
X6694Y4195D01*
X6751D01*
X6978Y4411D02*
Y4547D01*
X6880Y4370D02*
Y4498D01*
X7264Y3681D02*
X7894D01*
X6751Y4195D02*
X7264Y3681D01*
X3342Y6430D02*
Y8411D01*
X3581Y6190D02*
X3581D01*
X3342Y6430D02*
X3581Y6190D01*
X3474Y6437D02*
Y7362D01*
X2783Y8691D02*
X3145Y8329D01*
X2943Y6272D02*
Y8012D01*
X2707Y8248D02*
X2943Y8012D01*
X2864Y8888D02*
X3342Y8411D01*
X2824Y8789D02*
X3243Y8370D01*
X2712Y8509D02*
X3046Y8174D01*
X1393Y8907D02*
X2258Y8041D01*
X2530D01*
X1590Y8988D02*
X2059Y8519D01*
X2018Y8420D02*
X2534D01*
X1491Y8948D02*
X2018Y8420D01*
X2059Y8519D02*
X2712D01*
X1491Y8948D02*
Y10264D01*
X1590Y8988D02*
Y10305D01*
X1393Y8907D02*
Y10224D01*
X1280Y12411D02*
X1511Y12643D01*
Y14039D01*
X1139Y12483D02*
X1412Y12756D01*
X1339Y12274D02*
X1511Y12101D01*
X1139Y12334D02*
X1200Y12274D01*
X1339D01*
X1139Y12334D02*
Y12483D01*
X1412Y12756D02*
Y13834D01*
X1511Y11624D02*
Y12101D01*
X1225Y11083D02*
Y11339D01*
X1511Y11624D01*
X1260Y10356D02*
Y10768D01*
Y10356D02*
X1393Y10224D01*
X1358Y10397D02*
X1491Y10264D01*
X1358Y10397D02*
Y11230D01*
X1457Y10438D02*
X1590Y10305D01*
X1457Y10438D02*
Y11186D01*
X1688Y9029D02*
X2026Y8691D01*
X1555Y10486D02*
Y11112D01*
X1688Y9029D02*
Y10353D01*
X1786Y9070D02*
Y10394D01*
X1885Y9111D02*
X2108Y8888D01*
X1786Y9070D02*
X2067Y8789D01*
X1885Y9111D02*
Y10465D01*
X1555Y10486D02*
X1688Y10353D01*
X1654Y10527D02*
Y11071D01*
X2108Y8888D02*
X2864D01*
X1654Y10527D02*
X1786Y10394D01*
X1752Y10598D02*
Y11031D01*
Y10598D02*
X1885Y10465D01*
X1358Y11230D02*
X1609Y11481D01*
X1457Y11186D02*
X1708Y11437D01*
X1555Y11112D02*
X2028Y11585D01*
X1654Y11071D02*
X1990Y11407D01*
X1752Y11031D02*
X2026Y11304D01*
X1107Y10920D02*
X1260Y10768D01*
X842Y11021D02*
Y11164D01*
Y11021D02*
X942Y10920D01*
X1107D01*
X842Y11164D02*
X955Y11277D01*
X2707Y8248D02*
Y8248D01*
X2534Y8420D02*
X2707Y8248D01*
X2712Y8509D02*
Y8519D01*
X2026Y8691D02*
X2783D01*
X2067Y8789D02*
X2824D01*
X2026Y11304D02*
X2170D01*
X2343Y11477D01*
Y12125D01*
X2085Y12382D02*
X2343Y12125D01*
X2028Y11585D02*
X2067D01*
X2077Y12106D02*
X2239Y11944D01*
X2133Y11407D02*
X2239Y11513D01*
Y11944D01*
X1990Y11407D02*
X2133D01*
X610Y15218D02*
X1708Y14120D01*
X1250Y13996D02*
X1412Y13834D01*
X1708Y11437D02*
Y14120D01*
X1121Y14429D02*
X1511Y14039D01*
X1609Y11481D02*
Y14080D01*
X512Y15177D02*
X1609Y14080D01*
X610Y15218D02*
Y17264D01*
X512Y15177D02*
Y17470D01*
X3668Y9441D02*
X3680Y9429D01*
X8422Y1260D02*
X8521Y1161D01*
X8760D02*
X9223Y1624D01*
X8521Y1161D02*
X8760D01*
X9223Y1624D02*
Y3119D01*
X8671Y813D02*
Y934D01*
X9321Y1584D02*
Y3178D01*
X8671Y934D02*
X9321Y1584D01*
X7127Y4262D02*
X7601D01*
X6978Y4411D02*
X7127Y4262D01*
X7086Y4164D02*
X7560D01*
X6880Y4370D02*
X7086Y4164D01*
X7039Y4065D02*
X7520D01*
X7913Y4154D02*
X8129Y4370D01*
X7132Y4749D02*
X8036D01*
X7669Y4055D02*
X7972D01*
X8381Y2092D02*
X8671Y1801D01*
Y1313D02*
Y1801D01*
X8381Y2092D02*
Y2830D01*
X8632Y3081D01*
Y3425D01*
X8553Y2205D02*
X8849Y2500D01*
Y3336D01*
X9036Y6725D02*
Y8287D01*
X8976Y8346D02*
X9036Y8287D01*
X8937Y6685D02*
Y8140D01*
X8804Y8420D02*
X8976Y8593D01*
X8804Y8275D02*
Y8420D01*
Y8275D02*
X8809Y8270D01*
Y8268D02*
Y8270D01*
Y8268D02*
X8937Y8140D01*
X7185Y2421D02*
X7501D01*
X7362Y2598D02*
X7539D01*
X7510Y2776D02*
X8160Y3425D01*
X7185Y2776D02*
X7510D01*
X8120Y3583D02*
X8160D01*
X7667Y3130D02*
X8120Y3583D01*
X7185Y3130D02*
X7667D01*
X7501Y2421D02*
X8475Y3395D01*
Y3425D01*
X7539Y2598D02*
X8317Y3377D01*
Y3425D01*
X6988Y3445D02*
X7126Y3583D01*
X6988Y3278D02*
Y3445D01*
X9695Y2402D02*
Y2962D01*
X9498Y2205D02*
X9695Y2402D01*
X10482Y1969D02*
X10496Y1955D01*
X9419Y3395D02*
X10054Y2760D01*
X10482Y1941D02*
X10496Y1955D01*
Y1955D01*
X10482Y1969D02*
Y2161D01*
X10054Y2589D02*
X10482Y2161D01*
X10054Y2589D02*
Y2760D01*
X10153Y2630D02*
Y2819D01*
Y2630D02*
X10617Y2165D01*
X9287Y3370D02*
X9695Y2962D01*
X10617Y2165D02*
X10709D01*
X9577Y3395D02*
X10153Y2819D01*
X10581Y2707D02*
Y2776D01*
X10250Y2879D02*
X10477D01*
X10581Y2776D01*
X9734Y3395D02*
X10250Y2879D01*
X10309Y2977D02*
X10773D01*
X9892Y3395D02*
X10309Y2977D01*
X10773D02*
X10925Y2825D01*
X11570Y2840D02*
X11742Y2667D01*
X11570Y2840D02*
Y2890D01*
X11471Y2692D02*
X11742Y2421D01*
X11471Y2692D02*
Y2849D01*
X11344Y3117D02*
X11570Y2890D01*
X10409Y3174D02*
X11286D01*
X11344Y3117D01*
X10368Y3076D02*
X11245D01*
X11471Y2849D01*
X11344Y3117D02*
Y3117D01*
X10207Y3377D02*
X10409Y3174D01*
X10364Y3358D02*
X10450Y3273D01*
X11383D01*
X10049Y3395D02*
X10368Y3076D01*
X11383Y3273D02*
X11742Y2913D01*
X8111Y3898D02*
X8160D01*
X8093Y3740D02*
X8160D01*
X10049Y3395D02*
Y3425D01*
X9892Y3395D02*
Y3425D01*
X8129Y4055D02*
X8160D01*
X9734Y3395D02*
Y3425D01*
X9577Y3395D02*
Y3425D01*
X10364Y3358D02*
Y3425D01*
X10207Y3377D02*
Y3425D01*
X8129Y4213D02*
X8160D01*
X8129Y4370D02*
X8160D01*
X8129Y4843D02*
X8160D01*
X9419Y3395D02*
Y3425D01*
X9287Y3370D02*
Y3401D01*
X9262Y3425D02*
X9287Y3401D01*
X9405Y3411D02*
X9419Y3425D01*
X9104D02*
X9129Y3401D01*
Y3370D02*
Y3401D01*
Y3370D02*
X9321Y3178D01*
X8947Y3425D02*
X8972Y3401D01*
Y3370D02*
Y3401D01*
Y3370D02*
X9223Y3119D01*
X8814Y3370D02*
Y3401D01*
X8790Y3425D02*
X8814Y3401D01*
Y3370D02*
X8849Y3336D01*
X7972Y4055D02*
X8129Y4213D01*
X8031Y3957D02*
X8129Y4055D01*
X7894Y3681D02*
X8111Y3898D01*
X7935Y3583D02*
X8093Y3740D01*
X8036Y4749D02*
X8129Y4843D01*
X8125Y4651D02*
X8160Y4685D01*
X7126Y3583D02*
X7935D01*
X7628Y3957D02*
X8031D01*
X7709Y4154D02*
X7913D01*
X7560Y4164D02*
X7669Y4055D01*
X7601Y4262D02*
X7709Y4154D01*
X7520Y4065D02*
X7628Y3957D01*
X10463Y9116D02*
X11878D01*
X11988Y9006D01*
X9429Y6914D02*
Y7943D01*
X10430Y8944D01*
X10617D01*
X9331Y6873D02*
Y7984D01*
X10463Y9116D01*
X9232Y8025D02*
X10476Y9268D01*
X9232Y6832D02*
Y8025D01*
X10580Y9268D02*
X10601Y9288D01*
X10476Y9268D02*
X10580D01*
X10542Y9473D02*
X10763D01*
X9134Y8065D02*
X10542Y9473D01*
X9134Y6791D02*
Y8065D01*
X8652Y7874D02*
X8839Y7687D01*
X8652Y7874D02*
Y8656D01*
X8937Y6685D02*
X9203Y6419D01*
X9232Y6832D02*
X9577Y6488D01*
X9429Y6914D02*
X9774Y6569D01*
X8839Y6644D02*
Y7687D01*
Y6644D02*
X9104Y6378D01*
X9134Y6791D02*
X9474Y6452D01*
X9331Y6873D02*
X9675Y6529D01*
X9036Y6725D02*
X9341Y6420D01*
X994Y17840D02*
X995D01*
X994Y17648D02*
Y17840D01*
X610Y17264D02*
X994Y17648D01*
X512Y17470D02*
X591Y17549D01*
X9892Y5630D02*
Y5661D01*
X9774Y5779D02*
X9892Y5661D01*
X9774Y5779D02*
Y6569D01*
X9577Y5630D02*
Y6488D01*
X9474Y5733D02*
Y6452D01*
X9419Y5678D02*
X9474Y5733D01*
X9419Y5630D02*
Y5678D01*
X9675Y5720D02*
Y6529D01*
Y5720D02*
X9734Y5661D01*
Y5630D02*
Y5661D01*
X7051Y1280D02*
X7071Y1260D01*
X8422D01*
X6993Y1293D02*
X7006Y1280D01*
X7051D01*
X9203Y5728D02*
X9262Y5669D01*
Y5630D02*
Y5669D01*
X9104Y5640D02*
Y6378D01*
X9203Y5728D02*
Y6419D01*
X9341Y5788D02*
Y6420D01*
D70*
X7851Y18546D02*
D03*
X7490Y18179D02*
D03*
X7944Y17815D02*
D03*
X9021Y17067D02*
D03*
X10128Y5236D02*
D03*
Y4764D02*
D03*
X9603D02*
D03*
Y5236D02*
D03*
X10128Y4291D02*
D03*
Y3819D02*
D03*
X9603Y4291D02*
D03*
Y3819D02*
D03*
X8553Y5236D02*
D03*
X9078D02*
D03*
Y4764D02*
D03*
X8553D02*
D03*
X9078Y4291D02*
D03*
Y3819D02*
D03*
X8553Y4291D02*
D03*
Y3819D02*
D03*
X361Y14134D02*
D03*
X610Y14242D02*
D03*
X9596Y10769D02*
D03*
X5571Y10768D02*
D03*
X10236Y16978D02*
D03*
X10256Y17539D02*
D03*
X11142Y17500D02*
D03*
X11024Y17067D02*
D03*
X10039Y14006D02*
D03*
X9941Y15256D02*
D03*
X10822Y17726D02*
D03*
X20281Y17613D02*
D03*
Y16113D02*
D03*
Y14613D02*
D03*
X19906Y9363D02*
D03*
X20281Y8613D02*
D03*
X19906Y7863D02*
D03*
Y4863D02*
D03*
Y3363D02*
D03*
X20281Y2613D02*
D03*
X19906Y1863D02*
D03*
Y363D02*
D03*
X19156Y19863D02*
D03*
X19531Y17613D02*
D03*
X19156Y9363D02*
D03*
X19531Y8613D02*
D03*
Y7113D02*
D03*
Y2613D02*
D03*
Y1113D02*
D03*
X19156Y363D02*
D03*
X18406Y19863D02*
D03*
X18781Y17613D02*
D03*
X18406Y9363D02*
D03*
Y7863D02*
D03*
X18781Y7113D02*
D03*
X18406Y6363D02*
D03*
X18781Y5613D02*
D03*
Y4113D02*
D03*
X18406Y3363D02*
D03*
X18781Y2613D02*
D03*
X18406Y363D02*
D03*
X17656Y19863D02*
D03*
X18031Y17613D02*
D03*
Y11613D02*
D03*
Y7113D02*
D03*
X17656Y6363D02*
D03*
X17281Y17613D02*
D03*
X16906Y16863D02*
D03*
Y13863D02*
D03*
Y6363D02*
D03*
X17281Y5613D02*
D03*
X16531Y17613D02*
D03*
X16156Y16863D02*
D03*
X16531Y16113D02*
D03*
Y14613D02*
D03*
Y13113D02*
D03*
X16156Y12363D02*
D03*
X16531Y11613D02*
D03*
X16156Y6363D02*
D03*
X15781Y17613D02*
D03*
X15406Y16863D02*
D03*
X15781Y16113D02*
D03*
X15406Y13863D02*
D03*
Y12363D02*
D03*
X14656D02*
D03*
X13906Y19863D02*
D03*
Y10863D02*
D03*
Y7863D02*
D03*
Y1863D02*
D03*
X13156Y13863D02*
D03*
X13531Y11613D02*
D03*
Y10113D02*
D03*
X13156Y1863D02*
D03*
X13531Y1113D02*
D03*
X13156Y363D02*
D03*
X12781Y7113D02*
D03*
Y1113D02*
D03*
X12406Y363D02*
D03*
X12031Y10113D02*
D03*
Y1113D02*
D03*
X11656Y363D02*
D03*
X11281Y10113D02*
D03*
X10906Y363D02*
D03*
X10156D02*
D03*
X9781Y19113D02*
D03*
X9406Y363D02*
D03*
X8656Y10863D02*
D03*
X6406D02*
D03*
X5656Y13863D02*
D03*
Y1863D02*
D03*
X4906Y12363D02*
D03*
X5281Y11613D02*
D03*
X4906Y1863D02*
D03*
X4531Y10113D02*
D03*
Y8613D02*
D03*
Y4113D02*
D03*
Y2613D02*
D03*
X3406Y13863D02*
D03*
X3781Y7113D02*
D03*
X3406Y1863D02*
D03*
X3781Y1113D02*
D03*
X3031Y10113D02*
D03*
X2656Y1863D02*
D03*
X3031Y1113D02*
D03*
X2656Y363D02*
D03*
X2281Y7113D02*
D03*
Y1113D02*
D03*
X1906Y363D02*
D03*
X1531Y5613D02*
D03*
X781Y8613D02*
D03*
X406Y7863D02*
D03*
Y6363D02*
D03*
X781Y5613D02*
D03*
X406Y4863D02*
D03*
X781Y2613D02*
D03*
X406Y1863D02*
D03*
X6132Y5787D02*
D03*
X7136Y7500D02*
D03*
Y6339D02*
D03*
X4921Y4872D02*
D03*
X6132Y5359D02*
D03*
X6211Y4911D02*
D03*
X6389Y4742D02*
D03*
X6388Y5522D02*
D03*
X6959Y5325D02*
D03*
X4428Y5881D02*
D03*
X4824D02*
D03*
X3681Y6634D02*
D03*
X3563Y7657D02*
D03*
X1063Y10650D02*
D03*
X1171Y9577D02*
D03*
Y9862D02*
D03*
X6132Y7598D02*
D03*
X2982Y5797D02*
D03*
X2667Y6427D02*
D03*
X3583Y5157D02*
D03*
X2067Y11585D02*
D03*
X2085Y12382D02*
D03*
X2077Y12106D02*
D03*
X1122Y13346D02*
D03*
X2047Y5138D02*
D03*
X321Y13376D02*
D03*
X1132Y9114D02*
D03*
X2303Y9370D02*
D03*
X4551Y15234D02*
D03*
X3883Y14134D02*
D03*
X3858Y14429D02*
D03*
X5315Y18543D02*
D03*
X4121Y19219D02*
D03*
X3602Y19232D02*
D03*
X6663Y17156D02*
D03*
X6604Y15532D02*
D03*
X6102Y17126D02*
D03*
X5404Y19936D02*
D03*
X6860Y15399D02*
D03*
X20246Y18701D02*
D03*
X19911D02*
D03*
X7490Y1841D02*
D03*
X7884Y1841D02*
D03*
X8278D02*
D03*
X7490Y1447D02*
D03*
X7884D02*
D03*
X8278D02*
D03*
X7490Y1053D02*
D03*
X7884D02*
D03*
X8278D02*
D03*
X7490Y659D02*
D03*
X7884Y659D02*
D03*
X8278D02*
D03*
X15992Y5874D02*
D03*
X8415Y12687D02*
D03*
Y13346D02*
D03*
X8415Y13976D02*
D03*
X7805Y8258D02*
D03*
X18041Y5010D02*
D03*
X13819Y5433D02*
D03*
X19823Y12362D02*
D03*
X17096Y1043D02*
D03*
X15935Y5197D02*
D03*
X15837Y3967D02*
D03*
X17352Y4724D02*
D03*
X17746Y5305D02*
D03*
X17106Y5295D02*
D03*
X16604Y5285D02*
D03*
X17751Y4723D02*
D03*
X16211Y4715D02*
D03*
X16201Y4360D02*
D03*
X16951Y4744D02*
D03*
X16454Y4327D02*
D03*
X16454Y4744D02*
D03*
X16014Y4537D02*
D03*
X16594Y3789D02*
D03*
X17077Y3701D02*
D03*
X17638Y3593D02*
D03*
X17096Y2264D02*
D03*
X16909Y1211D02*
D03*
X17640Y1855D02*
D03*
Y2229D02*
D03*
X16072Y3825D02*
D03*
X17563Y3947D02*
D03*
X17310Y4223D02*
D03*
X16951Y4328D02*
D03*
X6329Y3445D02*
D03*
X8553Y2205D02*
D03*
X7185Y2421D02*
D03*
X7362Y2598D02*
D03*
X7185Y2776D02*
D03*
Y3130D02*
D03*
X6988Y3278D02*
D03*
X9498Y2205D02*
D03*
X10496Y1955D02*
D03*
X10709Y2165D02*
D03*
X10581Y2707D02*
D03*
X10925Y2825D02*
D03*
X10069Y2293D02*
D03*
X8889D02*
D03*
X7461Y5797D02*
D03*
X7766Y4341D02*
D03*
X7648Y3366D02*
D03*
X7687Y5167D02*
D03*
X6801Y2254D02*
D03*
X14006Y7008D02*
D03*
X16496Y7057D02*
D03*
X16073D02*
D03*
X16073Y7589D02*
D03*
X15728Y7057D02*
D03*
X15728Y7589D02*
D03*
X15384Y7057D02*
D03*
X15384Y7589D02*
D03*
X15039Y7057D02*
D03*
X15039Y7589D02*
D03*
X14695D02*
D03*
X14695Y7057D02*
D03*
X14350D02*
D03*
X14350Y7589D02*
D03*
X13051Y5453D02*
D03*
X17098Y8927D02*
D03*
X16916Y7845D02*
D03*
X13282Y6035D02*
D03*
X17098Y9675D02*
D03*
X17640Y9061D02*
D03*
X13824Y6157D02*
D03*
X13289Y6783D02*
D03*
X17084Y8179D02*
D03*
X17098Y9301D02*
D03*
X17164Y7333D02*
D03*
X17640Y8313D02*
D03*
X13824Y6531D02*
D03*
X13282Y5661D02*
D03*
X13403Y7139D02*
D03*
X13651Y7419D02*
D03*
X16841Y7145D02*
D03*
X17098Y8553D02*
D03*
X17640Y9435D02*
D03*
X13824Y5782D02*
D03*
X16606Y7636D02*
D03*
X17418Y7607D02*
D03*
X17640Y8687D02*
D03*
X13675Y5065D02*
D03*
X17582Y7944D02*
D03*
X13282Y6409D02*
D03*
X13991Y7574D02*
D03*
X19180Y13588D02*
D03*
X18806D02*
D03*
X19036Y13046D02*
D03*
X19410D02*
D03*
X19779Y12985D02*
D03*
X19818Y12613D02*
D03*
X20360Y12472D02*
D03*
Y12846D02*
D03*
X20279Y13211D02*
D03*
X20025Y13485D02*
D03*
X19665Y13588D02*
D03*
X17641Y13547D02*
D03*
X17322Y13351D02*
D03*
X17134Y13028D02*
D03*
X17098Y12656D02*
D03*
X17098Y12282D02*
D03*
X17098Y11908D02*
D03*
X17098Y11534D02*
D03*
X17098Y11160D02*
D03*
X17640Y11243D02*
D03*
X17640Y11617D02*
D03*
X17640Y11991D02*
D03*
X17640Y12365D02*
D03*
X17640Y12739D02*
D03*
X17859Y13042D02*
D03*
X18245Y13585D02*
D03*
X16624Y1053D02*
D03*
X16348D02*
D03*
Y1329D02*
D03*
X16508Y507D02*
D03*
X16882D02*
D03*
X17256Y523D02*
D03*
X17560Y741D02*
D03*
X17640Y1107D02*
D03*
Y1481D02*
D03*
X13701Y3927D02*
D03*
X13799Y3317D02*
D03*
X13051Y3002D02*
D03*
X20276Y1102D02*
D03*
X20669Y5217D02*
D03*
X6053Y876D02*
D03*
X18159Y6014D02*
D03*
X16663Y3130D02*
D03*
Y2352D02*
D03*
X18081Y2343D02*
D03*
X18071Y3110D02*
D03*
X17096Y1663D02*
D03*
X16909Y2018D02*
D03*
X13317Y4222D02*
D03*
X11510Y5356D02*
D03*
X4855Y19318D02*
D03*
X8976Y8593D02*
D03*
X14744Y14104D02*
D03*
X14230Y15413D02*
D03*
X12313Y8937D02*
D03*
X11831Y8612D02*
D03*
X11988Y9006D02*
D03*
X10617Y8944D02*
D03*
X10601Y9288D02*
D03*
X10763Y9473D02*
D03*
X9016Y11841D02*
D03*
X11742Y2913D02*
D03*
Y2421D02*
D03*
Y2667D02*
D03*
X14498Y5876D02*
D03*
X14177Y5159D02*
D03*
X12627Y4518D02*
D03*
X12972Y3720D02*
D03*
X12736Y7972D02*
D03*
X12766Y8435D02*
D03*
X18760Y4360D02*
D03*
X12785Y12854D02*
D03*
X5295Y12146D02*
D03*
X13986Y10502D02*
D03*
X16780Y9570D02*
D03*
X6565Y236D02*
D03*
X18386Y12884D02*
D03*
X18051Y12874D02*
D03*
X18730Y12878D02*
D03*
X16713Y9990D02*
D03*
Y10738D02*
D03*
X18022D02*
D03*
Y9990D02*
D03*
X12785Y17215D02*
D03*
X13100Y16230D02*
D03*
X12333Y8071D02*
D03*
X9163Y12726D02*
D03*
X6870Y13652D02*
D03*
X6762Y14409D02*
D03*
X2766Y15335D02*
D03*
X2736Y18041D02*
D03*
X11604Y18356D02*
D03*
X8652Y8656D02*
D03*
X4488Y18602D02*
D03*
X13612Y17510D02*
D03*
X12421Y17244D02*
D03*
X7953Y10620D02*
D03*
X6850Y10925D02*
D03*
X7362Y18809D02*
D03*
X3671Y16407D02*
D03*
X5827Y19656D02*
D03*
X4970Y19646D02*
D03*
X591Y17549D02*
D03*
X2707Y8248D02*
D03*
X995Y17840D02*
D03*
X2712Y8519D02*
D03*
X14291Y12106D02*
D03*
X3593Y14026D02*
D03*
X18504Y1112D02*
D03*
X7992Y13986D02*
D03*
X4754Y12835D02*
D03*
X14843Y18809D02*
D03*
X17904Y19252D02*
D03*
X17047Y19242D02*
D03*
X18907Y20630D02*
D03*
X17992Y20610D02*
D03*
X17077D02*
D03*
X20620Y20650D02*
D03*
X20443Y17933D02*
D03*
X20610Y18691D02*
D03*
X20581Y19439D02*
D03*
X19567Y18711D02*
D03*
Y19114D02*
D03*
X19557Y18337D02*
D03*
X6348Y20374D02*
D03*
X4892Y20384D02*
D03*
X2707Y20226D02*
D03*
X217Y20659D02*
D03*
X246Y19429D02*
D03*
X295Y18543D02*
D03*
X4764Y13543D02*
D03*
X6033Y14173D02*
D03*
X9163Y14154D02*
D03*
X9400Y11663D02*
D03*
X4911Y8853D02*
D03*
X4774Y7923D02*
D03*
X4793Y2982D02*
D03*
X4892Y3996D02*
D03*
X7352Y14193D02*
D03*
X7421Y14774D02*
D03*
X15827Y3091D02*
D03*
X19331Y7864D02*
D03*
X19439Y4675D02*
D03*
X20620Y354D02*
D03*
X20610Y1831D02*
D03*
X20600Y3376D02*
D03*
Y9419D02*
D03*
X20610Y8612D02*
D03*
X20620Y7844D02*
D03*
Y7028D02*
D03*
X20630Y6220D02*
D03*
X16220Y8996D02*
D03*
X12224Y10807D02*
D03*
X11585Y11417D02*
D03*
X12283Y13632D02*
D03*
X13425Y14232D02*
D03*
X13465Y13770D02*
D03*
X14587Y11811D02*
D03*
X14744Y12825D02*
D03*
X16260Y13907D02*
D03*
X16102Y12608D02*
D03*
Y11821D02*
D03*
X16122Y11053D02*
D03*
X15335Y11112D02*
D03*
X15354Y11831D02*
D03*
X15364Y12608D02*
D03*
X15433Y13474D02*
D03*
X15118Y17156D02*
D03*
X14508Y16841D02*
D03*
X14094Y17884D02*
D03*
X13593Y18691D02*
D03*
X13957Y20561D02*
D03*
X10453Y19154D02*
D03*
X9665Y19724D02*
D03*
X8455D02*
D03*
X2234Y20610D02*
D03*
X276Y17490D02*
D03*
X1260Y15295D02*
D03*
X4203Y10532D02*
D03*
X3219D02*
D03*
X2165Y9813D02*
D03*
X305Y9675D02*
D03*
X4222Y8730D02*
D03*
X4006Y6496D02*
D03*
X4065Y6191D02*
D03*
X3356Y640D02*
D03*
X5069Y620D02*
D03*
X6348Y2047D02*
D03*
X10217Y915D02*
D03*
X9400D02*
D03*
X11171Y925D02*
D03*
X10256Y1683D02*
D03*
X9547Y1654D02*
D03*
X11083Y2077D02*
D03*
X12087Y3484D02*
D03*
X15684Y3445D02*
D03*
X20679Y12333D02*
D03*
X16299Y187D02*
D03*
X16599Y5627D02*
D03*
X16330Y5665D02*
D03*
X16869D02*
D03*
X13750Y571D02*
D03*
X11850Y19163D02*
D03*
X9341Y17067D02*
D03*
X5886Y15335D02*
D03*
X13061Y11211D02*
D03*
X12323Y15876D02*
D03*
X12510Y16230D02*
D03*
X13386Y16939D02*
D03*
X13346Y17884D02*
D03*
X15157Y19035D02*
D03*
X12392Y15256D02*
D03*
X8976Y8346D02*
D03*
X5364Y8278D02*
D03*
Y7697D02*
D03*
X6250Y9026D02*
D03*
X6166Y10394D02*
D03*
X6250Y6949D02*
D03*
X5295Y9518D02*
D03*
X3593Y17776D02*
D03*
X5364Y2982D02*
D03*
Y3583D02*
D03*
X5374Y4075D02*
D03*
X5364Y4528D02*
D03*
X5719Y2470D02*
D03*
X6555Y3258D02*
D03*
X6260Y6417D02*
D03*
X4094Y6732D02*
D03*
X8957Y1742D02*
D03*
X6102Y15846D02*
D03*
X10179Y16289D02*
D03*
X12037Y14961D02*
D03*
X2776Y13209D02*
D03*
X4301Y15443D02*
D03*
X18504Y10512D02*
D03*
Y10787D02*
D03*
Y11339D02*
D03*
X20285Y9783D02*
D03*
X12047Y12608D02*
D03*
X13425Y11919D02*
D03*
X8730Y10374D02*
D03*
X11063Y6969D02*
D03*
X11821Y7982D02*
D03*
X11398Y7037D02*
D03*
X2156Y6614D02*
D03*
X8317Y10522D02*
D03*
X5069Y11388D02*
D03*
X5020Y9409D02*
D03*
X4154Y9606D02*
D03*
X4213Y20364D02*
D03*
X16122Y13533D02*
D03*
X16526Y15030D02*
D03*
X19862Y6713D02*
D03*
X4911Y7539D02*
D03*
X5374Y6703D02*
D03*
X2815Y5197D02*
D03*
X4783Y4606D02*
D03*
X4124Y4577D02*
D03*
X2618Y2362D02*
D03*
X1501Y3307D02*
D03*
X1467Y3799D02*
D03*
X1521Y4798D02*
D03*
X7303Y13110D02*
D03*
X7402Y15709D02*
D03*
X8209Y15463D02*
D03*
X6112Y16112D02*
D03*
X13091Y14774D02*
D03*
X13002Y15097D02*
D03*
X13100Y15876D02*
D03*
X13632D02*
D03*
X16486Y14094D02*
D03*
X16053Y15364D02*
D03*
X8415Y8858D02*
D03*
X8696Y9390D02*
D03*
X6813Y12628D02*
D03*
X7738Y12638D02*
D03*
X6734Y11673D02*
D03*
X5730Y11683D02*
D03*
X5453Y13652D02*
D03*
X5148Y13967D02*
D03*
X5453Y14282D02*
D03*
X11122Y1752D02*
D03*
X12707Y10108D02*
D03*
X11752Y1703D02*
D03*
X2608Y7067D02*
D03*
X3209Y8878D02*
D03*
X1860Y5502D02*
D03*
X4390Y7913D02*
D03*
X325Y10650D02*
D03*
X2776Y10797D02*
D03*
X3947Y11398D02*
D03*
X3701Y13612D02*
D03*
X3150Y14085D02*
D03*
X11437Y10492D02*
D03*
X17539Y5463D02*
D03*
X1988Y15315D02*
D03*
X2904Y16240D02*
D03*
X1654Y18878D02*
D03*
X1427Y20374D02*
D03*
X728Y19065D02*
D03*
X4567Y20394D02*
D03*
X2805Y13829D02*
D03*
X1939Y14213D02*
D03*
X3396Y16329D02*
D03*
X3366Y17028D02*
D03*
X3071Y18346D02*
D03*
X1900Y19439D02*
D03*
X1841Y20148D02*
D03*
X11348Y18593D02*
D03*
X10179Y16545D02*
D03*
X2530Y7441D02*
D03*
X19498Y12372D02*
D03*
X19242D02*
D03*
X18986D02*
D03*
X18730D02*
D03*
X19606Y10226D02*
D03*
X18868Y10374D02*
D03*
X19134D02*
D03*
X19390D02*
D03*
X19734Y9990D02*
D03*
X20000D02*
D03*
X20630D02*
D03*
X13967Y266D02*
D03*
X16348Y1604D02*
D03*
Y1880D02*
D03*
Y2156D02*
D03*
X16152Y2372D02*
D03*
X15886D02*
D03*
X15620D02*
D03*
X15354D02*
D03*
X15098D02*
D03*
X14833D02*
D03*
X14567D02*
D03*
X14360Y2156D02*
D03*
Y1870D02*
D03*
Y1575D02*
D03*
Y1270D02*
D03*
X13967Y1220D02*
D03*
Y906D02*
D03*
X18504Y11614D02*
D03*
Y11063D02*
D03*
Y12165D02*
D03*
Y11890D02*
D03*
X12640Y5480D02*
D03*
X9360Y16043D02*
D03*
X8258Y15728D02*
D03*
X15904Y3577D02*
D03*
X16869Y3400D02*
D03*
X16330D02*
D03*
X17264Y5915D02*
D03*
X16599Y3438D02*
D03*
X11486Y4478D02*
D03*
X11919Y4488D02*
D03*
X11378Y6565D02*
D03*
X9764Y7313D02*
D03*
X12215Y6988D02*
D03*
X7569Y7520D02*
D03*
X11703Y4331D02*
D03*
X10906Y5502D02*
D03*
X11349Y5866D02*
D03*
X10177Y6516D02*
D03*
X8140Y7353D02*
D03*
X10886Y4725D02*
D03*
X8927Y6290D02*
D03*
X8612Y6910D02*
D03*
X11502Y6328D02*
D03*
X11832Y5478D02*
D03*
X12292Y6628D02*
D03*
X14585Y4751D02*
D03*
X15018D02*
D03*
X14585Y4318D02*
D03*
X15018D02*
D03*
X15962Y5474D02*
D03*
X14093Y3826D02*
D03*
X15510D02*
D03*
Y5243D02*
D03*
X14350Y6250D02*
D03*
X15482Y5876D02*
D03*
X16299Y8612D02*
D03*
X15246Y3376D02*
D03*
X7854Y16909D02*
D03*
X9341Y17421D02*
D03*
X6654Y16260D02*
D03*
X6663Y16732D02*
D03*
X13396Y12569D02*
D03*
X12618Y12579D02*
D03*
X13937Y12431D02*
D03*
X14075Y18691D02*
D03*
X16906Y15481D02*
D03*
X12008Y20492D02*
D03*
X16240Y14537D02*
D03*
X2992Y20384D02*
D03*
X11043Y16289D02*
D03*
X12894Y20433D02*
D03*
X11540Y20408D02*
D03*
X10500Y20388D02*
D03*
X9618Y20348D02*
D03*
X8500D02*
D03*
X7500D02*
D03*
X5502Y20413D02*
D03*
D145*
X5128Y19045D02*
X6427D01*
X6954Y18519D01*
Y17810D02*
Y18519D01*
X4855Y19318D02*
X5128Y19045D01*
X6850Y10925D02*
X7648D01*
X7953Y10620D01*
X6954Y17810D02*
X7854Y16909D01*
D146*
X5089Y18780D02*
X5758D01*
X4764Y19104D02*
X5089Y18780D01*
X5758D02*
X5827Y18711D01*
D156*
X15157Y19035D02*
Y19066D01*
X15153Y19070D02*
X15157Y19066D01*
X14823Y18740D02*
X15153Y19070D01*
D157*
X6750Y12148D02*
D03*
X5750Y12148D02*
D03*
X7750Y12148D02*
D03*
D167*
X8125Y17411D02*
D03*
Y16112D02*
D03*
Y16624D02*
D03*
X8981Y16486D02*
D03*
X8927Y15315D02*
D03*
X8947Y15837D02*
D03*
X6388Y4193D02*
D03*
X10433Y6762D02*
D03*
X6437Y19301D02*
D03*
X1594Y14488D02*
D03*
X5404Y18268D02*
D03*
X5787Y19291D02*
D03*
X5394Y19636D02*
D03*
X5413Y19301D02*
D03*
X9409Y19911D02*
D03*
X8701D02*
D03*
X9774Y18563D02*
D03*
X9793Y18199D02*
D03*
X8888Y18258D02*
D03*
X9193Y17785D02*
D03*
X8770Y17835D02*
D03*
X8917Y14803D02*
D03*
X8258Y14636D02*
D03*
X7323Y15315D02*
D03*
X8041Y15187D02*
D03*
X7795Y14902D02*
D03*
X6201Y15305D02*
D03*
X5758Y14606D02*
D03*
X6181Y14724D02*
D03*
X6585Y14755D02*
D03*
X3907Y13691D02*
D03*
X4154Y13967D02*
D03*
X4508Y14252D02*
D03*
X4744Y14518D02*
D03*
X3927Y14852D02*
D03*
X5089Y15059D02*
D03*
X3858Y15413D02*
D03*
X4178Y15089D02*
D03*
X4744Y14837D02*
D03*
X4793Y15591D02*
D03*
X4459Y15876D02*
D03*
X3494Y15768D02*
D03*
X3149Y15610D02*
D03*
X1309Y15630D02*
D03*
X2500Y15728D02*
D03*
X1969Y15718D02*
D03*
X256Y18317D02*
D03*
Y16624D02*
D03*
Y16289D02*
D03*
X3868Y19488D02*
D03*
X3071Y19331D02*
D03*
X2736Y18957D02*
D03*
X1250Y18307D02*
D03*
X1900Y18514D02*
D03*
X1575Y18258D02*
D03*
X1990Y17820D02*
D03*
X1949Y17224D02*
D03*
X1742Y17569D02*
D03*
X1457Y17313D02*
D03*
X1122Y17530D02*
D03*
X915Y17323D02*
D03*
X1014Y16949D02*
D03*
X993Y16457D02*
D03*
X1201Y16594D02*
D03*
X1486Y16329D02*
D03*
X1706Y16555D02*
D03*
X1939Y16732D02*
D03*
X1919Y16201D02*
D03*
X2224Y16358D02*
D03*
X2195Y16821D02*
D03*
X2717Y16555D02*
D03*
X2904Y16860D02*
D03*
X2884Y17559D02*
D03*
X4114Y18671D02*
D03*
X3809Y18661D02*
D03*
X4921Y18228D02*
D03*
X4518D02*
D03*
X4902Y16230D02*
D03*
X4892Y16634D02*
D03*
X4508Y16407D02*
D03*
X5157Y15906D02*
D03*
X5148Y16280D02*
D03*
X5157Y16535D02*
D03*
X5138Y16742D02*
D03*
X5148Y16959D02*
D03*
X4478Y17362D02*
D03*
X4488Y17726D02*
D03*
X4803Y17746D02*
D03*
X4734Y17402D02*
D03*
X8514Y12274D02*
D03*
X8219Y11988D02*
D03*
X7559Y11299D02*
D03*
X7884Y11673D02*
D03*
X8701Y11565D02*
D03*
X8435Y11250D02*
D03*
X8159Y10994D02*
D03*
X6339Y9222D02*
D03*
X6329Y9862D02*
D03*
X6565Y10285D02*
D03*
X6870Y10600D02*
D03*
X6929Y8031D02*
D03*
Y8799D02*
D03*
Y9291D02*
D03*
Y9783D02*
D03*
X7589Y10502D02*
D03*
X7382Y10276D02*
D03*
X8848Y8898D02*
D03*
X8346Y9193D02*
D03*
X8022Y8868D02*
D03*
X7687Y8858D02*
D03*
X7953Y9213D02*
D03*
X8061Y10285D02*
D03*
X8278Y10069D02*
D03*
X7874Y9675D02*
D03*
X7363Y9656D02*
D03*
X7146Y9380D02*
D03*
X7333Y8829D02*
D03*
X7136Y9045D02*
D03*
X11545Y7608D02*
D03*
X11093Y7500D02*
D03*
X10266Y7195D02*
D03*
X10256Y7579D02*
D03*
X8622Y7598D02*
D03*
X9705Y7854D02*
D03*
X11528Y8351D02*
D03*
X12923Y9803D02*
D03*
X13750Y8041D02*
D03*
X12992D02*
D03*
X15030Y8346D02*
D03*
X15276Y8583D02*
D03*
X15551Y8878D02*
D03*
X15246Y10433D02*
D03*
X14734Y10246D02*
D03*
X13907Y9872D02*
D03*
X15551Y10187D02*
D03*
X14990Y9616D02*
D03*
X14065Y9587D02*
D03*
X14852Y8622D02*
D03*
X14966Y9275D02*
D03*
X15285Y9183D02*
D03*
X14370Y8691D02*
D03*
X13789Y8356D02*
D03*
X13829Y8780D02*
D03*
X13563Y9006D02*
D03*
X13081Y9124D02*
D03*
X13789Y9311D02*
D03*
X364Y10994D02*
D03*
X390Y11201D02*
D03*
X7234Y16949D02*
D03*
X7303Y16683D02*
D03*
X6998Y16211D02*
D03*
X6988Y16673D02*
D03*
X6270Y16309D02*
D03*
X6250Y16801D02*
D03*
X6289Y17057D02*
D03*
X6831Y17234D02*
D03*
X5344Y15305D02*
D03*
X3396Y8996D02*
D03*
Y10059D02*
D03*
Y10581D02*
D03*
Y11112D02*
D03*
Y11634D02*
D03*
X6634Y6388D02*
D03*
Y6841D02*
D03*
X5630Y6978D02*
D03*
Y7520D02*
D03*
Y8051D02*
D03*
Y8573D02*
D03*
Y9104D02*
D03*
Y9626D02*
D03*
X5638Y10153D02*
D03*
X5984Y10679D02*
D03*
Y10148D02*
D03*
Y9616D02*
D03*
Y9085D02*
D03*
X5994Y8543D02*
D03*
Y8071D02*
D03*
Y7756D02*
D03*
Y7254D02*
D03*
X4331Y4921D02*
D03*
X5512D02*
D03*
X5921Y4916D02*
D03*
X6014Y4665D02*
D03*
X6181Y4429D02*
D03*
X2854Y9055D02*
D03*
X2510D02*
D03*
X2234D02*
D03*
X3337Y8671D02*
D03*
X2067Y9961D02*
D03*
Y9537D02*
D03*
Y9203D02*
D03*
X2087Y7096D02*
D03*
Y7461D02*
D03*
Y7736D02*
D03*
X1427Y8602D02*
D03*
X1890Y12864D02*
D03*
X1880Y12254D02*
D03*
X2047Y11841D02*
D03*
X1890Y11772D02*
D03*
X295Y12361D02*
D03*
X5679Y15217D02*
D03*
X8258Y19902D02*
D03*
X7470Y19911D02*
D03*
X7028Y19902D02*
D03*
X6683D02*
D03*
X6073Y18780D02*
D03*
X7256Y19030D02*
D03*
X6988Y19203D02*
D03*
X17281Y14613D02*
D03*
X18031D02*
D03*
X18781D02*
D03*
X19531D02*
D03*
X19906Y15363D02*
D03*
X19156D02*
D03*
X18406D02*
D03*
X17656D02*
D03*
X17281Y16113D02*
D03*
X18031D02*
D03*
X18781D02*
D03*
X19531D02*
D03*
X19906Y16863D02*
D03*
X19156D02*
D03*
X17656D02*
D03*
X18406D02*
D03*
X6378Y5807D02*
D03*
X5699Y5837D02*
D03*
X5728Y6378D02*
D03*
X6348Y7451D02*
D03*
X3474Y7362D02*
D03*
X2530Y8041D02*
D03*
X1280Y12411D02*
D03*
X1225Y11083D02*
D03*
X551Y12205D02*
D03*
X758Y12835D02*
D03*
X610Y12707D02*
D03*
X768Y12700D02*
D03*
X5827Y18711D02*
D03*
X4764Y19104D02*
D03*
X6427Y17864D02*
D03*
X6429Y17254D02*
D03*
X10532Y15256D02*
D03*
X10295Y9469D02*
D03*
X3770Y9213D02*
D03*
X3591Y9626D02*
D03*
X8160Y3425D02*
D03*
Y3583D02*
D03*
X8475Y3425D02*
D03*
X8317D02*
D03*
X6339Y1043D02*
D03*
X9852Y9124D02*
D03*
X10330Y8278D02*
D03*
X10364Y3425D02*
D03*
X10049D02*
D03*
X10207D02*
D03*
X12696Y4921D02*
D03*
X8160Y3740D02*
D03*
X8160Y4213D02*
D03*
X8160Y4370D02*
D03*
X9892Y5630D02*
D03*
X9577Y5630D02*
D03*
X8160Y3898D02*
D03*
Y4055D02*
D03*
Y4685D02*
D03*
Y4843D02*
D03*
X9892Y3425D02*
D03*
X9734D02*
D03*
X9419Y5630D02*
D03*
X9734D02*
D03*
X8671Y813D02*
D03*
X6993Y1293D02*
D03*
X8671Y1313D02*
D03*
X9577Y3425D02*
D03*
X9262Y3425D02*
D03*
X9104D02*
D03*
X8947D02*
D03*
X8632D02*
D03*
X8790D02*
D03*
X9419D02*
D03*
X9262Y5630D02*
D03*
X9104D02*
D03*
X9341Y5788D02*
D03*
M02*
