G04*
G04 #@! TF.GenerationSoftware,Altium Limited,Altium Designer,23.6.0 (18)*
G04*
G04 Layer_Physical_Order=4*
G04 Layer_Color=13137664*
%FSLAX24Y24*%
%MOIN*%
G70*
G04*
G04 #@! TF.SameCoordinates,7E18E310-DAB5-435A-A8D0-C5F7F634A292*
G04*
G04*
G04 #@! TF.FilePolarity,Positive*
G04*
G01*
G75*
%ADD11C,0.0079*%
%ADD12C,0.0098*%
%ADD13C,0.0059*%
%ADD14C,0.0060*%
%ADD15C,0.0100*%
%ADD17C,0.0049*%
%ADD19C,0.0080*%
%ADD35R,0.0106X0.0118*%
%ADD43R,0.0295X0.0315*%
%ADD45R,0.0118X0.0106*%
%ADD46R,0.0315X0.0295*%
%ADD47R,0.0197X0.0236*%
%ADD48R,0.0236X0.0197*%
%ADD50C,0.0093*%
%ADD70C,0.0197*%
%ADD134O,0.0256X0.0087*%
%ADD135O,0.0087X0.0256*%
%ADD136C,0.0591*%
%ADD143C,0.0079*%
%ADD145C,0.0197*%
%ADD146C,0.0118*%
%ADD147C,0.0093*%
%ADD149C,0.0157*%
%ADD151C,0.0075*%
%ADD156C,0.0150*%
%ADD157R,0.0591X0.0591*%
%ADD158C,0.0295*%
%ADD159C,0.0354*%
%ADD160C,0.0610*%
%ADD161C,0.0236*%
%ADD162O,0.0787X0.0394*%
%ADD163O,0.0906X0.0394*%
%ADD164O,0.0236X0.0335*%
%ADD165C,0.0402*%
%ADD166C,0.1181*%
%ADD167C,0.0118*%
%ADD169C,0.0049*%
%ADD170R,0.0118X0.0315*%
%ADD171R,0.0364X0.0118*%
%ADD172C,0.0394*%
%ADD173R,0.0236X0.1024*%
%ADD174R,0.0709X0.0472*%
%ADD175R,0.0610X0.0236*%
%ADD176R,0.0177X0.0138*%
%ADD177R,0.0354X0.0236*%
%ADD178R,0.0480X0.0360*%
%ADD179R,0.0098X0.0157*%
%ADD180R,0.0276X0.0157*%
%ADD181R,0.1339X0.0512*%
%ADD182R,0.0157X0.0098*%
%ADD183R,0.0157X0.0276*%
%ADD184C,0.0076*%
%ADD185R,0.0091X0.0118*%
%ADD186P,0.0278X4X90.0*%
%ADD187R,0.0098X0.0187*%
%ADD188R,0.0187X0.0098*%
%ADD189R,0.0394X0.0335*%
%ADD190R,0.0236X0.0335*%
%ADD191R,0.0256X0.0197*%
%ADD192R,0.0787X0.0197*%
%ADD193R,0.0787X0.0394*%
%ADD194R,0.0394X0.0106*%
%ADD195R,0.0394X0.0205*%
%ADD196R,0.0394X0.0098*%
%ADD197R,0.0799X0.0299*%
%ADD198R,0.0157X0.0157*%
%ADD199C,0.0060*%
%ADD200C,0.0050*%
%ADD201C,0.0177*%
%ADD202R,0.0118X0.0220*%
%ADD203R,0.0060X0.0220*%
%ADD204R,0.0220X0.0060*%
%ADD205R,0.0220X0.0118*%
%ADD206R,0.0002X0.0237*%
%ADD207R,0.0002X0.0237*%
%ADD208R,0.0220X0.0237*%
%ADD209R,0.0492X0.0679*%
%ADD210R,0.0472X0.0787*%
G36*
X14112Y20754D02*
X14140Y20726D01*
X14156Y20689D01*
X14156Y19291D01*
X14157Y19287D01*
X14156Y19282D01*
X14160Y19243D01*
X14164Y19230D01*
X14167Y19216D01*
X14196Y19145D01*
X14217Y19114D01*
X14217Y19114D01*
X14271Y19060D01*
X14303Y19039D01*
X14374Y19009D01*
X14410Y19002D01*
X14487D01*
X14524Y19009D01*
X14551Y19020D01*
X15719D01*
Y18663D01*
X15522Y18465D01*
X13159D01*
X13158Y18466D01*
X13146Y18515D01*
X13172Y18531D01*
X13208Y18557D01*
X13242Y18585D01*
X13274Y18615D01*
X13305Y18648D01*
X13333Y18682D01*
X13359Y18718D01*
X13382Y18756D01*
X13403Y18795D01*
X13421Y18835D01*
X13437Y18877D01*
X13450Y18919D01*
X13460Y18962D01*
X13467Y19006D01*
X13471Y19050D01*
X13473Y19094D01*
X13471Y19139D01*
X13467Y19183D01*
X13460Y19227D01*
X13450Y19270D01*
X13437Y19312D01*
X13421Y19354D01*
X13403Y19394D01*
X13382Y19433D01*
X13359Y19471D01*
X13333Y19507D01*
X13305Y19541D01*
X13274Y19574D01*
X13242Y19604D01*
X13208Y19632D01*
X13172Y19658D01*
X13134Y19681D01*
X13095Y19702D01*
X13055Y19720D01*
X13013Y19736D01*
X12971Y19749D01*
X12927Y19759D01*
X12884Y19766D01*
X12840Y19771D01*
X12795Y19772D01*
X12751Y19771D01*
X12707Y19766D01*
X12663Y19759D01*
X12620Y19749D01*
X12577Y19736D01*
X12536Y19720D01*
X12496Y19702D01*
X12457Y19681D01*
X12419Y19658D01*
X12383Y19632D01*
X12349Y19604D01*
X12316Y19574D01*
X12286Y19541D01*
X12258Y19507D01*
X12232Y19471D01*
X12209Y19433D01*
X12188Y19394D01*
X12169Y19354D01*
X12154Y19312D01*
X12141Y19270D01*
X12131Y19227D01*
X12124Y19183D01*
X12119Y19139D01*
X12118Y19094D01*
X12119Y19050D01*
X12124Y19006D01*
X12131Y18962D01*
X12141Y18919D01*
X12154Y18877D01*
X12169Y18835D01*
X12188Y18795D01*
X12209Y18756D01*
X12232Y18718D01*
X12258Y18682D01*
X12286Y18648D01*
X12316Y18615D01*
X12349Y18585D01*
X12383Y18557D01*
X12419Y18531D01*
X12445Y18515D01*
X12433Y18466D01*
X12432Y18465D01*
X12224D01*
X12207Y18464D01*
X12190Y18460D01*
X12175Y18453D01*
X12160Y18444D01*
X12147Y18433D01*
X12015Y18301D01*
X11969Y18320D01*
Y18351D01*
X11968Y18368D01*
X11964Y18384D01*
X11957Y18400D01*
X11948Y18415D01*
X11937Y18428D01*
X11715Y18650D01*
X11702Y18661D01*
X11688Y18670D01*
X11685Y18671D01*
X11470Y18886D01*
X11457Y18897D01*
X11442Y18906D01*
X11427Y18912D01*
X11410Y18916D01*
X11393Y18918D01*
X10961D01*
X10944Y18916D01*
X10927Y18912D01*
X10911Y18906D01*
X10897Y18897D01*
X10884Y18886D01*
X10807Y18809D01*
X10691D01*
Y18533D01*
X10718D01*
X10718Y18429D01*
X10714Y18418D01*
X10709Y18400D01*
X10708Y18381D01*
X10709Y18363D01*
X10710Y18359D01*
X10698Y18340D01*
X10689Y18331D01*
X10669Y18321D01*
X10666Y18322D01*
X10648Y18326D01*
X10630Y18327D01*
X10612Y18326D01*
X10594Y18322D01*
X10577Y18317D01*
X10561Y18309D01*
X10546Y18299D01*
X10532Y18287D01*
X10520Y18273D01*
X10510Y18258D01*
X10502Y18242D01*
X10497Y18225D01*
X10493Y18207D01*
X10492Y18189D01*
X10493Y18171D01*
X10497Y18153D01*
X10502Y18136D01*
X10510Y18120D01*
X10520Y18105D01*
X10528Y18096D01*
X10529Y18094D01*
X10532Y18079D01*
X10529Y18043D01*
X10525Y18033D01*
X10522Y18031D01*
X10511Y18017D01*
X10500Y18002D01*
X10493Y17986D01*
X10487Y17969D01*
X10483Y17951D01*
X10482Y17933D01*
X10483Y17915D01*
X10487Y17897D01*
X10493Y17880D01*
X10500Y17864D01*
X10511Y17849D01*
X10522Y17835D01*
X10536Y17824D01*
X10551Y17813D01*
X10567Y17805D01*
X10584Y17800D01*
X10602Y17796D01*
X10620Y17795D01*
X10638Y17796D01*
X10656Y17800D01*
X10673Y17805D01*
X10689Y17813D01*
X10704Y17824D01*
X10736Y17847D01*
X10757Y17840D01*
X10773Y17830D01*
X10776Y17828D01*
Y17936D01*
X10876D01*
Y17828D01*
X10880Y17830D01*
X10896Y17840D01*
X10906Y17848D01*
X10916Y17852D01*
X10960D01*
X10970Y17848D01*
X10976Y17843D01*
X11006Y17805D01*
Y17717D01*
X11091D01*
X11106Y17710D01*
X11124Y17704D01*
X11138Y17701D01*
Y17667D01*
X11188D01*
Y17530D01*
X11282D01*
X11283Y17527D01*
X11289Y17512D01*
X11298Y17497D01*
X11309Y17484D01*
X11395Y17399D01*
X11376Y17352D01*
X11241D01*
X11240Y17353D01*
X11224Y17360D01*
X11207Y17364D01*
X11190Y17365D01*
X10945D01*
Y17434D01*
X10601D01*
X10551Y17434D01*
Y17434D01*
X10551D01*
Y17434D01*
X10404D01*
Y17257D01*
Y17079D01*
X10455D01*
Y17028D01*
X10587D01*
Y16978D01*
X10637D01*
Y16841D01*
X10683D01*
Y16660D01*
X10561D01*
Y16522D01*
X10511D01*
Y16472D01*
X10250D01*
Y16375D01*
X10511D01*
X10772D01*
Y16394D01*
X11264D01*
Y16108D01*
X11243Y16090D01*
X11214Y16076D01*
X11207Y16078D01*
X11189Y16082D01*
X11171Y16083D01*
X11153Y16082D01*
X11136Y16078D01*
X11118Y16072D01*
X11102Y16064D01*
X11087Y16054D01*
X11074Y16043D01*
X11062Y16029D01*
X11052Y16014D01*
X11044Y15998D01*
X11038Y15981D01*
X11034Y15963D01*
X11033Y15945D01*
X11034Y15927D01*
X11037Y15912D01*
X11037Y15908D01*
X11013Y15870D01*
X11003Y15862D01*
X10772D01*
Y15990D01*
Y16275D01*
X10511D01*
X10250D01*
Y16174D01*
X10249Y16173D01*
X10210Y16139D01*
X10200Y16141D01*
X10177Y16142D01*
X10159Y16141D01*
X10152Y16142D01*
X10113Y16173D01*
X10109Y16181D01*
Y17077D01*
X10157Y17079D01*
Y17079D01*
X10304D01*
Y17257D01*
Y17434D01*
X10157D01*
Y17434D01*
X10109Y17437D01*
Y18612D01*
X10107Y18635D01*
X10103Y18658D01*
X10095Y18680D01*
X10085Y18701D01*
X10072Y18720D01*
X10057Y18738D01*
X9614Y19181D01*
X9596Y19196D01*
X9577Y19209D01*
X9556Y19219D01*
X9534Y19227D01*
X9511Y19231D01*
X9488Y19233D01*
X9129D01*
X8905Y19456D01*
X8888Y19472D01*
X8868Y19484D01*
X8847Y19495D01*
X8825Y19502D01*
X8803Y19507D01*
X8780Y19508D01*
X7527D01*
X7504Y19554D01*
X7504Y19558D01*
X7516Y19577D01*
X7526Y19597D01*
X7534Y19619D01*
X7538Y19642D01*
X7540Y19665D01*
X7538Y19689D01*
X7534Y19711D01*
X7526Y19733D01*
X7516Y19754D01*
X7503Y19773D01*
X7488Y19791D01*
X7470Y19806D01*
X7451Y19819D01*
X7430Y19829D01*
X7408Y19837D01*
X7385Y19841D01*
X7362Y19843D01*
X7339Y19841D01*
X7316Y19837D01*
X7294Y19829D01*
X7273Y19819D01*
X7254Y19806D01*
X7237Y19791D01*
X7230Y19784D01*
X6140D01*
X6121Y19782D01*
X6103Y19778D01*
X6086Y19771D01*
X6070Y19761D01*
X6056Y19749D01*
X5843Y19537D01*
X5797Y19556D01*
Y19599D01*
X5413D01*
X5030D01*
Y19464D01*
X5000Y19447D01*
X4992Y19446D01*
X4980Y19445D01*
X4963Y19459D01*
X4944Y19472D01*
X4923Y19482D01*
X4901Y19490D01*
X4878Y19494D01*
X4855Y19496D01*
X4832Y19494D01*
X4809Y19490D01*
X4787Y19482D01*
X4766Y19472D01*
X4747Y19459D01*
X4729Y19444D01*
X4714Y19426D01*
X4701Y19407D01*
X4691Y19386D01*
X4683Y19364D01*
X4679Y19341D01*
X4677Y19318D01*
X4679Y19295D01*
X4683Y19272D01*
X4691Y19250D01*
X4701Y19229D01*
X4714Y19210D01*
X4729Y19193D01*
X4747Y19177D01*
X4766Y19165D01*
X4787Y19154D01*
X4809Y19147D01*
X4832Y19142D01*
X4855Y19141D01*
X4878Y19142D01*
X4901Y19147D01*
X4923Y19154D01*
X4944Y19165D01*
X4963Y19177D01*
X4980Y19192D01*
X4983Y19192D01*
X5030Y19173D01*
Y19013D01*
X4977D01*
X4957Y19012D01*
X4936Y19008D01*
X4917Y19001D01*
X4898Y18992D01*
X4881Y18980D01*
X4866Y18967D01*
X4770Y18871D01*
X4757Y18856D01*
X4745Y18839D01*
X4736Y18820D01*
X4729Y18801D01*
X4725Y18780D01*
X4724Y18760D01*
Y18693D01*
X4718Y18680D01*
X4710Y18658D01*
X4706Y18635D01*
X4704Y18612D01*
X4706Y18589D01*
X4710Y18566D01*
X4718Y18544D01*
X4728Y18523D01*
X4734Y18515D01*
X4722Y18481D01*
X4709Y18465D01*
X4311D01*
Y18740D01*
X4310Y18758D01*
X4307Y18776D01*
X4301Y18793D01*
X4293Y18809D01*
X4283Y18824D01*
X4271Y18838D01*
X4052Y19057D01*
Y19213D01*
X4051Y19231D01*
X4047Y19249D01*
X4041Y19266D01*
X4033Y19282D01*
X4023Y19297D01*
X4012Y19311D01*
X3766Y19556D01*
X3752Y19568D01*
X3737Y19578D01*
X3721Y19586D01*
X3704Y19592D01*
X3686Y19596D01*
X3668Y19597D01*
X3069D01*
X2574Y20092D01*
X2560Y20104D01*
X2545Y20114D01*
X2539Y20117D01*
Y20126D01*
X2517D01*
X2512Y20127D01*
X2494Y20131D01*
X2476Y20132D01*
X2402D01*
X2384Y20131D01*
X2366Y20127D01*
X2361Y20126D01*
X2264D01*
Y20069D01*
X1998D01*
Y20069D01*
X1891D01*
Y19941D01*
X1791D01*
Y20069D01*
X1713D01*
Y20126D01*
X1625D01*
Y19994D01*
X1575D01*
Y19944D01*
X1437D01*
Y19638D01*
X1486D01*
Y19383D01*
X1469Y19368D01*
X1454Y19350D01*
X1441Y19331D01*
X1430Y19310D01*
X1423Y19288D01*
X1418Y19265D01*
X1417Y19242D01*
X1418Y19219D01*
X1423Y19196D01*
X1430Y19174D01*
X1441Y19153D01*
X1454Y19134D01*
X1469Y19117D01*
X1486Y19101D01*
X1506Y19088D01*
X1527Y19078D01*
X1549Y19071D01*
X1571Y19066D01*
X1594Y19065D01*
X1618Y19066D01*
X1640Y19071D01*
X1662Y19078D01*
X1683Y19088D01*
X1703Y19101D01*
X1720Y19117D01*
X1735Y19134D01*
X1748Y19153D01*
X1759Y19174D01*
X1766Y19196D01*
X1771Y19219D01*
X1772Y19242D01*
X1771Y19265D01*
X1766Y19288D01*
X1759Y19310D01*
X1748Y19331D01*
X1735Y19350D01*
X1720Y19368D01*
X1703Y19383D01*
Y19636D01*
X2274D01*
Y19638D01*
X2539D01*
Y19670D01*
X2586Y19690D01*
X2914Y19361D01*
X2928Y19349D01*
X2943Y19339D01*
X2959Y19331D01*
X2976Y19325D01*
X2994Y19322D01*
X3012Y19321D01*
X3611D01*
X3776Y19156D01*
Y19000D01*
X3777Y18981D01*
X3780Y18964D01*
X3786Y18947D01*
X3794Y18930D01*
X3804Y18915D01*
X3816Y18902D01*
X4035Y18683D01*
Y18408D01*
X4002Y18385D01*
X3987Y18388D01*
X3951Y18399D01*
X3940Y18415D01*
X3925Y18433D01*
X3907Y18448D01*
X3888Y18461D01*
X3867Y18471D01*
X3845Y18479D01*
X3822Y18483D01*
X3799Y18485D01*
X3766D01*
X3743Y18483D01*
X3720Y18479D01*
X3698Y18471D01*
X3677Y18461D01*
X3658Y18448D01*
X3641Y18433D01*
X2113Y16905D01*
X2067Y16924D01*
Y17323D01*
Y17638D01*
Y17953D01*
Y18336D01*
X2675D01*
X2689Y18319D01*
X2707Y18304D01*
X2726Y18291D01*
X2747Y18281D01*
X2769Y18273D01*
X2792Y18269D01*
X2815Y18267D01*
X2838Y18269D01*
X2861Y18273D01*
X2883Y18281D01*
X2904Y18291D01*
X2923Y18304D01*
X2941Y18319D01*
X2956Y18337D01*
X2969Y18356D01*
X2979Y18377D01*
X2986Y18399D01*
X2991Y18422D01*
X2993Y18445D01*
X2992Y18453D01*
X3021Y18479D01*
X3038Y18486D01*
X3043Y18483D01*
X3075Y18470D01*
X3107Y18460D01*
X3141Y18452D01*
X3174Y18448D01*
X3209Y18446D01*
X3243Y18448D01*
X3277Y18452D01*
X3310Y18460D01*
X3343Y18470D01*
X3374Y18483D01*
X3405Y18499D01*
X3434Y18517D01*
X3461Y18538D01*
X3486Y18561D01*
X3509Y18587D01*
X3530Y18614D01*
X3548Y18643D01*
X3564Y18673D01*
X3577Y18704D01*
X3587Y18737D01*
X3595Y18770D01*
X3599Y18804D01*
X3601Y18839D01*
X3599Y18873D01*
X3595Y18907D01*
X3587Y18940D01*
X3577Y18973D01*
X3564Y19004D01*
X3548Y19035D01*
X3530Y19063D01*
X3509Y19091D01*
X3486Y19116D01*
X3461Y19139D01*
X3434Y19160D01*
X3405Y19178D01*
X3374Y19194D01*
X3343Y19207D01*
X3310Y19217D01*
X3277Y19225D01*
X3243Y19229D01*
X3209Y19231D01*
X3174Y19229D01*
X3141Y19225D01*
X3107Y19217D01*
X3075Y19207D01*
X3043Y19194D01*
X3013Y19178D01*
X2984Y19160D01*
X2957Y19139D01*
X2931Y19116D01*
X2908Y19091D01*
X2887Y19063D01*
X2869Y19035D01*
X2853Y19004D01*
X2840Y18973D01*
X2830Y18940D01*
X2823Y18907D01*
X2818Y18873D01*
X2817Y18839D01*
X2818Y18804D01*
X2823Y18770D01*
X2830Y18737D01*
X2840Y18704D01*
X2853Y18673D01*
X2856Y18668D01*
X2849Y18651D01*
X2823Y18622D01*
X2815Y18622D01*
X2792Y18621D01*
X2769Y18616D01*
X2747Y18609D01*
X2726Y18599D01*
X2707Y18586D01*
X2689Y18570D01*
X2675Y18553D01*
X2067D01*
Y18622D01*
X1122D01*
Y18532D01*
X1072Y18507D01*
X1072Y18507D01*
X1050Y18520D01*
X1026Y18531D01*
X1002Y18540D01*
X977Y18546D01*
X951Y18550D01*
X925Y18551D01*
X899Y18550D01*
X874Y18546D01*
X849Y18540D01*
X824Y18531D01*
X801Y18520D01*
X778Y18507D01*
X758Y18492D01*
X738Y18474D01*
X721Y18455D01*
X706Y18434D01*
X692Y18412D01*
X681Y18388D01*
X672Y18364D01*
X666Y18339D01*
X662Y18313D01*
X661Y18287D01*
X662Y18262D01*
X666Y18236D01*
X672Y18211D01*
X681Y18186D01*
X692Y18163D01*
X706Y18141D01*
X721Y18120D01*
X738Y18101D01*
X758Y18083D01*
X778Y18068D01*
X801Y18054D01*
X824Y18043D01*
X849Y18035D01*
X870Y18029D01*
X877Y18016D01*
X882Y17998D01*
X883Y17976D01*
X870Y17965D01*
X855Y17948D01*
X842Y17928D01*
X831Y17908D01*
X824Y17886D01*
X819Y17863D01*
X818Y17840D01*
X819Y17816D01*
X824Y17794D01*
X831Y17772D01*
X836Y17762D01*
X823Y17730D01*
X807Y17712D01*
X690D01*
X673Y17711D01*
X667Y17709D01*
X658Y17713D01*
X636Y17721D01*
X614Y17725D01*
X591Y17727D01*
X567Y17725D01*
X545Y17721D01*
X523Y17713D01*
X502Y17703D01*
X482Y17690D01*
X465Y17675D01*
X450Y17657D01*
X437Y17638D01*
X427Y17617D01*
X419Y17595D01*
X415Y17572D01*
X413Y17549D01*
X415Y17526D01*
X419Y17503D01*
X427Y17481D01*
X437Y17460D01*
X450Y17441D01*
X465Y17424D01*
X482Y17408D01*
X502Y17395D01*
X523Y17385D01*
X545Y17378D01*
X567Y17373D01*
X591Y17372D01*
X614Y17373D01*
X636Y17378D01*
X649Y17382D01*
X670Y17358D01*
X678Y17340D01*
X143Y16805D01*
X96Y16824D01*
Y18513D01*
X108Y18521D01*
X125Y18536D01*
X141Y18554D01*
X153Y18573D01*
X164Y18594D01*
X171Y18616D01*
X176Y18638D01*
X177Y18661D01*
X176Y18685D01*
X171Y18707D01*
X164Y18729D01*
X153Y18750D01*
X141Y18769D01*
X125Y18787D01*
X125Y18787D01*
X120Y18801D01*
Y18837D01*
X125Y18851D01*
X125Y18851D01*
X141Y18868D01*
X153Y18888D01*
X164Y18909D01*
X171Y18931D01*
X176Y18953D01*
X177Y18976D01*
X176Y19000D01*
X171Y19022D01*
X164Y19044D01*
X153Y19065D01*
X141Y19084D01*
X125Y19102D01*
X125Y19102D01*
X120Y19115D01*
Y19152D01*
X125Y19166D01*
X125Y19166D01*
X141Y19183D01*
X153Y19203D01*
X164Y19224D01*
X171Y19245D01*
X176Y19268D01*
X177Y19291D01*
X176Y19314D01*
X171Y19337D01*
X164Y19359D01*
X153Y19380D01*
X141Y19399D01*
X125Y19417D01*
X125Y19417D01*
X120Y19430D01*
Y19467D01*
X125Y19481D01*
X125Y19481D01*
X141Y19498D01*
X153Y19518D01*
X164Y19538D01*
X171Y19560D01*
X176Y19583D01*
X177Y19606D01*
X176Y19629D01*
X171Y19652D01*
X164Y19674D01*
X153Y19695D01*
X141Y19714D01*
X125Y19732D01*
X125Y19732D01*
X120Y19745D01*
Y19782D01*
X125Y19796D01*
X125Y19796D01*
X141Y19813D01*
X153Y19833D01*
X164Y19853D01*
X171Y19875D01*
X176Y19898D01*
X177Y19921D01*
X176Y19944D01*
X171Y19967D01*
X164Y19989D01*
X153Y20010D01*
X141Y20029D01*
X125Y20047D01*
X108Y20062D01*
X96Y20070D01*
Y20689D01*
X112Y20726D01*
X140Y20754D01*
X177Y20770D01*
X197Y20770D01*
X9655D01*
X9663Y20758D01*
X9678Y20741D01*
X9695Y20726D01*
X9715Y20713D01*
X9735Y20702D01*
X9757Y20695D01*
X9780Y20690D01*
X9803Y20689D01*
X9826Y20690D01*
X9849Y20695D01*
X9871Y20702D01*
X9892Y20713D01*
X9911Y20726D01*
X9928Y20741D01*
X9929Y20741D01*
X9942Y20746D01*
X9979D01*
X9992Y20741D01*
X9993Y20741D01*
X10010Y20726D01*
X10029Y20713D01*
X10050Y20702D01*
X10072Y20695D01*
X10095Y20690D01*
X10118Y20689D01*
X10141Y20690D01*
X10164Y20695D01*
X10186Y20702D01*
X10207Y20713D01*
X10226Y20726D01*
X10243Y20741D01*
X10244Y20741D01*
X10257Y20746D01*
X10294D01*
X10307Y20741D01*
X10308Y20741D01*
X10325Y20726D01*
X10344Y20713D01*
X10365Y20702D01*
X10387Y20695D01*
X10410Y20690D01*
X10433Y20689D01*
X10456Y20690D01*
X10479Y20695D01*
X10501Y20702D01*
X10522Y20713D01*
X10541Y20726D01*
X10558Y20741D01*
X10559Y20741D01*
X10572Y20746D01*
X10609D01*
X10622Y20741D01*
X10623Y20741D01*
X10640Y20726D01*
X10659Y20713D01*
X10680Y20702D01*
X10702Y20695D01*
X10725Y20690D01*
X10748Y20689D01*
X10771Y20690D01*
X10794Y20695D01*
X10816Y20702D01*
X10837Y20713D01*
X10856Y20726D01*
X10873Y20741D01*
X10874Y20741D01*
X10887Y20746D01*
X10924D01*
X10937Y20741D01*
X10938Y20741D01*
X10955Y20726D01*
X10974Y20713D01*
X10995Y20702D01*
X11017Y20695D01*
X11040Y20690D01*
X11063Y20689D01*
X11086Y20690D01*
X11109Y20695D01*
X11131Y20702D01*
X11152Y20713D01*
X11171Y20726D01*
X11188Y20741D01*
X11204Y20758D01*
X11211Y20770D01*
X14075D01*
X14112Y20754D01*
D02*
G37*
G36*
X17008Y20770D02*
X20669D01*
X20689Y20770D01*
X20726Y20754D01*
X20754Y20726D01*
X20770Y20689D01*
X20770Y20669D01*
Y20070D01*
X20758Y20062D01*
X20741Y20047D01*
X20726Y20029D01*
X20713Y20010D01*
X20702Y19989D01*
X20695Y19967D01*
X20690Y19944D01*
X20689Y19921D01*
X20690Y19898D01*
X20695Y19875D01*
X20702Y19853D01*
X20713Y19833D01*
X20726Y19813D01*
X20741Y19796D01*
X20741Y19796D01*
X20746Y19782D01*
Y19745D01*
X20741Y19732D01*
X20741Y19732D01*
X20726Y19714D01*
X20713Y19695D01*
X20702Y19674D01*
X20695Y19652D01*
X20690Y19629D01*
X20689Y19606D01*
X20690Y19583D01*
X20695Y19560D01*
X20702Y19538D01*
X20713Y19518D01*
X20726Y19498D01*
X20741Y19481D01*
X20741Y19481D01*
X20746Y19467D01*
Y19430D01*
X20741Y19417D01*
X20741Y19417D01*
X20726Y19399D01*
X20713Y19380D01*
X20702Y19359D01*
X20695Y19337D01*
X20690Y19314D01*
X20689Y19291D01*
X20690Y19268D01*
X20695Y19245D01*
X20702Y19224D01*
X20713Y19203D01*
X20726Y19183D01*
X20741Y19166D01*
X20741Y19166D01*
X20746Y19152D01*
Y19115D01*
X20741Y19102D01*
X20741Y19102D01*
X20726Y19084D01*
X20713Y19065D01*
X20702Y19044D01*
X20695Y19022D01*
X20690Y19000D01*
X20689Y18976D01*
X20690Y18953D01*
X20695Y18931D01*
X20702Y18909D01*
X20713Y18888D01*
X20726Y18868D01*
X20741Y18851D01*
X20741Y18851D01*
X20746Y18837D01*
Y18801D01*
X20741Y18787D01*
X20741Y18787D01*
X20726Y18769D01*
X20713Y18750D01*
X20702Y18729D01*
X20695Y18707D01*
X20690Y18685D01*
X20689Y18661D01*
X20690Y18638D01*
X20695Y18616D01*
X20702Y18594D01*
X20713Y18573D01*
X20726Y18554D01*
X20741Y18536D01*
X20758Y18521D01*
X20770Y18513D01*
Y12128D01*
X20748Y12087D01*
X20720Y12087D01*
X20600D01*
Y11929D01*
X20400Y11929D01*
X20364Y11964D01*
X20364Y12244D01*
X18632D01*
Y10512D01*
X19734D01*
Y10118D01*
X20720D01*
X20748Y10118D01*
X20770Y10077D01*
Y2353D01*
X20758Y2345D01*
X20741Y2330D01*
X20726Y2313D01*
X20713Y2293D01*
X20702Y2273D01*
X20695Y2251D01*
X20690Y2228D01*
X20689Y2205D01*
X20690Y2182D01*
X20695Y2159D01*
X20702Y2137D01*
X20713Y2116D01*
X20726Y2097D01*
X20741Y2079D01*
X20741Y2079D01*
X20746Y2066D01*
Y2029D01*
X20741Y2015D01*
X20741Y2015D01*
X20726Y1998D01*
X20713Y1978D01*
X20702Y1958D01*
X20695Y1936D01*
X20690Y1913D01*
X20689Y1890D01*
X20690Y1867D01*
X20695Y1844D01*
X20702Y1822D01*
X20713Y1801D01*
X20726Y1782D01*
X20741Y1764D01*
X20741Y1764D01*
X20746Y1751D01*
Y1714D01*
X20741Y1700D01*
X20741Y1700D01*
X20726Y1683D01*
X20713Y1663D01*
X20702Y1643D01*
X20695Y1621D01*
X20690Y1598D01*
X20689Y1575D01*
X20690Y1552D01*
X20695Y1529D01*
X20702Y1507D01*
X20713Y1486D01*
X20726Y1467D01*
X20741Y1449D01*
X20741Y1449D01*
X20746Y1436D01*
Y1399D01*
X20741Y1385D01*
X20741Y1385D01*
X20726Y1368D01*
X20713Y1348D01*
X20702Y1328D01*
X20695Y1306D01*
X20690Y1283D01*
X20689Y1260D01*
X20690Y1237D01*
X20695Y1214D01*
X20702Y1192D01*
X20713Y1171D01*
X20726Y1152D01*
X20741Y1135D01*
X20741Y1134D01*
X20746Y1121D01*
Y1084D01*
X20741Y1071D01*
X20741Y1070D01*
X20726Y1053D01*
X20713Y1033D01*
X20702Y1013D01*
X20695Y991D01*
X20690Y968D01*
X20689Y945D01*
X20690Y922D01*
X20695Y899D01*
X20702Y877D01*
X20713Y856D01*
X20726Y837D01*
X20741Y820D01*
X20758Y804D01*
X20770Y797D01*
Y197D01*
X20770Y177D01*
X20754Y140D01*
X20726Y112D01*
X20689Y96D01*
X20669D01*
X16104D01*
X16063Y146D01*
Y266D01*
X15906D01*
X15906Y467D01*
X15941Y502D01*
X16220Y502D01*
Y2234D01*
X14488D01*
Y1132D01*
X14094D01*
Y146D01*
X14094Y118D01*
X14053Y96D01*
X11211Y96D01*
X11204Y108D01*
X11188Y125D01*
X11171Y141D01*
X11152Y153D01*
X11131Y164D01*
X11109Y171D01*
X11086Y176D01*
X11063Y177D01*
X11040Y176D01*
X11017Y171D01*
X10995Y164D01*
X10974Y153D01*
X10955Y141D01*
X10938Y125D01*
X10937Y125D01*
X10924Y120D01*
X10887D01*
X10874Y125D01*
X10873Y125D01*
X10856Y141D01*
X10837Y153D01*
X10816Y164D01*
X10794Y171D01*
X10771Y176D01*
X10748Y177D01*
X10725Y176D01*
X10702Y171D01*
X10680Y164D01*
X10659Y153D01*
X10640Y141D01*
X10623Y125D01*
X10622Y125D01*
X10609Y120D01*
X10572D01*
X10559Y125D01*
X10558Y125D01*
X10541Y141D01*
X10522Y153D01*
X10501Y164D01*
X10479Y171D01*
X10456Y176D01*
X10433Y177D01*
X10410Y176D01*
X10387Y171D01*
X10365Y164D01*
X10344Y153D01*
X10325Y141D01*
X10308Y125D01*
X10307Y125D01*
X10294Y120D01*
X10257D01*
X10244Y125D01*
X10243Y125D01*
X10226Y141D01*
X10207Y153D01*
X10186Y164D01*
X10164Y171D01*
X10141Y176D01*
X10118Y177D01*
X10095Y176D01*
X10072Y171D01*
X10050Y164D01*
X10029Y153D01*
X10010Y141D01*
X9993Y125D01*
X9992Y125D01*
X9979Y120D01*
X9942D01*
X9929Y125D01*
X9928Y125D01*
X9911Y141D01*
X9892Y153D01*
X9871Y164D01*
X9849Y171D01*
X9826Y176D01*
X9803Y177D01*
X9780Y176D01*
X9757Y171D01*
X9735Y164D01*
X9715Y153D01*
X9695Y141D01*
X9678Y125D01*
X9663Y108D01*
X9655Y96D01*
X6693D01*
X6664Y96D01*
X6606Y108D01*
X6552Y130D01*
X6503Y163D01*
X6483Y183D01*
X6320Y346D01*
X6318Y348D01*
X6316Y350D01*
X6288Y376D01*
X6281Y379D01*
X6276Y384D01*
X6212Y427D01*
X6203Y431D01*
X6196Y436D01*
X6124Y466D01*
X6115Y468D01*
X6106Y471D01*
X6031Y486D01*
X6023D01*
X6016Y488D01*
X5978Y490D01*
X5975Y489D01*
X5973Y490D01*
X5693Y490D01*
X5677Y517D01*
X5672Y540D01*
X5682Y551D01*
X5695Y571D01*
X5705Y592D01*
X5713Y613D01*
X5717Y636D01*
X5719Y659D01*
X5717Y683D01*
X5713Y705D01*
X5705Y727D01*
X5695Y748D01*
X5682Y768D01*
X5667Y785D01*
X5649Y800D01*
X5630Y813D01*
X5609Y823D01*
X5587Y831D01*
X5565Y835D01*
X5541Y837D01*
X5518Y835D01*
X5495Y831D01*
X5473Y823D01*
X5453Y813D01*
X5433Y800D01*
X5416Y785D01*
X5400Y768D01*
X5388Y748D01*
X5377Y727D01*
X5370Y705D01*
X5365Y683D01*
X5364Y659D01*
X5365Y636D01*
X5370Y613D01*
X5377Y592D01*
X5388Y571D01*
X5400Y551D01*
X5410Y540D01*
X5406Y517D01*
X5390Y490D01*
X3484Y490D01*
X3482Y490D01*
X3480Y490D01*
X3441Y488D01*
X3434Y486D01*
X3427D01*
X3351Y471D01*
X3342Y468D01*
X3333Y466D01*
X3262Y436D01*
X3254Y431D01*
X3245Y427D01*
X3181Y384D01*
X3176Y379D01*
X3170Y376D01*
X3141Y350D01*
X3140Y348D01*
X3138Y347D01*
X2975Y184D01*
X2954Y163D01*
X2905Y130D01*
X2851Y108D01*
X2794Y96D01*
X2764D01*
X2764Y96D01*
X2764Y96D01*
X2755Y96D01*
X177D01*
X140Y112D01*
X112Y140D01*
X96Y177D01*
Y797D01*
X108Y804D01*
X125Y820D01*
X141Y837D01*
X153Y856D01*
X164Y877D01*
X171Y899D01*
X176Y922D01*
X177Y945D01*
X176Y968D01*
X171Y991D01*
X164Y1013D01*
X153Y1033D01*
X141Y1053D01*
X125Y1070D01*
X125Y1071D01*
X120Y1084D01*
Y1121D01*
X125Y1134D01*
X125Y1135D01*
X141Y1152D01*
X153Y1171D01*
X164Y1192D01*
X171Y1214D01*
X176Y1237D01*
X177Y1260D01*
X176Y1283D01*
X171Y1306D01*
X164Y1328D01*
X153Y1348D01*
X141Y1368D01*
X125Y1385D01*
X125Y1385D01*
X120Y1399D01*
Y1436D01*
X125Y1449D01*
X125Y1449D01*
X141Y1467D01*
X153Y1486D01*
X164Y1507D01*
X171Y1529D01*
X176Y1552D01*
X177Y1575D01*
X176Y1598D01*
X171Y1621D01*
X164Y1643D01*
X153Y1663D01*
X141Y1683D01*
X125Y1700D01*
X125Y1700D01*
X120Y1714D01*
Y1751D01*
X125Y1764D01*
X125Y1764D01*
X141Y1782D01*
X153Y1801D01*
X164Y1822D01*
X171Y1844D01*
X176Y1867D01*
X177Y1890D01*
X176Y1913D01*
X171Y1936D01*
X164Y1958D01*
X153Y1978D01*
X141Y1998D01*
X125Y2015D01*
X125Y2015D01*
X120Y2029D01*
Y2066D01*
X125Y2079D01*
X125Y2079D01*
X141Y2097D01*
X153Y2116D01*
X164Y2137D01*
X171Y2159D01*
X176Y2182D01*
X177Y2205D01*
X176Y2228D01*
X171Y2251D01*
X164Y2273D01*
X153Y2293D01*
X141Y2313D01*
X125Y2330D01*
X108Y2345D01*
X96Y2353D01*
Y3110D01*
X96Y3130D01*
X112Y3167D01*
X140Y3195D01*
X177Y3211D01*
X417D01*
X422Y3212D01*
X427Y3211D01*
X465Y3215D01*
X479Y3219D01*
X493Y3222D01*
X564Y3251D01*
X595Y3272D01*
X595Y3272D01*
X649Y3326D01*
X670Y3358D01*
X699Y3429D01*
X702Y3443D01*
X706Y3456D01*
X710Y3494D01*
X710Y3499D01*
X711Y3504D01*
X711Y4134D01*
X710Y4139D01*
X710Y4143D01*
X706Y4182D01*
X702Y4195D01*
X699Y4209D01*
X670Y4280D01*
X649Y4311D01*
X649Y4311D01*
X595Y4366D01*
X564Y4387D01*
X493Y4416D01*
X479Y4419D01*
X465Y4423D01*
X427Y4427D01*
X422Y4426D01*
X417Y4427D01*
X177D01*
X140Y4442D01*
X112Y4471D01*
X96Y4508D01*
Y6613D01*
X138Y6634D01*
X1004D01*
Y6521D01*
X1005Y6500D01*
X1009Y6480D01*
X1016Y6461D01*
X1025Y6442D01*
X1036Y6425D01*
X1050Y6409D01*
X2382Y5078D01*
X2361Y5028D01*
X2087D01*
Y4799D01*
X2037D01*
Y4749D01*
X1559D01*
Y4571D01*
X1559D01*
Y4528D01*
X1559D01*
Y4071D01*
X1559D01*
Y4028D01*
X1559D01*
Y3849D01*
X2037D01*
Y3749D01*
X1559D01*
Y3571D01*
X1559D01*
Y3528D01*
X1559D01*
Y3349D01*
X2037D01*
Y3249D01*
X1559D01*
Y3071D01*
X1559Y3071D01*
Y3028D01*
X1559D01*
X1559Y3021D01*
Y2571D01*
X2516D01*
Y2626D01*
X2520Y2630D01*
X2566Y2648D01*
X2569Y2645D01*
X2588Y2632D01*
X2609Y2621D01*
X2614Y2620D01*
X2622Y2608D01*
X2632Y2595D01*
X2725Y2502D01*
X2737Y2492D01*
X2751Y2483D01*
X2766Y2477D01*
X2782Y2473D01*
X2798Y2472D01*
X3083D01*
X4467Y1088D01*
X4479Y1078D01*
X4493Y1069D01*
X4508Y1063D01*
X4524Y1059D01*
X4540Y1058D01*
X7095D01*
X7346Y808D01*
X7358Y797D01*
X7372Y789D01*
X7387Y782D01*
X7403Y779D01*
X7419Y777D01*
X8349D01*
X8365Y779D01*
X8381Y782D01*
X8396Y789D01*
X8410Y797D01*
X8422Y808D01*
X8672Y1058D01*
X11142D01*
X11158Y1059D01*
X11174Y1063D01*
X11189Y1069D01*
X11203Y1078D01*
X11215Y1088D01*
X11619Y1492D01*
X11629Y1504D01*
X11638Y1518D01*
X11644Y1533D01*
X11648Y1549D01*
X11649Y1565D01*
Y2214D01*
X11653Y2221D01*
X11695Y2249D01*
X11699Y2249D01*
X11719Y2245D01*
X11742Y2244D01*
X11765Y2245D01*
X11788Y2250D01*
X11810Y2257D01*
X11831Y2268D01*
X11850Y2280D01*
X11868Y2296D01*
X11883Y2313D01*
X11896Y2332D01*
X11906Y2353D01*
X11914Y2375D01*
X11918Y2398D01*
X11920Y2421D01*
X11957Y2463D01*
X11962Y2465D01*
X18250D01*
X18266Y2467D01*
X18282Y2470D01*
X18297Y2477D01*
X18311Y2485D01*
X18323Y2496D01*
X19915Y4087D01*
X19920Y4086D01*
X19944Y4085D01*
X19967Y4086D01*
X19990Y4091D01*
X20012Y4098D01*
X20032Y4109D01*
X20052Y4122D01*
X20069Y4137D01*
X20085Y4154D01*
X20097Y4174D01*
X20108Y4194D01*
X20115Y4216D01*
X20120Y4239D01*
X20121Y4262D01*
X20120Y4286D01*
X20115Y4308D01*
X20108Y4330D01*
X20097Y4351D01*
X20085Y4371D01*
X20069Y4388D01*
X20052Y4403D01*
X20032Y4416D01*
X20012Y4426D01*
X19990Y4434D01*
X19967Y4438D01*
X19944Y4440D01*
X19920Y4438D01*
X19898Y4434D01*
X19876Y4426D01*
X19855Y4416D01*
X19836Y4403D01*
X19818Y4388D01*
X19803Y4371D01*
X19790Y4351D01*
X19780Y4330D01*
X19772Y4308D01*
X19768Y4286D01*
X19766Y4262D01*
X19768Y4239D01*
X19769Y4234D01*
X19376Y3842D01*
X19330Y3861D01*
Y5037D01*
X19334Y5040D01*
X19352Y5056D01*
X19367Y5073D01*
X19380Y5092D01*
X19390Y5113D01*
X19398Y5135D01*
X19402Y5158D01*
X19404Y5181D01*
X19402Y5204D01*
X19398Y5227D01*
X19390Y5249D01*
X19380Y5270D01*
X19367Y5289D01*
X19352Y5307D01*
X19334Y5322D01*
X19315Y5335D01*
X19294Y5345D01*
X19272Y5353D01*
X19250Y5357D01*
X19226Y5359D01*
X19208Y5357D01*
X19201Y5359D01*
X19162Y5390D01*
X19158Y5398D01*
Y5610D01*
X19162Y5618D01*
X19201Y5649D01*
X19208Y5650D01*
X19226Y5649D01*
X19250Y5651D01*
X19272Y5655D01*
X19294Y5663D01*
X19315Y5673D01*
X19334Y5686D01*
X19352Y5701D01*
X19367Y5719D01*
X19380Y5738D01*
X19390Y5759D01*
X19398Y5781D01*
X19402Y5804D01*
X19404Y5827D01*
X19402Y5850D01*
X19401Y5855D01*
X19492Y5945D01*
X19502Y5958D01*
X19511Y5972D01*
X19517Y5987D01*
X19521Y6002D01*
X19522Y6019D01*
Y6331D01*
X19521Y6347D01*
X19517Y6363D01*
X19511Y6378D01*
X19502Y6392D01*
X19492Y6405D01*
X19090Y6806D01*
Y8047D01*
X19867D01*
X20016Y7897D01*
Y6839D01*
X20018Y6822D01*
X20021Y6807D01*
X20028Y6792D01*
X20036Y6778D01*
X20047Y6765D01*
X20217Y6595D01*
Y5042D01*
X20212Y5040D01*
X20193Y5027D01*
X20176Y5011D01*
X20160Y4994D01*
X20147Y4975D01*
X20137Y4954D01*
X20130Y4932D01*
X20125Y4909D01*
X20124Y4886D01*
X20125Y4863D01*
X20130Y4840D01*
X20137Y4818D01*
X20147Y4797D01*
X20160Y4778D01*
X20176Y4760D01*
X20193Y4745D01*
X20212Y4732D01*
X20233Y4722D01*
X20255Y4714D01*
X20278Y4710D01*
X20301Y4708D01*
X20324Y4710D01*
X20347Y4714D01*
X20369Y4722D01*
X20390Y4732D01*
X20409Y4745D01*
X20427Y4760D01*
X20442Y4778D01*
X20455Y4797D01*
X20465Y4818D01*
X20473Y4840D01*
X20477Y4863D01*
X20479Y4886D01*
X20477Y4909D01*
X20473Y4932D01*
X20465Y4954D01*
X20455Y4975D01*
X20442Y4994D01*
X20427Y5011D01*
X20425Y5013D01*
Y6638D01*
X20423Y6654D01*
X20419Y6670D01*
X20413Y6685D01*
X20405Y6699D01*
X20394Y6711D01*
X20378Y6727D01*
X20376Y6733D01*
X20384Y6781D01*
X20388Y6788D01*
X20403Y6798D01*
X20421Y6813D01*
X20436Y6831D01*
X20449Y6850D01*
X20459Y6871D01*
X20467Y6893D01*
X20471Y6916D01*
X20473Y6939D01*
X20471Y6962D01*
X20467Y6985D01*
X20459Y7007D01*
X20449Y7028D01*
X20436Y7047D01*
X20433Y7050D01*
Y7953D01*
X20432Y7971D01*
X20429Y7988D01*
X20423Y8006D01*
X20415Y8022D01*
X20405Y8037D01*
X20393Y8050D01*
X20226Y8218D01*
X20226Y8218D01*
X20226Y8218D01*
X20047Y8396D01*
X20034Y8408D01*
X20019Y8418D01*
X20002Y8426D01*
X19985Y8432D01*
X19968Y8435D01*
X19950Y8436D01*
X19166D01*
X18958Y8644D01*
Y9827D01*
X18957Y9845D01*
X18953Y9863D01*
X18948Y9880D01*
X18940Y9896D01*
X18930Y9911D01*
X18918Y9925D01*
X18275Y10568D01*
X18261Y10580D01*
X18246Y10590D01*
X18230Y10598D01*
X18213Y10603D01*
X18195Y10607D01*
X18177Y10608D01*
X15542D01*
X15381Y10769D01*
X15381Y10769D01*
X13690Y12460D01*
X13677Y12472D01*
X13662Y12482D01*
X13645Y12490D01*
X13628Y12496D01*
X13611Y12499D01*
X13593Y12500D01*
X10687D01*
X10255Y12933D01*
X10259Y12960D01*
X10273Y12985D01*
X10290Y12987D01*
X10316Y12994D01*
X10342Y13003D01*
X10366Y13015D01*
X10390Y13028D01*
X10411Y13045D01*
X10431Y13063D01*
X10450Y13083D01*
X10466Y13105D01*
X10480Y13128D01*
X10491Y13152D01*
X10500Y13178D01*
X10507Y13204D01*
X10511Y13231D01*
X10512Y13258D01*
X10511Y13285D01*
X10507Y13312D01*
X10500Y13338D01*
X10491Y13363D01*
X10480Y13388D01*
X10466Y13411D01*
X10450Y13433D01*
X10440Y13443D01*
X10575Y13578D01*
X10586Y13591D01*
X10594Y13605D01*
X10601Y13620D01*
X10604Y13635D01*
X10606Y13652D01*
Y13852D01*
X10610Y13855D01*
X10628Y13871D01*
X10643Y13888D01*
X10643Y13889D01*
X10651Y13894D01*
X10701Y13906D01*
X10704Y13906D01*
X10724Y13896D01*
X10746Y13889D01*
X10769Y13884D01*
X10787Y13883D01*
X10798Y13867D01*
X10805Y13849D01*
X10807Y13833D01*
X10794Y13819D01*
X10781Y13799D01*
X10771Y13779D01*
X10764Y13757D01*
X10759Y13734D01*
X10757Y13711D01*
X10759Y13687D01*
X10764Y13665D01*
X10771Y13643D01*
X10781Y13622D01*
X10794Y13603D01*
X10810Y13585D01*
X10827Y13570D01*
X10846Y13557D01*
X10867Y13547D01*
X10871Y13545D01*
X10873Y13542D01*
X10878Y13495D01*
X10877Y13491D01*
X10870Y13487D01*
X10849Y13471D01*
X10829Y13453D01*
X10810Y13433D01*
X10794Y13411D01*
X10780Y13388D01*
X10769Y13363D01*
X10760Y13338D01*
X10753Y13312D01*
X10749Y13285D01*
X10748Y13258D01*
X10749Y13231D01*
X10753Y13204D01*
X10760Y13178D01*
X10769Y13152D01*
X10780Y13128D01*
X10794Y13105D01*
X10810Y13083D01*
X10829Y13063D01*
X10849Y13045D01*
X10870Y13028D01*
X10894Y13015D01*
X10918Y13003D01*
X10944Y12994D01*
X10970Y12987D01*
X10997Y12983D01*
X11024Y12982D01*
X11051Y12983D01*
X11077Y12987D01*
X11104Y12994D01*
X11129Y13003D01*
X11154Y13015D01*
X11177Y13028D01*
X11199Y13045D01*
X11219Y13063D01*
X11237Y13083D01*
X11253Y13105D01*
X11267Y13128D01*
X11279Y13152D01*
X11288Y13178D01*
X11294Y13204D01*
X11301Y13233D01*
X11329Y13248D01*
X11352Y13249D01*
X11375Y13254D01*
X11397Y13261D01*
X11418Y13271D01*
X11437Y13284D01*
X11454Y13300D01*
X11470Y13317D01*
X11516Y13302D01*
X11536Y13272D01*
X11535Y13258D01*
X11536Y13231D01*
X11540Y13204D01*
X11547Y13178D01*
X11556Y13152D01*
X11568Y13128D01*
X11582Y13105D01*
X11592Y13090D01*
X11598Y13079D01*
X11597Y13029D01*
X11582Y13012D01*
X11569Y12992D01*
X11558Y12971D01*
X11551Y12949D01*
X11546Y12927D01*
X11545Y12904D01*
X11546Y12880D01*
X11551Y12858D01*
X11558Y12836D01*
X11569Y12815D01*
X11582Y12795D01*
X11597Y12778D01*
X11614Y12763D01*
X11634Y12750D01*
X11654Y12740D01*
X11676Y12732D01*
X11699Y12728D01*
X11722Y12726D01*
X11746Y12728D01*
X11768Y12732D01*
X11790Y12740D01*
X11811Y12750D01*
X11831Y12763D01*
X11848Y12778D01*
X11854Y12785D01*
X11968D01*
X11987Y12787D01*
X12005Y12791D01*
X12022Y12798D01*
X12038Y12808D01*
X12052Y12820D01*
X12677Y13445D01*
X12915D01*
Y13209D01*
X13047D01*
Y13109D01*
X12915D01*
Y13022D01*
Y12954D01*
X13047D01*
Y12904D01*
X13097D01*
Y12766D01*
X13404D01*
Y12800D01*
X14144D01*
X14151Y12793D01*
X14170Y12750D01*
X14167Y12746D01*
X14157Y12725D01*
X14149Y12703D01*
X14145Y12681D01*
X14143Y12657D01*
X14145Y12634D01*
X14149Y12612D01*
X14157Y12590D01*
X14167Y12569D01*
X14180Y12549D01*
X14195Y12532D01*
X14213Y12517D01*
X14232Y12504D01*
X14253Y12493D01*
X14275Y12486D01*
X14298Y12481D01*
X14321Y12480D01*
X14344Y12481D01*
X14367Y12486D01*
X14389Y12493D01*
X14410Y12504D01*
X14429Y12517D01*
X14446Y12532D01*
X14462Y12549D01*
X14475Y12569D01*
X14485Y12590D01*
X14492Y12612D01*
X14497Y12634D01*
X14498Y12657D01*
X14497Y12681D01*
X14492Y12703D01*
X14485Y12725D01*
X14475Y12746D01*
X14462Y12766D01*
X14449Y12781D01*
X14462Y12795D01*
X14475Y12815D01*
X14485Y12836D01*
X14492Y12858D01*
X14497Y12880D01*
X14498Y12904D01*
X14497Y12927D01*
X14494Y12942D01*
X15260Y13709D01*
X15271Y13721D01*
X15279Y13735D01*
X15286Y13750D01*
X15289Y13766D01*
X15291Y13782D01*
Y16752D01*
X15289Y16768D01*
X15286Y16784D01*
X15279Y16799D01*
X15271Y16813D01*
X15260Y16825D01*
X14315Y17770D01*
X14303Y17781D01*
X14289Y17789D01*
X14274Y17795D01*
X14258Y17799D01*
X14242Y17801D01*
X13307D01*
Y17972D01*
X13738D01*
Y17994D01*
X14824D01*
X14951Y17866D01*
X14950Y17854D01*
X14952Y17831D01*
X14956Y17808D01*
X14964Y17786D01*
X14974Y17766D01*
X14987Y17746D01*
X15002Y17729D01*
X15020Y17713D01*
X15039Y17701D01*
X15060Y17690D01*
X15082Y17683D01*
X15105Y17678D01*
X15128Y17677D01*
X15151Y17678D01*
X15174Y17683D01*
X15196Y17690D01*
X15217Y17701D01*
X15236Y17713D01*
X15253Y17729D01*
X15269Y17746D01*
X15282Y17766D01*
X15292Y17786D01*
X15299Y17808D01*
X15304Y17831D01*
X15306Y17854D01*
X15304Y17878D01*
X15299Y17900D01*
X15292Y17922D01*
X15282Y17943D01*
X15269Y17962D01*
X15253Y17980D01*
X15236Y17995D01*
X15217Y18008D01*
X15196Y18018D01*
X15174Y18026D01*
X15151Y18030D01*
X15128Y18032D01*
X15116Y18031D01*
X15054Y18093D01*
X15073Y18139D01*
X15526D01*
X15799Y17866D01*
X15812Y17855D01*
X15827Y17846D01*
X15842Y17840D01*
X15859Y17836D01*
X15876Y17834D01*
X15972D01*
X15987Y17817D01*
X16004Y17802D01*
X16023Y17789D01*
X16044Y17779D01*
X16066Y17771D01*
X16089Y17767D01*
X16112Y17765D01*
X16135Y17767D01*
X16158Y17771D01*
X16180Y17779D01*
X16201Y17789D01*
X16220Y17802D01*
X16238Y17817D01*
X16253Y17835D01*
X16266Y17854D01*
X16276Y17875D01*
X16284Y17897D01*
X16288Y17920D01*
X16290Y17943D01*
X16288Y17966D01*
X16284Y17989D01*
X16276Y18011D01*
X16266Y18032D01*
X16253Y18051D01*
X16238Y18068D01*
X16220Y18084D01*
X16201Y18097D01*
X16180Y18107D01*
X16156Y18133D01*
X16160Y18156D01*
X16162Y18179D01*
X16160Y18202D01*
X16156Y18225D01*
X16148Y18247D01*
X16138Y18268D01*
X16125Y18287D01*
X16110Y18305D01*
X16092Y18320D01*
X16073Y18333D01*
X16052Y18343D01*
X16030Y18351D01*
X16007Y18355D01*
X15984Y18357D01*
X15961Y18355D01*
X15938Y18351D01*
X15916Y18343D01*
X15895Y18333D01*
X15876Y18320D01*
X15859Y18305D01*
X15843Y18287D01*
X15830Y18268D01*
X15820Y18247D01*
X15814Y18229D01*
X15802Y18223D01*
X15759Y18213D01*
X15668Y18304D01*
X15905Y18541D01*
X15916Y18554D01*
X15925Y18568D01*
X15931Y18584D01*
X15935Y18601D01*
X15937Y18618D01*
Y19020D01*
X16512D01*
X16539Y19009D01*
X16576Y19002D01*
X16653D01*
X16689Y19009D01*
X16760Y19039D01*
X16792Y19060D01*
X16792Y19060D01*
X16846Y19114D01*
X16867Y19145D01*
X16896Y19216D01*
X16899Y19230D01*
X16903Y19243D01*
X16907Y19282D01*
X16906Y19287D01*
X16907Y19291D01*
Y20689D01*
X16923Y20726D01*
X16951Y20755D01*
X16988Y20770D01*
X17008Y20770D01*
D02*
G37*
G36*
X7679Y19146D02*
X7703Y19103D01*
X7703Y19101D01*
X7698Y19078D01*
X7696Y19055D01*
X7698Y19032D01*
X7703Y19009D01*
X7710Y18987D01*
X7720Y18966D01*
X7733Y18947D01*
X7748Y18930D01*
X7766Y18914D01*
X7785Y18901D01*
X7806Y18891D01*
X7828Y18884D01*
X7851Y18879D01*
X7874Y18878D01*
X8634D01*
X8828Y18684D01*
X8845Y18668D01*
X8864Y18655D01*
X8885Y18645D01*
X8907Y18638D01*
X8930Y18633D01*
X8953Y18632D01*
X9313D01*
X9421Y18523D01*
X9398Y18481D01*
X9395Y18479D01*
X9374Y18483D01*
X9350Y18485D01*
X9327Y18483D01*
X9304Y18479D01*
X9282Y18471D01*
X9262Y18461D01*
X9237Y18453D01*
X9203Y18480D01*
X9197Y18487D01*
X9192Y18492D01*
X9187Y18497D01*
X9161Y18519D01*
X9156Y18523D01*
X9150Y18527D01*
X9120Y18544D01*
X9114Y18547D01*
X9108Y18550D01*
X9076Y18562D01*
X9069Y18564D01*
X9063Y18566D01*
X9046Y18569D01*
X9046Y18569D01*
X9039Y18570D01*
X9037Y18570D01*
X9036Y18570D01*
X9030Y18571D01*
X9024Y18571D01*
X9022Y18571D01*
X9020Y18571D01*
X9014Y18570D01*
X9008Y18569D01*
X9007Y18569D01*
X9005Y18569D01*
X8992Y18565D01*
X8990Y18565D01*
X8989Y18564D01*
X8983Y18562D01*
X8977Y18560D01*
X8976Y18559D01*
X8974Y18558D01*
X8969Y18555D01*
X8964Y18552D01*
X8963Y18550D01*
X8961Y18549D01*
X8957Y18546D01*
X8952Y18549D01*
X8951Y18550D01*
X8949Y18552D01*
X8944Y18555D01*
X8939Y18558D01*
X8938Y18559D01*
X8936Y18560D01*
X8930Y18562D01*
X8925Y18564D01*
X8923Y18565D01*
X8921Y18565D01*
X8909Y18569D01*
X8907Y18569D01*
X8905Y18569D01*
X8899Y18570D01*
X8893Y18571D01*
X8891Y18571D01*
X8890Y18571D01*
X8884Y18571D01*
X8878Y18570D01*
X8876Y18570D01*
X8874Y18570D01*
X8868Y18569D01*
X8851Y18566D01*
X8844Y18564D01*
X8837Y18562D01*
X8805Y18550D01*
X8799Y18547D01*
X8793Y18544D01*
X8763Y18527D01*
X8758Y18523D01*
X8752Y18519D01*
X8726Y18497D01*
X8721Y18492D01*
X8716Y18487D01*
X8694Y18461D01*
X8690Y18455D01*
X8687Y18449D01*
X8669Y18420D01*
X8667Y18413D01*
X8664Y18407D01*
X8652Y18375D01*
X8650Y18368D01*
X8648Y18362D01*
X8647Y18356D01*
X8597Y18356D01*
X8596Y18362D01*
X8594Y18368D01*
X8592Y18375D01*
X8580Y18407D01*
X8577Y18414D01*
X8575Y18420D01*
X8558Y18449D01*
X8554Y18455D01*
X8550Y18461D01*
X8528Y18487D01*
X8523Y18492D01*
X8518Y18497D01*
X8492Y18519D01*
X8486Y18523D01*
X8481Y18527D01*
X8451Y18544D01*
X8445Y18547D01*
X8439Y18550D01*
X8407Y18562D01*
X8400Y18564D01*
X8393Y18566D01*
X8377Y18569D01*
X8377Y18569D01*
X8370Y18570D01*
X8368Y18570D01*
X8366Y18570D01*
X8360Y18571D01*
X8355Y18571D01*
X8353Y18571D01*
X8351Y18571D01*
X8345Y18570D01*
X8339Y18569D01*
X8337Y18569D01*
X8336Y18569D01*
X8323Y18565D01*
X8321Y18565D01*
X8319Y18564D01*
X8314Y18562D01*
X8308Y18560D01*
X8307Y18559D01*
X8305Y18558D01*
X8300Y18555D01*
X8295Y18552D01*
X8294Y18550D01*
X8292Y18549D01*
X8287Y18546D01*
X8283Y18549D01*
X8281Y18550D01*
X8280Y18552D01*
X8275Y18555D01*
X8270Y18558D01*
X8268Y18559D01*
X8267Y18560D01*
X8261Y18562D01*
X8256Y18564D01*
X8254Y18565D01*
X8252Y18565D01*
X8239Y18569D01*
X8237Y18569D01*
X8236Y18569D01*
X8230Y18570D01*
X8224Y18571D01*
X8222Y18571D01*
X8220Y18571D01*
X8214Y18571D01*
X8208Y18570D01*
X8207Y18570D01*
X8205Y18570D01*
X8198Y18569D01*
X8181Y18566D01*
X8175Y18564D01*
X8168Y18562D01*
X8136Y18550D01*
X8130Y18547D01*
X8124Y18544D01*
X8094Y18527D01*
X8088Y18523D01*
X8083Y18519D01*
X8057Y18497D01*
X8052Y18492D01*
X8047Y18487D01*
X8025Y18461D01*
X8021Y18455D01*
X8017Y18449D01*
X8000Y18420D01*
X7997Y18413D01*
X7994Y18407D01*
X7992Y18400D01*
X7990Y18400D01*
X7974Y18396D01*
X7959Y18390D01*
X7945Y18381D01*
X7936Y18373D01*
X7927Y18375D01*
X7904Y18376D01*
X7880Y18375D01*
X7858Y18370D01*
X7836Y18363D01*
X7815Y18353D01*
X7795Y18340D01*
X7778Y18324D01*
X7763Y18307D01*
X7750Y18288D01*
X7740Y18267D01*
X7732Y18245D01*
X7728Y18222D01*
X7726Y18199D01*
X7728Y18176D01*
X7732Y18153D01*
X7740Y18131D01*
X7750Y18110D01*
X7763Y18091D01*
X7778Y18073D01*
X7795Y18058D01*
X7815Y18045D01*
X7836Y18035D01*
X7858Y18027D01*
X7880Y18023D01*
X7904Y18021D01*
X7927Y18023D01*
X7949Y18027D01*
X7971Y18035D01*
X7992Y18045D01*
X8012Y18058D01*
X8029Y18073D01*
X8047Y18089D01*
X8084Y18074D01*
X8091Y18070D01*
X8094Y18068D01*
X8124Y18050D01*
X8130Y18047D01*
X8136Y18044D01*
X8168Y18033D01*
X8175Y18031D01*
X8181Y18029D01*
X8198Y18026D01*
X8198Y18026D01*
X8205Y18025D01*
X8207Y18024D01*
X8208Y18024D01*
X8214Y18024D01*
X8220Y18023D01*
X8222Y18024D01*
X8224Y18023D01*
X8230Y18024D01*
X8236Y18025D01*
X8237Y18026D01*
X8239Y18026D01*
X8252Y18029D01*
X8254Y18030D01*
X8256Y18030D01*
X8257Y18031D01*
X8281Y18022D01*
X8293Y18016D01*
X8298Y18012D01*
X8307Y18001D01*
Y17941D01*
X8259D01*
Y17809D01*
X8209D01*
Y17759D01*
X8071D01*
Y17453D01*
X8076D01*
X8080Y17434D01*
X8034Y17409D01*
X7884Y17560D01*
X7884Y17569D01*
X7883Y17592D01*
X7878Y17615D01*
X7871Y17637D01*
X7860Y17658D01*
X7848Y17677D01*
X7832Y17694D01*
X7815Y17710D01*
X7795Y17723D01*
X7775Y17733D01*
X7753Y17740D01*
X7730Y17745D01*
X7707Y17746D01*
X7684Y17745D01*
X7668Y17742D01*
X7650Y17750D01*
X7639Y17759D01*
X7480D01*
X7343D01*
Y17669D01*
X7296Y17650D01*
X7076Y17870D01*
X7095Y17917D01*
X7343D01*
Y17859D01*
X7430D01*
Y17941D01*
X7372D01*
Y18546D01*
X7148D01*
X7144Y18596D01*
X7152Y18598D01*
X7174Y18606D01*
X7195Y18616D01*
X7214Y18629D01*
X7232Y18644D01*
X7247Y18662D01*
X7260Y18681D01*
X7270Y18702D01*
X7278Y18724D01*
X7282Y18747D01*
X7284Y18770D01*
X7282Y18793D01*
X7278Y18816D01*
X7270Y18838D01*
X7260Y18858D01*
X7247Y18878D01*
X7232Y18895D01*
X7214Y18911D01*
X7195Y18923D01*
X7174Y18934D01*
X7166Y18936D01*
X7152Y18973D01*
X7152Y18992D01*
X7312Y19153D01*
X7669D01*
X7679Y19146D01*
D02*
G37*
G36*
X7177Y19497D02*
X7171Y19495D01*
X7150Y19484D01*
X7131Y19472D01*
X7113Y19456D01*
X6122Y18465D01*
X5055D01*
X5042Y18481D01*
X5030Y18515D01*
X5036Y18523D01*
X5046Y18544D01*
X5053Y18566D01*
X5058Y18589D01*
X5059Y18612D01*
X5059Y18615D01*
X5088Y18655D01*
X5103Y18665D01*
X5797D01*
Y18704D01*
X5928D01*
X5949Y18705D01*
X5969Y18709D01*
X5989Y18716D01*
X6007Y18725D01*
X6024Y18736D01*
X6040Y18750D01*
X6214Y18924D01*
X6228Y18939D01*
X6239Y18957D01*
X6248Y18975D01*
X6255Y18995D01*
X6259Y19015D01*
X6260Y19035D01*
Y19211D01*
X6266Y19223D01*
X6274Y19245D01*
X6278Y19268D01*
X6280Y19291D01*
X6278Y19315D01*
X6274Y19337D01*
X6266Y19359D01*
X6256Y19380D01*
X6243Y19399D01*
X6228Y19417D01*
X6210Y19432D01*
X6191Y19445D01*
X6170Y19455D01*
X6169Y19456D01*
X6153Y19503D01*
X6155Y19513D01*
X6189Y19547D01*
X7169D01*
X7177Y19497D01*
D02*
G37*
G36*
X9006Y18258D02*
X8907D01*
Y18337D01*
X9006D01*
Y18258D01*
D02*
G37*
G36*
X8337D02*
X8238D01*
Y18337D01*
X8337D01*
Y18258D01*
D02*
G37*
G36*
X9461Y18165D02*
X9507Y18143D01*
Y16941D01*
X9458Y16923D01*
X9444Y16932D01*
X9429Y16939D01*
X9413Y16945D01*
X9397Y16948D01*
X9380Y16949D01*
X8917Y16949D01*
X8901Y16948D01*
X8884Y16945D01*
X8868Y16939D01*
X8853Y16932D01*
X8847Y16928D01*
X8834Y16928D01*
X8823Y16931D01*
X8797Y16943D01*
X8782Y16993D01*
X8783Y16993D01*
X9129Y17339D01*
X9140Y17352D01*
X9149Y17367D01*
X9155Y17382D01*
X9159Y17399D01*
X9160Y17416D01*
Y17416D01*
X9163Y17418D01*
X9181Y17434D01*
X9196Y17451D01*
X9209Y17470D01*
X9219Y17491D01*
X9227Y17513D01*
X9231Y17536D01*
X9233Y17559D01*
X9231Y17582D01*
X9227Y17605D01*
X9219Y17627D01*
X9209Y17648D01*
X9196Y17667D01*
X9181Y17685D01*
X9163Y17700D01*
X9144Y17713D01*
X9123Y17723D01*
X9101Y17731D01*
X9078Y17735D01*
X9055Y17737D01*
X9032Y17735D01*
X9009Y17731D01*
X8997Y17726D01*
X8969Y17739D01*
X8947Y17759D01*
Y17848D01*
X8809D01*
Y17948D01*
X8947D01*
Y17995D01*
X8954Y18006D01*
X8956Y18008D01*
X8957Y18009D01*
X8980Y18023D01*
X8984Y18025D01*
X8997Y18028D01*
X9005Y18026D01*
X9007Y18026D01*
X9008Y18025D01*
X9014Y18024D01*
X9020Y18023D01*
X9022Y18024D01*
X9024Y18023D01*
X9030Y18024D01*
X9036Y18024D01*
X9037Y18024D01*
X9039Y18025D01*
X9046Y18026D01*
X9063Y18029D01*
X9069Y18031D01*
X9076Y18033D01*
X9108Y18044D01*
X9114Y18047D01*
X9120Y18050D01*
X9150Y18068D01*
X9156Y18072D01*
X9161Y18076D01*
X9187Y18098D01*
X9192Y18103D01*
X9197Y18107D01*
X9219Y18134D01*
X9227Y18145D01*
X9262Y18153D01*
X9282Y18143D01*
X9304Y18136D01*
X9327Y18131D01*
X9350Y18130D01*
X9374Y18131D01*
X9396Y18136D01*
X9418Y18143D01*
X9439Y18153D01*
X9457Y18166D01*
X9461Y18165D01*
D02*
G37*
G36*
X11553Y18496D02*
X11566Y18485D01*
X11580Y18476D01*
X11583Y18475D01*
X11752Y18306D01*
Y18191D01*
X11615Y18054D01*
X11592Y18056D01*
X11562Y18071D01*
X11561Y18077D01*
X11555Y18094D01*
X11547Y18110D01*
X11537Y18125D01*
X11536Y18126D01*
Y18204D01*
X11534Y18220D01*
X11531Y18236D01*
X11524Y18251D01*
X11516Y18265D01*
X11505Y18277D01*
X11439Y18343D01*
X11427Y18354D01*
X11413Y18362D01*
X11398Y18368D01*
X11390Y18370D01*
X11391Y18381D01*
X11389Y18400D01*
X11385Y18418D01*
X11378Y18435D01*
X11368Y18451D01*
X11356Y18465D01*
X11342Y18477D01*
X11326Y18487D01*
X11322Y18488D01*
Y18381D01*
X11222D01*
Y18488D01*
X11218Y18487D01*
X11202Y18477D01*
X11193Y18469D01*
X11183Y18465D01*
X11144D01*
X11129Y18493D01*
X11156Y18533D01*
X11179D01*
Y18700D01*
X11348D01*
X11553Y18496D01*
D02*
G37*
G36*
X3656Y17884D02*
X3658Y17883D01*
X3661Y17880D01*
Y17461D01*
X3242D01*
X3221Y17511D01*
X3598Y17887D01*
X3606Y17890D01*
X3656Y17884D01*
D02*
G37*
G36*
X12461Y17293D02*
X12893D01*
X12911Y17247D01*
X12911Y17243D01*
X12804Y17136D01*
X12520D01*
Y17136D01*
X12244D01*
X12216Y17174D01*
X12210Y17190D01*
X12201Y17204D01*
X12190Y17217D01*
X12089Y17318D01*
X12108Y17364D01*
X12244D01*
Y17293D01*
X12361D01*
Y17441D01*
X12461D01*
Y17293D01*
D02*
G37*
G36*
X14410Y17382D02*
X14409Y17362D01*
X14393Y17329D01*
X14383Y17327D01*
X14361Y17320D01*
X14340Y17309D01*
X14321Y17296D01*
X14304Y17281D01*
X14298Y17275D01*
X13738D01*
Y17298D01*
X13399D01*
X13382Y17330D01*
X13379Y17348D01*
X13387Y17357D01*
X13397Y17372D01*
X13405Y17388D01*
X13411Y17405D01*
X13414Y17423D01*
X13416Y17441D01*
X13414Y17459D01*
X13411Y17477D01*
X13405Y17494D01*
X13397Y17510D01*
X13387Y17525D01*
X13375Y17539D01*
X13370Y17543D01*
X13376Y17574D01*
X13388Y17593D01*
X14199D01*
X14410Y17382D01*
D02*
G37*
G36*
X15083Y16709D02*
Y16192D01*
X15037Y16172D01*
X14404Y16806D01*
X14392Y16816D01*
X14378Y16825D01*
X14363Y16831D01*
X14347Y16835D01*
X14331Y16836D01*
X13307D01*
Y17022D01*
X13738D01*
Y17036D01*
X14298D01*
X14304Y17030D01*
X14321Y17015D01*
X14340Y17002D01*
X14361Y16991D01*
X14383Y16984D01*
X14406Y16979D01*
X14429Y16978D01*
X14452Y16979D01*
X14475Y16984D01*
X14497Y16991D01*
X14518Y17002D01*
X14537Y17015D01*
X14555Y17030D01*
X14570Y17047D01*
X14583Y17067D01*
X14593Y17088D01*
X14601Y17110D01*
X14603Y17119D01*
X14636Y17135D01*
X14656Y17137D01*
X15083Y16709D01*
D02*
G37*
G36*
X6996Y17448D02*
X6977Y17402D01*
X6772D01*
Y17215D01*
X6998D01*
Y17115D01*
X6772D01*
Y16949D01*
X6772D01*
Y16763D01*
X6998D01*
X7224D01*
Y16929D01*
X7224D01*
Y17151D01*
X7268Y17169D01*
X7303Y17140D01*
Y16929D01*
Y16476D01*
Y16275D01*
X7268Y16246D01*
X7224Y16265D01*
Y16476D01*
Y16663D01*
X6998D01*
X6772D01*
Y16476D01*
Y16310D01*
X6998D01*
Y16210D01*
X6772D01*
Y16024D01*
X6982D01*
X7005Y15974D01*
X6992Y15955D01*
X6982Y15934D01*
X6974Y15912D01*
X6970Y15889D01*
X6968Y15866D01*
Y14903D01*
X6967Y14900D01*
X6935Y14874D01*
X6918Y14867D01*
X6903Y14870D01*
X6879Y14872D01*
X6856Y14870D01*
X6833Y14866D01*
X6811Y14858D01*
X6801Y14859D01*
X6801Y14859D01*
X6762Y14880D01*
Y15059D01*
X6762D01*
X6762Y15059D01*
Y15206D01*
X6585D01*
Y15256D01*
X6535D01*
Y15453D01*
X6532D01*
X6494Y15482D01*
Y15752D01*
X6499Y15758D01*
X6512Y15777D01*
X6522Y15798D01*
X6530Y15820D01*
X6534Y15843D01*
X6536Y15866D01*
X6534Y15889D01*
X6530Y15912D01*
X6522Y15934D01*
X6512Y15955D01*
X6499Y15974D01*
X6484Y15992D01*
X6466Y16007D01*
X6447Y16020D01*
X6426Y16030D01*
X6404Y16038D01*
X6381Y16042D01*
X6358Y16044D01*
X6335Y16042D01*
X6312Y16038D01*
X6290Y16030D01*
X6269Y16020D01*
X6250Y16007D01*
X6233Y15992D01*
X6217Y15974D01*
X6205Y15955D01*
X6194Y15934D01*
X6187Y15912D01*
X6182Y15889D01*
X6181Y15866D01*
X6182Y15843D01*
X6184Y15832D01*
X6111Y15758D01*
X6006D01*
Y15482D01*
X6034D01*
Y15339D01*
X6035Y15322D01*
X6039Y15307D01*
X6045Y15292D01*
X6046Y15290D01*
X6047Y15284D01*
X6014Y15241D01*
X6014D01*
Y15241D01*
X5973Y15200D01*
X5927Y15219D01*
Y15256D01*
X5853D01*
Y15177D01*
X5927D01*
Y15138D01*
X5848Y15059D01*
X5758Y15059D01*
Y15118D01*
X5753D01*
Y15273D01*
X5749Y15278D01*
X5741Y15306D01*
X5747Y15315D01*
X5756Y15333D01*
X5763Y15353D01*
X5767Y15373D01*
X5768Y15394D01*
Y16899D01*
X5798Y16924D01*
X5818Y16933D01*
X5833Y16930D01*
X5856Y16929D01*
X5879Y16930D01*
X5902Y16935D01*
X5924Y16942D01*
X5945Y16953D01*
X5964Y16965D01*
X5982Y16981D01*
X5997Y16998D01*
X6010Y17018D01*
X6020Y17038D01*
X6028Y17060D01*
X6032Y17083D01*
X6034Y17106D01*
Y17338D01*
X6366Y17670D01*
X6774D01*
X6996Y17448D01*
D02*
G37*
G36*
X11094Y17077D02*
X11094D01*
Y17028D01*
X11226D01*
Y16928D01*
X11094D01*
Y16866D01*
X10943D01*
Y17079D01*
X10945D01*
Y17148D01*
X11094D01*
Y17077D01*
D02*
G37*
G36*
X3842Y16428D02*
X3835Y16365D01*
X3822Y16357D01*
X3822Y16357D01*
X3799Y16359D01*
X3776Y16357D01*
X3753Y16353D01*
X3731Y16345D01*
X3719Y16339D01*
X3576D01*
X3553Y16337D01*
X3530Y16333D01*
X3508Y16325D01*
X3488Y16315D01*
X3468Y16302D01*
X3451Y16287D01*
X3265Y16101D01*
X2683D01*
X2664Y16147D01*
X3022Y16506D01*
X3765D01*
X3842Y16428D01*
D02*
G37*
G36*
X10244Y15760D02*
X10250Y15749D01*
Y15597D01*
X10683D01*
Y15390D01*
X10743D01*
Y15341D01*
X10744Y15324D01*
X10748Y15309D01*
X10749Y15306D01*
X10749Y15304D01*
X10753Y15288D01*
X10759Y15273D01*
X10768Y15259D01*
X10769Y15258D01*
X10764Y15243D01*
X10759Y15220D01*
X10757Y15197D01*
X10759Y15174D01*
X10764Y15151D01*
X10771Y15129D01*
X10781Y15108D01*
X10794Y15089D01*
X10810Y15071D01*
X10822Y15060D01*
X10821Y15043D01*
X10806Y15010D01*
X10401D01*
X10384Y15009D01*
X10368Y15005D01*
X10352Y14998D01*
X10337Y14989D01*
X10325Y14978D01*
X10287Y14941D01*
X10158D01*
X10150Y14945D01*
X10119Y14985D01*
X10117Y14991D01*
X10118Y15010D01*
X10117Y15033D01*
X10112Y15056D01*
X10105Y15078D01*
X10095Y15099D01*
X10082Y15118D01*
X10066Y15135D01*
X10049Y15151D01*
X10030Y15164D01*
X10009Y15174D01*
X9987Y15181D01*
X9964Y15186D01*
X9941Y15187D01*
X9918Y15186D01*
X9895Y15181D01*
X9873Y15174D01*
X9852Y15164D01*
X9851Y15163D01*
X9819Y15173D01*
X9809Y15216D01*
X9811Y15229D01*
X10057Y15475D01*
X10072Y15492D01*
X10085Y15512D01*
X10095Y15532D01*
X10103Y15554D01*
X10107Y15577D01*
X10109Y15600D01*
Y15748D01*
X10113Y15756D01*
X10152Y15787D01*
X10159Y15788D01*
X10177Y15787D01*
X10200Y15789D01*
X10200Y15789D01*
X10244Y15760D01*
D02*
G37*
G36*
X12461Y16329D02*
X13307D01*
Y16339D01*
X13738D01*
Y16353D01*
X14200D01*
X14205Y16346D01*
X14223Y16331D01*
X14242Y16318D01*
X14263Y16308D01*
X14285Y16300D01*
X14308Y16296D01*
X14331Y16294D01*
X14354Y16296D01*
X14377Y16300D01*
X14399Y16308D01*
X14419Y16318D01*
X14439Y16331D01*
X14456Y16346D01*
X14472Y16364D01*
X14476Y16370D01*
X14516Y16380D01*
X14538Y16378D01*
X14985Y15931D01*
Y15650D01*
X14939Y15631D01*
X14440Y16129D01*
X14428Y16140D01*
X14414Y16148D01*
X14399Y16155D01*
X14383Y16158D01*
X14367Y16160D01*
X12422D01*
X12320Y16262D01*
Y16329D01*
X12361D01*
Y16476D01*
X12461D01*
Y16329D01*
D02*
G37*
G36*
X12306Y15983D02*
X12318Y15972D01*
X12332Y15964D01*
X12347Y15958D01*
X12363Y15954D01*
X12379Y15952D01*
X12569D01*
Y15798D01*
X12490D01*
X12473Y15796D01*
X12457Y15792D01*
X12441Y15786D01*
X12426Y15777D01*
X12413Y15766D01*
X12268Y15620D01*
X12221Y15639D01*
Y16002D01*
X12268Y16021D01*
X12306Y15983D01*
D02*
G37*
G36*
X8405Y15841D02*
X8413Y15826D01*
X8422Y15812D01*
X8433Y15800D01*
X8583Y15650D01*
Y15374D01*
X8538Y15363D01*
X8523Y15359D01*
X8509Y15351D01*
X8497Y15341D01*
X8487Y15329D01*
X8480Y15316D01*
X8476Y15301D01*
X8475Y15297D01*
X8425Y15300D01*
Y15315D01*
X8249D01*
Y15079D01*
X8199D01*
Y15029D01*
X7972D01*
Y14843D01*
X8093D01*
X8112Y14796D01*
X6829Y13514D01*
X6815Y13517D01*
X6783Y13521D01*
X6750Y13522D01*
X6717Y13521D01*
X6685Y13517D01*
X6653Y13510D01*
X6643Y13507D01*
X6617Y13551D01*
X7214Y14148D01*
X7214Y14148D01*
X7236Y14172D01*
X7255Y14198D01*
X7273Y14225D01*
X7288Y14254D01*
X7301Y14284D01*
X7310Y14315D01*
X7318Y14347D01*
X7322Y14380D01*
X7323Y14411D01*
X7323Y14412D01*
X7323D01*
X7323Y14412D01*
Y15790D01*
X7356Y15816D01*
X7399Y15793D01*
X7397Y15786D01*
X7393Y15757D01*
X7391Y15728D01*
X7393Y15699D01*
X7397Y15671D01*
X7404Y15643D01*
X7414Y15615D01*
X7426Y15589D01*
X7441Y15564D01*
X7458Y15541D01*
X7478Y15519D01*
X7499Y15500D01*
X7523Y15483D01*
X7548Y15468D01*
X7574Y15455D01*
X7601Y15445D01*
X7629Y15438D01*
X7658Y15434D01*
X7687Y15433D01*
X7716Y15434D01*
X7745Y15438D01*
X7773Y15445D01*
X7800Y15455D01*
X7825Y15467D01*
X7849Y15455D01*
X7877Y15445D01*
X7905Y15438D01*
X7934Y15434D01*
X7963Y15433D01*
X7992Y15434D01*
X8020Y15438D01*
X8048Y15445D01*
X8076Y15455D01*
X8102Y15468D01*
X8127Y15483D01*
X8150Y15500D01*
X8172Y15519D01*
X8191Y15541D01*
X8208Y15564D01*
X8223Y15589D01*
X8236Y15615D01*
X8245Y15643D01*
X8253Y15671D01*
X8257Y15699D01*
X8258Y15728D01*
X8257Y15757D01*
X8253Y15786D01*
X8250Y15796D01*
X8272Y15835D01*
X8287Y15846D01*
X8403D01*
X8405Y15841D01*
D02*
G37*
G36*
X14886Y15390D02*
Y15283D01*
X14857Y15262D01*
X14836Y15255D01*
X14822Y15262D01*
X14800Y15270D01*
X14777Y15274D01*
X14754Y15276D01*
X14731Y15274D01*
X14708Y15270D01*
X14677Y15270D01*
X14656Y15288D01*
X14646Y15304D01*
X14634Y15319D01*
X14619Y15331D01*
X14603Y15341D01*
X14585Y15349D01*
X14566Y15353D01*
X14547Y15355D01*
X14523Y15402D01*
Y15468D01*
X14522Y15484D01*
X14518Y15500D01*
X14512Y15515D01*
X14503Y15529D01*
X14493Y15541D01*
X14375Y15659D01*
X14363Y15669D01*
X14349Y15678D01*
X14334Y15684D01*
X14318Y15688D01*
X14302Y15689D01*
X14130D01*
X14113Y15688D01*
X14098Y15684D01*
X14083Y15678D01*
X14069Y15669D01*
X14056Y15659D01*
X13955Y15558D01*
X13945Y15546D01*
X13750Y15351D01*
X13734Y15351D01*
X13697Y15368D01*
X13695Y15376D01*
X13688Y15398D01*
X13677Y15418D01*
X13664Y15438D01*
X13649Y15455D01*
X13632Y15471D01*
X13612Y15483D01*
X13592Y15494D01*
X13570Y15501D01*
X13547Y15506D01*
X13524Y15507D01*
X13500Y15506D01*
X13478Y15501D01*
X13475Y15500D01*
X13433Y15524D01*
X13425Y15534D01*
Y15600D01*
X12844D01*
Y15952D01*
X14324D01*
X14886Y15390D01*
D02*
G37*
G36*
X4350Y17795D02*
Y17480D01*
Y17165D01*
Y16850D01*
Y16535D01*
Y16220D01*
Y15906D01*
Y15591D01*
Y15503D01*
X4823D01*
X5295D01*
Y15555D01*
X5308Y15570D01*
X5344Y15593D01*
X5345Y15593D01*
X5351Y15592D01*
X5374Y15590D01*
X5397Y15592D01*
X5402Y15593D01*
X5441Y15569D01*
X5452Y15554D01*
Y15459D01*
X5449Y15456D01*
X5436Y15441D01*
X5424Y15423D01*
X5415Y15405D01*
X5409Y15385D01*
X5405Y15365D01*
X5403Y15344D01*
Y15226D01*
X5325D01*
Y15226D01*
X5297D01*
X5295Y15276D01*
X5295D01*
Y15403D01*
X4873D01*
Y15276D01*
X4929D01*
X4931Y15226D01*
X4931D01*
Y15099D01*
X5128D01*
Y15049D01*
X5178D01*
Y14872D01*
X5325D01*
Y14872D01*
X5415D01*
X5415Y14871D01*
X5424Y14852D01*
X5436Y14835D01*
X5449Y14820D01*
X5459Y14810D01*
X5439Y14764D01*
X4538D01*
X4227Y15075D01*
Y16472D01*
X4226Y16495D01*
X4221Y16518D01*
X4214Y16540D01*
X4203Y16561D01*
X4190Y16580D01*
X4175Y16598D01*
X3964Y16809D01*
X3947Y16824D01*
X3927Y16837D01*
X3907Y16847D01*
X3885Y16855D01*
X3862Y16859D01*
X3839Y16861D01*
X3092D01*
X3073Y16907D01*
X3272Y17106D01*
X3799D01*
X3822Y17107D01*
X3845Y17112D01*
X3867Y17119D01*
X3888Y17130D01*
X3907Y17143D01*
X3925Y17158D01*
X3964Y17197D01*
X3979Y17215D01*
X3992Y17234D01*
X4003Y17255D01*
X4010Y17277D01*
X4015Y17300D01*
X4016Y17323D01*
Y17879D01*
X4247Y18110D01*
X4350D01*
Y17795D01*
D02*
G37*
G36*
X1456Y15383D02*
X1132Y15059D01*
X966D01*
X951Y15092D01*
X949Y15109D01*
X962Y15121D01*
X977Y15138D01*
X990Y15157D01*
X1001Y15178D01*
X1008Y15200D01*
X1013Y15223D01*
X1014Y15246D01*
X1013Y15269D01*
X1008Y15292D01*
X1003Y15306D01*
X1003Y15319D01*
X1024Y15364D01*
X1029Y15367D01*
X1050Y15377D01*
X1072Y15391D01*
X1093Y15406D01*
X1112Y15423D01*
X1113Y15425D01*
X1122Y15433D01*
X1435D01*
X1456Y15383D01*
D02*
G37*
G36*
X6270Y15059D02*
X6179Y15059D01*
X6100Y15138D01*
Y15177D01*
X6270Y15177D01*
Y15059D01*
D02*
G37*
G36*
X12579Y15533D02*
Y15295D01*
X12470D01*
Y15217D01*
X12815D01*
Y15256D01*
X13189D01*
Y15039D01*
X13189D01*
Y14902D01*
X13189D01*
Y14685D01*
X12815D01*
Y14902D01*
X12815D01*
Y14920D01*
X12470D01*
Y14882D01*
X12411D01*
Y14954D01*
X12274D01*
X12136D01*
Y14882D01*
X11945D01*
Y14990D01*
X12086Y15131D01*
X12136Y15110D01*
Y15054D01*
X12224D01*
Y15136D01*
X12161D01*
X12141Y15186D01*
X12521Y15567D01*
X12530Y15568D01*
X12579Y15533D01*
D02*
G37*
G36*
X6270Y14803D02*
X6100D01*
Y14843D01*
X6179Y14921D01*
X6270Y14921D01*
X6270Y14803D01*
D02*
G37*
G36*
X5848Y14921D02*
X5967Y14803D01*
X5758Y14803D01*
X5758Y14921D01*
X5848Y14921D01*
D02*
G37*
G36*
X9695Y14331D02*
X9331D01*
X9163Y14498D01*
X9085D01*
Y14744D01*
X9695D01*
Y14331D01*
D02*
G37*
G36*
X14886Y14384D02*
Y14140D01*
X14523Y13776D01*
X14514Y13773D01*
X14464Y13779D01*
X14459Y13783D01*
X14446Y13797D01*
X14432Y13809D01*
X14429Y13815D01*
X14423Y13865D01*
X14426Y13873D01*
X14474Y13921D01*
X14486Y13935D01*
X14495Y13951D01*
X14503Y13968D01*
X14528Y13978D01*
X14547Y13976D01*
X14566Y13978D01*
X14585Y13982D01*
X14603Y13989D01*
X14619Y13999D01*
X14634Y14012D01*
X14646Y14026D01*
X14656Y14043D01*
X14664Y14061D01*
X14668Y14079D01*
X14670Y14098D01*
Y14268D01*
X14706Y14303D01*
X14715Y14307D01*
X14720D01*
X14740Y14308D01*
X14758Y14313D01*
X14776Y14320D01*
X14792Y14330D01*
X14807Y14343D01*
X14820Y14357D01*
X14830Y14374D01*
X14837Y14391D01*
X14886Y14384D01*
D02*
G37*
G36*
X13925Y13908D02*
X13925Y13907D01*
X13909Y13858D01*
X13904D01*
Y13720D01*
X13804D01*
Y13858D01*
X13722D01*
Y13681D01*
X12628D01*
X12609Y13680D01*
X12591Y13676D01*
X12574Y13669D01*
X12558Y13659D01*
X12544Y13647D01*
X12136Y13239D01*
X12092Y13256D01*
X12087Y13260D01*
X12086Y13285D01*
X12082Y13312D01*
X12075Y13338D01*
X12066Y13363D01*
X12054Y13388D01*
X12040Y13411D01*
X12024Y13433D01*
X12006Y13453D01*
X11986Y13471D01*
X11964Y13487D01*
X11941Y13501D01*
X11917Y13513D01*
X11891Y13522D01*
X11865Y13528D01*
X11838Y13532D01*
X11811Y13534D01*
X11784Y13532D01*
X11757Y13528D01*
X11731Y13522D01*
X11705Y13513D01*
X11697Y13509D01*
X11697Y13509D01*
X11683Y13518D01*
X11668Y13524D01*
X11661Y13526D01*
X11649Y13548D01*
X11644Y13578D01*
X11645Y13579D01*
X11663Y13599D01*
X11680Y13622D01*
X11694Y13646D01*
X11696Y13649D01*
X11697Y13651D01*
X11699Y13656D01*
X11706Y13671D01*
X11708Y13676D01*
X12106D01*
X12123Y13677D01*
X12138Y13681D01*
X12153Y13687D01*
X12167Y13696D01*
X12180Y13706D01*
X12446Y13972D01*
X12498Y13989D01*
X12515Y13973D01*
X12535Y13960D01*
X12556Y13950D01*
X12578Y13943D01*
X12600Y13938D01*
X12624Y13937D01*
X12647Y13938D01*
X12670Y13943D01*
X12692Y13950D01*
X12712Y13960D01*
X12732Y13973D01*
X12749Y13989D01*
X12764Y14006D01*
X12767Y14011D01*
X12835D01*
X12851Y14012D01*
X12867Y14016D01*
X12882Y14022D01*
X12896Y14030D01*
X12908Y14041D01*
X13168Y14301D01*
X13179Y14313D01*
X13187Y14327D01*
X13193Y14341D01*
X13425D01*
Y14343D01*
X13471Y14362D01*
X13925Y13908D01*
D02*
G37*
G36*
X11850Y14235D02*
Y13896D01*
X11838Y13875D01*
X11818Y13868D01*
X11778Y13880D01*
X11742Y13903D01*
X11709Y13935D01*
X11676Y13989D01*
X11666Y14017D01*
X11664Y14104D01*
X11675Y14141D01*
X11698Y14180D01*
X11719Y14203D01*
X11748Y14232D01*
X11773Y14249D01*
X11820Y14264D01*
X11850Y14235D01*
D02*
G37*
G36*
X11982Y14250D02*
X12018Y14227D01*
X12051Y14195D01*
X12084Y14141D01*
X12094Y14113D01*
X12096Y14026D01*
X12085Y13989D01*
X12062Y13950D01*
X12041Y13927D01*
X12012Y13898D01*
X11987Y13881D01*
X11940Y13866D01*
X11910Y13895D01*
Y14234D01*
X11922Y14255D01*
X11942Y14262D01*
X11982Y14250D01*
D02*
G37*
G36*
X11397Y13950D02*
Y13610D01*
X11385Y13590D01*
X11365Y13583D01*
X11325Y13595D01*
X11289Y13618D01*
X11256Y13650D01*
X11223Y13704D01*
X11213Y13732D01*
X11211Y13819D01*
X11222Y13856D01*
X11245Y13895D01*
X11266Y13918D01*
X11295Y13947D01*
X11321Y13963D01*
X11367Y13979D01*
X11397Y13950D01*
D02*
G37*
G36*
X11529Y13964D02*
X11565Y13942D01*
X11598Y13910D01*
X11631Y13856D01*
X11641Y13828D01*
X11643Y13741D01*
X11632Y13704D01*
X11609Y13665D01*
X11588Y13642D01*
X11559Y13613D01*
X11534Y13596D01*
X11487Y13581D01*
X11457Y13609D01*
Y13949D01*
X11469Y13970D01*
X11489Y13977D01*
X11529Y13964D01*
D02*
G37*
G36*
X10444Y14229D02*
X10449Y14206D01*
X10453Y14182D01*
X10416Y14151D01*
X10413Y14150D01*
X10394Y14137D01*
X10376Y14122D01*
X10361Y14104D01*
X10348Y14085D01*
X10338Y14064D01*
X10330Y14042D01*
X10326Y14019D01*
X10324Y13996D01*
X10326Y13973D01*
X10330Y13950D01*
X10338Y13928D01*
X10348Y13907D01*
X10361Y13888D01*
X10376Y13871D01*
X10394Y13855D01*
X10398Y13852D01*
Y13695D01*
X10238Y13534D01*
X10236Y13534D01*
X10209Y13532D01*
X10182Y13528D01*
X10156Y13522D01*
X10131Y13513D01*
X10106Y13501D01*
X10083Y13487D01*
X10061Y13471D01*
X10041Y13453D01*
X10023Y13433D01*
X10007Y13411D01*
X9993Y13388D01*
X9981Y13363D01*
X9972Y13338D01*
X9966Y13312D01*
X9963Y13295D01*
X9938Y13281D01*
X9911Y13276D01*
X9725Y13463D01*
Y14180D01*
X9725Y14181D01*
Y14251D01*
X9837D01*
X9842Y14252D01*
X10443D01*
X10444Y14229D01*
D02*
G37*
G36*
X8066Y14320D02*
Y13431D01*
X8016Y13412D01*
X8015Y13413D01*
X7991Y13435D01*
X7965Y13455D01*
X7937Y13472D01*
X7908Y13487D01*
X7878Y13500D01*
X7847Y13510D01*
X7815Y13517D01*
X7783Y13521D01*
X7750Y13522D01*
X7717Y13521D01*
X7685Y13517D01*
X7653Y13510D01*
X7622Y13500D01*
X7592Y13487D01*
X7563Y13472D01*
X7535Y13455D01*
X7509Y13435D01*
X7485Y13413D01*
X7463Y13389D01*
X7443Y13363D01*
X7426Y13335D01*
X7411Y13306D01*
X7398Y13276D01*
X7388Y13245D01*
X7381Y13213D01*
X7377Y13181D01*
X7376Y13148D01*
X7377Y13115D01*
X7381Y13083D01*
X7388Y13051D01*
X7398Y13020D01*
X7400Y13016D01*
X7081Y12697D01*
X7068Y12682D01*
X7057Y12665D01*
X7048Y12647D01*
X7041Y12628D01*
X7037Y12608D01*
X7036Y12588D01*
Y12522D01*
X6800D01*
Y12148D01*
Y11774D01*
X7036D01*
Y11056D01*
X7008Y11042D01*
X6986Y11039D01*
X6976Y11051D01*
X6958Y11066D01*
X6939Y11079D01*
X6918Y11089D01*
X6896Y11097D01*
X6874Y11101D01*
X6850Y11103D01*
X6827Y11101D01*
X6804Y11097D01*
X6782Y11089D01*
X6762Y11079D01*
X6742Y11066D01*
X6725Y11051D01*
X6710Y11033D01*
X6697Y11014D01*
X6686Y10993D01*
X6679Y10971D01*
X6674Y10948D01*
X6673Y10925D01*
X6674Y10902D01*
X6679Y10879D01*
X6686Y10857D01*
X6697Y10836D01*
X6710Y10817D01*
X6725Y10800D01*
X6742Y10784D01*
X6762Y10771D01*
X6782Y10761D01*
X6804Y10754D01*
X6827Y10749D01*
X6850Y10748D01*
X6874Y10749D01*
X6896Y10754D01*
X6918Y10761D01*
X6920Y10762D01*
X6950Y10721D01*
X4631Y8402D01*
X3100D01*
X3080Y8401D01*
X3061Y8397D01*
X3041Y8390D01*
X3023Y8381D01*
X3007Y8370D01*
X2991Y8357D01*
X2929Y8295D01*
X2912Y8294D01*
X2873Y8309D01*
X2871Y8316D01*
X2860Y8337D01*
X2848Y8356D01*
X2832Y8374D01*
X2852Y8411D01*
X2865Y8430D01*
X2876Y8451D01*
X2883Y8473D01*
X2888Y8496D01*
X2889Y8519D01*
X2888Y8542D01*
X2883Y8565D01*
X2876Y8587D01*
X2865Y8607D01*
X2852Y8627D01*
X2837Y8644D01*
X2820Y8660D01*
X2800Y8672D01*
X2780Y8683D01*
X2758Y8690D01*
X2735Y8695D01*
X2712Y8696D01*
X2688Y8695D01*
X2683Y8694D01*
X2662Y8715D01*
X2650Y8726D01*
X2636Y8734D01*
X2621Y8740D01*
X2605Y8744D01*
X2589Y8745D01*
X2480D01*
Y8839D01*
X1873D01*
X1854Y8885D01*
X1945Y8976D01*
X4306D01*
X4327Y8977D01*
X4347Y8981D01*
X4367Y8988D01*
X4385Y8997D01*
X4402Y9009D01*
X4418Y9022D01*
X6376Y10981D01*
X6390Y10996D01*
X6401Y11014D01*
X6411Y11032D01*
X6417Y11052D01*
X6421Y11072D01*
X6423Y11093D01*
Y11774D01*
X6700D01*
Y12148D01*
Y12522D01*
X6460D01*
X6439Y12572D01*
X6654Y12786D01*
X6685Y12779D01*
X6717Y12775D01*
X6750Y12774D01*
X6783Y12775D01*
X6815Y12779D01*
X6847Y12786D01*
X6878Y12796D01*
X6908Y12809D01*
X6937Y12824D01*
X6965Y12841D01*
X6991Y12861D01*
X7015Y12883D01*
X7037Y12907D01*
X7057Y12933D01*
X7074Y12961D01*
X7089Y12990D01*
X7102Y13020D01*
X7112Y13051D01*
X7119Y13083D01*
X7123Y13115D01*
X7124Y13148D01*
X7123Y13181D01*
X7119Y13213D01*
X7112Y13245D01*
X7102Y13276D01*
X7089Y13306D01*
X7074Y13335D01*
X7057Y13363D01*
X7051Y13370D01*
X8019Y14339D01*
X8066Y14320D01*
D02*
G37*
G36*
X6811Y14530D02*
X6833Y14523D01*
X6856Y14518D01*
X6879Y14517D01*
X6903Y14518D01*
X6918Y14521D01*
X6935Y14515D01*
X6967Y14488D01*
X6968Y14485D01*
Y14412D01*
X6968Y14411D01*
X6967Y14405D01*
X6964Y14399D01*
X6962Y14399D01*
X6172Y13608D01*
X6172Y13608D01*
X6150Y13584D01*
X6130Y13558D01*
X6113Y13531D01*
X6098Y13502D01*
X6085Y13472D01*
X6075Y13441D01*
X6072Y13424D01*
X6033Y13409D01*
X6018Y13409D01*
X6015Y13413D01*
X5991Y13435D01*
X5965Y13455D01*
X5937Y13472D01*
X5908Y13487D01*
X5878Y13500D01*
X5847Y13510D01*
X5815Y13517D01*
X5783Y13521D01*
X5750Y13522D01*
X5717Y13521D01*
X5685Y13517D01*
X5653Y13510D01*
X5622Y13500D01*
X5592Y13487D01*
X5563Y13472D01*
X5535Y13455D01*
X5514Y13438D01*
X4589Y14363D01*
X4608Y14409D01*
X6467D01*
X6491Y14411D01*
X6513Y14415D01*
X6535Y14423D01*
X6556Y14433D01*
X6576Y14446D01*
X6593Y14461D01*
X6668Y14536D01*
X6799D01*
X6811Y14530D01*
D02*
G37*
G36*
X3070Y13691D02*
Y13390D01*
X2771Y13091D01*
X2697D01*
Y13159D01*
X2421D01*
Y13259D01*
X2697D01*
Y13390D01*
X2599D01*
X2588Y13440D01*
X2601Y13446D01*
X2624Y13460D01*
X2646Y13476D01*
X2666Y13494D01*
X2684Y13514D01*
X2700Y13536D01*
X2714Y13559D01*
X2725Y13583D01*
X2735Y13609D01*
X2741Y13635D01*
X2745Y13662D01*
X2746Y13689D01*
X2745Y13716D01*
X2741Y13743D01*
X2735Y13769D01*
X2725Y13795D01*
X2714Y13819D01*
X2700Y13842D01*
X2684Y13864D01*
X2666Y13884D01*
X2646Y13902D01*
X2624Y13918D01*
X2601Y13932D01*
X2576Y13944D01*
X2551Y13953D01*
X2524Y13960D01*
X2498Y13964D01*
X2470Y13965D01*
X2077D01*
X2050Y13964D01*
X2023Y13960D01*
X1997Y13953D01*
X1971Y13944D01*
X1947Y13932D01*
X1923Y13918D01*
X1902Y13902D01*
X1882Y13884D01*
X1866Y13867D01*
X1235D01*
X1219Y13884D01*
X1199Y13902D01*
X1177Y13918D01*
X1154Y13932D01*
X1129Y13944D01*
X1104Y13953D01*
X1077Y13960D01*
X1051Y13964D01*
X1024Y13965D01*
X939D01*
X919Y14011D01*
X931Y14022D01*
X941Y14035D01*
X950Y14049D01*
X956Y14064D01*
X960Y14080D01*
X960Y14082D01*
X974Y14091D01*
X992Y14107D01*
X1007Y14124D01*
X1020Y14144D01*
X1030Y14164D01*
X1038Y14186D01*
X1042Y14209D01*
X1044Y14232D01*
X1042Y14255D01*
X1038Y14278D01*
X1034Y14290D01*
X1047Y14318D01*
X1066Y14340D01*
X2421D01*
X3070Y13691D01*
D02*
G37*
G36*
X2988Y15383D02*
X2984Y15380D01*
X2957Y15359D01*
X2931Y15336D01*
X2908Y15311D01*
X2887Y15284D01*
X2869Y15255D01*
X2853Y15225D01*
X2840Y15193D01*
X2830Y15161D01*
X2823Y15127D01*
X2818Y15093D01*
X2817Y15059D01*
X2818Y15025D01*
X2823Y14991D01*
X2830Y14958D01*
X2840Y14925D01*
X2853Y14893D01*
X2869Y14863D01*
X2887Y14834D01*
X2908Y14807D01*
X2931Y14782D01*
X2957Y14759D01*
X2984Y14738D01*
X3013Y14719D01*
X3043Y14704D01*
X3075Y14691D01*
X3107Y14680D01*
X3141Y14673D01*
X3174Y14668D01*
X3209Y14667D01*
X3243Y14668D01*
X3277Y14673D01*
X3310Y14680D01*
X3343Y14691D01*
X3374Y14704D01*
X3405Y14719D01*
X3434Y14738D01*
X3461Y14759D01*
X3486Y14782D01*
X3509Y14807D01*
X3530Y14834D01*
X3548Y14863D01*
X3564Y14893D01*
X3577Y14925D01*
X3624Y14909D01*
Y14899D01*
X3626Y14876D01*
X3630Y14853D01*
X3638Y14831D01*
X3648Y14810D01*
X3661Y14791D01*
X3676Y14773D01*
X3856Y14594D01*
X5352Y13098D01*
X5369Y13083D01*
X5384Y13073D01*
X5388Y13051D01*
X5398Y13020D01*
X5411Y12990D01*
X5426Y12961D01*
X5443Y12933D01*
X5463Y12907D01*
X5485Y12883D01*
X5494Y12875D01*
X5475Y12825D01*
X5408D01*
X4820Y13413D01*
X4803Y13428D01*
X4784Y13441D01*
X4763Y13451D01*
X4741Y13459D01*
X4718Y13463D01*
X4695Y13465D01*
X4291D01*
Y13514D01*
X3819D01*
Y13465D01*
X3307D01*
Y13740D01*
X3306Y13759D01*
X3302Y13777D01*
X3295Y13794D01*
X3285Y13810D01*
X3273Y13824D01*
X2554Y14542D01*
X2540Y14555D01*
X2524Y14564D01*
X2507Y14571D01*
X2489Y14576D01*
X2470Y14577D01*
X777D01*
X685Y14669D01*
X686Y14685D01*
X685Y14708D01*
X680Y14731D01*
X673Y14753D01*
X663Y14774D01*
X689Y14822D01*
X1181D01*
X1200Y14824D01*
X1218Y14828D01*
X1235Y14835D01*
X1251Y14845D01*
X1265Y14857D01*
X1678Y15271D01*
X1690Y15285D01*
X1700Y15301D01*
X1707Y15318D01*
X1711Y15336D01*
X1713Y15354D01*
Y15433D01*
X2973D01*
X2988Y15383D01*
D02*
G37*
G36*
X8066Y12865D02*
Y12522D01*
X7800D01*
Y12148D01*
Y11774D01*
X8066D01*
Y11479D01*
X7390Y10804D01*
X7344Y10823D01*
Y11737D01*
X7376Y11774D01*
X7700D01*
Y12148D01*
Y12522D01*
X7413D01*
X7392Y12572D01*
X7618Y12798D01*
X7622Y12796D01*
X7653Y12786D01*
X7685Y12779D01*
X7717Y12775D01*
X7750Y12774D01*
X7783Y12775D01*
X7815Y12779D01*
X7847Y12786D01*
X7878Y12796D01*
X7908Y12809D01*
X7937Y12824D01*
X7965Y12841D01*
X7991Y12861D01*
X8015Y12883D01*
X8016Y12884D01*
X8066Y12865D01*
D02*
G37*
G36*
X9184Y14366D02*
Y14273D01*
X9210Y14262D01*
X9231Y14244D01*
Y14181D01*
X9232Y14176D01*
Y12537D01*
X9186Y12517D01*
X9080Y12623D01*
Y14224D01*
X9084Y14229D01*
Y14326D01*
X9088Y14333D01*
X9096Y14351D01*
X9100Y14370D01*
X9102Y14390D01*
X9160D01*
X9184Y14366D01*
D02*
G37*
G36*
X3819Y13061D02*
X3878D01*
Y12776D01*
X3858D01*
Y12468D01*
X3808Y12444D01*
X3799Y12450D01*
X3769Y12470D01*
X3737Y12486D01*
X3704Y12500D01*
X3670Y12511D01*
X3635Y12519D01*
X3622Y12520D01*
Y12894D01*
X3463D01*
Y12982D01*
X3230D01*
X3211Y13028D01*
X3292Y13110D01*
X3819D01*
Y13061D01*
D02*
G37*
G36*
X5209Y12522D02*
X5227Y12507D01*
X5246Y12494D01*
X5267Y12484D01*
X5289Y12476D01*
X5311Y12472D01*
X5335Y12470D01*
X5376D01*
Y12198D01*
X5750D01*
Y12148D01*
X5800D01*
Y11774D01*
X6107D01*
Y11158D01*
X6046Y11097D01*
X6006Y11106D01*
X5991Y11113D01*
X5986Y11130D01*
X5975Y11151D01*
X5962Y11171D01*
X5947Y11188D01*
X5930Y11203D01*
X5910Y11216D01*
X5889Y11226D01*
X5867Y11234D01*
X5845Y11238D01*
X5821Y11240D01*
X4094D01*
Y11240D01*
X3894D01*
X3888Y11241D01*
X3882Y11240D01*
X3520D01*
X3514Y11241D01*
X3472D01*
Y11358D01*
X3622D01*
Y11769D01*
X3655Y11798D01*
X3701Y11781D01*
Y11772D01*
X4252D01*
Y11968D01*
X4126D01*
X4101Y12001D01*
X4094Y12019D01*
X4102Y12040D01*
X4109Y12068D01*
X4113Y12097D01*
X4115Y12126D01*
X4113Y12155D01*
X4109Y12184D01*
X4102Y12212D01*
X4094Y12233D01*
X4101Y12251D01*
X4126Y12283D01*
X4252D01*
Y12776D01*
X4290Y12805D01*
X4407D01*
Y12893D01*
X4276D01*
Y12993D01*
X4407D01*
Y13081D01*
X4445Y13110D01*
X4621D01*
X5209Y12522D01*
D02*
G37*
G36*
X1882Y13494D02*
X1902Y13476D01*
X1918Y13463D01*
X1920Y13438D01*
X1912Y13408D01*
X1899Y13403D01*
X1879Y13392D01*
X1860Y13379D01*
X1843Y13363D01*
X1828Y13346D01*
X1815Y13328D01*
X1803Y13307D01*
X1795Y13286D01*
X1788Y13264D01*
X1784Y13241D01*
X1783Y13218D01*
Y13120D01*
X1784Y13097D01*
X1788Y13074D01*
X1795Y13052D01*
X1803Y13031D01*
X1815Y13011D01*
X1828Y12992D01*
X1843Y12975D01*
X1860Y12960D01*
X1879Y12946D01*
X1899Y12935D01*
X1920Y12927D01*
X1936Y12877D01*
X1935Y12871D01*
X1633Y12569D01*
X1619Y12553D01*
X1607Y12535D01*
X1597Y12515D01*
X1590Y12494D01*
X1586Y12473D01*
X1584Y12451D01*
Y11483D01*
X1586Y11461D01*
X1590Y11440D01*
X1597Y11419D01*
X1607Y11399D01*
X1619Y11381D01*
X1633Y11365D01*
X1941Y11057D01*
X1941Y11044D01*
X1925Y11002D01*
X1920Y11001D01*
X1899Y10992D01*
X1879Y10981D01*
X1860Y10967D01*
X1843Y10952D01*
X1828Y10935D01*
X1815Y10916D01*
X1803Y10896D01*
X1795Y10875D01*
X1788Y10853D01*
X1784Y10830D01*
X1783Y10807D01*
X1784Y10784D01*
X1788Y10761D01*
X1795Y10739D01*
X1803Y10718D01*
X1815Y10698D01*
X1828Y10679D01*
X1843Y10662D01*
X1860Y10647D01*
X1879Y10633D01*
X1899Y10622D01*
X1920Y10614D01*
X1943Y10607D01*
X1965Y10603D01*
X1988Y10602D01*
X1994Y10602D01*
X2002Y10553D01*
X1997Y10551D01*
X1971Y10542D01*
X1947Y10531D01*
X1923Y10517D01*
X1902Y10501D01*
X1882Y10482D01*
X1866Y10465D01*
X1235D01*
X1219Y10482D01*
X1199Y10501D01*
X1177Y10517D01*
X1154Y10531D01*
X1129Y10542D01*
X1104Y10551D01*
X1077Y10558D01*
X1051Y10562D01*
X1024Y10563D01*
X945D01*
Y10876D01*
X949Y10884D01*
X989Y10915D01*
X995Y10916D01*
X1014Y10915D01*
X1037Y10916D01*
X1060Y10921D01*
X1082Y10928D01*
X1103Y10939D01*
X1122Y10952D01*
X1139Y10967D01*
X1155Y10984D01*
X1168Y11004D01*
X1178Y11025D01*
X1185Y11047D01*
X1190Y11069D01*
X1191Y11093D01*
X1190Y11111D01*
X1191Y11117D01*
X1222Y11157D01*
X1230Y11161D01*
X1240D01*
Y11650D01*
X1255Y11664D01*
X1278Y11666D01*
X1301Y11670D01*
X1323Y11678D01*
X1344Y11688D01*
X1363Y11701D01*
X1380Y11716D01*
X1396Y11734D01*
X1409Y11753D01*
X1419Y11774D01*
X1426Y11796D01*
X1431Y11819D01*
X1432Y11842D01*
X1431Y11865D01*
X1426Y11888D01*
X1419Y11910D01*
X1409Y11930D01*
X1396Y11950D01*
X1381Y11968D01*
X1396Y11987D01*
X1409Y12007D01*
X1419Y12027D01*
X1426Y12049D01*
X1431Y12072D01*
X1432Y12095D01*
X1431Y12118D01*
X1426Y12141D01*
X1419Y12163D01*
X1409Y12184D01*
X1396Y12203D01*
X1380Y12221D01*
X1363Y12236D01*
X1344Y12249D01*
X1323Y12259D01*
X1301Y12267D01*
X1278Y12271D01*
X1255Y12273D01*
X1240Y12287D01*
Y12815D01*
X1205D01*
X1200Y12825D01*
X1192Y12865D01*
X1201Y12871D01*
X1219Y12886D01*
X1234Y12904D01*
X1247Y12923D01*
X1257Y12944D01*
X1265Y12966D01*
X1269Y12989D01*
X1271Y13012D01*
X1269Y13035D01*
X1265Y13058D01*
X1257Y13080D01*
X1247Y13101D01*
X1234Y13120D01*
X1219Y13137D01*
X1201Y13153D01*
X1182Y13166D01*
X1161Y13176D01*
X1139Y13183D01*
X1116Y13188D01*
X1093Y13189D01*
X1070Y13188D01*
X1047Y13183D01*
X1025Y13176D01*
X1004Y13166D01*
X995Y13160D01*
X963Y13171D01*
X945Y13184D01*
Y13413D01*
X1024D01*
X1051Y13414D01*
X1077Y13418D01*
X1104Y13425D01*
X1129Y13434D01*
X1154Y13446D01*
X1177Y13460D01*
X1199Y13476D01*
X1219Y13494D01*
X1235Y13511D01*
X1866D01*
X1882Y13494D01*
D02*
G37*
G36*
X3888Y10885D02*
X4065D01*
Y10853D01*
X4341D01*
Y10885D01*
X5763D01*
X5784Y10835D01*
X4241Y9292D01*
X1880D01*
X1859Y9290D01*
X1839Y9286D01*
X1820Y9280D01*
X1801Y9271D01*
X1784Y9259D01*
X1768Y9245D01*
X1050Y8527D01*
X1036Y8511D01*
X1025Y8494D01*
X1016Y8476D01*
X1009Y8456D01*
X1005Y8436D01*
X1004Y8415D01*
Y7264D01*
X138D01*
X96Y7284D01*
Y8818D01*
X138Y8839D01*
X1004D01*
Y9439D01*
X1081D01*
Y9527D01*
X949D01*
Y9627D01*
X1081D01*
Y9715D01*
X1081D01*
Y9724D01*
X1081D01*
Y9812D01*
X949D01*
Y9912D01*
X1081D01*
Y10000D01*
X1119Y10029D01*
X1129Y10032D01*
X1154Y10044D01*
X1177Y10058D01*
X1199Y10074D01*
X1219Y10092D01*
X1235Y10110D01*
X1866D01*
X1882Y10092D01*
X1902Y10074D01*
X1923Y10058D01*
X1947Y10044D01*
X1971Y10032D01*
X1997Y10023D01*
X2023Y10017D01*
X2050Y10013D01*
X2077Y10011D01*
X2470D01*
X2498Y10013D01*
X2524Y10017D01*
X2551Y10023D01*
X2576Y10032D01*
X2601Y10044D01*
X2624Y10058D01*
X2646Y10074D01*
X2666Y10092D01*
X2684Y10112D01*
X2700Y10134D01*
X2714Y10157D01*
X2725Y10182D01*
X2735Y10207D01*
X2741Y10234D01*
X2745Y10260D01*
X2746Y10287D01*
X2745Y10314D01*
X2741Y10341D01*
X2735Y10367D01*
X2725Y10393D01*
X2714Y10417D01*
X2700Y10441D01*
X2684Y10462D01*
X2666Y10482D01*
X2646Y10501D01*
X2624Y10517D01*
X2601Y10531D01*
X2588Y10537D01*
X2599Y10587D01*
X2697D01*
Y10718D01*
X2421D01*
Y10818D01*
X2697D01*
Y10885D01*
X3081D01*
Y10853D01*
X3356D01*
Y10885D01*
X3514D01*
X3520Y10886D01*
X3874D01*
X3888Y10885D01*
D02*
G37*
G36*
X9610Y11619D02*
X9624Y11607D01*
X9640Y11597D01*
X9657Y11590D01*
X9675Y11586D01*
X9694Y11584D01*
X11237D01*
X11241Y11568D01*
X11248Y11546D01*
X11258Y11525D01*
X11271Y11506D01*
X11287Y11489D01*
X11304Y11473D01*
X11323Y11460D01*
X11344Y11450D01*
X11366Y11443D01*
X11389Y11438D01*
X11412Y11437D01*
X11435Y11438D01*
X11458Y11443D01*
X11480Y11450D01*
X11501Y11460D01*
X11520Y11473D01*
X11538Y11489D01*
X11553Y11506D01*
X11566Y11525D01*
X11576Y11546D01*
X11584Y11568D01*
X11584Y11569D01*
X11599Y11566D01*
X11622Y11565D01*
X11646Y11566D01*
X11668Y11571D01*
X11690Y11578D01*
X11711Y11588D01*
X11730Y11601D01*
X11748Y11617D01*
X11763Y11634D01*
X11766Y11638D01*
X11966D01*
X12298Y11307D01*
Y9437D01*
X12037Y9176D01*
X12034Y9177D01*
X12011Y9182D01*
X11988Y9183D01*
X11965Y9182D01*
X11942Y9177D01*
X11920Y9170D01*
X11899Y9160D01*
X11880Y9147D01*
X11863Y9131D01*
X11847Y9114D01*
X11834Y9095D01*
X11824Y9074D01*
X11817Y9052D01*
X11812Y9029D01*
X11811Y9006D01*
X11812Y8983D01*
X11817Y8960D01*
X11824Y8938D01*
X11834Y8917D01*
X11847Y8898D01*
X11863Y8880D01*
X11880Y8865D01*
X11899Y8852D01*
X11920Y8842D01*
X11942Y8834D01*
X11965Y8830D01*
X11988Y8828D01*
X12011Y8830D01*
X12034Y8834D01*
X12056Y8842D01*
X12077Y8852D01*
X12096Y8865D01*
X12114Y8880D01*
X12129Y8898D01*
X12142Y8917D01*
X12152Y8938D01*
X12160Y8960D01*
X12164Y8983D01*
X12166Y9006D01*
X12165Y9011D01*
X12355Y9201D01*
X12401Y9182D01*
Y5925D01*
X12403Y5908D01*
X12407Y5892D01*
X12413Y5876D01*
X12422Y5861D01*
X12433Y5848D01*
X12711Y5570D01*
Y5413D01*
X12676Y5387D01*
X12661Y5382D01*
X12644Y5388D01*
X12622Y5393D01*
X12598Y5394D01*
X12575Y5393D01*
X12552Y5388D01*
X12530Y5381D01*
X12510Y5370D01*
X12490Y5357D01*
X12473Y5342D01*
X12458Y5325D01*
X12445Y5305D01*
X12436Y5289D01*
X12429Y5286D01*
X12415Y5277D01*
X12403Y5267D01*
X12024Y4887D01*
X12013Y4875D01*
X12005Y4861D01*
X11998Y4846D01*
X11995Y4830D01*
X11993Y4814D01*
Y4268D01*
X11978Y4255D01*
X11963Y4237D01*
X11950Y4218D01*
X11940Y4197D01*
X11932Y4175D01*
X11928Y4152D01*
X11926Y4129D01*
X11928Y4106D01*
X11932Y4083D01*
X11940Y4061D01*
X11950Y4040D01*
X11963Y4021D01*
X11978Y4004D01*
X11996Y3988D01*
X12015Y3975D01*
X12036Y3965D01*
X12058Y3958D01*
X12081Y3953D01*
X12104Y3952D01*
X12127Y3953D01*
X12150Y3958D01*
X12172Y3965D01*
X12192Y3975D01*
X12212Y3988D01*
X12229Y4004D01*
X12245Y4021D01*
X12257Y4040D01*
X12268Y4061D01*
X12275Y4083D01*
X12280Y4106D01*
X12281Y4129D01*
X12280Y4152D01*
X12275Y4175D01*
X12273Y4182D01*
X12286Y4216D01*
X12304Y4236D01*
X12315Y4238D01*
X12337Y4245D01*
X12358Y4256D01*
X12377Y4269D01*
X12395Y4284D01*
X12410Y4301D01*
X12423Y4321D01*
X12433Y4342D01*
X12441Y4363D01*
X12445Y4386D01*
X12447Y4409D01*
X12445Y4433D01*
X12441Y4455D01*
X12433Y4477D01*
X12423Y4498D01*
X12410Y4518D01*
X12395Y4535D01*
X12409Y4588D01*
X12897Y5076D01*
X12908Y5089D01*
X12917Y5103D01*
X12923Y5119D01*
X12927Y5136D01*
X12929Y5153D01*
Y5615D01*
X12927Y5632D01*
X12923Y5649D01*
X12917Y5664D01*
X12908Y5679D01*
X12897Y5692D01*
X12618Y5970D01*
Y11388D01*
X12617Y11405D01*
X12613Y11421D01*
X12607Y11437D01*
X12598Y11452D01*
X12587Y11465D01*
X12074Y11977D01*
X12095Y12027D01*
X13454D01*
X15038Y10443D01*
X15037Y10427D01*
X15021Y10390D01*
X15013Y10388D01*
X14991Y10381D01*
X14970Y10370D01*
X14951Y10357D01*
X14934Y10342D01*
X14918Y10325D01*
X14905Y10305D01*
X14895Y10284D01*
X14888Y10262D01*
X14883Y10240D01*
X14882Y10217D01*
X14882Y10207D01*
X14864Y10206D01*
X14841Y10201D01*
X14819Y10194D01*
X14798Y10183D01*
X14779Y10170D01*
X14761Y10155D01*
X14746Y10138D01*
X14733Y10118D01*
X14723Y10097D01*
X14715Y10075D01*
X14711Y10053D01*
X14709Y10030D01*
X14711Y10006D01*
X14715Y9984D01*
X14723Y9962D01*
X14733Y9941D01*
X14746Y9921D01*
X14761Y9904D01*
X14763Y9902D01*
Y6629D01*
X14765Y6613D01*
X14769Y6597D01*
X14775Y6582D01*
X14783Y6568D01*
X14794Y6556D01*
X14890Y6459D01*
Y5828D01*
X14840Y5801D01*
X14837Y5803D01*
Y6192D01*
X14835Y6209D01*
X14832Y6224D01*
X14825Y6239D01*
X14817Y6253D01*
X14806Y6266D01*
X14626Y6446D01*
Y8480D01*
X14625Y8497D01*
X14621Y8512D01*
X14615Y8527D01*
X14607Y8541D01*
X14596Y8554D01*
X14290Y8859D01*
X14291Y8865D01*
X14293Y8888D01*
X14291Y8911D01*
X14287Y8934D01*
X14279Y8956D01*
X14269Y8977D01*
X14256Y8996D01*
X14241Y9013D01*
X14223Y9029D01*
X14204Y9042D01*
X14183Y9052D01*
X14161Y9059D01*
X14138Y9064D01*
X14115Y9065D01*
X14092Y9064D01*
X14069Y9059D01*
X14047Y9052D01*
X14026Y9042D01*
X14007Y9029D01*
X13990Y9013D01*
X13974Y8996D01*
X13961Y8977D01*
X13951Y8956D01*
X13944Y8934D01*
X13939Y8911D01*
X13938Y8888D01*
X13939Y8865D01*
X13944Y8842D01*
X13951Y8820D01*
X13961Y8799D01*
X13974Y8780D01*
X13990Y8762D01*
X14007Y8747D01*
X14026Y8734D01*
X14037Y8729D01*
X14043Y8694D01*
X14039Y8674D01*
X14026Y8664D01*
X14008Y8649D01*
X13993Y8632D01*
X13980Y8612D01*
X13970Y8592D01*
X13962Y8570D01*
X13958Y8547D01*
X13956Y8524D01*
X13958Y8500D01*
X13962Y8478D01*
X13970Y8456D01*
X13980Y8435D01*
X13980Y8435D01*
X13981Y8428D01*
X13963Y8384D01*
X13960Y8380D01*
X13938Y8373D01*
X13917Y8362D01*
X13898Y8350D01*
X13880Y8334D01*
X13865Y8317D01*
X13852Y8297D01*
X13842Y8277D01*
X13834Y8255D01*
X13830Y8232D01*
X13828Y8209D01*
X13830Y8185D01*
X13831Y8180D01*
X13660Y8010D01*
X13650Y7997D01*
X13641Y7983D01*
X13635Y7968D01*
X13631Y7953D01*
X13630Y7936D01*
Y7595D01*
X13631Y7579D01*
X13635Y7563D01*
X13641Y7548D01*
X13650Y7534D01*
X13660Y7522D01*
X13730Y7452D01*
Y6937D01*
X13731Y6920D01*
X13735Y6904D01*
X13741Y6889D01*
X13750Y6876D01*
X13760Y6863D01*
X13803Y6821D01*
X13804Y6819D01*
X13814Y6807D01*
X13976Y6645D01*
Y5402D01*
X13854Y5280D01*
X13844Y5268D01*
X13843Y5267D01*
X13839Y5265D01*
X13820Y5252D01*
X13802Y5237D01*
X13787Y5219D01*
X13774Y5200D01*
X13764Y5179D01*
X13756Y5157D01*
X13752Y5134D01*
X13750Y5111D01*
X13752Y5088D01*
X13756Y5065D01*
X13764Y5043D01*
X13774Y5022D01*
X13787Y5003D01*
X13802Y4986D01*
X13820Y4970D01*
X13839Y4957D01*
X13860Y4947D01*
X13882Y4940D01*
X13904Y4935D01*
X13928Y4934D01*
X13951Y4935D01*
X13974Y4940D01*
X13996Y4947D01*
X14016Y4957D01*
X14036Y4970D01*
X14053Y4986D01*
X14068Y5003D01*
X14081Y5022D01*
X14092Y5043D01*
X14099Y5065D01*
X14104Y5088D01*
X14105Y5111D01*
X14104Y5134D01*
X14099Y5157D01*
X14092Y5179D01*
X14081Y5200D01*
X14076Y5209D01*
X14153Y5286D01*
X14164Y5298D01*
X14172Y5312D01*
X14178Y5327D01*
X14182Y5343D01*
X14183Y5359D01*
Y5681D01*
X14230Y5700D01*
X14302Y5627D01*
X14301Y5622D01*
X14299Y5599D01*
X14301Y5576D01*
X14306Y5553D01*
X14313Y5531D01*
X14323Y5510D01*
X14336Y5491D01*
X14351Y5474D01*
X14369Y5458D01*
X14388Y5445D01*
X14409Y5435D01*
X14431Y5428D01*
X14454Y5423D01*
X14477Y5422D01*
X14500Y5423D01*
X14523Y5428D01*
X14545Y5435D01*
X14566Y5445D01*
X14585Y5458D01*
X14603Y5474D01*
X14610Y5481D01*
X14625Y5468D01*
X14644Y5455D01*
X14665Y5445D01*
X14687Y5437D01*
X14710Y5433D01*
X14733Y5431D01*
X14756Y5433D01*
X14779Y5437D01*
X14797Y5443D01*
X14803Y5444D01*
X14850Y5425D01*
X14856Y5418D01*
X14858Y5414D01*
X14340Y4895D01*
X14329Y4883D01*
X14321Y4869D01*
X14314Y4854D01*
X14311Y4838D01*
X14309Y4822D01*
Y4554D01*
X14309Y4554D01*
Y4246D01*
X14311Y4230D01*
X14314Y4214D01*
X14321Y4199D01*
X14329Y4185D01*
X14340Y4173D01*
X14572Y3941D01*
Y3524D01*
X14538Y3504D01*
X14522Y3500D01*
X14507Y3510D01*
X14486Y3520D01*
X14464Y3528D01*
X14441Y3532D01*
X14418Y3534D01*
X14395Y3532D01*
X14372Y3528D01*
X14350Y3520D01*
X14329Y3510D01*
X14310Y3497D01*
X14292Y3482D01*
X14277Y3464D01*
X14261Y3445D01*
X14229Y3442D01*
X14207Y3449D01*
X14184Y3454D01*
X14161Y3455D01*
X14138Y3454D01*
X14115Y3449D01*
X14093Y3442D01*
X14072Y3431D01*
X14053Y3418D01*
X14035Y3403D01*
X14020Y3386D01*
X14007Y3366D01*
X13997Y3346D01*
X13989Y3324D01*
X13985Y3301D01*
X13983Y3278D01*
X13985Y3254D01*
X13989Y3232D01*
X13997Y3210D01*
X14007Y3189D01*
X14020Y3169D01*
X14035Y3152D01*
X14053Y3137D01*
X14072Y3124D01*
X14093Y3114D01*
X14115Y3106D01*
X14138Y3102D01*
X14161Y3100D01*
X14184Y3102D01*
X14189Y3103D01*
X14358Y2934D01*
X14370Y2923D01*
X14376Y2919D01*
X14375Y2894D01*
X14364Y2869D01*
X11962D01*
X11957Y2872D01*
X11920Y2913D01*
X11918Y2937D01*
X11914Y2959D01*
X11906Y2981D01*
X11896Y3002D01*
X11883Y3021D01*
X11868Y3039D01*
X11850Y3054D01*
X11831Y3067D01*
X11810Y3077D01*
X11788Y3085D01*
X11765Y3089D01*
X11742Y3091D01*
X11719Y3089D01*
X11699Y3085D01*
X11695Y3085D01*
X11653Y3114D01*
X11649Y3121D01*
Y3599D01*
X11699Y3648D01*
X11709Y3661D01*
X11718Y3675D01*
X11724Y3690D01*
X11728Y3705D01*
X11728Y3708D01*
X11742Y3717D01*
X11759Y3733D01*
X11775Y3750D01*
X11788Y3769D01*
X11798Y3790D01*
X11805Y3812D01*
X11810Y3835D01*
X11811Y3858D01*
X11810Y3881D01*
X11805Y3904D01*
X11798Y3926D01*
X11788Y3947D01*
X11775Y3966D01*
X11759Y3984D01*
X11742Y3999D01*
X11723Y4012D01*
X11702Y4022D01*
X11680Y4030D01*
X11657Y4034D01*
X11634Y4036D01*
X11611Y4034D01*
X11588Y4030D01*
X11566Y4022D01*
X11545Y4012D01*
X11526Y3999D01*
X11508Y3984D01*
X11493Y3966D01*
X11480Y3947D01*
X11466Y3924D01*
X11444Y3931D01*
X11421Y3936D01*
X11398Y3937D01*
X11374Y3936D01*
X11352Y3931D01*
X11330Y3924D01*
X11309Y3914D01*
X11290Y3901D01*
X11272Y3885D01*
X11257Y3868D01*
X11244Y3849D01*
X11229Y3825D01*
X11207Y3833D01*
X11185Y3837D01*
X11161Y3839D01*
X11138Y3837D01*
X11115Y3833D01*
X11093Y3825D01*
X11073Y3815D01*
X11064Y3809D01*
X11030Y3821D01*
X11014Y3834D01*
Y3998D01*
X11141Y4125D01*
X11145Y4125D01*
X11168Y4130D01*
X11190Y4137D01*
X11211Y4148D01*
X11230Y4160D01*
X11248Y4176D01*
X11263Y4193D01*
X11276Y4213D01*
X11286Y4233D01*
X11294Y4255D01*
X11298Y4278D01*
X11300Y4301D01*
X11298Y4325D01*
X11294Y4347D01*
X11286Y4369D01*
X11276Y4390D01*
X11263Y4409D01*
X11248Y4427D01*
X11230Y4442D01*
X11211Y4455D01*
X11190Y4465D01*
X11168Y4473D01*
X11145Y4477D01*
X11122Y4479D01*
X11099Y4477D01*
X11076Y4473D01*
X11054Y4465D01*
X11033Y4455D01*
X11014Y4442D01*
X10997Y4427D01*
X10981Y4409D01*
X10968Y4390D01*
X10958Y4369D01*
X10951Y4347D01*
X10946Y4325D01*
X10946Y4320D01*
X10778Y4153D01*
X10766Y4139D01*
X10756Y4124D01*
X10748Y4108D01*
X10743Y4091D01*
X10739Y4073D01*
X10738Y4055D01*
Y3556D01*
X10735Y3553D01*
X10722Y3534D01*
X10712Y3513D01*
X10704Y3491D01*
X10700Y3468D01*
X10698Y3445D01*
X10700Y3422D01*
X10704Y3399D01*
X10712Y3377D01*
X10722Y3356D01*
X10728Y3348D01*
X10230Y2851D01*
X10217Y2842D01*
X10214Y2839D01*
X9609D01*
X9606Y2842D01*
X9587Y2855D01*
X9566Y2865D01*
X9544Y2872D01*
X9521Y2877D01*
X9498Y2878D01*
X9475Y2877D01*
X9452Y2872D01*
X9430Y2865D01*
X9409Y2855D01*
X9390Y2842D01*
X9387Y2839D01*
X9241D01*
X9240Y2840D01*
X9212Y2881D01*
X9211Y2889D01*
X9217Y2907D01*
X9221Y2930D01*
X9223Y2953D01*
X9221Y2976D01*
X9217Y2999D01*
X9209Y3021D01*
X9199Y3042D01*
X9186Y3061D01*
X9171Y3078D01*
X9153Y3094D01*
X9134Y3107D01*
X9113Y3117D01*
X9091Y3124D01*
X9068Y3129D01*
X9045Y3130D01*
X9022Y3129D01*
X8999Y3124D01*
X8977Y3117D01*
X8957Y3107D01*
X8937Y3094D01*
X8920Y3078D01*
X8904Y3061D01*
X8892Y3042D01*
X8881Y3021D01*
X8874Y2999D01*
X8869Y2976D01*
X8868Y2953D01*
X8869Y2930D01*
X8874Y2907D01*
X8880Y2889D01*
X8879Y2881D01*
X8850Y2840D01*
X8849Y2839D01*
X8664D01*
X8661Y2842D01*
X8642Y2855D01*
X8621Y2865D01*
X8599Y2872D01*
X8576Y2877D01*
X8553Y2878D01*
X8530Y2877D01*
X8507Y2872D01*
X8485Y2865D01*
X8464Y2855D01*
X8445Y2842D01*
X8442Y2839D01*
X8310D01*
X8306Y2842D01*
X8287Y2855D01*
X8266Y2865D01*
X8244Y2872D01*
X8222Y2877D01*
X8198Y2878D01*
X8175Y2877D01*
X8152Y2872D01*
X8130Y2865D01*
X8110Y2855D01*
X8090Y2842D01*
X8087Y2839D01*
X7971D01*
X7400Y3410D01*
X7578Y3588D01*
X7590Y3601D01*
X7600Y3616D01*
X7608Y3632D01*
X7614Y3649D01*
X7617Y3667D01*
X7619Y3685D01*
Y3747D01*
X7621Y3750D01*
X7634Y3770D01*
X7645Y3790D01*
X7652Y3812D01*
X7656Y3835D01*
X7658Y3858D01*
X7656Y3882D01*
X7652Y3904D01*
X7645Y3926D01*
X7634Y3947D01*
X7621Y3967D01*
X7606Y3984D01*
X7589Y3999D01*
X7569Y4012D01*
X7548Y4022D01*
X7526Y4030D01*
X7504Y4034D01*
X7499Y4035D01*
X7333Y4201D01*
Y4340D01*
X7346Y4355D01*
X7359Y4374D01*
X7369Y4395D01*
X7376Y4417D01*
X7381Y4440D01*
X7382Y4463D01*
X7381Y4486D01*
X7376Y4509D01*
X7369Y4531D01*
X7359Y4552D01*
X7346Y4571D01*
X7333Y4585D01*
Y4799D01*
X7346Y4813D01*
X7359Y4833D01*
X7369Y4853D01*
X7376Y4875D01*
X7381Y4898D01*
X7382Y4921D01*
X7381Y4945D01*
X7376Y4967D01*
X7369Y4989D01*
X7359Y5010D01*
X7346Y5030D01*
X7333Y5044D01*
Y5379D01*
X7346Y5394D01*
X7359Y5413D01*
X7369Y5434D01*
X7376Y5456D01*
X7381Y5479D01*
X7382Y5502D01*
X7381Y5525D01*
X7376Y5548D01*
X7369Y5570D01*
X7359Y5591D01*
X7346Y5610D01*
X7333Y5625D01*
Y5878D01*
X7892Y6437D01*
X7907Y6438D01*
X7930Y6443D01*
X7952Y6450D01*
X7973Y6461D01*
X7992Y6473D01*
X8010Y6489D01*
X8025Y6506D01*
X8038Y6526D01*
X8048Y6546D01*
X8055Y6568D01*
X8060Y6591D01*
X8062Y6614D01*
X8060Y6635D01*
X8856Y7431D01*
X9589D01*
X9592Y7428D01*
X9611Y7415D01*
X9632Y7405D01*
X9654Y7398D01*
X9677Y7393D01*
X9700Y7392D01*
X9723Y7393D01*
X9746Y7398D01*
X9768Y7405D01*
X9789Y7415D01*
X9808Y7428D01*
X9811Y7431D01*
X9982D01*
X10950Y6463D01*
X10951Y6460D01*
X10955Y6449D01*
Y5978D01*
X10952Y5974D01*
X10939Y5955D01*
X10935Y5947D01*
X10898Y5935D01*
X10876Y5935D01*
X10600Y6211D01*
X10601Y6221D01*
X10599Y6244D01*
X10595Y6267D01*
X10587Y6289D01*
X10577Y6309D01*
X10564Y6329D01*
X10549Y6346D01*
X10531Y6361D01*
X10512Y6374D01*
X10491Y6385D01*
X10469Y6392D01*
X10447Y6397D01*
X10423Y6398D01*
X10400Y6397D01*
X10377Y6392D01*
X10355Y6385D01*
X10335Y6374D01*
X10315Y6361D01*
X10298Y6346D01*
X10283Y6329D01*
X10270Y6309D01*
X10259Y6289D01*
X10252Y6267D01*
X10247Y6244D01*
X10246Y6221D01*
X10247Y6197D01*
X10252Y6175D01*
X10259Y6153D01*
X10270Y6132D01*
X10283Y6113D01*
X10298Y6095D01*
X10315Y6080D01*
X10335Y6067D01*
X10355Y6057D01*
X10377Y6049D01*
X10400Y6045D01*
X10423Y6043D01*
X10433Y6044D01*
X10866Y5611D01*
X10880Y5599D01*
X10896Y5589D01*
X10913Y5582D01*
X10931Y5578D01*
X10949Y5576D01*
X10957D01*
X10961Y5574D01*
X10979Y5567D01*
X10997Y5562D01*
X11015Y5561D01*
X11355D01*
X11362Y5542D01*
X11372Y5522D01*
X11385Y5502D01*
X11400Y5485D01*
X11418Y5470D01*
X11437Y5457D01*
X11458Y5446D01*
X11480Y5439D01*
X11503Y5434D01*
X11526Y5433D01*
X11549Y5434D01*
X11572Y5439D01*
X11594Y5446D01*
X11615Y5457D01*
X11634Y5470D01*
X11651Y5485D01*
X11667Y5502D01*
X11680Y5522D01*
X11690Y5542D01*
X11697Y5564D01*
X11702Y5587D01*
X11703Y5610D01*
X11702Y5634D01*
X11697Y5656D01*
X11690Y5678D01*
X11680Y5699D01*
X11667Y5718D01*
X11651Y5736D01*
X11634Y5751D01*
X11615Y5764D01*
X11594Y5774D01*
X11572Y5782D01*
X11549Y5786D01*
X11526Y5788D01*
X11503Y5786D01*
X11480Y5782D01*
X11479Y5782D01*
X11474Y5785D01*
X11457Y5792D01*
X11439Y5796D01*
X11421Y5798D01*
X11309D01*
X11302Y5802D01*
X11270Y5841D01*
X11269Y5848D01*
X11270Y5866D01*
X11269Y5889D01*
X11264Y5912D01*
X11257Y5934D01*
X11246Y5955D01*
X11234Y5974D01*
X11231Y5978D01*
Y6366D01*
X11248Y6381D01*
X11263Y6398D01*
X11276Y6417D01*
X11286Y6438D01*
X11294Y6460D01*
X11298Y6483D01*
X11300Y6506D01*
X11298Y6529D01*
X11294Y6552D01*
X11286Y6574D01*
X11276Y6595D01*
X11263Y6614D01*
X11248Y6632D01*
X11230Y6647D01*
X11211Y6660D01*
X11190Y6670D01*
X11168Y6678D01*
X11145Y6682D01*
X11122Y6684D01*
X11120Y6683D01*
X10619Y7185D01*
X10640Y7234D01*
X12116D01*
Y7904D01*
X11506D01*
Y9469D01*
X11505Y9487D01*
X11501Y9504D01*
X11496Y9521D01*
X11488Y9538D01*
X11478Y9553D01*
X11466Y9566D01*
X10945Y10087D01*
X10932Y10099D01*
X10917Y10109D01*
X10900Y10117D01*
X10883Y10122D01*
X10866Y10126D01*
X10848Y10127D01*
X9178D01*
X9159Y10173D01*
X9428Y10443D01*
X9440Y10456D01*
X9450Y10471D01*
X9458Y10487D01*
X9464Y10504D01*
X9468Y10522D01*
X9469Y10540D01*
Y11019D01*
X9515Y11038D01*
X9656Y10896D01*
X9670Y10885D01*
X9685Y10875D01*
X9701Y10867D01*
X9718Y10861D01*
X9736Y10857D01*
X9754Y10856D01*
X10620D01*
Y10659D01*
X12116D01*
Y11329D01*
X10620D01*
Y11132D01*
X9811D01*
X9457Y11487D01*
X9443Y11499D01*
X9428Y11509D01*
X9412Y11517D01*
X9395Y11522D01*
X9377Y11526D01*
X9359Y11527D01*
X9098D01*
Y11648D01*
X8760D01*
Y12404D01*
X8806Y12423D01*
X9610Y11619D01*
D02*
G37*
G36*
X8393Y14107D02*
X8411Y14091D01*
X8430Y14079D01*
X8451Y14068D01*
X8473Y14061D01*
X8484Y14059D01*
Y13935D01*
X8484Y13934D01*
Y13714D01*
X8484Y13713D01*
Y11648D01*
X8461D01*
Y11130D01*
X9098D01*
Y11251D01*
X9193D01*
Y11093D01*
X9193Y11089D01*
Y10597D01*
X8863Y10268D01*
X8851Y10254D01*
X8847Y10248D01*
X8461D01*
Y9861D01*
X8419Y9843D01*
X8411Y9842D01*
X8395Y9855D01*
X8376Y9868D01*
X8355Y9879D01*
X8333Y9886D01*
X8311Y9891D01*
X8287Y9892D01*
X8264Y9891D01*
X8241Y9886D01*
X8219Y9879D01*
X8199Y9868D01*
X8179Y9855D01*
X8162Y9840D01*
X8147Y9823D01*
X8134Y9803D01*
X8123Y9783D01*
X8116Y9761D01*
X8111Y9738D01*
X8110Y9715D01*
X8111Y9691D01*
X8116Y9669D01*
X8123Y9647D01*
X8134Y9626D01*
X8147Y9606D01*
X8162Y9589D01*
X8179Y9574D01*
X8199Y9561D01*
X8219Y9551D01*
X8241Y9543D01*
X8264Y9539D01*
X8278Y9538D01*
X8293Y9514D01*
X8298Y9488D01*
X8042Y9232D01*
X8030Y9218D01*
X8020Y9203D01*
X8012Y9187D01*
X8006Y9170D01*
X8003Y9152D01*
X8002Y9134D01*
Y8671D01*
X7923D01*
Y8396D01*
X7923D01*
Y8288D01*
X8051D01*
Y8238D01*
X8100D01*
Y8081D01*
X8356D01*
Y8102D01*
X8789D01*
Y8217D01*
X8823Y8233D01*
X8839Y8234D01*
X8851Y8221D01*
X8868Y8206D01*
X8888Y8193D01*
X8908Y8182D01*
X8930Y8175D01*
X8953Y8170D01*
X8976Y8169D01*
X9000Y8170D01*
X9022Y8175D01*
X9044Y8182D01*
X9065Y8193D01*
X9084Y8206D01*
X9102Y8221D01*
X9117Y8238D01*
X9130Y8258D01*
X9140Y8279D01*
X9148Y8300D01*
X9152Y8323D01*
X9154Y8346D01*
X9152Y8370D01*
X9148Y8392D01*
X9140Y8414D01*
X9130Y8435D01*
X9117Y8455D01*
X9104Y8469D01*
X9117Y8484D01*
X9130Y8504D01*
X9140Y8525D01*
X9148Y8547D01*
X9152Y8569D01*
X9154Y8593D01*
X9152Y8616D01*
X9148Y8638D01*
X9140Y8660D01*
X9130Y8681D01*
X9117Y8701D01*
X9102Y8718D01*
X9084Y8733D01*
X9065Y8746D01*
X9044Y8757D01*
X9022Y8764D01*
X9000Y8769D01*
X8976Y8770D01*
X8953Y8769D01*
X8930Y8764D01*
X8908Y8757D01*
X8888Y8746D01*
X8868Y8733D01*
X8866Y8731D01*
X8852Y8729D01*
X8820Y8736D01*
X8806Y8743D01*
X8805Y8745D01*
X8792Y8765D01*
X8777Y8782D01*
X8760Y8797D01*
X8740Y8810D01*
X8720Y8821D01*
X8698Y8828D01*
X8675Y8833D01*
X8652Y8834D01*
X8628Y8833D01*
X8606Y8828D01*
X8584Y8821D01*
X8563Y8810D01*
X8543Y8797D01*
X8526Y8782D01*
X8511Y8765D01*
X8498Y8745D01*
X8488Y8724D01*
X8480Y8702D01*
X8476Y8680D01*
X8474Y8656D01*
X8475Y8641D01*
X8471Y8628D01*
X8438Y8591D01*
X8356D01*
Y8671D01*
X8278D01*
Y9077D01*
X8805Y9603D01*
X8816Y9617D01*
X8826Y9632D01*
X8834Y9648D01*
X8840Y9665D01*
X8844Y9683D01*
X8845Y9701D01*
Y9730D01*
X9098D01*
Y9851D01*
X10790D01*
X11230Y9411D01*
Y7904D01*
X10810D01*
X10794Y7909D01*
X10776Y7912D01*
X10758Y7914D01*
X10740Y7912D01*
X10722Y7909D01*
X10706Y7904D01*
X10620D01*
Y7780D01*
X10620Y7776D01*
Y7766D01*
X10620Y7761D01*
Y7254D01*
X10570Y7233D01*
X10137Y7667D01*
X10124Y7678D01*
X10109Y7688D01*
X10093Y7696D01*
X10075Y7702D01*
X10058Y7706D01*
X10040Y7707D01*
X9811D01*
X9808Y7710D01*
X9789Y7723D01*
X9768Y7733D01*
X9746Y7741D01*
X9723Y7745D01*
X9700Y7747D01*
X9677Y7745D01*
X9654Y7741D01*
X9632Y7733D01*
X9611Y7723D01*
X9592Y7710D01*
X9589Y7707D01*
X8799D01*
X8781Y7706D01*
X8763Y7702D01*
X8746Y7696D01*
X8730Y7688D01*
X8715Y7678D01*
X8702Y7667D01*
X7811Y6776D01*
X7795Y6768D01*
X7776Y6755D01*
X7758Y6740D01*
X7743Y6722D01*
X7730Y6703D01*
X7720Y6682D01*
X7713Y6660D01*
X7709Y6645D01*
X7097Y6033D01*
X7085Y6019D01*
X7075Y6004D01*
X7067Y5988D01*
X7061Y5971D01*
X7058Y5953D01*
X7057Y5935D01*
Y5599D01*
X7051Y5591D01*
X7041Y5570D01*
X7033Y5548D01*
X7029Y5525D01*
X7027Y5502D01*
X7029Y5479D01*
X7033Y5456D01*
X7041Y5434D01*
X7051Y5413D01*
X7057Y5405D01*
Y5019D01*
X7051Y5010D01*
X7041Y4989D01*
X7033Y4967D01*
X7029Y4945D01*
X7027Y4921D01*
X7029Y4898D01*
X7033Y4875D01*
X7041Y4853D01*
X7051Y4833D01*
X7057Y4824D01*
Y4560D01*
X7051Y4552D01*
X7041Y4531D01*
X7033Y4509D01*
X7029Y4486D01*
X7027Y4463D01*
X7029Y4440D01*
X7033Y4417D01*
X7041Y4395D01*
X7051Y4374D01*
X7057Y4365D01*
Y4144D01*
X7058Y4126D01*
X7061Y4108D01*
X7067Y4091D01*
X7075Y4075D01*
X7085Y4060D01*
X7097Y4046D01*
X7304Y3839D01*
X7304Y3835D01*
X7309Y3812D01*
X7316Y3790D01*
X7327Y3770D01*
X7340Y3750D01*
X7342Y3747D01*
Y3742D01*
X7186Y3586D01*
X7182Y3586D01*
X7159Y3581D01*
X7137Y3574D01*
X7116Y3563D01*
X7097Y3550D01*
X7079Y3535D01*
X7064Y3518D01*
X7051Y3498D01*
X7041Y3478D01*
X7033Y3456D01*
X7032Y3449D01*
X7011Y3454D01*
X6988Y3455D01*
X6965Y3454D01*
X6957Y3452D01*
X6953Y3471D01*
X6946Y3493D01*
X6935Y3514D01*
X6922Y3533D01*
X6908Y3550D01*
X6922Y3566D01*
X6935Y3586D01*
X6946Y3606D01*
X6953Y3628D01*
X6958Y3651D01*
X6959Y3674D01*
X6958Y3698D01*
X6953Y3720D01*
X6946Y3742D01*
X6935Y3763D01*
X6922Y3782D01*
X6909Y3797D01*
X6922Y3812D01*
X6935Y3832D01*
X6946Y3852D01*
X6953Y3874D01*
X6958Y3897D01*
X6959Y3920D01*
X6958Y3944D01*
X6953Y3966D01*
X6946Y3988D01*
X6935Y4009D01*
X6922Y4029D01*
X6907Y4046D01*
X6890Y4061D01*
X6870Y4074D01*
X6849Y4084D01*
X6827Y4092D01*
X6805Y4096D01*
X6781Y4098D01*
X6758Y4096D01*
X6736Y4092D01*
X6714Y4084D01*
X6693Y4074D01*
X6673Y4061D01*
X6656Y4046D01*
X6641Y4029D01*
X6628Y4009D01*
X6617Y3988D01*
X6615Y3980D01*
X6453D01*
X6408Y4025D01*
Y4547D01*
X6413Y4566D01*
X6435Y4571D01*
X6457Y4578D01*
X6478Y4589D01*
X6497Y4601D01*
X6515Y4617D01*
X6530Y4634D01*
X6543Y4654D01*
X6553Y4674D01*
X6561Y4696D01*
X6565Y4719D01*
X6567Y4742D01*
X6565Y4766D01*
X6561Y4788D01*
X6553Y4810D01*
X6543Y4831D01*
X6530Y4850D01*
X6515Y4868D01*
X6497Y4883D01*
X6478Y4896D01*
X6457Y4906D01*
X6435Y4914D01*
X6413Y4918D01*
X6389Y4920D01*
X6388Y4920D01*
X6387Y4935D01*
X6382Y4957D01*
X6375Y4979D01*
X6364Y5000D01*
X6351Y5020D01*
X6336Y5037D01*
X6319Y5052D01*
X6299Y5065D01*
X6279Y5075D01*
X6257Y5083D01*
X6234Y5087D01*
X6211Y5089D01*
X6187Y5087D01*
X6165Y5083D01*
X6143Y5075D01*
X6122Y5065D01*
X6103Y5052D01*
X6085Y5037D01*
X6084Y5036D01*
X6034Y5054D01*
Y5154D01*
X6041Y5164D01*
X6084Y5188D01*
X6086Y5188D01*
X6109Y5183D01*
X6132Y5182D01*
X6155Y5183D01*
X6178Y5188D01*
X6200Y5195D01*
X6221Y5205D01*
X6240Y5218D01*
X6257Y5234D01*
X6273Y5251D01*
X6286Y5270D01*
X6296Y5291D01*
X6303Y5312D01*
X6303Y5313D01*
X6333Y5341D01*
X6359Y5347D01*
X6365Y5346D01*
X6388Y5344D01*
X6411Y5346D01*
X6434Y5350D01*
X6456Y5358D01*
X6477Y5368D01*
X6496Y5381D01*
X6513Y5396D01*
X6529Y5414D01*
X6542Y5433D01*
X6552Y5454D01*
X6559Y5476D01*
X6564Y5498D01*
X6565Y5522D01*
X6564Y5545D01*
X6559Y5568D01*
X6552Y5590D01*
X6542Y5610D01*
X6529Y5630D01*
X6513Y5647D01*
X6496Y5663D01*
X6477Y5675D01*
X6456Y5686D01*
X6434Y5693D01*
X6411Y5698D01*
X6388Y5699D01*
X6365Y5698D01*
X6342Y5693D01*
X6338Y5692D01*
X6319Y5704D01*
X6302Y5725D01*
X6300Y5731D01*
X6303Y5741D01*
X6308Y5764D01*
X6309Y5787D01*
X6308Y5811D01*
X6303Y5833D01*
X6296Y5855D01*
X6286Y5876D01*
X6273Y5895D01*
X6257Y5913D01*
X6240Y5928D01*
X6221Y5941D01*
X6200Y5951D01*
X6178Y5959D01*
X6155Y5963D01*
X6132Y5965D01*
X6109Y5963D01*
X6086Y5959D01*
X6084Y5958D01*
X6041Y5982D01*
X6034Y5992D01*
Y6673D01*
X6032Y6691D01*
X6028Y6709D01*
X6021Y6727D01*
X6011Y6742D01*
X5999Y6757D01*
X5654Y7101D01*
X5640Y7114D01*
X5624Y7123D01*
X5607Y7130D01*
X5589Y7135D01*
X5570Y7136D01*
X4813D01*
X4794Y7135D01*
X4776Y7130D01*
X4759Y7123D01*
X4743Y7114D01*
X4729Y7101D01*
X4567Y6939D01*
X4555Y6925D01*
X4545Y6909D01*
X4538Y6892D01*
X4534Y6874D01*
X4533Y6870D01*
X4406D01*
Y6732D01*
X4356D01*
Y6682D01*
X4224D01*
Y6594D01*
X4364D01*
X4369Y6592D01*
X4378Y6585D01*
X4400Y6551D01*
X4401Y6544D01*
X4401Y6544D01*
X4399Y6526D01*
Y6417D01*
X4193D01*
Y5945D01*
X5256D01*
Y6417D01*
X5030D01*
Y6526D01*
X5028Y6544D01*
X5028Y6544D01*
X5029Y6551D01*
X5051Y6585D01*
X5060Y6592D01*
X5065Y6594D01*
X5183D01*
Y6771D01*
X5468D01*
X5669Y6571D01*
Y5866D01*
X5276D01*
Y4685D01*
X5669D01*
Y4748D01*
X5719Y4769D01*
X6043Y4445D01*
Y3923D01*
X6044Y3905D01*
X6049Y3887D01*
X6056Y3870D01*
X6066Y3854D01*
X6078Y3840D01*
X6268Y3650D01*
X6282Y3638D01*
X6298Y3628D01*
X6315Y3621D01*
X6333Y3616D01*
X6351Y3615D01*
X6615D01*
X6617Y3606D01*
X6628Y3586D01*
X6641Y3566D01*
X6655Y3550D01*
X6641Y3533D01*
X6628Y3514D01*
X6617Y3493D01*
X6610Y3471D01*
X6605Y3448D01*
X6604Y3425D01*
X6605Y3402D01*
X6610Y3379D01*
X6617Y3357D01*
X6628Y3336D01*
X6641Y3317D01*
X6656Y3300D01*
X6673Y3284D01*
X6693Y3271D01*
X6714Y3261D01*
X6736Y3254D01*
X6758Y3249D01*
X6781Y3248D01*
X6805Y3249D01*
X6813Y3251D01*
X6817Y3232D01*
X6824Y3210D01*
X6834Y3189D01*
X6847Y3169D01*
X6863Y3152D01*
X6880Y3137D01*
X6899Y3124D01*
X6920Y3114D01*
X6942Y3106D01*
X6965Y3102D01*
X6988Y3100D01*
X7010Y3101D01*
X7014Y3084D01*
X7021Y3062D01*
X7031Y3041D01*
X7044Y3022D01*
X7060Y3004D01*
X7077Y2989D01*
X7089Y2981D01*
X7093Y2953D01*
X7089Y2924D01*
X7077Y2916D01*
X7060Y2901D01*
X7044Y2884D01*
X7031Y2864D01*
X7021Y2844D01*
X7014Y2822D01*
X7009Y2799D01*
X7007Y2776D01*
X7009Y2752D01*
X7014Y2730D01*
X7021Y2708D01*
X7031Y2687D01*
X7044Y2668D01*
X7060Y2650D01*
X7077Y2635D01*
X7089Y2627D01*
X7093Y2598D01*
X7089Y2570D01*
X7077Y2562D01*
X7060Y2547D01*
X7044Y2529D01*
X7031Y2510D01*
X7021Y2489D01*
X7014Y2467D01*
X7009Y2444D01*
X7007Y2421D01*
X7009Y2398D01*
X7014Y2375D01*
X7021Y2353D01*
X7031Y2332D01*
X7044Y2313D01*
X7060Y2296D01*
X7077Y2280D01*
X7096Y2268D01*
X7117Y2257D01*
X7139Y2250D01*
X7162Y2245D01*
X7185Y2244D01*
X7208Y2245D01*
X7231Y2250D01*
X7253Y2257D01*
X7274Y2268D01*
X7293Y2280D01*
X7311Y2296D01*
X7326Y2313D01*
X7339Y2332D01*
X7349Y2353D01*
X7357Y2375D01*
X7361Y2398D01*
X7363Y2421D01*
X7385Y2422D01*
X7408Y2427D01*
X7430Y2434D01*
X7451Y2445D01*
X7470Y2458D01*
X7488Y2473D01*
X7503Y2490D01*
X7516Y2510D01*
X7526Y2530D01*
X7534Y2552D01*
X7538Y2575D01*
X7540Y2598D01*
X7538Y2622D01*
X7534Y2644D01*
X7526Y2666D01*
X7516Y2687D01*
X7503Y2707D01*
X7488Y2724D01*
X7470Y2739D01*
X7459Y2747D01*
X7454Y2776D01*
X7459Y2804D01*
X7470Y2812D01*
X7488Y2827D01*
X7503Y2845D01*
X7503Y2845D01*
X7554Y2856D01*
X7566Y2853D01*
X7816Y2603D01*
X7829Y2591D01*
X7844Y2581D01*
X7861Y2573D01*
X7878Y2568D01*
X7895Y2564D01*
X7914Y2563D01*
X8087D01*
X8090Y2560D01*
X8110Y2547D01*
X8130Y2537D01*
X8152Y2529D01*
X8175Y2525D01*
X8198Y2523D01*
X8222Y2525D01*
X8244Y2529D01*
X8266Y2537D01*
X8287Y2547D01*
X8306Y2560D01*
X8308Y2562D01*
X8359Y2559D01*
X8379Y2532D01*
X8387Y2513D01*
X8382Y2497D01*
X8377Y2474D01*
X8376Y2451D01*
X8377Y2428D01*
X8382Y2405D01*
X8389Y2383D01*
X8399Y2362D01*
X8412Y2343D01*
X8425Y2328D01*
X8412Y2313D01*
X8399Y2294D01*
X8389Y2273D01*
X8382Y2251D01*
X8377Y2228D01*
X8376Y2205D01*
X8377Y2182D01*
X8382Y2159D01*
X8389Y2137D01*
X8399Y2116D01*
X8412Y2097D01*
X8428Y2079D01*
X8445Y2064D01*
X8464Y2051D01*
X8485Y2041D01*
X8507Y2033D01*
X8530Y2029D01*
X8553Y2027D01*
X8576Y2029D01*
X8599Y2033D01*
X8621Y2041D01*
X8642Y2051D01*
X8661Y2064D01*
X8679Y2079D01*
X8694Y2097D01*
X8707Y2116D01*
X8717Y2137D01*
X8725Y2159D01*
X8729Y2182D01*
X8731Y2205D01*
X8729Y2228D01*
X8725Y2251D01*
X8717Y2273D01*
X8707Y2294D01*
X8694Y2313D01*
X8681Y2328D01*
X8694Y2343D01*
X8707Y2362D01*
X8717Y2383D01*
X8725Y2405D01*
X8729Y2428D01*
X8731Y2451D01*
X8729Y2474D01*
X8725Y2497D01*
X8719Y2513D01*
X8727Y2532D01*
X8750Y2563D01*
X8934D01*
X8938Y2560D01*
X8957Y2547D01*
X8978Y2537D01*
X9000Y2529D01*
X9022Y2525D01*
X9046Y2523D01*
X9069Y2525D01*
X9092Y2529D01*
X9114Y2537D01*
X9134Y2547D01*
X9154Y2560D01*
X9157Y2563D01*
X9301D01*
X9324Y2532D01*
X9332Y2513D01*
X9327Y2497D01*
X9322Y2474D01*
X9320Y2451D01*
X9322Y2428D01*
X9327Y2405D01*
X9334Y2383D01*
X9344Y2362D01*
X9357Y2343D01*
X9370Y2328D01*
X9357Y2313D01*
X9344Y2294D01*
X9334Y2273D01*
X9327Y2251D01*
X9322Y2228D01*
X9320Y2205D01*
X9322Y2182D01*
X9327Y2159D01*
X9334Y2137D01*
X9344Y2116D01*
X9357Y2097D01*
X9372Y2079D01*
X9390Y2064D01*
X9409Y2051D01*
X9430Y2041D01*
X9452Y2033D01*
X9475Y2029D01*
X9498Y2027D01*
X9521Y2029D01*
X9544Y2033D01*
X9566Y2041D01*
X9587Y2051D01*
X9606Y2064D01*
X9624Y2079D01*
X9639Y2097D01*
X9652Y2116D01*
X9662Y2137D01*
X9670Y2159D01*
X9674Y2182D01*
X9676Y2205D01*
X9674Y2228D01*
X9670Y2251D01*
X9662Y2273D01*
X9652Y2294D01*
X9639Y2313D01*
X9626Y2328D01*
X9639Y2343D01*
X9652Y2362D01*
X9662Y2383D01*
X9670Y2405D01*
X9674Y2428D01*
X9676Y2451D01*
X9674Y2474D01*
X9670Y2497D01*
X9664Y2513D01*
X9672Y2532D01*
X9695Y2563D01*
X10214D01*
X10217Y2560D01*
X10236Y2547D01*
X10257Y2537D01*
X10279Y2529D01*
X10302Y2525D01*
X10325Y2523D01*
X10348Y2525D01*
X10371Y2529D01*
X10393Y2537D01*
X10414Y2547D01*
X10433Y2560D01*
X10451Y2575D01*
X10455Y2581D01*
X10473Y2566D01*
X10492Y2553D01*
X10513Y2543D01*
X10535Y2535D01*
X10558Y2531D01*
X10581Y2529D01*
X10604Y2531D01*
X10627Y2535D01*
X10649Y2543D01*
X10669Y2553D01*
X10689Y2566D01*
X10706Y2581D01*
X10722Y2599D01*
X10734Y2618D01*
X10745Y2639D01*
X10752Y2661D01*
X10755Y2674D01*
X10778Y2687D01*
X10807Y2692D01*
X10817Y2684D01*
X10836Y2671D01*
X10857Y2661D01*
X10879Y2653D01*
X10902Y2649D01*
X10925Y2647D01*
X10948Y2649D01*
X10956Y2650D01*
X10974Y2640D01*
X10986Y2628D01*
X10997Y2609D01*
X10995Y2602D01*
X10994Y2579D01*
X10995Y2556D01*
X10999Y2538D01*
X10978Y2534D01*
X10956Y2526D01*
X10935Y2516D01*
X10916Y2503D01*
X10898Y2488D01*
X10883Y2470D01*
X10870Y2451D01*
X10860Y2430D01*
X10852Y2408D01*
X10848Y2385D01*
X10846Y2362D01*
X10847Y2345D01*
X10844Y2341D01*
X10836Y2333D01*
X10801Y2317D01*
X10797Y2319D01*
X10777Y2329D01*
X10755Y2337D01*
X10732Y2341D01*
X10709Y2343D01*
X10685Y2341D01*
X10663Y2337D01*
X10641Y2329D01*
X10620Y2319D01*
X10601Y2306D01*
X10583Y2291D01*
X10568Y2273D01*
X10555Y2254D01*
X10545Y2233D01*
X10537Y2211D01*
X10533Y2189D01*
X10532Y2179D01*
X10527Y2162D01*
X10499Y2135D01*
X10484Y2132D01*
X10473Y2131D01*
X10450Y2126D01*
X10428Y2119D01*
X10407Y2109D01*
X10388Y2096D01*
X10370Y2080D01*
X10355Y2063D01*
X10342Y2044D01*
X10332Y2023D01*
X10324Y2001D01*
X10320Y1978D01*
X10318Y1955D01*
X10320Y1932D01*
X10324Y1909D01*
X10332Y1887D01*
X10342Y1866D01*
X10355Y1847D01*
X10370Y1829D01*
X10388Y1814D01*
X10407Y1801D01*
X10428Y1791D01*
X10450Y1783D01*
X10473Y1779D01*
X10496Y1777D01*
X10519Y1779D01*
X10542Y1783D01*
X10564Y1791D01*
X10585Y1801D01*
X10604Y1814D01*
X10622Y1829D01*
X10637Y1847D01*
X10650Y1866D01*
X10660Y1887D01*
X10667Y1909D01*
X10672Y1932D01*
X10673Y1941D01*
X10677Y1958D01*
X10706Y1985D01*
X10721Y1989D01*
X10732Y1989D01*
X10755Y1994D01*
X10777Y2001D01*
X10797Y2012D01*
X10817Y2025D01*
X10834Y2040D01*
X10850Y2057D01*
X10862Y2077D01*
X10873Y2097D01*
X10880Y2119D01*
X10885Y2142D01*
X10886Y2165D01*
X10885Y2183D01*
X10888Y2187D01*
X10897Y2194D01*
X10931Y2211D01*
X10935Y2208D01*
X10956Y2198D01*
X10978Y2191D01*
X11000Y2186D01*
X11024Y2185D01*
X11047Y2186D01*
X11070Y2191D01*
X11092Y2198D01*
X11112Y2208D01*
X11132Y2221D01*
X11149Y2237D01*
X11164Y2254D01*
X11177Y2273D01*
X11188Y2294D01*
X11195Y2316D01*
X11245Y2310D01*
Y1689D01*
X11017Y1462D01*
X8653D01*
X8422Y1692D01*
X8410Y1703D01*
X8396Y1711D01*
X8381Y1718D01*
X8365Y1721D01*
X8349Y1723D01*
X7419D01*
X7403Y1721D01*
X7387Y1718D01*
X7372Y1711D01*
X7358Y1703D01*
X7346Y1692D01*
X7115Y1462D01*
X4769D01*
X4365Y1865D01*
Y4026D01*
X4364Y4042D01*
X4360Y4058D01*
X4354Y4073D01*
X4346Y4087D01*
X4335Y4099D01*
X3799Y4635D01*
X3820Y4685D01*
X4173D01*
Y5866D01*
X3780D01*
Y4771D01*
X3730Y4745D01*
X3717Y4753D01*
Y5028D01*
X2760D01*
X2723Y5059D01*
Y5117D01*
X2721Y5138D01*
X2717Y5158D01*
X2711Y5178D01*
X2702Y5196D01*
X2690Y5213D01*
X2677Y5229D01*
X1319Y6586D01*
Y7641D01*
X1331Y7656D01*
X1369Y7679D01*
X1374Y7678D01*
X1398Y7677D01*
X1421Y7678D01*
X1444Y7683D01*
X1466Y7690D01*
X1486Y7700D01*
X1695D01*
X1713Y7657D01*
X1713Y7607D01*
Y7511D01*
X2096D01*
X2480D01*
Y7607D01*
X2480Y7657D01*
X2510Y7695D01*
X2702D01*
X2722Y7697D01*
X2742Y7701D01*
X2761Y7707D01*
X2779Y7716D01*
X2796Y7727D01*
X2811Y7740D01*
X3164Y8094D01*
X4695D01*
X4715Y8095D01*
X4735Y8099D01*
X4754Y8106D01*
X4772Y8115D01*
X4789Y8126D01*
X4804Y8139D01*
X4973Y8308D01*
X5019Y8289D01*
Y8074D01*
X5017Y8071D01*
X5004Y8051D01*
X4993Y8031D01*
X4986Y8009D01*
X4981Y7986D01*
X4980Y7963D01*
X4981Y7939D01*
X4986Y7917D01*
X4993Y7895D01*
X5004Y7874D01*
X5017Y7855D01*
X5032Y7837D01*
X5049Y7822D01*
X5069Y7809D01*
X5090Y7799D01*
X5112Y7791D01*
X5134Y7787D01*
X5157Y7785D01*
X5181Y7787D01*
X5203Y7791D01*
X5225Y7799D01*
X5246Y7809D01*
X5266Y7822D01*
X5283Y7837D01*
X5298Y7855D01*
X5311Y7874D01*
X5322Y7895D01*
X5329Y7917D01*
X5334Y7939D01*
X5335Y7963D01*
X5334Y7986D01*
X5329Y8009D01*
X5322Y8031D01*
X5311Y8051D01*
X5298Y8071D01*
X5296Y8074D01*
Y8319D01*
X8301Y11325D01*
X8313Y11338D01*
X8323Y11353D01*
X8331Y11369D01*
X8337Y11386D01*
X8341Y11404D01*
X8342Y11422D01*
Y14089D01*
X8392Y14108D01*
X8393Y14107D01*
D02*
G37*
G36*
X170Y13888D02*
X183Y13878D01*
X197Y13869D01*
X212Y13863D01*
X227Y13859D01*
X234Y13859D01*
X251Y13839D01*
X263Y13808D01*
X257Y13795D01*
X248Y13769D01*
X241Y13743D01*
X237Y13716D01*
X236Y13689D01*
X237Y13662D01*
X241Y13635D01*
X248Y13609D01*
X257Y13583D01*
X268Y13559D01*
X282Y13536D01*
X299Y13514D01*
X317Y13494D01*
X337Y13476D01*
X359Y13460D01*
X382Y13446D01*
X406Y13434D01*
X432Y13425D01*
X458Y13418D01*
X485Y13414D01*
X512Y13413D01*
X590D01*
Y12815D01*
X295D01*
Y12264D01*
X590D01*
Y11713D01*
X295D01*
Y11161D01*
X590D01*
Y10563D01*
X512D01*
X485Y10562D01*
X458Y10558D01*
X432Y10551D01*
X406Y10542D01*
X382Y10531D01*
X359Y10517D01*
X337Y10501D01*
X317Y10482D01*
X299Y10462D01*
X282Y10441D01*
X268Y10417D01*
X257Y10393D01*
X248Y10367D01*
X241Y10341D01*
X237Y10314D01*
X236Y10287D01*
X237Y10260D01*
X241Y10234D01*
X248Y10207D01*
X257Y10182D01*
X268Y10157D01*
X282Y10134D01*
X299Y10112D01*
X317Y10092D01*
X337Y10074D01*
X359Y10058D01*
X382Y10044D01*
X406Y10032D01*
X432Y10023D01*
X458Y10017D01*
X485Y10013D01*
X511Y10011D01*
Y9561D01*
X513Y9538D01*
X517Y9518D01*
X517Y9514D01*
X487Y9472D01*
X481Y9469D01*
X138D01*
X96Y9489D01*
Y13897D01*
X143Y13916D01*
X170Y13888D01*
D02*
G37*
G36*
X18485Y9688D02*
Y8491D01*
X18486Y8475D01*
X18490Y8459D01*
X18496Y8444D01*
X18505Y8430D01*
X18515Y8418D01*
X18883Y8051D01*
Y6763D01*
X18884Y6747D01*
X18888Y6731D01*
X18894Y6716D01*
X18902Y6702D01*
X18913Y6690D01*
X19141Y6462D01*
X19144Y6453D01*
X19138Y6403D01*
X19135Y6398D01*
X19121Y6385D01*
X19105Y6368D01*
X19092Y6349D01*
X19082Y6328D01*
X19075Y6306D01*
X19070Y6283D01*
X19069Y6260D01*
X19070Y6237D01*
X19071Y6231D01*
X18981Y6141D01*
X18970Y6129D01*
X18962Y6115D01*
X18956Y6100D01*
X18952Y6084D01*
X18950Y6068D01*
Y3694D01*
X18126Y2869D01*
X14855D01*
X14844Y2894D01*
X14842Y2919D01*
X14848Y2923D01*
X14861Y2934D01*
X15019Y3092D01*
X15030Y3105D01*
X15038Y3118D01*
X15044Y3133D01*
X15048Y3149D01*
X15050Y3165D01*
Y3959D01*
X15213Y4123D01*
X15213Y4123D01*
X15264Y4173D01*
X15274Y4185D01*
X15283Y4199D01*
X15289Y4214D01*
X15293Y4230D01*
X15294Y4246D01*
Y6132D01*
X15327Y6147D01*
X15344Y6148D01*
X15355Y6136D01*
X15373Y6120D01*
X15392Y6107D01*
X15413Y6097D01*
X15435Y6090D01*
X15458Y6085D01*
X15481Y6084D01*
X15504Y6085D01*
X15527Y6090D01*
X15549Y6097D01*
X15570Y6107D01*
X15589Y6120D01*
X15592Y6123D01*
X15730D01*
X15748Y6124D01*
X15765Y6128D01*
X15783Y6134D01*
X15799Y6142D01*
X15814Y6152D01*
X15827Y6164D01*
X16387Y6723D01*
X16399Y6737D01*
X16409Y6752D01*
X16417Y6768D01*
X16423Y6785D01*
X16426Y6803D01*
X16427Y6821D01*
Y8110D01*
X16426Y8128D01*
X16423Y8146D01*
X16417Y8163D01*
X16409Y8179D01*
X16399Y8194D01*
X16387Y8208D01*
X15999Y8596D01*
X15999Y8600D01*
X15994Y8623D01*
X15987Y8645D01*
X15976Y8666D01*
X15963Y8685D01*
X15948Y8703D01*
X15931Y8718D01*
X15911Y8731D01*
X15890Y8741D01*
X15868Y8749D01*
X15846Y8753D01*
X15823Y8755D01*
X15799Y8753D01*
X15777Y8749D01*
X15755Y8741D01*
X15734Y8731D01*
X15714Y8718D01*
X15697Y8703D01*
X15682Y8685D01*
X15669Y8666D01*
X15659Y8645D01*
X15651Y8623D01*
X15647Y8600D01*
X15645Y8577D01*
X15647Y8554D01*
X15651Y8531D01*
X15659Y8509D01*
X15669Y8488D01*
X15682Y8469D01*
X15697Y8452D01*
X15714Y8436D01*
X15734Y8423D01*
X15755Y8413D01*
X15777Y8406D01*
X15799Y8401D01*
X15804Y8401D01*
X16151Y8053D01*
Y6878D01*
X16054Y6781D01*
X16004Y6802D01*
Y7584D01*
X16004Y7584D01*
Y7695D01*
X16003Y7711D01*
X15999Y7727D01*
X15993Y7742D01*
X15984Y7756D01*
X15974Y7768D01*
X15266Y8476D01*
Y9204D01*
X15326Y9264D01*
X15331Y9263D01*
X15354Y9261D01*
X15378Y9263D01*
X15400Y9267D01*
X15422Y9275D01*
X15443Y9285D01*
X15462Y9298D01*
X15480Y9313D01*
X15495Y9331D01*
X15508Y9350D01*
X15518Y9371D01*
X15526Y9393D01*
X15530Y9416D01*
X15532Y9439D01*
X15530Y9462D01*
X15526Y9485D01*
X15518Y9507D01*
X15508Y9528D01*
X15495Y9547D01*
X15480Y9565D01*
X15462Y9580D01*
X15443Y9593D01*
X15422Y9603D01*
X15400Y9610D01*
X15378Y9615D01*
X15354Y9617D01*
X15331Y9615D01*
X15308Y9610D01*
X15286Y9603D01*
X15266Y9593D01*
X15246Y9580D01*
X15229Y9565D01*
X15218Y9552D01*
X15200Y9553D01*
X15168Y9568D01*
Y9759D01*
X15264Y9855D01*
X15277Y9858D01*
X15299Y9866D01*
X15320Y9876D01*
X15339Y9889D01*
X15357Y9904D01*
X15372Y9921D01*
X15385Y9941D01*
X15395Y9962D01*
X15403Y9984D01*
X15407Y10006D01*
X15409Y10030D01*
X15407Y10053D01*
X15403Y10075D01*
X15400Y10085D01*
X15415Y10118D01*
X15433Y10135D01*
X18038D01*
X18485Y9688D01*
D02*
G37*
G36*
X13983Y8033D02*
X14006Y8031D01*
X14024Y8032D01*
X14031Y8031D01*
X14071Y8000D01*
X14074Y7992D01*
Y6911D01*
X14026Y6889D01*
X13973Y6942D01*
X13972Y6943D01*
X13961Y6956D01*
X13937Y6979D01*
Y7495D01*
X13936Y7511D01*
X13932Y7527D01*
X13926Y7542D01*
X13918Y7556D01*
X13907Y7568D01*
X13837Y7638D01*
Y7893D01*
X13978Y8034D01*
X13983Y8033D01*
D02*
G37*
G36*
X15452Y7857D02*
Y6869D01*
X15361Y6778D01*
X15315Y6797D01*
Y7929D01*
X15361Y7948D01*
X15452Y7857D01*
D02*
G37*
G36*
X15797Y7652D02*
Y7584D01*
X15797Y7584D01*
Y6791D01*
X15698Y6693D01*
X15693Y6694D01*
X15670Y6695D01*
X15647Y6694D01*
X15640Y6692D01*
X15615Y6738D01*
X15629Y6752D01*
X15640Y6765D01*
X15648Y6779D01*
X15655Y6794D01*
X15659Y6810D01*
X15660Y6826D01*
Y7724D01*
X15706Y7743D01*
X15797Y7652D01*
D02*
G37*
G36*
X15108Y8062D02*
Y6663D01*
X15044Y6599D01*
X14971Y6672D01*
Y8134D01*
X15017Y8153D01*
X15108Y8062D01*
D02*
G37*
G36*
X14360Y8497D02*
X14419Y8437D01*
Y6403D01*
X14420Y6386D01*
X14424Y6371D01*
X14430Y6355D01*
X14439Y6342D01*
X14449Y6329D01*
X14629Y6149D01*
Y5768D01*
X14588Y5742D01*
X14584Y5740D01*
X14566Y5753D01*
X14545Y5763D01*
X14523Y5771D01*
X14500Y5775D01*
X14477Y5777D01*
X14454Y5775D01*
X14449Y5774D01*
X14282Y5941D01*
Y6892D01*
X14282Y6892D01*
Y8426D01*
X14288Y8435D01*
X14298Y8456D01*
X14305Y8478D01*
X14306Y8480D01*
X14352Y8497D01*
X14360Y8497D01*
D02*
G37*
G36*
X14690Y4887D02*
Y4182D01*
X14643Y4162D01*
X14517Y4289D01*
Y4554D01*
X14517Y4554D01*
Y4779D01*
X14643Y4906D01*
X14690Y4887D01*
D02*
G37*
G36*
X15087Y5145D02*
Y4289D01*
X15067Y4269D01*
X15067Y4269D01*
X14943Y4145D01*
X14897Y4165D01*
Y5020D01*
X15041Y5164D01*
X15087Y5145D01*
D02*
G37*
G36*
X8412Y1410D02*
X8393Y1364D01*
X7375D01*
X7356Y1410D01*
X7462Y1515D01*
X8306D01*
X8412Y1410D01*
D02*
G37*
G36*
X8431Y1110D02*
X8306Y985D01*
X7462D01*
X7336Y1110D01*
X7355Y1156D01*
X8412D01*
X8431Y1110D01*
D02*
G37*
%LPC*%
G36*
X1525Y20126D02*
X1437D01*
Y20044D01*
X1525D01*
Y20126D01*
D02*
G37*
G36*
X7372Y20594D02*
X6506D01*
Y19964D01*
X7372D01*
Y20594D01*
D02*
G37*
G36*
X9821Y20286D02*
X9798Y20284D01*
X9775Y20280D01*
X9753Y20272D01*
X9732Y20262D01*
X9713Y20249D01*
X9695Y20234D01*
X9680Y20216D01*
X9667Y20197D01*
X9657Y20176D01*
X9649Y20154D01*
X9645Y20131D01*
X9643Y20108D01*
X9645Y20085D01*
X9649Y20062D01*
X9657Y20040D01*
X9667Y20019D01*
X9680Y20000D01*
X9695Y19983D01*
X9713Y19967D01*
X9732Y19955D01*
X9753Y19944D01*
X9775Y19937D01*
X9798Y19932D01*
X9821Y19931D01*
X9844Y19932D01*
X9867Y19937D01*
X9889Y19944D01*
X9910Y19955D01*
X9929Y19967D01*
X9946Y19983D01*
X9962Y20000D01*
X9975Y20019D01*
X9985Y20040D01*
X9992Y20062D01*
X9997Y20085D01*
X9998Y20108D01*
X9997Y20131D01*
X9992Y20154D01*
X9985Y20176D01*
X9975Y20197D01*
X9962Y20216D01*
X9946Y20234D01*
X9929Y20249D01*
X9910Y20262D01*
X9889Y20272D01*
X9867Y20280D01*
X9844Y20284D01*
X9821Y20286D01*
D02*
G37*
G36*
X5797Y19846D02*
X5463D01*
Y19699D01*
X5797D01*
Y19846D01*
D02*
G37*
G36*
X5363D02*
X5030D01*
Y19699D01*
X5363D01*
Y19846D01*
D02*
G37*
G36*
X787Y20554D02*
X750Y20552D01*
X713Y20548D01*
X677Y20540D01*
X641Y20530D01*
X606Y20517D01*
X572Y20502D01*
X539Y20484D01*
X508Y20463D01*
X479Y20440D01*
X452Y20414D01*
X426Y20387D01*
X403Y20358D01*
X383Y20327D01*
X364Y20294D01*
X349Y20260D01*
X336Y20225D01*
X326Y20190D01*
X318Y20153D01*
X314Y20116D01*
X313Y20079D01*
X314Y20041D01*
X318Y20004D01*
X326Y19968D01*
X336Y19932D01*
X349Y19897D01*
X364Y19863D01*
X383Y19831D01*
X403Y19800D01*
X426Y19770D01*
X452Y19743D01*
X479Y19718D01*
X508Y19695D01*
X539Y19674D01*
X572Y19656D01*
X606Y19640D01*
X641Y19627D01*
X677Y19617D01*
X713Y19610D01*
X750Y19605D01*
X787Y19604D01*
X825Y19605D01*
X862Y19610D01*
X898Y19617D01*
X934Y19627D01*
X969Y19640D01*
X1003Y19656D01*
X1035Y19674D01*
X1066Y19695D01*
X1096Y19718D01*
X1123Y19743D01*
X1148Y19770D01*
X1172Y19800D01*
X1192Y19831D01*
X1210Y19863D01*
X1226Y19897D01*
X1239Y19932D01*
X1249Y19968D01*
X1256Y20004D01*
X1261Y20041D01*
X1262Y20079D01*
X1261Y20116D01*
X1256Y20153D01*
X1249Y20190D01*
X1239Y20225D01*
X1226Y20260D01*
X1210Y20294D01*
X1192Y20327D01*
X1172Y20358D01*
X1148Y20387D01*
X1123Y20414D01*
X1096Y20440D01*
X1066Y20463D01*
X1035Y20484D01*
X1003Y20502D01*
X969Y20517D01*
X934Y20530D01*
X898Y20540D01*
X862Y20548D01*
X825Y20552D01*
X787Y20554D01*
D02*
G37*
G36*
X15463Y18937D02*
X15439Y18936D01*
X15417Y18931D01*
X15395Y18924D01*
X15374Y18914D01*
X15355Y18901D01*
X15325Y18890D01*
X15295Y18901D01*
X15276Y18914D01*
X15255Y18924D01*
X15233Y18931D01*
X15210Y18936D01*
X15187Y18937D01*
X15164Y18936D01*
X15141Y18931D01*
X15119Y18924D01*
X15098Y18914D01*
X15079Y18901D01*
X15061Y18885D01*
X15046Y18868D01*
X15033Y18849D01*
X15023Y18828D01*
X15016Y18806D01*
X15011Y18783D01*
X15009Y18760D01*
X15011Y18737D01*
X15016Y18714D01*
X15023Y18692D01*
X15033Y18671D01*
X15046Y18652D01*
X15061Y18634D01*
X15079Y18619D01*
X15098Y18606D01*
X15119Y18596D01*
X15141Y18588D01*
X15164Y18584D01*
X15187Y18582D01*
X15210Y18584D01*
X15233Y18588D01*
X15255Y18596D01*
X15276Y18606D01*
X15295Y18619D01*
X15325Y18630D01*
X15355Y18619D01*
X15374Y18606D01*
X15395Y18596D01*
X15417Y18588D01*
X15439Y18584D01*
X15463Y18582D01*
X15486Y18584D01*
X15509Y18588D01*
X15531Y18596D01*
X15551Y18606D01*
X15571Y18619D01*
X15588Y18634D01*
X15603Y18652D01*
X15616Y18671D01*
X15627Y18692D01*
X15634Y18714D01*
X15639Y18737D01*
X15640Y18760D01*
X15639Y18783D01*
X15634Y18806D01*
X15627Y18828D01*
X15616Y18849D01*
X15603Y18868D01*
X15588Y18885D01*
X15571Y18901D01*
X15551Y18914D01*
X15531Y18924D01*
X15509Y18931D01*
X15486Y18936D01*
X15463Y18937D01*
D02*
G37*
G36*
X11088Y17617D02*
X11006D01*
Y17530D01*
X11088D01*
Y17617D01*
D02*
G37*
G36*
X10537Y16928D02*
X10455D01*
Y16841D01*
X10537D01*
Y16928D01*
D02*
G37*
G36*
X10461Y16660D02*
X10250D01*
Y16572D01*
X10461D01*
Y16660D01*
D02*
G37*
G36*
X20079Y20554D02*
X20041Y20552D01*
X20004Y20548D01*
X19968Y20540D01*
X19932Y20530D01*
X19897Y20517D01*
X19863Y20502D01*
X19831Y20484D01*
X19800Y20463D01*
X19770Y20440D01*
X19743Y20414D01*
X19718Y20387D01*
X19695Y20358D01*
X19674Y20327D01*
X19656Y20294D01*
X19640Y20260D01*
X19627Y20225D01*
X19617Y20190D01*
X19610Y20153D01*
X19605Y20116D01*
X19604Y20079D01*
X19605Y20041D01*
X19610Y20004D01*
X19617Y19968D01*
X19627Y19932D01*
X19640Y19897D01*
X19656Y19863D01*
X19674Y19831D01*
X19695Y19800D01*
X19718Y19770D01*
X19743Y19743D01*
X19770Y19718D01*
X19800Y19695D01*
X19831Y19674D01*
X19863Y19656D01*
X19897Y19640D01*
X19932Y19627D01*
X19968Y19617D01*
X20004Y19610D01*
X20041Y19605D01*
X20079Y19604D01*
X20116Y19605D01*
X20153Y19610D01*
X20190Y19617D01*
X20225Y19627D01*
X20260Y19640D01*
X20294Y19656D01*
X20327Y19674D01*
X20358Y19695D01*
X20387Y19718D01*
X20414Y19743D01*
X20440Y19770D01*
X20463Y19800D01*
X20484Y19831D01*
X20502Y19863D01*
X20517Y19897D01*
X20530Y19932D01*
X20540Y19968D01*
X20548Y20004D01*
X20552Y20041D01*
X20554Y20079D01*
X20552Y20116D01*
X20548Y20153D01*
X20540Y20190D01*
X20530Y20225D01*
X20517Y20260D01*
X20502Y20294D01*
X20484Y20327D01*
X20463Y20358D01*
X20440Y20387D01*
X20414Y20414D01*
X20387Y20440D01*
X20358Y20463D01*
X20327Y20484D01*
X20294Y20502D01*
X20260Y20517D01*
X20225Y20530D01*
X20190Y20540D01*
X20153Y20548D01*
X20116Y20552D01*
X20079Y20554D01*
D02*
G37*
G36*
X12997Y12854D02*
X12915D01*
Y12766D01*
X12997D01*
Y12854D01*
D02*
G37*
G36*
X19921Y5620D02*
X19900Y5619D01*
X19880Y5616D01*
X19859Y5610D01*
X19840Y5602D01*
X19822Y5592D01*
X19804Y5580D01*
X19789Y5566D01*
X19775Y5550D01*
X19763Y5533D01*
X19752Y5514D01*
X19744Y5495D01*
X19739Y5475D01*
X19735Y5454D01*
X19734Y5433D01*
X19735Y5412D01*
X19739Y5391D01*
X19744Y5371D01*
X19752Y5352D01*
X19763Y5333D01*
X19775Y5316D01*
X19789Y5301D01*
X19804Y5287D01*
X19822Y5274D01*
X19840Y5264D01*
X19859Y5256D01*
X19880Y5250D01*
X19900Y5247D01*
X19921Y5246D01*
X19942Y5247D01*
X19963Y5250D01*
X19983Y5256D01*
X20003Y5264D01*
X20021Y5274D01*
X20038Y5287D01*
X20054Y5301D01*
X20068Y5316D01*
X20080Y5333D01*
X20090Y5352D01*
X20098Y5371D01*
X20104Y5391D01*
X20107Y5412D01*
X20109Y5433D01*
X20107Y5454D01*
X20104Y5475D01*
X20098Y5495D01*
X20090Y5514D01*
X20080Y5533D01*
X20068Y5550D01*
X20054Y5566D01*
X20038Y5580D01*
X20021Y5592D01*
X20003Y5602D01*
X19983Y5610D01*
X19963Y5616D01*
X19942Y5619D01*
X19921Y5620D01*
D02*
G37*
G36*
X1987Y5028D02*
X1559D01*
Y4849D01*
X1987D01*
Y5028D01*
D02*
G37*
G36*
X937Y4837D02*
X909Y4836D01*
X881Y4831D01*
X853Y4825D01*
X827Y4815D01*
X801Y4803D01*
X777Y4788D01*
X754Y4772D01*
X734Y4753D01*
X715Y4732D01*
X698Y4709D01*
X683Y4685D01*
X671Y4659D01*
X662Y4633D01*
X655Y4605D01*
X651Y4577D01*
X649Y4549D01*
X651Y4521D01*
X655Y4493D01*
X662Y4466D01*
X671Y4439D01*
X683Y4414D01*
X698Y4389D01*
X715Y4367D01*
X734Y4346D01*
X754Y4327D01*
X777Y4310D01*
X801Y4295D01*
X827Y4283D01*
X853Y4274D01*
X881Y4267D01*
X909Y4263D01*
X937Y4261D01*
X965Y4263D01*
X993Y4267D01*
X1021Y4274D01*
X1047Y4283D01*
X1073Y4295D01*
X1097Y4310D01*
X1120Y4327D01*
X1140Y4346D01*
X1159Y4367D01*
X1176Y4389D01*
X1191Y4414D01*
X1203Y4439D01*
X1212Y4466D01*
X1219Y4493D01*
X1223Y4521D01*
X1225Y4549D01*
X1223Y4577D01*
X1219Y4605D01*
X1212Y4633D01*
X1203Y4659D01*
X1191Y4685D01*
X1176Y4709D01*
X1159Y4732D01*
X1140Y4753D01*
X1120Y4772D01*
X1097Y4788D01*
X1073Y4803D01*
X1047Y4815D01*
X1021Y4825D01*
X993Y4831D01*
X965Y4836D01*
X937Y4837D01*
D02*
G37*
G36*
Y3337D02*
X909Y3336D01*
X881Y3331D01*
X853Y3325D01*
X827Y3315D01*
X801Y3303D01*
X777Y3288D01*
X754Y3272D01*
X734Y3253D01*
X715Y3232D01*
X698Y3209D01*
X683Y3185D01*
X671Y3159D01*
X662Y3133D01*
X655Y3105D01*
X651Y3077D01*
X649Y3049D01*
X651Y3021D01*
X655Y2993D01*
X662Y2966D01*
X671Y2939D01*
X683Y2914D01*
X698Y2889D01*
X715Y2867D01*
X734Y2846D01*
X754Y2827D01*
X777Y2810D01*
X801Y2795D01*
X827Y2783D01*
X853Y2774D01*
X881Y2767D01*
X909Y2763D01*
X937Y2761D01*
X965Y2763D01*
X993Y2767D01*
X1021Y2774D01*
X1047Y2783D01*
X1073Y2795D01*
X1097Y2810D01*
X1120Y2827D01*
X1140Y2846D01*
X1159Y2867D01*
X1176Y2889D01*
X1191Y2914D01*
X1203Y2939D01*
X1212Y2966D01*
X1219Y2993D01*
X1223Y3021D01*
X1225Y3049D01*
X1223Y3077D01*
X1219Y3105D01*
X1212Y3133D01*
X1203Y3159D01*
X1191Y3185D01*
X1176Y3209D01*
X1159Y3232D01*
X1140Y3253D01*
X1120Y3272D01*
X1097Y3288D01*
X1073Y3303D01*
X1047Y3315D01*
X1021Y3325D01*
X993Y3331D01*
X965Y3336D01*
X937Y3337D01*
D02*
G37*
G36*
X1772Y2449D02*
X1727Y2448D01*
X1683Y2443D01*
X1639Y2436D01*
X1596Y2426D01*
X1554Y2413D01*
X1512Y2398D01*
X1472Y2379D01*
X1433Y2358D01*
X1395Y2335D01*
X1359Y2309D01*
X1325Y2281D01*
X1293Y2251D01*
X1262Y2218D01*
X1234Y2184D01*
X1208Y2148D01*
X1185Y2110D01*
X1164Y2071D01*
X1146Y2031D01*
X1130Y1989D01*
X1117Y1947D01*
X1107Y1904D01*
X1100Y1860D01*
X1096Y1816D01*
X1094Y1772D01*
X1096Y1727D01*
X1100Y1683D01*
X1107Y1639D01*
X1117Y1596D01*
X1130Y1554D01*
X1146Y1512D01*
X1164Y1472D01*
X1185Y1433D01*
X1208Y1395D01*
X1234Y1359D01*
X1262Y1325D01*
X1293Y1293D01*
X1325Y1262D01*
X1359Y1234D01*
X1395Y1208D01*
X1433Y1185D01*
X1472Y1164D01*
X1512Y1146D01*
X1554Y1130D01*
X1596Y1117D01*
X1639Y1107D01*
X1683Y1100D01*
X1727Y1096D01*
X1772Y1094D01*
X1816Y1096D01*
X1860Y1100D01*
X1904Y1107D01*
X1947Y1117D01*
X1989Y1130D01*
X2031Y1146D01*
X2071Y1164D01*
X2110Y1185D01*
X2148Y1208D01*
X2184Y1234D01*
X2218Y1262D01*
X2251Y1293D01*
X2281Y1325D01*
X2309Y1359D01*
X2335Y1395D01*
X2358Y1433D01*
X2379Y1472D01*
X2398Y1512D01*
X2413Y1554D01*
X2426Y1596D01*
X2436Y1639D01*
X2443Y1683D01*
X2448Y1727D01*
X2449Y1772D01*
X2448Y1816D01*
X2443Y1860D01*
X2436Y1904D01*
X2426Y1947D01*
X2413Y1989D01*
X2398Y2031D01*
X2379Y2071D01*
X2358Y2110D01*
X2335Y2148D01*
X2309Y2184D01*
X2281Y2218D01*
X2251Y2251D01*
X2218Y2281D01*
X2184Y2309D01*
X2148Y2335D01*
X2110Y2358D01*
X2071Y2379D01*
X2031Y2398D01*
X1989Y2413D01*
X1947Y2426D01*
X1904Y2436D01*
X1860Y2443D01*
X1816Y2448D01*
X1772Y2449D01*
D02*
G37*
G36*
X19094Y2449D02*
X19050Y2448D01*
X19006Y2443D01*
X18962Y2436D01*
X18919Y2426D01*
X18877Y2413D01*
X18835Y2398D01*
X18795Y2379D01*
X18756Y2358D01*
X18718Y2335D01*
X18682Y2309D01*
X18648Y2281D01*
X18615Y2251D01*
X18585Y2218D01*
X18557Y2184D01*
X18531Y2148D01*
X18508Y2110D01*
X18487Y2071D01*
X18469Y2031D01*
X18453Y1989D01*
X18440Y1947D01*
X18430Y1904D01*
X18423Y1860D01*
X18418Y1816D01*
X18417Y1772D01*
X18418Y1727D01*
X18423Y1683D01*
X18430Y1639D01*
X18440Y1596D01*
X18453Y1554D01*
X18469Y1512D01*
X18487Y1472D01*
X18508Y1433D01*
X18531Y1395D01*
X18557Y1359D01*
X18585Y1325D01*
X18615Y1293D01*
X18648Y1262D01*
X18682Y1234D01*
X18718Y1208D01*
X18756Y1185D01*
X18795Y1164D01*
X18835Y1146D01*
X18877Y1130D01*
X18919Y1117D01*
X18962Y1107D01*
X19006Y1100D01*
X19050Y1096D01*
X19094Y1094D01*
X19139Y1096D01*
X19183Y1100D01*
X19227Y1107D01*
X19270Y1117D01*
X19312Y1130D01*
X19354Y1146D01*
X19394Y1164D01*
X19433Y1185D01*
X19471Y1208D01*
X19507Y1234D01*
X19541Y1262D01*
X19574Y1293D01*
X19604Y1325D01*
X19632Y1359D01*
X19658Y1395D01*
X19681Y1433D01*
X19702Y1472D01*
X19720Y1512D01*
X19736Y1554D01*
X19749Y1596D01*
X19759Y1639D01*
X19766Y1683D01*
X19771Y1727D01*
X19772Y1772D01*
X19771Y1816D01*
X19766Y1860D01*
X19759Y1904D01*
X19749Y1947D01*
X19736Y1989D01*
X19720Y2031D01*
X19702Y2071D01*
X19681Y2110D01*
X19658Y2148D01*
X19632Y2184D01*
X19604Y2218D01*
X19574Y2251D01*
X19541Y2281D01*
X19507Y2309D01*
X19471Y2335D01*
X19433Y2358D01*
X19394Y2379D01*
X19354Y2398D01*
X19312Y2413D01*
X19270Y2426D01*
X19227Y2436D01*
X19183Y2443D01*
X19139Y2448D01*
X19094Y2449D01*
D02*
G37*
G36*
X787Y1262D02*
X750Y1261D01*
X713Y1256D01*
X677Y1249D01*
X641Y1239D01*
X606Y1226D01*
X572Y1210D01*
X539Y1192D01*
X508Y1172D01*
X479Y1148D01*
X452Y1123D01*
X426Y1096D01*
X403Y1066D01*
X383Y1035D01*
X364Y1003D01*
X349Y969D01*
X336Y934D01*
X326Y898D01*
X318Y862D01*
X314Y825D01*
X313Y787D01*
X314Y750D01*
X318Y713D01*
X326Y677D01*
X336Y641D01*
X349Y606D01*
X364Y572D01*
X383Y539D01*
X403Y508D01*
X426Y479D01*
X452Y452D01*
X479Y426D01*
X508Y403D01*
X539Y383D01*
X572Y364D01*
X606Y349D01*
X641Y336D01*
X677Y326D01*
X713Y318D01*
X750Y314D01*
X787Y313D01*
X825Y314D01*
X862Y318D01*
X898Y326D01*
X934Y336D01*
X969Y349D01*
X1003Y364D01*
X1035Y383D01*
X1066Y403D01*
X1096Y426D01*
X1123Y452D01*
X1148Y479D01*
X1172Y508D01*
X1192Y539D01*
X1210Y572D01*
X1226Y606D01*
X1239Y641D01*
X1249Y677D01*
X1256Y713D01*
X1261Y750D01*
X1262Y787D01*
X1261Y825D01*
X1256Y862D01*
X1249Y898D01*
X1239Y934D01*
X1226Y969D01*
X1210Y1003D01*
X1192Y1035D01*
X1172Y1066D01*
X1148Y1096D01*
X1123Y1123D01*
X1096Y1148D01*
X1066Y1172D01*
X1035Y1192D01*
X1003Y1210D01*
X969Y1226D01*
X934Y1239D01*
X898Y1249D01*
X862Y1256D01*
X825Y1261D01*
X787Y1262D01*
D02*
G37*
G36*
X8159Y17941D02*
X8071D01*
Y17859D01*
X8159D01*
Y17941D01*
D02*
G37*
G36*
X7618Y17941D02*
X7530D01*
Y17859D01*
X7618D01*
Y17941D01*
D02*
G37*
G36*
X6762Y15453D02*
X6635D01*
Y15306D01*
X6762D01*
Y15453D01*
D02*
G37*
G36*
X8149Y15315D02*
X7972D01*
Y15129D01*
X8149D01*
Y15315D01*
D02*
G37*
G36*
X4773Y15403D02*
X4350D01*
Y15276D01*
X4773D01*
Y15403D01*
D02*
G37*
G36*
X5078Y14999D02*
X4931D01*
Y14872D01*
X5078D01*
Y14999D01*
D02*
G37*
G36*
X12411Y15136D02*
X12324D01*
Y15054D01*
X12411D01*
Y15136D01*
D02*
G37*
G36*
X12815Y15117D02*
X12470D01*
Y15098D01*
X12470D01*
Y15020D01*
X12815D01*
Y15039D01*
X12815D01*
Y15117D01*
D02*
G37*
G36*
X4291Y14045D02*
X4105D01*
Y13869D01*
X4291D01*
Y14045D01*
D02*
G37*
G36*
X4005D02*
X3819D01*
Y13869D01*
X4005D01*
Y14045D01*
D02*
G37*
G36*
X4291Y13769D02*
X4105D01*
Y13593D01*
X4291D01*
Y13769D01*
D02*
G37*
G36*
X4005D02*
X3819D01*
Y13593D01*
X4005D01*
Y13769D01*
D02*
G37*
G36*
X5700Y12098D02*
X5376D01*
Y11774D01*
X5700D01*
Y12098D01*
D02*
G37*
G36*
X4252Y11672D02*
X4026D01*
Y11476D01*
X4252D01*
Y11672D01*
D02*
G37*
G36*
X3926D02*
X3701D01*
Y11476D01*
X3926D01*
Y11672D01*
D02*
G37*
G36*
X4341Y10753D02*
X4253D01*
Y10671D01*
X4341D01*
Y10753D01*
D02*
G37*
G36*
X4153D02*
X4065D01*
Y10671D01*
X4153D01*
Y10753D01*
D02*
G37*
G36*
X3356D02*
X3268D01*
Y10671D01*
X3356D01*
Y10753D01*
D02*
G37*
G36*
X3169D02*
X3081D01*
Y10671D01*
X3169D01*
Y10753D01*
D02*
G37*
G36*
X7953Y10798D02*
X7930Y10796D01*
X7907Y10792D01*
X7885Y10784D01*
X7864Y10774D01*
X7845Y10761D01*
X7827Y10746D01*
X7812Y10728D01*
X7799Y10709D01*
X7789Y10688D01*
X7781Y10666D01*
X7777Y10643D01*
X7775Y10620D01*
X7777Y10597D01*
X7781Y10574D01*
X7789Y10552D01*
X7799Y10531D01*
X7812Y10512D01*
X7827Y10495D01*
X7845Y10479D01*
X7864Y10466D01*
X7885Y10456D01*
X7907Y10449D01*
X7930Y10444D01*
X7953Y10443D01*
X7976Y10444D01*
X7999Y10449D01*
X8021Y10456D01*
X8042Y10466D01*
X8061Y10479D01*
X8078Y10495D01*
X8094Y10512D01*
X8107Y10531D01*
X8117Y10552D01*
X8124Y10574D01*
X8129Y10597D01*
X8130Y10620D01*
X8129Y10643D01*
X8124Y10666D01*
X8117Y10688D01*
X8107Y10709D01*
X8094Y10728D01*
X8078Y10746D01*
X8061Y10761D01*
X8042Y10774D01*
X8021Y10784D01*
X7999Y10792D01*
X7976Y10796D01*
X7953Y10798D01*
D02*
G37*
G36*
X9360Y9223D02*
X9337Y9221D01*
X9314Y9217D01*
X9292Y9209D01*
X9271Y9199D01*
X9252Y9186D01*
X9235Y9171D01*
X9219Y9153D01*
X9206Y9134D01*
X9196Y9113D01*
X9189Y9091D01*
X9184Y9068D01*
X9183Y9045D01*
X9184Y9022D01*
X9189Y8999D01*
X9196Y8977D01*
X9206Y8957D01*
X9219Y8937D01*
X9235Y8920D01*
X9252Y8904D01*
X9271Y8892D01*
X9292Y8881D01*
X9314Y8874D01*
X9337Y8869D01*
X9360Y8868D01*
X9383Y8869D01*
X9406Y8874D01*
X9428Y8881D01*
X9449Y8892D01*
X9468Y8904D01*
X9486Y8920D01*
X9501Y8937D01*
X9514Y8957D01*
X9524Y8977D01*
X9532Y8999D01*
X9536Y9022D01*
X9538Y9045D01*
X9536Y9068D01*
X9532Y9091D01*
X9524Y9113D01*
X9514Y9134D01*
X9501Y9153D01*
X9486Y9171D01*
X9468Y9186D01*
X9449Y9199D01*
X9428Y9209D01*
X9406Y9217D01*
X9383Y9221D01*
X9360Y9223D01*
D02*
G37*
G36*
X10763Y9651D02*
X10740Y9649D01*
X10717Y9645D01*
X10695Y9637D01*
X10674Y9627D01*
X10655Y9614D01*
X10637Y9599D01*
X10622Y9582D01*
X10609Y9562D01*
X10599Y9541D01*
X10591Y9519D01*
X10587Y9497D01*
X10585Y9473D01*
X10586Y9465D01*
X10577Y9464D01*
X10555Y9460D01*
X10533Y9452D01*
X10512Y9442D01*
X10492Y9429D01*
X10475Y9414D01*
X10460Y9397D01*
X10447Y9377D01*
X10437Y9356D01*
X10429Y9334D01*
X10425Y9312D01*
X10423Y9288D01*
X10425Y9265D01*
X10429Y9242D01*
X10437Y9220D01*
X10447Y9200D01*
X10460Y9180D01*
X10475Y9163D01*
X10492Y9148D01*
X10504Y9140D01*
X10509Y9110D01*
X10506Y9082D01*
X10492Y9069D01*
X10476Y9052D01*
X10463Y9033D01*
X10453Y9012D01*
X10446Y8990D01*
X10441Y8967D01*
X10440Y8944D01*
X10441Y8921D01*
X10446Y8898D01*
X10453Y8876D01*
X10463Y8855D01*
X10476Y8836D01*
X10492Y8818D01*
X10509Y8803D01*
X10528Y8790D01*
X10549Y8780D01*
X10571Y8772D01*
X10594Y8768D01*
X10617Y8766D01*
X10640Y8768D01*
X10663Y8772D01*
X10685Y8780D01*
X10706Y8790D01*
X10725Y8803D01*
X10743Y8818D01*
X10758Y8836D01*
X10771Y8855D01*
X10781Y8876D01*
X10789Y8898D01*
X10793Y8921D01*
X10795Y8944D01*
X10793Y8967D01*
X10789Y8990D01*
X10781Y9012D01*
X10771Y9033D01*
X10758Y9052D01*
X10743Y9069D01*
X10725Y9085D01*
X10714Y9092D01*
X10709Y9123D01*
X10712Y9150D01*
X10726Y9163D01*
X10741Y9180D01*
X10754Y9200D01*
X10765Y9220D01*
X10772Y9242D01*
X10777Y9265D01*
X10778Y9288D01*
X10778Y9297D01*
X10786Y9297D01*
X10809Y9302D01*
X10831Y9309D01*
X10852Y9320D01*
X10871Y9333D01*
X10888Y9348D01*
X10904Y9365D01*
X10917Y9385D01*
X10927Y9405D01*
X10934Y9427D01*
X10939Y9450D01*
X10940Y9473D01*
X10939Y9497D01*
X10934Y9519D01*
X10927Y9541D01*
X10917Y9562D01*
X10904Y9582D01*
X10888Y9599D01*
X10871Y9614D01*
X10852Y9627D01*
X10831Y9637D01*
X10809Y9645D01*
X10786Y9649D01*
X10763Y9651D01*
D02*
G37*
G36*
X6995Y8485D02*
X6972Y8483D01*
X6949Y8479D01*
X6927Y8471D01*
X6907Y8461D01*
X6887Y8448D01*
X6872Y8435D01*
X6857Y8448D01*
X6838Y8461D01*
X6817Y8471D01*
X6795Y8479D01*
X6773Y8483D01*
X6749Y8485D01*
X6726Y8483D01*
X6703Y8479D01*
X6681Y8471D01*
X6661Y8461D01*
X6641Y8448D01*
X6626Y8435D01*
X6611Y8448D01*
X6592Y8461D01*
X6571Y8471D01*
X6549Y8479D01*
X6526Y8483D01*
X6503Y8485D01*
X6480Y8483D01*
X6457Y8479D01*
X6435Y8471D01*
X6414Y8461D01*
X6395Y8448D01*
X6380Y8435D01*
X6365Y8448D01*
X6346Y8461D01*
X6325Y8471D01*
X6303Y8479D01*
X6280Y8483D01*
X6257Y8485D01*
X6234Y8483D01*
X6211Y8479D01*
X6189Y8471D01*
X6168Y8461D01*
X6149Y8448D01*
X6132Y8433D01*
X6116Y8415D01*
X6103Y8396D01*
X6093Y8375D01*
X6086Y8353D01*
X6081Y8330D01*
X6080Y8307D01*
X6081Y8284D01*
X6086Y8261D01*
X6093Y8239D01*
X6103Y8218D01*
X6116Y8199D01*
X6132Y8182D01*
X6149Y8166D01*
X6168Y8153D01*
X6189Y8143D01*
X6211Y8136D01*
X6234Y8131D01*
X6257Y8130D01*
X6280Y8131D01*
X6303Y8136D01*
X6325Y8143D01*
X6346Y8153D01*
X6365Y8166D01*
X6380Y8179D01*
X6395Y8166D01*
X6414Y8153D01*
X6435Y8143D01*
X6457Y8136D01*
X6480Y8131D01*
X6503Y8130D01*
X6526Y8131D01*
X6549Y8136D01*
X6571Y8143D01*
X6592Y8153D01*
X6611Y8166D01*
X6626Y8179D01*
X6641Y8166D01*
X6661Y8153D01*
X6681Y8143D01*
X6703Y8136D01*
X6726Y8131D01*
X6749Y8130D01*
X6773Y8131D01*
X6795Y8136D01*
X6817Y8143D01*
X6838Y8153D01*
X6857Y8166D01*
X6872Y8179D01*
X6887Y8166D01*
X6907Y8153D01*
X6927Y8143D01*
X6949Y8136D01*
X6972Y8131D01*
X6995Y8130D01*
X7019Y8131D01*
X7041Y8136D01*
X7063Y8143D01*
X7084Y8153D01*
X7103Y8166D01*
X7121Y8182D01*
X7136Y8199D01*
X7149Y8218D01*
X7159Y8239D01*
X7167Y8261D01*
X7171Y8284D01*
X7173Y8307D01*
X7171Y8330D01*
X7167Y8353D01*
X7159Y8375D01*
X7149Y8396D01*
X7136Y8415D01*
X7121Y8433D01*
X7103Y8448D01*
X7084Y8461D01*
X7063Y8471D01*
X7041Y8479D01*
X7019Y8483D01*
X6995Y8485D01*
D02*
G37*
G36*
X8001Y8188D02*
X7923D01*
Y8081D01*
X8001D01*
Y8188D01*
D02*
G37*
G36*
X2480Y7411D02*
X2146D01*
Y7264D01*
X2480D01*
Y7411D01*
D02*
G37*
G36*
X2046D02*
X1713D01*
Y7264D01*
X2046D01*
Y7411D01*
D02*
G37*
G36*
X4306Y6870D02*
X4224D01*
Y6782D01*
X4306D01*
Y6870D01*
D02*
G37*
%LPD*%
G36*
G01X9032Y18491D02*
G02X9193Y18297I-35J-194D01*
G02X9032Y18104I-197J-0D01*
G02X8996Y18133I-5J30D01*
G01Y18461D01*
G02X9032Y18491I30J0D01*
D02*
G37*
G36*
G01X8882Y18104D02*
G02X8720Y18297I35J194D01*
G02X8882Y18491I197J0D01*
G02X8917Y18461I5J-30D01*
G01Y18133D01*
G02X8882Y18104I-30J0D01*
D02*
G37*
G36*
G01X8213D02*
G02X8051Y18297I35J194D01*
G02X8213Y18491I197J0D01*
G02X8248Y18461I5J-30D01*
G01Y18133D01*
G02X8213Y18104I-30J0D01*
D02*
G37*
G36*
G01X8362Y18491D02*
G02X8524Y18297I-35J-194D01*
G02X8362Y18104I-197J-0D01*
G02X8327Y18133I-5J30D01*
G01Y18461D01*
G02X8362Y18491I30J0D01*
D02*
G37*
D11*
X7707Y17569D02*
G03*
X7691Y17585I-16J0D01*
G01*
X11292Y11703D02*
X11380Y11614D01*
X11412D01*
X9694Y11703D02*
X11292D01*
X5517Y6890D02*
X5787Y6620D01*
X5570Y7018D02*
X5915Y6673D01*
X5787Y4868D02*
Y6620D01*
X5915Y4921D02*
Y6673D01*
X5787Y4868D02*
X6161Y4494D01*
X6289Y3976D02*
Y4547D01*
X5915Y4921D02*
X6289Y4547D01*
X6161Y3923D02*
Y4494D01*
X509Y14678D02*
Y14685D01*
Y14678D02*
X728Y14459D01*
X502Y14941D02*
X1181D01*
X728Y14459D02*
X2470D01*
X5420Y19262D02*
X5736D01*
X5413Y19255D02*
X5420Y19262D01*
X5736D02*
X6140Y19665D01*
X7362D01*
X8841Y12556D02*
X9694Y11703D01*
X8841Y12556D02*
Y14603D01*
X4779Y6658D02*
Y6796D01*
X6161Y3923D02*
X6351Y3733D01*
X4651Y6658D02*
Y6855D01*
X6289Y3976D02*
X6404Y3861D01*
X4872Y6890D02*
X5517D01*
X4779Y6658D02*
X4911Y6526D01*
X4779Y6796D02*
X4872Y6890D01*
X4911Y6240D02*
Y6526D01*
X4813Y7018D02*
X5570D01*
X4651Y6855D02*
X4813Y7018D01*
X4518Y6526D02*
X4651Y6658D01*
X4518Y6240D02*
Y6526D01*
X6351Y3733D02*
X6722D01*
X6404Y3861D02*
X6722D01*
X6781Y3920D01*
X6722Y3733D02*
X6781Y3674D01*
X1181Y14941D02*
X1594Y15354D01*
X11015Y5679D02*
X11421D01*
X10949Y5695D02*
X11000D01*
X11015Y5679D01*
X11421D02*
X11499Y5601D01*
X13948Y13563D02*
X14390Y14005D01*
X12628Y13563D02*
X13948D01*
X11722Y12904D02*
X11968D01*
X12628Y13563D01*
X8808Y14635D02*
X8841Y14603D01*
X14390Y14005D02*
Y14183D01*
X7707Y17569D02*
X7830Y17446D01*
X7480Y17585D02*
X7691D01*
X13132Y17441D02*
X13278D01*
X12844D02*
X13132D01*
X3189Y13317D02*
Y13740D01*
Y13317D02*
X3219Y13287D01*
X2470Y14459D02*
X3189Y13740D01*
X1594Y15354D02*
Y15610D01*
X2382Y19783D02*
X2396Y19770D01*
X2402D01*
X2116Y19852D02*
X2319D01*
X2382Y19789D01*
X2382Y19783D01*
X12776Y16545D02*
X12835Y16486D01*
X7549Y17185D02*
X7608Y17126D01*
X7830Y17446D02*
X8051Y17224D01*
X8789Y16083D02*
X9144D01*
X8855Y16998D02*
X8937D01*
X8766Y16909D02*
X8855Y16998D01*
X8681Y16909D02*
X8766D01*
X8366D02*
X8524Y16909D01*
X8681Y16909D01*
X7554Y16275D02*
X7638Y16358D01*
Y16374D02*
X8016Y16752D01*
X7608Y17126D02*
X7954D01*
X8681Y16594D02*
X8681Y16191D01*
X8366Y16594D02*
X8366Y16024D01*
X7638Y16358D02*
Y16374D01*
X8681Y16191D02*
X8789Y16083D01*
X7954Y17126D02*
X8013Y17067D01*
X8016Y16752D02*
X8051D01*
X8209D01*
X8013Y17067D02*
X8051D01*
X8366Y16752D02*
X8524D01*
X8366Y16594D02*
Y16752D01*
X7864Y16909D02*
X8051Y16909D01*
X8209D01*
X8051Y17067D02*
X8209D01*
X7638Y16831D02*
X7776Y16831D01*
X7530Y16722D02*
X7638Y16831D01*
X7530Y16713D02*
Y16722D01*
X10423Y6221D02*
X10949Y5695D01*
D12*
X5886Y15310D02*
Y15335D01*
X5803Y15118D02*
Y15228D01*
X5886Y15310D01*
X9341Y15610D02*
X9409Y15679D01*
X9341Y15620D02*
X9439Y15719D01*
X9341Y15610D02*
Y15620D01*
X9341D01*
X9439Y15719D02*
Y15719D01*
X9380Y16821D02*
X9646Y16555D01*
X9557Y16457D02*
X9636Y16535D01*
X9557Y15837D02*
Y16457D01*
X9439Y15719D02*
X9557Y15837D01*
X12430Y14971D02*
X12431Y14970D01*
X12643D01*
X5803Y15112D02*
Y15118D01*
Y15112D02*
X5807Y15108D01*
X5862D01*
X5980Y14990D01*
X6014D01*
X12274Y15004D02*
X12280D01*
X12312Y14971D01*
X12430D01*
X12570Y15167D02*
X12643D01*
X8917Y16821D02*
X9380Y16821D01*
X8848Y16752D02*
X8917Y16821D01*
X8681Y16752D02*
X8848Y16752D01*
X8524Y15890D02*
X8804Y15610D01*
X8809D01*
X8524Y15890D02*
Y16594D01*
D13*
Y17224D02*
Y17992D01*
X8819Y18287D01*
X8415Y18287D02*
X8425Y18297D01*
X8415Y17805D02*
Y18287D01*
X8366Y17224D02*
Y17756D01*
X8415Y17805D01*
X8809Y17559D02*
Y17673D01*
X10758Y17257D02*
X10811Y17203D01*
X10758Y17257D02*
X11190D01*
X10748D02*
X10758D01*
X11190D02*
X11226Y17220D01*
Y17215D02*
Y17220D01*
X11250Y17185D02*
X11451Y16984D01*
Y16978D02*
Y16984D01*
X11250Y17185D02*
Y17191D01*
X11226Y17215D02*
X11250Y17191D01*
X11451Y16768D02*
Y16978D01*
X11525Y16522D02*
Y16694D01*
X11451Y16768D02*
X11525Y16694D01*
X11786Y15597D02*
Y16874D01*
X11451Y17209D02*
X11786Y16874D01*
X11451Y17209D02*
Y17215D01*
X10811Y16988D02*
Y17203D01*
X10332Y14833D02*
X10401Y14902D01*
X9174Y14833D02*
X10332D01*
X10401Y14902D02*
X11090D01*
X11786Y15597D01*
X11765Y17488D02*
X12113Y17140D01*
X12004Y15510D02*
Y17095D01*
X11657Y17443D02*
X12004Y17095D01*
X11386Y17561D02*
X11896Y17051D01*
X15295Y19296D02*
Y19611D01*
X12113Y15465D02*
Y17140D01*
X15295Y19258D02*
Y19296D01*
X11896Y15554D02*
Y17051D01*
X11765Y17488D02*
Y17744D01*
X12269Y18248D01*
X11657Y17443D02*
Y17789D01*
X12224Y18356D01*
X9341Y14211D02*
Y14241D01*
X11978Y11919D02*
X12510Y11388D01*
X9341Y12362D02*
X9783Y11919D01*
X11978D01*
X11816Y14774D02*
X12643D01*
X9341Y12362D02*
Y14211D01*
X12510Y5925D02*
X12820Y5615D01*
Y5153D02*
Y5615D01*
X12269Y4602D02*
X12820Y5153D01*
X8799Y17549D02*
X8809Y17559D01*
X12269Y4409D02*
Y4602D01*
X8681Y17224D02*
Y17431D01*
X8799Y17549D01*
X9052Y17556D02*
X9055Y17559D01*
X9052Y17416D02*
Y17556D01*
X8706Y17070D02*
X9052Y17416D01*
X8684Y17070D02*
X8706D01*
X8681Y17067D02*
X8684Y17070D01*
X12510Y5925D02*
Y11388D01*
X9449Y12947D02*
Y14370D01*
Y12947D02*
X9656Y12740D01*
X9961Y12711D02*
X9961Y12711D01*
X9685Y12711D02*
X9961D01*
X9679D02*
X9685D01*
X9656Y12734D02*
X9679Y12711D01*
X9656Y12734D02*
Y12740D01*
X10472Y14360D02*
X10581Y14468D01*
X9807Y14360D02*
X10472D01*
X10437Y14478D02*
X10536Y14577D01*
X9807Y14478D02*
X10437D01*
X10402Y14596D02*
X10491Y14685D01*
X9795Y14596D02*
X10402D01*
X10367Y14715D02*
X10446Y14793D01*
X9795Y14715D02*
X10367D01*
X9449Y14370D02*
X9449Y14370D01*
Y14409D01*
X10827Y18671D02*
Y18681D01*
X10827Y18382D02*
X10827Y18671D01*
X12224Y18356D02*
X15567D01*
X12269Y18248D02*
X15571D01*
X11393Y18809D02*
X11629Y18573D01*
X11860Y18146D02*
Y18351D01*
X10961Y18809D02*
X11393D01*
X11638Y18573D02*
X11860Y18351D01*
X11629Y18573D02*
X11638D01*
X11349Y17858D02*
X11397D01*
X11573D01*
X11362Y17638D02*
Y17824D01*
X11397Y17858D01*
X11362Y17638D02*
X11386Y17614D01*
Y17561D02*
Y17614D01*
X12776Y17510D02*
X12844Y17441D01*
X11573Y17858D02*
X11860Y18146D01*
X11272Y17936D02*
X11349Y17858D01*
X1526Y18061D02*
X1594Y18130D01*
X1225Y18061D02*
X1526D01*
X1004Y17840D02*
X1225Y18061D01*
X995Y17840D02*
X1004D01*
X1565Y18445D02*
X2815D01*
X1594Y19242D02*
Y19750D01*
X1575Y19770D02*
X1594Y19750D01*
X1575Y19770D02*
X1835D01*
X1841Y19764D01*
X15567Y18356D02*
X15828Y18618D01*
X15571Y18248D02*
X15876Y17943D01*
X15828Y18618D02*
Y19131D01*
X10846Y18701D02*
X10852D01*
X10827Y18681D02*
X10846Y18701D01*
X10852D02*
X10961Y18809D01*
X10823Y18677D02*
X10827Y18681D01*
X10823Y18671D02*
Y18677D01*
X10581Y14468D02*
X11511D01*
X10536Y14577D02*
X11225D01*
X10491Y14685D02*
X11180D01*
X10446Y14793D02*
X11135D01*
X11225Y14577D02*
X12113Y15465D01*
X11180Y14685D02*
X12004Y15510D01*
X11135Y14793D02*
X11896Y15554D01*
X11836Y15035D02*
X12490Y15689D01*
X12691D01*
X12707Y15705D01*
X15876Y17943D02*
X16112D01*
X15295Y19258D02*
X15422Y19131D01*
X15828D01*
X15956Y19259D01*
X11836Y14793D02*
Y15035D01*
X11511Y14468D02*
X11816Y14774D01*
X11836Y14793D01*
X15610Y20236D02*
Y20556D01*
X15295Y19921D02*
X15610Y20236D01*
X15299Y19296D02*
X15302Y19299D01*
X15959Y19577D02*
X15959Y19296D01*
X15925Y19611D02*
X15959Y19577D01*
X15956Y19293D02*
X15959Y19296D01*
X15956Y19259D02*
Y19293D01*
X15295Y19611D02*
Y19921D01*
X12707Y15428D02*
Y15705D01*
Y15428D02*
X12707Y15428D01*
X10826Y18381D02*
X10938Y18270D01*
X10826Y18381D02*
X10827Y18382D01*
X8209Y17224D02*
Y17585D01*
X10821Y16630D02*
Y16963D01*
D14*
X11619Y13780D02*
G03*
X11487Y13949I-175J0D01*
G01*
Y13610D02*
G03*
X11600Y13701I-44J170D01*
G01*
D02*
G03*
X11619Y13780I-156J79D01*
G01*
X11246Y13838D02*
G03*
X11367Y13610I165J-59D01*
G01*
Y13949D02*
G03*
X11246Y13838I44J-170D01*
G01*
X11820Y14234D02*
G03*
X11688Y14065I44J-170D01*
G01*
D02*
G03*
X11820Y13895I175J0D01*
G01*
X12071Y14055D02*
G03*
X12072Y14065I-175J10D01*
G01*
D02*
G03*
X11940Y14234I-175J0D01*
G01*
Y13895D02*
G03*
X12071Y14055I-44J170D01*
G01*
D15*
X4823Y17972D02*
X5384D01*
X8302Y14804D02*
X8779D01*
X8780Y14803D01*
X6750Y13148D02*
Y13252D01*
X8302Y14804D01*
X15927Y20554D02*
X16138D01*
X15605Y19616D02*
Y19777D01*
X15545Y19307D02*
X15724D01*
X14946Y19827D02*
X14946Y19646D01*
X14895Y19299D02*
X15072D01*
X15505Y19877D02*
X15605Y19777D01*
X10231Y16522D02*
X10511D01*
X10228Y16328D02*
X10231Y16325D01*
X10511D01*
D17*
X2776Y11988D02*
G03*
X2538Y12087I-238J-238D01*
G01*
Y11890D02*
G03*
X2776Y11988I0J336D01*
G01*
X2923Y12149D02*
G03*
X2974Y12026I174J0D01*
G01*
X3460Y11924D02*
G03*
X3543Y12126I-202J202D01*
G01*
X2884Y12244D02*
G03*
X2789Y12283I-95J-95D01*
G01*
X3342Y11806D02*
G03*
X3307Y11722I84J-84D01*
G01*
X2923Y12149D02*
G03*
X2884Y12244I-134J0D01*
G01*
X8073Y16555D02*
G03*
X8062Y16581I-37J0D01*
G01*
X8043Y16454D02*
G03*
X8073Y16527I-73J73D01*
G01*
X7687Y15728D02*
G03*
X7768Y15923I-195J195D01*
G01*
X3137Y11941D02*
G03*
X3024Y11988I-113J-113D01*
G01*
X2974Y11951D02*
G03*
X2923Y11827I123J-123D01*
G01*
X2789Y11693D02*
G03*
X2884Y11732I0J134D01*
G01*
X8029Y16279D02*
G03*
X7882Y15923I356J-356D01*
G01*
D02*
G03*
X7963Y15728I275J0D01*
G01*
X3577Y12303D02*
G03*
X3563Y12305I-34J-177D01*
G01*
X3516Y12305D02*
G03*
X3527Y12305I5J65D01*
G01*
X3563Y12305D02*
G03*
X3527Y12305I-20J-179D01*
G01*
X3697Y12247D02*
G03*
X3582Y12302I-134J-134D01*
G01*
X3577Y12303D02*
G03*
X3582Y12302I12J64D01*
G01*
X3307Y12530D02*
G03*
X3349Y12429I143J0D01*
G01*
X3435Y12343D02*
G03*
X3516Y12305I91J91D01*
G01*
X8198Y16581D02*
G03*
X8187Y16555I26J-26D01*
G01*
X8140Y16390D02*
G03*
X8187Y16503I-114J114D01*
G01*
X7920Y16332D02*
G03*
X7768Y15963I368J-368D01*
G01*
X2884Y11732D02*
G03*
X2923Y11827I-95J95D01*
G01*
X2649Y12480D02*
G03*
X2684Y12495I-0J49D01*
G01*
X9094Y18287D02*
X9114Y18307D01*
X9350D01*
X8006Y18297D02*
X8150D01*
X7908Y18199D02*
X8006Y18297D01*
X7904Y18199D02*
X7908D01*
X231Y14263D02*
X361Y14134D01*
X231Y14263D02*
Y16521D01*
X512Y14272D02*
X541D01*
X570Y14242D01*
X330Y14454D02*
X512Y14272D01*
X570Y14242D02*
X610D01*
X10620Y14252D02*
X11358D01*
X9967Y12386D02*
X10039Y12313D01*
X11583Y11742D02*
X12009D01*
X10846Y15341D02*
X10851Y15336D01*
X10846Y15341D02*
Y15601D01*
X10851Y15320D02*
Y15336D01*
Y15320D02*
X10974Y15197D01*
X11040Y15426D02*
X11181Y15285D01*
X11159Y17837D02*
X11160Y17838D01*
Y18047D02*
X11161Y18047D01*
X11160Y17838D02*
Y18047D01*
X896Y17185D02*
X1594D01*
X231Y16521D02*
X896Y17185D01*
X133Y16649D02*
X984Y17500D01*
X133Y14072D02*
Y16649D01*
X984Y17500D02*
X1594D01*
X2677Y2785D02*
X2691Y2800D01*
Y2840D02*
X2721Y2870D01*
X2691Y2800D02*
Y2840D01*
X829Y16870D02*
X1594D01*
X330Y14454D02*
Y16371D01*
X829Y16870D01*
X2539Y11693D02*
X2789D01*
X2539Y12283D02*
X2789D01*
X2500Y11890D02*
X2538D01*
X2500Y12087D02*
X2538D01*
X2974Y12026D02*
X3012Y11988D01*
X2974Y12026D02*
X2974Y12026D01*
X3342Y11806D02*
X3460Y11924D01*
X5374Y16398D02*
X5384D01*
X4833D02*
X5374D01*
X6166Y15667D02*
X6358Y15859D01*
X6166Y15649D02*
Y15667D01*
X6358Y15859D02*
Y15866D01*
X10935Y13697D02*
X11024Y13608D01*
Y13386D02*
Y13608D01*
X10935Y13697D02*
Y13711D01*
X11959Y14596D02*
X12077Y14478D01*
X12682D01*
X12707Y14503D01*
Y14513D01*
X10821Y15626D02*
X10846Y15601D01*
X12047Y17694D02*
X12418D01*
X12421Y17697D01*
X13132Y16732D02*
X14331D01*
X15089Y15974D01*
X13132Y17697D02*
X14242D01*
X11024Y14060D02*
X11246Y13838D01*
X11304Y13780D01*
X8051Y16592D02*
X8062Y16581D01*
X8073Y16527D02*
Y16555D01*
X8043Y16454D02*
X8043Y16454D01*
X7920Y16332D02*
X8043Y16454D01*
X7687Y15728D02*
X7687Y15728D01*
X3012Y11988D02*
X3024D01*
X2974Y11951D02*
X3012Y11988D01*
X8029Y16279D02*
X8140Y16390D01*
X3527Y12305D02*
Y12305D01*
X3582Y12302D02*
X3582Y12302D01*
X3577Y12303D02*
Y12303D01*
X3258Y12480D02*
X3307Y12530D01*
X3516Y12305D02*
X3516Y12305D01*
X3349Y12429D02*
X3435Y12343D01*
X3697Y12247D02*
X3819Y12126D01*
X8198Y16581D02*
X8209Y16592D01*
Y16594D01*
X8187Y16503D02*
Y16555D01*
X2913Y12480D02*
X3258D01*
X8051Y16592D02*
Y16594D01*
X7768Y15923D02*
Y15963D01*
X3137Y11941D02*
X3300Y11779D01*
X14080Y5359D02*
Y6688D01*
X13928Y5207D02*
X14080Y5359D01*
X13928Y5111D02*
Y5207D01*
X9882Y12096D02*
Y12096D01*
X9689Y12290D02*
X9882Y12096D01*
X9689Y12290D02*
Y12483D01*
X20321Y4886D02*
Y6638D01*
X9967Y12386D02*
Y12486D01*
X10123Y12229D02*
X13537D01*
X10039Y12313D02*
X10123Y12229D01*
X13537D02*
X15430Y10337D01*
X9946Y12131D02*
X13497D01*
X8976Y12580D02*
X9741Y11816D01*
X11481D01*
X8976Y12580D02*
Y14390D01*
X5374Y15768D02*
X5384D01*
X4833D02*
X5374D01*
X4833Y16083D02*
X5374D01*
X4823Y16713D02*
X5374D01*
X5394D01*
X4833Y17028D02*
X5374D01*
X13734Y7936D02*
X14006Y8209D01*
X13734Y7595D02*
Y7936D01*
Y7595D02*
X13834Y7495D01*
Y6937D02*
Y7495D01*
X13888Y6880D02*
Y6882D01*
X13834Y6937D02*
X13888Y6882D01*
Y6880D02*
X14080Y6688D01*
X14178Y5898D02*
Y6892D01*
Y5898D02*
X14477Y5599D01*
X14178Y6892D02*
X14178Y6892D01*
Y8479D01*
X15901Y7584D02*
Y7695D01*
X15162Y8433D02*
X15901Y7695D01*
X15064Y8392D02*
X15556Y7900D01*
Y6826D02*
Y7900D01*
X15162Y8433D02*
Y9247D01*
X15064Y8392D02*
Y9802D01*
X15212Y6621D02*
Y8105D01*
X14966Y8351D02*
Y9843D01*
Y8351D02*
X15212Y8105D01*
X15901Y6748D02*
Y7584D01*
X15092Y6501D02*
X15212Y6621D01*
X15162Y9247D02*
X15354Y9439D01*
X15231Y9969D02*
Y10030D01*
X15064Y9802D02*
X15231Y9969D01*
X15059Y9936D02*
Y10217D01*
X14966Y9843D02*
X15059Y9936D01*
X14867Y6629D02*
Y10010D01*
X14887Y10030D01*
X14115Y8888D02*
X14523Y8480D01*
Y6403D02*
Y8480D01*
X14733Y5609D02*
Y6192D01*
X14523Y6403D02*
X14733Y6192D01*
X14994Y5403D02*
Y6502D01*
X14867Y6629D02*
X14994Y6502D01*
X14413Y4822D02*
X14994Y5403D01*
X15092Y5362D02*
Y6501D01*
X15191Y4246D02*
Y6460D01*
X15556Y6826D01*
X14793Y5063D02*
X15092Y5362D01*
X14946Y4002D02*
X15140Y4196D01*
Y4196D02*
X15191Y4246D01*
X15140Y4196D02*
Y4196D01*
X15670Y6518D02*
X15901Y6748D01*
X14134Y8524D02*
X14178Y8479D01*
X19069Y8150D02*
X19910D01*
X20120Y6839D02*
X20321Y6638D01*
X20120Y6839D02*
Y7940D01*
X19910Y8150D02*
X20120Y7940D01*
X18687Y8532D02*
Y9772D01*
X18783Y8436D02*
X19069Y8150D01*
X18687Y8532D02*
X18783Y8436D01*
X18589Y8491D02*
Y9731D01*
Y8491D02*
X18986Y8094D01*
Y6763D02*
Y8094D01*
X15389Y10239D02*
X18081D01*
X15430Y10337D02*
X18122D01*
X18687Y9772D01*
X18081Y10239D02*
X18589Y9731D01*
X13497Y12131D02*
X15389Y10239D01*
X14413Y4554D02*
X14413Y4554D01*
X14413Y4554D02*
Y4822D01*
X14675Y3278D02*
Y3984D01*
X14413Y4246D02*
X14675Y3984D01*
X14413Y4246D02*
Y4554D01*
X14431Y3007D02*
X14787D01*
X14946Y3165D02*
Y4002D01*
X14161Y3278D02*
X14431Y3007D01*
X14787D02*
X14946Y3165D01*
X14503Y3105D02*
X14747D01*
X14847Y3206D01*
X14418Y3190D02*
Y3356D01*
X14847Y3206D02*
Y3952D01*
X14418Y3190D02*
X14503Y3105D01*
X14793Y4006D02*
X14847Y3952D01*
X14793Y4006D02*
Y5063D01*
X12097Y4136D02*
Y4814D01*
X12476Y5193D01*
X12575D02*
X12598Y5217D01*
X12476Y5193D02*
X12575D01*
X133Y14072D02*
X244Y13962D01*
X14980Y20314D02*
Y20556D01*
X12106Y13780D02*
X12441Y14114D01*
X11619Y13780D02*
X12106D01*
X11804Y13258D02*
X11811D01*
X11636Y13425D02*
X11804Y13258D01*
X11398Y13425D02*
X11636D01*
X14321Y12916D02*
X15187Y13782D01*
X15089Y13927D02*
Y15974D01*
X14321Y13415D02*
Y13428D01*
X14990Y14097D02*
Y15433D01*
X14321Y13159D02*
X15089Y13927D01*
X14242Y17697D02*
X15187Y16752D01*
X14321Y13428D02*
X14990Y14097D01*
X14321Y12904D02*
Y12916D01*
X15187Y13782D02*
Y16752D01*
X14367Y16056D02*
X14990Y15433D01*
X14311Y14449D02*
X14434Y14572D01*
Y14635D01*
X14503Y14704D01*
X13986Y14587D02*
X14173D01*
X14311Y14449D01*
X14123Y13981D02*
X14192Y14050D01*
X13297Y14513D02*
X13467D01*
X13999Y13981D02*
X14123D01*
X13467Y14513D02*
X13999Y13981D01*
X13665Y14494D02*
X13976Y14183D01*
X14075D01*
X13891Y14744D02*
X13986D01*
X13862Y14774D02*
X13891Y14744D01*
X13361Y14774D02*
X13862D01*
X14130Y15586D02*
X14302D01*
X14390Y15148D02*
Y15242D01*
X14419Y15272D01*
Y15468D01*
X14302Y15586D02*
X14419Y15468D01*
X13490Y15188D02*
X13602Y15300D01*
X14565Y15098D02*
X14754D01*
X14547Y15116D02*
Y15148D01*
Y15116D02*
X14565Y15098D01*
X11481Y11816D02*
X11555Y11742D01*
X11583D01*
X12009D02*
X12402Y11350D01*
Y9394D02*
Y11350D01*
X14232Y14091D02*
Y14183D01*
X14192Y14051D02*
X14232Y14091D01*
X14192Y14050D02*
Y14051D01*
X13529Y14983D02*
X14029Y15483D01*
Y15485D01*
X14130Y15586D01*
X13986Y14902D02*
X14284D01*
X14544Y14744D02*
X14636D01*
X14504Y14704D02*
X14544Y14744D01*
X14503Y14704D02*
X14504D01*
X12379Y16056D02*
X14367D01*
X13374Y14983D02*
X13529D01*
X13361Y14970D02*
X13374Y14983D01*
X13361Y15167D02*
X13381Y15188D01*
X13490D01*
X12013Y9006D02*
X12402Y9394D01*
X11988Y9006D02*
X12013D01*
X9685Y12486D02*
X9689Y12483D01*
X11545Y1565D02*
Y3642D01*
X11625Y3850D02*
X11634Y3858D01*
X11625Y3722D02*
Y3850D01*
X11545Y3642D02*
X11625Y3722D01*
X11447Y1606D02*
Y3671D01*
X11161Y3661D02*
X11348Y3474D01*
Y1646D02*
Y3474D01*
X11060Y1358D02*
X11348Y1646D01*
X19054Y6068D02*
X19246Y6260D01*
X19054Y3651D02*
Y6068D01*
X18169Y2766D02*
X19054Y3651D01*
X18250Y2569D02*
X19944Y4262D01*
X19226Y3684D02*
Y5181D01*
X18209Y2667D02*
X19226Y3684D01*
X11742Y2667D02*
X18209D01*
X11742Y2913D02*
X11890Y2766D01*
X18169D01*
X11742Y2421D02*
X11890Y2569D01*
X18250D01*
X12097Y4136D02*
X12104Y4129D01*
X18986Y6763D02*
X19418Y6331D01*
Y6019D02*
Y6331D01*
X19226Y5827D02*
X19418Y6019D01*
X11215Y15502D02*
X11437D01*
X3128Y4803D02*
X3238Y4693D01*
X2705Y2669D02*
Y2785D01*
X244Y13962D02*
X723D01*
X12624Y14114D02*
X12835D01*
X12441D02*
X12624D01*
X12835D02*
X13095Y14374D01*
X12238Y14226D02*
X12333Y14321D01*
X12077Y14065D02*
X12238Y14226D01*
X12800Y14321D02*
X12879Y14400D01*
X12072Y14065D02*
X12077D01*
X12003D02*
X12072D01*
X12333Y14321D02*
X12800D01*
X6224Y15118D02*
Y15252D01*
X6138Y15339D02*
X6224Y15252D01*
X6138Y15339D02*
Y15620D01*
X6166Y15649D01*
X11432Y18046D02*
Y18204D01*
X11366Y18270D02*
X11432Y18204D01*
X11427Y18041D02*
X11432Y18046D01*
X11942Y17589D02*
X12047Y17694D01*
X11161Y18270D02*
X11366D01*
X11443Y18055D02*
X11447Y18051D01*
X8228Y8238D02*
X8648D01*
X8652Y8234D01*
X8652Y8464D02*
Y8656D01*
X858Y14096D02*
Y14224D01*
X866Y14232D01*
X723Y13962D02*
X858Y14096D01*
X2684Y12495D02*
X2976Y12786D01*
Y12786D02*
X3020Y12830D01*
X2976Y12786D02*
Y12786D01*
X3092Y12830D02*
X3096Y12835D01*
X3020Y12830D02*
X3092D01*
X2894Y11358D02*
X3126D01*
X2421Y11299D02*
X2835D01*
X2894Y11358D01*
X2421Y12480D02*
X2649D01*
X8524Y17067D02*
X8524D01*
X8524Y17067D02*
X8524Y17067D01*
X15295Y20314D02*
Y20556D01*
X6362Y15085D02*
Y15620D01*
Y15085D02*
X6491Y14956D01*
X6511D01*
X591Y17549D02*
X631D01*
X690Y17608D01*
X1083D01*
X1521Y17741D02*
X1594Y17815D01*
X1216Y17741D02*
X1521D01*
X1083Y17608D02*
X1216Y17741D01*
X2096Y8248D02*
X2707D01*
X2096Y8248D02*
X2096Y8248D01*
X2589Y8642D02*
X2712Y8519D01*
X2096Y8642D02*
X2589D01*
X10792Y14060D02*
X11024D01*
X11550Y13780D02*
X11619D01*
X11688Y14065D02*
X11757D01*
X11545D02*
X11688D01*
X11358Y14252D02*
X11545Y14065D01*
X2721Y3036D02*
X2859Y3174D01*
X2721Y2870D02*
Y3036D01*
X3613Y4674D02*
X4262Y4026D01*
Y1822D02*
Y4026D01*
Y1822D02*
X4726Y1358D01*
X10502Y13652D02*
Y13996D01*
X10236Y13386D02*
X10502Y13652D01*
X3474Y2470D02*
X4685Y1260D01*
X11101D02*
X11447Y1606D01*
X4685Y1260D02*
X11101D01*
X3238Y2799D02*
X3340Y2697D01*
Y2605D02*
X3474Y2470D01*
X3340Y2605D02*
Y2697D01*
X3113Y3174D02*
X3238Y3299D01*
X2859Y3174D02*
X3113D01*
X11142Y1161D02*
X11545Y1565D01*
X8629Y1161D02*
X11142D01*
X8349Y881D02*
X8629Y1161D01*
X7419Y881D02*
X8349D01*
X3126Y2576D02*
X4540Y1161D01*
X2798Y2576D02*
X3126D01*
X7138Y1161D02*
X7419Y881D01*
X4540Y1161D02*
X7138D01*
X2705Y2669D02*
X2798Y2576D01*
X12216Y16219D02*
Y16588D01*
Y16219D02*
X12379Y16056D01*
X12216Y16588D02*
X12261Y16633D01*
X12263D01*
X12362Y16732D01*
X11040Y15426D02*
Y15603D01*
X11018Y15626D02*
X11040Y15603D01*
X11511Y15945D02*
X11525Y15931D01*
X11171Y15945D02*
X11511D01*
X13272Y12904D02*
X14321D01*
X13272Y13159D02*
X14321D01*
X13272Y13415D02*
X14321D01*
X11215Y15502D02*
Y15626D01*
X13095Y14374D02*
Y14507D01*
X13100Y14513D01*
X12879Y14400D02*
Y14488D01*
X12904Y14513D01*
X10630Y18189D02*
X10659Y18159D01*
X10734Y18047D02*
X10938D01*
X10659Y17972D02*
X10734Y18047D01*
X4726Y1358D02*
X7158D01*
X3238Y4799D02*
X3363Y4674D01*
X3613D01*
X7419Y1619D02*
X8349D01*
X8610Y1358D01*
X11060D01*
X7158D02*
X7419Y1619D01*
X11047Y18671D02*
X11049Y18669D01*
Y18158D02*
Y18381D01*
Y17936D02*
Y18158D01*
X11272D01*
X11049Y18381D02*
X11272D01*
X10826Y17936D02*
X11049D01*
X10825Y18159D02*
X10826Y18158D01*
X10659Y18159D02*
X10825D01*
X10255Y16021D02*
X10328Y16094D01*
X10476D01*
X10511Y16128D01*
D19*
X12983Y18111D02*
X13381D01*
X12825Y17953D02*
X12983Y18111D01*
X13381D02*
X13382Y18110D01*
X12419Y17953D02*
X12825D01*
X13606Y16472D02*
X14331D01*
X13606Y17156D02*
X14429D01*
X12835Y16486D02*
X12844Y16476D01*
X13132D02*
X13352D01*
X13352Y16476D01*
X12419Y16988D02*
X12825D01*
X12997Y17160D01*
X13341D01*
X12844Y16476D02*
X13132D01*
D35*
X13382Y17160D02*
D03*
X13606D02*
D03*
X13382Y16476D02*
D03*
X13606D02*
D03*
X13382Y18110D02*
D03*
X13606D02*
D03*
X4356Y6732D02*
D03*
X4581D02*
D03*
X4826D02*
D03*
X5051D02*
D03*
X10587Y16978D02*
D03*
X10811D02*
D03*
X11226D02*
D03*
X11451D02*
D03*
X13272Y13415D02*
D03*
X13047D02*
D03*
X13272Y13159D02*
D03*
X13047D02*
D03*
X11362Y17667D02*
D03*
X11138D02*
D03*
X10823Y18671D02*
D03*
X11047Y18671D02*
D03*
X4051Y12943D02*
D03*
X4276D02*
D03*
X949Y9862D02*
D03*
X724D02*
D03*
X724Y9577D02*
D03*
X949D02*
D03*
X13272Y12904D02*
D03*
X13047D02*
D03*
X15959Y19296D02*
D03*
X15734D02*
D03*
X15299D02*
D03*
X15075D02*
D03*
X6362Y15620D02*
D03*
X6138D02*
D03*
X3106Y12844D02*
D03*
X3331D02*
D03*
X3116Y11358D02*
D03*
X3341D02*
D03*
X13854Y13720D02*
D03*
X14079D02*
D03*
X11226Y17215D02*
D03*
X11451D02*
D03*
D43*
X8730Y15079D02*
D03*
X8199D02*
D03*
X7530Y16713D02*
D03*
X6998D02*
D03*
X9104Y16535D02*
D03*
X9636Y16535D02*
D03*
X8809Y15610D02*
D03*
X9341D02*
D03*
X8789Y16083D02*
D03*
X8258D02*
D03*
X7530Y17165D02*
D03*
X6998D02*
D03*
X7530Y16260D02*
D03*
X6998Y16260D02*
D03*
D45*
X12707Y15929D02*
D03*
Y15705D02*
D03*
X12274Y15004D02*
D03*
Y14780D02*
D03*
X9961Y12486D02*
D03*
X9961Y12711D02*
D03*
X9685Y12711D02*
D03*
Y12486D02*
D03*
X8652Y8459D02*
D03*
Y8234D02*
D03*
X2402Y19770D02*
D03*
Y19994D02*
D03*
X1575Y19994D02*
D03*
Y19770D02*
D03*
X8209Y17809D02*
D03*
Y17585D02*
D03*
X3219Y11028D02*
D03*
Y10803D02*
D03*
X4203Y11028D02*
D03*
Y10803D02*
D03*
X8809Y17673D02*
D03*
Y17898D02*
D03*
X9331Y11313D02*
D03*
Y11089D02*
D03*
X12136Y17720D02*
D03*
Y17496D02*
D03*
X8425Y8234D02*
D03*
Y8459D02*
D03*
X7480Y17809D02*
D03*
Y17585D02*
D03*
D46*
X4055Y13819D02*
D03*
Y13287D02*
D03*
D47*
X6585Y14862D02*
D03*
X6585Y15256D02*
D03*
D48*
X5522Y15049D02*
D03*
X5128Y15049D02*
D03*
X10748Y17257D02*
D03*
X10354D02*
D03*
D50*
X9134Y14547D02*
D03*
X8976D02*
D03*
X9134Y14390D02*
D03*
X8976D02*
D03*
D70*
X9350Y18307D02*
D03*
X7851Y18546D02*
D03*
X7904Y18199D02*
D03*
X7490Y18179D02*
D03*
X7944Y17815D02*
D03*
X9055Y19055D02*
D03*
X9021Y17067D02*
D03*
X10128Y5236D02*
D03*
Y4764D02*
D03*
X9603D02*
D03*
Y5236D02*
D03*
X10128Y4291D02*
D03*
Y3819D02*
D03*
X9603Y4291D02*
D03*
Y3819D02*
D03*
X8553Y5236D02*
D03*
X9078D02*
D03*
Y4764D02*
D03*
X8553D02*
D03*
X9078Y4291D02*
D03*
Y3819D02*
D03*
X8553Y4291D02*
D03*
Y3819D02*
D03*
X361Y14134D02*
D03*
X610Y14242D02*
D03*
X9596Y10769D02*
D03*
X5571Y10768D02*
D03*
X10236Y16978D02*
D03*
X10256Y17539D02*
D03*
X11142Y17500D02*
D03*
X11024Y17067D02*
D03*
X11412Y11614D02*
D03*
X10620Y14252D02*
D03*
X11622Y11742D02*
D03*
X10039Y12313D02*
D03*
X9695Y15010D02*
D03*
X9941Y15010D02*
D03*
X10039Y14006D02*
D03*
X9941Y15256D02*
D03*
X10822Y17726D02*
D03*
X10935Y15197D02*
D03*
X11181Y15285D02*
D03*
X20281Y17613D02*
D03*
Y16113D02*
D03*
Y14613D02*
D03*
X19906Y9363D02*
D03*
X20281Y8613D02*
D03*
X19906Y7863D02*
D03*
Y4863D02*
D03*
Y3363D02*
D03*
X20281Y2613D02*
D03*
X19906Y1863D02*
D03*
Y363D02*
D03*
X19156Y19863D02*
D03*
X19531Y17613D02*
D03*
X19156Y9363D02*
D03*
X19531Y8613D02*
D03*
Y7113D02*
D03*
Y2613D02*
D03*
Y1113D02*
D03*
X19156Y363D02*
D03*
X18406Y19863D02*
D03*
X18781Y17613D02*
D03*
X18406Y9363D02*
D03*
Y7863D02*
D03*
X18781Y7113D02*
D03*
X18406Y6363D02*
D03*
X18781Y5613D02*
D03*
Y4113D02*
D03*
X18406Y3363D02*
D03*
X18781Y2613D02*
D03*
X18406Y363D02*
D03*
X17656Y19863D02*
D03*
X18031Y17613D02*
D03*
Y11613D02*
D03*
Y7113D02*
D03*
X17656Y6363D02*
D03*
X17281Y17613D02*
D03*
X16906Y16863D02*
D03*
Y13863D02*
D03*
Y6363D02*
D03*
X17281Y5613D02*
D03*
X16531Y17613D02*
D03*
X16156Y16863D02*
D03*
X16531Y16113D02*
D03*
Y14613D02*
D03*
Y13113D02*
D03*
X16156Y12363D02*
D03*
X16531Y11613D02*
D03*
X16156Y6363D02*
D03*
X15781Y17613D02*
D03*
X15406Y16863D02*
D03*
X15781Y16113D02*
D03*
X15406Y13863D02*
D03*
Y12363D02*
D03*
X14656D02*
D03*
X13906Y19863D02*
D03*
Y10863D02*
D03*
Y7863D02*
D03*
Y1863D02*
D03*
X13156Y13863D02*
D03*
X13531Y11613D02*
D03*
Y10113D02*
D03*
X13156Y1863D02*
D03*
X13531Y1113D02*
D03*
X13156Y363D02*
D03*
X12781Y7113D02*
D03*
Y1113D02*
D03*
X12406Y363D02*
D03*
X12031Y10113D02*
D03*
Y1113D02*
D03*
X11656Y363D02*
D03*
X11281Y10113D02*
D03*
X10906Y363D02*
D03*
X10156D02*
D03*
X9781Y19113D02*
D03*
X9406Y363D02*
D03*
X8656Y10863D02*
D03*
X6406D02*
D03*
X5656Y13863D02*
D03*
Y1863D02*
D03*
X4906Y12363D02*
D03*
X5281Y11613D02*
D03*
X4906Y1863D02*
D03*
X4531Y10113D02*
D03*
Y8613D02*
D03*
Y4113D02*
D03*
Y2613D02*
D03*
X3406Y13863D02*
D03*
X3781Y7113D02*
D03*
X3406Y1863D02*
D03*
X3781Y1113D02*
D03*
X3031Y10113D02*
D03*
X2656Y1863D02*
D03*
X3031Y1113D02*
D03*
X2656Y363D02*
D03*
X2281Y7113D02*
D03*
Y1113D02*
D03*
X1906Y363D02*
D03*
X1531Y5613D02*
D03*
X781Y8613D02*
D03*
X406Y7863D02*
D03*
Y6363D02*
D03*
X781Y5613D02*
D03*
X406Y4863D02*
D03*
X781Y2613D02*
D03*
X406Y1863D02*
D03*
X2677Y2785D02*
D03*
X6132Y5787D02*
D03*
X7136Y7500D02*
D03*
Y6339D02*
D03*
X4921Y4872D02*
D03*
X6132Y5359D02*
D03*
X6211Y4911D02*
D03*
X6389Y4742D02*
D03*
X6388Y5522D02*
D03*
X6959Y5325D02*
D03*
X4428Y5881D02*
D03*
X4824D02*
D03*
X3681Y6634D02*
D03*
X3563Y7657D02*
D03*
X7106Y18770D02*
D03*
X1255Y12095D02*
D03*
X1063Y10650D02*
D03*
X1171Y9577D02*
D03*
Y9862D02*
D03*
X1014Y11093D02*
D03*
X6132Y7598D02*
D03*
X2982Y5797D02*
D03*
X2667Y6427D02*
D03*
X3583Y5157D02*
D03*
X2067Y11585D02*
D03*
X2085Y12382D02*
D03*
X2077Y12106D02*
D03*
X1093Y13012D02*
D03*
X1122Y13346D02*
D03*
X2047Y5138D02*
D03*
X321Y13376D02*
D03*
X509Y14685D02*
D03*
X502Y14931D02*
D03*
X1255Y11842D02*
D03*
X1132Y9114D02*
D03*
X2303Y9370D02*
D03*
X4551Y15234D02*
D03*
X3883Y14134D02*
D03*
X3858Y14429D02*
D03*
X5374Y16398D02*
D03*
X5315Y18543D02*
D03*
X5374Y17972D02*
D03*
X6102Y19291D02*
D03*
X4121Y19219D02*
D03*
X3602Y19232D02*
D03*
X6663Y17156D02*
D03*
X6358Y15866D02*
D03*
X6604Y15532D02*
D03*
X5856Y17106D02*
D03*
X6102Y17126D02*
D03*
X5404Y19936D02*
D03*
X7146Y15866D02*
D03*
X6860Y15399D02*
D03*
X7362Y19665D02*
D03*
X7874Y19055D02*
D03*
X20246Y18701D02*
D03*
X19911D02*
D03*
X7490Y1841D02*
D03*
X7884Y1841D02*
D03*
X8278D02*
D03*
X7490Y1447D02*
D03*
X7884D02*
D03*
X8278D02*
D03*
X7490Y1053D02*
D03*
X7884D02*
D03*
X8278D02*
D03*
X7490Y659D02*
D03*
X7884Y659D02*
D03*
X8278D02*
D03*
X10935Y13711D02*
D03*
X11959Y14596D02*
D03*
X15992Y5874D02*
D03*
X8415Y12687D02*
D03*
Y13346D02*
D03*
X8415Y13976D02*
D03*
X7805Y8258D02*
D03*
X7963Y15728D02*
D03*
X3819Y12126D02*
D03*
X7687Y15728D02*
D03*
X3543Y12126D02*
D03*
X18041Y5010D02*
D03*
X13819Y5433D02*
D03*
X19823Y12362D02*
D03*
X17096Y1043D02*
D03*
X15935Y5197D02*
D03*
X15837Y3967D02*
D03*
X17352Y4724D02*
D03*
X17746Y5305D02*
D03*
X17106Y5295D02*
D03*
X16604Y5285D02*
D03*
X17751Y4723D02*
D03*
X16211Y4715D02*
D03*
X16201Y4360D02*
D03*
X16951Y4744D02*
D03*
X16454Y4327D02*
D03*
X16454Y4744D02*
D03*
X16014Y4537D02*
D03*
X16594Y3789D02*
D03*
X17077Y3701D02*
D03*
X17638Y3593D02*
D03*
X17096Y2264D02*
D03*
X16909Y1211D02*
D03*
X17640Y1855D02*
D03*
Y2229D02*
D03*
X16072Y3825D02*
D03*
X17563Y3947D02*
D03*
X17310Y4223D02*
D03*
X16951Y4328D02*
D03*
X6329Y3445D02*
D03*
X14321Y12657D02*
D03*
X8553Y2205D02*
D03*
X5374Y15768D02*
D03*
X7185Y2421D02*
D03*
X5374Y16083D02*
D03*
X7362Y2598D02*
D03*
X7185Y2776D02*
D03*
X5374Y16713D02*
D03*
X7362Y2953D02*
D03*
X5374Y17028D02*
D03*
X7185Y3130D02*
D03*
X9045Y2953D02*
D03*
X8553Y2451D02*
D03*
X6781Y3425D02*
D03*
X6988Y3278D02*
D03*
X9498Y2205D02*
D03*
X9498Y2451D02*
D03*
X10496Y1955D02*
D03*
X10709Y2165D02*
D03*
X10581Y2707D02*
D03*
X11171Y2579D02*
D03*
X11024Y2362D02*
D03*
X10925Y2825D02*
D03*
X11171D02*
D03*
X6781Y3674D02*
D03*
Y3920D02*
D03*
X8198Y2701D02*
D03*
X8553D02*
D03*
X10325D02*
D03*
X10069Y2293D02*
D03*
X9498Y2701D02*
D03*
X9046D02*
D03*
X8889Y2293D02*
D03*
X7205Y4921D02*
D03*
Y5502D02*
D03*
X7461Y5797D02*
D03*
X7766Y4341D02*
D03*
X7205Y4463D02*
D03*
Y3410D02*
D03*
X7648Y3366D02*
D03*
X7687Y5167D02*
D03*
X7480Y3858D02*
D03*
X6801Y2254D02*
D03*
X14006Y7008D02*
D03*
X14115Y8888D02*
D03*
X15670Y6518D02*
D03*
X16496Y7057D02*
D03*
X16073D02*
D03*
X16073Y7589D02*
D03*
X15728Y7057D02*
D03*
X15728Y7589D02*
D03*
X15384Y7057D02*
D03*
X15384Y7589D02*
D03*
X15823Y8577D02*
D03*
X15039Y7057D02*
D03*
X15039Y7589D02*
D03*
X14695D02*
D03*
X14695Y7057D02*
D03*
X14350D02*
D03*
X14350Y7589D02*
D03*
X13051Y5453D02*
D03*
X17098Y8927D02*
D03*
X16916Y7845D02*
D03*
X13282Y6035D02*
D03*
X17098Y9675D02*
D03*
X17640Y9061D02*
D03*
X13824Y6157D02*
D03*
X13289Y6783D02*
D03*
X17084Y8179D02*
D03*
X17098Y9301D02*
D03*
X17164Y7333D02*
D03*
X17640Y8313D02*
D03*
X13824Y6531D02*
D03*
X13282Y5661D02*
D03*
X13403Y7139D02*
D03*
X13651Y7419D02*
D03*
X16841Y7145D02*
D03*
X17098Y8553D02*
D03*
X17640Y9435D02*
D03*
X13824Y5782D02*
D03*
X16606Y7636D02*
D03*
X17418Y7607D02*
D03*
X17640Y8687D02*
D03*
X13675Y5065D02*
D03*
X17582Y7944D02*
D03*
X13282Y6409D02*
D03*
X13991Y7574D02*
D03*
X19180Y13588D02*
D03*
X18806D02*
D03*
X19036Y13046D02*
D03*
X19410D02*
D03*
X19779Y12985D02*
D03*
X19818Y12613D02*
D03*
X20360Y12472D02*
D03*
Y12846D02*
D03*
X20279Y13211D02*
D03*
X20025Y13485D02*
D03*
X19665Y13588D02*
D03*
X17641Y13547D02*
D03*
X17322Y13351D02*
D03*
X17134Y13028D02*
D03*
X17098Y12656D02*
D03*
X17098Y12282D02*
D03*
X17098Y11908D02*
D03*
X17098Y11534D02*
D03*
X17098Y11160D02*
D03*
X17640Y11243D02*
D03*
X17640Y11617D02*
D03*
X17640Y11991D02*
D03*
X17640Y12365D02*
D03*
X17640Y12739D02*
D03*
X17859Y13042D02*
D03*
X18245Y13585D02*
D03*
X16624Y1053D02*
D03*
X16348D02*
D03*
Y1329D02*
D03*
X16508Y507D02*
D03*
X16882D02*
D03*
X17256Y523D02*
D03*
X17560Y741D02*
D03*
X17640Y1107D02*
D03*
Y1481D02*
D03*
X13701Y3927D02*
D03*
X13799Y3317D02*
D03*
X13051Y3002D02*
D03*
X9055Y17559D02*
D03*
X8799Y17549D02*
D03*
X20276Y1102D02*
D03*
X20669Y5217D02*
D03*
X6053Y876D02*
D03*
X18159Y6014D02*
D03*
X16663Y3130D02*
D03*
Y2352D02*
D03*
X18081Y2343D02*
D03*
X18071Y3110D02*
D03*
X17096Y1663D02*
D03*
X16909Y2018D02*
D03*
X13317Y4222D02*
D03*
X11510Y5356D02*
D03*
X15187Y18760D02*
D03*
X14980Y20314D02*
D03*
X4855Y19318D02*
D03*
X8976Y8593D02*
D03*
X11722Y12904D02*
D03*
X11329Y13425D02*
D03*
X14744Y14104D02*
D03*
X14311Y14449D02*
D03*
X13637Y14587D02*
D03*
X14754Y15098D02*
D03*
X15231Y10030D02*
D03*
X14887D02*
D03*
X15059Y10217D02*
D03*
X14359Y14866D02*
D03*
X14230Y15413D02*
D03*
X13524Y15330D02*
D03*
X12313Y8937D02*
D03*
X11831Y8612D02*
D03*
X11988Y9006D02*
D03*
X10617Y8944D02*
D03*
X10601Y9288D02*
D03*
X10763Y9473D02*
D03*
X9016Y11841D02*
D03*
X9882Y12096D02*
D03*
X19246Y6260D02*
D03*
X19944Y4262D02*
D03*
X19226Y5181D02*
D03*
X11742Y2913D02*
D03*
Y2421D02*
D03*
Y2667D02*
D03*
X12598Y5217D02*
D03*
X12269Y4409D02*
D03*
X14006Y8209D02*
D03*
X14134Y8524D02*
D03*
X15354Y9439D02*
D03*
X14498Y5876D02*
D03*
X14477Y5599D02*
D03*
X14733Y5609D02*
D03*
X13928Y5111D02*
D03*
X14177Y5159D02*
D03*
X15481Y6261D02*
D03*
X12627Y4518D02*
D03*
X12104Y4129D02*
D03*
X12972Y3720D02*
D03*
X12736Y7972D02*
D03*
X12766Y8435D02*
D03*
X18760Y4360D02*
D03*
X12785Y12854D02*
D03*
X5295Y12146D02*
D03*
X13986Y10502D02*
D03*
X16780Y9570D02*
D03*
X6565Y236D02*
D03*
X18386Y12884D02*
D03*
X18051Y12874D02*
D03*
X18730Y12878D02*
D03*
X16713Y9990D02*
D03*
Y10738D02*
D03*
X18022D02*
D03*
Y9990D02*
D03*
X12785Y17215D02*
D03*
X13100Y16230D02*
D03*
X12333Y8071D02*
D03*
X9163Y12726D02*
D03*
X6870Y13652D02*
D03*
X6762Y14409D02*
D03*
X2766Y15335D02*
D03*
X2736Y18041D02*
D03*
X12624Y14114D02*
D03*
X12238Y14226D02*
D03*
X11604Y18356D02*
D03*
X8652Y8656D02*
D03*
X4163Y17795D02*
D03*
X4488Y18602D02*
D03*
X13612Y17510D02*
D03*
X12421Y17244D02*
D03*
X10177Y15965D02*
D03*
X20301Y4886D02*
D03*
X15295Y20314D02*
D03*
X19226Y5827D02*
D03*
X15463Y18760D02*
D03*
X9360Y9045D02*
D03*
X8287Y9715D02*
D03*
X7953Y10620D02*
D03*
X6850Y10925D02*
D03*
X4882Y18612D02*
D03*
X7362Y18809D02*
D03*
X2451Y16171D02*
D03*
X3671Y16407D02*
D03*
X1398Y7854D02*
D03*
X5827Y19656D02*
D03*
X4970Y19646D02*
D03*
X591Y17549D02*
D03*
X2707Y8248D02*
D03*
X995Y17840D02*
D03*
X2712Y8519D02*
D03*
X14291Y12106D02*
D03*
X3593Y14026D02*
D03*
X18504Y1112D02*
D03*
X20295Y6939D02*
D03*
X8519Y14232D02*
D03*
X5821Y11062D02*
D03*
X7992Y13986D02*
D03*
X6879Y14694D02*
D03*
X6995Y8307D02*
D03*
X6749D02*
D03*
X6257D02*
D03*
X6503D02*
D03*
X4754Y12835D02*
D03*
X14843Y18809D02*
D03*
X17904Y19252D02*
D03*
X17047Y19242D02*
D03*
X18907Y20630D02*
D03*
X17992Y20610D02*
D03*
X17077D02*
D03*
X20620Y20650D02*
D03*
X20443Y17933D02*
D03*
X20610Y18691D02*
D03*
X20581Y19439D02*
D03*
X19567Y18711D02*
D03*
Y19114D02*
D03*
X19557Y18337D02*
D03*
X16138Y20554D02*
D03*
X11093Y5866D02*
D03*
X6348Y20374D02*
D03*
X4892Y20384D02*
D03*
X2707Y20226D02*
D03*
X217Y20659D02*
D03*
X246Y19429D02*
D03*
X295Y18543D02*
D03*
X4764Y13543D02*
D03*
X6033Y14173D02*
D03*
X9163Y14154D02*
D03*
X9400Y11663D02*
D03*
X4911Y8853D02*
D03*
X4774Y7923D02*
D03*
X4793Y2982D02*
D03*
X4892Y3996D02*
D03*
X7352Y14193D02*
D03*
X7421Y14774D02*
D03*
X15827Y3091D02*
D03*
X19331Y7864D02*
D03*
X19439Y4675D02*
D03*
X20620Y354D02*
D03*
X20610Y1831D02*
D03*
X20600Y3376D02*
D03*
Y9419D02*
D03*
X20610Y8612D02*
D03*
X20620Y7844D02*
D03*
Y7028D02*
D03*
X20630Y6220D02*
D03*
X16220Y8996D02*
D03*
X12224Y10807D02*
D03*
X11585Y11417D02*
D03*
X12283Y13632D02*
D03*
X13425Y14232D02*
D03*
X13465Y13770D02*
D03*
X14587Y11811D02*
D03*
X14744Y12825D02*
D03*
X16260Y13907D02*
D03*
X16102Y12608D02*
D03*
Y11821D02*
D03*
X16122Y11053D02*
D03*
X15335Y11112D02*
D03*
X15354Y11831D02*
D03*
X15364Y12608D02*
D03*
X15433Y13474D02*
D03*
X15118Y17156D02*
D03*
X14508Y16841D02*
D03*
X14094Y17884D02*
D03*
X13593Y18691D02*
D03*
X13957Y20561D02*
D03*
X10453Y19154D02*
D03*
X9665Y19724D02*
D03*
X8455D02*
D03*
X2234Y20610D02*
D03*
X276Y17490D02*
D03*
X1260Y15295D02*
D03*
X4203Y10532D02*
D03*
X3219D02*
D03*
X2165Y9813D02*
D03*
X305Y9675D02*
D03*
X4222Y8730D02*
D03*
X4006Y6496D02*
D03*
X4065Y6191D02*
D03*
X3356Y640D02*
D03*
X5069Y620D02*
D03*
X6348Y2047D02*
D03*
X10217Y915D02*
D03*
X9400D02*
D03*
X11171Y925D02*
D03*
X10256Y1683D02*
D03*
X9547Y1654D02*
D03*
X11083Y2077D02*
D03*
X12087Y3484D02*
D03*
X15684Y3445D02*
D03*
X20679Y12333D02*
D03*
X16299Y187D02*
D03*
X16599Y5627D02*
D03*
X16330Y5665D02*
D03*
X16869D02*
D03*
X13750Y571D02*
D03*
X1594Y19242D02*
D03*
X11850Y19163D02*
D03*
X9341Y17067D02*
D03*
X9821Y20108D02*
D03*
X5886Y15335D02*
D03*
X837Y15246D02*
D03*
X876Y16673D02*
D03*
X10502Y13996D02*
D03*
X13061Y11211D02*
D03*
X14331Y16472D02*
D03*
X14429Y17156D02*
D03*
X7707Y17569D02*
D03*
X876Y16240D02*
D03*
X866Y14232D02*
D03*
X2800Y4803D02*
D03*
X11398Y3760D02*
D03*
X3474Y2470D02*
D03*
X11634Y3858D02*
D03*
X3799Y18307D02*
D03*
X2815Y18445D02*
D03*
X12323Y15876D02*
D03*
X12510Y16230D02*
D03*
X13386Y16939D02*
D03*
X13346Y17884D02*
D03*
X15128Y17854D02*
D03*
X16112Y17943D02*
D03*
X15984Y18179D02*
D03*
X14321Y13671D02*
D03*
Y13415D02*
D03*
Y12904D02*
D03*
Y13159D02*
D03*
X15157Y19035D02*
D03*
X12392Y15256D02*
D03*
X5157Y7963D02*
D03*
X8976Y8346D02*
D03*
X10792Y14060D02*
D03*
X10876Y3445D02*
D03*
X5364Y8278D02*
D03*
Y7697D02*
D03*
X6250Y9026D02*
D03*
X6166Y10394D02*
D03*
X6250Y6949D02*
D03*
X5295Y9518D02*
D03*
X3593Y17776D02*
D03*
X5364Y2982D02*
D03*
Y3583D02*
D03*
X5374Y4075D02*
D03*
X5364Y4528D02*
D03*
X5719Y2470D02*
D03*
X6555Y3258D02*
D03*
X6260Y6417D02*
D03*
X5541Y659D02*
D03*
X4094Y6732D02*
D03*
X8957Y1742D02*
D03*
X6102Y15846D02*
D03*
X5374Y17343D02*
D03*
Y17657D02*
D03*
X10179Y16289D02*
D03*
X14161Y3278D02*
D03*
X14675D02*
D03*
X14418Y3356D02*
D03*
X11161Y3661D02*
D03*
X12037Y14961D02*
D03*
X2776Y13209D02*
D03*
X4301Y15443D02*
D03*
X14856Y19299D02*
D03*
X14946Y19856D02*
D03*
X15516Y19316D02*
D03*
X15535Y19886D02*
D03*
X18504Y10512D02*
D03*
Y10787D02*
D03*
Y11339D02*
D03*
X20285Y9783D02*
D03*
X12047Y12608D02*
D03*
X13425Y11919D02*
D03*
X8730Y10374D02*
D03*
X11063Y6969D02*
D03*
X11821Y7982D02*
D03*
X11398Y7037D02*
D03*
X2156Y6614D02*
D03*
X8317Y10522D02*
D03*
X5069Y11388D02*
D03*
X5020Y9409D02*
D03*
X4154Y9606D02*
D03*
X4213Y20364D02*
D03*
X16122Y13533D02*
D03*
X16526Y15030D02*
D03*
X19862Y6713D02*
D03*
X4911Y7539D02*
D03*
X5374Y6703D02*
D03*
X2815Y5197D02*
D03*
X4783Y4606D02*
D03*
X4124Y4577D02*
D03*
X2618Y2362D02*
D03*
X1501Y3307D02*
D03*
X1467Y3799D02*
D03*
X1521Y4798D02*
D03*
X7303Y13110D02*
D03*
X7402Y15709D02*
D03*
X8209Y15463D02*
D03*
X6112Y16112D02*
D03*
X13091Y14774D02*
D03*
X13002Y15097D02*
D03*
X13100Y15876D02*
D03*
X13632D02*
D03*
X16486Y14094D02*
D03*
X16053Y15364D02*
D03*
X8415Y8858D02*
D03*
X8696Y9390D02*
D03*
X6813Y12628D02*
D03*
X7738Y12638D02*
D03*
X6734Y11673D02*
D03*
X5730Y11683D02*
D03*
X5453Y13652D02*
D03*
X5148Y13967D02*
D03*
X5453Y14282D02*
D03*
X11122Y1752D02*
D03*
X12707Y10108D02*
D03*
X11752Y1703D02*
D03*
X2608Y7067D02*
D03*
X3209Y8878D02*
D03*
X1860Y5502D02*
D03*
X4390Y7913D02*
D03*
X325Y10650D02*
D03*
X2776Y10797D02*
D03*
X3947Y11398D02*
D03*
X3701Y13612D02*
D03*
X3150Y14085D02*
D03*
X11437Y10492D02*
D03*
X17539Y5463D02*
D03*
X1988Y15315D02*
D03*
X2904Y16240D02*
D03*
X1654Y18878D02*
D03*
X1427Y20374D02*
D03*
X728Y19065D02*
D03*
X4567Y20394D02*
D03*
X2805Y13829D02*
D03*
X1939Y14213D02*
D03*
X4134Y17096D02*
D03*
X3396Y16329D02*
D03*
X3366Y17028D02*
D03*
X3071Y18346D02*
D03*
X1900Y19439D02*
D03*
X1841Y20148D02*
D03*
X11348Y18593D02*
D03*
X10179Y16545D02*
D03*
X2923Y12992D02*
D03*
X2530Y7441D02*
D03*
X19498Y12372D02*
D03*
X19242D02*
D03*
X18986D02*
D03*
X18730D02*
D03*
X19606Y10226D02*
D03*
X18868Y10374D02*
D03*
X19134D02*
D03*
X19390D02*
D03*
X19734Y9990D02*
D03*
X20000D02*
D03*
X20630D02*
D03*
X13967Y266D02*
D03*
X16348Y1604D02*
D03*
Y1880D02*
D03*
Y2156D02*
D03*
X16152Y2372D02*
D03*
X15886D02*
D03*
X15620D02*
D03*
X15354D02*
D03*
X15098D02*
D03*
X14833D02*
D03*
X14567D02*
D03*
X14360Y2156D02*
D03*
Y1870D02*
D03*
Y1575D02*
D03*
Y1270D02*
D03*
X13967Y1220D02*
D03*
Y906D02*
D03*
X18504Y11614D02*
D03*
Y11063D02*
D03*
Y12165D02*
D03*
Y11890D02*
D03*
X12640Y5480D02*
D03*
X9360Y16043D02*
D03*
X3799Y17283D02*
D03*
Y17992D02*
D03*
X3802Y15866D02*
D03*
X3799Y16181D02*
D03*
X8258Y15728D02*
D03*
X15904Y3577D02*
D03*
X16869Y3400D02*
D03*
X16330D02*
D03*
X17264Y5915D02*
D03*
X16599Y3438D02*
D03*
X11486Y4478D02*
D03*
X11919Y4488D02*
D03*
X11378Y6565D02*
D03*
X9764Y7313D02*
D03*
X12215Y6988D02*
D03*
X11122Y4301D02*
D03*
X7569Y7520D02*
D03*
X11703Y4331D02*
D03*
X11526Y5610D02*
D03*
X10906Y5502D02*
D03*
X11349Y5866D02*
D03*
X11122Y6506D02*
D03*
X10177Y6516D02*
D03*
X9700Y7569D02*
D03*
X8140Y7353D02*
D03*
X10886Y4725D02*
D03*
X10423Y6221D02*
D03*
X7884Y6614D02*
D03*
X8927Y6290D02*
D03*
X8612Y6910D02*
D03*
X11502Y6328D02*
D03*
X11832Y5478D02*
D03*
X12292Y6628D02*
D03*
X14585Y4751D02*
D03*
X15018D02*
D03*
X14585Y4318D02*
D03*
X15018D02*
D03*
X15962Y5474D02*
D03*
X14093Y3826D02*
D03*
X15510D02*
D03*
Y5243D02*
D03*
X14350Y6250D02*
D03*
X15482Y5876D02*
D03*
X16299Y8612D02*
D03*
X15246Y3376D02*
D03*
X7854Y16909D02*
D03*
X9341Y17421D02*
D03*
X6654Y16260D02*
D03*
X6663Y16732D02*
D03*
X13396Y12569D02*
D03*
X12618Y12579D02*
D03*
X13937Y12431D02*
D03*
X14075Y18691D02*
D03*
X16906Y15481D02*
D03*
X12008Y20492D02*
D03*
X16240Y14537D02*
D03*
X2992Y20384D02*
D03*
X11043Y16289D02*
D03*
X12894Y20433D02*
D03*
X11540Y20408D02*
D03*
X10500Y20388D02*
D03*
X9618Y20348D02*
D03*
X8500D02*
D03*
X7500D02*
D03*
X5502Y20413D02*
D03*
D134*
X14636Y14429D02*
D03*
Y14587D02*
D03*
Y14744D02*
D03*
Y14902D02*
D03*
X13986D02*
D03*
X13986Y14744D02*
D03*
Y14587D02*
D03*
Y14429D02*
D03*
D135*
X14075Y14183D02*
D03*
X14232D02*
D03*
X14390D02*
D03*
X14547D02*
D03*
Y15148D02*
D03*
X14390D02*
D03*
X14232D02*
D03*
X14075D02*
D03*
D136*
X6750Y13148D02*
D03*
X5750Y13148D02*
D03*
X7750Y13148D02*
D03*
D143*
X11049Y17936D02*
D03*
Y18381D02*
D03*
X11161Y18270D02*
D03*
X11272Y17936D02*
D03*
X11272Y18158D02*
D03*
Y18381D02*
D03*
X11161Y18047D02*
D03*
X10938D02*
D03*
Y18270D02*
D03*
X10826Y17936D02*
D03*
X10826Y18158D02*
D03*
Y18381D02*
D03*
X11304Y13780D02*
D03*
X11550D02*
D03*
X11757Y14065D02*
D03*
X12003D02*
D03*
D145*
X7088Y14273D02*
G03*
X7146Y14412I-139J139D01*
G01*
X6298Y13483D02*
G03*
X6240Y13344I139J-139D01*
G01*
X9636Y16535D02*
X9685Y16585D01*
X9386Y18809D02*
X9685Y18510D01*
Y16585D02*
Y18510D01*
X8707Y19055D02*
X8953Y18809D01*
X9386D01*
X8780Y19331D02*
X9055Y19055D01*
X9488D01*
X4173Y18287D02*
X6196D01*
X7239Y19331D02*
X8780D01*
X9488Y19055D02*
X9931Y18612D01*
X2421Y11063D02*
X3514D01*
X768Y10287D02*
Y11437D01*
X689Y9561D02*
Y10366D01*
X4055Y12530D02*
Y13287D01*
X6196Y18287D02*
X7239Y19331D01*
X5856Y17106D02*
Y17411D01*
X6293Y17848D01*
X7480Y16201D02*
X7554Y16275D01*
X6298Y13483D02*
X7088Y14273D01*
X7874Y19055D02*
X8707D01*
X3839Y17953D02*
X4173Y18287D01*
X2451Y16185D02*
X2949Y16683D01*
X1565Y15610D02*
X3546D01*
X768Y13689D02*
X2274D01*
X768Y12539D02*
Y13689D01*
Y11437D02*
Y12539D01*
X6847Y17848D02*
X7229Y17466D01*
X7470Y17224D01*
X6293Y17848D02*
X6847D01*
X9931Y15600D02*
Y18612D01*
X9518Y15187D02*
X9931Y15600D01*
X6585Y14704D02*
Y14862D01*
X6467Y14587D02*
X6585Y14704D01*
X4464Y14587D02*
X6467D01*
X4050Y15001D02*
X4464Y14587D01*
X3981Y14719D02*
X5477Y13223D01*
X3802Y14899D02*
Y15866D01*
Y14899D02*
X3981Y14719D01*
X3839Y16683D02*
X4050Y16472D01*
Y15001D02*
Y16472D01*
X2949Y16683D02*
X3839D01*
X1565Y15925D02*
X1567Y15924D01*
X3339D02*
X3576Y16161D01*
X1567Y15924D02*
X3339D01*
X3576Y16161D02*
X3780D01*
X7146Y14412D02*
Y15866D01*
X6240Y12953D02*
Y13344D01*
X5335Y12648D02*
X5935D01*
X6240Y12953D01*
X3888Y11062D02*
X5821D01*
X3888Y11063D02*
X3888Y11062D01*
X4695Y13287D02*
X5335Y12648D01*
X4055Y13287D02*
X4695D01*
X7146Y15866D02*
X7480Y16201D01*
X7470Y17224D02*
X7480D01*
X7530Y17175D01*
X5675Y13223D02*
X5750Y13148D01*
X5477Y13223D02*
X5675D01*
X2014Y16555D02*
X3766Y18307D01*
X1594Y16555D02*
X2014D01*
X3766Y18307D02*
X3799D01*
X1594Y16240D02*
X2156D01*
X915D02*
X1594D01*
X3839Y17323D02*
Y17953D01*
X3799Y17283D02*
X3839Y17323D01*
X3199Y17283D02*
X3799D01*
X2156Y16240D02*
X3199Y17283D01*
X7554Y16275D02*
Y16275D01*
X7480Y16201D02*
X7480D01*
X3546Y15610D02*
X3802Y15866D01*
X2844Y12913D02*
X2923Y12992D01*
X2421Y12913D02*
X2844D01*
X3219Y13287D02*
X4055D01*
X2923Y12992D02*
X3219Y13287D01*
X768Y10287D02*
X2274D01*
X9006Y15187D02*
X9518D01*
D146*
X3914Y19000D02*
Y19213D01*
X4173Y18287D02*
Y18740D01*
X3914Y19000D02*
X4173Y18740D01*
X3668Y19459D02*
X3914Y19213D01*
X3012Y19459D02*
X3668D01*
X11093Y5866D02*
Y6516D01*
X8799Y7569D02*
X10040D01*
X10276Y2701D02*
X10876Y3301D01*
X8553Y2701D02*
X9046D01*
X8198D02*
X8553D01*
X7845Y6614D02*
X8799Y7569D01*
X7845Y6585D02*
Y6614D01*
X7195Y4144D02*
Y5935D01*
X7205Y3410D02*
X7480Y3685D01*
Y3858D01*
X7195Y4144D02*
X7480Y3858D01*
X7195Y5935D02*
X7845Y6585D01*
X7205Y3410D02*
X7914Y2701D01*
X8198D01*
X9498D02*
X10276D01*
X9046D02*
X9498D01*
X10876Y3301D02*
Y3445D01*
X16289Y6821D02*
Y8110D01*
X15730Y6261D02*
X16289Y6821D01*
X15550Y6261D02*
X15730D01*
X15823Y8577D02*
X16289Y8110D01*
X20295Y6939D02*
Y7953D01*
X18820Y8587D02*
Y9827D01*
X19109Y8298D02*
X19950D01*
X18820Y8587D02*
X19109Y8298D01*
X15485Y10470D02*
X18177D01*
X18820Y9827D01*
X15283Y10671D02*
X15485Y10470D01*
X13593Y12362D02*
X15283Y10671D01*
X15283D01*
X10630Y12362D02*
X13593D01*
X9587Y13406D02*
X10630Y12362D01*
X11368Y7569D02*
Y9469D01*
X10848Y9989D02*
X11368Y9469D01*
X8840Y9989D02*
X10848D01*
X8780Y11389D02*
X9359D01*
X8743D02*
X8780D01*
X8622Y11510D02*
X8743Y11389D01*
X10955Y7569D02*
X11368D01*
X10758Y7766D02*
Y7776D01*
Y7766D02*
X10955Y7569D01*
X8204Y11422D02*
Y14482D01*
X8367Y14646D01*
X8424D01*
X9587Y13406D02*
Y14211D01*
X517Y15536D02*
X807Y15246D01*
X8140Y8514D02*
Y9134D01*
X8707Y9916D02*
X8780Y9989D01*
X8707Y9701D02*
Y9916D01*
X8140Y9134D02*
X8707Y9701D01*
X8514Y14232D02*
Y14232D01*
Y14232D02*
X8622Y14124D01*
X20128Y8120D02*
X20295Y7953D01*
X20128Y8120D02*
Y8120D01*
X19950Y8298D02*
X20128Y8120D01*
X5157Y8376D02*
X8204Y11422D01*
X8622Y13912D02*
Y14124D01*
Y11510D02*
Y13744D01*
X9359Y11389D02*
X9754Y10994D01*
X5157Y7963D02*
Y8376D01*
X8780Y9989D02*
X8840D01*
X2476Y19994D02*
X3012Y19459D01*
X2402Y19994D02*
X2476D01*
X517Y15536D02*
Y16173D01*
X1142Y16555D02*
X1594D01*
X1043Y16457D02*
X1142Y16555D01*
X800Y16457D02*
X1043D01*
X517Y16173D02*
X800Y16457D01*
X9331Y10540D02*
Y11089D01*
X8960Y10170D02*
X9331Y10540D01*
X8960Y10110D02*
Y10170D01*
X8840Y9989D02*
X8960Y10110D01*
X9754Y10994D02*
X11368D01*
X10040Y7569D02*
X11093Y6516D01*
X10876Y3445D02*
Y4055D01*
X11122Y4301D01*
D147*
X11211Y16378D02*
X11215Y16382D01*
Y16630D01*
X12142Y17467D02*
X12366D01*
X12142D02*
X12149Y17460D01*
Y17454D02*
X12215Y17388D01*
X12136Y17467D02*
X12142D01*
X12149Y17454D02*
Y17460D01*
X12215Y17274D02*
Y17388D01*
X12366Y17467D02*
X12392Y17441D01*
X12411D01*
X11221Y16717D02*
Y16972D01*
X11226Y16978D01*
X11213Y16709D02*
X11221Y16717D01*
X10018Y15207D02*
X10266D01*
X9969Y15256D02*
X10018Y15207D01*
X9941Y15256D02*
X9969D01*
X3543Y12923D02*
Y12933D01*
X3455Y12835D02*
X3543Y12923D01*
X3321Y12835D02*
X3455D01*
X3524Y12953D02*
X3543Y12933D01*
X3321Y12835D02*
Y13057D01*
X3392Y11307D02*
X3624D01*
X3341Y11358D02*
X3392Y11307D01*
X12815Y13346D02*
X12884Y13415D01*
X13047D01*
X14230Y15413D02*
X14232Y15412D01*
Y15148D02*
Y15412D01*
X9143Y14174D02*
X9163Y14154D01*
X9134Y14257D02*
Y14390D01*
Y14257D02*
X9143Y14247D01*
Y14174D02*
Y14247D01*
X8425Y8459D02*
Y8848D01*
X8415Y8858D02*
X8425Y8848D01*
X11644Y18317D02*
Y18346D01*
X11654Y18356D01*
X11321Y18593D02*
X11348D01*
X11047Y18671D02*
X11242D01*
X11321Y18593D01*
X13358Y17884D02*
X13386D01*
X13132Y17953D02*
X13167Y17918D01*
X13324D01*
X13358Y17884D01*
X13358Y16939D02*
X13386D01*
X13132Y16988D02*
X13158Y16962D01*
X13334D01*
X13358Y16939D01*
X12510Y16230D02*
Y16249D01*
X12419Y16476D02*
X12425D01*
X12462Y16440D01*
Y16337D02*
Y16440D01*
Y16337D02*
X12549Y16249D01*
X12500Y15906D02*
X12524Y15929D01*
X12707D01*
X12870D02*
X12923Y15876D01*
X12707Y15929D02*
X12870D01*
X5051Y6732D02*
X5276D01*
D149*
X4306Y9134D02*
X6265Y11093D01*
X1161Y8415D02*
X1880Y9134D01*
X4306D01*
X6102Y19035D02*
Y19291D01*
X4977Y18855D02*
X5413D01*
Y18861D02*
X5928D01*
X6102Y19035D01*
X4882Y18612D02*
Y18760D01*
X4977Y18855D01*
X6594Y14694D02*
X6879D01*
X6585Y14704D02*
X6594Y14694D01*
X5630Y14862D02*
X5803D01*
X5561Y14931D02*
X5630Y14862D01*
X1161Y6521D02*
X2565Y5117D01*
X1161Y6521D02*
Y8415D01*
X5561Y15049D02*
Y15344D01*
X5610Y15394D01*
X4793Y17343D02*
X5374D01*
X6750Y13106D02*
Y13148D01*
X6265Y11093D02*
Y12621D01*
X6750Y13106D01*
X2037Y2799D02*
X2287D01*
X2358Y2870D01*
Y2870D01*
X2565Y3077D01*
Y5117D01*
X5610Y15394D02*
Y17185D01*
X5374Y17343D02*
X5384D01*
X5394D01*
X5384D02*
X5391Y17335D01*
X5460D01*
X5610Y17185D01*
X6224Y14862D02*
X6585D01*
D151*
X13606Y18110D02*
X14872D01*
X15128Y17854D01*
D156*
X1398Y7854D02*
X2096D01*
X1398Y7854D02*
X1398Y7854D01*
X4695Y8248D02*
X7190Y10743D01*
X3100Y8248D02*
X4695D01*
X7190Y10743D02*
Y12588D01*
X7750Y13148D01*
X2096Y7854D02*
X2101Y7849D01*
X2702D01*
X3100Y8248D01*
X5374Y17657D02*
X5384D01*
X4823D02*
X5374D01*
X4823Y17657D02*
X4823Y17657D01*
D157*
X6750Y12148D02*
D03*
X5750Y12148D02*
D03*
X7750Y12148D02*
D03*
D158*
X19921Y5433D02*
D03*
D159*
X925Y15610D02*
D03*
Y18287D02*
D03*
D160*
X3209Y18839D02*
D03*
Y15059D02*
D03*
D161*
X1988Y10807D02*
D03*
D162*
X2274Y13689D02*
D03*
Y10287D02*
D03*
D163*
X768D02*
D03*
Y13689D02*
D03*
D164*
X1988Y13169D02*
D03*
D165*
X937Y4549D02*
D03*
Y3049D02*
D03*
D166*
X19094Y1772D02*
D03*
X12795Y19094D02*
D03*
X1772Y1772D02*
D03*
D167*
X9272Y18553D02*
D03*
X8209Y17963D02*
D03*
X8996Y17904D02*
D03*
X7480Y17809D02*
D03*
X8209Y17809D02*
D03*
X8809Y17898D02*
D03*
X5669Y14331D02*
D03*
X6171D02*
D03*
X4882D02*
D03*
X512Y11083D02*
D03*
Y11811D02*
D03*
Y12175D02*
D03*
Y12894D02*
D03*
X1545Y13189D02*
D03*
X1526Y12431D02*
D03*
X1309Y11614D02*
D03*
X3681Y11339D02*
D03*
X3799Y12963D02*
D03*
X3789Y12569D02*
D03*
X3321Y13030D02*
D03*
X11159Y17837D02*
D03*
X2776Y11988D02*
D03*
X3524Y12953D02*
D03*
X2913Y12480D02*
D03*
X13278Y17441D02*
D03*
X11942Y17589D02*
D03*
X11427Y18041D02*
D03*
X8366Y17067D02*
D03*
X8524D02*
D03*
X7864Y15079D02*
D03*
X11171Y15945D02*
D03*
X11437Y15502D02*
D03*
X10620Y17933D02*
D03*
X10630Y18189D02*
D03*
D169*
X8043Y16454D02*
D03*
D170*
X11215Y16630D02*
D03*
X11018D02*
D03*
X10821D02*
D03*
Y15626D02*
D03*
X11018D02*
D03*
X11215D02*
D03*
X4331Y6181D02*
D03*
X5118D02*
D03*
X4921D02*
D03*
X4724D02*
D03*
X4528D02*
D03*
D171*
X10511Y16522D02*
D03*
Y16325D02*
D03*
Y16128D02*
D03*
Y15931D02*
D03*
Y15734D02*
D03*
X11525D02*
D03*
Y15931D02*
D03*
Y16128D02*
D03*
Y16325D02*
D03*
Y16522D02*
D03*
D172*
X787Y20079D02*
D03*
Y787D02*
D03*
X20079Y20079D02*
D03*
X11811Y13258D02*
D03*
X10236D02*
D03*
X11024D02*
D03*
D173*
X5472Y5276D02*
D03*
X3976D02*
D03*
D174*
X6939Y18232D02*
D03*
Y20279D02*
D03*
X571Y6949D02*
D03*
Y9154D02*
D03*
D175*
X5413Y19255D02*
D03*
Y19649D02*
D03*
Y18861D02*
D03*
X2096Y8248D02*
D03*
Y8642D02*
D03*
Y7461D02*
D03*
Y7854D02*
D03*
D176*
X12411Y16476D02*
D03*
Y16732D02*
D03*
Y16988D02*
D03*
X13140Y16476D02*
D03*
Y16732D02*
D03*
Y16988D02*
D03*
X12411Y17441D02*
D03*
Y17697D02*
D03*
Y17953D02*
D03*
X13140Y17441D02*
D03*
Y17697D02*
D03*
Y17953D02*
D03*
D177*
X12776Y16526D02*
D03*
Y16939D02*
D03*
X12776Y17490D02*
D03*
Y17904D02*
D03*
D178*
X8780Y9989D02*
D03*
Y11389D02*
D03*
D179*
X8051Y8238D02*
D03*
X8228D02*
D03*
D180*
X8140Y8514D02*
D03*
D181*
X11368Y10994D02*
D03*
Y7569D02*
D03*
D182*
X1841Y19941D02*
D03*
Y19764D02*
D03*
D183*
X2116Y19852D02*
D03*
D184*
X8681Y17224D02*
D03*
X8524D02*
D03*
X8366D02*
D03*
X8209D02*
D03*
X8051Y17224D02*
D03*
X8681Y17067D02*
D03*
X8524D02*
D03*
X8366D02*
D03*
X8209D02*
D03*
X8051D02*
D03*
X8681Y16909D02*
D03*
X8524Y16909D02*
D03*
X8366D02*
D03*
X8209D02*
D03*
X8051D02*
D03*
X8681Y16752D02*
D03*
X8524D02*
D03*
X8366D02*
D03*
X8209D02*
D03*
X8051D02*
D03*
X8681Y16594D02*
D03*
X8524D02*
D03*
X8366D02*
D03*
X8209D02*
D03*
X8051D02*
D03*
D185*
X5803Y15118D02*
D03*
Y14862D02*
D03*
X6224D02*
D03*
Y15118D02*
D03*
D186*
X6014Y14990D02*
D03*
D187*
X13297Y14513D02*
D03*
X13100D02*
D03*
X12904D02*
D03*
X12707D02*
D03*
Y15428D02*
D03*
X12904D02*
D03*
X13100D02*
D03*
X13297D02*
D03*
D188*
X12643Y14774D02*
D03*
X12643Y14970D02*
D03*
X12643Y15167D02*
D03*
X13361D02*
D03*
X13361Y14970D02*
D03*
X13361Y14774D02*
D03*
D189*
X3976Y11722D02*
D03*
D190*
X3307D02*
D03*
X3307Y12530D02*
D03*
X4055D02*
D03*
D191*
X3514Y11063D02*
D03*
X3888D02*
D03*
D192*
X1594Y17185D02*
D03*
X4823Y17028D02*
D03*
X1594Y15610D02*
D03*
X4823Y15453D02*
D03*
X1594Y15925D02*
D03*
X4823Y15768D02*
D03*
X1594Y16240D02*
D03*
X4823Y16083D02*
D03*
X1594Y16555D02*
D03*
X4823Y16398D02*
D03*
X1594Y16870D02*
D03*
X4823Y16713D02*
D03*
Y17343D02*
D03*
X1594Y17500D02*
D03*
X4823Y17657D02*
D03*
X1594Y17815D02*
D03*
Y18130D02*
D03*
Y18445D02*
D03*
X4823Y17972D02*
D03*
Y18287D02*
D03*
D193*
X768Y12539D02*
D03*
Y11437D02*
D03*
D194*
X2421Y11299D02*
D03*
Y11496D02*
D03*
D195*
Y11063D02*
D03*
Y10768D02*
D03*
Y12913D02*
D03*
Y13209D02*
D03*
D196*
Y11693D02*
D03*
Y11890D02*
D03*
Y12087D02*
D03*
Y12283D02*
D03*
Y12480D02*
D03*
Y12677D02*
D03*
D197*
X2037Y4799D02*
D03*
Y3799D02*
D03*
Y3299D02*
D03*
Y2799D02*
D03*
X3238Y4799D02*
D03*
Y4299D02*
D03*
Y3799D02*
D03*
Y3299D02*
D03*
Y2799D02*
D03*
X2037Y4299D02*
D03*
D198*
X15925Y20556D02*
D03*
X15610Y20556D02*
D03*
X15295D02*
D03*
X14980Y20556D02*
D03*
Y19611D02*
D03*
X15295D02*
D03*
X15610D02*
D03*
X15925D02*
D03*
D199*
X9587Y14211D02*
D03*
Y14371D02*
D03*
X9341Y14211D02*
D03*
Y14371D02*
D03*
X9795Y14715D02*
D03*
X9635D02*
D03*
X9807Y14360D02*
D03*
X9647D02*
D03*
X9795Y14596D02*
D03*
X9635D02*
D03*
X9807Y14478D02*
D03*
X9647D02*
D03*
X9174Y14833D02*
D03*
X9014D02*
D03*
X8424Y14646D02*
D03*
X8584D02*
D03*
D200*
X8622Y13744D02*
D03*
Y13904D02*
D03*
X9162Y16132D02*
D03*
X9322D02*
D03*
D201*
X2215Y12913D02*
X2421D01*
X1752Y12451D02*
X2215Y12913D01*
X1752Y11483D02*
Y12451D01*
Y11483D02*
X2168Y11067D01*
X2417D01*
D202*
X9587Y14291D02*
D03*
X8622Y13824D02*
D03*
D203*
X9341Y14291D02*
D03*
D204*
X9715Y14715D02*
D03*
X9727Y14360D02*
D03*
X9715Y14596D02*
D03*
X9727Y14478D02*
D03*
X9094Y14833D02*
D03*
D205*
X8504Y14646D02*
D03*
D206*
X9133Y16044D02*
D03*
D207*
X9351D02*
D03*
D208*
X9242Y16044D02*
D03*
D209*
X8937Y16265D02*
D03*
D210*
X8789Y14892D02*
D03*
M02*
