G04*
G04 #@! TF.GenerationSoftware,Altium Limited,Altium Designer,23.6.0 (18)*
G04*
G04 Layer_Color=32896*
%FSLAX24Y24*%
%MOIN*%
G70*
G04*
G04 #@! TF.SameCoordinates,7E18E310-DAB5-435A-A8D0-C5F7F634A292*
G04*
G04*
G04 #@! TF.FilePolarity,Positive*
G04*
G01*
G75*
%ADD10C,0.0050*%
%ADD11C,0.0079*%
%ADD13C,0.0059*%
%ADD246C,0.0039*%
%ADD249C,0.0030*%
%ADD250C,0.0020*%
%ADD252R,0.0110X0.0772*%
%ADD253R,0.0110X0.0220*%
%ADD254R,0.0772X0.0110*%
%ADD255R,0.0330X0.0330*%
%ADD256R,0.0772X0.0110*%
%ADD257R,0.0772X0.0110*%
%ADD258R,0.0331X0.0330*%
%ADD259R,0.0110X0.0110*%
%ADD260R,0.0330X0.0331*%
%ADD261C,0.0020*%
G36*
X9510Y3513D02*
X9400D01*
Y3624D01*
X9179D01*
Y3513D01*
X9069D01*
Y3734D01*
X9510D01*
Y3513D01*
D02*
G37*
G36*
X9400Y3403D02*
X9289D01*
Y3513D01*
X9400D01*
Y3403D01*
D02*
G37*
G36*
X8628D02*
X8518D01*
Y3624D01*
X8628D01*
Y3403D01*
D02*
G37*
G36*
Y2962D02*
X8518D01*
Y3183D01*
X8628D01*
Y2962D01*
D02*
G37*
G36*
X10392Y2522D02*
X10282D01*
Y2632D01*
X10392D01*
Y2522D01*
D02*
G37*
G36*
X8959Y3403D02*
X9179D01*
Y3183D01*
X9400D01*
Y3293D01*
X9510D01*
Y2632D01*
X9731D01*
Y2742D01*
X9620D01*
Y2852D01*
X9841D01*
Y2742D01*
X9951D01*
Y2632D01*
X9841D01*
Y2522D01*
X9510D01*
Y2411D01*
X9400D01*
Y2522D01*
X9289D01*
Y2411D01*
X9400D01*
Y2301D01*
X9620D01*
Y2191D01*
X9951D01*
Y2081D01*
X10392D01*
Y1971D01*
X10171D01*
Y1860D01*
X9841D01*
Y1971D01*
X9731D01*
Y2081D01*
X9620D01*
Y2191D01*
X9510D01*
Y2081D01*
X9620D01*
Y1971D01*
X9731D01*
Y1860D01*
X9510D01*
Y1750D01*
X9400D01*
Y1860D01*
X9289D01*
Y1971D01*
X9069D01*
Y1860D01*
X9179D01*
Y1640D01*
X9289D01*
Y1750D01*
X9400D01*
Y1640D01*
X9510D01*
Y1530D01*
X9289D01*
Y1419D01*
X9179D01*
Y1640D01*
X9069D01*
Y1860D01*
X8959D01*
Y2081D01*
X8848D01*
Y1860D01*
X8959D01*
Y1750D01*
X8848D01*
Y1860D01*
X8738D01*
Y1750D01*
X8628D01*
Y1640D01*
X8738D01*
Y1309D01*
X8518D01*
Y1199D01*
X8628D01*
Y978D01*
X8407D01*
Y1088D01*
X8077D01*
Y1309D01*
X7856D01*
Y1199D01*
X7636D01*
Y1309D01*
X7746D01*
Y1530D01*
X7636D01*
Y1860D01*
X7746D01*
Y1530D01*
X7856D01*
Y1419D01*
X7967D01*
Y1530D01*
X8077D01*
Y1640D01*
X7967D01*
Y1750D01*
X7856D01*
Y1860D01*
X7746D01*
Y1971D01*
X7856D01*
Y1860D01*
X7967D01*
Y1750D01*
X8077D01*
Y1860D01*
Y1971D01*
X8187D01*
Y2081D01*
X8407D01*
Y1971D01*
X8628D01*
Y2081D01*
X8518D01*
Y2301D01*
X8407D01*
Y2191D01*
X8187D01*
Y2301D01*
X8297D01*
Y2411D01*
X8187D01*
Y2522D01*
X8297D01*
Y2632D01*
X8187D01*
Y2742D01*
X8077D01*
Y2852D01*
X8628D01*
Y2742D01*
X8738D01*
Y2522D01*
X8848D01*
Y2411D01*
X8738D01*
Y2522D01*
X8628D01*
Y2411D01*
X8738D01*
Y2191D01*
X8848D01*
Y2301D01*
X8959D01*
Y2081D01*
X9069D01*
Y2191D01*
X9179D01*
Y2081D01*
X9289D01*
Y1971D01*
X9510D01*
Y2081D01*
X9400D01*
Y2191D01*
X9179D01*
Y2411D01*
X9069D01*
Y2301D01*
X8959D01*
Y2522D01*
X8848D01*
Y2742D01*
X8959D01*
Y2852D01*
X9179D01*
Y2742D01*
X9069D01*
Y2522D01*
X9179D01*
Y2632D01*
X9400D01*
Y2742D01*
X9289D01*
Y2962D01*
X9179D01*
Y3183D01*
X9069D01*
Y2962D01*
X8959D01*
Y3183D01*
X8848D01*
Y2852D01*
X8738D01*
Y3403D01*
X8848D01*
Y3734D01*
X8959D01*
Y3403D01*
D02*
G37*
G36*
X7856Y2632D02*
X7967D01*
Y2742D01*
X8077D01*
Y2411D01*
X7967D01*
Y2522D01*
X7856D01*
Y2632D01*
X7746D01*
Y2522D01*
X7636D01*
Y2852D01*
X7856D01*
Y2632D01*
D02*
G37*
G36*
X10392Y2742D02*
X10171D01*
Y2411D01*
X10392D01*
Y2191D01*
X10061D01*
Y2301D01*
X9620D01*
Y2411D01*
X9951D01*
Y2522D01*
X10061D01*
Y2852D01*
X10392D01*
Y2742D01*
D02*
G37*
G36*
X7746Y2301D02*
X7856D01*
Y2191D01*
X8077D01*
Y2081D01*
X7856D01*
Y2191D01*
X7746D01*
Y2081D01*
X7636D01*
Y2411D01*
X7746D01*
Y2301D01*
D02*
G37*
G36*
X9510Y978D02*
X9289D01*
Y1088D01*
X9400D01*
Y1309D01*
X9510D01*
Y978D01*
D02*
G37*
G36*
X9069Y1419D02*
X9179D01*
Y1088D01*
X9069D01*
Y978D01*
X8959D01*
Y1199D01*
X9069D01*
Y1309D01*
X8959D01*
Y1640D01*
X9069D01*
Y1419D01*
D02*
G37*
G36*
X8077Y978D02*
X7967D01*
Y1088D01*
X8077D01*
Y978D01*
D02*
G37*
G36*
X7746D02*
X7636D01*
Y1088D01*
X7746D01*
Y978D01*
D02*
G37*
%LPC*%
G36*
X9289Y3072D02*
Y2962D01*
X9400D01*
Y3072D01*
X9290D01*
X9289Y3072D01*
D02*
G37*
G36*
X8518Y2632D02*
X8407D01*
Y2522D01*
X8518D01*
X8518Y2522D01*
Y2632D01*
D02*
G37*
G36*
X9951Y2081D02*
X9841D01*
Y1971D01*
X9951D01*
Y2081D01*
D02*
G37*
G36*
X8518Y1860D02*
X8187D01*
Y1530D01*
X8518D01*
Y1860D01*
D02*
G37*
G36*
X8407Y1419D02*
X8297D01*
Y1309D01*
X8187D01*
Y1199D01*
X8407D01*
Y1309D01*
Y1419D01*
D02*
G37*
G36*
X10171Y2411D02*
X10061D01*
Y2301D01*
X10171D01*
Y2411D01*
D02*
G37*
%LPD*%
D10*
X9154Y14547D02*
G03*
X9154Y14547I-20J0D01*
G01*
D11*
X15807Y20398D02*
G03*
X15807Y20398I-39J0D01*
G01*
D13*
X8083Y16606D02*
G03*
X8083Y16606I-20J0D01*
G01*
D246*
X8898Y18478D02*
G03*
X8898Y18117I32J-181D01*
G01*
X9015D02*
G03*
X9015Y18478I-32J181D01*
G01*
X8346Y18117D02*
G03*
X8346Y18478I-32J181D01*
G01*
X8229D02*
G03*
X8229Y18117I32J-181D01*
G01*
X11510Y16482D02*
G03*
X11510Y16482I-98J0D01*
G01*
X7045Y13148D02*
G03*
X7045Y13148I-295J0D01*
G01*
X6927D02*
G03*
X6927Y13148I-177J0D01*
G01*
Y12148D02*
G03*
X6927Y12148I-177J0D01*
G01*
X6045Y13148D02*
G03*
X6045Y13148I-295J0D01*
G01*
X5927D02*
G03*
X5927Y13148I-177J0D01*
G01*
Y12148D02*
G03*
X5927Y12148I-177J0D01*
G01*
X5284Y5575D02*
G03*
X5244Y5535I-2J-38D01*
G01*
Y5094D02*
G03*
X5284Y5055I38J-0D01*
G01*
X4199Y5535D02*
G03*
X4159Y5575I-38J2D01*
G01*
X4159Y5055D02*
G03*
X4199Y5094I2J38D01*
G01*
X5349Y19709D02*
G03*
X5349Y19590I0J-59D01*
G01*
X5349Y19315D02*
G03*
X5349Y19197I0J-59D01*
G01*
Y18922D02*
G03*
X5349Y18803I0J-59D01*
G01*
X7927Y12148D02*
G03*
X7927Y12148I-177J0D01*
G01*
Y13148D02*
G03*
X7927Y13148I-177J0D01*
G01*
X8045D02*
G03*
X8045Y13148I-295J0D01*
G01*
X12609Y16496D02*
G03*
X12609Y16496I-70J0D01*
G01*
X12008Y13258D02*
G03*
X12008Y13258I-197J0D01*
G01*
X12111D02*
G03*
X12111Y13258I-300J0D01*
G01*
X10433D02*
G03*
X10433Y13258I-197J0D01*
G01*
X10536D02*
G03*
X10536Y13258I-300J0D01*
G01*
X11220D02*
G03*
X11220Y13258I-197J0D01*
G01*
X11324D02*
G03*
X11324Y13258I-300J0D01*
G01*
X10906Y18342D02*
G03*
X10906Y18342I-39J0D01*
G01*
X4144Y11929D02*
G03*
X4144Y11929I-20J0D01*
G01*
X2068Y15090D02*
G03*
X2047Y15079I44J-111D01*
G01*
X2047Y15079D02*
G03*
X2035Y15070I65J-99D01*
G01*
X2036Y18825D02*
G03*
X2068Y18806I76J90D01*
G01*
X12609Y17461D02*
G03*
X12609Y17461I-70J0D01*
G01*
X15354Y19847D02*
G03*
X15354Y19847I-138J0D01*
G01*
X11476Y13599D02*
G03*
X11476Y13960I-32J181D01*
G01*
X11379D02*
G03*
X11379Y13599I32J-181D01*
G01*
X11928Y13884D02*
G03*
X11928Y14246I-32J181D01*
G01*
X11831D02*
G03*
X11831Y13884I32J-181D01*
G01*
X14114Y14272D02*
G03*
X14114Y14272I-39J0D01*
G01*
X19685Y1772D02*
G03*
X19685Y1772I-591J0D01*
G01*
X2362D02*
G03*
X2362Y1772I-591J0D01*
G01*
X13386Y19094D02*
G03*
X13386Y19094I-591J0D01*
G01*
D02*
G03*
X13386Y19094I-591J0D01*
G01*
X9015Y18337D02*
Y18478D01*
X8898Y18337D02*
X9015D01*
X8898Y18117D02*
Y18258D01*
X9015D01*
Y18117D02*
Y18258D01*
X8898Y18337D02*
Y18478D01*
X8229Y18117D02*
Y18258D01*
X8346D01*
Y18337D02*
Y18478D01*
X8229Y18337D02*
X8346D01*
X8229D02*
Y18478D01*
X8346Y18117D02*
Y18258D01*
X10368Y15518D02*
X11667D01*
X10368Y16738D02*
X11667D01*
X10368Y15518D02*
Y16738D01*
X11667Y15518D02*
Y16738D01*
X13370Y17225D02*
X13618D01*
X13370Y17095D02*
X13618D01*
Y17225D01*
X13370Y17095D02*
Y17225D01*
Y16541D02*
X13618D01*
X13370Y16411D02*
X13618D01*
X13618Y16541D01*
X13370D02*
X13370Y16411D01*
X13370Y18175D02*
X13618D01*
X13370Y18045D02*
X13618D01*
X13618Y18175D01*
X13370D02*
X13370Y18045D01*
X4344Y6797D02*
X4593D01*
X4344Y6667D02*
X4593D01*
Y6797D01*
X4344Y6667D02*
Y6797D01*
X4814D02*
X5063D01*
X4814Y6667D02*
X5063D01*
Y6797D01*
X4814Y6667D02*
Y6797D01*
X12772Y15693D02*
Y15941D01*
X12642Y15693D02*
Y15941D01*
Y15693D02*
X12772D01*
X12642Y15941D02*
X12772D01*
X12339Y14768D02*
Y15016D01*
X12209Y14768D02*
Y15016D01*
Y14768D02*
X12339D01*
X12209Y15016D02*
X12339D01*
X9896Y12722D02*
X10026D01*
X9896Y12474D02*
X10026D01*
X9896D02*
Y12722D01*
X10026Y12474D02*
Y12722D01*
X9750Y12474D02*
Y12722D01*
X9620Y12474D02*
Y12722D01*
Y12474D02*
X9750D01*
X9620Y12722D02*
X9750D01*
X6455Y11853D02*
Y12443D01*
Y11853D02*
X7045D01*
Y12443D01*
X6455D02*
X7045D01*
X5455Y11853D02*
Y12443D01*
Y11853D02*
X6045D01*
Y12443D01*
X5455D02*
X6045D01*
X3814Y4705D02*
X5630D01*
Y6183D01*
X5378Y5794D02*
X5630D01*
X5378Y5654D02*
Y5794D01*
X5182Y5654D02*
X5378D01*
X5182Y4976D02*
Y5654D01*
Y4976D02*
X5378D01*
Y4836D02*
Y4976D01*
Y4836D02*
X5630D01*
X5525D02*
Y5794D01*
X5284Y5055D02*
X5522D01*
X5244Y5094D02*
Y5535D01*
X5284Y5575D02*
X5522D01*
X5398Y6183D02*
X5630D01*
X5398Y6103D02*
Y6183D01*
X3814Y4705D02*
Y6183D01*
Y5794D02*
X4065D01*
Y5654D02*
Y5794D01*
Y5654D02*
X4262D01*
Y4976D02*
Y5654D01*
X4065Y4976D02*
X4262D01*
X4065Y4836D02*
Y4976D01*
X3814Y4836D02*
X4065D01*
X3919D02*
Y5794D01*
X3922Y5055D02*
X4159D01*
X4199Y5094D02*
Y5535D01*
X3922Y5575D02*
X4159D01*
X3814Y6183D02*
X4045D01*
Y6103D02*
Y6183D01*
Y6103D02*
X5398D01*
X5157D02*
Y6301D01*
X5077D02*
X5157D01*
X5077Y6103D02*
Y6301D01*
Y6183D02*
X5157D01*
X5077Y6162D02*
X5157D01*
X4960Y6103D02*
Y6301D01*
X4880D02*
X4960D01*
X4880Y6103D02*
Y6301D01*
Y6183D02*
X4960D01*
X4880Y6162D02*
X4960D01*
X4764Y6103D02*
Y6301D01*
X4683D02*
X4764D01*
X4683Y6103D02*
Y6301D01*
Y6183D02*
X4764D01*
X4683Y6162D02*
X4764D01*
X4564Y6103D02*
Y6301D01*
X4484D02*
X4564D01*
X4484Y6103D02*
Y6301D01*
Y6183D02*
X4564D01*
X4484Y6162D02*
X4564D01*
X4368Y6103D02*
Y6301D01*
X4288D02*
X4368D01*
X4288Y6103D02*
Y6301D01*
Y6183D02*
X4368D01*
X4288Y6162D02*
X4368D01*
X7215Y20239D02*
X7215Y18271D01*
X5541D02*
X7215D01*
X5541Y20239D02*
X7215Y20239D01*
X5541Y20053D02*
X5840D01*
Y20239D01*
Y19931D02*
Y20053D01*
Y19931D02*
X7011D01*
Y20038D01*
X7215D01*
X5840Y18271D02*
Y18457D01*
Y18579D01*
X7011D01*
Y18472D02*
Y18579D01*
Y18472D02*
X7215D01*
X5349Y19590D02*
X5541D01*
X5349Y19709D02*
X5541D01*
X5349Y19197D02*
X5541Y19197D01*
X5349Y19315D02*
X5541D01*
X5349Y18922D02*
X5541D01*
X5349Y18803D02*
X5541Y18803D01*
Y18457D02*
Y20239D01*
Y18457D02*
X5840D01*
X5541Y18271D02*
Y18457D01*
X7455Y12443D02*
X8045D01*
Y11853D02*
Y12443D01*
X7455Y11853D02*
X8045D01*
X7455D02*
Y12443D01*
X12382Y17126D02*
X13169D01*
X12382Y16339D02*
X13169D01*
Y17126D01*
X12382Y16339D02*
Y17126D01*
X12341Y16417D02*
X12382D01*
X12341D02*
Y16535D01*
X12382D01*
X12341Y16791D02*
X12382D01*
X12341Y16673D02*
Y16791D01*
Y16673D02*
X12382D01*
X12341Y17047D02*
X12382D01*
X12341Y16929D02*
Y17047D01*
Y16929D02*
X12382D01*
X13169Y17047D02*
X13211D01*
Y16929D02*
Y17047D01*
X13169Y16929D02*
X13211D01*
X13169Y16791D02*
X13211D01*
Y16673D02*
Y16791D01*
X13169Y16673D02*
X13211D01*
X13169Y16535D02*
X13211D01*
Y16417D02*
Y16535D01*
X13169Y16417D02*
X13211D01*
X10575Y17043D02*
X10823D01*
X10575Y16913D02*
X10823D01*
Y17043D01*
X10575Y16913D02*
Y17043D01*
X11215D02*
X11463D01*
X11215Y16913D02*
X11463D01*
Y17043D01*
X11215Y16913D02*
Y17043D01*
X8012Y8169D02*
X8268D01*
X8012Y8583D02*
X8268D01*
Y8169D02*
Y8583D01*
X8012Y8169D02*
Y8583D01*
X8717Y8222D02*
Y8470D01*
X8587Y8222D02*
Y8470D01*
Y8222D02*
X8717D01*
X8587Y8470D02*
X8717D01*
X8130Y15256D02*
X8799D01*
X8130Y14902D02*
X8799D01*
Y15256D01*
X8130Y14902D02*
Y15256D01*
X9596Y11053D02*
X13140D01*
X9596Y7510D02*
X13140D01*
Y11053D01*
X9596Y7510D02*
Y11053D01*
Y7510D02*
Y11053D01*
X13035Y13350D02*
Y13480D01*
X13283Y13350D02*
Y13480D01*
X13035Y13350D02*
X13283D01*
X13035Y13480D02*
X13283D01*
X13035Y13224D02*
X13283D01*
X13035Y13094D02*
X13283D01*
Y13224D01*
X13035Y13094D02*
Y13224D01*
X1772Y19980D02*
X1772Y19724D01*
X2185Y19980D02*
X2185Y19724D01*
X1772D02*
X2185D01*
X1772Y19980D02*
X2185D01*
X2337Y20006D02*
X2467D01*
X2337Y19758D02*
X2467D01*
X2337D02*
Y20006D01*
X2467Y19758D02*
Y20006D01*
X1510Y19758D02*
X1640D01*
X1510Y20006D02*
X1640D01*
Y19758D02*
Y20006D01*
X1510D02*
X1510Y19758D01*
X6929Y16890D02*
X7598D01*
X6929Y16535D02*
X7598D01*
Y16890D01*
X6929Y16535D02*
Y16890D01*
X8274Y17573D02*
X8274Y17821D01*
X8144Y17573D02*
Y17821D01*
Y17573D02*
X8274Y17573D01*
X8144Y17821D02*
X8274D01*
X9035Y16358D02*
Y16713D01*
X9705Y16358D02*
Y16713D01*
X9035Y16358D02*
X9705D01*
X9035Y16713D02*
X9705D01*
X8740Y15433D02*
X9409Y15433D01*
X8740Y15787D02*
X9409Y15787D01*
X8740Y15433D02*
Y15787D01*
X9409Y15433D02*
Y15787D01*
X8858Y16260D02*
X8858Y15906D01*
X8189Y15906D02*
Y16260D01*
X8858Y16260D01*
X8189Y15906D02*
X8858Y15906D01*
X6929Y17343D02*
X7598D01*
X6929Y16988D02*
X7598D01*
Y17343D01*
X6929Y16988D02*
Y17343D01*
X6929Y16437D02*
X7598D01*
X6929Y16083D02*
X7598Y16083D01*
Y16437D01*
X6929Y16083D02*
Y16437D01*
X7972Y17303D02*
X7972Y16516D01*
X8760Y16516D02*
Y17303D01*
X7972Y16516D02*
X8760Y16516D01*
X7972Y17303D02*
X8760D01*
X6476Y14852D02*
X6693D01*
X6476D02*
Y15266D01*
X6693Y14852D02*
Y15266D01*
X6476D02*
X6693D01*
X5531Y14941D02*
Y15157D01*
X5118Y14941D02*
X5531D01*
X5118Y15157D02*
X5531D01*
X5118Y14941D02*
Y15157D01*
X5817Y14793D02*
X6211D01*
X5817D02*
X5817Y15187D01*
X6211Y15187D01*
Y14793D02*
Y15187D01*
X11126Y17732D02*
X11126Y17602D01*
X11374D02*
Y17732D01*
X11126Y17602D02*
X11374D01*
X11126Y17732D02*
X11374Y17732D01*
X11059Y18606D02*
Y18736D01*
X10811Y18606D02*
Y18736D01*
X11059Y18736D01*
X10811Y18606D02*
X11059Y18606D01*
X10756Y18452D02*
X10756Y17838D01*
X11370Y17838D01*
X11370Y18452D01*
X10756D02*
X11370D01*
X13494Y14380D02*
Y15561D01*
X12510D02*
X13494D01*
X12510Y14380D02*
X13494D01*
X12510D02*
Y15561D01*
X3154Y10791D02*
X3283D01*
X3154Y11039D02*
X3283D01*
Y10791D02*
Y11039D01*
X3154Y10791D02*
Y11039D01*
X4138Y10791D02*
X4268D01*
X4138Y11039D02*
X4268D01*
Y10791D02*
Y11039D01*
X4138Y10791D02*
Y11039D01*
X3878Y13888D02*
X4232D01*
X3878Y13218D02*
X4232D01*
X3878D02*
Y13888D01*
X4232Y13218D02*
Y13888D01*
X4287Y12878D02*
Y13008D01*
X4039Y12878D02*
Y13008D01*
X4287D01*
X4039Y12878D02*
X4287D01*
X3091Y11850D02*
X4272D01*
X3091Y12402D02*
X4272D01*
Y11850D02*
Y12402D01*
X3091Y11850D02*
Y12402D01*
X3494Y10955D02*
Y11171D01*
X3907Y10955D02*
Y11171D01*
X3494Y10955D02*
X3907D01*
X3494Y11171D02*
X3907D01*
X8744Y17909D02*
X8874D01*
X8744Y17661D02*
X8874D01*
X8744D02*
Y17909D01*
X8874Y17661D02*
Y17909D01*
X713Y9797D02*
Y9927D01*
X961Y9797D02*
Y9927D01*
X713Y9797D02*
X961D01*
X713Y9927D02*
X961D01*
X713Y9642D02*
X961D01*
X713Y9512D02*
X961D01*
Y9642D01*
X713Y9512D02*
Y9642D01*
X9266Y11077D02*
X9396D01*
X9266Y11325D02*
X9396D01*
Y11077D02*
Y11325D01*
X9266Y11077D02*
Y11325D01*
X1675Y19114D02*
X4744D01*
X2035Y18826D02*
X2036Y18825D01*
X1793Y18331D02*
X1807Y18345D01*
X1793Y18016D02*
X1807Y18030D01*
X1793Y18718D02*
X2068Y18718D01*
X1793Y17701D02*
X1807Y17715D01*
X1675Y18600D02*
X1793D01*
X1438Y18482D02*
X1793Y18482D01*
X1438Y18404D02*
X1793D01*
Y18345D02*
X1832D01*
X1793Y17386D02*
X1807Y17400D01*
X1793Y18227D02*
X1832D01*
X1438Y18168D02*
X1793Y18168D01*
Y17072D02*
X1807Y17085D01*
X1438Y18089D02*
X1793D01*
Y18030D02*
X1832D01*
X1793Y17912D02*
X1832D01*
X1793Y16757D02*
X1807Y16771D01*
X1438Y17853D02*
X1793D01*
X1438Y17774D02*
X1793Y17774D01*
Y19033D02*
X2035Y18826D01*
X1793Y16442D02*
X1807Y16456D01*
X1793Y17715D02*
X1832D01*
X1793Y17597D02*
X1832D01*
X1438Y17538D02*
X1793D01*
Y16127D02*
X1807Y16141D01*
X1438Y17459D02*
X1793D01*
Y17400D02*
X1832D01*
X1793Y17282D02*
X1832Y17282D01*
X1438Y17223D02*
X1793Y17223D01*
X1793Y15812D02*
X1807Y15826D01*
X1438Y17144D02*
X1793D01*
Y17085D02*
X1832Y17085D01*
X1793Y18240D02*
X1807Y18227D01*
X1793Y15498D02*
X1807Y15511D01*
X1793Y16967D02*
X1832D01*
X1438Y16908D02*
X1793D01*
X1438Y16830D02*
X1793Y16830D01*
Y17926D02*
X1807Y17912D01*
X1793Y16771D02*
X1832D01*
X1793Y16653D02*
X1832D01*
X1438Y16594D02*
X1793D01*
X1438Y16515D02*
X1793D01*
Y16456D02*
X1832D01*
X1793Y17611D02*
X1807Y17597D01*
X1793Y14862D02*
X2035Y15070D01*
X1793Y16338D02*
X1832D01*
X1438Y16279D02*
X1793D01*
Y17296D02*
X1807Y17282D01*
X1438Y16200D02*
X1793D01*
Y16141D02*
X1832D01*
X1793Y16981D02*
X1807Y16967D01*
X1793Y16023D02*
X1832D01*
X1438Y15964D02*
X1793Y15964D01*
X1438Y15885D02*
X1793D01*
Y16666D02*
X1807Y16653D01*
X2068Y14783D02*
Y15177D01*
Y18718D02*
Y19112D01*
X2034Y18718D02*
Y18826D01*
Y15070D02*
Y15177D01*
X1990D02*
Y18718D01*
X1793Y15826D02*
X1832D01*
X1793Y15708D02*
X1832Y15708D01*
X1793Y16352D02*
X1807Y16338D01*
X1832Y15393D02*
Y15511D01*
Y15708D02*
Y15826D01*
Y16023D02*
Y16141D01*
Y16338D02*
Y16456D01*
Y16653D02*
Y16771D01*
Y16967D02*
Y17085D01*
Y17282D02*
Y17400D01*
Y17597D02*
Y17715D01*
Y17912D02*
Y18030D01*
Y18227D02*
Y18345D01*
X1793Y19112D02*
X1793Y14783D01*
X1792Y18404D02*
Y18482D01*
Y18089D02*
Y18168D01*
Y17774D02*
Y17853D01*
Y17538D02*
X1792Y17459D01*
X1792Y17144D02*
Y17223D01*
Y16830D02*
X1792Y16908D01*
X1792Y16515D02*
Y16594D01*
Y16279D02*
X1792Y16200D01*
X1792Y15964D02*
X1792Y15885D01*
X1792Y15649D02*
X1792Y15570D01*
X1753Y18404D02*
Y18482D01*
Y18089D02*
Y18168D01*
Y17774D02*
Y17853D01*
Y17459D02*
Y17538D01*
Y17144D02*
Y17223D01*
Y16830D02*
Y16908D01*
Y16515D02*
Y16594D01*
Y16200D02*
Y16279D01*
Y15885D02*
Y15964D01*
Y15570D02*
Y15649D01*
X1438D02*
X1793D01*
X1438Y15570D02*
X1793D01*
Y15511D02*
X1832Y15511D01*
X1793Y16037D02*
X1807Y16023D01*
X1734Y15374D02*
X1734Y14783D01*
X1734Y18600D02*
Y19112D01*
X1675Y15374D02*
X1675Y14783D01*
Y18600D02*
Y19114D01*
X1793Y15393D02*
X1832D01*
X1675Y15374D02*
X1793D01*
X1438Y18404D02*
Y18482D01*
Y18089D02*
Y18168D01*
Y17774D02*
Y17853D01*
Y17538D02*
X1438Y17459D01*
X1438Y17144D02*
Y17223D01*
Y16830D02*
X1438Y16908D01*
X1438Y16515D02*
Y16594D01*
Y16279D02*
X1438Y16200D01*
X1438Y15964D02*
X1438Y15885D01*
X1438Y15649D02*
X1438Y15570D01*
X1793Y15177D02*
X2068D01*
X1793Y15722D02*
X1807Y15708D01*
X2068Y15177D02*
X2462Y14783D01*
X1675D02*
X4744D01*
X4992Y15413D02*
Y15492D01*
Y15807D02*
X4992Y15728D01*
X4992Y16121D02*
X4992Y16043D01*
X4992Y16357D02*
Y16436D01*
Y16672D02*
X4992Y16751D01*
X4992Y16987D02*
Y17066D01*
Y17302D02*
Y17381D01*
Y17617D02*
Y17695D01*
Y17931D02*
Y18010D01*
Y18246D02*
Y18325D01*
X4419Y15521D02*
X4429Y15570D01*
X4359Y15531D02*
X4369Y15570D01*
X4744Y18325D02*
X4992D01*
X4429Y14980D02*
Y15334D01*
X4429Y15570D02*
X4429Y15659D01*
Y15875D02*
Y15934D01*
X4369Y15570D02*
Y15659D01*
Y15039D02*
Y15334D01*
X4744Y18246D02*
X4992D01*
X4309Y15738D02*
Y15797D01*
X4238Y15039D02*
Y15295D01*
X4178Y15039D02*
Y15295D01*
X3957Y15659D02*
X3967Y15708D01*
X4017Y15659D02*
X4027Y15698D01*
X4744Y18010D02*
X4992D01*
X4744Y17931D02*
X4992Y17931D01*
X4359Y15698D02*
X4369Y15659D01*
X4419Y15708D02*
X4429Y15659D01*
X4078Y15738D02*
Y15797D01*
X4017Y15570D02*
X4017Y15659D01*
X3957Y15875D02*
Y15934D01*
Y15570D02*
Y15659D01*
Y14980D02*
Y15039D01*
X4744Y17695D02*
X4992D01*
X4744Y17617D02*
X4992D01*
X4399Y15748D02*
X4419Y15708D01*
X4017Y15570D02*
X4027Y15531D01*
X3957Y15570D02*
X3967Y15521D01*
X4744Y17381D02*
X4992D01*
X4339Y15728D02*
X4359Y15698D01*
X4744Y17302D02*
X4992D01*
X4744Y17066D02*
X4992Y17066D01*
X4744Y16987D02*
X4992D01*
X4359Y15787D02*
X4399Y15748D01*
X4027Y15531D02*
X4047Y15502D01*
X3967Y15521D02*
X3987Y15482D01*
X4744Y16751D02*
X4992D01*
X4744Y16672D02*
X4992Y16672D01*
X3987Y15482D02*
X4027Y15443D01*
X4744Y16436D02*
X4992D01*
X4744Y16357D02*
X4992Y16357D01*
X4309Y15738D02*
X4339Y15728D01*
X4047Y15502D02*
X4078Y15482D01*
X4744Y16121D02*
X4992Y16121D01*
X4744Y16043D02*
X4992D01*
X4309Y15797D02*
X4359Y15787D01*
X4027Y15443D02*
X4068Y15423D01*
X3957Y15934D02*
X4429D01*
X3957Y15875D02*
X4429D01*
X4078Y15482D02*
X4118Y15472D01*
X3967Y15708D02*
X3987Y15748D01*
X4744Y15807D02*
X4992Y15807D01*
X4744Y15728D02*
X4992D01*
X4068Y15423D02*
X4118Y15413D01*
X4027Y15698D02*
X4047Y15728D01*
X3987Y15748D02*
X4027Y15787D01*
X4047Y15728D02*
X4078Y15738D01*
X4027Y15787D02*
X4078Y15797D01*
X4744Y15492D02*
X4992D01*
X4118Y15472D02*
X4269D01*
X4118Y15413D02*
X4269D01*
X4744D02*
X4992Y15413D01*
X4369Y15334D02*
X4429D01*
X4178Y15295D02*
X4238D01*
X4399Y15482D02*
X4419Y15521D01*
X4339Y15502D02*
X4359Y15531D01*
X4309Y15482D02*
X4339Y15502D01*
X4269Y15472D02*
X4309Y15482D01*
X4269Y15413D02*
X4319Y15423D01*
X4359Y15443D02*
X4399Y15482D01*
X4319Y15423D02*
X4359Y15443D01*
X4238Y15039D02*
X4369D01*
X3957D02*
X4178D01*
X3957Y14980D02*
X4429D01*
X4744Y14783D02*
Y19114D01*
X-41Y7393D02*
X280D01*
X-41D02*
Y7492D01*
X280D01*
X-41Y7788D02*
X280D01*
X-41D02*
Y7886D01*
X280D01*
X-41Y8186D02*
X280D01*
X-41D02*
Y8285D01*
X280D01*
X-41Y8582D02*
X280D01*
X-41D02*
Y8681D01*
X280D01*
X1961Y8695D02*
X2282D01*
Y8596D02*
Y8695D01*
X1961Y8596D02*
X2282D01*
X1961Y8300D02*
X2282D01*
Y8202D02*
Y8300D01*
X1961Y8202D02*
X2282D01*
X1961Y7902D02*
X2282D01*
Y7803D02*
Y7902D01*
X1961Y7803D02*
X2282D01*
X1961Y7506D02*
X2282D01*
Y7408D02*
Y7506D01*
X1961Y7408D02*
X2282D01*
X1963Y6872D02*
Y9232D01*
X301D02*
X1963D01*
X301Y6872D02*
Y9232D01*
Y6872D02*
X1963D01*
X-92Y7069D02*
X301D01*
X-92Y9035D02*
X301D01*
X-92Y6676D02*
Y7069D01*
X-486Y6676D02*
X-92D01*
Y9035D02*
Y9429D01*
X-486D02*
X-92D01*
X-486Y6676D02*
Y9432D01*
X-187Y10226D02*
X2520D01*
X-187D02*
Y10256D01*
Y13750D01*
X1093Y11132D02*
X1093Y11132D01*
X1093Y11132D02*
X1093Y11132D01*
X1093Y11132D02*
X1093Y11132D01*
X1093Y11132D02*
X1093Y11132D01*
X1093Y11133D02*
X1093Y11132D01*
X1093Y11133D02*
X1093Y11133D01*
X1093Y11133D02*
X1093Y11133D01*
X1093Y11133D02*
X1093Y11133D01*
X1093Y11133D02*
X1093Y11133D01*
X1093Y11133D02*
X1093Y11133D01*
X1093Y11133D02*
X1093Y11133D01*
X1093Y11133D02*
X1093Y11133D01*
X1093Y11133D02*
X1093Y11133D01*
X1093Y11133D02*
X1093Y11133D01*
X1093Y11133D02*
X1093Y11133D01*
X1093Y11133D02*
X1093Y11133D01*
X1093Y11133D02*
X1093Y11133D01*
X1093Y11133D02*
X1093Y11133D01*
X1093Y11133D02*
X1093Y11133D01*
X1093Y11133D02*
X1093Y11133D01*
X1093Y11133D02*
X1093Y11133D01*
X1093Y11133D02*
X1093Y11133D01*
X1093Y11134D02*
X1093Y11133D01*
X1093Y11134D02*
X1093Y11134D01*
X1093Y11134D02*
X1093Y11134D01*
X1093Y11134D02*
X1093Y11134D01*
X1093Y11134D02*
X1093Y11134D01*
X1093Y11134D02*
X1093Y11134D01*
X1093Y11134D02*
X1093Y11134D01*
X1093Y11134D02*
X1093Y11134D01*
X1093Y11134D02*
X1093Y11134D01*
X1093Y11134D02*
X1093Y11134D01*
X1093Y11134D02*
X1093Y11134D01*
X1093Y11134D02*
X1093Y11134D01*
X1093Y11134D02*
X1093Y11134D01*
X1093Y11134D02*
X1093Y11134D01*
X1093Y11134D02*
X1093Y11134D01*
X1093Y11134D02*
X1093Y11134D01*
X1093Y11134D02*
X1093Y11134D01*
X1093Y11135D02*
X1093Y11134D01*
X1093Y11135D02*
X1093Y11135D01*
X1093Y11135D02*
X1093Y11135D01*
X1093Y11135D02*
X1093Y11135D01*
X1093Y11135D02*
X1093Y11135D01*
X1093Y11135D02*
X1093Y11135D01*
X1093Y11135D02*
X1093Y11135D01*
X1093Y11135D02*
X1093Y11135D01*
X1093Y11135D02*
X1093Y11135D01*
X1093Y11135D02*
X1093Y11135D01*
X1093Y11135D02*
X1093Y11135D01*
X1093Y11135D02*
X1093Y11135D01*
X1093Y11135D02*
X1093Y11135D01*
X1093Y11135D02*
X1093Y11135D01*
X1093Y11135D02*
X1093Y11135D01*
X1093Y11135D02*
X1093Y11135D01*
X1093Y11135D02*
X1093Y11135D01*
X1093Y11136D02*
X1093Y11135D01*
X1093Y11136D02*
X1093Y11136D01*
X1093Y11136D02*
X1093Y11136D01*
X1093Y11136D02*
X1093Y11136D01*
X1092Y11136D02*
X1093Y11136D01*
X1092Y11136D02*
X1092Y11136D01*
X1092Y11136D02*
X1092Y11136D01*
X1092Y11136D02*
X1092Y11136D01*
X1092Y11136D02*
X1092Y11136D01*
X1092Y11136D02*
X1092Y11136D01*
X1092Y11136D02*
X1092Y11136D01*
X1092Y11136D02*
X1092Y11136D01*
X1092Y11136D02*
X1092Y11136D01*
X1092Y11136D02*
X1092Y11136D01*
X1092Y11136D02*
X1092Y11136D01*
X1092Y11136D02*
X1092Y11136D01*
X1092Y11136D02*
X1092Y11136D01*
X1092Y11137D02*
X1092Y11136D01*
X1092Y11137D02*
X1092Y11137D01*
X1092Y11137D02*
X1092Y11137D01*
X1092Y11137D02*
X1092Y11137D01*
X1092Y11137D02*
X1092Y11137D01*
X1092Y11137D02*
X1092Y11137D01*
X1092Y11137D02*
X1092Y11137D01*
X1092Y11137D02*
X1092Y11137D01*
X1092Y11137D02*
X1092Y11137D01*
X1092Y11137D02*
X1092Y11137D01*
X1092Y11137D02*
X1092Y11137D01*
X1092Y11137D02*
X1092Y11137D01*
X1092Y11137D02*
X1092Y11137D01*
X1092Y11137D02*
X1092Y11137D01*
X1092Y11137D02*
X1092Y11137D01*
X1092Y11137D02*
X1092Y11137D01*
X1092Y11137D02*
X1092Y11137D01*
X1092Y11138D02*
X1092Y11137D01*
X1092Y11138D02*
X1092Y11138D01*
X1092Y11138D02*
X1092Y11138D01*
X1092Y11138D02*
X1092Y11138D01*
X1092Y11138D02*
X1092Y11138D01*
X1092Y11138D02*
X1092Y11138D01*
X1092Y11138D02*
X1092Y11138D01*
X1092Y11138D02*
X1092Y11138D01*
X1092Y11138D02*
X1092Y11138D01*
X1092Y11138D02*
X1092Y11138D01*
X1092Y11138D02*
X1092Y11138D01*
X1092Y11138D02*
X1092Y11138D01*
X1092Y11138D02*
X1092Y11138D01*
X1092Y11138D02*
X1092Y11138D01*
X1092Y11138D02*
X1092Y11138D01*
X1092Y11139D02*
X1092Y11138D01*
X1092Y11139D02*
X1092Y11139D01*
X1092Y11139D02*
X1092Y11139D01*
X1092Y11139D02*
X1092Y11139D01*
X1092Y11139D02*
X1092Y11139D01*
X1092Y11139D02*
X1092Y11139D01*
X1092Y11139D02*
X1092Y11139D01*
X1092Y11139D02*
X1092Y11139D01*
X1092Y11140D02*
X1092Y11139D01*
X1092Y11140D02*
X1092Y11140D01*
X1092Y11140D02*
X1092Y11140D01*
X1092Y11140D02*
X1092Y11140D01*
X1092Y11140D02*
X1092Y11140D01*
X1092Y11140D02*
X1092Y11140D01*
X1092Y11140D02*
X1092Y11140D01*
X1092Y11140D02*
X1092Y11140D01*
X1092Y11140D02*
X1092Y11140D01*
X1092Y11141D02*
X1092Y11140D01*
X1092Y11141D02*
X1092Y11141D01*
X1092Y11141D02*
X1092Y11141D01*
X1092Y11141D02*
X1092Y11141D01*
X1092Y11141D02*
X1092Y11141D01*
X1092Y11141D02*
X1092Y11141D01*
X1092Y11141D02*
X1092Y11141D01*
X1091Y11141D02*
X1092Y11141D01*
X1091Y11142D02*
X1091Y11141D01*
X1091Y11142D02*
X1091Y11142D01*
X1091Y11142D02*
X1091Y11142D01*
X1091Y11142D02*
X1091Y11142D01*
X1091Y11142D02*
X1091Y11142D01*
X1091Y11142D02*
X1091Y11142D01*
X1091Y11142D02*
X1091Y11142D01*
X1091Y11142D02*
X1091Y11142D01*
X1091Y11142D02*
X1091Y11142D01*
X1091Y11143D02*
X1091Y11142D01*
X1091Y11143D02*
X1091Y11143D01*
X1091Y11143D02*
X1091Y11143D01*
X1091Y11143D02*
X1091Y11143D01*
X1091Y11143D02*
X1091Y11143D01*
X1091Y11143D02*
X1091Y11143D01*
X1091Y11143D02*
X1091Y11143D01*
X1091Y11143D02*
X1091Y11143D01*
X1091Y11143D02*
X1091Y11143D01*
X1091Y11144D02*
X1091Y11143D01*
X1091Y11144D02*
X1091Y11144D01*
X1091Y11144D02*
X1091Y11144D01*
X1091Y11144D02*
X1091Y11144D01*
X1091Y11144D02*
X1091Y11144D01*
X1091Y11144D02*
X1091Y11144D01*
X1091Y11144D02*
X1091Y11144D01*
X1091Y11144D02*
X1091Y11144D01*
X1091Y11144D02*
X1091Y11144D01*
X1091Y11145D02*
X1091Y11144D01*
X1091Y11145D02*
X1091Y11145D01*
X1091Y11145D02*
X1091Y11145D01*
X1091Y11145D02*
X1091Y11145D01*
X1091Y11145D02*
X1091Y11145D01*
X1091Y11145D02*
X1091Y11145D01*
X1091Y11146D02*
X1091Y11145D01*
X1090Y11146D02*
X1091Y11146D01*
X1090Y11146D02*
X1090Y11146D01*
X1090Y11146D02*
X1090Y11146D01*
X1090Y11146D02*
X1090Y11146D01*
X1090Y11146D02*
X1090Y11146D01*
X1090Y11147D02*
X1090Y11146D01*
X1090Y11147D02*
X1090Y11147D01*
X1090Y11147D02*
X1090Y11147D01*
X1090Y11147D02*
X1090Y11147D01*
X1090Y11147D02*
X1090Y11147D01*
X1090Y11147D02*
X1090Y11147D01*
X1090Y11148D02*
X1090Y11147D01*
X1090Y11148D02*
X1090Y11148D01*
X1090Y11148D02*
X1090Y11148D01*
X1090Y11148D02*
X1090Y11148D01*
X1090Y11148D02*
X1090Y11148D01*
X1090Y11148D02*
X1090Y11148D01*
X1090Y11149D02*
X1090Y11148D01*
X1090Y11149D02*
X1090Y11149D01*
X1090Y11149D02*
X1090Y11149D01*
X1089Y11149D02*
X1090Y11149D01*
X1089Y11149D02*
X1089Y11149D01*
X1089Y11149D02*
X1089Y11149D01*
X1089Y11150D02*
X1089Y11149D01*
X1089Y11150D02*
X1089Y11150D01*
X1089Y11150D02*
X1089Y11150D01*
X1089Y11150D02*
X1089Y11150D01*
X1089Y11150D02*
X1089Y11150D01*
X1089Y11151D02*
X1089Y11150D01*
X1089Y11151D02*
X1089Y11151D01*
X1089Y11151D02*
X1089Y11151D01*
X1089Y11151D02*
X1089Y11151D01*
X1089Y11151D02*
X1089Y11151D01*
X1089Y11152D02*
X1089Y11151D01*
X1088Y11152D02*
X1089Y11152D01*
X1088Y11152D02*
X1088Y11152D01*
X1088Y11152D02*
X1088Y11152D01*
X1088Y11152D02*
X1088Y11152D01*
X1088Y11153D02*
X1088Y11152D01*
X1088Y11153D02*
X1088Y11153D01*
X1088Y11153D02*
X1088Y11153D01*
X1088Y11153D02*
X1088Y11153D01*
X1088Y11154D02*
X1088Y11153D01*
X1087Y11154D02*
X1088Y11154D01*
X1087Y11155D02*
X1087Y11154D01*
X1087Y11155D02*
X1087Y11155D01*
X1087Y11155D02*
X1087Y11155D01*
X1087Y11156D02*
X1087Y11155D01*
X1086Y11156D02*
X1087Y11156D01*
X1086Y11156D02*
X1086Y11156D01*
X1086Y11157D02*
X1086Y11156D01*
X1086Y11157D02*
X1086Y11157D01*
X1086Y11157D02*
X1086Y11157D01*
X1085Y11158D02*
X1086Y11157D01*
X1085Y11158D02*
X1085Y11158D01*
X1085Y11158D02*
X1085Y11158D01*
X1085Y11159D02*
X1085Y11158D01*
X1085Y11159D02*
X1085Y11159D01*
X1084Y11159D02*
X1085Y11159D01*
X1084Y11160D02*
X1084Y11159D01*
X1084Y11160D02*
X1084Y11160D01*
X1084Y11160D02*
X1084Y11160D01*
X1083Y11161D02*
X1084Y11160D01*
X1083Y11161D02*
X1083Y11161D01*
X1083Y11161D02*
X1083Y11161D01*
X1083Y11162D02*
X1083Y11161D01*
X1082Y11162D02*
X1083Y11162D01*
X1082Y11163D02*
X1082Y11162D01*
X1082Y11163D02*
X1082Y11163D01*
X1081Y11163D02*
X1082Y11163D01*
X1081Y11164D02*
X1081Y11163D01*
X1081Y11164D02*
X1081Y11164D01*
X1080Y11164D02*
X1081Y11164D01*
X1080Y11165D02*
X1080Y11164D01*
X1080Y11165D02*
X1080Y11165D01*
X1079Y11166D02*
X1080Y11165D01*
X1079Y11166D02*
X1079Y11166D01*
X1078Y11167D02*
X1079Y11166D01*
X1078Y11167D02*
X1078Y11167D01*
X1077Y11168D02*
X1078Y11167D01*
X1077Y11168D02*
X1077Y11168D01*
X1077Y11168D02*
X1077Y11168D01*
X1076Y11168D02*
X1077Y11168D01*
X1076Y11169D02*
X1076Y11168D01*
X1076Y11169D02*
X1076Y11169D01*
X1076Y11169D02*
X1076Y11169D01*
X1076Y11169D02*
X1076Y11169D01*
X1076Y11169D02*
X1076Y11169D01*
X1075Y11169D02*
X1076Y11169D01*
X1075Y11169D02*
X1075Y11169D01*
X1075Y11170D02*
X1075Y11169D01*
X1075Y11170D02*
X1075Y11170D01*
X1075Y11170D02*
X1075Y11170D01*
X1075Y11170D02*
X1075Y11170D01*
X1075Y11170D02*
X1075Y11170D01*
X1075Y11170D02*
X1075Y11170D01*
X1074Y11170D02*
X1075Y11170D01*
X1074Y11170D02*
X1074Y11170D01*
X1074Y11170D02*
X1074Y11170D01*
X1074Y11171D02*
X1074Y11170D01*
X1074Y11171D02*
X1074Y11171D01*
X1074Y11171D02*
X1074Y11171D01*
X1074Y11171D02*
X1074Y11171D01*
X1073Y11171D02*
X1074Y11171D01*
X1073Y11171D02*
X1073Y11171D01*
X1073Y11171D02*
X1073Y11171D01*
X1073Y11171D02*
X1073Y11171D01*
X1073Y11171D02*
X1073Y11171D01*
X1073Y11172D02*
X1073Y11171D01*
X1073Y11172D02*
X1073Y11172D01*
X1073Y11172D02*
X1073Y11172D01*
X1072Y11172D02*
X1073Y11172D01*
X1072Y11172D02*
X1072Y11172D01*
X1072Y11172D02*
X1072Y11172D01*
X1072Y11172D02*
X1072Y11172D01*
X1072Y11172D02*
X1072Y11172D01*
X1072Y11172D02*
X1072Y11172D01*
X1072Y11172D02*
X1072Y11172D01*
X1072Y11173D02*
X1072Y11172D01*
X1071Y11173D02*
X1072Y11173D01*
X1071Y11173D02*
X1071Y11173D01*
X1071Y11173D02*
X1071Y11173D01*
X1071Y11173D02*
X1071Y11173D01*
X1071Y11173D02*
X1071Y11173D01*
X1071Y11173D02*
X1071Y11173D01*
X1071Y11173D02*
X1071Y11173D01*
X1071Y11173D02*
X1071Y11173D01*
X1071Y11173D02*
X1071Y11173D01*
X1071Y11173D02*
X1071Y11173D01*
X1071Y11173D02*
X1071Y11173D01*
X1070Y11173D02*
X1071Y11173D01*
X1070Y11173D02*
X1070Y11173D01*
X1070Y11173D02*
X1070Y11173D01*
X1070Y11174D02*
X1070Y11173D01*
X1070Y11174D02*
X1070Y11174D01*
X1070Y11174D02*
X1070Y11174D01*
X1070Y11174D02*
X1070Y11174D01*
X1070Y11174D02*
X1070Y11174D01*
X1070Y11174D02*
X1070Y11174D01*
X1070Y11174D02*
X1070Y11174D01*
X1069Y11174D02*
X1070Y11174D01*
X1069Y11174D02*
X1069Y11174D01*
X1069Y11174D02*
X1069Y11174D01*
X1069Y11174D02*
X1069Y11174D01*
X1069Y11174D02*
X1069Y11174D01*
X1069Y11174D02*
X1069Y11174D01*
X1069Y11174D02*
X1069Y11174D01*
X1069Y11175D02*
X1069Y11174D01*
X1069Y11175D02*
X1069Y11175D01*
X1069Y11175D02*
X1069Y11175D01*
X1069Y11175D02*
X1069Y11175D01*
X1068Y11175D02*
X1069Y11175D01*
X1068Y11175D02*
X1068Y11175D01*
X1068Y11175D02*
X1068Y11175D01*
X1068Y11175D02*
X1068Y11175D01*
X1068Y11175D02*
X1068Y11175D01*
X1068Y11175D02*
X1068Y11175D01*
X1068Y11175D02*
X1068Y11175D01*
X1068Y11175D02*
X1068Y11175D01*
X1068Y11175D02*
X1068Y11175D01*
X1068Y11175D02*
X1068Y11175D01*
X1068Y11175D02*
X1068Y11175D01*
X1067Y11176D02*
X1068Y11175D01*
X1067Y11176D02*
X1067Y11176D01*
X1067Y11176D02*
X1067Y11176D01*
X1067Y11176D02*
X1067Y11176D01*
X1067Y11176D02*
X1067Y11176D01*
X1067Y11176D02*
X1067Y11176D01*
X1067Y11176D02*
X1067Y11176D01*
X1067Y11176D02*
X1067Y11176D01*
X1067Y11176D02*
X1067Y11176D01*
X1067Y11176D02*
X1067Y11176D01*
X1067Y11176D02*
X1067Y11176D01*
X1067Y11176D02*
X1067Y11176D01*
X1067Y11176D02*
X1067Y11176D01*
X1067Y11176D02*
X1067Y11176D01*
X1067Y11176D02*
X1067Y11176D01*
X1067Y11176D02*
X1067Y11176D01*
X1067Y11176D02*
X1067Y11176D01*
X1067Y11176D02*
X1067Y11176D01*
X1067Y11176D02*
X1067Y11176D01*
X1066Y11176D02*
X1067Y11176D01*
X1066Y11176D02*
X1066Y11176D01*
X1066Y11176D02*
X1066Y11176D01*
X1066Y11176D02*
X1066Y11176D01*
X1066Y11176D02*
X1066Y11176D01*
X1066Y11176D02*
X1066Y11176D01*
X1066Y11176D02*
X1066Y11176D01*
X1066Y11176D02*
X1066Y11176D01*
X1066Y11176D02*
X1066Y11176D01*
X1066Y11176D02*
X1066Y11176D01*
X1066Y11177D02*
X1066Y11176D01*
X1066Y11177D02*
X1066Y11177D01*
X1066Y11177D02*
X1066Y11177D01*
X1066Y11177D02*
X1066Y11177D01*
X1066Y11177D02*
X1066Y11177D01*
X1066Y11177D02*
X1066Y11177D01*
X1066Y11177D02*
X1066Y11177D01*
X1066Y11177D02*
X1066Y11177D01*
X1066Y11177D02*
X1066Y11177D01*
X1066Y11177D02*
X1066Y11177D01*
X1065Y11177D02*
X1066Y11177D01*
X1065Y11177D02*
X1065Y11177D01*
X1065Y11177D02*
X1065Y11177D01*
X1065Y11177D02*
X1065Y11177D01*
X1065Y11177D02*
X1065Y11177D01*
X1065Y11177D02*
X1065Y11177D01*
X1065Y11177D02*
X1065Y11177D01*
X1065Y11177D02*
X1065Y11177D01*
X1065Y11177D02*
X1065Y11177D01*
X1065Y11177D02*
X1065Y11177D01*
X1065Y11177D02*
X1065Y11177D01*
X1065Y11177D02*
X1065Y11177D01*
X1065Y11177D02*
X1065Y11177D01*
X1065Y11177D02*
X1065Y11177D01*
X1065Y11177D02*
X1065Y11177D01*
X1065Y11177D02*
X1065Y11177D01*
X1065Y11177D02*
X1065Y11177D01*
X1065Y11177D02*
X1065Y11177D01*
X1065Y11177D02*
X1065Y11177D01*
X1065Y11177D02*
X1065Y11177D01*
X1065Y11177D02*
X1065Y11177D01*
X1064Y11178D02*
X1065Y11177D01*
X1064Y11178D02*
X1064Y11178D01*
X1064Y11178D02*
X1064Y11178D01*
X1064Y11178D02*
X1064Y11178D01*
X1064Y11178D02*
X1064Y11178D01*
X1064Y11178D02*
X1064Y11178D01*
X1064Y11178D02*
X1064Y11178D01*
X1064Y11178D02*
X1064Y11178D01*
X1064Y11178D02*
X1064Y11178D01*
X1064Y11178D02*
X1064Y11178D01*
X1064Y11178D02*
X1064Y11178D01*
X1064Y11178D02*
X1064Y11178D01*
X1064Y11178D02*
X1064Y11178D01*
X1064Y11178D02*
X1064Y11178D01*
X1064Y11178D02*
X1064Y11178D01*
X1064Y11178D02*
X1064Y11178D01*
X1064Y11178D02*
X1064Y11178D01*
X1064Y11178D02*
X1064Y11178D01*
X1064Y11178D02*
X1064Y11178D01*
X1064Y11178D02*
X1064Y11178D01*
X1064Y11178D02*
X1064Y11178D01*
X1063Y11178D02*
X1064Y11178D01*
X1063Y11178D02*
X1063Y11178D01*
X1063Y11178D02*
X1063Y11178D01*
X1063Y11178D02*
X1063Y11178D01*
X1063Y11178D02*
X1063Y11178D01*
X1063Y11178D02*
X1063Y11178D01*
X1063Y11178D02*
X1063Y11178D01*
X1063Y11178D02*
X1063Y11178D01*
X1063Y11178D02*
X1063Y11178D01*
X1063Y11178D02*
X1063Y11178D01*
X1063Y11179D02*
X1063Y11178D01*
X1063Y11179D02*
X1063Y11179D01*
X1063Y11179D02*
X1063Y11179D01*
X1063Y11179D02*
X1063Y11179D01*
X1063Y11179D02*
X1063Y11179D01*
X1063Y11179D02*
X1063Y11179D01*
X1063Y11179D02*
X1063Y11179D01*
X1063Y11179D02*
X1063Y11179D01*
X1063Y11179D02*
X1063Y11179D01*
X1063Y11179D02*
X1063Y11179D01*
X1063Y11179D02*
X1063Y11179D01*
X1063Y10904D02*
X1063Y10904D01*
X1063Y10904D01*
X1063Y10904D01*
X1063Y10904D01*
X1063Y10904D01*
X1063Y10904D01*
X1063Y10904D01*
X1063Y10904D01*
X1063Y10904D01*
X1063Y10904D01*
X1063Y10904D01*
X1063Y10904D01*
X1063Y10904D01*
X1063Y10904D01*
X1063Y10904D01*
X1063Y10904D01*
X1063Y10904D01*
X1063Y10904D01*
X1064Y10905D01*
X1064Y10905D01*
X1064Y10905D01*
X1064Y10905D01*
X1064Y10905D01*
X1064Y10905D01*
X1064Y10905D01*
X1064Y10905D01*
X1064Y10905D01*
X1064Y10905D01*
X1064Y10905D01*
X1064Y10905D01*
X1064Y10905D01*
X1064Y10905D01*
X1064Y10905D01*
X1064Y10905D01*
X1064Y10905D01*
X1064Y10905D01*
X1064Y10905D01*
X1064Y10905D01*
X1065Y10905D01*
X1065Y10905D01*
X1065Y10905D01*
X1065Y10905D01*
X1065Y10905D01*
X1065Y10905D01*
X1065Y10905D01*
X1065Y10905D01*
X1065Y10905D01*
X1065Y10905D01*
X1065Y10905D01*
X1065Y10905D01*
X1065Y10905D01*
X1065Y10905D01*
X1065Y10905D01*
X1065Y10905D01*
X1065Y10905D01*
X1065Y10905D01*
X1065Y10906D01*
X1066Y10906D01*
X1066Y10906D01*
X1066Y10906D01*
X1066Y10906D01*
X1066Y10906D01*
X1066Y10906D01*
X1066Y10906D01*
X1066Y10906D01*
X1066Y10906D01*
X1066Y10906D01*
X1066Y10906D01*
X1066Y10906D01*
X1066Y10906D01*
X1066Y10906D01*
X1066Y10906D01*
X1066Y10906D01*
X1066Y10906D01*
X1066Y10906D01*
X1066Y10906D01*
X1066Y10906D01*
X1067Y10906D01*
X1067Y10906D01*
X1067Y10906D01*
X1067Y10906D01*
X1067Y10906D01*
X1067Y10906D01*
X1067Y10906D01*
X1067Y10906D01*
X1067Y10906D01*
X1067Y10906D01*
X1067Y10906D01*
X1067Y10906D01*
X1067Y10906D01*
X1067Y10906D01*
X1067Y10906D01*
X1067Y10906D01*
X1067Y10907D01*
X1067Y10907D01*
X1067Y10907D01*
X1067Y10907D01*
X1068Y10907D01*
X1068Y10907D01*
X1068Y10907D01*
X1068Y10907D01*
X1068Y10907D01*
X1068Y10907D01*
X1068Y10907D01*
X1068Y10907D01*
X1068Y10907D01*
X1068Y10907D01*
X1068Y10907D01*
X1068Y10907D01*
X1069Y10907D01*
X1069Y10907D01*
X1069Y10907D01*
X1069Y10907D01*
X1069Y10907D01*
X1069Y10907D01*
X1069Y10907D01*
X1069Y10908D01*
X1069Y10908D01*
X1069Y10908D01*
X1069Y10908D01*
X1070Y10908D01*
X1070Y10908D01*
X1070Y10908D01*
X1070Y10908D01*
X1070Y10908D01*
X1070Y10908D01*
X1070Y10908D01*
X1070Y10908D01*
X1070Y10908D01*
X1070Y10908D01*
X1071Y10908D01*
X1071Y10908D01*
X1071Y10908D01*
X1071Y10909D01*
X1071Y10909D01*
X1071Y10909D01*
X1071Y10909D01*
X1071Y10909D01*
X1071Y10909D01*
X1071Y10909D01*
X1072Y10909D01*
X1072Y10909D01*
X1072Y10909D01*
X1072Y10909D01*
X1072Y10909D01*
X1072Y10909D01*
X1072Y10909D01*
X1072Y10909D01*
X1072Y10909D01*
X1072Y10910D01*
X1072Y10910D01*
X1073Y10910D01*
X1073Y10910D01*
X1073Y10910D01*
X1073Y10910D01*
X1073Y10910D01*
X1073Y10910D01*
X1073Y10910D01*
X1073Y10910D01*
X1073Y10910D01*
X1074Y10910D01*
X1074Y10910D01*
X1074Y10911D01*
X1074Y10911D01*
X1074Y10911D01*
X1074Y10911D01*
X1074Y10911D01*
X1075Y10911D01*
X1075Y10911D01*
X1075Y10911D01*
X1075Y10911D01*
X1075Y10911D01*
X1075Y10912D01*
X1075Y10912D01*
X1075Y10912D01*
X1076Y10912D01*
X1076Y10912D01*
X1076Y10912D01*
X1076Y10912D01*
X1076Y10912D01*
X1076Y10912D01*
X1076Y10913D01*
X1076Y10913D01*
X1077Y10913D01*
X1077Y10913D01*
X1077Y10913D01*
X1077Y10913D01*
X1078Y10914D01*
X1078Y10914D01*
X1078Y10914D01*
X1078Y10914D01*
X1079Y10915D01*
X1079Y10915D01*
X1079Y10915D01*
X1079Y10915D01*
X1080Y10916D01*
X1080Y10916D01*
X1080Y10916D01*
X1080Y10916D01*
X1080Y10917D01*
X1081Y10917D01*
X1081Y10917D01*
X1081Y10918D01*
X1081Y10918D01*
X1082Y10918D01*
X1082Y10918D01*
X1082Y10919D01*
X1082Y10919D01*
X1082Y10919D01*
X1083Y10919D01*
X1083Y10920D01*
X1083Y10920D01*
X1083Y10920D01*
X1083Y10921D01*
X1083Y10921D01*
X1084Y10921D01*
X1084Y10922D01*
X1084Y10922D01*
X1084Y10922D01*
X1084Y10922D01*
X1085Y10923D01*
X1085Y10923D01*
X1085Y10923D01*
X1085Y10924D01*
X1085Y10924D01*
X1085Y10924D01*
X1086Y10925D01*
X1086Y10925D01*
X1086Y10925D01*
X1086Y10926D01*
X1086Y10926D01*
X1086Y10926D01*
X1087Y10927D01*
X1087Y10927D01*
X1087Y10928D01*
X1087Y10928D01*
X1087Y10929D01*
X1088Y10929D01*
X1088Y10929D01*
X1088Y10930D01*
X1088Y10930D01*
X1088Y10930D01*
X1088Y10930D01*
X1088Y10930D01*
X1088Y10931D01*
X1088Y10931D01*
X1088Y10931D01*
X1089Y10931D01*
X1089Y10932D01*
X1089Y10932D01*
X1089Y10932D01*
X1089Y10932D01*
X1089Y10932D01*
X1089Y10933D01*
X1089Y10933D01*
X1089Y10933D01*
X1089Y10933D01*
X1089Y10933D01*
X1089Y10934D01*
X1089Y10934D01*
X1089Y10934D01*
X1089Y10934D01*
X1089Y10934D01*
X1090Y10934D01*
X1090Y10935D01*
X1090Y10935D01*
X1090Y10935D01*
X1090Y10935D01*
X1090Y10935D01*
X1090Y10935D01*
X1090Y10936D01*
X1090Y10936D01*
X1090Y10936D01*
X1090Y10936D01*
X1090Y10936D01*
X1090Y10936D01*
X1090Y10937D01*
X1090Y10937D01*
X1090Y10937D01*
X1090Y10937D01*
X1090Y10937D01*
X1090Y10937D01*
X1090Y10938D01*
X1090Y10938D01*
X1091Y10938D01*
X1091Y10938D01*
X1091Y10938D01*
X1091Y10938D01*
X1091Y10938D01*
X1091Y10938D01*
X1091Y10939D01*
X1091Y10939D01*
X1091Y10939D01*
X1091Y10939D01*
X1091Y10939D01*
X1091Y10939D01*
X1091Y10939D01*
X1091Y10939D01*
X1091Y10939D01*
X1091Y10940D01*
X1091Y10940D01*
X1091Y10940D01*
X1091Y10940D01*
X1091Y10940D01*
X1091Y10940D01*
X1091Y10940D01*
X1091Y10940D01*
X1091Y10940D01*
X1091Y10941D01*
X1091Y10941D01*
X1091Y10941D01*
X1091Y10941D01*
X1091Y10941D01*
X1091Y10941D01*
X1091Y10941D01*
X1091Y10941D01*
X1091Y10941D01*
X1091Y10942D01*
X1091Y10942D01*
X1092Y10942D01*
X1092Y10942D01*
X1092Y10942D01*
X1092Y10942D01*
X1092Y10942D01*
X1092Y10942D01*
X1092Y10942D01*
X1092Y10943D01*
X1092Y10943D01*
X1092Y10943D01*
X1092Y10943D01*
X1092Y10943D01*
X1092Y10943D01*
X1092Y10943D01*
X1092Y10943D01*
X1092Y10943D01*
X1092Y10943D01*
X1092Y10944D01*
X1092Y10944D01*
X1092Y10944D01*
X1092Y10944D01*
X1092Y10944D01*
X1092Y10944D01*
X1092Y10944D01*
X1092Y10944D01*
X1092Y10944D01*
X1092Y10944D01*
X1092Y10944D01*
X1092Y10944D01*
X1092Y10944D01*
X1092Y10944D01*
X1092Y10944D01*
X1092Y10944D01*
X1092Y10944D01*
X1092Y10944D01*
X1092Y10944D01*
X1092Y10945D01*
X1092Y10945D01*
X1092Y10945D01*
X1092Y10945D01*
X1092Y10945D01*
X1092Y10945D01*
X1092Y10945D01*
X1092Y10945D01*
X1092Y10945D01*
X1092Y10945D01*
X1092Y10945D01*
X1092Y10945D01*
X1092Y10945D01*
X1092Y10945D01*
X1092Y10945D01*
X1092Y10945D01*
X1092Y10945D01*
X1092Y10946D01*
X1092Y10946D01*
X1092Y10946D01*
X1092Y10946D01*
X1092Y10946D01*
X1092Y10946D01*
X1092Y10946D01*
X1092Y10946D01*
X1092Y10946D01*
X1092Y10946D01*
X1092Y10946D01*
X1092Y10946D01*
X1092Y10946D01*
X1092Y10946D01*
X1093Y10946D01*
X1093Y10946D01*
X1093Y10946D01*
X1093Y10946D01*
X1093Y10947D01*
X1093Y10947D01*
X1093Y10947D01*
X1093Y10947D01*
X1093Y10947D01*
X1093Y10947D01*
X1093Y10947D01*
X1093Y10947D01*
X1093Y10947D01*
X1093Y10947D01*
X1093Y10947D01*
X1093Y10947D01*
X1093Y10947D01*
X1093Y10947D01*
X1093Y10947D01*
X1093Y10947D01*
X1093Y10947D01*
X1093Y10947D01*
X1093Y10948D01*
X1093Y10948D01*
X1093Y10948D01*
X1093Y10948D01*
X1093Y10948D01*
X1093Y10948D01*
X1093Y10948D01*
X1093Y10948D01*
X1093Y10948D01*
X1093Y10948D01*
X1093Y10948D01*
X1093Y10948D01*
X1093Y10948D01*
X1093Y10948D01*
X1093Y10948D01*
X1093Y10948D01*
X1093Y10948D01*
X1093Y10948D01*
X1093Y10949D01*
X1093Y10949D01*
X1093Y10949D01*
X1093Y10949D01*
X1093Y10949D01*
X1093Y10949D01*
X1093Y10949D01*
X1093Y10949D01*
Y11132D01*
X491Y10904D02*
Y11179D01*
X391Y10904D02*
Y11179D01*
X338Y10904D02*
X1063D01*
X338Y11179D02*
X1063D01*
X338Y10904D02*
Y11179D01*
X1093Y13028D02*
X1093Y13027D01*
X1093Y13028D02*
X1093Y13028D01*
X1093Y13028D02*
X1093Y13028D01*
X1093Y13028D02*
X1093Y13028D01*
X1093Y13028D02*
X1093Y13028D01*
X1093Y13028D02*
X1093Y13028D01*
X1093Y13028D02*
X1093Y13028D01*
X1093Y13028D02*
X1093Y13028D01*
X1093Y13028D02*
X1093Y13028D01*
X1093Y13028D02*
X1093Y13028D01*
X1093Y13028D02*
X1093Y13028D01*
X1093Y13028D02*
X1093Y13028D01*
X1093Y13028D02*
X1093Y13028D01*
X1093Y13028D02*
X1093Y13028D01*
X1093Y13028D02*
X1093Y13028D01*
X1093Y13028D02*
X1093Y13028D01*
X1093Y13029D02*
X1093Y13028D01*
X1093Y13029D02*
X1093Y13029D01*
X1093Y13029D02*
X1093Y13029D01*
X1093Y13029D02*
X1093Y13029D01*
X1093Y13029D02*
X1093Y13029D01*
X1093Y13029D02*
X1093Y13029D01*
X1093Y13029D02*
X1093Y13029D01*
X1093Y13029D02*
X1093Y13029D01*
X1093Y13029D02*
X1093Y13029D01*
X1093Y13029D02*
X1093Y13029D01*
X1093Y13029D02*
X1093Y13029D01*
X1093Y13029D02*
X1093Y13029D01*
X1093Y13029D02*
X1093Y13029D01*
X1093Y13029D02*
X1093Y13029D01*
X1093Y13029D02*
X1093Y13029D01*
X1093Y13029D02*
X1093Y13029D01*
X1093Y13029D02*
X1093Y13029D01*
X1093Y13030D02*
X1093Y13029D01*
X1093Y13030D02*
X1093Y13030D01*
X1093Y13030D02*
X1093Y13030D01*
X1093Y13030D02*
X1093Y13030D01*
X1093Y13030D02*
X1093Y13030D01*
X1093Y13030D02*
X1093Y13030D01*
X1093Y13030D02*
X1093Y13030D01*
X1093Y13030D02*
X1093Y13030D01*
X1093Y13030D02*
X1093Y13030D01*
X1093Y13030D02*
X1093Y13030D01*
X1093Y13030D02*
X1093Y13030D01*
X1093Y13030D02*
X1093Y13030D01*
X1093Y13030D02*
X1093Y13030D01*
X1093Y13030D02*
X1093Y13030D01*
X1093Y13030D02*
X1093Y13030D01*
X1093Y13030D02*
X1093Y13030D01*
X1093Y13030D02*
X1093Y13030D01*
X1093Y13031D02*
X1093Y13030D01*
X1093Y13031D02*
X1093Y13031D01*
X1093Y13031D02*
X1093Y13031D01*
X1093Y13031D02*
X1093Y13031D01*
X1093Y13031D02*
X1093Y13031D01*
X1093Y13031D02*
X1093Y13031D01*
X1093Y13031D02*
X1093Y13031D01*
X1093Y13031D02*
X1093Y13031D01*
X1093Y13031D02*
X1093Y13031D01*
X1093Y13031D02*
X1093Y13031D01*
X1092Y13031D02*
X1093Y13031D01*
X1092Y13031D02*
X1092Y13031D01*
X1092Y13031D02*
X1092Y13031D01*
X1092Y13031D02*
X1092Y13031D01*
X1092Y13031D02*
X1092Y13031D01*
X1092Y13031D02*
X1092Y13031D01*
X1092Y13031D02*
X1092Y13031D01*
X1092Y13032D02*
X1092Y13031D01*
X1092Y13032D02*
X1092Y13032D01*
X1092Y13032D02*
X1092Y13032D01*
X1092Y13032D02*
X1092Y13032D01*
X1092Y13032D02*
X1092Y13032D01*
X1092Y13032D02*
X1092Y13032D01*
X1092Y13032D02*
X1092Y13032D01*
X1092Y13032D02*
X1092Y13032D01*
X1092Y13032D02*
X1092Y13032D01*
X1092Y13032D02*
X1092Y13032D01*
X1092Y13032D02*
X1092Y13032D01*
X1092Y13032D02*
X1092Y13032D01*
X1092Y13032D02*
X1092Y13032D01*
X1092Y13032D02*
X1092Y13032D01*
X1092Y13032D02*
X1092Y13032D01*
X1092Y13032D02*
X1092Y13032D01*
X1092Y13032D02*
X1092Y13032D01*
X1092Y13033D02*
X1092Y13032D01*
X1092Y13033D02*
X1092Y13033D01*
X1092Y13033D02*
X1092Y13033D01*
X1092Y13033D02*
X1092Y13033D01*
X1092Y13033D02*
X1092Y13033D01*
X1092Y13033D02*
X1092Y13033D01*
X1092Y13033D02*
X1092Y13033D01*
X1092Y13033D02*
X1092Y13033D01*
X1092Y13033D02*
X1092Y13033D01*
X1092Y13033D02*
X1092Y13033D01*
X1092Y13033D02*
X1092Y13033D01*
X1092Y13033D02*
X1092Y13033D01*
X1092Y13033D02*
X1092Y13033D01*
X1092Y13033D02*
X1092Y13033D01*
X1092Y13033D02*
X1092Y13033D01*
X1092Y13033D02*
X1092Y13033D01*
X1092Y13033D02*
X1092Y13033D01*
X1092Y13033D02*
X1092Y13033D01*
X1092Y13034D02*
X1092Y13033D01*
X1092Y13034D02*
X1092Y13034D01*
X1092Y13034D02*
X1092Y13034D01*
X1092Y13034D02*
X1092Y13034D01*
X1092Y13034D02*
X1092Y13034D01*
X1092Y13034D02*
X1092Y13034D01*
X1092Y13034D02*
X1092Y13034D01*
X1092Y13034D02*
X1092Y13034D01*
X1092Y13035D02*
X1092Y13034D01*
X1092Y13035D02*
X1092Y13035D01*
X1092Y13035D02*
X1092Y13035D01*
X1092Y13035D02*
X1092Y13035D01*
X1092Y13035D02*
X1092Y13035D01*
X1092Y13035D02*
X1092Y13035D01*
X1092Y13035D02*
X1092Y13035D01*
X1092Y13035D02*
X1092Y13035D01*
X1092Y13035D02*
X1092Y13035D01*
X1092Y13036D02*
X1092Y13035D01*
X1092Y13036D02*
X1092Y13036D01*
X1092Y13036D02*
X1092Y13036D01*
X1092Y13036D02*
X1092Y13036D01*
X1092Y13036D02*
X1092Y13036D01*
X1092Y13036D02*
X1092Y13036D01*
X1092Y13036D02*
X1092Y13036D01*
X1092Y13036D02*
X1092Y13036D01*
X1092Y13037D02*
X1092Y13036D01*
X1092Y13037D02*
X1092Y13037D01*
X1091Y13037D02*
X1092Y13037D01*
X1091Y13037D02*
X1091Y13037D01*
X1091Y13037D02*
X1091Y13037D01*
X1091Y13037D02*
X1091Y13037D01*
X1091Y13037D02*
X1091Y13037D01*
X1091Y13037D02*
X1091Y13037D01*
X1091Y13037D02*
X1091Y13037D01*
X1091Y13038D02*
X1091Y13037D01*
X1091Y13038D02*
X1091Y13038D01*
X1091Y13038D02*
X1091Y13038D01*
X1091Y13038D02*
X1091Y13038D01*
X1091Y13038D02*
X1091Y13038D01*
X1091Y13038D02*
X1091Y13038D01*
X1091Y13038D02*
X1091Y13038D01*
X1091Y13038D02*
X1091Y13038D01*
X1091Y13038D02*
X1091Y13038D01*
X1091Y13039D02*
X1091Y13038D01*
X1091Y13039D02*
X1091Y13039D01*
X1091Y13039D02*
X1091Y13039D01*
X1091Y13039D02*
X1091Y13039D01*
X1091Y13039D02*
X1091Y13039D01*
X1091Y13039D02*
X1091Y13039D01*
X1091Y13039D02*
X1091Y13039D01*
X1091Y13039D02*
X1091Y13039D01*
X1091Y13039D02*
X1091Y13039D01*
X1091Y13040D02*
X1091Y13039D01*
X1091Y13040D02*
X1091Y13040D01*
X1091Y13040D02*
X1091Y13040D01*
X1091Y13040D02*
X1091Y13040D01*
X1091Y13040D02*
X1091Y13040D01*
X1091Y13040D02*
X1091Y13040D01*
X1091Y13040D02*
X1091Y13040D01*
X1091Y13041D02*
X1091Y13040D01*
X1091Y13041D02*
X1091Y13041D01*
X1091Y13041D02*
X1091Y13041D01*
X1090Y13041D02*
X1091Y13041D01*
X1090Y13041D02*
X1090Y13041D01*
X1090Y13041D02*
X1090Y13041D01*
X1090Y13042D02*
X1090Y13041D01*
X1090Y13042D02*
X1090Y13042D01*
X1090Y13042D02*
X1090Y13042D01*
X1090Y13042D02*
X1090Y13042D01*
X1090Y13042D02*
X1090Y13042D01*
X1090Y13042D02*
X1090Y13042D01*
X1090Y13043D02*
X1090Y13042D01*
X1090Y13043D02*
X1090Y13043D01*
X1090Y13043D02*
X1090Y13043D01*
X1090Y13043D02*
X1090Y13043D01*
X1090Y13043D02*
X1090Y13043D01*
X1090Y13043D02*
X1090Y13043D01*
X1090Y13044D02*
X1090Y13043D01*
X1090Y13044D02*
X1090Y13044D01*
X1090Y13044D02*
X1090Y13044D01*
X1090Y13044D02*
X1090Y13044D01*
X1090Y13044D02*
X1090Y13044D01*
X1089Y13044D02*
X1090Y13044D01*
X1089Y13045D02*
X1089Y13044D01*
X1089Y13045D02*
X1089Y13045D01*
X1089Y13045D02*
X1089Y13045D01*
X1089Y13045D02*
X1089Y13045D01*
X1089Y13045D02*
X1089Y13045D01*
X1089Y13045D02*
X1089Y13045D01*
X1089Y13046D02*
X1089Y13045D01*
X1089Y13046D02*
X1089Y13046D01*
X1089Y13046D02*
X1089Y13046D01*
X1089Y13046D02*
X1089Y13046D01*
X1089Y13047D02*
X1089Y13046D01*
X1089Y13047D02*
X1089Y13047D01*
X1089Y13047D02*
X1089Y13047D01*
X1088Y13047D02*
X1089Y13047D01*
X1088Y13047D02*
X1088Y13047D01*
X1088Y13048D02*
X1088Y13047D01*
X1088Y13048D02*
X1088Y13048D01*
X1088Y13048D02*
X1088Y13048D01*
X1088Y13048D02*
X1088Y13048D01*
X1088Y13048D02*
X1088Y13048D01*
X1088Y13049D02*
X1088Y13048D01*
X1088Y13049D02*
X1088Y13049D01*
X1087Y13050D02*
X1088Y13049D01*
X1087Y13050D02*
X1087Y13050D01*
X1087Y13050D02*
X1087Y13050D01*
X1087Y13051D02*
X1087Y13050D01*
X1087Y13051D02*
X1087Y13051D01*
X1086Y13051D02*
X1087Y13051D01*
X1086Y13052D02*
X1086Y13051D01*
X1086Y13052D02*
X1086Y13052D01*
X1086Y13052D02*
X1086Y13052D01*
X1086Y13053D02*
X1086Y13052D01*
X1085Y13053D02*
X1086Y13053D01*
X1085Y13053D02*
X1085Y13053D01*
X1085Y13054D02*
X1085Y13053D01*
X1085Y13054D02*
X1085Y13054D01*
X1085Y13054D02*
X1085Y13054D01*
X1084Y13055D02*
X1085Y13054D01*
X1084Y13055D02*
X1084Y13055D01*
X1084Y13055D02*
X1084Y13055D01*
X1084Y13056D02*
X1084Y13055D01*
X1083Y13056D02*
X1084Y13056D01*
X1083Y13056D02*
X1083Y13056D01*
X1083Y13057D02*
X1083Y13056D01*
X1083Y13057D02*
X1083Y13057D01*
X1082Y13058D02*
X1083Y13057D01*
X1082Y13058D02*
X1082Y13058D01*
X1082Y13058D02*
X1082Y13058D01*
X1081Y13059D02*
X1082Y13058D01*
X1081Y13059D02*
X1081Y13059D01*
X1081Y13059D02*
X1081Y13059D01*
X1080Y13060D02*
X1081Y13059D01*
X1080Y13060D02*
X1080Y13060D01*
X1080Y13061D02*
X1080Y13060D01*
X1079Y13061D02*
X1080Y13061D01*
X1079Y13061D02*
X1079Y13061D01*
X1078Y13062D02*
X1079Y13061D01*
X1078Y13062D02*
X1078Y13062D01*
X1077Y13063D02*
X1078Y13062D01*
X1077Y13063D02*
X1077Y13063D01*
X1077Y13064D02*
X1077Y13063D01*
X1076Y13064D02*
X1077Y13064D01*
X1076Y13064D02*
X1076Y13064D01*
X1076Y13064D02*
X1076Y13064D01*
X1076Y13064D02*
X1076Y13064D01*
X1076Y13064D02*
X1076Y13064D01*
X1076Y13065D02*
X1076Y13064D01*
X1075Y13065D02*
X1076Y13065D01*
X1075Y13065D02*
X1075Y13065D01*
X1075Y13065D02*
X1075Y13065D01*
X1075Y13065D02*
X1075Y13065D01*
X1075Y13065D02*
X1075Y13065D01*
X1075Y13065D02*
X1075Y13065D01*
X1075Y13065D02*
X1075Y13065D01*
X1075Y13065D02*
X1075Y13065D01*
X1074Y13066D02*
X1075Y13065D01*
X1074Y13066D02*
X1074Y13066D01*
X1074Y13066D02*
X1074Y13066D01*
X1074Y13066D02*
X1074Y13066D01*
X1074Y13066D02*
X1074Y13066D01*
X1074Y13066D02*
X1074Y13066D01*
X1074Y13066D02*
X1074Y13066D01*
X1073Y13066D02*
X1074Y13066D01*
X1073Y13066D02*
X1073Y13066D01*
X1073Y13067D02*
X1073Y13066D01*
X1073Y13067D02*
X1073Y13067D01*
X1073Y13067D02*
X1073Y13067D01*
X1073Y13067D02*
X1073Y13067D01*
X1073Y13067D02*
X1073Y13067D01*
X1073Y13067D02*
X1073Y13067D01*
X1072Y13067D02*
X1073Y13067D01*
X1072Y13067D02*
X1072Y13067D01*
X1072Y13067D02*
X1072Y13067D01*
X1072Y13068D02*
X1072Y13067D01*
X1072Y13068D02*
X1072Y13068D01*
X1072Y13068D02*
X1072Y13068D01*
X1072Y13068D02*
X1072Y13068D01*
X1072Y13068D02*
X1072Y13068D01*
X1071Y13068D02*
X1072Y13068D01*
X1071Y13068D02*
X1071Y13068D01*
X1071Y13068D02*
X1071Y13068D01*
X1071Y13068D02*
X1071Y13068D01*
X1071Y13068D02*
X1071Y13068D01*
X1071Y13068D02*
X1071Y13068D01*
X1071Y13068D02*
X1071Y13068D01*
X1071Y13068D02*
X1071Y13068D01*
X1071Y13068D02*
X1071Y13068D01*
X1071Y13069D02*
X1071Y13068D01*
X1071Y13069D02*
X1071Y13069D01*
X1070Y13069D02*
X1071Y13069D01*
X1070Y13069D02*
X1070Y13069D01*
X1070Y13069D02*
X1070Y13069D01*
X1070Y13069D02*
X1070Y13069D01*
X1070Y13069D02*
X1070Y13069D01*
X1070Y13069D02*
X1070Y13069D01*
X1070Y13069D02*
X1070Y13069D01*
X1070Y13069D02*
X1070Y13069D01*
X1070Y13069D02*
X1070Y13069D01*
X1070Y13069D02*
X1070Y13069D01*
X1069Y13069D02*
X1070Y13069D01*
X1069Y13069D02*
X1069Y13069D01*
X1069Y13070D02*
X1069Y13069D01*
X1069Y13070D02*
X1069Y13070D01*
X1069Y13070D02*
X1069Y13070D01*
X1069Y13070D02*
X1069Y13070D01*
X1069Y13070D02*
X1069Y13070D01*
X1069Y13070D02*
X1069Y13070D01*
X1069Y13070D02*
X1069Y13070D01*
X1069Y13070D02*
X1069Y13070D01*
X1069Y13070D02*
X1069Y13070D01*
X1068Y13070D02*
X1069Y13070D01*
X1068Y13070D02*
X1068Y13070D01*
X1068Y13070D02*
X1068Y13070D01*
X1068Y13070D02*
X1068Y13070D01*
X1068Y13070D02*
X1068Y13070D01*
X1068Y13070D02*
X1068Y13070D01*
X1068Y13071D02*
X1068Y13070D01*
X1068Y13071D02*
X1068Y13071D01*
X1068Y13071D02*
X1068Y13071D01*
X1068Y13071D02*
X1068Y13071D01*
X1068Y13071D02*
X1068Y13071D01*
X1067Y13071D02*
X1068Y13071D01*
X1067Y13071D02*
X1067Y13071D01*
X1067Y13071D02*
X1067Y13071D01*
X1067Y13071D02*
X1067Y13071D01*
X1067Y13071D02*
X1067Y13071D01*
X1067Y13071D02*
X1067Y13071D01*
X1067Y13071D02*
X1067Y13071D01*
X1067Y13071D02*
X1067Y13071D01*
X1067Y13071D02*
X1067Y13071D01*
X1067Y13071D02*
X1067Y13071D01*
X1067Y13071D02*
X1067Y13071D01*
X1067Y13071D02*
X1067Y13071D01*
X1067Y13071D02*
X1067Y13071D01*
X1067Y13071D02*
X1067Y13071D01*
X1067Y13071D02*
X1067Y13071D01*
X1067Y13071D02*
X1067Y13071D01*
X1067Y13071D02*
X1067Y13071D01*
X1067Y13071D02*
X1067Y13071D01*
X1067Y13071D02*
X1067Y13071D01*
X1066Y13072D02*
X1067Y13071D01*
X1066Y13072D02*
X1066Y13072D01*
X1066Y13072D02*
X1066Y13072D01*
X1066Y13072D02*
X1066Y13072D01*
X1066Y13072D02*
X1066Y13072D01*
X1066Y13072D02*
X1066Y13072D01*
X1066Y13072D02*
X1066Y13072D01*
X1066Y13072D02*
X1066Y13072D01*
X1066Y13072D02*
X1066Y13072D01*
X1066Y13072D02*
X1066Y13072D01*
X1066Y13072D02*
X1066Y13072D01*
X1066Y13072D02*
X1066Y13072D01*
X1066Y13072D02*
X1066Y13072D01*
X1066Y13072D02*
X1066Y13072D01*
X1066Y13072D02*
X1066Y13072D01*
X1066Y13072D02*
X1066Y13072D01*
X1066Y13072D02*
X1066Y13072D01*
X1066Y13072D02*
X1066Y13072D01*
X1066Y13072D02*
X1066Y13072D01*
X1066Y13072D02*
X1066Y13072D01*
X1065Y13072D02*
X1066Y13072D01*
X1065Y13072D02*
X1065Y13072D01*
X1065Y13072D02*
X1065Y13072D01*
X1065Y13072D02*
X1065Y13072D01*
X1065Y13072D02*
X1065Y13072D01*
X1065Y13072D02*
X1065Y13072D01*
X1065Y13072D02*
X1065Y13072D01*
X1065Y13072D02*
X1065Y13072D01*
X1065Y13072D02*
X1065Y13072D01*
X1065Y13072D02*
X1065Y13072D01*
X1065Y13072D02*
X1065Y13072D01*
X1065Y13073D02*
X1065Y13072D01*
X1065Y13073D02*
X1065Y13073D01*
X1065Y13073D02*
X1065Y13073D01*
X1065Y13073D02*
X1065Y13073D01*
X1065Y13073D02*
X1065Y13073D01*
X1065Y13073D02*
X1065Y13073D01*
X1065Y13073D02*
X1065Y13073D01*
X1065Y13073D02*
X1065Y13073D01*
X1065Y13073D02*
X1065Y13073D01*
X1065Y13073D02*
X1065Y13073D01*
X1064Y13073D02*
X1065Y13073D01*
X1064Y13073D02*
X1064Y13073D01*
X1064Y13073D02*
X1064Y13073D01*
X1064Y13073D02*
X1064Y13073D01*
X1064Y13073D02*
X1064Y13073D01*
X1064Y13073D02*
X1064Y13073D01*
X1064Y13073D02*
X1064Y13073D01*
X1064Y13073D02*
X1064Y13073D01*
X1064Y13073D02*
X1064Y13073D01*
X1064Y13073D02*
X1064Y13073D01*
X1064Y13073D02*
X1064Y13073D01*
X1064Y13073D02*
X1064Y13073D01*
X1064Y13073D02*
X1064Y13073D01*
X1064Y13073D02*
X1064Y13073D01*
X1064Y13073D02*
X1064Y13073D01*
X1064Y13073D02*
X1064Y13073D01*
X1064Y13073D02*
X1064Y13073D01*
X1064Y13073D02*
X1064Y13073D01*
X1064Y13073D02*
X1064Y13073D01*
X1064Y13073D02*
X1064Y13073D01*
X1064Y13074D02*
X1064Y13073D01*
X1063Y13074D02*
X1064Y13074D01*
X1063Y13074D02*
X1063Y13074D01*
X1063Y13074D02*
X1063Y13074D01*
X1063Y13074D02*
X1063Y13074D01*
X1063Y13074D02*
X1063Y13074D01*
X1063Y13074D02*
X1063Y13074D01*
X1063Y13074D02*
X1063Y13074D01*
X1063Y13074D02*
X1063Y13074D01*
X1063Y13074D02*
X1063Y13074D01*
X1063Y13074D02*
X1063Y13074D01*
X1063Y13074D02*
X1063Y13074D01*
X1063Y13074D02*
X1063Y13074D01*
X1063Y13074D02*
X1063Y13074D01*
X1063Y13074D02*
X1063Y13074D01*
X1063Y13074D02*
X1063Y13074D01*
X1063Y13074D02*
X1063Y13074D01*
X1063Y13074D02*
X1063Y13074D01*
X1063Y13074D02*
X1063Y13074D01*
X1063Y13074D02*
X1063Y13074D01*
X1063Y13074D02*
X1063Y13074D01*
X1063Y13074D02*
X1063Y13074D01*
X1063Y12799D02*
X1063Y12799D01*
X1063Y12799D01*
X1063Y12799D01*
X1063Y12799D01*
X1063Y12799D01*
X1063Y12800D01*
X1063Y12800D01*
X1063Y12800D01*
X1063Y12800D01*
X1063Y12800D01*
X1063Y12800D01*
X1063Y12800D01*
X1063Y12800D01*
X1063Y12800D01*
X1063Y12800D01*
X1063Y12800D01*
X1063Y12800D01*
X1063Y12800D01*
X1064Y12800D01*
X1064Y12800D01*
X1064Y12800D01*
X1064Y12800D01*
X1064Y12800D01*
X1064Y12800D01*
X1064Y12800D01*
X1064Y12800D01*
X1064Y12800D01*
X1064Y12800D01*
X1064Y12800D01*
X1064Y12800D01*
X1064Y12800D01*
X1064Y12800D01*
X1064Y12800D01*
X1064Y12800D01*
X1064Y12800D01*
X1064Y12800D01*
X1064Y12800D01*
X1064Y12800D01*
X1065Y12800D01*
X1065Y12800D01*
X1065Y12800D01*
X1065Y12800D01*
X1065Y12800D01*
X1065Y12801D01*
X1065Y12801D01*
X1065Y12801D01*
X1065Y12801D01*
X1065Y12801D01*
X1065Y12801D01*
X1065Y12801D01*
X1065Y12801D01*
X1065Y12801D01*
X1065Y12801D01*
X1065Y12801D01*
X1065Y12801D01*
X1065Y12801D01*
X1065Y12801D01*
X1066Y12801D01*
X1066Y12801D01*
X1066Y12801D01*
X1066Y12801D01*
X1066Y12801D01*
X1066Y12801D01*
X1066Y12801D01*
X1066Y12801D01*
X1066Y12801D01*
X1066Y12801D01*
X1066Y12801D01*
X1066Y12801D01*
X1066Y12801D01*
X1066Y12801D01*
X1066Y12801D01*
X1066Y12801D01*
X1066Y12801D01*
X1066Y12801D01*
X1066Y12801D01*
X1066Y12801D01*
X1067Y12801D01*
X1067Y12801D01*
X1067Y12801D01*
X1067Y12801D01*
X1067Y12802D01*
X1067Y12802D01*
X1067Y12802D01*
X1067Y12802D01*
X1067Y12802D01*
X1067Y12802D01*
X1067Y12802D01*
X1067Y12802D01*
X1067Y12802D01*
X1067Y12802D01*
X1067Y12802D01*
X1067Y12802D01*
X1067Y12802D01*
X1067Y12802D01*
X1067Y12802D01*
X1067Y12802D01*
X1068Y12802D01*
X1068Y12802D01*
X1068Y12802D01*
X1068Y12802D01*
X1068Y12802D01*
X1068Y12802D01*
X1068Y12802D01*
X1068Y12802D01*
X1068Y12802D01*
X1068Y12802D01*
X1068Y12802D01*
X1068Y12802D01*
X1069Y12802D01*
X1069Y12803D01*
X1069Y12803D01*
X1069Y12803D01*
X1069Y12803D01*
X1069Y12803D01*
X1069Y12803D01*
X1069Y12803D01*
X1069Y12803D01*
X1069Y12803D01*
X1069Y12803D01*
X1070Y12803D01*
X1070Y12803D01*
X1070Y12803D01*
X1070Y12803D01*
X1070Y12803D01*
X1070Y12803D01*
X1070Y12803D01*
X1070Y12804D01*
X1070Y12804D01*
X1070Y12804D01*
X1071Y12804D01*
X1071Y12804D01*
X1071Y12804D01*
X1071Y12804D01*
X1071Y12804D01*
X1071Y12804D01*
X1071Y12804D01*
X1071Y12804D01*
X1071Y12804D01*
X1071Y12804D01*
X1072Y12804D01*
X1072Y12804D01*
X1072Y12804D01*
X1072Y12804D01*
X1072Y12805D01*
X1072Y12805D01*
X1072Y12805D01*
X1072Y12805D01*
X1072Y12805D01*
X1072Y12805D01*
X1072Y12805D01*
X1073Y12805D01*
X1073Y12805D01*
X1073Y12805D01*
X1073Y12805D01*
X1073Y12805D01*
X1073Y12805D01*
X1073Y12805D01*
X1073Y12805D01*
X1073Y12806D01*
X1074Y12806D01*
X1074Y12806D01*
X1074Y12806D01*
X1074Y12806D01*
X1074Y12806D01*
X1074Y12806D01*
X1074Y12806D01*
X1075Y12806D01*
X1075Y12806D01*
X1075Y12807D01*
X1075Y12807D01*
X1075Y12807D01*
X1075Y12807D01*
X1075Y12807D01*
X1075Y12807D01*
X1076Y12807D01*
X1076Y12807D01*
X1076Y12807D01*
X1076Y12808D01*
X1076Y12808D01*
X1076Y12808D01*
X1076Y12808D01*
X1076Y12808D01*
X1077Y12808D01*
X1077Y12808D01*
X1077Y12809D01*
X1077Y12809D01*
X1078Y12809D01*
X1078Y12809D01*
X1078Y12810D01*
X1078Y12810D01*
X1079Y12810D01*
X1079Y12810D01*
X1079Y12811D01*
X1079Y12811D01*
X1080Y12811D01*
X1080Y12811D01*
X1080Y12812D01*
X1080Y12812D01*
X1080Y12812D01*
X1081Y12812D01*
X1081Y12813D01*
X1081Y12813D01*
X1081Y12813D01*
X1082Y12813D01*
X1082Y12814D01*
X1082Y12814D01*
X1082Y12814D01*
X1082Y12815D01*
X1083Y12815D01*
X1083Y12815D01*
X1083Y12815D01*
X1083Y12816D01*
X1083Y12816D01*
X1083Y12816D01*
X1084Y12817D01*
X1084Y12817D01*
X1084Y12817D01*
X1084Y12817D01*
X1084Y12818D01*
X1085Y12818D01*
X1085Y12818D01*
X1085Y12819D01*
X1085Y12819D01*
X1085Y12819D01*
X1085Y12820D01*
X1086Y12820D01*
X1086Y12820D01*
X1086Y12821D01*
X1086Y12821D01*
X1086Y12821D01*
X1086Y12822D01*
X1087Y12822D01*
X1087Y12823D01*
X1087Y12823D01*
X1087Y12823D01*
X1087Y12824D01*
X1088Y12824D01*
X1088Y12825D01*
X1088Y12825D01*
X1088Y12825D01*
X1088Y12825D01*
X1088Y12826D01*
X1088Y12826D01*
X1088Y12826D01*
X1088Y12826D01*
X1088Y12826D01*
X1089Y12827D01*
X1089Y12827D01*
X1089Y12827D01*
X1089Y12827D01*
X1089Y12828D01*
X1089Y12828D01*
X1089Y12828D01*
X1089Y12828D01*
X1089Y12828D01*
X1089Y12829D01*
X1089Y12829D01*
X1089Y12829D01*
X1089Y12829D01*
X1089Y12829D01*
X1089Y12829D01*
X1089Y12830D01*
X1090Y12830D01*
X1090Y12830D01*
X1090Y12830D01*
X1090Y12830D01*
X1090Y12830D01*
X1090Y12831D01*
X1090Y12831D01*
X1090Y12831D01*
X1090Y12831D01*
X1090Y12831D01*
X1090Y12831D01*
X1090Y12832D01*
X1090Y12832D01*
X1090Y12832D01*
X1090Y12832D01*
X1090Y12832D01*
X1090Y12832D01*
X1090Y12833D01*
X1090Y12833D01*
X1090Y12833D01*
X1090Y12833D01*
X1091Y12833D01*
X1091Y12833D01*
X1091Y12833D01*
X1091Y12834D01*
X1091Y12834D01*
X1091Y12834D01*
X1091Y12834D01*
X1091Y12834D01*
X1091Y12834D01*
X1091Y12834D01*
X1091Y12834D01*
X1091Y12834D01*
X1091Y12835D01*
X1091Y12835D01*
X1091Y12835D01*
X1091Y12835D01*
X1091Y12835D01*
X1091Y12835D01*
X1091Y12835D01*
X1091Y12835D01*
X1091Y12835D01*
X1091Y12836D01*
X1091Y12836D01*
X1091Y12836D01*
X1091Y12836D01*
X1091Y12836D01*
X1091Y12836D01*
X1091Y12836D01*
X1091Y12836D01*
X1091Y12836D01*
X1091Y12837D01*
X1091Y12837D01*
X1091Y12837D01*
X1091Y12837D01*
X1091Y12837D01*
X1092Y12837D01*
X1092Y12837D01*
X1092Y12837D01*
X1092Y12837D01*
X1092Y12838D01*
X1092Y12838D01*
X1092Y12838D01*
X1092Y12838D01*
X1092Y12838D01*
X1092Y12838D01*
X1092Y12838D01*
X1092Y12838D01*
X1092Y12838D01*
X1092Y12839D01*
X1092Y12839D01*
X1092Y12839D01*
X1092Y12839D01*
X1092Y12839D01*
X1092Y12839D01*
X1092Y12839D01*
X1092Y12839D01*
X1092Y12839D01*
X1092Y12839D01*
X1092Y12839D01*
X1092Y12839D01*
X1092Y12839D01*
X1092Y12839D01*
X1092Y12839D01*
X1092Y12839D01*
X1092Y12840D01*
X1092Y12840D01*
X1092Y12840D01*
X1092Y12840D01*
X1092Y12840D01*
X1092Y12840D01*
X1092Y12840D01*
X1092Y12840D01*
X1092Y12840D01*
X1092Y12840D01*
X1092Y12840D01*
X1092Y12840D01*
X1092Y12840D01*
X1092Y12840D01*
X1092Y12840D01*
X1092Y12840D01*
X1092Y12840D01*
X1092Y12840D01*
X1092Y12841D01*
X1092Y12841D01*
X1092Y12841D01*
X1092Y12841D01*
X1092Y12841D01*
X1092Y12841D01*
X1092Y12841D01*
X1092Y12841D01*
X1092Y12841D01*
X1092Y12841D01*
X1092Y12841D01*
X1092Y12841D01*
X1092Y12841D01*
X1092Y12841D01*
X1092Y12841D01*
X1092Y12841D01*
X1092Y12841D01*
X1092Y12841D01*
X1092Y12842D01*
X1092Y12842D01*
X1093Y12842D01*
X1093Y12842D01*
X1093Y12842D01*
X1093Y12842D01*
X1093Y12842D01*
X1093Y12842D01*
X1093Y12842D01*
X1093Y12842D01*
X1093Y12842D01*
X1093Y12842D01*
X1093Y12842D01*
X1093Y12842D01*
X1093Y12842D01*
X1093Y12842D01*
X1093Y12842D01*
X1093Y12842D01*
X1093Y12843D01*
X1093Y12843D01*
X1093Y12843D01*
X1093Y12843D01*
X1093Y12843D01*
X1093Y12843D01*
X1093Y12843D01*
X1093Y12843D01*
X1093Y12843D01*
X1093Y12843D01*
X1093Y12843D01*
X1093Y12843D01*
X1093Y12843D01*
X1093Y12843D01*
X1093Y12843D01*
X1093Y12843D01*
X1093Y12843D01*
X1093Y12843D01*
X1093Y12844D01*
X1093Y12844D01*
X1093Y12844D01*
X1093Y12844D01*
X1093Y12844D01*
X1093Y12844D01*
X1093Y12844D01*
X1093Y12844D01*
X1093Y12844D01*
X1093Y12844D01*
X1093Y12844D01*
X1093Y12844D01*
X1093Y12844D01*
X1093Y12844D01*
Y13027D01*
X491Y12799D02*
Y13074D01*
X391Y12799D02*
Y13074D01*
X338Y12799D02*
X1063D01*
X338Y13074D02*
X1063D01*
X338Y12799D02*
Y13074D01*
X-187Y13750D02*
X2520D01*
Y10226D02*
Y13750D01*
X2339Y2720D02*
Y2878D01*
X3536Y2720D02*
Y2878D01*
X3217Y2720D02*
Y2878D01*
X1438D02*
X3536D01*
X1438Y2720D02*
X3536D01*
X-709D02*
Y2878D01*
X-756Y2831D02*
X-709Y2878D01*
X-756Y2768D02*
X-709Y2720D01*
X-756Y2768D02*
Y2831D01*
X-709Y2720D02*
X445D01*
X780Y4599D02*
Y5047D01*
Y4099D02*
Y4499D01*
X1094Y4599D02*
Y5047D01*
Y4099D02*
Y4499D01*
X780Y3599D02*
Y3999D01*
X1094Y3599D02*
Y3999D01*
X445Y4099D02*
X780D01*
X1094Y4099D02*
X1438D01*
X1094Y3099D02*
Y3499D01*
X780Y3099D02*
Y3499D01*
Y2551D02*
Y2999D01*
X1094Y2551D02*
Y2999D01*
X445Y4499D02*
X780D01*
X1094Y4499D02*
X1438D01*
X1094Y3999D02*
X1438D01*
X445Y3999D02*
X780D01*
X1094Y4599D02*
X1438D01*
X445Y4599D02*
X780D01*
X1094Y3099D02*
X1438D01*
X445Y3099D02*
X780D01*
X1094Y2999D02*
X1438D01*
X445Y2999D02*
X780D01*
X1094Y3599D02*
X1438D01*
X445Y3599D02*
X780D01*
X1094Y3499D02*
X1438D01*
X445Y3499D02*
X780D01*
X445Y2551D02*
Y5047D01*
X1438Y2551D02*
Y5047D01*
X445Y2551D02*
X1438D01*
X445Y5047D02*
X1438D01*
X-709Y2878D02*
X445D01*
X-709Y3378D02*
X445D01*
X-709Y3220D02*
X445D01*
X-756Y3268D02*
Y3331D01*
Y3268D02*
X-709Y3220D01*
X-756Y3331D02*
X-709Y3378D01*
Y3220D02*
Y3378D01*
X1438Y3220D02*
X3536D01*
X1438Y3378D02*
X3536D01*
X3217Y3220D02*
Y3378D01*
X3536Y3220D02*
Y3378D01*
X2339Y3220D02*
Y3378D01*
X-709Y3878D02*
X445D01*
X-709Y3720D02*
X445D01*
X-756Y3768D02*
Y3831D01*
Y3768D02*
X-709Y3720D01*
X-756Y3831D02*
X-709Y3878D01*
Y3720D02*
Y3878D01*
X1438Y3720D02*
X3536D01*
X1438Y3878D02*
X3536D01*
X3217Y3720D02*
Y3878D01*
X3536Y3720D02*
Y3878D01*
X2339Y3720D02*
Y3878D01*
X-709Y4378D02*
X445D01*
X-709Y4220D02*
X445D01*
X-756Y4268D02*
Y4331D01*
Y4268D02*
X-709Y4220D01*
X-756Y4331D02*
X-709Y4378D01*
Y4220D02*
Y4378D01*
X1438Y4220D02*
X3536D01*
X1438Y4378D02*
X3536D01*
X3217Y4220D02*
Y4378D01*
X3536Y4220D02*
Y4378D01*
X2339Y4220D02*
Y4378D01*
X-709Y4878D02*
X445D01*
X-709Y4720D02*
X445D01*
X-756Y4768D02*
Y4831D01*
Y4768D02*
X-709Y4720D01*
X-756Y4831D02*
X-709Y4878D01*
Y4720D02*
Y4878D01*
X1438Y4720D02*
X3536D01*
X1438Y4878D02*
X3536D01*
X3217Y4720D02*
Y4878D01*
X3536Y4720D02*
Y4878D01*
X2339Y4720D02*
Y4878D01*
X12382Y18091D02*
X13169D01*
X12382Y17303D02*
X13169D01*
Y18091D01*
X12382Y17303D02*
Y18091D01*
X12341Y17382D02*
X12382D01*
X12341D02*
Y17500D01*
X12382D01*
X12341Y17756D02*
X12382D01*
X12341Y17638D02*
Y17756D01*
Y17638D02*
X12382D01*
X12341Y18012D02*
X12382D01*
X12341Y17894D02*
Y18012D01*
Y17894D02*
X12382D01*
X13169Y18012D02*
X13211D01*
Y17894D02*
Y18012D01*
X13169Y17894D02*
X13211D01*
X13169Y17756D02*
X13211D01*
Y17638D02*
Y17756D01*
X13169Y17638D02*
X13211D01*
X13169Y17500D02*
X13211D01*
Y17382D02*
Y17500D01*
X13169Y17382D02*
X13211D01*
X13035Y12968D02*
X13283D01*
X13035Y12839D02*
X13283D01*
Y12968D01*
X13035Y12839D02*
Y12968D01*
X14941Y19571D02*
X15965D01*
X14941Y20595D02*
X15965D01*
X15965Y19571D02*
X15965Y20595D01*
X14941D02*
X14941Y19571D01*
X14862Y20674D02*
X14862Y19493D01*
X16043D02*
X16043Y20674D01*
X14862D02*
X16043D01*
X14862Y19493D02*
X16043D01*
X15722Y19231D02*
Y19361D01*
X15970Y19231D02*
Y19361D01*
X15722Y19231D02*
X15970D01*
X15722Y19361D02*
X15970D01*
X15063D02*
X15063Y19231D01*
X15311D02*
Y19361D01*
X15063Y19231D02*
X15311D01*
X15063Y19361D02*
X15311D01*
X11476Y13599D02*
Y13960D01*
X11379Y13599D02*
Y13960D01*
X11928Y13884D02*
Y14246D01*
X11831Y13884D02*
Y14246D01*
X6126Y15555D02*
Y15685D01*
X6374Y15555D02*
Y15685D01*
X6126Y15555D02*
X6374D01*
X6126Y15685D02*
X6374D01*
X3343Y12780D02*
Y12909D01*
X3094Y12780D02*
Y12909D01*
X3343D01*
X3094Y12780D02*
X3343Y12780D01*
X3352Y11423D02*
X3352Y11293D01*
X3104Y11293D02*
Y11423D01*
X3352D01*
X3104Y11293D02*
X3352Y11293D01*
X12071Y17484D02*
X12201D01*
X12071Y17732D02*
X12201D01*
Y17484D02*
Y17732D01*
X12071Y17484D02*
Y17732D01*
X8360Y8470D02*
X8490D01*
X8360Y8222D02*
X8490D01*
X8360D02*
Y8470D01*
X8490Y8222D02*
Y8470D01*
X14091Y13656D02*
Y13785D01*
X13843Y13656D02*
Y13785D01*
X14091D01*
X13843Y13656D02*
X14091D01*
X14114Y14114D02*
X14114Y14154D01*
X14035Y14114D02*
X14114D01*
X14035D02*
Y14154D01*
X14272Y14114D02*
X14272Y14154D01*
X14193Y14114D02*
X14272D01*
X14193D02*
X14193Y14154D01*
X14429Y14114D02*
X14429Y14154D01*
X14350Y14114D02*
X14429D01*
X14350D02*
Y14154D01*
X14587Y14114D02*
X14587Y14154D01*
X14508Y14114D02*
X14587D01*
X14508D02*
X14508Y14154D01*
X14665Y14468D02*
X14705Y14468D01*
Y14390D02*
Y14468D01*
X14665Y14390D02*
X14705D01*
X14665Y14626D02*
X14705Y14626D01*
Y14547D02*
Y14626D01*
X14665Y14547D02*
X14705D01*
X14665Y14783D02*
X14705Y14783D01*
Y14705D02*
Y14783D01*
X14665Y14705D02*
X14705D01*
X14665Y14941D02*
X14705Y14941D01*
Y14862D02*
Y14941D01*
X14665Y14862D02*
X14705D01*
X14508Y15177D02*
Y15217D01*
X14587D01*
Y15177D02*
Y15217D01*
X14350Y15177D02*
X14350Y15217D01*
X14429D01*
Y15177D02*
Y15217D01*
X14193Y15177D02*
Y15217D01*
X14272D01*
Y15177D02*
Y15217D01*
X14035Y15177D02*
X14035Y15217D01*
X14114D01*
Y15177D02*
Y15217D01*
X13917Y14390D02*
X13957Y14390D01*
X13917Y14390D02*
Y14468D01*
X13957D01*
X13917Y14547D02*
X13957Y14547D01*
X13917Y14547D02*
Y14626D01*
X13957D01*
X13917Y14862D02*
X13957Y14862D01*
X13917Y14941D02*
X13917Y14862D01*
X13917Y14941D02*
X13957D01*
X13917Y14783D02*
X13957D01*
X13917Y14705D02*
Y14783D01*
Y14705D02*
X13957D01*
X13957Y15177D02*
X14665D01*
X13957Y14154D02*
X14665D01*
Y15177D01*
X13957Y14154D02*
Y15177D01*
X9203Y14321D02*
Y14616D01*
X8907Y14321D02*
Y14616D01*
X9203D01*
X8907Y14321D02*
X9203D01*
X7545Y17573D02*
Y17821D01*
X7415Y17573D02*
Y17821D01*
Y17573D02*
X7545D01*
X7415Y17821D02*
X7545D01*
X10344Y17365D02*
X10758D01*
X10344Y17148D02*
X10758D01*
Y17365D01*
X10344Y17148D02*
Y17365D01*
X11463Y17150D02*
Y17280D01*
X11215Y17150D02*
Y17280D01*
X11463D01*
X11215Y17150D02*
X11463D01*
D249*
X9107Y18672D02*
X9132Y18697D01*
X9182D01*
X9207Y18672D01*
Y18647D01*
X9182Y18622D01*
X9132D01*
X9107Y18597D01*
Y18572D01*
X9132Y18547D01*
X9182D01*
X9207Y18572D01*
X9057Y18697D02*
Y18547D01*
X8982D01*
X8957Y18572D01*
Y18597D01*
X8982Y18622D01*
X9057D01*
X8982D01*
X8957Y18647D01*
Y18672D01*
X8982Y18697D01*
X9057D01*
X8907Y18547D02*
X8857D01*
X8882D01*
Y18697D01*
X8907Y18672D01*
X8782Y18547D02*
X8732D01*
X8757D01*
Y18697D01*
X8782Y18672D01*
X8137Y17922D02*
X8112Y17897D01*
X8062D01*
X8037Y17922D01*
Y17947D01*
X8062Y17972D01*
X8112D01*
X8137Y17997D01*
Y18022D01*
X8112Y18047D01*
X8062D01*
X8037Y18022D01*
X8187Y17897D02*
Y18047D01*
X8262D01*
X8287Y18022D01*
Y17997D01*
X8262Y17972D01*
X8187D01*
X8262D01*
X8287Y17947D01*
Y17922D01*
X8262Y17897D01*
X8187D01*
X8337Y18047D02*
X8387D01*
X8362D01*
Y17897D01*
X8337Y17922D01*
X8462D02*
X8487Y17897D01*
X8537D01*
X8562Y17922D01*
Y18022D01*
X8537Y18047D01*
X8487D01*
X8462Y18022D01*
Y17922D01*
D250*
X13972Y17100D02*
Y17220D01*
X13912D01*
X13892Y17200D01*
Y17160D01*
X13912Y17140D01*
X13972D01*
X13932D02*
X13892Y17100D01*
X13852D02*
X13812D01*
X13832D01*
Y17220D01*
X13852Y17200D01*
X13691Y17100D02*
Y17220D01*
X13751Y17160D01*
X13671D01*
X13972Y16416D02*
Y16536D01*
X13912D01*
X13892Y16516D01*
Y16476D01*
X13912Y16456D01*
X13972D01*
X13932D02*
X13892Y16416D01*
X13852D02*
X13812D01*
X13832D01*
Y16536D01*
X13852Y16516D01*
X13751D02*
X13731Y16536D01*
X13691D01*
X13671Y16516D01*
Y16496D01*
X13691Y16476D01*
X13711D01*
X13691D01*
X13671Y16456D01*
Y16436D01*
X13691Y16416D01*
X13731D01*
X13751Y16436D01*
X13972Y18050D02*
Y18170D01*
X13912D01*
X13892Y18150D01*
Y18110D01*
X13912Y18090D01*
X13972D01*
X13932D02*
X13892Y18050D01*
X13852D02*
X13812D01*
X13832D01*
Y18170D01*
X13852Y18150D01*
X13671Y18050D02*
X13751D01*
X13671Y18130D01*
Y18150D01*
X13691Y18170D01*
X13731D01*
X13751Y18150D01*
X4536Y6956D02*
X4556Y6976D01*
X4596D01*
X4616Y6956D01*
Y6876D01*
X4596Y6856D01*
X4556D01*
X4536Y6876D01*
X4415Y6976D02*
X4496D01*
Y6916D01*
X4455Y6936D01*
X4435D01*
X4415Y6916D01*
Y6876D01*
X4435Y6856D01*
X4475D01*
X4496Y6876D01*
X4375Y6976D02*
X4295D01*
Y6956D01*
X4375Y6876D01*
Y6856D01*
X5021Y6956D02*
X5041Y6976D01*
X5081D01*
X5101Y6956D01*
Y6876D01*
X5081Y6856D01*
X5041D01*
X5021Y6876D01*
X4901Y6976D02*
X4981D01*
Y6916D01*
X4941Y6936D01*
X4921D01*
X4901Y6916D01*
Y6876D01*
X4921Y6856D01*
X4961D01*
X4981Y6876D01*
X4781Y6976D02*
X4821Y6956D01*
X4861Y6916D01*
Y6876D01*
X4841Y6856D01*
X4801D01*
X4781Y6876D01*
Y6896D01*
X4801Y6916D01*
X4861D01*
X12747Y16074D02*
X12767Y16054D01*
Y16014D01*
X12747Y15994D01*
X12667D01*
X12647Y16014D01*
Y16054D01*
X12667Y16074D01*
X12747Y16114D02*
X12767Y16134D01*
Y16174D01*
X12747Y16194D01*
X12727D01*
X12707Y16174D01*
Y16154D01*
Y16174D01*
X12687Y16194D01*
X12667D01*
X12647Y16174D01*
Y16134D01*
X12667Y16114D01*
X12767Y16234D02*
Y16314D01*
X12747D01*
X12667Y16234D01*
X12647D01*
X12314Y15149D02*
X12334Y15129D01*
Y15089D01*
X12314Y15069D01*
X12234D01*
X12214Y15089D01*
Y15129D01*
X12234Y15149D01*
X12314Y15189D02*
X12334Y15209D01*
Y15249D01*
X12314Y15269D01*
X12294D01*
X12274Y15249D01*
Y15229D01*
Y15249D01*
X12254Y15269D01*
X12234D01*
X12214Y15249D01*
Y15209D01*
X12234Y15189D01*
X12334Y15389D02*
X12314Y15349D01*
X12274Y15309D01*
X12234D01*
X12214Y15329D01*
Y15369D01*
X12234Y15389D01*
X12254D01*
X12274Y15369D01*
Y15309D01*
X9901Y12077D02*
X10021D01*
Y12137D01*
X10001Y12157D01*
X9961D01*
X9941Y12137D01*
Y12077D01*
Y12117D02*
X9901Y12157D01*
Y12277D02*
Y12197D01*
X9981Y12277D01*
X10001D01*
X10021Y12257D01*
Y12217D01*
X10001Y12197D01*
X9901Y12397D02*
Y12317D01*
X9981Y12397D01*
X10001D01*
X10021Y12377D01*
Y12337D01*
X10001Y12317D01*
X9625Y12077D02*
X9745D01*
Y12137D01*
X9725Y12157D01*
X9685D01*
X9665Y12137D01*
Y12077D01*
Y12117D02*
X9625Y12157D01*
Y12277D02*
Y12197D01*
X9705Y12277D01*
X9725D01*
X9745Y12257D01*
Y12217D01*
X9725Y12197D01*
Y12317D02*
X9745Y12337D01*
Y12377D01*
X9725Y12397D01*
X9705D01*
X9685Y12377D01*
Y12357D01*
Y12377D01*
X9665Y12397D01*
X9645D01*
X9625Y12377D01*
Y12337D01*
X9645Y12317D01*
X4742Y5563D02*
X4782D01*
X4762D01*
Y5463D01*
X4782Y5443D01*
X4802D01*
X4822Y5463D01*
X4622Y5563D02*
X4702D01*
Y5503D01*
X4662Y5523D01*
X4642D01*
X4622Y5503D01*
Y5463D01*
X4642Y5443D01*
X4682D01*
X4702Y5463D01*
X6302Y19315D02*
X6342D01*
X6322D01*
Y19215D01*
X6342Y19195D01*
X6362D01*
X6382Y19215D01*
X6262Y19295D02*
X6242Y19315D01*
X6202D01*
X6182Y19295D01*
Y19275D01*
X6202Y19255D01*
X6222D01*
X6202D01*
X6182Y19235D01*
Y19215D01*
X6202Y19195D01*
X6242D01*
X6262Y19215D01*
X12831Y16667D02*
Y16747D01*
X12851Y16767D01*
X12891D01*
X12911Y16747D01*
Y16667D01*
X12891Y16647D01*
X12851D01*
X12871Y16687D02*
X12831Y16647D01*
X12851D02*
X12831Y16667D01*
X12730Y16647D02*
Y16767D01*
X12790Y16707D01*
X12710D01*
X10441Y17018D02*
X10461Y17038D01*
X10501D01*
X10521Y17018D01*
Y16938D01*
X10501Y16918D01*
X10461D01*
X10441Y16938D01*
X10401Y17018D02*
X10381Y17038D01*
X10341D01*
X10321Y17018D01*
Y16998D01*
X10341Y16978D01*
X10361D01*
X10341D01*
X10321Y16958D01*
Y16938D01*
X10341Y16918D01*
X10381D01*
X10401Y16938D01*
X10281Y17018D02*
X10261Y17038D01*
X10221D01*
X10201Y17018D01*
Y16998D01*
X10221Y16978D01*
X10201Y16958D01*
Y16938D01*
X10221Y16918D01*
X10261D01*
X10281Y16938D01*
Y16958D01*
X10261Y16978D01*
X10281Y16998D01*
Y17018D01*
X10261Y16978D02*
X10221D01*
X11753Y17009D02*
X11773Y17029D01*
X11813D01*
X11833Y17009D01*
Y16928D01*
X11813Y16908D01*
X11773D01*
X11753Y16928D01*
X11713Y17009D02*
X11693Y17029D01*
X11653D01*
X11633Y17009D01*
Y16989D01*
X11653Y16968D01*
X11673D01*
X11653D01*
X11633Y16948D01*
Y16928D01*
X11653Y16908D01*
X11693D01*
X11713Y16928D01*
X11593D02*
X11573Y16908D01*
X11533D01*
X11513Y16928D01*
Y17009D01*
X11533Y17029D01*
X11573D01*
X11593Y17009D01*
Y16989D01*
X11573Y16968D01*
X11513D01*
X8100Y8356D02*
X8180D01*
X8200Y8336D01*
Y8296D01*
X8180Y8276D01*
X8100D01*
X8080Y8296D01*
Y8336D01*
X8120Y8316D02*
X8080Y8356D01*
Y8336D02*
X8100Y8356D01*
X8200Y8476D02*
Y8396D01*
X8140D01*
X8160Y8436D01*
Y8456D01*
X8140Y8476D01*
X8100D01*
X8080Y8456D01*
Y8416D01*
X8100Y8396D01*
X8592Y8524D02*
X8712D01*
Y8584D01*
X8692Y8604D01*
X8652D01*
X8632Y8584D01*
Y8524D01*
Y8564D02*
X8592Y8604D01*
Y8724D02*
Y8644D01*
X8672Y8724D01*
X8692D01*
X8712Y8704D01*
Y8664D01*
X8692Y8644D01*
X8592Y8764D02*
Y8804D01*
Y8784D01*
X8712D01*
X8692Y8764D01*
X8545Y15119D02*
X8565Y15139D01*
X8605D01*
X8625Y15119D01*
Y15039D01*
X8605Y15019D01*
X8565D01*
X8545Y15039D01*
X8445Y15019D02*
Y15139D01*
X8505Y15079D01*
X8425D01*
X8304Y15139D02*
X8385D01*
Y15079D01*
X8345Y15099D01*
X8325D01*
X8304Y15079D01*
Y15039D01*
X8325Y15019D01*
X8365D01*
X8385Y15039D01*
X11508Y9342D02*
Y9221D01*
X11448D01*
X11428Y9241D01*
Y9262D01*
X11448Y9282D01*
X11508D01*
X11448D01*
X11428Y9302D01*
Y9322D01*
X11448Y9342D01*
X11508D01*
X11388Y9302D02*
X11308D01*
X11388Y9221D01*
X11308D01*
X11268D02*
X11228D01*
X11248D01*
Y9342D01*
X11268Y9322D01*
X13657Y13355D02*
Y13475D01*
X13597D01*
X13577Y13455D01*
Y13415D01*
X13597Y13395D01*
X13657D01*
X13617D02*
X13577Y13355D01*
X13477D02*
Y13475D01*
X13537Y13415D01*
X13457D01*
X13337Y13475D02*
X13417D01*
Y13415D01*
X13377Y13435D01*
X13357D01*
X13337Y13415D01*
Y13375D01*
X13357Y13355D01*
X13397D01*
X13417Y13375D01*
X13657Y13099D02*
Y13219D01*
X13597D01*
X13577Y13199D01*
Y13159D01*
X13597Y13139D01*
X13657D01*
X13617D02*
X13577Y13099D01*
X13477D02*
Y13219D01*
X13537Y13159D01*
X13457D01*
X13337Y13219D02*
X13377Y13199D01*
X13417Y13159D01*
Y13119D01*
X13397Y13099D01*
X13357D01*
X13337Y13119D01*
Y13139D01*
X13357Y13159D01*
X13417D01*
X1998Y19812D02*
Y19892D01*
X2018Y19912D01*
X2058D01*
X2078Y19892D01*
Y19812D01*
X2058Y19792D01*
X2018D01*
X2038Y19832D02*
X1998Y19792D01*
X2018D02*
X1998Y19812D01*
X1958Y19892D02*
X1938Y19912D01*
X1898D01*
X1878Y19892D01*
Y19872D01*
X1898Y19852D01*
X1878Y19832D01*
Y19812D01*
X1898Y19792D01*
X1938D01*
X1958Y19812D01*
Y19832D01*
X1938Y19852D01*
X1958Y19872D01*
Y19892D01*
X1938Y19852D02*
X1898D01*
X2342Y20059D02*
X2462D01*
Y20119D01*
X2442Y20139D01*
X2402D01*
X2382Y20119D01*
Y20059D01*
Y20099D02*
X2342Y20139D01*
Y20239D02*
X2462D01*
X2402Y20179D01*
Y20259D01*
X2462Y20299D02*
Y20379D01*
X2442D01*
X2362Y20299D01*
X2342D01*
X1515Y20059D02*
X1635D01*
Y20119D01*
X1615Y20139D01*
X1575D01*
X1555Y20119D01*
Y20059D01*
Y20099D02*
X1515Y20139D01*
Y20239D02*
X1635D01*
X1575Y20179D01*
Y20259D01*
X1615Y20299D02*
X1635Y20319D01*
Y20359D01*
X1615Y20379D01*
X1595D01*
X1575Y20359D01*
X1555Y20379D01*
X1535D01*
X1515Y20359D01*
Y20319D01*
X1535Y20299D01*
X1555D01*
X1575Y20319D01*
X1595Y20299D01*
X1615D01*
X1575Y20319D02*
Y20359D01*
X12021Y12860D02*
X11941D01*
X11981D01*
Y12740D01*
X11901D02*
Y12860D01*
X11841D01*
X11821Y12840D01*
Y12800D01*
X11841Y12780D01*
X11901D01*
X11781Y12860D02*
X11701D01*
Y12840D01*
X11781Y12760D01*
Y12740D01*
X10446Y12860D02*
X10366D01*
X10406D01*
Y12740D01*
X10326D02*
Y12860D01*
X10266D01*
X10246Y12840D01*
Y12800D01*
X10266Y12780D01*
X10326D01*
X10206Y12840D02*
X10186Y12860D01*
X10146D01*
X10126Y12840D01*
Y12820D01*
X10146Y12800D01*
X10126Y12780D01*
Y12760D01*
X10146Y12740D01*
X10186D01*
X10206Y12760D01*
Y12780D01*
X10186Y12800D01*
X10206Y12820D01*
Y12840D01*
X10186Y12800D02*
X10146D01*
X11234Y12860D02*
X11154D01*
X11194D01*
Y12740D01*
X11114D02*
Y12860D01*
X11053D01*
X11033Y12840D01*
Y12800D01*
X11053Y12780D01*
X11114D01*
X10913Y12860D02*
X10953Y12840D01*
X10993Y12800D01*
Y12760D01*
X10973Y12740D01*
X10933D01*
X10913Y12760D01*
Y12780D01*
X10933Y12800D01*
X10993D01*
X7344Y16753D02*
X7364Y16773D01*
X7404D01*
X7424Y16753D01*
Y16673D01*
X7404Y16653D01*
X7364D01*
X7344Y16673D01*
X7244Y16653D02*
Y16773D01*
X7304Y16713D01*
X7224D01*
X7184Y16773D02*
X7104D01*
Y16753D01*
X7184Y16673D01*
Y16653D01*
X8149Y17874D02*
X8269D01*
Y17934D01*
X8249Y17954D01*
X8209D01*
X8189Y17934D01*
Y17874D01*
Y17914D02*
X8149Y17954D01*
X8249Y17994D02*
X8269Y18014D01*
Y18054D01*
X8249Y18074D01*
X8229D01*
X8209Y18054D01*
Y18034D01*
Y18054D01*
X8189Y18074D01*
X8169D01*
X8149Y18054D01*
Y18014D01*
X8169Y17994D01*
X8149Y18114D02*
Y18154D01*
Y18134D01*
X8269D01*
X8249Y18114D01*
X9450Y16575D02*
X9470Y16595D01*
X9510D01*
X9530Y16575D01*
Y16495D01*
X9510Y16475D01*
X9470D01*
X9450Y16495D01*
X9410Y16575D02*
X9390Y16595D01*
X9350D01*
X9330Y16575D01*
Y16555D01*
X9350Y16535D01*
X9370D01*
X9350D01*
X9330Y16515D01*
Y16495D01*
X9350Y16475D01*
X9390D01*
X9410Y16495D01*
X9210Y16595D02*
X9290D01*
Y16535D01*
X9250Y16555D01*
X9230D01*
X9210Y16535D01*
Y16495D01*
X9230Y16475D01*
X9270D01*
X9290Y16495D01*
X9205Y15670D02*
Y15550D01*
X9125D01*
X9085D02*
X9045D01*
X9065D01*
Y15670D01*
X9085Y15650D01*
X8985Y15550D02*
X8945D01*
X8965D01*
Y15670D01*
X8985Y15650D01*
X8604Y16123D02*
X8624Y16143D01*
X8664D01*
X8684Y16123D01*
Y16043D01*
X8664Y16023D01*
X8624D01*
X8604Y16043D01*
X8504Y16023D02*
Y16143D01*
X8564Y16083D01*
X8484D01*
X8444Y16123D02*
X8424Y16143D01*
X8384D01*
X8364Y16123D01*
Y16103D01*
X8384Y16083D01*
X8364Y16063D01*
Y16043D01*
X8384Y16023D01*
X8424D01*
X8444Y16043D01*
Y16063D01*
X8424Y16083D01*
X8444Y16103D01*
Y16123D01*
X8424Y16083D02*
X8384D01*
X7344Y17205D02*
X7364Y17225D01*
X7404D01*
X7424Y17205D01*
Y17125D01*
X7404Y17105D01*
X7364D01*
X7344Y17125D01*
X7244Y17105D02*
Y17225D01*
X7304Y17165D01*
X7224D01*
X7104Y17225D02*
X7144Y17205D01*
X7184Y17165D01*
Y17125D01*
X7164Y17105D01*
X7124D01*
X7104Y17125D01*
Y17145D01*
X7124Y17165D01*
X7184D01*
X7344Y16300D02*
X7364Y16320D01*
X7404D01*
X7424Y16300D01*
Y16220D01*
X7404Y16200D01*
X7364D01*
X7344Y16220D01*
X7304Y16300D02*
X7284Y16320D01*
X7244D01*
X7224Y16300D01*
Y16280D01*
X7244Y16260D01*
X7264D01*
X7244D01*
X7224Y16240D01*
Y16220D01*
X7244Y16200D01*
X7284D01*
X7304Y16220D01*
X7124Y16200D02*
Y16320D01*
X7184Y16260D01*
X7104D01*
X8466Y16969D02*
Y16869D01*
X8446Y16849D01*
X8406D01*
X8386Y16869D01*
Y16969D01*
X8346Y16949D02*
X8326Y16969D01*
X8286D01*
X8266Y16949D01*
Y16929D01*
X8286Y16909D01*
X8306D01*
X8286D01*
X8266Y16889D01*
Y16869D01*
X8286Y16849D01*
X8326D01*
X8346Y16869D01*
X6625Y14979D02*
X6645Y14959D01*
Y14919D01*
X6625Y14899D01*
X6545D01*
X6525Y14919D01*
Y14959D01*
X6545Y14979D01*
X6645Y15099D02*
Y15019D01*
X6585D01*
X6605Y15059D01*
Y15079D01*
X6585Y15099D01*
X6545D01*
X6525Y15079D01*
Y15039D01*
X6545Y15019D01*
X6525Y15199D02*
X6645D01*
X6585Y15139D01*
Y15219D01*
X5405Y15089D02*
X5425Y15109D01*
X5465D01*
X5485Y15089D01*
Y15009D01*
X5465Y14989D01*
X5425D01*
X5405Y15009D01*
X5285Y15109D02*
X5365D01*
Y15049D01*
X5325Y15069D01*
X5305D01*
X5285Y15049D01*
Y15009D01*
X5305Y14989D01*
X5345D01*
X5365Y15009D01*
X5165Y15109D02*
X5245D01*
Y15049D01*
X5205Y15069D01*
X5185D01*
X5165Y15049D01*
Y15009D01*
X5185Y14989D01*
X5225D01*
X5245Y15009D01*
X6114Y15050D02*
Y14950D01*
X6094Y14930D01*
X6054D01*
X6034Y14950D01*
Y15050D01*
X5914D02*
X5954Y15030D01*
X5994Y14990D01*
Y14950D01*
X5974Y14930D01*
X5934D01*
X5914Y14950D01*
Y14970D01*
X5934Y14990D01*
X5994D01*
X11667Y17707D02*
X11687Y17727D01*
X11727D01*
X11747Y17707D01*
Y17627D01*
X11727Y17607D01*
X11687D01*
X11667Y17627D01*
X11547Y17727D02*
X11627D01*
Y17667D01*
X11587Y17687D01*
X11567D01*
X11547Y17667D01*
Y17627D01*
X11567Y17607D01*
X11607D01*
X11627Y17627D01*
X11507Y17707D02*
X11487Y17727D01*
X11447D01*
X11427Y17707D01*
Y17627D01*
X11447Y17607D01*
X11487D01*
X11507Y17627D01*
Y17707D01*
X11312Y18711D02*
X11332Y18731D01*
X11372D01*
X11393Y18711D01*
Y18631D01*
X11372Y18611D01*
X11332D01*
X11312Y18631D01*
X11192Y18731D02*
X11272D01*
Y18671D01*
X11232Y18691D01*
X11212D01*
X11192Y18671D01*
Y18631D01*
X11212Y18611D01*
X11252D01*
X11272Y18631D01*
X11152Y18611D02*
X11112D01*
X11132D01*
Y18731D01*
X11152Y18711D01*
X11213Y18205D02*
Y18105D01*
X11193Y18085D01*
X11153D01*
X11133Y18105D01*
Y18205D01*
X11093Y18085D02*
X11053D01*
X11073D01*
Y18205D01*
X11093Y18185D01*
X10913Y18085D02*
X10993D01*
X10913Y18165D01*
Y18185D01*
X10933Y18205D01*
X10973D01*
X10993Y18185D01*
X13102Y15031D02*
Y14930D01*
X13082Y14910D01*
X13042D01*
X13022Y14930D01*
Y15031D01*
X12982D02*
X12902D01*
Y15010D01*
X12982Y14930D01*
Y14910D01*
X3081Y10875D02*
X3101Y10855D01*
Y10815D01*
X3081Y10795D01*
X3001D01*
X2981Y10815D01*
Y10855D01*
X3001Y10875D01*
X2981Y10975D02*
X3101D01*
X3041Y10915D01*
Y10995D01*
X3081Y11035D02*
X3101Y11055D01*
Y11095D01*
X3081Y11115D01*
X3061D01*
X3041Y11095D01*
Y11075D01*
Y11095D01*
X3021Y11115D01*
X3001D01*
X2981Y11095D01*
Y11055D01*
X3001Y11035D01*
X4066Y10875D02*
X4086Y10855D01*
Y10815D01*
X4066Y10795D01*
X3986D01*
X3966Y10815D01*
Y10855D01*
X3986Y10875D01*
X3966Y10975D02*
X4086D01*
X4026Y10915D01*
Y10995D01*
X3966Y11095D02*
X4086D01*
X4026Y11035D01*
Y11115D01*
X4095Y13473D02*
X4115Y13453D01*
Y13413D01*
X4095Y13393D01*
X4015D01*
X3995Y13413D01*
Y13453D01*
X4015Y13473D01*
X4115Y13593D02*
Y13513D01*
X4055D01*
X4075Y13553D01*
Y13573D01*
X4055Y13593D01*
X4015D01*
X3995Y13573D01*
Y13533D01*
X4015Y13513D01*
X4095Y13633D02*
X4115Y13653D01*
Y13693D01*
X4095Y13713D01*
X4075D01*
X4055Y13693D01*
Y13673D01*
Y13693D01*
X4035Y13713D01*
X4015D01*
X3995Y13693D01*
Y13653D01*
X4015Y13633D01*
X4581Y12983D02*
X4601Y13003D01*
X4641D01*
X4661Y12983D01*
Y12903D01*
X4641Y12883D01*
X4601D01*
X4581Y12903D01*
X4461Y13003D02*
X4541D01*
Y12943D01*
X4501Y12963D01*
X4481D01*
X4461Y12943D01*
Y12903D01*
X4481Y12883D01*
X4521D01*
X4541Y12903D01*
X4421Y12983D02*
X4401Y13003D01*
X4361D01*
X4341Y12983D01*
Y12963D01*
X4361Y12943D01*
X4341Y12923D01*
Y12903D01*
X4361Y12883D01*
X4401D01*
X4421Y12903D01*
Y12923D01*
X4401Y12943D01*
X4421Y12963D01*
Y12983D01*
X4401Y12943D02*
X4361D01*
X3761Y12186D02*
Y12066D01*
X3701D01*
X3681Y12086D01*
Y12166D01*
X3701Y12186D01*
X3761D01*
X3641Y12066D02*
X3601D01*
X3621D01*
Y12186D01*
X3641Y12166D01*
X3761Y11123D02*
X3841D01*
Y11063D01*
X3801D01*
X3841D01*
Y11003D01*
X3721Y11123D02*
Y11003D01*
X3661D01*
X3641Y11023D01*
Y11043D01*
X3661Y11063D01*
X3721D01*
X3661D01*
X3641Y11083D01*
Y11103D01*
X3661Y11123D01*
X3721D01*
X3601Y11003D02*
X3561D01*
X3581D01*
Y11123D01*
X3601Y11103D01*
X8749Y17963D02*
X8869D01*
Y18023D01*
X8849Y18043D01*
X8809D01*
X8789Y18023D01*
Y17963D01*
Y18003D02*
X8749Y18043D01*
X8869Y18083D02*
Y18163D01*
X8849D01*
X8769Y18083D01*
X8749D01*
X1254Y9902D02*
X1274Y9922D01*
X1314D01*
X1334Y9902D01*
Y9822D01*
X1314Y9802D01*
X1274D01*
X1254Y9822D01*
X1134Y9922D02*
X1214D01*
Y9862D01*
X1174Y9882D01*
X1154D01*
X1134Y9862D01*
Y9822D01*
X1154Y9802D01*
X1194D01*
X1214Y9822D01*
X1094D02*
X1074Y9802D01*
X1034D01*
X1014Y9822D01*
Y9902D01*
X1034Y9922D01*
X1074D01*
X1094Y9902D01*
Y9882D01*
X1074Y9862D01*
X1014D01*
X1214Y9517D02*
Y9637D01*
X1154D01*
X1134Y9617D01*
Y9577D01*
X1154Y9557D01*
X1214D01*
X1174D02*
X1134Y9517D01*
X1094Y9537D02*
X1074Y9517D01*
X1034D01*
X1014Y9537D01*
Y9617D01*
X1034Y9637D01*
X1074D01*
X1094Y9617D01*
Y9597D01*
X1074Y9577D01*
X1014D01*
X9271Y11378D02*
X9391D01*
Y11438D01*
X9371Y11458D01*
X9331D01*
X9311Y11438D01*
Y11378D01*
Y11418D02*
X9271Y11458D01*
Y11498D02*
Y11538D01*
Y11518D01*
X9391D01*
X9371Y11498D01*
Y11598D02*
X9391Y11618D01*
Y11658D01*
X9371Y11678D01*
X9291D01*
X9271Y11658D01*
Y11618D01*
X9291Y11598D01*
X9371D01*
X3315Y16889D02*
Y17009D01*
X3255D01*
X3235Y16989D01*
Y16949D01*
X3255Y16929D01*
X3315D01*
X3195Y16909D02*
X3175Y16889D01*
X3135D01*
X3115Y16909D01*
Y16989D01*
X3135Y17009D01*
X3175D01*
X3195Y16989D01*
Y16969D01*
X3175Y16949D01*
X3115D01*
X1552Y8455D02*
X1572Y8475D01*
X1612D01*
X1632Y8455D01*
Y8375D01*
X1612Y8355D01*
X1572D01*
X1552Y8375D01*
X1492Y8355D02*
X1452D01*
X1432Y8375D01*
Y8415D01*
X1452Y8435D01*
X1492D01*
X1512Y8415D01*
Y8375D01*
X1492Y8355D01*
X1392D02*
Y8435D01*
X1332D01*
X1312Y8415D01*
Y8355D01*
X1272D02*
Y8435D01*
X1212D01*
X1192Y8415D01*
Y8355D01*
X1092D02*
X1132D01*
X1152Y8375D01*
Y8415D01*
X1132Y8435D01*
X1092D01*
X1072Y8415D01*
Y8395D01*
X1152D01*
X952Y8435D02*
X1012D01*
X1032Y8415D01*
Y8375D01*
X1012Y8355D01*
X952D01*
X892Y8455D02*
Y8435D01*
X912D01*
X872D01*
X892D01*
Y8375D01*
X872Y8355D01*
X792D02*
X752D01*
X732Y8375D01*
Y8415D01*
X752Y8435D01*
X792D01*
X812Y8415D01*
Y8375D01*
X792Y8355D01*
X692Y8435D02*
Y8355D01*
Y8395D01*
X672Y8415D01*
X652Y8435D01*
X632D01*
X978Y7994D02*
Y8114D01*
X918D01*
X898Y8094D01*
Y8054D01*
X918Y8034D01*
X978D01*
X858Y7994D02*
X818D01*
X838D01*
Y8114D01*
X858Y8094D01*
X1221Y12023D02*
X1261D01*
X1241D01*
Y11923D01*
X1261Y11903D01*
X1281D01*
X1301Y11923D01*
X1101Y12023D02*
X1141Y12003D01*
X1181Y11963D01*
Y11923D01*
X1161Y11903D01*
X1121D01*
X1101Y11923D01*
Y11943D01*
X1121Y11963D01*
X1181D01*
X1045Y3729D02*
Y3849D01*
X985D01*
X965Y3829D01*
Y3789D01*
X985Y3769D01*
X1045D01*
X925Y3829D02*
X905Y3849D01*
X865D01*
X845Y3829D01*
Y3809D01*
X865Y3789D01*
X845Y3769D01*
Y3749D01*
X865Y3729D01*
X905D01*
X925Y3749D01*
Y3769D01*
X905Y3789D01*
X925Y3809D01*
Y3829D01*
X905Y3789D02*
X865D01*
X12831Y17632D02*
Y17712D01*
X12851Y17732D01*
X12891D01*
X12911Y17712D01*
Y17632D01*
X12891Y17612D01*
X12851D01*
X12871Y17652D02*
X12831Y17612D01*
X12851D02*
X12831Y17632D01*
X12790Y17712D02*
X12770Y17732D01*
X12730D01*
X12710Y17712D01*
Y17692D01*
X12730Y17672D01*
X12750D01*
X12730D01*
X12710Y17652D01*
Y17632D01*
X12730Y17612D01*
X12770D01*
X12790Y17632D01*
X13657Y12844D02*
Y12964D01*
X13597D01*
X13577Y12944D01*
Y12904D01*
X13597Y12884D01*
X13657D01*
X13617D02*
X13577Y12844D01*
X13477D02*
Y12964D01*
X13537Y12904D01*
X13457D01*
X13357Y12844D02*
Y12964D01*
X13417Y12904D01*
X13337D01*
X15553Y20143D02*
Y20043D01*
X15533Y20023D01*
X15493D01*
X15473Y20043D01*
Y20143D01*
X15433Y20043D02*
X15413Y20023D01*
X15373D01*
X15353Y20043D01*
Y20123D01*
X15373Y20143D01*
X15413D01*
X15433Y20123D01*
Y20103D01*
X15413Y20083D01*
X15353D01*
X16224Y19336D02*
X16244Y19356D01*
X16284D01*
X16304Y19336D01*
Y19256D01*
X16284Y19236D01*
X16244D01*
X16224Y19256D01*
X16124Y19236D02*
Y19356D01*
X16184Y19296D01*
X16104D01*
X16064Y19236D02*
X16024D01*
X16044D01*
Y19356D01*
X16064Y19336D01*
X15604D02*
X15624Y19356D01*
X15664D01*
X15684Y19336D01*
Y19256D01*
X15664Y19236D01*
X15624D01*
X15604Y19256D01*
X15504Y19236D02*
Y19356D01*
X15564Y19296D01*
X15484D01*
X15444Y19336D02*
X15424Y19356D01*
X15384D01*
X15364Y19336D01*
Y19256D01*
X15384Y19236D01*
X15424D01*
X15444Y19256D01*
Y19336D01*
X11467Y14142D02*
X11487Y14122D01*
Y14082D01*
X11467Y14062D01*
X11447D01*
X11427Y14082D01*
Y14122D01*
X11407Y14142D01*
X11387D01*
X11367Y14122D01*
Y14082D01*
X11387Y14062D01*
X11487Y14182D02*
X11367D01*
Y14242D01*
X11387Y14262D01*
X11407D01*
X11427Y14242D01*
Y14182D01*
Y14242D01*
X11447Y14262D01*
X11467D01*
X11487Y14242D01*
Y14182D01*
X11467Y14302D02*
X11487Y14322D01*
Y14362D01*
X11467Y14382D01*
X11447D01*
X11427Y14362D01*
Y14342D01*
Y14362D01*
X11407Y14382D01*
X11387D01*
X11367Y14362D01*
Y14322D01*
X11387Y14302D01*
X11930Y14418D02*
X11950Y14398D01*
Y14358D01*
X11930Y14338D01*
X11910D01*
X11890Y14358D01*
Y14398D01*
X11870Y14418D01*
X11850D01*
X11830Y14398D01*
Y14358D01*
X11850Y14338D01*
X11950Y14458D02*
X11830D01*
Y14518D01*
X11850Y14538D01*
X11870D01*
X11890Y14518D01*
Y14458D01*
Y14518D01*
X11910Y14538D01*
X11930D01*
X11950Y14518D01*
Y14458D01*
X11830Y14638D02*
X11950D01*
X11890Y14578D01*
Y14658D01*
X6747Y15560D02*
Y15680D01*
X6687D01*
X6667Y15660D01*
Y15620D01*
X6687Y15600D01*
X6747D01*
X6707D02*
X6667Y15560D01*
X6547D02*
X6627D01*
X6547Y15640D01*
Y15660D01*
X6567Y15680D01*
X6607D01*
X6627Y15660D01*
X6427Y15680D02*
X6467Y15660D01*
X6507Y15620D01*
Y15580D01*
X6487Y15560D01*
X6447D01*
X6427Y15580D01*
Y15600D01*
X6447Y15620D01*
X6507D01*
X3696Y12784D02*
Y12905D01*
X3636D01*
X3616Y12885D01*
Y12845D01*
X3636Y12824D01*
X3696D01*
X3656D02*
X3616Y12784D01*
X3576D02*
X3536D01*
X3556D01*
Y12905D01*
X3576Y12885D01*
X3396Y12905D02*
X3436Y12885D01*
X3476Y12845D01*
Y12804D01*
X3456Y12784D01*
X3416D01*
X3396Y12804D01*
Y12824D01*
X3416Y12845D01*
X3476D01*
X3726Y11298D02*
Y11418D01*
X3666D01*
X3646Y11398D01*
Y11358D01*
X3666Y11338D01*
X3726D01*
X3686D02*
X3646Y11298D01*
X3526D02*
X3606D01*
X3526Y11378D01*
Y11398D01*
X3546Y11418D01*
X3586D01*
X3606Y11398D01*
X3486Y11418D02*
X3406D01*
Y11398D01*
X3486Y11318D01*
Y11298D01*
X12076Y17786D02*
X12196D01*
Y17846D01*
X12176Y17866D01*
X12136D01*
X12116Y17846D01*
Y17786D01*
Y17826D02*
X12076Y17866D01*
Y17986D02*
Y17906D01*
X12156Y17986D01*
X12176D01*
X12196Y17966D01*
Y17926D01*
X12176Y17906D01*
Y18026D02*
X12196Y18046D01*
Y18086D01*
X12176Y18106D01*
X12156D01*
X12136Y18086D01*
X12116Y18106D01*
X12096D01*
X12076Y18086D01*
Y18046D01*
X12096Y18026D01*
X12116D01*
X12136Y18046D01*
X12156Y18026D01*
X12176D01*
X12136Y18046D02*
Y18086D01*
X8365Y8524D02*
X8485D01*
Y8584D01*
X8465Y8604D01*
X8425D01*
X8405Y8584D01*
Y8524D01*
Y8564D02*
X8365Y8604D01*
Y8724D02*
Y8644D01*
X8445Y8724D01*
X8465D01*
X8485Y8704D01*
Y8664D01*
X8465Y8644D01*
X8385Y8764D02*
X8365Y8784D01*
Y8824D01*
X8385Y8844D01*
X8465D01*
X8485Y8824D01*
Y8784D01*
X8465Y8764D01*
X8445D01*
X8425Y8784D01*
Y8844D01*
X14384Y13760D02*
X14404Y13781D01*
X14444D01*
X14464Y13760D01*
Y13680D01*
X14444Y13660D01*
X14404D01*
X14384Y13680D01*
X14264Y13781D02*
X14304Y13760D01*
X14344Y13720D01*
Y13680D01*
X14324Y13660D01*
X14284D01*
X14264Y13680D01*
Y13700D01*
X14284Y13720D01*
X14344D01*
X14224Y13760D02*
X14204Y13781D01*
X14164D01*
X14144Y13760D01*
Y13680D01*
X14164Y13660D01*
X14204D01*
X14224Y13680D01*
Y13760D01*
X14461Y14725D02*
Y14625D01*
X14441Y14605D01*
X14401D01*
X14381Y14625D01*
Y14725D01*
X14341Y14605D02*
X14301D01*
X14321D01*
Y14725D01*
X14341Y14705D01*
X14241D02*
X14221Y14725D01*
X14181D01*
X14161Y14705D01*
Y14685D01*
X14181Y14665D01*
X14161Y14645D01*
Y14625D01*
X14181Y14605D01*
X14221D01*
X14241Y14625D01*
Y14645D01*
X14221Y14665D01*
X14241Y14685D01*
Y14705D01*
X14221Y14665D02*
X14181D01*
X9205Y14784D02*
Y14684D01*
X9185Y14664D01*
X9145D01*
X9125Y14684D01*
Y14784D01*
X9085Y14664D02*
X9045D01*
X9065D01*
Y14784D01*
X9085Y14764D01*
X8985Y14684D02*
X8965Y14664D01*
X8925D01*
X8905Y14684D01*
Y14764D01*
X8925Y14784D01*
X8965D01*
X8985Y14764D01*
Y14744D01*
X8965Y14724D01*
X8905D01*
X7420Y17874D02*
X7540D01*
Y17934D01*
X7520Y17954D01*
X7480D01*
X7460Y17934D01*
Y17874D01*
Y17914D02*
X7420Y17954D01*
X7520Y17994D02*
X7540Y18014D01*
Y18054D01*
X7520Y18074D01*
X7500D01*
X7480Y18054D01*
Y18034D01*
Y18054D01*
X7460Y18074D01*
X7440D01*
X7420Y18054D01*
Y18014D01*
X7440Y17994D01*
X7520Y18114D02*
X7540Y18134D01*
Y18174D01*
X7520Y18194D01*
X7440D01*
X7420Y18174D01*
Y18134D01*
X7440Y18114D01*
X7520D01*
X10631Y17297D02*
X10651Y17317D01*
X10691D01*
X10711Y17297D01*
Y17217D01*
X10691Y17197D01*
X10651D01*
X10631Y17217D01*
X10591Y17297D02*
X10571Y17317D01*
X10531D01*
X10511Y17297D01*
Y17277D01*
X10531Y17257D01*
X10551D01*
X10531D01*
X10511Y17237D01*
Y17217D01*
X10531Y17197D01*
X10571D01*
X10591Y17217D01*
X10471Y17297D02*
X10451Y17317D01*
X10411D01*
X10391Y17297D01*
Y17277D01*
X10411Y17257D01*
X10431D01*
X10411D01*
X10391Y17237D01*
Y17217D01*
X10411Y17197D01*
X10451D01*
X10471Y17217D01*
X11821Y17156D02*
Y17276D01*
X11761D01*
X11741Y17256D01*
Y17216D01*
X11761Y17196D01*
X11821D01*
X11781D02*
X11741Y17156D01*
X11701D02*
X11661D01*
X11681D01*
Y17276D01*
X11701Y17256D01*
X11601D02*
X11581Y17276D01*
X11541D01*
X11521Y17256D01*
Y17236D01*
X11541Y17216D01*
X11521Y17196D01*
Y17176D01*
X11541Y17156D01*
X11581D01*
X11601Y17176D01*
Y17196D01*
X11581Y17216D01*
X11601Y17236D01*
Y17256D01*
X11581Y17216D02*
X11541D01*
D252*
X8352Y3348D02*
D03*
X10337D02*
D03*
X10337Y1364D02*
D03*
X9675Y3348D02*
D03*
X9675Y1364D02*
D03*
X7691Y3348D02*
D03*
D253*
X8793Y1199D02*
D03*
D254*
X10006Y1033D02*
D03*
Y3679D02*
D03*
Y1695D02*
D03*
D255*
X10006Y3348D02*
D03*
D256*
X10006Y3017D02*
D03*
D257*
X8022Y3679D02*
D03*
Y3017D02*
D03*
D258*
X8022Y3348D02*
D03*
D259*
X8352Y1695D02*
D03*
D260*
X10006Y1364D02*
D03*
D261*
X11112Y16174D02*
Y16074D01*
X11092Y16054D01*
X11052D01*
X11032Y16074D01*
Y16174D01*
X10992Y16154D02*
X10972Y16174D01*
X10932D01*
X10912Y16154D01*
Y16134D01*
X10932Y16114D01*
X10912Y16094D01*
Y16074D01*
X10932Y16054D01*
X10972D01*
X10992Y16074D01*
Y16094D01*
X10972Y16114D01*
X10992Y16134D01*
Y16154D01*
X10972Y16114D02*
X10932D01*
M02*
