G04*
G04 #@! TF.GenerationSoftware,Altium Limited,Altium Designer,23.6.0 (18)*
G04*
G04 Layer_Color=32896*
%FSLAX24Y24*%
%MOIN*%
G70*
G04*
G04 #@! TF.SameCoordinates,7E18E310-DAB5-435A-A8D0-C5F7F634A292*
G04*
G04*
G04 #@! TF.FilePolarity,Positive*
G04*
G01*
G75*
%ADD11C,0.0079*%
%ADD12C,0.0098*%
%ADD13C,0.0059*%
%ADD14C,0.0060*%
%ADD15C,0.0100*%
%ADD17C,0.0049*%
%ADD148C,0.0060*%
%ADD246C,0.0039*%
%ADD247R,0.0289X0.1150*%
G36*
X20279Y19232D02*
X20281Y19204D01*
X20283Y19177D01*
X20283Y19149D01*
X20283Y19121D01*
X20282Y19094D01*
X20280Y19066D01*
X20277Y19038D01*
X20274Y19011D01*
X20270Y18983D01*
X20265Y18956D01*
X20259Y18929D01*
X20253Y18902D01*
X20246Y18875D01*
X20238Y18849D01*
X20229Y18822D01*
X20220Y18796D01*
X20209Y18770D01*
X20199Y18745D01*
X20187Y18720D01*
X20175Y18695D01*
X20162Y18670D01*
X20148Y18646D01*
X20134Y18622D01*
X20119Y18599D01*
X20104Y18576D01*
X20087Y18553D01*
X20071Y18531D01*
X20053Y18510D01*
X20035Y18489D01*
X20017Y18468D01*
X19997Y18448D01*
X19978Y18428D01*
X19957Y18410D01*
X19937Y18391D01*
X19915Y18373D01*
X19894Y18356D01*
X19871Y18340D01*
X19849Y18324D01*
X19825Y18308D01*
X19802Y18294D01*
X19778Y18280D01*
X19754Y18266D01*
X19729Y18254D01*
X19704Y18242D01*
X19679Y18231D01*
X19653Y18220D01*
X19627Y18210D01*
X19601Y18201D01*
X19574Y18193D01*
X19548Y18185D01*
X19521Y18178D01*
X19494Y18172D01*
X19467Y18167D01*
X19439Y18162D01*
X19412Y18158D01*
X19384Y18155D01*
X19357Y18153D01*
X19329Y18151D01*
X19301Y18151D01*
X19273D01*
X19246Y18151D01*
X19218Y18153D01*
X19190Y18155D01*
X19163Y18158D01*
X19135Y18162D01*
X19108Y18167D01*
X19081Y18172D01*
X19054Y18178D01*
X19027Y18185D01*
X19000Y18193D01*
X18974Y18201D01*
X18948Y18210D01*
X18922Y18220D01*
X18896Y18231D01*
X18871Y18242D01*
X18846Y18254D01*
X18821Y18266D01*
X18797Y18280D01*
X18773Y18294D01*
X18749Y18308D01*
X18726Y18324D01*
X18703Y18340D01*
X18681Y18356D01*
X18659Y18373D01*
X18638Y18391D01*
X18617Y18410D01*
X18597Y18428D01*
X18577Y18448D01*
X18558Y18468D01*
X18540Y18489D01*
X18522Y18510D01*
X18504Y18531D01*
X18487Y18553D01*
X18471Y18576D01*
X18455Y18599D01*
X18441Y18622D01*
X18426Y18646D01*
X18413Y18670D01*
X18400Y18695D01*
X18388Y18720D01*
X18376Y18745D01*
X18365Y18770D01*
X18355Y18796D01*
X18346Y18822D01*
X18337Y18849D01*
X18329Y18875D01*
X18322Y18902D01*
X18315Y18929D01*
X18310Y18956D01*
X18305Y18983D01*
X18301Y19011D01*
X18297Y19038D01*
X18295Y19066D01*
X18293Y19094D01*
X18292Y19121D01*
X18291Y19149D01*
X18292Y19177D01*
X18293Y19204D01*
X18295Y19232D01*
X18297Y19246D01*
X18297D01*
X18297Y19246D01*
Y19246D01*
X18595D01*
X18594Y19235D01*
X18591Y19213D01*
X18590Y19192D01*
X18589Y19170D01*
X18588Y19148D01*
X18588Y19126D01*
X18589Y19104D01*
X18591Y19083D01*
X18593Y19061D01*
X18596Y19039D01*
X18600Y19018D01*
X18604Y18996D01*
X18609Y18975D01*
X18615Y18954D01*
X18621Y18933D01*
X18628Y18913D01*
X18636Y18892D01*
X18644Y18872D01*
X18653Y18852D01*
X18663Y18832D01*
X18673Y18813D01*
X18683Y18794D01*
X18695Y18775D01*
X18707Y18757D01*
X18719Y18739D01*
X18732Y18721D01*
X18746Y18704D01*
X18760Y18688D01*
X18774Y18671D01*
X18789Y18656D01*
X18805Y18640D01*
X18821Y18625D01*
X18837Y18611D01*
X18854Y18597D01*
X18872Y18584D01*
X18889Y18571D01*
X18908Y18559D01*
X18926Y18548D01*
X18945Y18537D01*
X18964Y18526D01*
X18984Y18517D01*
X19003Y18507D01*
X19023Y18499D01*
X19044Y18491D01*
X19064Y18484D01*
X19085Y18477D01*
X19106Y18471D01*
X19127Y18466D01*
X19138Y18463D01*
X19138Y18463D01*
Y19146D01*
X19437D01*
Y18463D01*
X19447Y18466D01*
X19468Y18471D01*
X19489Y18477D01*
X19510Y18484D01*
X19531Y18491D01*
X19551Y18499D01*
X19571Y18507D01*
X19591Y18517D01*
X19611Y18526D01*
X19630Y18537D01*
X19649Y18548D01*
X19667Y18559D01*
X19685Y18571D01*
X19703Y18584D01*
X19720Y18597D01*
X19737Y18611D01*
X19754Y18625D01*
X19770Y18640D01*
X19785Y18656D01*
X19800Y18671D01*
X19815Y18688D01*
X19829Y18704D01*
X19843Y18721D01*
X19856Y18739D01*
X19868Y18757D01*
X19880Y18775D01*
X19891Y18794D01*
X19902Y18813D01*
X19912Y18832D01*
X19921Y18852D01*
X19930Y18872D01*
X19939Y18892D01*
X19946Y18913D01*
X19953Y18933D01*
X19960Y18954D01*
X19965Y18975D01*
X19970Y18996D01*
X19975Y19018D01*
X19978Y19039D01*
X19981Y19061D01*
X19984Y19083D01*
X19985Y19104D01*
X19986Y19126D01*
X19986Y19148D01*
X19986Y19170D01*
X19985Y19192D01*
X19983Y19213D01*
X19981Y19235D01*
X19979Y19246D01*
X19979D01*
X20278Y19246D01*
X20279Y19232D01*
D02*
G37*
G36*
X18297Y17553D02*
X18297D01*
X18297D01*
D01*
D02*
G37*
G36*
X20279Y17539D02*
X20281Y17512D01*
X20283Y17484D01*
X20283Y17456D01*
X20283Y17428D01*
X20282Y17401D01*
X20280Y17373D01*
X20277Y17345D01*
X20274Y17318D01*
X20270Y17291D01*
X20265Y17263D01*
X20259Y17236D01*
X20253Y17209D01*
X20246Y17182D01*
X20238Y17156D01*
X20229Y17129D01*
X20220Y17103D01*
X20209Y17077D01*
X20199Y17052D01*
X20187Y17027D01*
X20175Y17002D01*
X20162Y16977D01*
X20148Y16953D01*
X20134Y16929D01*
X20119Y16906D01*
X20104Y16883D01*
X20087Y16860D01*
X20071Y16838D01*
X20053Y16817D01*
X20035Y16796D01*
X20017Y16775D01*
X19997Y16755D01*
X19978Y16736D01*
X19957Y16717D01*
X19937Y16698D01*
X19915Y16681D01*
X19894Y16663D01*
X19871Y16647D01*
X19849Y16631D01*
X19825Y16616D01*
X19802Y16601D01*
X19778Y16587D01*
X19754Y16574D01*
X19729Y16561D01*
X19704Y16549D01*
X19679Y16538D01*
X19653Y16527D01*
X19627Y16517D01*
X19601Y16508D01*
X19574Y16500D01*
X19548Y16492D01*
X19521Y16485D01*
X19494Y16479D01*
X19467Y16474D01*
X19439Y16469D01*
X19412Y16465D01*
X19384Y16462D01*
X19357Y16460D01*
X19329Y16458D01*
X19301Y16458D01*
X19273D01*
X19246Y16458D01*
X19218Y16460D01*
X19190Y16462D01*
X19163Y16465D01*
X19135Y16469D01*
X19108Y16474D01*
X19081Y16479D01*
X19054Y16485D01*
X19027Y16492D01*
X19000Y16500D01*
X18974Y16508D01*
X18948Y16517D01*
X18922Y16527D01*
X18896Y16538D01*
X18871Y16549D01*
X18846Y16561D01*
X18821Y16574D01*
X18797Y16587D01*
X18773Y16601D01*
X18749Y16616D01*
X18726Y16631D01*
X18703Y16647D01*
X18681Y16663D01*
X18659Y16681D01*
X18638Y16698D01*
X18617Y16717D01*
X18597Y16736D01*
X18577Y16755D01*
X18558Y16775D01*
X18540Y16796D01*
X18522Y16817D01*
X18504Y16838D01*
X18487Y16860D01*
X18471Y16883D01*
X18455Y16906D01*
X18441Y16929D01*
X18426Y16953D01*
X18413Y16977D01*
X18400Y17002D01*
X18388Y17027D01*
X18376Y17052D01*
X18365Y17077D01*
X18355Y17103D01*
X18346Y17129D01*
X18337Y17156D01*
X18329Y17182D01*
X18322Y17209D01*
X18315Y17236D01*
X18310Y17263D01*
X18305Y17291D01*
X18301Y17318D01*
X18297Y17345D01*
X18295Y17373D01*
X18293Y17401D01*
X18292Y17428D01*
X18291Y17456D01*
X18292Y17484D01*
X18293Y17512D01*
X18295Y17539D01*
X18297Y17553D01*
X18595Y17553D01*
X18594Y17542D01*
X18591Y17519D01*
X18589Y17496D01*
X18588Y17473D01*
X18588Y17450D01*
X18589Y17427D01*
X18590Y17404D01*
X18592Y17381D01*
X18595Y17358D01*
X18598Y17335D01*
X18603Y17312D01*
X18608Y17290D01*
X18613Y17268D01*
X18620Y17246D01*
X18627Y17224D01*
X18635Y17202D01*
X18644Y17181D01*
X18653Y17160D01*
X18663Y17139D01*
X18674Y17118D01*
X18685Y17098D01*
X18697Y17079D01*
X18710Y17060D01*
X18723Y17041D01*
X18737Y17022D01*
X18751Y17004D01*
X18767Y16987D01*
X18782Y16970D01*
X18798Y16954D01*
X18815Y16938D01*
X18832Y16923D01*
X18850Y16908D01*
X18868Y16894D01*
X18887Y16880D01*
X18906Y16867D01*
X18926Y16855D01*
X18945Y16844D01*
X18966Y16833D01*
X18986Y16822D01*
X19007Y16813D01*
X19029Y16804D01*
X19050Y16796D01*
X19072Y16788D01*
X19094Y16782D01*
X19116Y16776D01*
X19139Y16770D01*
X19161Y16766D01*
X19184Y16762D01*
X19207Y16759D01*
X19230Y16757D01*
X19253Y16755D01*
X19276Y16754D01*
X19299D01*
X19322Y16755D01*
X19345Y16757D01*
X19368Y16759D01*
X19391Y16762D01*
X19413Y16766D01*
X19436Y16770D01*
X19458Y16776D01*
X19481Y16782D01*
X19503Y16788D01*
X19524Y16796D01*
X19546Y16804D01*
X19567Y16813D01*
X19588Y16822D01*
X19609Y16833D01*
X19629Y16844D01*
X19649Y16855D01*
X19669Y16867D01*
X19688Y16880D01*
X19706Y16894D01*
X19725Y16908D01*
X19742Y16923D01*
X19760Y16938D01*
X19776Y16954D01*
X19792Y16970D01*
X19808Y16987D01*
X19823Y17004D01*
X19838Y17022D01*
X19852Y17041D01*
X19865Y17060D01*
X19878Y17079D01*
X19890Y17098D01*
X19901Y17118D01*
X19912Y17139D01*
X19922Y17160D01*
X19931Y17181D01*
X19940Y17202D01*
X19948Y17224D01*
X19955Y17246D01*
X19961Y17268D01*
X19967Y17290D01*
X19972Y17312D01*
X19976Y17335D01*
X19980Y17358D01*
X19983Y17381D01*
X19985Y17404D01*
X19986Y17427D01*
X19986Y17450D01*
X19986Y17473D01*
X19985Y17496D01*
X19983Y17519D01*
X19981Y17542D01*
X19979Y17553D01*
X19979Y17553D01*
X20278D01*
X20279Y17539D01*
D02*
G37*
G36*
X18898Y15796D02*
X18929Y15790D01*
X18959Y15781D01*
X18987Y15769D01*
X19015Y15755D01*
X19041Y15737D01*
X19065Y15718D01*
X19087Y15696D01*
X19106Y15672D01*
X19124Y15646D01*
X19138Y15618D01*
X19150Y15590D01*
X19159Y15560D01*
X19165Y15529D01*
X19168Y15498D01*
Y15483D01*
Y15483D01*
Y15209D01*
Y15194D01*
X19165Y15163D01*
X19159Y15133D01*
X19150Y15104D01*
X19139Y15075D01*
X19124Y15048D01*
X19107Y15023D01*
X19088Y14999D01*
X19066Y14977D01*
X19042Y14958D01*
X19017Y14941D01*
X18990Y14926D01*
X18961Y14915D01*
X18932Y14906D01*
X18902Y14900D01*
X18871Y14897D01*
X18856D01*
X18266Y14897D01*
X18266Y15102D01*
X18471Y15102D01*
Y15594D01*
X18676D01*
Y15594D01*
X18471D01*
Y15594D01*
X18266Y15594D01*
Y15799D01*
X18852Y15799D01*
X18867D01*
X18898Y15796D01*
D02*
G37*
G36*
X20235Y15536D02*
X19893Y15102D01*
X20235Y15102D01*
X20235Y14897D01*
X19332D01*
X19332Y15102D01*
X19676Y15102D01*
X19332Y15536D01*
Y15800D01*
X19785Y15229D01*
X20235Y15801D01*
X20235Y15536D01*
D02*
G37*
G36*
X19168Y14149D02*
Y14134D01*
X19165Y14102D01*
X19159Y14072D01*
X19150Y14042D01*
X19138Y14013D01*
X19123Y13985D01*
X19106Y13959D01*
X19086Y13935D01*
X19064Y13913D01*
X19039Y13893D01*
X19013Y13875D01*
X18986Y13860D01*
X18957Y13848D01*
X18927Y13839D01*
X18896Y13833D01*
X18865Y13830D01*
X18849D01*
X18849Y13830D01*
X18578Y13830D01*
X18562D01*
X18532Y13833D01*
X18502Y13839D01*
X18472Y13848D01*
X18444Y13860D01*
X18417Y13874D01*
X18392Y13891D01*
X18368Y13911D01*
X18346Y13932D01*
X18327Y13956D01*
X18310Y13982D01*
X18295Y14009D01*
X18284Y14037D01*
X18275Y14066D01*
X18269Y14096D01*
X18266Y14127D01*
Y14142D01*
Y14142D01*
Y14733D01*
X18471D01*
Y14149D01*
X18471Y14142D01*
X18473Y14127D01*
X18477Y14113D01*
X18483Y14099D01*
X18490Y14086D01*
X18499Y14074D01*
X18510Y14064D01*
X18521Y14054D01*
X18534Y14047D01*
X18548Y14041D01*
X18563Y14037D01*
X18577Y14036D01*
X18585Y14035D01*
Y14035D01*
X18853Y14035D01*
X18861Y14036D01*
X18875Y14037D01*
X18889Y14041D01*
X18902Y14047D01*
X18914Y14054D01*
X18926Y14063D01*
X18936Y14073D01*
X18945Y14084D01*
X18952Y14096D01*
X18957Y14110D01*
X18961Y14124D01*
X18963Y14138D01*
X18963Y14145D01*
X18963D01*
X18963Y14733D01*
X19168D01*
X19168Y14149D01*
D02*
G37*
G36*
X20235Y14528D02*
X19647D01*
X19640Y14527D01*
X19626Y14525D01*
X19612Y14522D01*
X19599Y14516D01*
X19586Y14509D01*
X19575Y14500D01*
X19565Y14490D01*
X19556Y14479D01*
X19549Y14466D01*
X19543Y14453D01*
X19539Y14439D01*
X19538Y14425D01*
X19537Y14418D01*
X19537Y14148D01*
X19537Y14148D01*
X19538Y14141D01*
X19540Y14126D01*
X19543Y14112D01*
X19549Y14098D01*
X19556Y14085D01*
X19565Y14074D01*
X19576Y14063D01*
X19588Y14054D01*
X19600Y14047D01*
X19614Y14041D01*
X19628Y14037D01*
X19643Y14036D01*
X19650Y14035D01*
X20235D01*
Y13830D01*
X19644Y13830D01*
X19629D01*
X19599Y13833D01*
X19568Y13839D01*
X19539Y13848D01*
X19511Y13860D01*
X19484Y13874D01*
X19458Y13891D01*
X19435Y13911D01*
X19413Y13932D01*
X19393Y13956D01*
X19376Y13982D01*
X19362Y14009D01*
X19350Y14037D01*
X19341Y14066D01*
X19335Y14096D01*
X19332Y14127D01*
Y14142D01*
X19332Y14416D01*
Y14432D01*
X19335Y14463D01*
X19341Y14493D01*
X19350Y14523D01*
X19362Y14552D01*
X19377Y14579D01*
X19394Y14605D01*
X19414Y14629D01*
X19436Y14651D01*
X19460Y14671D01*
X19486Y14688D01*
X19513Y14703D01*
X19542Y14715D01*
X19572Y14724D01*
X19602Y14730D01*
X19633Y14733D01*
X20235D01*
Y14528D01*
D02*
G37*
G36*
X9144Y10935D02*
X8415D01*
Y11270D01*
X8494D01*
Y11161D01*
X9065D01*
Y11270D01*
X9144D01*
Y10935D01*
D02*
G37*
%LPC*%
G36*
X18676Y15594D02*
Y15102D01*
X18849D01*
X18857Y15102D01*
X18871Y15104D01*
X18886Y15108D01*
X18900Y15114D01*
X18912Y15121D01*
X18924Y15130D01*
X18935Y15141D01*
X18944Y15153D01*
X18951Y15165D01*
X18957Y15179D01*
X18961Y15194D01*
X18963Y15208D01*
X18963Y15216D01*
X18963Y15216D01*
X18963Y15484D01*
X18963Y15492D01*
X18961Y15506D01*
X18957Y15520D01*
X18952Y15533D01*
X18945Y15545D01*
X18936Y15557D01*
X18926Y15567D01*
X18914Y15576D01*
X18902Y15583D01*
X18889Y15588D01*
X18875Y15592D01*
X18861Y15594D01*
X18853Y15594D01*
X18853D01*
X18676Y15594D01*
D02*
G37*
%LPD*%
D11*
X12366Y16264D02*
X12494D01*
X13057D02*
X13185D01*
X12366Y17201D02*
X12494D01*
X13057D02*
X13185D01*
X8425Y14961D02*
X8504D01*
X8425Y15197D02*
X8504D01*
X7224Y16594D02*
X7303Y16594D01*
X7224Y16831D02*
X7303Y16831D01*
X9331Y16654D02*
X9409Y16654D01*
X9331Y16417D02*
X9409Y16417D01*
X9035Y15492D02*
X9114D01*
X9035Y15728D02*
X9114D01*
X8484Y15965D02*
X8563D01*
X8484Y16201D02*
X8563D01*
X7224Y17047D02*
X7303Y17047D01*
X7224Y17283D02*
X7303Y17283D01*
X7224Y16142D02*
X7303D01*
X7224Y16378D02*
X7303Y16378D01*
X4173Y13514D02*
Y13593D01*
X3937Y13514D02*
Y13593D01*
X4272Y11850D02*
Y12402D01*
X3091Y11850D02*
Y12402D01*
X295Y7303D02*
Y8799D01*
X1969Y6870D02*
Y7185D01*
X1032Y6870D02*
X1969D01*
Y8917D02*
Y9232D01*
X1032D02*
X1969D01*
X12366Y17228D02*
X12494D01*
X13057D02*
X13185D01*
X12366Y18165D02*
X12494D01*
X13057D02*
X13185D01*
X13917Y15039D02*
Y15217D01*
X14705Y15039D02*
X14705Y15217D01*
X14705Y14291D02*
X14705Y14114D01*
X13917D02*
Y14291D01*
Y14114D02*
X13967D01*
X13917Y15217D02*
X13967D01*
X14656D02*
X14705D01*
X14656Y14114D02*
X14705D01*
D12*
X12002Y16738D02*
G03*
X12002Y16738I-49J0D01*
G01*
X4439Y11722D02*
G03*
X4439Y11722I-49J0D01*
G01*
X16171Y20782D02*
G03*
X16171Y20782I-20J0D01*
G01*
X13780Y14154D02*
G03*
X13780Y14154I-20J0D01*
G01*
D13*
X12111Y13258D02*
G03*
X12111Y13258I-300J0D01*
G01*
X10536D02*
G03*
X10536Y13258I-300J0D01*
G01*
X11324D02*
G03*
X11324Y13258I-300J0D01*
G01*
X7941Y16465D02*
G03*
X7941Y16465I-20J0D01*
G01*
X5738Y14695D02*
G03*
X5738Y14695I-20J0D01*
G01*
X15354Y19847D02*
G03*
X15354Y19847I-138J0D01*
G01*
X15955Y20359D02*
G03*
X15955Y20359I-30J0D01*
G01*
X11382Y15488D02*
X11697D01*
Y15567D01*
X10339Y15488D02*
X10654D01*
X10339D02*
Y15567D01*
Y16689D02*
Y16768D01*
X10654D01*
X11382D02*
X11697D01*
Y16689D02*
Y16768D01*
X5413Y6211D02*
X5659D01*
X5246Y6083D02*
X5413D01*
X5413Y6211D02*
X5413Y6083D01*
X4035D02*
X4035Y6211D01*
X4035Y6083D02*
X4203D01*
X3789Y6211D02*
X4035D01*
X3789Y5886D02*
Y6211D01*
X5659Y5886D02*
Y6211D01*
X3848Y4636D02*
X5610D01*
X5531Y18241D02*
X6516D01*
X7256Y18527D02*
Y19983D01*
X5531Y20269D02*
X6516D01*
X5531Y18241D02*
Y18665D01*
Y19846D02*
Y20269D01*
X8415Y10108D02*
Y11270D01*
X9144Y10108D02*
Y11270D01*
X9094D02*
X9144D01*
X8415D02*
X8465D01*
X8415Y10108D02*
X8465D01*
X9094D02*
X9144D01*
X4744Y14783D02*
Y19114D01*
X1673D02*
X4744D01*
X1673Y14783D02*
X4744D01*
X1673D02*
Y19114D01*
X16073Y19463D02*
X16073Y20703D01*
X14833D02*
X16073D01*
X14833D02*
X14833Y19463D01*
X16073D01*
D14*
X8927Y14882D02*
Y15276D01*
X8002Y14882D02*
Y15276D01*
Y14882D02*
X8366D01*
X8563D02*
X8927D01*
X8002Y15276D02*
X8366D01*
X8563D02*
X8927D01*
X7726Y16516D02*
X7726Y16909D01*
X6801D02*
X6801Y16516D01*
X7165Y16516D01*
X7362D02*
X7726D01*
X6801Y16909D02*
X7165Y16909D01*
X7362D02*
X7726Y16909D01*
X9469Y16732D02*
X9833D01*
X8907D02*
X9272D01*
X9469Y16339D02*
X9833D01*
X8907Y16339D02*
X9272Y16339D01*
X8907Y16732D02*
X8907Y16339D01*
X9833Y16339D02*
X9833Y16732D01*
X8612Y15413D02*
X8976D01*
X9173D02*
X9537D01*
X8612Y15807D02*
X8976D01*
X9173D02*
X9537D01*
X8612Y15413D02*
Y15807D01*
X9537Y15413D02*
Y15807D01*
X8061Y15886D02*
X8425D01*
X8622D02*
X8986Y15886D01*
X8061Y16280D02*
X8425D01*
X8622D02*
X8986D01*
Y15886D02*
Y16280D01*
X8061Y15886D02*
Y16280D01*
X7726Y16969D02*
X7726Y17362D01*
X6801D02*
X6801Y16969D01*
X7165D01*
X7362D02*
X7726D01*
X6801Y17362D02*
X7165D01*
X7362D02*
X7726D01*
X7726Y16063D02*
Y16457D01*
X6801Y16063D02*
X6801Y16457D01*
X6801Y16063D02*
X7165D01*
X7362D02*
X7726Y16063D01*
X6801Y16457D02*
X7165D01*
X7362D02*
X7726D01*
X6447Y14705D02*
X6722D01*
X6447D02*
Y14961D01*
X6722Y14705D02*
Y14961D01*
X6447Y15157D02*
Y15413D01*
X6722D01*
X6722Y15157D01*
X5679Y14911D02*
Y15187D01*
X5423Y14911D02*
X5679D01*
X5423Y15187D02*
X5679D01*
X4970Y14911D02*
X5226D01*
X4970D02*
Y15187D01*
X5226Y15187D01*
X4252Y13091D02*
Y13455D01*
Y13652D02*
Y14016D01*
X3858Y13091D02*
Y13455D01*
Y13652D02*
Y14016D01*
X4252D01*
X3858Y13091D02*
X4252D01*
X4055Y10925D02*
Y11201D01*
X3346Y10925D02*
Y11201D01*
Y10925D02*
X3602D01*
X3799D02*
X4055D01*
X3346Y11201D02*
X3602D01*
X3799D02*
X4055D01*
X8877Y14646D02*
X9233D01*
X8877Y14291D02*
Y14646D01*
Y14291D02*
X9233D01*
Y14646D01*
X10650Y17394D02*
X10905D01*
X10197D02*
X10453D01*
X10650Y17119D02*
X10905D01*
X10197D02*
X10453D01*
X10197D02*
Y17394D01*
X10905Y17119D02*
Y17394D01*
X1866Y2350D02*
Y2484D01*
Y2417D01*
X2266D01*
X2199Y2350D01*
D15*
X9345Y14739D02*
G03*
X9345Y14739I-20J0D01*
G01*
X9596Y7510D02*
Y11053D01*
X13140Y7510D02*
Y11053D01*
X12156D02*
X13140D01*
X12156Y7510D02*
X13140D01*
X9596D02*
X10581D01*
X9596Y11053D02*
X10581D01*
X445Y5047D02*
X1429D01*
Y2551D02*
Y5047D01*
X445Y2551D02*
X1429D01*
X445D02*
Y5047D01*
D17*
X10680Y18552D02*
G03*
X10680Y18552I-24J0D01*
G01*
X13597Y14301D02*
G03*
X13597Y14301I-24J0D01*
G01*
X17490Y17777D02*
G03*
X17491Y17778I-51J41D01*
G01*
X17489Y17775D02*
G03*
X17490Y17777I-50J42D01*
G01*
X16589Y18234D02*
G03*
X16589Y18234I-94J0D01*
G01*
X17488Y18378D02*
G03*
X17488Y18378I-52J0D01*
G01*
X16524Y18234D02*
G03*
X16524Y18234I-30J0D01*
G01*
X13687Y17073D02*
Y17247D01*
X13301Y17073D02*
Y17247D01*
Y17073D02*
X13425D01*
X13563D02*
X13687D01*
X13301Y17247D02*
X13425D01*
X13563D02*
X13687D01*
Y16390D02*
Y16563D01*
X13301Y16390D02*
Y16563D01*
Y16390D02*
X13425D01*
X13563D02*
X13687D01*
X13301Y16563D02*
X13425D01*
X13563D02*
X13687D01*
X13687Y18024D02*
Y18197D01*
X13301Y18024D02*
Y18197D01*
Y18024D02*
X13425D01*
X13563D02*
X13687D01*
X13301Y18197D02*
X13425D01*
X13563D02*
X13687D01*
X4661Y6646D02*
Y6819D01*
X4276Y6646D02*
Y6819D01*
Y6646D02*
X4400D01*
X4537D02*
X4661D01*
X4276Y6819D02*
X4400D01*
X4537D02*
X4661D01*
X5131Y6646D02*
Y6819D01*
X4746Y6646D02*
Y6819D01*
Y6646D02*
X4870D01*
X5007D02*
X5131D01*
X4746Y6819D02*
X4870D01*
X5007D02*
X5131D01*
X12620Y15624D02*
X12793D01*
X12620Y16010D02*
X12793D01*
X12620Y15886D02*
Y16010D01*
Y15624D02*
Y15748D01*
X12793Y15886D02*
Y16010D01*
Y15624D02*
Y15748D01*
X12187Y14699D02*
X12360D01*
X12187Y15085D02*
X12360D01*
X12187Y14961D02*
Y15085D01*
Y14699D02*
Y14823D01*
X12360Y14961D02*
Y15085D01*
Y14699D02*
Y14823D01*
X10047Y12406D02*
Y12530D01*
Y12667D02*
Y12791D01*
X9874Y12406D02*
Y12530D01*
Y12667D02*
Y12791D01*
X10047D01*
X9874Y12406D02*
X10047D01*
X9598Y12406D02*
X9772D01*
X9598Y12791D02*
X9772D01*
X9598Y12667D02*
Y12791D01*
Y12406D02*
Y12530D01*
X9772Y12667D02*
Y12791D01*
Y12406D02*
Y12530D01*
X10892Y16892D02*
Y17065D01*
X10506Y16892D02*
Y17065D01*
Y16892D02*
X10630D01*
X10768D02*
X10892D01*
X10506Y17065D02*
X10630D01*
X10768D02*
X10892D01*
X11531Y16892D02*
Y17065D01*
X11146Y16892D02*
Y17065D01*
Y16892D02*
X11270D01*
X11407D02*
X11531D01*
X11146Y17065D02*
X11270D01*
X11407D02*
X11531D01*
X8565Y8154D02*
X8738D01*
X8565Y8539D02*
X8738D01*
X8565Y8415D02*
Y8539D01*
Y8154D02*
Y8278D01*
X8738Y8415D02*
Y8539D01*
Y8154D02*
Y8278D01*
X13228Y13502D02*
X13352D01*
X12967D02*
X13091D01*
X13228Y13329D02*
X13352D01*
X12967D02*
X13091D01*
X12967D02*
Y13502D01*
X13352Y13329D02*
Y13502D01*
Y13073D02*
Y13246D01*
X12967Y13073D02*
Y13246D01*
Y13073D02*
X13091D01*
X13228D02*
X13352D01*
X12967Y13246D02*
X13091D01*
X13228D02*
X13352D01*
X2488Y19689D02*
Y19813D01*
Y20075D02*
X2488Y19951D01*
X2315Y19689D02*
Y19813D01*
Y19951D02*
Y20075D01*
X2488D01*
X2315Y19689D02*
X2488D01*
X1488Y20075D02*
X1488Y19951D01*
X1488Y19689D02*
X1488Y19813D01*
X1661Y20075D02*
X1661Y19951D01*
X1661Y19689D02*
Y19813D01*
X1488Y19689D02*
X1661Y19689D01*
X1488Y20075D02*
X1661Y20075D01*
X8122Y17504D02*
X8295Y17504D01*
X8122Y17890D02*
X8295D01*
X8122Y17766D02*
X8122Y17890D01*
Y17504D02*
Y17628D01*
X8295Y17766D02*
X8295Y17890D01*
Y17504D02*
Y17628D01*
X5792Y14951D02*
Y15030D01*
X5817Y15212D02*
X6211D01*
X5817Y14769D02*
X6211D01*
X6235Y14951D02*
X6235Y15030D01*
X11319Y17754D02*
X11443D01*
X11057D02*
X11181D01*
X11319Y17581D02*
X11443D01*
X11057D02*
X11181D01*
X11057D02*
X11057Y17754D01*
X11443Y17581D02*
Y17754D01*
X10742Y18585D02*
X10866Y18585D01*
X11004D02*
X11128Y18585D01*
X10742Y18758D02*
X10866Y18758D01*
X11004D02*
X11128Y18758D01*
Y18585D02*
Y18758D01*
X10742D02*
X10742Y18585D01*
X10731Y18476D02*
X11395Y18476D01*
Y17813D02*
X11395Y18476D01*
X10731Y17813D02*
X11395D01*
X10731D02*
X10731Y18476D01*
X3132Y10984D02*
Y11108D01*
Y10722D02*
Y10846D01*
X3305Y10984D02*
Y11108D01*
Y10722D02*
Y10846D01*
X3132Y10722D02*
X3305D01*
X3132Y11108D02*
X3305D01*
X4116Y10984D02*
Y11108D01*
Y10722D02*
Y10846D01*
X4289Y10984D02*
Y11108D01*
Y10722D02*
Y10846D01*
X4116Y10722D02*
X4289D01*
X4116Y11108D02*
X4289D01*
X3970Y12856D02*
X4094D01*
X4232D02*
X4356D01*
X3970Y13030D02*
X4094D01*
X4232D02*
X4356D01*
Y12856D02*
Y13030D01*
X3970Y12856D02*
Y13030D01*
X8896Y17593D02*
Y17717D01*
Y17854D02*
Y17978D01*
X8722Y17593D02*
Y17717D01*
Y17854D02*
Y17978D01*
X8896D01*
X8722Y17593D02*
X8896D01*
X906Y9949D02*
X1030D01*
X644D02*
X768D01*
X906Y9776D02*
X1030D01*
X644D02*
X768D01*
X644D02*
Y9949D01*
X1030Y9776D02*
Y9949D01*
X1030Y9490D02*
Y9663D01*
X644Y9490D02*
Y9663D01*
Y9490D02*
X768D01*
X906D02*
X1030D01*
X644Y9663D02*
X768D01*
X906D02*
X1030D01*
X9244Y11270D02*
Y11394D01*
Y11008D02*
Y11132D01*
X9417Y11270D02*
Y11394D01*
Y11008D02*
Y11132D01*
X9244Y11008D02*
X9417D01*
X9244Y11394D02*
X9417D01*
X13352Y12817D02*
Y12990D01*
X12967Y12817D02*
Y12990D01*
Y12817D02*
X13091D01*
X13228D02*
X13352D01*
X12967Y12990D02*
X13091D01*
X13228D02*
X13352D01*
X15915Y19382D02*
X16039D01*
X15654D02*
X15778D01*
X15915Y19209D02*
X16039D01*
X15654D02*
X15778D01*
X15654D02*
Y19382D01*
X16039Y19209D02*
Y19382D01*
X15256D02*
X15380D01*
X14994D02*
X15118D01*
X15256Y19209D02*
X15380Y19209D01*
X14994Y19209D02*
X15118D01*
X14994D02*
Y19382D01*
X15380Y19209D02*
Y19382D01*
X6319Y15707D02*
X6443D01*
X6057D02*
X6181D01*
X6319Y15533D02*
X6443D01*
X6057D02*
X6181D01*
X6057D02*
Y15707D01*
X6443Y15533D02*
Y15707D01*
X3026Y12758D02*
X3150Y12758D01*
X3287Y12758D02*
X3411Y12758D01*
X3026Y12931D02*
X3150D01*
X3287D02*
X3411D01*
Y12758D02*
Y12931D01*
X3026D02*
X3026Y12758D01*
X3035Y11272D02*
X3159D01*
X3297Y11272D02*
X3421Y11272D01*
X3035Y11445D02*
X3159D01*
X3297D02*
X3421Y11445D01*
X3421Y11272D02*
X3421Y11445D01*
X3035Y11445D02*
X3035Y11272D01*
X12049Y17677D02*
Y17801D01*
Y17415D02*
Y17539D01*
X12222Y17677D02*
Y17801D01*
Y17415D02*
Y17539D01*
X12049Y17415D02*
X12222D01*
X12049Y17801D02*
X12222D01*
X8512Y8154D02*
Y8278D01*
Y8415D02*
Y8539D01*
X8339Y8154D02*
Y8278D01*
Y8415D02*
Y8539D01*
X8512D01*
X8339Y8154D02*
X8512D01*
X13774Y13634D02*
X13898D01*
X14035D02*
X14159D01*
X13774Y13807D02*
X13898D01*
X14035D02*
X14159D01*
Y13634D02*
Y13807D01*
X13774Y13634D02*
Y13807D01*
X7394Y17504D02*
X7567D01*
X7394Y17890D02*
X7567D01*
X7394Y17766D02*
Y17890D01*
Y17504D02*
Y17628D01*
X7567Y17766D02*
Y17890D01*
Y17504D02*
Y17628D01*
X11146Y17128D02*
X11270D01*
X11407D02*
X11531D01*
X11146Y17301D02*
X11270D01*
X11407D02*
X11531D01*
Y17128D02*
Y17301D01*
X11146Y17128D02*
Y17301D01*
X16160Y17462D02*
Y18611D01*
X15999D02*
X16288D01*
X15871Y17462D02*
Y18611D01*
Y17462D02*
X16160Y17462D01*
X17399Y18344D02*
X17399D01*
X17399Y18344D01*
X17399D01*
X17399D01*
X17399Y18344D01*
X17399Y18344D01*
X17399D01*
X17399D01*
X17399D01*
X17399D01*
X17399Y18344D01*
X17399Y18344D01*
X17399D01*
X17399Y18344D01*
X17399D01*
X17399D01*
X17399D01*
X17399D01*
Y18344D02*
Y18344D01*
Y18344D02*
X17399D01*
X17399D01*
X17399D01*
X17399D01*
X17399D01*
X17399D01*
X17399D01*
X17399Y18344D01*
X17399D01*
X17399D01*
X17399D01*
X17399Y18344D01*
X17399Y18344D01*
X17399D01*
X17399Y18344D01*
X17400D01*
X17400D01*
X17400D01*
X17400Y18344D01*
X17400Y18344D01*
X17400D01*
X17400Y18344D01*
X17400D01*
X17400D01*
X17400D01*
X17400D01*
X17400D01*
X17400Y18344D01*
X17400D01*
X17400D01*
X17400D01*
X17400D01*
X17400Y18344D01*
X17400D01*
X17400D01*
X17400Y18344D01*
X17400D01*
X17400D01*
X17400Y18344D01*
X17400D01*
X17400Y18344D01*
X17400Y18344D01*
X17400Y18344D01*
X17400D01*
X17401Y18344D01*
X17401D01*
X17401Y18344D01*
X17401D01*
X17401Y18343D01*
X17401D01*
X17401Y18343D01*
X17401D01*
X17401Y18343D01*
X17401Y18343D01*
X17401Y18343D01*
X17401Y18343D01*
X17401D01*
X17401Y18343D01*
X17401Y18343D01*
X17401D01*
X17402Y18343D01*
X17402Y18343D01*
X17402D01*
X17402Y18343D01*
X17402Y18343D01*
X17402Y18343D01*
X17402D01*
X17402Y18343D01*
X17402Y18343D01*
X17402Y18343D01*
X17402Y18343D01*
X17403Y18343D01*
X17403Y18343D01*
X17403Y18343D01*
X17403Y18343D01*
X17403Y18343D01*
X17403Y18343D01*
X17403Y18343D01*
X17404Y18343D01*
X17404Y18343D01*
X17404Y18343D01*
X17404Y18343D01*
X17404Y18343D01*
X17404Y18343D01*
X17404Y18343D01*
X17405Y18343D01*
X17405Y18343D01*
X17405Y18343D01*
X17405Y18343D01*
X17405Y18343D01*
X17405Y18342D01*
X17406Y18342D01*
X17406Y18342D01*
X17406Y18342D01*
X17406Y18342D01*
X17407Y18342D01*
X17407Y18342D01*
X17407Y18342D01*
X17407Y18342D01*
X17408Y18342D01*
X17408Y18342D01*
X17408Y18342D01*
X17408Y18342D01*
X17409Y18342D01*
X17409Y18342D01*
X17409Y18341D01*
X17410Y18341D01*
X17410Y18341D01*
X17410Y18341D01*
X17411Y18341D01*
X17411Y18341D01*
X17411Y18341D01*
X17412Y18341D01*
X17412Y18341D01*
X17413Y18340D01*
X17413Y18340D01*
X17413Y18340D01*
X17414Y18340D01*
X17414Y18340D01*
X17415Y18340D01*
X17415Y18339D01*
X17416Y18339D01*
X17416Y18339D01*
X17417Y18339D01*
X17418Y18339D01*
X17418Y18338D01*
X17419Y18338D01*
X17419Y18338D01*
X17420Y18338D01*
X17421Y18337D01*
X17421Y18337D01*
X17422Y18337D01*
X17423Y18336D01*
X17424Y18336D01*
X17424Y18336D01*
X17425Y18335D01*
X17426Y18335D01*
X17427Y18335D01*
X17428Y18334D01*
X17428Y18334D01*
X17429Y18333D01*
X17430Y18333D01*
X17431Y18332D01*
X17432Y18332D01*
X17433Y18331D01*
X17434Y18331D01*
X17435Y18330D01*
X17436Y18330D01*
X17437Y18329D01*
X17438Y18328D01*
X17439Y18328D01*
X17440Y18327D01*
X17442Y18327D01*
X17443Y18326D01*
X17444Y18325D01*
X17445Y18324D01*
X17446Y18323D01*
X17448Y18323D01*
X17449Y18322D01*
X17450Y18321D01*
X17451Y18320D01*
X17452Y18319D01*
X17454Y18318D01*
X17455Y18317D01*
X17456Y18316D01*
X17457Y18315D01*
X17458Y18315D01*
X17460Y18314D01*
X17461Y18313D01*
X17462Y18312D01*
X17463Y18311D01*
X17464Y18310D01*
X17466Y18309D01*
X17467Y18308D01*
X17468Y18306D01*
X17469Y18305D01*
X17470Y18304D01*
X17472Y18303D01*
X17473Y18302D01*
X17474Y18301D01*
X17475Y18299D01*
X17476Y18298D01*
X17478Y18297D01*
X17479Y18296D01*
X17480Y18295D01*
X17481Y18294D01*
X17482Y18292D01*
X17483Y18291D01*
X17484Y18290D01*
X17485Y18289D01*
X17487Y18287D01*
X17488Y18286D01*
X17489Y18285D01*
X17489Y18284D01*
X17489Y18284D01*
X17490Y18284D01*
X17490Y18283D01*
X17490Y18283D01*
X17490Y18283D01*
X17490Y18283D01*
X17491Y18282D01*
X17491Y18282D01*
X17491Y18282D01*
X17491Y18282D01*
X17491Y18281D01*
X17492Y18281D01*
X17492Y18281D01*
X17492Y18281D01*
X17492Y18280D01*
X17492Y18280D01*
X17493Y18280D01*
X17493Y18280D01*
X17493Y18279D01*
X17493Y18279D01*
X17493Y18279D01*
X17494Y18278D01*
X17494Y18278D01*
X17494Y18278D01*
X17494Y18278D01*
X17494Y18277D01*
X17494Y18277D01*
X17495Y18277D01*
X17495Y18276D01*
X17495Y18276D01*
X17495Y18276D01*
X17495Y18276D01*
X17496Y18275D01*
X17496Y18275D01*
X17496Y18275D01*
X17496Y18274D01*
X17496Y18274D01*
X17496Y18274D01*
X17497Y18273D01*
X17497Y18273D01*
X17497Y18273D01*
X17497Y18273D01*
X17497Y18272D01*
X17498Y18272D01*
X17498Y18272D01*
X17498Y18271D01*
X17498Y18271D01*
X17498Y18271D01*
X17498Y18270D01*
X17499Y18270D01*
X17499Y18270D01*
X17499Y18269D01*
X17499Y18269D01*
X17499Y18269D01*
X17499Y18268D01*
X17500Y18268D01*
X17500Y18268D01*
X17500Y18267D01*
X17500Y18267D01*
X17500Y18267D01*
X17500Y18266D01*
X17501Y18266D01*
X17501Y18266D01*
X17501Y18265D01*
X17501Y18265D01*
X17501Y18265D01*
X17501Y18264D01*
X17502Y18264D01*
X17502Y18264D01*
X17502Y18263D01*
X17502Y18263D01*
X17502Y18262D01*
X17502Y18262D01*
X17503Y18262D01*
X17503Y18261D01*
X17503Y18261D01*
X17503Y18261D01*
X17503Y18260D01*
X17503Y18260D01*
X17504Y18260D01*
X17504Y18259D01*
X17504Y18259D01*
X17504Y18258D01*
X17504Y18258D01*
X17504Y18258D01*
X17504Y18257D01*
X17505Y18257D01*
X17505Y18257D01*
X17505Y18256D01*
X17505Y18256D01*
X17505Y18255D01*
X17505Y18255D01*
X17506Y18255D01*
X17506Y18254D01*
X17506Y18254D01*
X17506Y18253D01*
X17506Y18253D01*
X17506Y18253D01*
X17506Y18252D01*
X17507Y18252D01*
X17507Y18252D01*
X17507Y18251D01*
X17507Y18251D01*
X17507Y18250D01*
X17507Y18250D01*
X17507Y18249D01*
X17508Y18249D01*
X17508Y18249D01*
X17508Y18248D01*
X17508Y18247D01*
X17508Y18247D01*
X17509Y18246D01*
X17509Y18246D01*
X17509Y18245D01*
X17509Y18245D01*
X17509Y18244D01*
X17509Y18244D01*
X17510Y18243D01*
X17510Y18242D01*
X17510Y18242D01*
X17510Y18241D01*
X17510Y18241D01*
X17511Y18240D01*
X17511Y18240D01*
X17511Y18239D01*
X17511Y18239D01*
X17511Y18238D01*
X17511Y18237D01*
X17512Y18237D01*
X17512Y18236D01*
X17512Y18236D01*
X17512Y18235D01*
X17512Y18234D01*
X17512Y18234D01*
X17513Y18233D01*
X17513Y18233D01*
X17513Y18232D01*
X17513Y18232D01*
X17513Y18231D01*
X17513Y18230D01*
X17514Y18230D01*
X17514Y18229D01*
X17514Y18228D01*
X17514Y18228D01*
X17514Y18227D01*
X17514Y18227D01*
X17515Y18226D01*
X17515Y18225D01*
X17515Y18225D01*
X17515Y18224D01*
X17515Y18224D01*
X17515Y18223D01*
X17516Y18222D01*
X17516Y18222D01*
X17516Y18221D01*
X17516Y18221D01*
X17516Y18220D01*
X17516Y18219D01*
X17516Y18219D01*
X17517Y18218D01*
X17517Y18217D01*
X17517Y18217D01*
X17517Y18216D01*
X17517Y18215D01*
X17517Y18215D01*
X17518Y18214D01*
X17518Y18213D01*
X17518Y18212D01*
X17518Y18211D01*
X17518Y18211D01*
X17518Y18210D01*
X17519Y18209D01*
X17519Y18208D01*
X17519Y18207D01*
X17519Y18207D01*
X17519Y18206D01*
X17519Y18205D01*
X17520Y18204D01*
X17520Y18203D01*
X17520Y18202D01*
X17520Y18202D01*
X17520Y18201D01*
X17520Y18200D01*
X17521Y18199D01*
X17521Y18198D01*
X17521Y18198D01*
X17521Y18197D01*
X17521Y18196D01*
X17521Y18195D01*
X17522Y18194D01*
X17522Y18193D01*
X17522Y18193D01*
X17522Y18192D01*
X17522Y18191D01*
X17522Y18190D01*
X17522Y18189D01*
X17523Y18188D01*
X17523Y18187D01*
X17523Y18186D01*
X17523Y18185D01*
X17523Y18184D01*
X17523Y18183D01*
X17524Y18182D01*
X17524Y18181D01*
X17524Y18180D01*
X17524Y18179D01*
X17524Y18178D01*
X17524Y18177D01*
X17525Y18176D01*
X17525Y18175D01*
X17525Y18174D01*
X17525Y18173D01*
X17525Y18172D01*
X17525Y18171D01*
X17525Y18170D01*
X17526Y18169D01*
X17526Y18168D01*
X17526Y18167D01*
X17526Y18166D01*
X17526Y18164D01*
X17526Y18163D01*
X17527Y18162D01*
X17527Y18161D01*
X17527Y18160D01*
X17527Y18158D01*
X17527Y18157D01*
X17527Y18156D01*
X17527Y18155D01*
X17528Y18154D01*
X17528Y18152D01*
X17528Y18151D01*
X17528Y18150D01*
X17528Y18149D01*
X17528Y18147D01*
X17528Y18146D01*
X17529Y18145D01*
X17529Y18143D01*
X17529Y18142D01*
X17529Y18140D01*
X17529Y18140D01*
X17494Y17782D02*
X17494Y17783D01*
X17494Y17782D02*
X17494Y17782D01*
X17493Y17781D02*
X17494Y17782D01*
X17493Y17781D02*
X17493Y17781D01*
X17493Y17780D02*
X17493Y17781D01*
X17492Y17780D02*
X17493Y17780D01*
X17492Y17779D02*
X17492Y17780D01*
X17491Y17778D02*
X17492Y17779D01*
X17491Y17778D02*
X17491Y17778D01*
X17488Y17774D02*
X17489Y17775D01*
X17487Y17773D02*
X17488Y17774D01*
X17486Y17771D02*
X17487Y17773D01*
X17485Y17770D02*
X17486Y17771D01*
X17483Y17769D02*
X17485Y17770D01*
X17482Y17768D02*
X17483Y17769D01*
X17481Y17767D02*
X17482Y17768D01*
X17480Y17765D02*
X17481Y17767D01*
X17479Y17764D02*
X17480Y17765D01*
X17478Y17763D02*
X17479Y17764D01*
X17477Y17762D02*
X17478Y17763D01*
X17476Y17761D02*
X17477Y17762D01*
X17475Y17760D02*
X17476Y17761D01*
X17473Y17758D02*
X17475Y17760D01*
X17472Y17757D02*
X17473Y17758D01*
X17471Y17756D02*
X17472Y17757D01*
X17470Y17755D02*
X17471Y17756D01*
X17469Y17754D02*
X17470Y17755D01*
X17467Y17753D02*
X17469Y17754D01*
X17466Y17752D02*
X17467Y17753D01*
X17465Y17751D02*
X17466Y17752D01*
X17464Y17750D02*
X17465Y17751D01*
X17463Y17749D02*
X17464Y17750D01*
X17461Y17748D02*
X17463Y17749D01*
X17460Y17747D02*
X17461Y17748D01*
X17459Y17746D02*
X17460Y17747D01*
X17458Y17745D02*
X17459Y17746D01*
X17457Y17744D02*
X17458Y17745D01*
X17456Y17743D02*
X17457Y17744D01*
X17454Y17742D02*
X17456Y17743D01*
X17453Y17741D02*
X17454Y17742D01*
X17452Y17740D02*
X17453Y17741D01*
X17451Y17740D02*
X17452Y17740D01*
X17450Y17739D02*
X17451Y17740D01*
X17449Y17738D02*
X17450Y17739D01*
X17447Y17737D02*
X17449Y17738D01*
X17446Y17736D02*
X17447Y17737D01*
X17445Y17735D02*
X17446Y17736D01*
X17444Y17735D02*
X17445Y17735D01*
X17443Y17734D02*
X17444Y17735D01*
X17442Y17733D02*
X17443Y17734D01*
X17441Y17733D02*
X17442Y17733D01*
X17440Y17732D02*
X17441Y17733D01*
X17439Y17731D02*
X17440Y17732D01*
X17437Y17731D02*
X17439Y17731D01*
X17436Y17730D02*
X17437Y17731D01*
X17435Y17730D02*
X17436Y17730D01*
X17434Y17729D02*
X17435Y17730D01*
X17433Y17729D02*
X17434Y17729D01*
X17432Y17728D02*
X17433Y17729D01*
X17432Y17728D02*
X17432Y17728D01*
X17431Y17727D02*
X17432Y17728D01*
X17430Y17727D02*
X17431Y17727D01*
X17429Y17726D02*
X17430Y17727D01*
X17428Y17726D02*
X17429Y17726D01*
X17427Y17725D02*
X17428Y17726D01*
X17426Y17725D02*
X17427Y17725D01*
X17425Y17724D02*
X17426Y17725D01*
X17425Y17724D02*
X17425Y17724D01*
X17424Y17724D02*
X17425Y17724D01*
X17423Y17723D02*
X17424Y17724D01*
X17422Y17723D02*
X17423Y17723D01*
X17422Y17723D02*
X17422Y17723D01*
X17421Y17722D02*
X17422Y17723D01*
X17420Y17722D02*
X17421Y17722D01*
X17420Y17722D02*
X17420Y17722D01*
X17419Y17722D02*
X17420Y17722D01*
X17418Y17721D02*
X17419Y17722D01*
X17418Y17721D02*
X17418Y17721D01*
X17417Y17721D02*
X17418Y17721D01*
X17417Y17721D02*
X17417Y17721D01*
X17416Y17721D02*
X17417Y17721D01*
X17416Y17720D02*
X17416Y17721D01*
X17415Y17720D02*
X17416Y17720D01*
X17415Y17720D02*
X17415Y17720D01*
X17414Y17720D02*
X17415Y17720D01*
X17414Y17720D02*
X17414Y17720D01*
X17413Y17720D02*
X17414Y17720D01*
X17413Y17719D02*
X17413Y17720D01*
X17412Y17719D02*
X17413Y17719D01*
X17412Y17719D02*
X17412Y17719D01*
X17412Y17719D02*
X17412Y17719D01*
X17411Y17719D02*
X17412Y17719D01*
X17411Y17719D02*
X17411Y17719D01*
X17410Y17719D02*
X17411Y17719D01*
X17410Y17719D02*
X17410Y17719D01*
X17410Y17718D02*
X17410Y17719D01*
X17409Y17718D02*
X17410Y17718D01*
X17409Y17718D02*
X17409Y17718D01*
X17409Y17718D02*
X17409Y17718D01*
X17408Y17718D02*
X17409Y17718D01*
X17408Y17718D02*
X17408Y17718D01*
X17408Y17718D02*
X17408Y17718D01*
X17408Y17718D02*
X17408Y17718D01*
X17407Y17718D02*
X17408Y17718D01*
X17407Y17718D02*
X17407Y17718D01*
X17407Y17718D02*
X17407Y17718D01*
X17407Y17718D02*
X17407Y17718D01*
X17406Y17718D02*
X17407Y17718D01*
X17406Y17717D02*
X17406Y17718D01*
X17406Y17717D02*
X17406Y17717D01*
X17406Y17717D02*
X17406Y17717D01*
X17406Y17717D02*
X17406Y17717D01*
X17405Y17717D02*
X17406Y17717D01*
X17405Y17717D02*
X17405Y17717D01*
X17405Y17717D02*
X17405Y17717D01*
X17405Y17717D02*
X17405Y17717D01*
X17405Y17717D02*
X17405Y17717D01*
X17404Y17717D02*
X17405Y17717D01*
X17404Y17717D02*
X17404Y17717D01*
X17404Y17717D02*
X17404Y17717D01*
X17404Y17717D02*
X17404Y17717D01*
X17404Y17717D02*
X17404Y17717D01*
X17404Y17717D02*
X17404Y17717D01*
X17404Y17717D02*
X17404Y17717D01*
X17403Y17717D02*
X17404Y17717D01*
X17403Y17717D02*
X17403Y17717D01*
X17403Y17717D02*
X17403Y17717D01*
X17403Y17717D02*
X17403Y17717D01*
X17403Y17717D02*
X17403Y17717D01*
X17403Y17717D02*
X17403Y17717D01*
X17403Y17717D02*
X17403Y17717D01*
X17403Y17717D02*
X17403Y17717D01*
X17402Y17717D02*
X17403Y17717D01*
X17402Y17717D02*
X17402Y17717D01*
X17402Y17717D02*
X17402Y17717D01*
X17402Y17717D02*
X17402D01*
X17402Y17716D02*
X17402Y17717D01*
X17402Y17716D02*
X17402Y17716D01*
X17402Y17716D02*
X17402Y17716D01*
X17402Y17716D02*
X17402D01*
X17402Y17716D02*
X17402Y17716D01*
X17402Y17716D02*
X17402Y17716D01*
X17402Y17716D02*
X17402Y17716D01*
X17401Y17716D02*
X17402Y17716D01*
X17401Y17716D02*
X17401Y17716D01*
X17401Y17716D02*
X17401Y17716D01*
X17401Y17716D02*
X17401D01*
X17401Y17716D02*
X17401Y17716D01*
X17401Y17716D02*
X17401Y17716D01*
X17401Y17716D02*
X17401D01*
X17401Y17716D02*
X17401Y17716D01*
X17401Y17716D02*
X17401D01*
X17401Y17716D02*
X17401Y17716D01*
X17401Y17716D02*
X17401D01*
X17401Y17716D02*
X17401Y17716D01*
X17401Y17716D02*
X17401Y17716D01*
X17401Y17716D02*
X17401D01*
X17401Y17716D02*
X17401Y17716D01*
X17401Y17716D02*
X17401D01*
X17400Y17716D02*
X17401Y17716D01*
X17400Y17716D02*
X17400D01*
X17400D02*
X17400D01*
X17400Y17716D02*
X17400Y17716D01*
X17400Y17716D02*
X17400D01*
X17400Y17716D02*
X17400Y17716D01*
X17400Y17716D02*
X17400D01*
X17400Y17716D02*
X17400Y17716D01*
X17400Y17716D02*
X17400D01*
X17400Y17716D02*
X17400Y17716D01*
X17400Y17716D02*
X17400Y17716D01*
X17400Y17716D02*
X17400D01*
X17400Y17716D02*
X17400Y17716D01*
X17400Y17716D02*
X17400Y17716D01*
X17400Y17716D02*
X17400D01*
X17400D02*
X17400D01*
X17400D02*
X17400D01*
X17400D02*
X17400D01*
X17400D02*
X17400D01*
X17400Y17716D02*
X17400Y17716D01*
X17400Y17716D02*
X17400D01*
X17400Y17716D02*
X17400Y17716D01*
X17400Y17716D02*
X17400D01*
X17400Y17716D02*
X17400Y17716D01*
X17400Y17716D02*
X17400D01*
X17400D02*
X17400D01*
X17400Y17716D02*
X17400Y17716D01*
X17400Y17716D02*
X17400D01*
X17400D02*
X17400D01*
X17399D02*
X17400D01*
X17399D02*
X17399D01*
X17399D02*
X17399D01*
X17399Y17716D02*
X17399Y17716D01*
X17399Y17716D02*
X17399D01*
X17399D02*
X17399D01*
X17399D02*
X17399D01*
X17399D02*
X17399D01*
X17399D02*
X17399D01*
X17399D02*
X17399D01*
X17399D02*
X17399D01*
X17399Y17716D02*
X17399Y17716D01*
X17399Y17716D02*
X17399D01*
X17399D02*
X17399D01*
X17399D02*
X17399D01*
X17399D02*
X17399D01*
X17399D02*
X17399D01*
X17399D02*
X17399D01*
X17399Y17716D02*
X17399Y17716D01*
X17399Y17716D02*
X17399D01*
X17399D02*
X17399D01*
X17399D02*
X17399D01*
X17399D02*
X17399D01*
X17399D02*
X17399D01*
X17399Y17716D02*
X17399Y17716D01*
X17399D02*
X17399Y17716D01*
X17399Y17716D02*
X17399Y17716D01*
X17399Y17716D02*
X17399D01*
X17399D02*
X17399D01*
X17399D02*
X17399D01*
X17399D02*
X17399D01*
X17399Y17716D02*
X17399Y17716D01*
X17399D02*
X17399Y17716D01*
X17399Y17716D02*
X17399D01*
X16584Y18274D02*
X17208Y18328D01*
X17533Y17959D02*
X17533Y17962D01*
X17532Y17957D02*
X17533Y17959D01*
X17532Y17954D02*
X17532Y17957D01*
X17532Y17952D02*
X17532Y17954D01*
X17532Y17950D02*
X17532Y17952D01*
X17532Y17948D02*
X17532Y17950D01*
X17532Y17946D02*
X17532Y17948D01*
X17531Y17944D02*
X17532Y17946D01*
X17531Y17942D02*
X17531Y17944D01*
X17531Y17941D02*
X17531Y17942D01*
X17531Y17939D02*
X17531Y17941D01*
X17531Y17937D02*
X17531Y17939D01*
X17531Y17936D02*
X17531Y17937D01*
X17530Y17934D02*
X17531Y17936D01*
X17530Y17932D02*
X17530Y17934D01*
X17530Y17931D02*
X17530Y17932D01*
X17530Y17929D02*
X17530Y17931D01*
X17530Y17928D02*
X17530Y17929D01*
X17530Y17926D02*
X17530Y17928D01*
X17530Y17925D02*
X17530Y17926D01*
X17529Y17923D02*
X17530Y17925D01*
X17529Y17922D02*
X17529Y17923D01*
X17529Y17920D02*
X17529Y17922D01*
X17529Y17919D02*
X17529Y17920D01*
X17529Y17918D02*
X17529Y17919D01*
X17529Y17916D02*
X17529Y17918D01*
X17529Y17915D02*
X17529Y17916D01*
X17528Y17914D02*
X17529Y17915D01*
X17528Y17912D02*
X17528Y17914D01*
X17528Y17911D02*
X17528Y17912D01*
X17528Y17910D02*
X17528Y17911D01*
X17528Y17908D02*
X17528Y17910D01*
X17528Y17907D02*
X17528Y17908D01*
X17528Y17906D02*
X17528Y17907D01*
X17527Y17905D02*
X17528Y17906D01*
X17527Y17904D02*
X17527Y17905D01*
X17527Y17902D02*
X17527Y17904D01*
X17527Y17901D02*
X17527Y17902D01*
X17527Y17900D02*
X17527Y17901D01*
X17527Y17899D02*
X17527Y17900D01*
X17526Y17898D02*
X17527Y17899D01*
X17526Y17896D02*
X17526Y17898D01*
X17526Y17895D02*
X17526Y17896D01*
X17526Y17894D02*
X17526Y17895D01*
X17526Y17893D02*
X17526Y17894D01*
X17526Y17892D02*
X17526Y17893D01*
X17526Y17891D02*
X17526Y17892D01*
X17525Y17890D02*
X17526Y17891D01*
X17525Y17889D02*
X17525Y17890D01*
X17525Y17888D02*
X17525Y17889D01*
X17525Y17887D02*
X17525Y17888D01*
X17525Y17886D02*
X17525Y17887D01*
X17525Y17885D02*
X17525Y17886D01*
X17525Y17884D02*
X17525Y17885D01*
X17524Y17883D02*
X17525Y17884D01*
X17524Y17882D02*
X17524Y17883D01*
X17524Y17881D02*
X17524Y17882D01*
X17524Y17880D02*
X17524Y17881D01*
X17524Y17879D02*
X17524Y17880D01*
X17524Y17878D02*
X17524Y17879D01*
X17523Y17877D02*
X17524Y17878D01*
X17523Y17876D02*
X17523Y17877D01*
X17523Y17875D02*
X17523Y17876D01*
X17523Y17874D02*
X17523Y17875D01*
X17523Y17873D02*
X17523Y17874D01*
X17523Y17872D02*
X17523Y17873D01*
X17523Y17871D02*
X17523Y17872D01*
X17522Y17871D02*
X17523Y17871D01*
X17522Y17870D02*
X17522Y17871D01*
X17522Y17869D02*
X17522Y17870D01*
X17522Y17868D02*
X17522Y17869D01*
X17522Y17867D02*
X17522Y17868D01*
X17522Y17866D02*
X17522Y17867D01*
X17521Y17865D02*
X17522Y17866D01*
X17521Y17864D02*
X17521Y17865D01*
X17521Y17863D02*
X17521Y17864D01*
X17521Y17862D02*
X17521Y17863D01*
X17521Y17862D02*
X17521Y17862D01*
X17521Y17861D02*
X17521Y17862D01*
X17521Y17860D02*
X17521Y17861D01*
X17520Y17859D02*
X17521Y17860D01*
X17520Y17859D02*
X17520Y17859D01*
X17520Y17858D02*
X17520Y17859D01*
X17520Y17857D02*
X17520Y17858D01*
X17520Y17856D02*
X17520Y17857D01*
X17520Y17856D02*
X17520Y17856D01*
X17519Y17855D02*
X17520Y17856D01*
X17519Y17854D02*
X17519Y17855D01*
X17519Y17853D02*
X17519Y17854D01*
X17519Y17853D02*
X17519Y17853D01*
X17519Y17852D02*
X17519Y17853D01*
X17519Y17851D02*
X17519Y17852D01*
X17518Y17850D02*
X17519Y17851D01*
X17518Y17850D02*
X17518Y17850D01*
X17518Y17849D02*
X17518Y17850D01*
X17518Y17848D02*
X17518Y17849D01*
X17518Y17847D02*
X17518Y17848D01*
X17518Y17846D02*
X17518Y17847D01*
X17517Y17846D02*
X17518Y17846D01*
X17517Y17845D02*
X17517Y17846D01*
X17517Y17844D02*
X17517Y17845D01*
X17517Y17844D02*
X17517Y17844D01*
X17517Y17843D02*
X17517Y17844D01*
X17517Y17842D02*
X17517Y17843D01*
X17516Y17841D02*
X17517Y17842D01*
X17516Y17841D02*
X17516Y17841D01*
X17516Y17840D02*
X17516Y17841D01*
X17516Y17839D02*
X17516Y17840D01*
X17516Y17839D02*
X17516Y17839D01*
X17516Y17838D02*
X17516Y17839D01*
X17516Y17838D02*
X17516Y17838D01*
X17515Y17837D02*
X17516Y17838D01*
X17515Y17836D02*
X17515Y17837D01*
X17515Y17836D02*
X17515Y17836D01*
X17515Y17835D02*
X17515Y17836D01*
X17515Y17835D02*
X17515Y17835D01*
X17515Y17834D02*
X17515Y17835D01*
X17515Y17834D02*
X17515Y17834D01*
X16476Y17795D02*
X17399Y17716D01*
X16476Y17795D02*
Y18140D01*
X17561Y18136D02*
X17561Y17962D01*
X17501Y18136D02*
X17561D01*
X17501Y17962D02*
Y18136D01*
Y17962D02*
X17561D01*
X17390Y17783D02*
X17538Y17783D01*
Y17829D01*
X17390D02*
X17538D01*
X17321Y18304D02*
Y18417D01*
X17208D02*
X17321D01*
X17208Y18304D02*
Y18417D01*
Y18304D02*
X17321Y18304D01*
X17421Y17643D02*
Y18386D01*
X17366D02*
X17421D01*
X17366Y17643D02*
Y18386D01*
Y17643D02*
X17421D01*
X17214Y17929D02*
Y18165D01*
X17129D02*
X17214D01*
X17129Y17929D02*
Y18165D01*
Y17929D02*
X17214D01*
X16476Y17824D02*
Y17884D01*
X16388D02*
X16476D01*
X16388Y17824D02*
Y17884D01*
Y17824D02*
X16476Y17824D01*
X16261Y18611D02*
X17605Y17458D01*
X16261D02*
X17605Y18611D01*
X9206Y18786D02*
X9239Y18819D01*
X9304D01*
X9337Y18786D01*
Y18753D01*
X9304Y18720D01*
X9239D01*
X9206Y18688D01*
Y18655D01*
X9239Y18622D01*
X9304D01*
X9337Y18655D01*
X9140Y18819D02*
Y18622D01*
X9042D01*
X9009Y18655D01*
Y18688D01*
X9042Y18720D01*
X9140D01*
X9042D01*
X9009Y18753D01*
Y18786D01*
X9042Y18819D01*
X9140D01*
X8944Y18622D02*
X8878D01*
X8911D01*
Y18819D01*
X8944Y18786D01*
X8780Y18622D02*
X8714D01*
X8747D01*
Y18819D01*
X8780Y18786D01*
X8402D02*
X8435Y18819D01*
X8501D01*
X8533Y18786D01*
Y18753D01*
X8501Y18720D01*
X8435D01*
X8402Y18688D01*
Y18655D01*
X8435Y18622D01*
X8501D01*
X8533Y18655D01*
X8337Y18819D02*
Y18622D01*
X8238D01*
X8205Y18655D01*
Y18688D01*
X8238Y18720D01*
X8337D01*
X8238D01*
X8205Y18753D01*
Y18786D01*
X8238Y18819D01*
X8337D01*
X8140Y18622D02*
X8074D01*
X8107D01*
Y18819D01*
X8140Y18786D01*
X7976D02*
X7943Y18819D01*
X7877D01*
X7845Y18786D01*
Y18655D01*
X7877Y18622D01*
X7943D01*
X7976Y18655D01*
Y18786D01*
X12126Y17134D02*
Y17331D01*
X12028D01*
X11995Y17298D01*
Y17232D01*
X12028Y17199D01*
X12126D01*
X12060D02*
X11995Y17134D01*
X11929D02*
X11864D01*
X11896D01*
Y17331D01*
X11929Y17298D01*
X11765D02*
X11732Y17331D01*
X11667D01*
X11634Y17298D01*
Y17265D01*
X11667Y17232D01*
X11634Y17199D01*
Y17167D01*
X11667Y17134D01*
X11732D01*
X11765Y17167D01*
Y17199D01*
X11732Y17232D01*
X11765Y17265D01*
Y17298D01*
X11732Y17232D02*
X11667D01*
X9974Y17332D02*
X10007Y17365D01*
X10072D01*
X10105Y17332D01*
Y17201D01*
X10072Y17168D01*
X10007D01*
X9974Y17201D01*
X9908Y17332D02*
X9875Y17365D01*
X9810D01*
X9777Y17332D01*
Y17299D01*
X9810Y17266D01*
X9843D01*
X9810D01*
X9777Y17234D01*
Y17201D01*
X9810Y17168D01*
X9875D01*
X9908Y17201D01*
X9711Y17332D02*
X9679Y17365D01*
X9613D01*
X9580Y17332D01*
Y17299D01*
X9613Y17266D01*
X9646D01*
X9613D01*
X9580Y17234D01*
Y17201D01*
X9613Y17168D01*
X9679D01*
X9711Y17201D01*
X7382Y17966D02*
X7579D01*
Y18064D01*
X7546Y18097D01*
X7480D01*
X7448Y18064D01*
Y17966D01*
Y18032D02*
X7382Y18097D01*
X7546Y18163D02*
X7579Y18196D01*
Y18261D01*
X7546Y18294D01*
X7513D01*
X7480Y18261D01*
Y18228D01*
Y18261D01*
X7448Y18294D01*
X7415D01*
X7382Y18261D01*
Y18196D01*
X7415Y18163D01*
X7546Y18360D02*
X7579Y18392D01*
Y18458D01*
X7546Y18491D01*
X7415D01*
X7382Y18458D01*
Y18392D01*
X7415Y18360D01*
X7546D01*
X8787Y14559D02*
Y14395D01*
X8754Y14362D01*
X8689D01*
X8656Y14395D01*
Y14559D01*
X8590Y14362D02*
X8525D01*
X8557D01*
Y14559D01*
X8590Y14526D01*
X8426Y14395D02*
X8393Y14362D01*
X8328D01*
X8295Y14395D01*
Y14526D01*
X8328Y14559D01*
X8393D01*
X8426Y14526D01*
Y14494D01*
X8393Y14461D01*
X8295D01*
X14587Y15571D02*
Y15407D01*
X14554Y15374D01*
X14488D01*
X14455Y15407D01*
Y15571D01*
X14390Y15374D02*
X14324D01*
X14357D01*
Y15571D01*
X14390Y15538D01*
X14226D02*
X14193Y15571D01*
X14127D01*
X14095Y15538D01*
Y15505D01*
X14127Y15472D01*
X14095Y15440D01*
Y15407D01*
X14127Y15374D01*
X14193D01*
X14226Y15407D01*
Y15440D01*
X14193Y15472D01*
X14226Y15505D01*
Y15538D01*
X14193Y15472D02*
X14127D01*
X14624Y13787D02*
X14657Y13820D01*
X14723D01*
X14755Y13787D01*
Y13656D01*
X14723Y13623D01*
X14657D01*
X14624Y13656D01*
X14428Y13820D02*
X14493Y13787D01*
X14559Y13721D01*
Y13656D01*
X14526Y13623D01*
X14460D01*
X14428Y13656D01*
Y13689D01*
X14460Y13721D01*
X14559D01*
X14362Y13787D02*
X14329Y13820D01*
X14264D01*
X14231Y13787D01*
Y13656D01*
X14264Y13623D01*
X14329D01*
X14362Y13656D01*
Y13787D01*
X8287Y7523D02*
X8484D01*
Y7621D01*
X8451Y7654D01*
X8386D01*
X8353Y7621D01*
Y7523D01*
Y7589D02*
X8287Y7654D01*
Y7851D02*
Y7720D01*
X8419Y7851D01*
X8451D01*
X8484Y7818D01*
Y7753D01*
X8451Y7720D01*
X8320Y7917D02*
X8287Y7949D01*
Y8015D01*
X8320Y8048D01*
X8451D01*
X8484Y8015D01*
Y7949D01*
X8451Y7917D01*
X8419D01*
X8386Y7949D01*
Y8048D01*
X12030Y17884D02*
X12227D01*
Y17983D01*
X12194Y18016D01*
X12128D01*
X12095Y17983D01*
Y17884D01*
Y17950D02*
X12030Y18016D01*
Y18212D02*
Y18081D01*
X12161Y18212D01*
X12194D01*
X12227Y18180D01*
Y18114D01*
X12194Y18081D01*
Y18278D02*
X12227Y18311D01*
Y18376D01*
X12194Y18409D01*
X12161D01*
X12128Y18376D01*
X12095Y18409D01*
X12063D01*
X12030Y18376D01*
Y18311D01*
X12063Y18278D01*
X12095D01*
X12128Y18311D01*
X12161Y18278D01*
X12194D01*
X12128Y18311D02*
Y18376D01*
X4003Y11270D02*
Y11466D01*
X3904D01*
X3871Y11434D01*
Y11368D01*
X3904Y11335D01*
X4003D01*
X3937D02*
X3871Y11270D01*
X3675D02*
X3806D01*
X3675Y11401D01*
Y11434D01*
X3707Y11466D01*
X3773D01*
X3806Y11434D01*
X3609Y11466D02*
X3478D01*
Y11434D01*
X3609Y11303D01*
Y11270D01*
X3445Y13012D02*
Y13209D01*
X3346D01*
X3314Y13176D01*
Y13110D01*
X3346Y13077D01*
X3445D01*
X3379D02*
X3314Y13012D01*
X3248D02*
X3182D01*
X3215D01*
Y13209D01*
X3248Y13176D01*
X2953Y13209D02*
X3018Y13176D01*
X3084Y13110D01*
Y13045D01*
X3051Y13012D01*
X2986D01*
X2953Y13045D01*
Y13077D01*
X2986Y13110D01*
X3084D01*
X5971Y15522D02*
Y15718D01*
X5873D01*
X5840Y15686D01*
Y15620D01*
X5873Y15587D01*
X5971D01*
X5905D02*
X5840Y15522D01*
X5643D02*
X5774D01*
X5643Y15653D01*
Y15686D01*
X5676Y15718D01*
X5741D01*
X5774Y15686D01*
X5446Y15718D02*
X5512Y15686D01*
X5577Y15620D01*
Y15554D01*
X5545Y15522D01*
X5479D01*
X5446Y15554D01*
Y15587D01*
X5479Y15620D01*
X5577D01*
X11946Y14554D02*
X11978Y14521D01*
Y14455D01*
X11946Y14423D01*
X11913D01*
X11880Y14455D01*
Y14521D01*
X11847Y14554D01*
X11814D01*
X11782Y14521D01*
Y14455D01*
X11814Y14423D01*
X11978Y14619D02*
X11782D01*
Y14718D01*
X11814Y14751D01*
X11847D01*
X11880Y14718D01*
Y14619D01*
Y14718D01*
X11913Y14751D01*
X11946D01*
X11978Y14718D01*
Y14619D01*
X11782Y14915D02*
X11978D01*
X11880Y14816D01*
Y14947D01*
X11483Y14308D02*
X11516Y14275D01*
Y14209D01*
X11483Y14177D01*
X11450D01*
X11417Y14209D01*
Y14275D01*
X11385Y14308D01*
X11352D01*
X11319Y14275D01*
Y14209D01*
X11352Y14177D01*
X11516Y14373D02*
X11319D01*
Y14472D01*
X11352Y14505D01*
X11385D01*
X11417Y14472D01*
Y14373D01*
Y14472D01*
X11450Y14505D01*
X11483D01*
X11516Y14472D01*
Y14373D01*
X11483Y14570D02*
X11516Y14603D01*
Y14669D01*
X11483Y14701D01*
X11450D01*
X11417Y14669D01*
Y14636D01*
Y14669D01*
X11385Y14701D01*
X11352D01*
X11319Y14669D01*
Y14603D01*
X11352Y14570D01*
X15256Y19110D02*
X15289Y19143D01*
X15354D01*
X15387Y19110D01*
Y18979D01*
X15354Y18946D01*
X15289D01*
X15256Y18979D01*
X15092Y18946D02*
Y19143D01*
X15190Y19044D01*
X15059D01*
X14993Y19110D02*
X14961Y19143D01*
X14895D01*
X14862Y19110D01*
Y18979D01*
X14895Y18946D01*
X14961D01*
X14993Y18979D01*
Y19110D01*
X15902Y19118D02*
X15935Y19151D01*
X16000D01*
X16033Y19118D01*
Y18987D01*
X16000Y18954D01*
X15935D01*
X15902Y18987D01*
X15738Y18954D02*
Y19151D01*
X15836Y19052D01*
X15705D01*
X15639Y18954D02*
X15574D01*
X15607D01*
Y19151D01*
X15639Y19118D01*
X16348Y19902D02*
X16184D01*
X16152Y19934D01*
Y20000D01*
X16184Y20033D01*
X16348D01*
X16184Y20098D02*
X16152Y20131D01*
Y20197D01*
X16184Y20230D01*
X16316D01*
X16348Y20197D01*
Y20131D01*
X16316Y20098D01*
X16283D01*
X16250Y20131D01*
Y20230D01*
X14156Y12803D02*
Y13000D01*
X14058D01*
X14025Y12967D01*
Y12902D01*
X14058Y12869D01*
X14156D01*
X14090D02*
X14025Y12803D01*
X13861D02*
Y13000D01*
X13959Y12902D01*
X13828D01*
X13664Y12803D02*
Y13000D01*
X13762Y12902D01*
X13631D01*
X13340Y17651D02*
X13471D01*
X13504Y17618D01*
Y17552D01*
X13471Y17520D01*
X13340D01*
X13307Y17552D01*
Y17618D01*
X13373Y17585D02*
X13307Y17651D01*
Y17618D02*
X13340Y17651D01*
X13471Y17716D02*
X13504Y17749D01*
Y17815D01*
X13471Y17848D01*
X13438D01*
X13405Y17815D01*
Y17782D01*
Y17815D01*
X13373Y17848D01*
X13340D01*
X13307Y17815D01*
Y17749D01*
X13340Y17716D01*
X1450Y5206D02*
Y5403D01*
X1352D01*
X1319Y5370D01*
Y5305D01*
X1352Y5272D01*
X1450D01*
X1253Y5370D02*
X1220Y5403D01*
X1155D01*
X1122Y5370D01*
Y5338D01*
X1155Y5305D01*
X1122Y5272D01*
Y5239D01*
X1155Y5206D01*
X1220D01*
X1253Y5239D01*
Y5272D01*
X1220Y5305D01*
X1253Y5338D01*
Y5370D01*
X1220Y5305D02*
X1155D01*
X1601Y14094D02*
X1667D01*
X1634D01*
Y13930D01*
X1667Y13898D01*
X1699D01*
X1732Y13930D01*
X1404Y14094D02*
X1470Y14062D01*
X1535Y13996D01*
Y13930D01*
X1503Y13898D01*
X1437D01*
X1404Y13930D01*
Y13963D01*
X1437Y13996D01*
X1535D01*
X446Y9478D02*
Y9675D01*
X348D01*
X315Y9642D01*
Y9577D01*
X348Y9544D01*
X446D01*
X249Y9478D02*
X184D01*
X217D01*
Y9675D01*
X249Y9642D01*
X3297Y19213D02*
Y19409D01*
X3199D01*
X3166Y19377D01*
Y19311D01*
X3199Y19278D01*
X3297D01*
X3100Y19245D02*
X3068Y19213D01*
X3002D01*
X2969Y19245D01*
Y19377D01*
X3002Y19409D01*
X3068D01*
X3100Y19377D01*
Y19344D01*
X3068Y19311D01*
X2969D01*
X9232Y10394D02*
X9429D01*
Y10492D01*
X9396Y10525D01*
X9331D01*
X9298Y10492D01*
Y10394D01*
Y10459D02*
X9232Y10525D01*
Y10591D02*
Y10656D01*
Y10623D01*
X9429D01*
X9396Y10591D01*
Y10755D02*
X9429Y10787D01*
Y10853D01*
X9396Y10886D01*
X9265D01*
X9232Y10853D01*
Y10787D01*
X9265Y10755D01*
X9396D01*
X1627Y9483D02*
Y9680D01*
X1529D01*
X1496Y9647D01*
Y9582D01*
X1529Y9549D01*
X1627D01*
X1562D02*
X1496Y9483D01*
X1430Y9516D02*
X1398Y9483D01*
X1332D01*
X1299Y9516D01*
Y9647D01*
X1332Y9680D01*
X1398D01*
X1430Y9647D01*
Y9614D01*
X1398Y9582D01*
X1299D01*
X1696Y9927D02*
X1729Y9960D01*
X1794D01*
X1827Y9927D01*
Y9796D01*
X1794Y9763D01*
X1729D01*
X1696Y9796D01*
X1499Y9960D02*
X1630D01*
Y9862D01*
X1565Y9894D01*
X1532D01*
X1499Y9862D01*
Y9796D01*
X1532Y9763D01*
X1598D01*
X1630Y9796D01*
X1434D02*
X1401Y9763D01*
X1335D01*
X1302Y9796D01*
Y9927D01*
X1335Y9960D01*
X1401D01*
X1434Y9927D01*
Y9894D01*
X1401Y9862D01*
X1302D01*
X8976Y17598D02*
X9173D01*
Y17697D01*
X9140Y17730D01*
X9075D01*
X9042Y17697D01*
Y17598D01*
Y17664D02*
X8976Y17730D01*
X9173Y17795D02*
Y17926D01*
X9140D01*
X9009Y17795D01*
X8976D01*
X3806Y10846D02*
X3937D01*
Y10748D01*
X3871D01*
X3937D01*
Y10650D01*
X3740Y10846D02*
Y10650D01*
X3642D01*
X3609Y10682D01*
Y10715D01*
X3642Y10748D01*
X3740D01*
X3642D01*
X3609Y10781D01*
Y10814D01*
X3642Y10846D01*
X3740D01*
X3543Y10650D02*
X3478D01*
X3511D01*
Y10846D01*
X3543Y10814D01*
X4587Y11968D02*
X4390D01*
Y12067D01*
X4423Y12100D01*
X4554D01*
X4587Y12067D01*
Y11968D01*
X4390Y12165D02*
Y12231D01*
Y12198D01*
X4587D01*
X4554Y12165D01*
X4839Y13018D02*
X4872Y13051D01*
X4938D01*
X4970Y13018D01*
Y12887D01*
X4938Y12854D01*
X4872D01*
X4839Y12887D01*
X4642Y13051D02*
X4774D01*
Y12953D01*
X4708Y12986D01*
X4675D01*
X4642Y12953D01*
Y12887D01*
X4675Y12854D01*
X4741D01*
X4774Y12887D01*
X4577Y13018D02*
X4544Y13051D01*
X4479D01*
X4446Y13018D01*
Y12986D01*
X4479Y12953D01*
X4446Y12920D01*
Y12887D01*
X4479Y12854D01*
X4544D01*
X4577Y12887D01*
Y12920D01*
X4544Y12953D01*
X4577Y12986D01*
Y13018D01*
X4544Y12953D02*
X4479D01*
X3747Y13442D02*
X3779Y13409D01*
Y13343D01*
X3747Y13310D01*
X3616D01*
X3583Y13343D01*
Y13409D01*
X3616Y13442D01*
X3779Y13638D02*
Y13507D01*
X3681D01*
X3714Y13573D01*
Y13606D01*
X3681Y13638D01*
X3616D01*
X3583Y13606D01*
Y13540D01*
X3616Y13507D01*
X3747Y13704D02*
X3779Y13737D01*
Y13802D01*
X3747Y13835D01*
X3714D01*
X3681Y13802D01*
Y13770D01*
Y13802D01*
X3648Y13835D01*
X3616D01*
X3583Y13802D01*
Y13737D01*
X3616Y13704D01*
X4268Y10236D02*
X4301Y10203D01*
Y10138D01*
X4268Y10105D01*
X4137D01*
X4104Y10138D01*
Y10203D01*
X4137Y10236D01*
X4104Y10400D02*
X4301D01*
X4203Y10302D01*
Y10433D01*
X4104Y10597D02*
X4301D01*
X4203Y10498D01*
Y10630D01*
X3284Y10246D02*
X3317Y10213D01*
Y10148D01*
X3284Y10115D01*
X3153D01*
X3120Y10148D01*
Y10213D01*
X3153Y10246D01*
X3120Y10410D02*
X3317D01*
X3218Y10312D01*
Y10443D01*
X3284Y10508D02*
X3317Y10541D01*
Y10607D01*
X3284Y10640D01*
X3251D01*
X3218Y10607D01*
Y10574D01*
Y10607D01*
X3186Y10640D01*
X3153D01*
X3120Y10607D01*
Y10541D01*
X3153Y10508D01*
X13146Y14222D02*
Y14058D01*
X13113Y14026D01*
X13048D01*
X13015Y14058D01*
Y14222D01*
X12949D02*
X12818D01*
Y14190D01*
X12949Y14058D01*
Y14026D01*
X10561Y17864D02*
X10397D01*
X10364Y17897D01*
Y17963D01*
X10397Y17995D01*
X10561D01*
X10364Y18061D02*
Y18127D01*
Y18094D01*
X10561D01*
X10528Y18061D01*
X10364Y18356D02*
Y18225D01*
X10495Y18356D01*
X10528D01*
X10561Y18323D01*
Y18258D01*
X10528Y18225D01*
X11033Y19022D02*
X11066Y19055D01*
X11132D01*
X11165Y19022D01*
Y18891D01*
X11132Y18858D01*
X11066D01*
X11033Y18891D01*
X10837Y19055D02*
X10968D01*
Y18957D01*
X10902Y18989D01*
X10869D01*
X10837Y18957D01*
Y18891D01*
X10869Y18858D01*
X10935D01*
X10968Y18891D01*
X10771Y18858D02*
X10705D01*
X10738D01*
Y19055D01*
X10771Y19022D01*
X10843Y17733D02*
X10876Y17766D01*
X10942D01*
X10974Y17733D01*
Y17602D01*
X10942Y17569D01*
X10876D01*
X10843Y17602D01*
X10646Y17766D02*
X10778D01*
Y17667D01*
X10712Y17700D01*
X10679D01*
X10646Y17667D01*
Y17602D01*
X10679Y17569D01*
X10745D01*
X10778Y17602D01*
X10581Y17733D02*
X10548Y17766D01*
X10482D01*
X10450Y17733D01*
Y17602D01*
X10482Y17569D01*
X10548D01*
X10581Y17602D01*
Y17733D01*
X6181Y14665D02*
Y14501D01*
X6148Y14468D01*
X6083D01*
X6050Y14501D01*
Y14665D01*
X5853D02*
X5919Y14632D01*
X5984Y14567D01*
Y14501D01*
X5952Y14468D01*
X5886D01*
X5853Y14501D01*
Y14534D01*
X5886Y14567D01*
X5984D01*
X5430Y14751D02*
X5463Y14783D01*
X5528D01*
X5561Y14751D01*
Y14619D01*
X5528Y14587D01*
X5463D01*
X5430Y14619D01*
X5233Y14783D02*
X5364D01*
Y14685D01*
X5299Y14718D01*
X5266D01*
X5233Y14685D01*
Y14619D01*
X5266Y14587D01*
X5331D01*
X5364Y14619D01*
X5036Y14783D02*
X5167D01*
Y14685D01*
X5102Y14718D01*
X5069D01*
X5036Y14685D01*
Y14619D01*
X5069Y14587D01*
X5135D01*
X5167Y14619D01*
X7005Y14938D02*
X7037Y14905D01*
Y14839D01*
X7005Y14807D01*
X6873D01*
X6841Y14839D01*
Y14905D01*
X6873Y14938D01*
X7037Y15134D02*
Y15003D01*
X6939D01*
X6972Y15069D01*
Y15102D01*
X6939Y15134D01*
X6873D01*
X6841Y15102D01*
Y15036D01*
X6873Y15003D01*
X6841Y15298D02*
X7037D01*
X6939Y15200D01*
Y15331D01*
X9183Y17382D02*
Y17218D01*
X9150Y17185D01*
X9085D01*
X9052Y17218D01*
Y17382D01*
X8986Y17349D02*
X8953Y17382D01*
X8888D01*
X8855Y17349D01*
Y17316D01*
X8888Y17283D01*
X8921D01*
X8888D01*
X8855Y17251D01*
Y17218D01*
X8888Y17185D01*
X8953D01*
X8986Y17218D01*
X6513Y16304D02*
X6545Y16337D01*
X6611D01*
X6644Y16304D01*
Y16173D01*
X6611Y16140D01*
X6545D01*
X6513Y16173D01*
X6447Y16304D02*
X6414Y16337D01*
X6349D01*
X6316Y16304D01*
Y16271D01*
X6349Y16238D01*
X6381D01*
X6349D01*
X6316Y16206D01*
Y16173D01*
X6349Y16140D01*
X6414D01*
X6447Y16173D01*
X6152Y16140D02*
Y16337D01*
X6250Y16238D01*
X6119D01*
X6513Y17219D02*
X6545Y17252D01*
X6611D01*
X6644Y17219D01*
Y17088D01*
X6611Y17055D01*
X6545D01*
X6513Y17088D01*
X6349Y17055D02*
Y17252D01*
X6447Y17154D01*
X6316D01*
X6119Y17252D02*
X6185Y17219D01*
X6250Y17154D01*
Y17088D01*
X6217Y17055D01*
X6152D01*
X6119Y17088D01*
Y17121D01*
X6152Y17154D01*
X6250D01*
X9524Y16138D02*
X9557Y16171D01*
X9623D01*
X9656Y16138D01*
Y16007D01*
X9623Y15974D01*
X9557D01*
X9524Y16007D01*
X9360Y15974D02*
Y16171D01*
X9459Y16073D01*
X9328D01*
X9262Y16138D02*
X9229Y16171D01*
X9164D01*
X9131Y16138D01*
Y16106D01*
X9164Y16073D01*
X9131Y16040D01*
Y16007D01*
X9164Y15974D01*
X9229D01*
X9262Y16007D01*
Y16040D01*
X9229Y16073D01*
X9262Y16106D01*
Y16138D01*
X9229Y16073D02*
X9164D01*
X10039Y15709D02*
Y15512D01*
X9908D01*
X9843D02*
X9777D01*
X9810D01*
Y15709D01*
X9843Y15676D01*
X9679Y15512D02*
X9613D01*
X9646D01*
Y15709D01*
X9679Y15676D01*
X9524Y16985D02*
X9557Y17018D01*
X9623D01*
X9656Y16985D01*
Y16854D01*
X9623Y16821D01*
X9557D01*
X9524Y16854D01*
X9459Y16985D02*
X9426Y17018D01*
X9360D01*
X9328Y16985D01*
Y16952D01*
X9360Y16919D01*
X9393D01*
X9360D01*
X9328Y16886D01*
Y16854D01*
X9360Y16821D01*
X9426D01*
X9459Y16854D01*
X9131Y17018D02*
X9262D01*
Y16919D01*
X9196Y16952D01*
X9164D01*
X9131Y16919D01*
Y16854D01*
X9164Y16821D01*
X9229D01*
X9262Y16854D01*
X7844Y17510D02*
X8041D01*
Y17608D01*
X8008Y17641D01*
X7943D01*
X7910Y17608D01*
Y17510D01*
Y17575D02*
X7844Y17641D01*
X8008Y17707D02*
X8041Y17739D01*
Y17805D01*
X8008Y17838D01*
X7976D01*
X7943Y17805D01*
Y17772D01*
Y17805D01*
X7910Y17838D01*
X7877D01*
X7844Y17805D01*
Y17739D01*
X7877Y17707D01*
X7844Y17903D02*
Y17969D01*
Y17936D01*
X8041D01*
X8008Y17903D01*
X6513Y16767D02*
X6545Y16799D01*
X6611D01*
X6644Y16767D01*
Y16635D01*
X6611Y16603D01*
X6545D01*
X6513Y16635D01*
X6349Y16603D02*
Y16799D01*
X6447Y16701D01*
X6316D01*
X6250Y16799D02*
X6119D01*
Y16767D01*
X6250Y16635D01*
Y16603D01*
X11122Y12333D02*
Y12464D01*
Y12398D01*
X10925D01*
Y12529D02*
X11122D01*
Y12628D01*
X11089Y12661D01*
X11024D01*
X10991Y12628D01*
Y12529D01*
X11122Y12857D02*
X11089Y12792D01*
X11024Y12726D01*
X10958D01*
X10925Y12759D01*
Y12825D01*
X10958Y12857D01*
X10991D01*
X11024Y12825D01*
Y12726D01*
X10325Y12333D02*
Y12464D01*
Y12398D01*
X10128D01*
Y12529D02*
X10325D01*
Y12628D01*
X10292Y12661D01*
X10226D01*
X10194Y12628D01*
Y12529D01*
X10292Y12726D02*
X10325Y12759D01*
Y12825D01*
X10292Y12857D01*
X10259D01*
X10226Y12825D01*
X10194Y12857D01*
X10161D01*
X10128Y12825D01*
Y12759D01*
X10161Y12726D01*
X10194D01*
X10226Y12759D01*
X10259Y12726D01*
X10292D01*
X10226Y12759D02*
Y12825D01*
X11890Y12333D02*
Y12464D01*
Y12398D01*
X11693D01*
Y12529D02*
X11890D01*
Y12628D01*
X11857Y12661D01*
X11791D01*
X11759Y12628D01*
Y12529D01*
X11890Y12726D02*
Y12857D01*
X11857D01*
X11726Y12726D01*
X11693D01*
X1467Y20157D02*
X1663D01*
Y20256D01*
X1631Y20289D01*
X1565D01*
X1532Y20256D01*
Y20157D01*
Y20223D02*
X1467Y20289D01*
Y20453D02*
X1663D01*
X1565Y20354D01*
Y20485D01*
X1631Y20551D02*
X1663Y20584D01*
Y20649D01*
X1631Y20682D01*
X1598D01*
X1565Y20649D01*
X1532Y20682D01*
X1499D01*
X1467Y20649D01*
Y20584D01*
X1499Y20551D01*
X1532D01*
X1565Y20584D01*
X1598Y20551D01*
X1631D01*
X1565Y20584D02*
Y20649D01*
X2303Y20157D02*
X2500D01*
Y20256D01*
X2467Y20289D01*
X2402D01*
X2369Y20256D01*
Y20157D01*
Y20223D02*
X2303Y20289D01*
Y20453D02*
X2500D01*
X2402Y20354D01*
Y20485D01*
X2500Y20551D02*
Y20682D01*
X2467D01*
X2336Y20551D01*
X2303D01*
X2014Y20151D02*
Y20282D01*
X2047Y20315D01*
X2113D01*
X2146Y20282D01*
Y20151D01*
X2113Y20118D01*
X2047D01*
X2080Y20184D02*
X2014Y20118D01*
X2047D02*
X2014Y20151D01*
X1949Y20282D02*
X1916Y20315D01*
X1850D01*
X1818Y20282D01*
Y20249D01*
X1850Y20217D01*
X1818Y20184D01*
Y20151D01*
X1850Y20118D01*
X1916D01*
X1949Y20151D01*
Y20184D01*
X1916Y20217D01*
X1949Y20249D01*
Y20282D01*
X1916Y20217D02*
X1850D01*
X14156Y13063D02*
Y13260D01*
X14058D01*
X14025Y13227D01*
Y13162D01*
X14058Y13129D01*
X14156D01*
X14090D02*
X14025Y13063D01*
X13861D02*
Y13260D01*
X13959Y13162D01*
X13828D01*
X13631Y13260D02*
X13697Y13227D01*
X13762Y13162D01*
Y13096D01*
X13730Y13063D01*
X13664D01*
X13631Y13096D01*
Y13129D01*
X13664Y13162D01*
X13762D01*
X14156Y13313D02*
Y13510D01*
X14058D01*
X14025Y13477D01*
Y13412D01*
X14058Y13379D01*
X14156D01*
X14090D02*
X14025Y13313D01*
X13861D02*
Y13510D01*
X13959Y13412D01*
X13828D01*
X13631Y13510D02*
X13762D01*
Y13412D01*
X13697Y13444D01*
X13664D01*
X13631Y13412D01*
Y13346D01*
X13664Y13313D01*
X13730D01*
X13762Y13346D01*
X11644Y7195D02*
Y6998D01*
X11545D01*
X11513Y7031D01*
Y7064D01*
X11545Y7096D01*
X11644D01*
X11545D01*
X11513Y7129D01*
Y7162D01*
X11545Y7195D01*
X11644D01*
X11447Y7129D02*
X11316D01*
X11447Y6998D01*
X11316D01*
X11250D02*
X11185D01*
X11217D01*
Y7195D01*
X11250Y7162D01*
X7772Y15144D02*
X7805Y15177D01*
X7871D01*
X7904Y15144D01*
Y15013D01*
X7871Y14980D01*
X7805D01*
X7772Y15013D01*
X7608Y14980D02*
Y15177D01*
X7707Y15079D01*
X7576D01*
X7379Y15177D02*
X7510D01*
Y15079D01*
X7444Y15112D01*
X7412D01*
X7379Y15079D01*
Y15013D01*
X7412Y14980D01*
X7477D01*
X7510Y15013D01*
X8583Y7515D02*
X8779D01*
Y7613D01*
X8747Y7646D01*
X8681D01*
X8648Y7613D01*
Y7515D01*
Y7580D02*
X8583Y7646D01*
Y7843D02*
Y7712D01*
X8714Y7843D01*
X8747D01*
X8779Y7810D01*
Y7744D01*
X8747Y7712D01*
X8583Y7908D02*
Y7974D01*
Y7941D01*
X8779D01*
X8747Y7908D01*
X8132Y8719D02*
Y8850D01*
X8164Y8883D01*
X8230D01*
X8263Y8850D01*
Y8719D01*
X8230Y8686D01*
X8164D01*
X8197Y8752D02*
X8132Y8686D01*
X8164D02*
X8132Y8719D01*
X7935Y8883D02*
X8066D01*
Y8784D01*
X8000Y8817D01*
X7968D01*
X7935Y8784D01*
Y8719D01*
X7968Y8686D01*
X8033D01*
X8066Y8719D01*
X8297Y10502D02*
X8100D01*
Y10600D01*
X8133Y10633D01*
X8264D01*
X8297Y10600D01*
Y10502D01*
X8100Y10830D02*
Y10699D01*
X8232Y10830D01*
X8264D01*
X8297Y10797D01*
Y10732D01*
X8264Y10699D01*
X11220Y15335D02*
Y15171D01*
X11188Y15138D01*
X11122D01*
X11089Y15171D01*
Y15335D01*
X11024Y15302D02*
X10991Y15335D01*
X10925D01*
X10892Y15302D01*
Y15269D01*
X10925Y15236D01*
X10892Y15203D01*
Y15171D01*
X10925Y15138D01*
X10991D01*
X11024Y15171D01*
Y15203D01*
X10991Y15236D01*
X11024Y15269D01*
Y15302D01*
X10991Y15236D02*
X10925D01*
X11995Y17044D02*
X12028Y17077D01*
X12093D01*
X12126Y17044D01*
Y16913D01*
X12093Y16880D01*
X12028D01*
X11995Y16913D01*
X11929Y17044D02*
X11896Y17077D01*
X11831D01*
X11798Y17044D01*
Y17011D01*
X11831Y16978D01*
X11864D01*
X11831D01*
X11798Y16946D01*
Y16913D01*
X11831Y16880D01*
X11896D01*
X11929Y16913D01*
X11732D02*
X11700Y16880D01*
X11634D01*
X11601Y16913D01*
Y17044D01*
X11634Y17077D01*
X11700D01*
X11732Y17044D01*
Y17011D01*
X11700Y16978D01*
X11601D01*
X10272Y17014D02*
X10305Y17047D01*
X10371D01*
X10404Y17014D01*
Y16883D01*
X10371Y16850D01*
X10305D01*
X10272Y16883D01*
X10207Y17014D02*
X10174Y17047D01*
X10108D01*
X10076Y17014D01*
Y16982D01*
X10108Y16949D01*
X10141D01*
X10108D01*
X10076Y16916D01*
Y16883D01*
X10108Y16850D01*
X10174D01*
X10207Y16883D01*
X10010Y17014D02*
X9977Y17047D01*
X9912D01*
X9879Y17014D01*
Y16982D01*
X9912Y16949D01*
X9879Y16916D01*
Y16883D01*
X9912Y16850D01*
X9977D01*
X10010Y16883D01*
Y16916D01*
X9977Y16949D01*
X10010Y16982D01*
Y17014D01*
X9977Y16949D02*
X9912D01*
X13350Y16785D02*
X13481D01*
X13514Y16752D01*
Y16686D01*
X13481Y16654D01*
X13350D01*
X13317Y16686D01*
Y16752D01*
X13383Y16719D02*
X13317Y16785D01*
Y16752D02*
X13350Y16785D01*
X13317Y16949D02*
X13514D01*
X13415Y16850D01*
Y16982D01*
X6316Y20581D02*
X6381D01*
X6348D01*
Y20417D01*
X6381Y20384D01*
X6414D01*
X6447Y20417D01*
X6250Y20548D02*
X6217Y20581D01*
X6152D01*
X6119Y20548D01*
Y20515D01*
X6152Y20482D01*
X6184D01*
X6152D01*
X6119Y20449D01*
Y20417D01*
X6152Y20384D01*
X6217D01*
X6250Y20417D01*
X4751Y4508D02*
X4816D01*
X4784D01*
Y4344D01*
X4816Y4311D01*
X4849D01*
X4882Y4344D01*
X4554Y4508D02*
X4685D01*
Y4409D01*
X4620Y4442D01*
X4587D01*
X4554Y4409D01*
Y4344D01*
X4587Y4311D01*
X4652D01*
X4685Y4344D01*
X9589Y11732D02*
X9786D01*
Y11831D01*
X9753Y11863D01*
X9687D01*
X9655Y11831D01*
Y11732D01*
Y11798D02*
X9589Y11863D01*
Y12060D02*
Y11929D01*
X9720Y12060D01*
X9753D01*
X9786Y12027D01*
Y11962D01*
X9753Y11929D01*
Y12126D02*
X9786Y12159D01*
Y12224D01*
X9753Y12257D01*
X9720D01*
X9687Y12224D01*
Y12191D01*
Y12224D01*
X9655Y12257D01*
X9622D01*
X9589Y12224D01*
Y12159D01*
X9622Y12126D01*
X9858Y11732D02*
X10055D01*
Y11831D01*
X10022Y11863D01*
X9957D01*
X9924Y11831D01*
Y11732D01*
Y11798D02*
X9858Y11863D01*
Y12060D02*
Y11929D01*
X9990Y12060D01*
X10022D01*
X10055Y12027D01*
Y11962D01*
X10022Y11929D01*
X9858Y12257D02*
Y12126D01*
X9990Y12257D01*
X10022D01*
X10055Y12224D01*
Y12159D01*
X10022Y12126D01*
X12349Y14206D02*
X12382Y14173D01*
Y14108D01*
X12349Y14075D01*
X12218D01*
X12185Y14108D01*
Y14173D01*
X12218Y14206D01*
X12349Y14272D02*
X12382Y14304D01*
Y14370D01*
X12349Y14403D01*
X12316D01*
X12283Y14370D01*
Y14337D01*
Y14370D01*
X12251Y14403D01*
X12218D01*
X12185Y14370D01*
Y14304D01*
X12218Y14272D01*
X12382Y14600D02*
X12349Y14534D01*
X12283Y14468D01*
X12218D01*
X12185Y14501D01*
Y14567D01*
X12218Y14600D01*
X12251D01*
X12283Y14567D01*
Y14468D01*
X13068Y15781D02*
X13100Y15748D01*
Y15682D01*
X13068Y15650D01*
X12936D01*
X12904Y15682D01*
Y15748D01*
X12936Y15781D01*
X13068Y15846D02*
X13100Y15879D01*
Y15945D01*
X13068Y15978D01*
X13035D01*
X13002Y15945D01*
Y15912D01*
Y15945D01*
X12969Y15978D01*
X12936D01*
X12904Y15945D01*
Y15879D01*
X12936Y15846D01*
X13100Y16043D02*
Y16174D01*
X13068D01*
X12936Y16043D01*
X12904D01*
X5157Y7087D02*
X5190Y7120D01*
X5256D01*
X5289Y7087D01*
Y6956D01*
X5256Y6923D01*
X5190D01*
X5157Y6956D01*
X4961Y7120D02*
X5092D01*
Y7022D01*
X5026Y7055D01*
X4993D01*
X4961Y7022D01*
Y6956D01*
X4993Y6923D01*
X5059D01*
X5092Y6956D01*
X4764Y7120D02*
X4829Y7087D01*
X4895Y7022D01*
Y6956D01*
X4862Y6923D01*
X4797D01*
X4764Y6956D01*
Y6989D01*
X4797Y7022D01*
X4895D01*
X4507Y7087D02*
X4540Y7120D01*
X4606D01*
X4638Y7087D01*
Y6956D01*
X4606Y6923D01*
X4540D01*
X4507Y6956D01*
X4311Y7120D02*
X4442D01*
Y7022D01*
X4376Y7055D01*
X4343D01*
X4311Y7022D01*
Y6956D01*
X4343Y6923D01*
X4409D01*
X4442Y6956D01*
X4245Y7120D02*
X4114D01*
Y7087D01*
X4245Y6956D01*
Y6923D01*
X14455Y18013D02*
Y18210D01*
X14356D01*
X14324Y18177D01*
Y18112D01*
X14356Y18079D01*
X14455D01*
X14389D02*
X14324Y18013D01*
X14258D02*
X14192D01*
X14225D01*
Y18210D01*
X14258Y18177D01*
X13963Y18013D02*
X14094D01*
X13963Y18144D01*
Y18177D01*
X13996Y18210D01*
X14061D01*
X14094Y18177D01*
X14455Y16373D02*
Y16570D01*
X14356D01*
X14324Y16537D01*
Y16472D01*
X14356Y16439D01*
X14455D01*
X14389D02*
X14324Y16373D01*
X14258D02*
X14192D01*
X14225D01*
Y16570D01*
X14258Y16537D01*
X14094D02*
X14061Y16570D01*
X13996D01*
X13963Y16537D01*
Y16504D01*
X13996Y16472D01*
X14028D01*
X13996D01*
X13963Y16439D01*
Y16406D01*
X13996Y16373D01*
X14061D01*
X14094Y16406D01*
X14455Y17063D02*
Y17260D01*
X14356D01*
X14324Y17227D01*
Y17162D01*
X14356Y17129D01*
X14455D01*
X14389D02*
X14324Y17063D01*
X14258D02*
X14192D01*
X14225D01*
Y17260D01*
X14258Y17227D01*
X13996Y17063D02*
Y17260D01*
X14094Y17162D01*
X13963D01*
D148*
X1289Y13760D02*
X1811D01*
X1289Y10217D02*
X1811D01*
X98D02*
X246D01*
X98Y13760D02*
X246D01*
D246*
X12228Y16264D02*
G03*
X12228Y16264I-20J0D01*
G01*
X8406Y8169D02*
G03*
X8406Y8169I-20J0D01*
G01*
X1791Y19606D02*
G03*
X1791Y19606I-20J0D01*
G01*
X12228Y17228D02*
G03*
X12228Y17228I-20J0D01*
G01*
X7972Y17303D02*
X8760D01*
X7972Y16516D02*
X8760Y16516D01*
Y17303D01*
X7972D02*
X7972Y16516D01*
X13494Y14380D02*
Y15561D01*
X12510D02*
X13494D01*
X12510Y14380D02*
X13494D01*
X12510D02*
Y15561D01*
D247*
X16015Y18037D02*
D03*
M02*
