G04*
G04 #@! TF.GenerationSoftware,Altium Limited,Altium Designer,23.6.0 (18)*
G04*
G04 Layer_Color=1462238*
%FSLAX24Y24*%
%MOIN*%
G70*
G04*
G04 #@! TF.SameCoordinates,7E18E310-DAB5-435A-A8D0-C5F7F634A292*
G04*
G04*
G04 #@! TF.FilePolarity,Positive*
G04*
G01*
G75*
%ADD262C,0.0138*%
G36*
X9605Y3084D02*
X9536D01*
Y3162D01*
X9605D01*
Y3084D01*
D02*
G37*
G36*
X7441Y3169D02*
X7445D01*
X7450Y3168D01*
X7456Y3167D01*
X7463Y3166D01*
X7470Y3164D01*
X7478Y3162D01*
X7486Y3159D01*
X7494Y3156D01*
X7503Y3152D01*
X7511Y3147D01*
X7520Y3141D01*
X7528Y3135D01*
X7536Y3128D01*
X7536Y3127D01*
X7537Y3126D01*
X7539Y3125D01*
X7541Y3122D01*
X7543Y3119D01*
X7546Y3116D01*
X7549Y3111D01*
X7552Y3106D01*
X7556Y3100D01*
X7559Y3094D01*
X7563Y3087D01*
X7567Y3079D01*
X7570Y3070D01*
X7573Y3061D01*
X7576Y3052D01*
X7579Y3041D01*
X7507Y3020D01*
Y3021D01*
X7507Y3022D01*
X7506Y3024D01*
X7506Y3026D01*
X7505Y3029D01*
X7504Y3032D01*
X7501Y3040D01*
X7497Y3049D01*
X7492Y3058D01*
X7487Y3067D01*
X7479Y3074D01*
X7479Y3075D01*
X7478Y3075D01*
X7477Y3076D01*
X7476Y3077D01*
X7471Y3081D01*
X7466Y3084D01*
X7459Y3088D01*
X7450Y3091D01*
X7441Y3093D01*
X7436Y3094D01*
X7427D01*
X7424Y3093D01*
X7421Y3093D01*
X7417Y3092D01*
X7413Y3091D01*
X7408Y3089D01*
X7403Y3088D01*
X7397Y3085D01*
X7392Y3082D01*
X7386Y3079D01*
X7381Y3075D01*
X7376Y3070D01*
X7370Y3065D01*
X7365Y3059D01*
X7365Y3058D01*
X7365Y3057D01*
X7363Y3055D01*
X7362Y3052D01*
X7360Y3048D01*
X7358Y3043D01*
X7355Y3038D01*
X7353Y3032D01*
X7351Y3024D01*
X7348Y3016D01*
X7346Y3006D01*
X7345Y2996D01*
X7343Y2985D01*
X7341Y2973D01*
X7341Y2959D01*
X7341Y2945D01*
Y2944D01*
Y2944D01*
Y2942D01*
Y2941D01*
Y2937D01*
X7341Y2931D01*
X7341Y2925D01*
X7342Y2917D01*
X7343Y2908D01*
X7344Y2899D01*
X7347Y2880D01*
X7351Y2860D01*
X7354Y2851D01*
X7357Y2842D01*
X7361Y2834D01*
X7365Y2827D01*
X7365Y2826D01*
X7366Y2825D01*
X7368Y2824D01*
X7369Y2821D01*
X7372Y2819D01*
X7375Y2816D01*
X7378Y2813D01*
X7382Y2810D01*
X7386Y2806D01*
X7391Y2803D01*
X7402Y2797D01*
X7408Y2795D01*
X7415Y2793D01*
X7422Y2793D01*
X7429Y2792D01*
X7431D01*
X7434Y2793D01*
X7436Y2793D01*
X7439Y2793D01*
X7446Y2795D01*
X7453Y2797D01*
X7462Y2802D01*
X7466Y2804D01*
X7470Y2807D01*
X7474Y2810D01*
X7478Y2814D01*
X7479Y2815D01*
X7479Y2815D01*
X7480Y2817D01*
X7482Y2819D01*
X7483Y2821D01*
X7485Y2824D01*
X7487Y2828D01*
X7490Y2831D01*
X7492Y2836D01*
X7495Y2842D01*
X7497Y2847D01*
X7500Y2854D01*
X7502Y2861D01*
X7505Y2868D01*
X7507Y2876D01*
X7509Y2885D01*
X7579Y2858D01*
Y2857D01*
X7578Y2855D01*
X7577Y2851D01*
X7576Y2846D01*
X7574Y2840D01*
X7572Y2833D01*
X7569Y2825D01*
X7566Y2817D01*
X7563Y2808D01*
X7559Y2799D01*
X7554Y2790D01*
X7549Y2782D01*
X7543Y2773D01*
X7538Y2765D01*
X7531Y2757D01*
X7524Y2750D01*
X7524Y2750D01*
X7522Y2749D01*
X7520Y2747D01*
X7517Y2745D01*
X7514Y2742D01*
X7509Y2740D01*
X7504Y2737D01*
X7498Y2734D01*
X7492Y2730D01*
X7484Y2727D01*
X7477Y2724D01*
X7469Y2722D01*
X7459Y2720D01*
X7450Y2718D01*
X7441Y2717D01*
X7430Y2717D01*
X7427D01*
X7424Y2717D01*
X7418Y2717D01*
X7413Y2718D01*
X7406Y2720D01*
X7398Y2721D01*
X7390Y2723D01*
X7381Y2726D01*
X7372Y2730D01*
X7362Y2734D01*
X7352Y2739D01*
X7343Y2745D01*
X7334Y2752D01*
X7324Y2761D01*
X7316Y2770D01*
X7316Y2771D01*
X7314Y2773D01*
X7312Y2777D01*
X7308Y2782D01*
X7305Y2788D01*
X7300Y2796D01*
X7296Y2805D01*
X7291Y2815D01*
X7286Y2826D01*
X7282Y2839D01*
X7278Y2853D01*
X7274Y2868D01*
X7271Y2884D01*
X7268Y2901D01*
X7267Y2920D01*
X7266Y2939D01*
Y2939D01*
Y2940D01*
Y2942D01*
Y2944D01*
Y2946D01*
X7267Y2950D01*
Y2953D01*
X7267Y2957D01*
X7268Y2967D01*
X7269Y2978D01*
X7271Y2990D01*
X7272Y3003D01*
X7275Y3017D01*
X7279Y3031D01*
X7282Y3046D01*
X7288Y3060D01*
X7293Y3074D01*
X7300Y3088D01*
X7308Y3102D01*
X7317Y3114D01*
X7317Y3115D01*
X7319Y3116D01*
X7321Y3119D01*
X7324Y3123D01*
X7329Y3127D01*
X7334Y3132D01*
X7341Y3136D01*
X7348Y3142D01*
X7356Y3147D01*
X7365Y3152D01*
X7375Y3157D01*
X7385Y3161D01*
X7397Y3164D01*
X7409Y3167D01*
X7421Y3169D01*
X7435Y3169D01*
X7438D01*
X7441Y3169D01*
D02*
G37*
G36*
X9049Y2724D02*
X8985D01*
Y2770D01*
X8985Y2769D01*
X8984Y2768D01*
X8982Y2766D01*
X8979Y2761D01*
X8975Y2755D01*
X8969Y2749D01*
X8963Y2742D01*
X8956Y2736D01*
X8948Y2730D01*
X8947D01*
X8947Y2730D01*
X8946Y2729D01*
X8944Y2728D01*
X8940Y2726D01*
X8934Y2724D01*
X8928Y2721D01*
X8920Y2719D01*
X8912Y2717D01*
X8904Y2717D01*
X8902D01*
X8899Y2717D01*
X8896Y2717D01*
X8893Y2718D01*
X8888Y2719D01*
X8883Y2720D01*
X8878Y2722D01*
X8872Y2724D01*
X8866Y2727D01*
X8860Y2731D01*
X8853Y2735D01*
X8847Y2740D01*
X8840Y2745D01*
X8834Y2752D01*
X8828Y2760D01*
X8827Y2760D01*
X8826Y2762D01*
X8825Y2764D01*
X8822Y2768D01*
X8820Y2772D01*
X8818Y2778D01*
X8815Y2784D01*
X8812Y2792D01*
X8808Y2800D01*
X8805Y2810D01*
X8803Y2820D01*
X8801Y2831D01*
X8798Y2843D01*
X8797Y2856D01*
X8796Y2869D01*
X8795Y2884D01*
Y2885D01*
Y2885D01*
Y2888D01*
X8796Y2892D01*
Y2898D01*
X8796Y2904D01*
X8797Y2912D01*
X8798Y2921D01*
X8799Y2930D01*
X8801Y2940D01*
X8803Y2950D01*
X8805Y2960D01*
X8808Y2970D01*
X8812Y2980D01*
X8816Y2990D01*
X8821Y2999D01*
X8827Y3007D01*
X8827Y3008D01*
X8828Y3009D01*
X8830Y3011D01*
X8832Y3014D01*
X8836Y3017D01*
X8839Y3020D01*
X8843Y3024D01*
X8848Y3028D01*
X8854Y3032D01*
X8860Y3036D01*
X8866Y3039D01*
X8873Y3042D01*
X8880Y3045D01*
X8888Y3047D01*
X8896Y3048D01*
X8905Y3049D01*
X8909D01*
X8912Y3048D01*
X8918Y3047D01*
X8924Y3046D01*
X8931Y3044D01*
X8938Y3041D01*
X8945Y3037D01*
X8946D01*
X8946Y3037D01*
X8948Y3035D01*
X8952Y3032D01*
X8957Y3029D01*
X8962Y3024D01*
X8968Y3018D01*
X8974Y3012D01*
X8980Y3004D01*
Y3162D01*
X9049D01*
Y2724D01*
D02*
G37*
G36*
X10992Y3048D02*
X10995D01*
X10999Y3047D01*
X11004Y3046D01*
X11009Y3045D01*
X11014Y3043D01*
X11020Y3041D01*
X11026Y3038D01*
X11032Y3035D01*
X11039Y3031D01*
X11045Y3025D01*
X11052Y3020D01*
X11059Y3013D01*
X11065Y3006D01*
X11065Y3005D01*
X11066Y3004D01*
X11068Y3001D01*
X11070Y2998D01*
X11072Y2994D01*
X11075Y2988D01*
X11078Y2982D01*
X11081Y2975D01*
X11084Y2967D01*
X11087Y2958D01*
X11090Y2948D01*
X11092Y2937D01*
X11094Y2925D01*
X11096Y2913D01*
X11097Y2900D01*
X11097Y2885D01*
Y2885D01*
Y2884D01*
Y2882D01*
Y2877D01*
X11097Y2872D01*
X11096Y2865D01*
X11095Y2857D01*
X11094Y2849D01*
X11093Y2839D01*
X11091Y2829D01*
X11089Y2819D01*
X11087Y2808D01*
X11083Y2798D01*
X11080Y2788D01*
X11075Y2778D01*
X11070Y2769D01*
X11065Y2760D01*
X11064Y2759D01*
X11063Y2758D01*
X11062Y2756D01*
X11059Y2753D01*
X11056Y2750D01*
X11052Y2746D01*
X11048Y2742D01*
X11043Y2738D01*
X11038Y2734D01*
X11032Y2730D01*
X11025Y2727D01*
X11019Y2724D01*
X11011Y2720D01*
X11004Y2718D01*
X10996Y2717D01*
X10988Y2717D01*
X10984D01*
X10980Y2717D01*
X10975Y2718D01*
X10969Y2719D01*
X10963Y2720D01*
X10956Y2723D01*
X10949Y2726D01*
X10948Y2727D01*
X10946Y2728D01*
X10943Y2731D01*
X10938Y2734D01*
X10933Y2739D01*
X10926Y2746D01*
X10920Y2753D01*
X10912Y2762D01*
Y2603D01*
X10843D01*
Y3041D01*
X10907D01*
Y2995D01*
X10907Y2996D01*
X10908Y2997D01*
X10909Y2998D01*
X10912Y3003D01*
X10916Y3009D01*
X10921Y3015D01*
X10927Y3022D01*
X10934Y3028D01*
X10941Y3034D01*
X10942D01*
X10942Y3034D01*
X10944Y3035D01*
X10945Y3036D01*
X10950Y3039D01*
X10955Y3041D01*
X10962Y3044D01*
X10970Y3046D01*
X10979Y3048D01*
X10988Y3049D01*
X10990D01*
X10992Y3048D01*
D02*
G37*
G36*
X8373Y3048D02*
X8376D01*
X8380Y3047D01*
X8384Y3046D01*
X8389Y3045D01*
X8395Y3043D01*
X8401Y3041D01*
X8407Y3038D01*
X8413Y3035D01*
X8420Y3031D01*
X8426Y3025D01*
X8433Y3020D01*
X8439Y3013D01*
X8445Y3006D01*
X8446Y3005D01*
X8447Y3004D01*
X8448Y3001D01*
X8451Y2998D01*
X8453Y2994D01*
X8455Y2988D01*
X8458Y2982D01*
X8461Y2975D01*
X8465Y2967D01*
X8468Y2958D01*
X8470Y2948D01*
X8472Y2937D01*
X8475Y2925D01*
X8476Y2913D01*
X8477Y2900D01*
X8478Y2885D01*
Y2885D01*
Y2884D01*
Y2882D01*
Y2877D01*
X8477Y2872D01*
X8477Y2865D01*
X8476Y2857D01*
X8475Y2849D01*
X8474Y2839D01*
X8472Y2829D01*
X8470Y2819D01*
X8467Y2808D01*
X8464Y2798D01*
X8460Y2788D01*
X8456Y2778D01*
X8451Y2769D01*
X8445Y2760D01*
X8445Y2759D01*
X8444Y2758D01*
X8442Y2756D01*
X8440Y2753D01*
X8437Y2750D01*
X8433Y2746D01*
X8428Y2742D01*
X8423Y2738D01*
X8418Y2734D01*
X8413Y2730D01*
X8406Y2727D01*
X8399Y2724D01*
X8392Y2720D01*
X8385Y2718D01*
X8377Y2717D01*
X8368Y2717D01*
X8365D01*
X8361Y2717D01*
X8356Y2718D01*
X8350Y2719D01*
X8343Y2720D01*
X8337Y2723D01*
X8330Y2726D01*
X8329Y2727D01*
X8327Y2728D01*
X8323Y2731D01*
X8319Y2734D01*
X8313Y2739D01*
X8307Y2746D01*
X8300Y2753D01*
X8293Y2762D01*
Y2603D01*
X8224D01*
Y3041D01*
X8288D01*
Y2995D01*
X8288Y2996D01*
X8289Y2997D01*
X8290Y2998D01*
X8293Y3003D01*
X8297Y3009D01*
X8302Y3015D01*
X8308Y3022D01*
X8315Y3028D01*
X8322Y3034D01*
X8323D01*
X8323Y3034D01*
X8324Y3035D01*
X8326Y3036D01*
X8330Y3039D01*
X8336Y3041D01*
X8343Y3044D01*
X8350Y3046D01*
X8359Y3048D01*
X8368Y3049D01*
X8371D01*
X8373Y3048D01*
D02*
G37*
G36*
X8066D02*
X8069D01*
X8073Y3047D01*
X8078Y3046D01*
X8083Y3045D01*
X8088Y3043D01*
X8094Y3041D01*
X8101Y3038D01*
X8107Y3035D01*
X8113Y3031D01*
X8120Y3025D01*
X8126Y3020D01*
X8133Y3013D01*
X8139Y3006D01*
X8139Y3005D01*
X8140Y3004D01*
X8142Y3001D01*
X8144Y2998D01*
X8146Y2994D01*
X8149Y2988D01*
X8152Y2982D01*
X8155Y2975D01*
X8158Y2967D01*
X8161Y2958D01*
X8164Y2948D01*
X8166Y2937D01*
X8168Y2925D01*
X8170Y2913D01*
X8171Y2900D01*
X8171Y2885D01*
Y2885D01*
Y2884D01*
Y2882D01*
Y2877D01*
X8171Y2872D01*
X8170Y2865D01*
X8170Y2857D01*
X8169Y2849D01*
X8167Y2839D01*
X8166Y2829D01*
X8163Y2819D01*
X8161Y2808D01*
X8158Y2798D01*
X8154Y2788D01*
X8149Y2778D01*
X8145Y2769D01*
X8139Y2760D01*
X8139Y2759D01*
X8138Y2758D01*
X8136Y2756D01*
X8133Y2753D01*
X8130Y2750D01*
X8126Y2746D01*
X8122Y2742D01*
X8117Y2738D01*
X8112Y2734D01*
X8106Y2730D01*
X8100Y2727D01*
X8093Y2724D01*
X8086Y2720D01*
X8078Y2718D01*
X8070Y2717D01*
X8062Y2717D01*
X8059D01*
X8055Y2717D01*
X8049Y2718D01*
X8044Y2719D01*
X8037Y2720D01*
X8031Y2723D01*
X8024Y2726D01*
X8023Y2727D01*
X8021Y2728D01*
X8017Y2731D01*
X8012Y2734D01*
X8007Y2739D01*
X8000Y2746D01*
X7994Y2753D01*
X7986Y2762D01*
Y2603D01*
X7917D01*
Y3041D01*
X7981D01*
Y2995D01*
X7982Y2996D01*
X7983Y2997D01*
X7983Y2998D01*
X7986Y3003D01*
X7990Y3009D01*
X7996Y3015D01*
X8001Y3022D01*
X8008Y3028D01*
X8016Y3034D01*
X8016D01*
X8017Y3034D01*
X8018Y3035D01*
X8020Y3036D01*
X8024Y3039D01*
X8030Y3041D01*
X8036Y3044D01*
X8044Y3046D01*
X8053Y3048D01*
X8062Y3049D01*
X8064D01*
X8066Y3048D01*
D02*
G37*
G36*
X10057D02*
X10061D01*
X10066Y3048D01*
X10072Y3047D01*
X10078Y3046D01*
X10090Y3044D01*
X10103Y3040D01*
X10116Y3035D01*
X10121Y3032D01*
X10126Y3029D01*
X10127Y3028D01*
X10128Y3028D01*
X10129Y3026D01*
X10131Y3025D01*
X10133Y3022D01*
X10136Y3020D01*
X10138Y3017D01*
X10141Y3013D01*
X10144Y3009D01*
X10147Y3004D01*
X10150Y2999D01*
X10154Y2993D01*
X10157Y2987D01*
X10159Y2980D01*
X10162Y2972D01*
X10164Y2964D01*
X10099Y2950D01*
Y2950D01*
X10099Y2952D01*
X10098Y2953D01*
X10097Y2956D01*
X10096Y2959D01*
X10095Y2962D01*
X10092Y2966D01*
X10090Y2969D01*
X10087Y2973D01*
X10084Y2976D01*
X10079Y2980D01*
X10075Y2982D01*
X10070Y2985D01*
X10064Y2987D01*
X10057Y2988D01*
X10050Y2988D01*
X10046D01*
X10041Y2988D01*
X10036Y2987D01*
X10030Y2987D01*
X10024Y2985D01*
X10018Y2984D01*
X10013Y2981D01*
X10013Y2980D01*
X10012Y2980D01*
X10010Y2978D01*
X10008Y2976D01*
X10006Y2973D01*
X10005Y2970D01*
X10003Y2966D01*
X10003Y2962D01*
Y2961D01*
Y2960D01*
X10003Y2958D01*
X10004Y2956D01*
X10005Y2953D01*
X10007Y2950D01*
X10009Y2947D01*
X10012Y2944D01*
X10013Y2944D01*
X10015Y2943D01*
X10016Y2942D01*
X10019Y2941D01*
X10021Y2940D01*
X10024Y2939D01*
X10028Y2938D01*
X10032Y2936D01*
X10037Y2934D01*
X10043Y2932D01*
X10049Y2930D01*
X10057Y2928D01*
X10065Y2925D01*
X10074Y2923D01*
X10075D01*
X10077Y2922D01*
X10080Y2921D01*
X10083Y2920D01*
X10088Y2918D01*
X10093Y2917D01*
X10099Y2914D01*
X10105Y2912D01*
X10119Y2906D01*
X10131Y2899D01*
X10137Y2896D01*
X10143Y2892D01*
X10148Y2888D01*
X10152Y2883D01*
X10153Y2883D01*
X10153Y2883D01*
X10154Y2881D01*
X10155Y2879D01*
X10157Y2877D01*
X10159Y2874D01*
X10161Y2871D01*
X10163Y2867D01*
X10164Y2863D01*
X10166Y2859D01*
X10170Y2848D01*
X10172Y2836D01*
X10173Y2829D01*
Y2822D01*
Y2822D01*
Y2820D01*
Y2818D01*
X10172Y2814D01*
X10172Y2810D01*
X10171Y2806D01*
X10170Y2801D01*
X10169Y2796D01*
X10167Y2790D01*
X10165Y2783D01*
X10162Y2777D01*
X10159Y2771D01*
X10156Y2764D01*
X10151Y2758D01*
X10147Y2752D01*
X10141Y2746D01*
X10140Y2746D01*
X10140Y2745D01*
X10138Y2744D01*
X10135Y2741D01*
X10132Y2739D01*
X10128Y2737D01*
X10123Y2734D01*
X10118Y2731D01*
X10112Y2729D01*
X10106Y2726D01*
X10098Y2724D01*
X10091Y2721D01*
X10083Y2719D01*
X10074Y2718D01*
X10064Y2717D01*
X10054Y2717D01*
X10049D01*
X10046Y2717D01*
X10041Y2717D01*
X10036Y2718D01*
X10031Y2719D01*
X10025Y2720D01*
X10012Y2723D01*
X10005Y2725D01*
X9998Y2727D01*
X9991Y2730D01*
X9984Y2733D01*
X9978Y2737D01*
X9972Y2741D01*
X9971Y2742D01*
X9970Y2743D01*
X9969Y2744D01*
X9967Y2746D01*
X9964Y2749D01*
X9961Y2752D01*
X9958Y2755D01*
X9955Y2760D01*
X9951Y2765D01*
X9948Y2770D01*
X9944Y2776D01*
X9941Y2783D01*
X9937Y2790D01*
X9935Y2797D01*
X9932Y2805D01*
X9930Y2814D01*
X9999Y2827D01*
Y2827D01*
X9999Y2825D01*
X10000Y2823D01*
X10001Y2819D01*
X10002Y2816D01*
X10004Y2811D01*
X10006Y2807D01*
X10009Y2802D01*
X10012Y2797D01*
X10016Y2793D01*
X10021Y2789D01*
X10026Y2785D01*
X10032Y2782D01*
X10038Y2779D01*
X10046Y2778D01*
X10054Y2777D01*
X10058D01*
X10063Y2778D01*
X10068Y2779D01*
X10074Y2779D01*
X10080Y2781D01*
X10086Y2783D01*
X10091Y2786D01*
X10092Y2787D01*
X10093Y2788D01*
X10095Y2790D01*
X10097Y2793D01*
X10099Y2797D01*
X10102Y2801D01*
X10103Y2806D01*
X10103Y2811D01*
Y2812D01*
Y2813D01*
X10103Y2815D01*
X10102Y2817D01*
X10101Y2823D01*
X10099Y2825D01*
X10098Y2828D01*
X10097Y2828D01*
X10096Y2829D01*
X10095Y2830D01*
X10093Y2831D01*
X10090Y2833D01*
X10086Y2835D01*
X10081Y2836D01*
X10075Y2838D01*
X10075D01*
X10074Y2838D01*
X10073D01*
X10072Y2839D01*
X10067Y2840D01*
X10062Y2842D01*
X10055Y2844D01*
X10047Y2846D01*
X10039Y2849D01*
X10030Y2852D01*
X10012Y2859D01*
X10003Y2862D01*
X9994Y2866D01*
X9986Y2869D01*
X9979Y2873D01*
X9973Y2877D01*
X9967Y2881D01*
X9967Y2882D01*
X9966Y2883D01*
X9965Y2884D01*
X9963Y2886D01*
X9961Y2889D01*
X9958Y2892D01*
X9956Y2895D01*
X9953Y2900D01*
X9950Y2904D01*
X9948Y2909D01*
X9946Y2915D01*
X9943Y2921D01*
X9942Y2928D01*
X9940Y2935D01*
X9939Y2943D01*
X9939Y2951D01*
Y2951D01*
Y2953D01*
Y2955D01*
X9939Y2958D01*
X9940Y2962D01*
X9940Y2966D01*
X9941Y2971D01*
X9942Y2977D01*
X9946Y2988D01*
X9948Y2994D01*
X9951Y3000D01*
X9954Y3005D01*
X9958Y3011D01*
X9962Y3017D01*
X9967Y3022D01*
X9967Y3022D01*
X9968Y3023D01*
X9970Y3025D01*
X9972Y3026D01*
X9975Y3028D01*
X9979Y3030D01*
X9983Y3033D01*
X9987Y3036D01*
X9993Y3038D01*
X9999Y3040D01*
X10006Y3043D01*
X10013Y3045D01*
X10021Y3046D01*
X10030Y3047D01*
X10039Y3048D01*
X10049Y3049D01*
X10053D01*
X10057Y3048D01*
D02*
G37*
G36*
X9390Y2724D02*
X9328D01*
X9223Y3041D01*
X9295D01*
X9344Y2879D01*
X9358Y2825D01*
X9373Y2879D01*
X9422Y3041D01*
X9493D01*
X9390Y2724D01*
D02*
G37*
G36*
X9787Y3048D02*
X9791D01*
X9796Y3048D01*
X9801Y3047D01*
X9812Y3046D01*
X9823Y3043D01*
X9834Y3040D01*
X9838Y3038D01*
X9843Y3036D01*
X9843D01*
X9844Y3036D01*
X9847Y3034D01*
X9851Y3031D01*
X9856Y3027D01*
X9861Y3022D01*
X9866Y3017D01*
X9872Y3010D01*
X9876Y3003D01*
Y3002D01*
X9876Y3002D01*
X9877Y3001D01*
X9878Y2999D01*
X9878Y2996D01*
X9879Y2993D01*
X9880Y2990D01*
X9881Y2985D01*
X9882Y2980D01*
X9883Y2975D01*
X9884Y2969D01*
X9884Y2962D01*
X9885Y2954D01*
X9886Y2946D01*
X9886Y2936D01*
Y2926D01*
X9885Y2828D01*
Y2828D01*
Y2826D01*
Y2824D01*
Y2821D01*
Y2818D01*
Y2814D01*
X9886Y2805D01*
X9886Y2795D01*
X9887Y2785D01*
X9887Y2775D01*
X9888Y2771D01*
X9888Y2767D01*
Y2766D01*
X9889Y2763D01*
X9890Y2759D01*
X9891Y2754D01*
X9893Y2748D01*
X9895Y2740D01*
X9898Y2732D01*
X9901Y2724D01*
X9833D01*
X9824Y2758D01*
Y2758D01*
X9823Y2758D01*
X9821Y2755D01*
X9817Y2751D01*
X9812Y2747D01*
X9807Y2741D01*
X9800Y2736D01*
X9793Y2731D01*
X9786Y2727D01*
X9785Y2727D01*
X9782Y2725D01*
X9778Y2724D01*
X9773Y2722D01*
X9766Y2720D01*
X9759Y2718D01*
X9751Y2717D01*
X9743Y2717D01*
X9739D01*
X9737Y2717D01*
X9733Y2717D01*
X9730Y2718D01*
X9721Y2720D01*
X9711Y2723D01*
X9706Y2725D01*
X9700Y2727D01*
X9696Y2730D01*
X9690Y2734D01*
X9686Y2738D01*
X9681Y2742D01*
X9680Y2742D01*
X9680Y2743D01*
X9679Y2745D01*
X9677Y2747D01*
X9675Y2749D01*
X9673Y2752D01*
X9671Y2756D01*
X9669Y2760D01*
X9666Y2765D01*
X9664Y2770D01*
X9662Y2776D01*
X9661Y2782D01*
X9659Y2788D01*
X9658Y2795D01*
X9657Y2802D01*
X9657Y2810D01*
Y2810D01*
Y2811D01*
Y2813D01*
Y2814D01*
X9657Y2820D01*
X9658Y2826D01*
X9659Y2833D01*
X9661Y2841D01*
X9663Y2849D01*
X9666Y2857D01*
Y2857D01*
X9667Y2858D01*
X9668Y2860D01*
X9670Y2864D01*
X9674Y2868D01*
X9678Y2873D01*
X9682Y2879D01*
X9688Y2884D01*
X9694Y2889D01*
X9695Y2889D01*
X9696Y2890D01*
X9698Y2891D01*
X9700Y2892D01*
X9702Y2893D01*
X9705Y2894D01*
X9708Y2896D01*
X9712Y2897D01*
X9716Y2899D01*
X9721Y2901D01*
X9726Y2903D01*
X9732Y2905D01*
X9738Y2907D01*
X9745Y2908D01*
X9752Y2910D01*
X9752D01*
X9754Y2911D01*
X9756Y2911D01*
X9760Y2912D01*
X9764Y2913D01*
X9768Y2914D01*
X9773Y2915D01*
X9778Y2917D01*
X9789Y2920D01*
X9800Y2924D01*
X9806Y2925D01*
X9811Y2928D01*
X9815Y2929D01*
X9819Y2931D01*
Y2932D01*
Y2932D01*
Y2934D01*
Y2935D01*
Y2940D01*
X9818Y2945D01*
X9818Y2951D01*
X9817Y2957D01*
X9816Y2962D01*
X9815Y2966D01*
Y2966D01*
X9814Y2967D01*
X9813Y2969D01*
X9812Y2970D01*
X9810Y2973D01*
X9807Y2975D01*
X9804Y2977D01*
X9801Y2979D01*
X9800Y2980D01*
X9799Y2980D01*
X9797Y2981D01*
X9793Y2982D01*
X9790Y2983D01*
X9785Y2984D01*
X9779Y2984D01*
X9769D01*
X9766Y2984D01*
X9762Y2984D01*
X9757Y2982D01*
X9752Y2981D01*
X9748Y2979D01*
X9743Y2976D01*
X9743Y2975D01*
X9741Y2974D01*
X9740Y2972D01*
X9737Y2969D01*
X9734Y2964D01*
X9731Y2959D01*
X9729Y2953D01*
X9726Y2945D01*
X9664Y2958D01*
Y2959D01*
X9664Y2960D01*
X9665Y2963D01*
X9666Y2966D01*
X9667Y2970D01*
X9668Y2974D01*
X9671Y2980D01*
X9672Y2985D01*
X9678Y2996D01*
X9684Y3008D01*
X9692Y3018D01*
X9696Y3023D01*
X9701Y3027D01*
X9701Y3028D01*
X9702Y3028D01*
X9703Y3029D01*
X9706Y3031D01*
X9708Y3032D01*
X9712Y3034D01*
X9716Y3036D01*
X9720Y3038D01*
X9725Y3040D01*
X9731Y3042D01*
X9737Y3044D01*
X9744Y3045D01*
X9751Y3047D01*
X9759Y3048D01*
X9767Y3048D01*
X9776Y3049D01*
X9783D01*
X9787Y3048D01*
D02*
G37*
G36*
X9605Y2724D02*
X9536D01*
Y3041D01*
X9605D01*
Y2724D01*
D02*
G37*
G36*
X7753Y3048D02*
X7757D01*
X7762Y3048D01*
X7767Y3047D01*
X7778Y3046D01*
X7789Y3043D01*
X7799Y3040D01*
X7804Y3038D01*
X7809Y3036D01*
X7809D01*
X7809Y3036D01*
X7813Y3034D01*
X7816Y3031D01*
X7821Y3027D01*
X7827Y3022D01*
X7832Y3017D01*
X7837Y3010D01*
X7842Y3003D01*
Y3002D01*
X7842Y3002D01*
X7843Y3001D01*
X7844Y2999D01*
X7844Y2996D01*
X7845Y2993D01*
X7846Y2990D01*
X7847Y2985D01*
X7848Y2980D01*
X7849Y2975D01*
X7850Y2969D01*
X7850Y2962D01*
X7851Y2954D01*
X7851Y2946D01*
X7852Y2936D01*
Y2926D01*
X7851Y2828D01*
Y2828D01*
Y2826D01*
Y2824D01*
Y2821D01*
Y2818D01*
Y2814D01*
X7851Y2805D01*
X7852Y2795D01*
X7852Y2785D01*
X7853Y2775D01*
X7854Y2771D01*
X7854Y2767D01*
Y2766D01*
X7855Y2763D01*
X7856Y2759D01*
X7857Y2754D01*
X7859Y2748D01*
X7861Y2740D01*
X7864Y2732D01*
X7867Y2724D01*
X7799D01*
X7789Y2758D01*
Y2758D01*
X7789Y2758D01*
X7786Y2755D01*
X7783Y2751D01*
X7778Y2747D01*
X7772Y2741D01*
X7766Y2736D01*
X7759Y2731D01*
X7751Y2727D01*
X7750Y2727D01*
X7748Y2725D01*
X7744Y2724D01*
X7739Y2722D01*
X7732Y2720D01*
X7725Y2718D01*
X7717Y2717D01*
X7709Y2717D01*
X7705D01*
X7702Y2717D01*
X7699Y2717D01*
X7695Y2718D01*
X7687Y2720D01*
X7677Y2723D01*
X7671Y2725D01*
X7666Y2727D01*
X7661Y2730D01*
X7656Y2734D01*
X7651Y2738D01*
X7646Y2742D01*
X7646Y2742D01*
X7646Y2743D01*
X7644Y2745D01*
X7643Y2747D01*
X7641Y2749D01*
X7639Y2752D01*
X7637Y2756D01*
X7635Y2760D01*
X7632Y2765D01*
X7630Y2770D01*
X7628Y2776D01*
X7626Y2782D01*
X7625Y2788D01*
X7623Y2795D01*
X7623Y2802D01*
X7622Y2810D01*
Y2810D01*
Y2811D01*
Y2813D01*
Y2814D01*
X7623Y2820D01*
X7624Y2826D01*
X7625Y2833D01*
X7626Y2841D01*
X7629Y2849D01*
X7632Y2857D01*
Y2857D01*
X7632Y2858D01*
X7634Y2860D01*
X7636Y2864D01*
X7639Y2868D01*
X7643Y2873D01*
X7648Y2879D01*
X7654Y2884D01*
X7660Y2889D01*
X7661Y2889D01*
X7662Y2890D01*
X7664Y2891D01*
X7665Y2892D01*
X7668Y2893D01*
X7671Y2894D01*
X7674Y2896D01*
X7678Y2897D01*
X7682Y2899D01*
X7687Y2901D01*
X7692Y2903D01*
X7698Y2905D01*
X7704Y2907D01*
X7711Y2908D01*
X7718Y2910D01*
X7718D01*
X7720Y2911D01*
X7722Y2911D01*
X7726Y2912D01*
X7730Y2913D01*
X7734Y2914D01*
X7739Y2915D01*
X7744Y2917D01*
X7755Y2920D01*
X7766Y2924D01*
X7771Y2925D01*
X7776Y2928D01*
X7781Y2929D01*
X7785Y2931D01*
Y2932D01*
Y2932D01*
Y2934D01*
Y2935D01*
Y2940D01*
X7784Y2945D01*
X7784Y2951D01*
X7783Y2957D01*
X7782Y2962D01*
X7781Y2966D01*
Y2966D01*
X7780Y2967D01*
X7779Y2969D01*
X7778Y2970D01*
X7775Y2973D01*
X7773Y2975D01*
X7770Y2977D01*
X7767Y2979D01*
X7766Y2980D01*
X7765Y2980D01*
X7763Y2981D01*
X7759Y2982D01*
X7755Y2983D01*
X7750Y2984D01*
X7745Y2984D01*
X7735D01*
X7732Y2984D01*
X7728Y2984D01*
X7723Y2982D01*
X7718Y2981D01*
X7713Y2979D01*
X7709Y2976D01*
X7709Y2975D01*
X7707Y2974D01*
X7705Y2972D01*
X7703Y2969D01*
X7700Y2964D01*
X7697Y2959D01*
X7695Y2953D01*
X7692Y2945D01*
X7629Y2958D01*
Y2959D01*
X7630Y2960D01*
X7631Y2963D01*
X7632Y2966D01*
X7633Y2970D01*
X7634Y2974D01*
X7636Y2980D01*
X7638Y2985D01*
X7643Y2996D01*
X7650Y3008D01*
X7657Y3018D01*
X7662Y3023D01*
X7667Y3027D01*
X7667Y3028D01*
X7668Y3028D01*
X7669Y3029D01*
X7671Y3031D01*
X7674Y3032D01*
X7678Y3034D01*
X7681Y3036D01*
X7686Y3038D01*
X7691Y3040D01*
X7697Y3042D01*
X7703Y3044D01*
X7709Y3045D01*
X7717Y3047D01*
X7725Y3048D01*
X7733Y3048D01*
X7742Y3049D01*
X7749D01*
X7753Y3048D01*
D02*
G37*
G36*
X10663Y3048D02*
X10667Y3048D01*
X10673Y3047D01*
X10679Y3046D01*
X10685Y3045D01*
X10693Y3043D01*
X10700Y3040D01*
X10709Y3036D01*
X10717Y3032D01*
X10725Y3028D01*
X10733Y3022D01*
X10741Y3015D01*
X10748Y3008D01*
X10755Y2999D01*
X10756Y2999D01*
X10757Y2997D01*
X10759Y2994D01*
X10761Y2991D01*
X10764Y2986D01*
X10767Y2980D01*
X10770Y2974D01*
X10774Y2966D01*
X10777Y2958D01*
X10780Y2949D01*
X10783Y2940D01*
X10786Y2930D01*
X10788Y2919D01*
X10790Y2908D01*
X10791Y2897D01*
X10792Y2884D01*
Y2884D01*
Y2882D01*
Y2880D01*
X10791Y2876D01*
Y2872D01*
X10791Y2867D01*
X10790Y2861D01*
X10789Y2855D01*
X10788Y2848D01*
X10787Y2841D01*
X10784Y2826D01*
X10779Y2811D01*
X10776Y2803D01*
X10773Y2796D01*
Y2795D01*
X10772Y2794D01*
X10771Y2792D01*
X10769Y2789D01*
X10768Y2786D01*
X10765Y2782D01*
X10760Y2773D01*
X10753Y2764D01*
X10744Y2754D01*
X10734Y2745D01*
X10729Y2740D01*
X10723Y2736D01*
X10723D01*
X10722Y2735D01*
X10720Y2734D01*
X10718Y2733D01*
X10715Y2732D01*
X10712Y2730D01*
X10708Y2728D01*
X10704Y2727D01*
X10694Y2723D01*
X10683Y2720D01*
X10670Y2717D01*
X10664Y2717D01*
X10657Y2717D01*
X10654D01*
X10651Y2717D01*
X10647Y2717D01*
X10643Y2718D01*
X10637Y2719D01*
X10630Y2720D01*
X10623Y2722D01*
X10616Y2724D01*
X10608Y2727D01*
X10600Y2731D01*
X10592Y2735D01*
X10584Y2740D01*
X10576Y2746D01*
X10568Y2753D01*
X10561Y2761D01*
X10560Y2761D01*
X10559Y2763D01*
X10557Y2765D01*
X10555Y2769D01*
X10552Y2773D01*
X10549Y2779D01*
X10546Y2786D01*
X10542Y2793D01*
X10538Y2801D01*
X10535Y2811D01*
X10532Y2821D01*
X10529Y2833D01*
X10526Y2845D01*
X10525Y2858D01*
X10523Y2872D01*
X10523Y2887D01*
Y2887D01*
Y2889D01*
Y2891D01*
X10523Y2895D01*
Y2899D01*
X10524Y2904D01*
X10525Y2909D01*
X10525Y2915D01*
X10526Y2921D01*
X10527Y2928D01*
X10531Y2942D01*
X10535Y2957D01*
X10541Y2972D01*
X10542Y2972D01*
X10542Y2973D01*
X10543Y2975D01*
X10545Y2978D01*
X10546Y2981D01*
X10549Y2985D01*
X10554Y2994D01*
X10561Y3003D01*
X10569Y3012D01*
X10579Y3022D01*
X10584Y3025D01*
X10589Y3029D01*
X10590Y3030D01*
X10591Y3030D01*
X10592Y3031D01*
X10594Y3032D01*
X10598Y3034D01*
X10601Y3036D01*
X10605Y3037D01*
X10609Y3039D01*
X10614Y3041D01*
X10619Y3043D01*
X10631Y3046D01*
X10643Y3048D01*
X10650Y3049D01*
X10660D01*
X10663Y3048D01*
D02*
G37*
G36*
X10444Y3041D02*
X10491D01*
Y2974D01*
X10444D01*
Y2846D01*
Y2845D01*
Y2844D01*
Y2842D01*
Y2839D01*
Y2836D01*
Y2832D01*
X10445Y2824D01*
Y2816D01*
X10445Y2808D01*
Y2805D01*
X10445Y2802D01*
Y2800D01*
X10446Y2798D01*
X10446Y2797D01*
X10447Y2796D01*
X10448Y2794D01*
X10450Y2792D01*
X10452Y2790D01*
X10455Y2788D01*
X10459Y2786D01*
X10463Y2786D01*
X10465D01*
X10467Y2786D01*
X10470Y2787D01*
X10474Y2788D01*
X10479Y2790D01*
X10484Y2791D01*
X10490Y2794D01*
X10497Y2729D01*
X10496D01*
X10496Y2728D01*
X10494Y2727D01*
X10492Y2727D01*
X10490Y2726D01*
X10487Y2725D01*
X10481Y2723D01*
X10473Y2720D01*
X10464Y2718D01*
X10453Y2717D01*
X10442Y2717D01*
X10438D01*
X10433Y2717D01*
X10427Y2718D01*
X10421Y2720D01*
X10414Y2722D01*
X10407Y2725D01*
X10400Y2729D01*
X10399Y2729D01*
X10397Y2731D01*
X10395Y2734D01*
X10392Y2738D01*
X10388Y2743D01*
X10385Y2749D01*
X10382Y2757D01*
X10379Y2765D01*
Y2765D01*
Y2766D01*
X10379Y2767D01*
Y2769D01*
X10378Y2771D01*
X10378Y2773D01*
X10377Y2777D01*
Y2780D01*
X10377Y2785D01*
X10376Y2790D01*
X10376Y2796D01*
X10376Y2802D01*
Y2810D01*
X10375Y2817D01*
Y2826D01*
Y2836D01*
Y2974D01*
X10344D01*
Y3041D01*
X10375D01*
Y3104D01*
X10444Y3153D01*
Y3041D01*
D02*
G37*
G36*
X8636Y3048D02*
X8640D01*
X8645Y3047D01*
X8650Y3046D01*
X8656Y3045D01*
X8663Y3043D01*
X8670Y3041D01*
X8677Y3039D01*
X8684Y3035D01*
X8692Y3031D01*
X8699Y3026D01*
X8706Y3021D01*
X8713Y3015D01*
X8719Y3007D01*
X8719Y3007D01*
X8721Y3005D01*
X8722Y3002D01*
X8725Y2998D01*
X8727Y2994D01*
X8730Y2987D01*
X8734Y2980D01*
X8737Y2972D01*
X8740Y2963D01*
X8744Y2953D01*
X8747Y2941D01*
X8749Y2928D01*
X8752Y2915D01*
X8753Y2900D01*
X8755Y2884D01*
X8755Y2868D01*
Y2859D01*
X8583D01*
Y2858D01*
Y2857D01*
Y2855D01*
X8583Y2852D01*
Y2849D01*
X8583Y2845D01*
X8585Y2837D01*
X8587Y2828D01*
X8590Y2818D01*
X8594Y2808D01*
X8599Y2800D01*
X8600Y2799D01*
X8602Y2797D01*
X8606Y2793D01*
X8610Y2790D01*
X8616Y2786D01*
X8623Y2783D01*
X8630Y2780D01*
X8634Y2780D01*
X8638Y2779D01*
X8640D01*
X8642Y2780D01*
X8644Y2780D01*
X8646Y2781D01*
X8649Y2782D01*
X8653Y2783D01*
X8656Y2785D01*
X8660Y2787D01*
X8664Y2790D01*
X8668Y2794D01*
X8671Y2798D01*
X8675Y2803D01*
X8678Y2810D01*
X8681Y2817D01*
X8683Y2824D01*
X8752Y2810D01*
Y2810D01*
X8751Y2808D01*
X8750Y2806D01*
X8749Y2803D01*
X8748Y2799D01*
X8746Y2794D01*
X8743Y2789D01*
X8741Y2783D01*
X8735Y2772D01*
X8728Y2760D01*
X8719Y2749D01*
X8714Y2744D01*
X8708Y2739D01*
X8708Y2739D01*
X8707Y2738D01*
X8705Y2737D01*
X8703Y2736D01*
X8701Y2734D01*
X8697Y2732D01*
X8693Y2730D01*
X8689Y2728D01*
X8684Y2726D01*
X8679Y2724D01*
X8673Y2722D01*
X8666Y2720D01*
X8653Y2717D01*
X8645Y2717D01*
X8638Y2717D01*
X8635D01*
X8632Y2717D01*
X8628D01*
X8624Y2718D01*
X8618Y2719D01*
X8612Y2720D01*
X8605Y2721D01*
X8598Y2724D01*
X8591Y2726D01*
X8583Y2729D01*
X8576Y2733D01*
X8569Y2737D01*
X8562Y2742D01*
X8555Y2748D01*
X8549Y2755D01*
X8548Y2755D01*
X8547Y2757D01*
X8545Y2760D01*
X8543Y2763D01*
X8541Y2768D01*
X8537Y2773D01*
X8534Y2780D01*
X8531Y2788D01*
X8527Y2796D01*
X8524Y2805D01*
X8521Y2816D01*
X8518Y2827D01*
X8516Y2839D01*
X8514Y2852D01*
X8513Y2866D01*
X8512Y2880D01*
Y2881D01*
Y2881D01*
Y2884D01*
X8513Y2888D01*
Y2894D01*
X8513Y2901D01*
X8514Y2908D01*
X8515Y2917D01*
X8517Y2926D01*
X8519Y2936D01*
X8521Y2947D01*
X8524Y2957D01*
X8528Y2968D01*
X8532Y2979D01*
X8537Y2989D01*
X8543Y2999D01*
X8549Y3008D01*
X8550Y3008D01*
X8551Y3010D01*
X8552Y3012D01*
X8555Y3015D01*
X8558Y3018D01*
X8562Y3021D01*
X8566Y3025D01*
X8571Y3029D01*
X8577Y3032D01*
X8583Y3036D01*
X8590Y3039D01*
X8597Y3043D01*
X8605Y3045D01*
X8613Y3047D01*
X8622Y3048D01*
X8631Y3049D01*
X8634D01*
X8636Y3048D01*
D02*
G37*
%LPC*%
G36*
X8923Y2984D02*
X8921D01*
X8919Y2984D01*
X8915Y2983D01*
X8909Y2981D01*
X8902Y2979D01*
X8896Y2974D01*
X8892Y2972D01*
X8889Y2968D01*
X8885Y2965D01*
X8882Y2960D01*
Y2960D01*
X8881Y2959D01*
X8881Y2958D01*
X8880Y2956D01*
X8878Y2953D01*
X8877Y2950D01*
X8876Y2947D01*
X8874Y2942D01*
X8872Y2938D01*
X8871Y2933D01*
X8870Y2927D01*
X8868Y2920D01*
X8867Y2914D01*
X8867Y2906D01*
X8866Y2898D01*
Y2889D01*
Y2889D01*
Y2887D01*
Y2885D01*
Y2882D01*
X8866Y2879D01*
Y2874D01*
Y2870D01*
X8867Y2865D01*
X8867Y2855D01*
X8869Y2844D01*
X8871Y2834D01*
X8871Y2829D01*
X8873Y2825D01*
Y2824D01*
X8873Y2824D01*
X8874Y2821D01*
X8876Y2818D01*
X8878Y2813D01*
X8881Y2808D01*
X8885Y2803D01*
X8889Y2798D01*
X8894Y2793D01*
X8894Y2793D01*
X8896Y2792D01*
X8899Y2790D01*
X8902Y2788D01*
X8907Y2786D01*
X8912Y2785D01*
X8918Y2783D01*
X8924Y2783D01*
X8926D01*
X8928Y2783D01*
X8932Y2784D01*
X8938Y2786D01*
X8944Y2789D01*
X8950Y2793D01*
X8954Y2796D01*
X8957Y2800D01*
X8961Y2803D01*
X8964Y2807D01*
Y2808D01*
X8964Y2809D01*
X8965Y2810D01*
X8966Y2812D01*
X8968Y2814D01*
X8969Y2818D01*
X8970Y2821D01*
X8972Y2826D01*
X8974Y2831D01*
X8975Y2836D01*
X8976Y2842D01*
X8978Y2849D01*
X8979Y2856D01*
X8979Y2864D01*
X8980Y2873D01*
Y2881D01*
Y2882D01*
Y2884D01*
Y2887D01*
X8980Y2890D01*
Y2895D01*
X8979Y2900D01*
X8979Y2905D01*
X8978Y2911D01*
X8976Y2925D01*
X8973Y2938D01*
X8971Y2944D01*
X8969Y2950D01*
X8967Y2955D01*
X8964Y2960D01*
Y2960D01*
X8963Y2961D01*
X8961Y2964D01*
X8957Y2968D01*
X8953Y2972D01*
X8947Y2977D01*
X8940Y2980D01*
X8932Y2984D01*
X8927Y2984D01*
X8923Y2984D01*
D02*
G37*
G36*
X10969Y2982D02*
X10967D01*
X10965Y2982D01*
X10961Y2981D01*
X10955Y2979D01*
X10948Y2977D01*
X10941Y2972D01*
X10938Y2970D01*
X10934Y2966D01*
X10931Y2963D01*
X10927Y2959D01*
Y2958D01*
X10927Y2958D01*
X10926Y2956D01*
X10925Y2954D01*
X10924Y2952D01*
X10922Y2949D01*
X10921Y2945D01*
X10919Y2941D01*
X10917Y2936D01*
X10916Y2931D01*
X10915Y2925D01*
X10913Y2919D01*
X10913Y2912D01*
X10912Y2904D01*
X10911Y2897D01*
Y2888D01*
Y2887D01*
Y2886D01*
Y2883D01*
X10911Y2879D01*
Y2875D01*
X10912Y2869D01*
X10912Y2864D01*
X10913Y2858D01*
X10915Y2845D01*
X10918Y2831D01*
X10923Y2819D01*
X10925Y2814D01*
X10928Y2808D01*
Y2808D01*
X10929Y2807D01*
X10930Y2806D01*
X10931Y2804D01*
X10935Y2800D01*
X10940Y2796D01*
X10946Y2791D01*
X10954Y2787D01*
X10958Y2785D01*
X10962Y2784D01*
X10966Y2783D01*
X10971Y2783D01*
X10973D01*
X10975Y2783D01*
X10979Y2784D01*
X10985Y2786D01*
X10991Y2789D01*
X10997Y2793D01*
X11001Y2795D01*
X11004Y2799D01*
X11007Y2802D01*
X11011Y2806D01*
Y2807D01*
X11011Y2807D01*
X11012Y2809D01*
X11013Y2810D01*
X11014Y2813D01*
X11016Y2817D01*
X11017Y2820D01*
X11019Y2824D01*
X11020Y2830D01*
X11021Y2835D01*
X11023Y2842D01*
X11024Y2849D01*
X11025Y2856D01*
X11026Y2864D01*
X11027Y2873D01*
Y2883D01*
Y2883D01*
Y2885D01*
Y2888D01*
X11026Y2891D01*
Y2896D01*
X11026Y2901D01*
X11025Y2906D01*
X11024Y2911D01*
X11023Y2924D01*
X11020Y2936D01*
X11016Y2948D01*
X11013Y2953D01*
X11010Y2958D01*
Y2958D01*
X11009Y2959D01*
X11007Y2962D01*
X11004Y2966D01*
X10999Y2970D01*
X10993Y2974D01*
X10986Y2978D01*
X10978Y2981D01*
X10974Y2982D01*
X10969Y2982D01*
D02*
G37*
G36*
X8350Y2982D02*
X8348D01*
X8346Y2982D01*
X8341Y2981D01*
X8336Y2979D01*
X8329Y2977D01*
X8322Y2972D01*
X8318Y2970D01*
X8315Y2966D01*
X8312Y2963D01*
X8308Y2959D01*
Y2958D01*
X8307Y2958D01*
X8307Y2956D01*
X8305Y2954D01*
X8304Y2952D01*
X8303Y2949D01*
X8302Y2945D01*
X8300Y2941D01*
X8298Y2936D01*
X8297Y2931D01*
X8295Y2925D01*
X8294Y2919D01*
X8293Y2912D01*
X8292Y2904D01*
X8291Y2897D01*
Y2888D01*
Y2887D01*
Y2886D01*
Y2883D01*
X8292Y2879D01*
Y2875D01*
X8292Y2869D01*
X8293Y2864D01*
X8294Y2858D01*
X8296Y2845D01*
X8299Y2831D01*
X8303Y2819D01*
X8306Y2814D01*
X8309Y2808D01*
Y2808D01*
X8310Y2807D01*
X8311Y2806D01*
X8312Y2804D01*
X8316Y2800D01*
X8321Y2796D01*
X8327Y2791D01*
X8334Y2787D01*
X8338Y2785D01*
X8342Y2784D01*
X8347Y2783D01*
X8351Y2783D01*
X8354D01*
X8355Y2783D01*
X8360Y2784D01*
X8365Y2786D01*
X8371Y2789D01*
X8378Y2793D01*
X8382Y2795D01*
X8385Y2799D01*
X8388Y2802D01*
X8391Y2806D01*
Y2807D01*
X8392Y2807D01*
X8392Y2809D01*
X8394Y2810D01*
X8395Y2813D01*
X8396Y2817D01*
X8398Y2820D01*
X8399Y2824D01*
X8401Y2830D01*
X8402Y2835D01*
X8403Y2842D01*
X8405Y2849D01*
X8406Y2856D01*
X8406Y2864D01*
X8407Y2873D01*
Y2883D01*
Y2883D01*
Y2885D01*
Y2888D01*
X8407Y2891D01*
Y2896D01*
X8406Y2901D01*
X8406Y2906D01*
X8405Y2911D01*
X8403Y2924D01*
X8400Y2936D01*
X8396Y2948D01*
X8394Y2953D01*
X8391Y2958D01*
Y2958D01*
X8390Y2959D01*
X8388Y2962D01*
X8384Y2966D01*
X8379Y2970D01*
X8374Y2974D01*
X8367Y2978D01*
X8359Y2981D01*
X8354Y2982D01*
X8350Y2982D01*
D02*
G37*
G36*
X8044D02*
X8042D01*
X8040Y2982D01*
X8035Y2981D01*
X8029Y2979D01*
X8023Y2977D01*
X8015Y2972D01*
X8012Y2970D01*
X8008Y2966D01*
X8005Y2963D01*
X8002Y2959D01*
Y2958D01*
X8001Y2958D01*
X8000Y2956D01*
X7999Y2954D01*
X7998Y2952D01*
X7997Y2949D01*
X7995Y2945D01*
X7993Y2941D01*
X7992Y2936D01*
X7990Y2931D01*
X7989Y2925D01*
X7988Y2919D01*
X7987Y2912D01*
X7986Y2904D01*
X7985Y2897D01*
Y2888D01*
Y2887D01*
Y2886D01*
Y2883D01*
X7986Y2879D01*
Y2875D01*
X7986Y2869D01*
X7986Y2864D01*
X7987Y2858D01*
X7990Y2845D01*
X7993Y2831D01*
X7997Y2819D01*
X8000Y2814D01*
X8003Y2808D01*
Y2808D01*
X8004Y2807D01*
X8004Y2806D01*
X8006Y2804D01*
X8010Y2800D01*
X8014Y2796D01*
X8021Y2791D01*
X8028Y2787D01*
X8032Y2785D01*
X8036Y2784D01*
X8041Y2783D01*
X8045Y2783D01*
X8047D01*
X8049Y2783D01*
X8053Y2784D01*
X8059Y2786D01*
X8065Y2789D01*
X8072Y2793D01*
X8075Y2795D01*
X8078Y2799D01*
X8082Y2802D01*
X8085Y2806D01*
Y2807D01*
X8086Y2807D01*
X8086Y2809D01*
X8087Y2810D01*
X8089Y2813D01*
X8090Y2817D01*
X8091Y2820D01*
X8093Y2824D01*
X8094Y2830D01*
X8096Y2835D01*
X8097Y2842D01*
X8098Y2849D01*
X8100Y2856D01*
X8100Y2864D01*
X8101Y2873D01*
Y2883D01*
Y2883D01*
Y2885D01*
Y2888D01*
X8101Y2891D01*
Y2896D01*
X8100Y2901D01*
X8100Y2906D01*
X8099Y2911D01*
X8097Y2924D01*
X8094Y2936D01*
X8090Y2948D01*
X8087Y2953D01*
X8084Y2958D01*
Y2958D01*
X8083Y2959D01*
X8081Y2962D01*
X8078Y2966D01*
X8073Y2970D01*
X8067Y2974D01*
X8060Y2978D01*
X8052Y2981D01*
X8048Y2982D01*
X8044Y2982D01*
D02*
G37*
G36*
X9819Y2876D02*
X9818Y2876D01*
X9816Y2876D01*
X9813Y2874D01*
X9809Y2873D01*
X9803Y2871D01*
X9796Y2869D01*
X9787Y2866D01*
X9777Y2864D01*
X9777D01*
X9776Y2863D01*
X9774Y2863D01*
X9772Y2862D01*
X9767Y2860D01*
X9760Y2858D01*
X9753Y2855D01*
X9746Y2852D01*
X9740Y2849D01*
X9738Y2847D01*
X9735Y2845D01*
X9735Y2845D01*
X9734Y2843D01*
X9732Y2841D01*
X9731Y2838D01*
X9729Y2834D01*
X9727Y2830D01*
X9726Y2824D01*
X9726Y2819D01*
Y2818D01*
Y2816D01*
X9726Y2812D01*
X9727Y2808D01*
X9728Y2803D01*
X9731Y2798D01*
X9733Y2793D01*
X9737Y2788D01*
X9737Y2787D01*
X9739Y2786D01*
X9741Y2784D01*
X9744Y2782D01*
X9748Y2779D01*
X9753Y2777D01*
X9758Y2776D01*
X9764Y2776D01*
X9766D01*
X9769Y2776D01*
X9773Y2777D01*
X9777Y2778D01*
X9783Y2780D01*
X9788Y2782D01*
X9793Y2786D01*
X9793Y2786D01*
X9795Y2787D01*
X9798Y2790D01*
X9801Y2792D01*
X9804Y2796D01*
X9807Y2800D01*
X9811Y2804D01*
X9813Y2809D01*
X9814Y2810D01*
X9814Y2812D01*
X9815Y2816D01*
X9816Y2821D01*
X9817Y2824D01*
X9817Y2828D01*
X9818Y2832D01*
X9818Y2836D01*
X9818Y2842D01*
Y2847D01*
X9819Y2853D01*
Y2859D01*
Y2876D01*
D02*
G37*
G36*
X7785D02*
X7784Y2876D01*
X7782Y2876D01*
X7779Y2874D01*
X7775Y2873D01*
X7768Y2871D01*
X7761Y2869D01*
X7753Y2866D01*
X7743Y2864D01*
X7743D01*
X7742Y2863D01*
X7740Y2863D01*
X7738Y2862D01*
X7733Y2860D01*
X7726Y2858D01*
X7719Y2855D01*
X7712Y2852D01*
X7706Y2849D01*
X7703Y2847D01*
X7701Y2845D01*
X7701Y2845D01*
X7700Y2843D01*
X7698Y2841D01*
X7696Y2838D01*
X7695Y2834D01*
X7693Y2830D01*
X7692Y2824D01*
X7691Y2819D01*
Y2818D01*
Y2816D01*
X7692Y2812D01*
X7693Y2808D01*
X7694Y2803D01*
X7696Y2798D01*
X7699Y2793D01*
X7702Y2788D01*
X7703Y2787D01*
X7705Y2786D01*
X7707Y2784D01*
X7710Y2782D01*
X7714Y2779D01*
X7719Y2777D01*
X7724Y2776D01*
X7730Y2776D01*
X7732D01*
X7735Y2776D01*
X7739Y2777D01*
X7743Y2778D01*
X7748Y2780D01*
X7754Y2782D01*
X7759Y2786D01*
X7759Y2786D01*
X7761Y2787D01*
X7764Y2790D01*
X7767Y2792D01*
X7770Y2796D01*
X7773Y2800D01*
X7776Y2804D01*
X7779Y2809D01*
X7779Y2810D01*
X7780Y2812D01*
X7781Y2816D01*
X7782Y2821D01*
X7782Y2824D01*
X7783Y2828D01*
X7783Y2832D01*
X7784Y2836D01*
X7784Y2842D01*
Y2847D01*
X7785Y2853D01*
Y2859D01*
Y2876D01*
D02*
G37*
G36*
X10657Y2980D02*
X10654D01*
X10652Y2980D01*
X10647Y2979D01*
X10641Y2977D01*
X10634Y2974D01*
X10630Y2972D01*
X10626Y2970D01*
X10623Y2966D01*
X10619Y2963D01*
X10615Y2959D01*
X10612Y2955D01*
Y2955D01*
X10611Y2954D01*
X10610Y2953D01*
X10608Y2950D01*
X10607Y2948D01*
X10606Y2945D01*
X10604Y2941D01*
X10602Y2937D01*
X10601Y2932D01*
X10599Y2926D01*
X10598Y2921D01*
X10596Y2914D01*
X10595Y2907D01*
X10594Y2899D01*
X10594Y2891D01*
X10593Y2883D01*
Y2882D01*
Y2880D01*
Y2878D01*
X10594Y2875D01*
Y2871D01*
X10594Y2866D01*
X10595Y2861D01*
X10595Y2855D01*
X10598Y2843D01*
X10601Y2831D01*
X10606Y2820D01*
X10608Y2814D01*
X10612Y2810D01*
X10612Y2809D01*
X10613Y2809D01*
X10615Y2806D01*
X10619Y2802D01*
X10625Y2797D01*
X10631Y2793D01*
X10639Y2789D01*
X10648Y2786D01*
X10653Y2786D01*
X10657Y2785D01*
X10660D01*
X10662Y2786D01*
X10667Y2786D01*
X10673Y2788D01*
X10680Y2791D01*
X10688Y2796D01*
X10691Y2798D01*
X10695Y2802D01*
X10699Y2805D01*
X10702Y2810D01*
X10703Y2810D01*
X10703Y2811D01*
X10704Y2812D01*
X10705Y2814D01*
X10707Y2817D01*
X10709Y2820D01*
X10710Y2824D01*
X10712Y2828D01*
X10714Y2833D01*
X10715Y2838D01*
X10717Y2845D01*
X10718Y2851D01*
X10719Y2858D01*
X10720Y2866D01*
X10721Y2874D01*
Y2883D01*
Y2883D01*
Y2885D01*
Y2887D01*
X10721Y2891D01*
Y2895D01*
X10720Y2899D01*
X10719Y2904D01*
X10719Y2910D01*
X10716Y2921D01*
X10713Y2933D01*
X10709Y2945D01*
X10705Y2950D01*
X10702Y2955D01*
Y2956D01*
X10701Y2956D01*
X10700Y2957D01*
X10698Y2959D01*
X10695Y2963D01*
X10689Y2968D01*
X10683Y2972D01*
X10675Y2976D01*
X10671Y2978D01*
X10666Y2979D01*
X10661Y2980D01*
X10657Y2980D01*
D02*
G37*
G36*
X8639Y2984D02*
X8635D01*
X8632Y2984D01*
X8628Y2984D01*
X8623Y2982D01*
X8617Y2980D01*
X8611Y2976D01*
X8604Y2971D01*
X8601Y2968D01*
X8598Y2965D01*
X8598Y2964D01*
X8597Y2963D01*
X8596Y2961D01*
X8593Y2957D01*
X8591Y2951D01*
X8588Y2943D01*
X8586Y2933D01*
X8584Y2922D01*
X8583Y2910D01*
X8687D01*
Y2911D01*
Y2912D01*
Y2914D01*
X8687Y2916D01*
X8686Y2919D01*
X8686Y2923D01*
X8684Y2931D01*
X8683Y2940D01*
X8680Y2949D01*
X8676Y2958D01*
X8671Y2966D01*
Y2966D01*
X8670Y2966D01*
X8668Y2969D01*
X8665Y2972D01*
X8661Y2975D01*
X8656Y2978D01*
X8650Y2981D01*
X8643Y2984D01*
X8639Y2984D01*
D02*
G37*
%LPD*%
D262*
X9340Y5787D02*
D03*
X9104Y5630D02*
D03*
X9262D02*
D03*
X9419D02*
D03*
X9577D02*
D03*
X9734D02*
D03*
X9892Y5630D02*
D03*
X8159Y4842D02*
D03*
Y4685D02*
D03*
Y4370D02*
D03*
Y4213D02*
D03*
Y4055D02*
D03*
Y3898D02*
D03*
Y3740D02*
D03*
Y3583D02*
D03*
Y3425D02*
D03*
X8317D02*
D03*
X8474D02*
D03*
X8632Y3425D02*
D03*
X8789D02*
D03*
X8947D02*
D03*
X9104D02*
D03*
X9262D02*
D03*
X9419D02*
D03*
X9577D02*
D03*
X9734Y3425D02*
D03*
X9892Y3425D02*
D03*
X10049Y3425D02*
D03*
X10207D02*
D03*
X10364Y3425D02*
D03*
M02*
