G04*
G04 #@! TF.GenerationSoftware,Altium Limited,Altium Designer,23.6.0 (18)*
G04*
G04 Layer_Color=32768*
%FSLAX24Y24*%
%MOIN*%
G70*
G04*
G04 #@! TF.SameCoordinates,7E18E310-DAB5-435A-A8D0-C5F7F634A292*
G04*
G04*
G04 #@! TF.FilePolarity,Positive*
G04*
G01*
G75*
%ADD10C,0.0050*%
%ADD11C,0.0079*%
%ADD246C,0.0039*%
%ADD248C,0.0012*%
%ADD249C,0.0030*%
%ADD250C,0.0020*%
%ADD251C,0.0020*%
%ADD252R,0.0110X0.0772*%
%ADD253R,0.0110X0.0220*%
%ADD254R,0.0772X0.0110*%
%ADD255R,0.0330X0.0330*%
%ADD256R,0.0772X0.0110*%
%ADD257R,0.0772X0.0110*%
%ADD258R,0.0331X0.0330*%
%ADD259R,0.0110X0.0110*%
%ADD260R,0.0330X0.0331*%
G36*
X12616Y17933D02*
X12506D01*
Y18043D01*
X12285D01*
Y17933D01*
X12395D01*
Y17823D01*
X12285D01*
Y17933D01*
X12175D01*
Y18154D01*
X12616D01*
Y17933D01*
D02*
G37*
G36*
X13167Y17823D02*
X13057D01*
Y18043D01*
X13167D01*
Y17823D01*
D02*
G37*
G36*
Y17382D02*
X13057D01*
Y17602D01*
X13167D01*
Y17382D01*
D02*
G37*
G36*
X12285Y17602D02*
X12506D01*
Y17382D01*
X12395D01*
Y17492D01*
X12395Y17492D01*
X12285D01*
Y17382D01*
X12395D01*
Y17161D01*
X12285D01*
Y17051D01*
X12506D01*
Y16941D01*
X12616D01*
Y17161D01*
X12506D01*
Y17272D01*
X12726D01*
Y17161D01*
X12837D01*
Y16941D01*
X12947D01*
Y16830D01*
X13057D01*
Y16941D01*
X12947D01*
Y17161D01*
X13057D01*
Y17272D01*
X13608D01*
Y17161D01*
X13718D01*
Y17051D01*
X13829D01*
Y16941D01*
X13718D01*
Y16830D01*
X13608D01*
Y17161D01*
X13498D01*
Y17051D01*
X13388D01*
Y16941D01*
X13498D01*
Y16830D01*
X13388D01*
Y16720D01*
X13498D01*
Y16610D01*
X13277D01*
Y16720D01*
X13167D01*
Y16500D01*
X13057D01*
Y16390D01*
X13277D01*
Y16500D01*
X13498D01*
Y16390D01*
X13608D01*
Y16279D01*
Y16169D01*
X13718D01*
Y16059D01*
X13608D01*
Y15949D01*
X13718D01*
Y15839D01*
X13829D01*
Y15949D01*
X13939D01*
Y15728D01*
X14049D01*
Y15618D01*
X13829D01*
Y15728D01*
X13608D01*
Y15508D01*
X13718D01*
Y15398D01*
X13608D01*
Y15508D01*
X13277D01*
Y15398D01*
X13057D01*
Y15618D01*
X13167D01*
Y15728D01*
X12947D01*
Y16059D01*
X13057D01*
Y16169D01*
X12947D01*
Y16279D01*
X12837D01*
Y16500D01*
X12726D01*
Y16720D01*
X12616D01*
Y16830D01*
X12506D01*
Y16610D01*
X12616D01*
Y16500D01*
X12726D01*
Y16279D01*
X12837D01*
Y16169D01*
X12726D01*
Y16279D01*
X12616D01*
Y16390D01*
X12395D01*
Y16500D01*
X12506D01*
Y16610D01*
X12285D01*
Y16500D01*
X12175D01*
Y16610D01*
X12065D01*
Y16720D01*
X11624D01*
Y16830D01*
X11514D01*
Y17161D01*
X11293D01*
Y17272D01*
X11624D01*
Y16941D01*
X11734D01*
Y16830D01*
X12065D01*
Y16720D01*
X12285D01*
Y16830D01*
X12175D01*
Y16941D01*
X11844D01*
Y17051D01*
X11734D01*
Y17161D01*
X11844D01*
Y17272D01*
X12065D01*
Y17161D01*
X11954D01*
Y17051D01*
X12175D01*
Y17712D01*
X12285D01*
Y17602D01*
D02*
G37*
G36*
X12837Y17823D02*
X12947D01*
Y17272D01*
X12837D01*
Y17602D01*
X12726D01*
Y17382D01*
X12616D01*
Y17602D01*
X12506D01*
Y17823D01*
X12726D01*
Y18154D01*
X12837D01*
Y17823D01*
D02*
G37*
G36*
X14049Y16941D02*
X13939D01*
Y17051D01*
X13829D01*
Y17272D01*
X14049D01*
Y16941D01*
D02*
G37*
G36*
X11403D02*
X11293D01*
Y17051D01*
X11403D01*
Y16941D01*
D02*
G37*
G36*
X11514Y16720D02*
X11624D01*
Y16610D01*
X11293D01*
Y16830D01*
X11514D01*
Y16720D01*
D02*
G37*
G36*
X14049Y16500D02*
X13939D01*
Y16610D01*
X13829D01*
Y16720D01*
X13939D01*
Y16830D01*
X14049D01*
Y16500D01*
D02*
G37*
G36*
X13829D02*
X13608D01*
Y16610D01*
X13829D01*
Y16500D01*
D02*
G37*
G36*
X11734Y16390D02*
X11844D01*
Y16279D01*
X11514D01*
Y16390D01*
X11293D01*
Y16500D01*
X11734D01*
Y16390D01*
D02*
G37*
G36*
X13829Y16169D02*
X13718D01*
Y16279D01*
X13829D01*
Y16169D01*
D02*
G37*
G36*
X13939Y16279D02*
X14049D01*
Y15949D01*
X13939D01*
Y16279D01*
X13829D01*
Y16390D01*
X13939D01*
Y16279D01*
D02*
G37*
G36*
X14049Y15398D02*
X13939D01*
Y15508D01*
X14049D01*
Y15398D01*
D02*
G37*
G36*
X12065Y16500D02*
X12175D01*
Y16390D01*
X12395D01*
Y16279D01*
X12285D01*
Y16169D01*
X12395D01*
Y16059D01*
X12506D01*
Y15839D01*
X12616D01*
Y16059D01*
X12506D01*
Y16279D01*
X12616D01*
Y16059D01*
X12726D01*
Y15728D01*
X12616D01*
Y15618D01*
X12726D01*
Y15398D01*
X12616D01*
Y15508D01*
X12506D01*
Y15839D01*
X12395D01*
Y15949D01*
X12175D01*
Y16059D01*
X12285D01*
Y16169D01*
X12175D01*
Y16279D01*
X11954D01*
Y16390D01*
X11844D01*
Y16500D01*
X11734D01*
Y16610D01*
X12065D01*
Y16500D01*
D02*
G37*
G36*
X12285Y15508D02*
X12395D01*
Y15398D01*
X12175D01*
Y15728D01*
X12285D01*
Y15508D01*
D02*
G37*
%LPC*%
G36*
X13277Y17051D02*
X13167D01*
Y16941D01*
X13167Y16941D01*
X13277D01*
Y17051D01*
D02*
G37*
G36*
X12395Y16941D02*
X12285D01*
Y16830D01*
X12395D01*
Y16941D01*
D02*
G37*
G36*
X12837D02*
X12726D01*
Y16720D01*
X12837D01*
Y16610D01*
X12947D01*
Y16830D01*
X12837D01*
Y16941D01*
D02*
G37*
G36*
X13498Y16279D02*
X13167D01*
Y15949D01*
X13498D01*
Y16279D01*
D02*
G37*
G36*
X13388Y15839D02*
X13277D01*
Y15728D01*
Y15618D01*
X13498D01*
Y15728D01*
X13388D01*
Y15839D01*
D02*
G37*
G36*
X12065Y16500D02*
X11954D01*
Y16390D01*
X12065D01*
Y16500D01*
D02*
G37*
%LPD*%
D10*
X3583Y16102D02*
G03*
X3583Y16102I-20J0D01*
G01*
Y18228D02*
G03*
X3583Y18228I-20J0D01*
G01*
Y17520D02*
G03*
X3583Y17520I-20J0D01*
G01*
Y16811D02*
G03*
X3583Y16811I-20J0D01*
G01*
X19341Y4988D02*
Y6468D01*
Y4988D02*
X20502D01*
Y6468D01*
X19341D02*
X20502D01*
D11*
X6299Y18524D02*
G03*
X6299Y18524I-20J0D01*
G01*
D246*
X1781Y2904D02*
G03*
X2175Y2510I394J0D01*
G01*
X4537D02*
G03*
X4931Y2904I0J394D01*
G01*
X2175Y15108D02*
G03*
X1781Y14715I0J-394D01*
G01*
X4931D02*
G03*
X4537Y15108I-394J0D01*
G01*
X8416Y5571D02*
G03*
X8416Y5571I-197J0D01*
G01*
X965Y11575D02*
G03*
X965Y11575I-39J0D01*
G01*
X9823Y12382D02*
G03*
X9823Y12382I-374J0D01*
G01*
X9744D02*
G03*
X9744Y12382I-295J0D01*
G01*
X11004D02*
G03*
X11004Y12382I-374J0D01*
G01*
X10925D02*
G03*
X10925Y12382I-295J0D01*
G01*
X2618Y2933D02*
G03*
X2618Y2933I-374J0D01*
G01*
X2539D02*
G03*
X2539Y2933I-295J0D01*
G01*
X3799D02*
G03*
X3799Y2933I-374J0D01*
G01*
X3720D02*
G03*
X3720Y2933I-295J0D01*
G01*
X11623Y10433D02*
G03*
X11623Y10433I-678J0D01*
G01*
X11535D02*
G03*
X11535Y10433I-591J0D01*
G01*
X9724Y10259D02*
G03*
X9724Y10607I-92J174D01*
G01*
X12165Y10791D02*
G03*
X12165Y10075I575J-358D01*
G01*
X18973Y18386D02*
G03*
X18883Y18386I-45J-20D01*
G01*
X19216Y19016D02*
G03*
X19306Y19016I45J20D01*
G01*
Y18386D02*
G03*
X19216Y18386I-45J-20D01*
G01*
X18832Y19016D02*
G03*
X19024Y19016I96J20D01*
G01*
X18883Y19016D02*
G03*
X18973Y19016I45J20D01*
G01*
X19357Y18386D02*
G03*
X19165Y18386I-96J-20D01*
G01*
X19024Y18386D02*
G03*
X18832Y18386I-96J-20D01*
G01*
X19165Y19016D02*
G03*
X19357Y19016I96J20D01*
G01*
X7045Y13148D02*
G03*
X7045Y13148I-295J0D01*
G01*
X6927Y12148D02*
G03*
X6927Y12148I-177J0D01*
G01*
Y13148D02*
G03*
X6927Y13148I-177J0D01*
G01*
X6045Y13148D02*
G03*
X6045Y13148I-295J0D01*
G01*
X5927Y12148D02*
G03*
X5927Y12148I-177J0D01*
G01*
Y13148D02*
G03*
X5927Y13148I-177J0D01*
G01*
X4902Y19685D02*
G03*
X4902Y19685I-374J0D01*
G01*
X4823D02*
G03*
X4823Y19685I-295J0D01*
G01*
X3720D02*
G03*
X3720Y19685I-374J0D01*
G01*
X3642D02*
G03*
X3642Y19685I-295J0D01*
G01*
X10610Y19685D02*
G03*
X10610Y19685I-374J0D01*
G01*
X10532D02*
G03*
X10532Y19685I-295J0D01*
G01*
X7927Y13148D02*
G03*
X7927Y13148I-177J0D01*
G01*
Y12148D02*
G03*
X7927Y12148I-177J0D01*
G01*
X8045Y13148D02*
G03*
X8045Y13148I-295J0D01*
G01*
X13760Y10630D02*
G03*
X13760Y10630I-374J0D01*
G01*
X13681D02*
G03*
X13681Y10630I-295J0D01*
G01*
X14941D02*
G03*
X14941Y10630I-374J0D01*
G01*
X14862D02*
G03*
X14862Y10630I-295J0D01*
G01*
X16122D02*
G03*
X16122Y10630I-374J0D01*
G01*
X16043D02*
G03*
X16043Y10630I-295J0D01*
G01*
X8248Y19685D02*
G03*
X8248Y19685I-374J0D01*
G01*
X8169D02*
G03*
X8169Y19685I-295J0D01*
G01*
X11803Y5742D02*
G03*
X11843Y5703I39J0D01*
G01*
Y6388D02*
G03*
X11803Y6348I0J-39D01*
G01*
X12291Y5703D02*
G03*
X12331Y5742I0J39D01*
G01*
Y6348D02*
G03*
X12291Y6388I-39J0D01*
G01*
X11791Y5651D02*
G03*
X11752Y5691I-39J0D01*
G01*
X12382D02*
G03*
X12343Y5651I0J-39D01*
G01*
Y6439D02*
G03*
X12382Y6400I39J0D01*
G01*
X11752D02*
G03*
X11791Y6439I0J39D01*
G01*
X19642Y6260D02*
G03*
X19642Y6260I-100J0D01*
G01*
X3815Y15975D02*
G03*
X4177Y15975I181J32D01*
G01*
Y16072D02*
G03*
X3815Y16072I-181J-32D01*
G01*
Y18101D02*
G03*
X4177Y18101I181J32D01*
G01*
Y18198D02*
G03*
X3815Y18198I-181J-32D01*
G01*
Y17392D02*
G03*
X4177Y17392I181J32D01*
G01*
Y17490D02*
G03*
X3815Y17490I-181J-32D01*
G01*
Y16684D02*
G03*
X4177Y16684I181J32D01*
G01*
Y16781D02*
G03*
X3815Y16781I-181J-32D01*
G01*
X3593Y13307D02*
G03*
X3593Y13307I-374J0D01*
G01*
X3514D02*
G03*
X3514Y13307I-295J0D01*
G01*
X3465Y12008D02*
G03*
X3465Y12008I-374J0D01*
G01*
X3386D02*
G03*
X3386Y12008I-295J0D01*
G01*
X4646D02*
G03*
X4646Y12008I-374J0D01*
G01*
X4567D02*
G03*
X4567Y12008I-295J0D01*
G01*
X8656Y8081D02*
G03*
X8656Y8081I-374J0D01*
G01*
X8577D02*
G03*
X8577Y8081I-295J0D01*
G01*
X3799Y4114D02*
G03*
X3799Y4114I-374J0D01*
G01*
X3720D02*
G03*
X3720Y4114I-295J0D01*
G01*
X8848Y600D02*
G03*
X8848Y600I-118J0D01*
G01*
X9429Y19685D02*
G03*
X9429Y19685I-374J0D01*
G01*
X9350D02*
G03*
X9350Y19685I-295J0D01*
G01*
X4715Y14695D02*
G03*
X4715Y14695I-374J0D01*
G01*
X4636D02*
G03*
X4636Y14695I-295J0D01*
G01*
X12972Y2165D02*
G03*
X12972Y2165I-374J0D01*
G01*
X12894D02*
G03*
X12894Y2165I-295J0D01*
G01*
X6181Y3313D02*
G03*
X6181Y3313I-374J0D01*
G01*
X6102D02*
G03*
X6102Y3313I-295J0D01*
G01*
X16122Y8268D02*
G03*
X16122Y8268I-374J0D01*
G01*
X16043D02*
G03*
X16043Y8268I-295J0D01*
G01*
X1427Y7854D02*
G03*
X1427Y7854I-374J0D01*
G01*
X1348D02*
G03*
X1348Y7854I-295J0D01*
G01*
X19205Y6260D02*
G03*
X19205Y6260I-150J0D01*
G01*
X19305D02*
G03*
X19305Y6260I-250J0D01*
G01*
X20475Y4400D02*
G03*
X20475Y4400I-150J0D01*
G01*
X20575D02*
G03*
X20575Y4400I-250J0D01*
G01*
X19195Y5177D02*
G03*
X19195Y5177I-150J0D01*
G01*
X19295D02*
G03*
X19295Y5177I-250J0D01*
G01*
X9172Y17986D02*
G03*
X9172Y17986I-150J0D01*
G01*
X9272D02*
G03*
X9272Y17986I-250J0D01*
G01*
X9743Y17986D02*
G03*
X9743Y17986I-150J0D01*
G01*
X9843D02*
G03*
X9843Y17986I-250J0D01*
G01*
X10538Y18380D02*
G03*
X10538Y18380I-374J0D01*
G01*
X10459D02*
G03*
X10459Y18380I-295J0D01*
G01*
X8824Y18380D02*
G03*
X8824Y18380I-374J0D01*
G01*
X8746D02*
G03*
X8746Y18380I-295J0D01*
G01*
X10790Y16575D02*
G03*
X10790Y16575I-150J0D01*
G01*
X10890D02*
G03*
X10890Y16575I-250J0D01*
G01*
X11725Y14478D02*
G03*
X11725Y14478I-150J0D01*
G01*
X11825D02*
G03*
X11825Y14478I-250J0D01*
G01*
X14620Y13976D02*
G03*
X14620Y13976I-250J0D01*
G01*
X14520D02*
G03*
X14520Y13976I-150J0D01*
G01*
X9928Y13380D02*
G03*
X10289Y13380I181J32D01*
G01*
Y13497D02*
G03*
X9928Y13497I-181J-32D01*
G01*
X10460Y13380D02*
G03*
X10822Y13380I181J32D01*
G01*
X10822Y13497D02*
G03*
X10460Y13497I-181J-32D01*
G01*
X11004Y14735D02*
G03*
X11004Y14735I-374J0D01*
G01*
X10925D02*
G03*
X10925Y14735I-295J0D01*
G01*
X9823Y14735D02*
G03*
X9823Y14735I-374J0D01*
G01*
X9744D02*
G03*
X9744Y14735I-295J0D01*
G01*
X13760Y9449D02*
G03*
X13760Y9449I-374J0D01*
G01*
X13681D02*
G03*
X13681Y9449I-295J0D01*
G01*
X14941D02*
G03*
X14941Y9449I-374J0D01*
G01*
X14862D02*
G03*
X14862Y9449I-295J0D01*
G01*
X14941Y8268D02*
G03*
X14941Y8268I-374J0D01*
G01*
X14862D02*
G03*
X14862Y8268I-295J0D01*
G01*
X13760Y8268D02*
G03*
X13760Y8268I-374J0D01*
G01*
X13681D02*
G03*
X13681Y8268I-295J0D01*
G01*
X12972Y3346D02*
G03*
X12972Y3346I-374J0D01*
G01*
X12894D02*
G03*
X12894Y3346I-295J0D01*
G01*
X6230Y16604D02*
G03*
X6230Y16604I-374J0D01*
G01*
X6152D02*
G03*
X6152Y16604I-295J0D01*
G01*
X6673Y19685D02*
G03*
X6673Y19685I-374J0D01*
G01*
X6594D02*
G03*
X6594Y19685I-295J0D01*
G01*
X13339Y14478D02*
G03*
X13339Y14478I-150J0D01*
G01*
X13439D02*
G03*
X13439Y14478I-250J0D01*
G01*
X12532D02*
G03*
X12532Y14478I-150J0D01*
G01*
X12632D02*
G03*
X12632Y14478I-250J0D01*
G01*
X12815Y4675D02*
G03*
X12815Y4675I-59J0D01*
G01*
X15806Y9268D02*
G03*
X15806Y9629I-32J181D01*
G01*
X15690D02*
G03*
X15690Y9268I32J-181D01*
G01*
X14620Y12402D02*
G03*
X14620Y12402I-250J0D01*
G01*
X14520D02*
G03*
X14520Y12402I-150J0D01*
G01*
X7018Y4341D02*
G03*
X6978Y4301I0J-39D01*
G01*
X6585D02*
G03*
X6545Y4341I-39J0D01*
G01*
Y5049D02*
G03*
X6585Y5089I0J39D01*
G01*
X6978D02*
G03*
X7018Y5049I39J0D01*
G01*
X6597Y4392D02*
G03*
X6636Y4353I39J0D01*
G01*
Y5038D02*
G03*
X6597Y4998I0J-39D01*
G01*
X6927Y4353D02*
G03*
X6967Y4392I0J39D01*
G01*
Y4998D02*
G03*
X6927Y5038I-39J0D01*
G01*
X6537Y7741D02*
G03*
X6537Y8102I-32J181D01*
G01*
X6420D02*
G03*
X6420Y7741I32J-181D01*
G01*
X10698Y15542D02*
G03*
X10698Y15903I-32J181D01*
G01*
X10581D02*
G03*
X10581Y15542I32J-181D01*
G01*
X9497D02*
G03*
X9497Y15903I-32J181D01*
G01*
X9381D02*
G03*
X9381Y15542I32J-181D01*
G01*
X15491Y3944D02*
G03*
X15491Y3944I-98J0D01*
G01*
X2175Y2510D02*
X4537D01*
X2175Y15108D02*
X4537D01*
X1781Y2904D02*
Y14715D01*
X4931Y2904D02*
Y14715D01*
X6181Y18839D02*
X6831D01*
X6181Y18425D02*
X6831D01*
Y18839D01*
X6181Y18425D02*
Y18839D01*
X10640Y3150D02*
Y5906D01*
X7884D02*
X10640D01*
X7884Y3150D02*
X10640D01*
X7884D02*
Y5906D01*
X664Y14810D02*
X1071D01*
X556Y14627D02*
X634D01*
X556Y14743D02*
X634D01*
X556Y14627D02*
Y14743D01*
X1101D02*
X1179D01*
X1101Y14627D02*
X1179D01*
X1071Y14810D02*
X1101Y14840D01*
X634D02*
X664Y14810D01*
X634Y14530D02*
X664Y14560D01*
X1071D02*
X1101Y14530D01*
X1071Y14560D02*
Y14810D01*
X1101Y14530D02*
Y14840D01*
X634D02*
X1101D01*
X634Y14530D02*
Y14840D01*
Y14530D02*
X1101D01*
X664Y14560D02*
Y14810D01*
Y14560D02*
X1071D01*
X1179Y14627D02*
Y14743D01*
X664Y15144D02*
X1071D01*
X556Y14962D02*
X634D01*
X556Y15078D02*
X634D01*
X556Y14962D02*
Y15078D01*
X1101D02*
X1179D01*
X1101Y14962D02*
X1179D01*
X1071Y15144D02*
X1101Y15174D01*
X634D02*
X664Y15144D01*
X634Y14865D02*
X664Y14895D01*
X1071D02*
X1101Y14865D01*
X1071Y14895D02*
Y15144D01*
X1101Y14865D02*
Y15174D01*
X634D02*
X1101D01*
X634Y14865D02*
Y15174D01*
Y14865D02*
X1101D01*
X664Y14895D02*
Y15144D01*
Y14895D02*
X1071D01*
X1179Y14962D02*
Y15078D01*
X1043Y12480D02*
X1043Y11457D01*
X335Y11457D02*
Y12480D01*
Y11457D02*
X1043Y11457D01*
X335Y12480D02*
X1043D01*
X1043Y12008D02*
X1083D01*
Y12087D01*
X1043Y12087D02*
X1083Y12087D01*
X1043Y12244D02*
X1083D01*
Y12165D02*
Y12244D01*
X1043Y12165D02*
X1083Y12165D01*
X1043Y11929D02*
X1083Y11929D01*
Y11850D02*
Y11929D01*
X1043Y11850D02*
X1083Y11850D01*
X1043Y11772D02*
X1083D01*
Y11693D02*
Y11772D01*
X1043Y11693D02*
X1083D01*
X886Y12520D02*
X886Y12480D01*
X886Y12520D02*
X965Y12520D01*
Y12480D02*
Y12520D01*
X728Y12480D02*
Y12520D01*
X807Y12520D01*
X807Y12480D01*
X571Y12480D02*
X571Y12520D01*
X650Y12520D01*
Y12480D02*
Y12520D01*
X413Y12480D02*
X413Y12520D01*
X492Y12520D01*
X492Y12480D01*
X295Y12165D02*
X335Y12165D01*
X295Y12244D02*
X295Y12165D01*
X295Y12244D02*
X335Y12244D01*
X295Y12008D02*
X335Y12008D01*
X295Y12087D02*
X295Y12008D01*
X295Y12087D02*
X335Y12087D01*
X295Y11850D02*
X335Y11850D01*
X295Y11850D02*
Y11929D01*
X335Y11929D01*
X295Y11693D02*
X335Y11693D01*
X295Y11772D02*
X295Y11693D01*
X295Y11772D02*
X335Y11772D01*
X492Y11417D02*
Y11457D01*
X413Y11417D02*
X492D01*
X413Y11457D02*
X413Y11417D01*
X650D02*
Y11457D01*
X571Y11417D02*
X650Y11417D01*
X571Y11457D02*
X571Y11417D01*
X807Y11457D02*
X807Y11417D01*
X728D02*
X807D01*
X728D02*
Y11457D01*
X965Y11417D02*
X965Y11457D01*
X886Y11417D02*
X965D01*
X886Y11457D02*
X886Y11417D01*
X378Y11266D02*
X626Y11266D01*
X378Y11136D02*
X626Y11136D01*
X378Y11266D02*
X378Y11136D01*
X626Y11136D02*
Y11266D01*
X9724Y11673D02*
X12165D01*
X9724Y9193D02*
Y11673D01*
Y9193D02*
X12165D01*
Y11673D01*
Y11375D02*
X12362D01*
X12165Y11065D02*
X12362D01*
Y11375D01*
X12244Y11065D02*
Y11375D01*
X12165Y9491D02*
X12362D01*
X12165Y9801D02*
X12362D01*
Y9491D02*
Y9801D01*
X12244Y9491D02*
Y9801D01*
X9528Y11375D02*
X9724D01*
X9528Y11065D02*
X9724D01*
X9528D02*
Y11375D01*
X9646Y11065D02*
Y11375D01*
X9528Y9491D02*
X9724D01*
X9528Y9801D02*
X9724D01*
X9528Y9491D02*
Y9801D01*
X9646Y9491D02*
Y9801D01*
X20075Y18819D02*
X20311D01*
Y18583D02*
Y18819D01*
X20075Y18583D02*
X20311D01*
X20075D02*
Y18819D01*
X19823Y19154D02*
X19823Y19114D01*
X19744Y19154D02*
X19823D01*
X19744Y19114D02*
Y19154D01*
X20020D02*
X20020Y19114D01*
X19941Y19154D02*
X20020D01*
X19941Y19114D02*
Y19154D01*
X20217D02*
X20217Y19114D01*
X20138Y19154D02*
X20217D01*
X20138Y19114D02*
Y19154D01*
X20413D02*
X20413Y19114D01*
X20335Y19154D02*
X20413D01*
X20335Y19114D02*
Y19154D01*
X20335Y18287D02*
X20335Y18248D01*
X20413D01*
Y18287D01*
X20138D02*
X20138Y18248D01*
X20217D01*
Y18287D01*
X19744D02*
X19744Y18248D01*
X19823D01*
X19823Y18287D01*
X20020Y18248D02*
X20020Y18287D01*
X19941Y18248D02*
X20020D01*
X19941Y18287D02*
X19941Y18248D01*
X20472Y18287D02*
Y19114D01*
X19685Y18287D02*
Y19114D01*
X20472D01*
X19685Y18287D02*
X20472D01*
X19744Y18386D02*
X19823D01*
X20173Y17917D02*
Y18047D01*
X19925Y17917D02*
Y18047D01*
Y17917D02*
X20173D01*
X19925Y18047D02*
X20173D01*
X19116Y18675D02*
X19226D01*
X19116Y18726D02*
X19226D01*
X18970Y18742D02*
X19053D01*
X18970Y18659D02*
Y18742D01*
Y18659D02*
X19053D01*
X18973Y19016D02*
X19216D01*
X18973Y18386D02*
X19216D01*
X18780D02*
X18883D01*
X19306Y19016D02*
X19409D01*
X19306Y18386D02*
X19409D01*
Y19016D01*
X18780Y18386D02*
Y19016D01*
X18883D01*
X18973Y18947D02*
X19216D01*
X18780Y18923D02*
X19409D01*
X19306Y18947D02*
X19409D01*
X18780D02*
X18883D01*
X19306Y18455D02*
X19409D01*
X18780D02*
X18883D01*
X18780Y18478D02*
X19409D01*
X18973Y18455D02*
X19216D01*
X19053Y18659D02*
Y18742D01*
X19116Y18726D02*
Y18837D01*
X19226Y18726D02*
Y18837D01*
X19116Y18565D02*
Y18675D01*
X19226Y18565D02*
Y18675D01*
X19116Y18565D02*
X19226D01*
X19116Y18837D02*
X19226D01*
X6250Y11648D02*
Y13648D01*
Y11648D02*
X7250D01*
X6250Y12648D02*
X6550D01*
X6250Y13648D02*
X7250D01*
X6455Y11853D02*
X7045D01*
X6455D02*
Y12443D01*
X7045Y11853D02*
Y12443D01*
X7250Y11648D02*
Y13648D01*
X6455Y12443D02*
X7045D01*
X6950Y12648D02*
X7250D01*
X5250Y11648D02*
Y13648D01*
Y11648D02*
X6250D01*
X5250Y12648D02*
X5550D01*
X5250Y13648D02*
X6250D01*
X5455Y11853D02*
X6045D01*
X5455D02*
Y12443D01*
X6045Y11853D02*
Y12443D01*
X6250Y11648D02*
Y13648D01*
X5455Y12443D02*
X6045D01*
X5950Y12648D02*
X6250D01*
X7950Y12648D02*
X8250D01*
X7455Y12443D02*
X8045D01*
X8250Y11648D02*
Y13648D01*
X8045Y11853D02*
Y12443D01*
X7455Y11853D02*
Y12443D01*
Y11853D02*
X8045D01*
X7250Y13648D02*
X8250D01*
X7250Y12648D02*
X7550D01*
X7250Y11648D02*
X8250D01*
X7250D02*
Y13648D01*
X13459Y4600D02*
X13707D01*
X13459Y4730D02*
X13707D01*
Y4600D02*
Y4730D01*
X13459D02*
X13459Y4600D01*
X14642Y6080D02*
Y6435D01*
X15311Y6080D02*
Y6435D01*
X14642Y6435D02*
X15311Y6435D01*
X14642Y6080D02*
X15311Y6080D01*
X14955Y5811D02*
X15203D01*
X14955Y5941D02*
X15203D01*
Y5811D02*
Y5941D01*
X14955Y5811D02*
Y5941D01*
X11156Y4986D02*
X11404D01*
X11156Y4856D02*
X11404D01*
X11156D02*
Y4986D01*
X11404Y4856D02*
Y4986D01*
X11549Y5154D02*
X11679D01*
X11549Y4906D02*
X11679D01*
Y5154D01*
X11549Y4906D02*
Y5154D01*
X6510Y6579D02*
X6758D01*
X6510Y6709D02*
X6758D01*
Y6579D02*
Y6709D01*
X6510Y6579D02*
Y6709D01*
X11028Y4414D02*
Y4543D01*
X11276Y4414D02*
Y4543D01*
X11028D02*
X11276D01*
X11028Y4414D02*
X11276D01*
X7392Y6577D02*
X7746D01*
X7392Y7246D02*
X7746D01*
X7392Y6577D02*
Y7246D01*
X7746Y6577D02*
Y7246D01*
X8032Y6614D02*
Y7028D01*
X8248Y6614D02*
Y7028D01*
X8032Y6614D02*
X8248D01*
X8032Y7028D02*
X8248D01*
X8957Y6764D02*
Y6980D01*
X9370Y6764D02*
Y6980D01*
X8957D02*
X9370D01*
X8957Y6764D02*
X9370D01*
X10443Y6408D02*
Y6624D01*
X10856Y6408D02*
Y6624D01*
X10443D02*
X10856D01*
X10443Y6408D02*
X10856D01*
X11843Y6388D02*
X12291D01*
X11843Y5703D02*
X12291D01*
X11803Y5742D02*
Y6348D01*
X12331Y5742D02*
Y6348D01*
X11752Y5691D02*
Y6400D01*
X11791Y6439D02*
X12343D01*
X12382Y5691D02*
Y6400D01*
X11791Y5651D02*
X12343D01*
X9933Y6156D02*
Y6286D01*
X10181Y6156D02*
Y6286D01*
X9933D02*
X10181D01*
X9933Y6156D02*
X10181D01*
X11244Y5447D02*
X11374D01*
X11244Y5695D02*
X11374D01*
X11244Y5447D02*
Y5695D01*
X11374Y5447D02*
Y5695D01*
X8740Y6429D02*
Y6646D01*
X9154Y6429D02*
Y6646D01*
X8740D02*
X9154D01*
X8740Y6429D02*
X9154D01*
X9872Y6634D02*
Y7047D01*
X9656Y6634D02*
Y7047D01*
X9872D01*
X9656Y6634D02*
X9872D01*
X6949Y6577D02*
X7303D01*
X6949Y7246D02*
X7303D01*
X6949Y6577D02*
Y7246D01*
X7303Y6577D02*
Y7246D01*
X10890Y5164D02*
X11020D01*
X10890Y4916D02*
X11020D01*
Y5164D01*
X10890Y4916D02*
Y5164D01*
X11047Y6205D02*
X11295D01*
X11047Y6335D02*
X11295D01*
Y6205D02*
Y6335D01*
X11047Y6205D02*
Y6335D01*
X11028Y5695D02*
X11158D01*
X11028Y5447D02*
X11158D01*
Y5695D01*
X11028Y5447D02*
Y5695D01*
X10099Y7097D02*
X10768D01*
X10099Y6742D02*
X10768D01*
X10099D02*
Y7097D01*
X10768Y6742D02*
Y7097D01*
X8475Y7451D02*
X9144D01*
X8475Y7097D02*
X9144D01*
X8475D02*
Y7451D01*
X9144Y7097D02*
Y7451D01*
X14665Y207D02*
X16043D01*
X14665Y955D02*
X16043D01*
X14665Y207D02*
Y955D01*
X16043Y207D02*
Y955D01*
X20659Y10689D02*
Y12067D01*
X19911Y10689D02*
Y12067D01*
Y10689D02*
X20659D01*
X19911Y12067D02*
X20659D01*
X17133Y1953D02*
Y2083D01*
X17381Y1953D02*
Y2083D01*
X17133D02*
X17381D01*
X17133Y1953D02*
X17381D01*
X17133Y1179D02*
X17382D01*
X17133Y1309D02*
X17382D01*
Y1179D02*
Y1309D01*
X17133Y1179D02*
Y1309D01*
X18116Y13081D02*
Y13329D01*
X17986Y13081D02*
Y13329D01*
X18116D01*
X17986Y13081D02*
X18116D01*
X18795D02*
Y13329D01*
X18665Y13081D02*
Y13329D01*
X18795D01*
X18665Y13081D02*
X18795D01*
X20063Y6657D02*
X20311D01*
X20063Y6787D02*
X20311D01*
Y6657D02*
Y6787D01*
X20063Y6657D02*
Y6787D01*
X14020Y646D02*
X14268D01*
X14020Y516D02*
X14268D01*
X14020D02*
Y646D01*
X14268Y516D02*
Y646D01*
X20220Y10043D02*
Y10291D01*
X20350Y10043D02*
Y10291D01*
X20220Y10043D02*
X20350D01*
X20220Y10291D02*
X20350D01*
X1504Y14610D02*
Y14740D01*
X1256Y14610D02*
X1256Y14740D01*
X1256Y14610D02*
X1504D01*
X1256Y14740D02*
X1504D01*
X17304Y1787D02*
X17434Y1787D01*
X17304Y1539D02*
X17434D01*
X17434Y1787D02*
X17434Y1539D01*
X17304D02*
Y1787D01*
X18272Y13252D02*
Y13382D01*
X18520Y13252D02*
Y13382D01*
X18272D02*
X18520D01*
X18272Y13252D02*
X18520D01*
X3337Y16171D02*
X3632D01*
X3337Y15876D02*
X3632D01*
Y16171D01*
X3337Y15876D02*
Y16171D01*
Y18297D02*
X3632D01*
X3337Y18002D02*
X3632D01*
Y18297D01*
X3337Y18002D02*
Y18297D01*
Y17589D02*
X3632D01*
X3337Y17293D02*
X3632D01*
Y17589D01*
X3337Y17293D02*
Y17589D01*
X16394Y3606D02*
Y3854D01*
X16264Y3606D02*
Y3854D01*
X16394D01*
X16264Y3606D02*
X16394D01*
X16935D02*
Y3854D01*
X16805Y3606D02*
Y3854D01*
X16935D01*
X16805Y3606D02*
X16935D01*
X16264Y5211D02*
Y5459D01*
X16394Y5211D02*
Y5459D01*
X16264Y5211D02*
X16394D01*
X16264Y5459D02*
X16394D01*
X16805Y5211D02*
Y5459D01*
X16935Y5211D02*
Y5459D01*
X16805Y5211D02*
X16935D01*
X16805Y5459D02*
X16935D01*
X16087Y3990D02*
Y4120D01*
X16335Y3990D02*
Y4120D01*
X16087D02*
X16335D01*
X16087Y3990D02*
X16335D01*
X16087Y4945D02*
Y5075D01*
X16335Y4945D02*
Y5075D01*
X16087D02*
X16335D01*
X16087Y4945D02*
X16335D01*
X3337Y16880D02*
X3632D01*
X3337Y16585D02*
X3632D01*
Y16880D01*
X3337Y16585D02*
Y16880D01*
X3815Y15975D02*
X4177D01*
X3815Y16072D02*
X4177D01*
X3815Y18101D02*
X4177D01*
X3815Y18198D02*
X4177D01*
X3815Y17392D02*
X4177D01*
X3815Y17490D02*
X4177D01*
X3815Y16684D02*
X4177D01*
X3815Y16781D02*
X4177D01*
X6264Y585D02*
Y833D01*
X6394Y585D02*
Y833D01*
X6264Y585D02*
X6394D01*
X6264Y833D02*
X6394D01*
X6703Y2234D02*
X9065D01*
Y266D02*
Y2234D01*
X6703Y266D02*
X9065D01*
X6703Y2234D02*
X6703Y266D01*
X237Y15189D02*
X589D01*
X1255D02*
X1607D01*
X218Y15226D02*
X237D01*
X589D02*
X1255D01*
X1607D02*
X1626D01*
X1255Y15286D02*
X1607D01*
X237D02*
X589D01*
X1607Y15306D02*
X1626D01*
X218D02*
X237D01*
X1255Y15309D02*
X1483D01*
X361D02*
X589D01*
X237Y15709D02*
X355D01*
X1489D02*
X1607D01*
X139Y15775D02*
X237D01*
X1626Y15226D02*
Y15306D01*
Y15854D02*
Y15858D01*
Y18040D02*
Y18045D01*
Y18592D02*
Y18672D01*
Y15858D02*
Y18040D01*
X1607D02*
Y18710D01*
Y15189D02*
Y15858D01*
Y15854D02*
X1626D01*
X218D02*
X237D01*
X218Y15858D02*
X361D01*
X1483D02*
X1626D01*
X1489Y18189D02*
Y18612D01*
Y15286D02*
Y15709D01*
X1483Y18040D02*
Y18590D01*
Y15309D02*
Y15858D01*
X139Y16167D02*
X218D01*
X1255Y18590D02*
Y18672D01*
Y18710D01*
Y15226D02*
Y15309D01*
Y15189D02*
Y15226D01*
X139Y16753D02*
X218D01*
X589Y18590D02*
Y18672D01*
Y18710D01*
Y15226D02*
Y15309D01*
Y15189D02*
Y15226D01*
X-545Y17047D02*
X218D01*
X361Y15309D02*
Y15858D01*
Y18040D02*
Y18590D01*
X355Y15286D02*
Y15709D01*
Y18189D02*
Y18612D01*
X237Y15189D02*
Y15858D01*
Y18040D02*
Y18710D01*
X218Y15226D02*
Y15306D01*
Y15854D02*
Y15858D01*
Y18040D01*
Y18045D01*
Y18592D02*
Y18672D01*
X139Y15775D02*
Y16167D01*
Y16753D02*
Y17047D01*
Y17732D02*
Y18123D01*
X-545Y17634D02*
X218D01*
X139Y17732D02*
X218D01*
Y18040D02*
X361D01*
X1483D02*
X1626D01*
X1607Y18045D02*
X1626D01*
X218D02*
X237D01*
X-545Y17047D02*
Y17634D01*
X139Y18123D02*
X237D01*
Y18189D02*
X355D01*
X1489D02*
X1607D01*
X361Y18590D02*
X589D01*
X1255D02*
X1483D01*
X218Y18592D02*
X237D01*
X1607D02*
X1626D01*
X1255Y18612D02*
X1607D01*
X237D02*
X589D01*
X1607Y18672D02*
X1626D01*
X589D02*
X1255D01*
X218D02*
X237D01*
Y18710D02*
X589D01*
X1255D02*
X1607D01*
X1502Y14955D02*
Y15085D01*
X1254Y14955D02*
Y15085D01*
Y14955D02*
X1502Y14955D01*
X1254Y15085D02*
X1502D01*
X8006Y9612D02*
X8136D01*
X8006Y9364D02*
X8136Y9364D01*
Y9612D01*
X8006Y9364D02*
Y9612D01*
X8006Y10075D02*
X8136D01*
X8006Y9827D02*
X8136D01*
Y10075D01*
X8006Y9827D02*
X8006Y10075D01*
X10148Y13497D02*
X10289D01*
X10148Y13380D02*
Y13497D01*
X9928Y13380D02*
X10069Y13380D01*
Y13497D01*
X9928D02*
X10069D01*
X10148Y13380D02*
X10289Y13380D01*
X10680Y13497D02*
X10822Y13497D01*
X10680Y13380D02*
Y13497D01*
X10460Y13380D02*
X10602Y13380D01*
Y13497D01*
X10460Y13497D02*
X10602Y13497D01*
X10680Y13380D02*
X10822Y13380D01*
X7814Y9990D02*
X7814Y9911D01*
X7698Y9990D02*
X7814D01*
X7698Y9911D02*
Y9990D01*
X7617Y9911D02*
Y9990D01*
X7501D02*
X7617D01*
X7501Y9911D02*
Y9990D01*
X7420Y9911D02*
Y9990D01*
X7305D02*
X7420D01*
X7305Y9911D02*
Y9990D01*
Y9360D02*
Y9439D01*
Y9360D02*
X7420D01*
Y9439D01*
X7698Y9360D02*
Y9439D01*
Y9360D02*
X7814Y9360D01*
Y9439D01*
X7617Y9360D02*
Y9439D01*
X7501Y9360D02*
X7617D01*
X7501D02*
Y9439D01*
X7874D02*
Y9911D01*
X7244Y9439D02*
Y9911D01*
X7874D01*
X7244Y9439D02*
X7874D01*
X7782Y10260D02*
Y10390D01*
X7533Y10260D02*
Y10390D01*
Y10260D02*
X7782Y10260D01*
X7533Y10390D02*
X7782Y10390D01*
X7327Y8980D02*
Y9110D01*
X7575Y8980D02*
Y9110D01*
X7327D02*
X7575D01*
X7327Y8980D02*
X7575D01*
X12663Y4177D02*
Y4307D01*
X12415Y4177D02*
Y4307D01*
Y4177D02*
X12663D01*
X12415Y4307D02*
X12663D01*
X12417Y4876D02*
Y4966D01*
X12245Y5131D02*
X12417D01*
X12245Y5220D02*
X12417D01*
X12245Y4711D02*
X12417D01*
X12245Y4621D02*
X12417D01*
X12318Y4876D02*
Y4966D01*
X12245Y4966D02*
X12245Y4876D01*
Y4881D02*
Y4961D01*
Y4876D02*
X12417D01*
X12245Y4966D02*
X12417D01*
X12412D02*
Y5131D01*
Y4711D02*
Y4876D01*
X12318Y5131D02*
Y5220D01*
X12245Y5136D02*
Y5216D01*
Y5131D02*
Y5220D01*
X12318Y4621D02*
Y4711D01*
X12245Y4626D02*
Y4706D01*
Y4621D02*
Y4711D01*
X12412Y5220D02*
Y5314D01*
X12417Y5131D02*
Y5220D01*
X12903D02*
Y5314D01*
Y4966D02*
Y5131D01*
X12898Y5131D02*
Y5220D01*
X12997Y5131D02*
Y5220D01*
X13070Y5136D02*
Y5216D01*
Y5131D02*
Y5220D01*
X12898Y4966D02*
X13070Y4966D01*
X12898Y5220D02*
X13070D01*
X12898Y5131D02*
X13070D01*
X12903Y5314D02*
Y5315D01*
X12412Y5314D02*
Y5315D01*
Y5314D02*
X12903Y5314D01*
X12428Y5299D02*
X12887D01*
X12417Y4621D02*
Y4711D01*
X12412Y4621D02*
X12412Y4528D01*
X12898Y4621D02*
Y4711D01*
X12903Y4528D02*
Y4621D01*
X12997Y4621D02*
Y4711D01*
X12903D02*
Y4876D01*
X13070Y4621D02*
Y4711D01*
Y4626D02*
Y4706D01*
X12898Y4621D02*
X13070Y4621D01*
X12898Y4711D02*
X13070D01*
X12898Y4876D02*
X13070D01*
X12412Y4528D02*
X12903D01*
X12428Y4543D02*
X12887Y4543D01*
X13070Y4876D02*
Y4966D01*
Y4881D02*
Y4961D01*
X12997Y4876D02*
Y4966D01*
X12898Y4876D02*
Y4966D01*
X12887Y4543D02*
Y5299D01*
X12428Y4543D02*
Y5299D01*
X15690Y9488D02*
Y9629D01*
Y9488D02*
X15806D01*
Y9268D02*
Y9409D01*
X15690D02*
X15806D01*
X15690Y9268D02*
Y9409D01*
X15806Y9488D02*
Y9629D01*
X10004Y2732D02*
X10134D01*
X10004Y2484D02*
X10134D01*
Y2732D01*
X10004Y2484D02*
Y2732D01*
X7347Y4534D02*
X7477D01*
X7347Y4286D02*
X7477D01*
Y4534D01*
X7347Y4286D02*
Y4534D01*
X6585Y5089D02*
X6978D01*
X6545Y4341D02*
Y5049D01*
X6585Y4301D02*
X6978D01*
X7018Y4341D02*
Y5049D01*
X6597Y4392D02*
Y4998D01*
X6967Y4392D02*
Y4998D01*
X6636Y5038D02*
X6927D01*
X6636Y4353D02*
X6927D01*
X7347Y5240D02*
Y5488D01*
X7477Y5240D02*
Y5488D01*
X7347Y5240D02*
X7477D01*
X7347Y5488D02*
X7477D01*
X7347Y3559D02*
X7477D01*
X7347Y3311D02*
X7477D01*
Y3559D01*
X7347Y3311D02*
Y3559D01*
X8824Y2484D02*
Y2732D01*
X8954Y2484D02*
Y2732D01*
X8824Y2484D02*
X8954D01*
X8824Y2732D02*
X8954D01*
X17756Y4904D02*
Y5120D01*
X17343Y4904D02*
Y5120D01*
Y4904D02*
X17756D01*
X17343Y5120D02*
X17756D01*
X6420Y7961D02*
Y8102D01*
Y7961D02*
X6537D01*
Y7741D02*
Y7882D01*
X6420D02*
X6537D01*
X6420Y7741D02*
Y7882D01*
X6537Y7961D02*
Y8102D01*
X15668Y6112D02*
X15798D01*
X15668Y5864D02*
X15798D01*
Y6112D01*
X15668Y5864D02*
Y6112D01*
X10581Y15762D02*
Y15903D01*
Y15762D02*
X10698D01*
Y15542D02*
Y15683D01*
X10581D02*
X10698D01*
X10581Y15542D02*
Y15683D01*
X10698Y15762D02*
Y15903D01*
X9381Y15762D02*
Y15903D01*
Y15762D02*
X9497D01*
Y15542D02*
Y15683D01*
X9381D02*
X9497D01*
X9381Y15542D02*
Y15683D01*
X9497Y15762D02*
Y15903D01*
X6191Y19095D02*
X6439D01*
X6191Y18966D02*
X6439Y18966D01*
X6191Y18966D02*
X6191Y19095D01*
X6439Y18966D02*
Y19095D01*
X5732Y17306D02*
Y17713D01*
X5914Y17198D02*
Y17276D01*
X5798Y17198D02*
Y17276D01*
Y17198D02*
X5914D01*
X5798Y17743D02*
Y17821D01*
X5914Y17743D02*
X5914Y17821D01*
X5702Y17743D02*
X5732Y17713D01*
X5702Y17276D02*
X5732Y17306D01*
X5981D02*
X6011Y17276D01*
X5981Y17713D02*
X6011Y17743D01*
X5732Y17713D02*
X5981D01*
X5702Y17743D02*
X6011Y17743D01*
X5702Y17276D02*
Y17743D01*
Y17276D02*
X6011D01*
Y17743D01*
X5732Y17306D02*
X5981D01*
X5981Y17713D02*
X5981Y17306D01*
X5798Y17821D02*
X5914D01*
X6923Y17267D02*
Y17674D01*
X7105Y17159D02*
Y17237D01*
X6989Y17159D02*
Y17237D01*
Y17159D02*
X7105D01*
X6989Y17704D02*
Y17782D01*
X7105Y17704D02*
X7105Y17782D01*
X6893Y17704D02*
X6923Y17674D01*
X6893Y17237D02*
X6923Y17267D01*
X7172D02*
X7202Y17237D01*
X7172Y17674D02*
X7202Y17704D01*
X6923Y17674D02*
X7172D01*
X6893Y17704D02*
X7202Y17704D01*
X6893Y17237D02*
Y17704D01*
Y17237D02*
X7202D01*
Y17704D01*
X6923Y17267D02*
X7172D01*
X7172Y17674D02*
X7172Y17267D01*
X6989Y17782D02*
X7105D01*
X6174Y17431D02*
Y17510D01*
Y17431D02*
X6290Y17431D01*
Y17510D01*
X6371Y17431D02*
Y17510D01*
Y17431D02*
X6486D01*
Y17510D01*
X6568Y17431D02*
Y17510D01*
Y17431D02*
X6683D01*
Y17510D01*
Y17982D02*
Y18061D01*
X6568D02*
X6683D01*
X6568Y17982D02*
Y18061D01*
X6290Y17982D02*
Y18061D01*
X6174Y18061D02*
X6290Y18061D01*
X6174Y17982D02*
Y18061D01*
X6371Y17982D02*
Y18061D01*
X6486D01*
Y17982D02*
Y18061D01*
X6114Y17510D02*
Y17982D01*
X6744Y17510D02*
Y17982D01*
X6114Y17510D02*
X6744D01*
X6114Y17982D02*
X6744D01*
X6923Y18282D02*
Y18530D01*
X7053Y18282D02*
Y18530D01*
X6923Y18282D02*
X7053D01*
X6923Y18530D02*
X7053D01*
X7150Y18279D02*
Y18527D01*
X7280Y18279D02*
Y18527D01*
X7150Y18279D02*
X7280Y18279D01*
X7150Y18527D02*
X7280D01*
X6923Y18754D02*
X6923Y19002D01*
X7053Y18754D02*
X7053Y19002D01*
X6923Y18754D02*
X7053D01*
X6923Y19002D02*
X7053Y19002D01*
X14014Y5322D02*
X15589D01*
X14014Y3747D02*
X15589D01*
X14014D02*
Y5322D01*
X15589Y3747D02*
Y5322D01*
Y4869D02*
X15642D01*
X15589Y4967D02*
X15642D01*
Y4869D02*
Y4967D01*
Y4613D02*
Y4711D01*
X15589D02*
X15642D01*
X15589Y4613D02*
X15642D01*
Y4357D02*
Y4455D01*
X15589Y4455D02*
X15642Y4455D01*
X15589Y4357D02*
X15642D01*
Y4101D02*
Y4200D01*
X15589D02*
X15642D01*
X15589Y4101D02*
X15642D01*
X14864Y4485D02*
Y4583D01*
X14812Y4583D02*
X14864Y4583D01*
X14812Y4485D02*
X14864Y4485D01*
X15235Y5374D02*
X15235Y5322D01*
X15136D02*
Y5374D01*
X15235D01*
X14979Y5322D02*
Y5374D01*
X14881Y5322D02*
Y5374D01*
X14979Y5374D01*
X14723Y5322D02*
Y5374D01*
X14625Y5322D02*
Y5374D01*
X14723D01*
X14369Y5374D02*
X14467Y5374D01*
X14369Y5322D02*
Y5374D01*
X14467Y5322D02*
Y5374D01*
X13962Y4967D02*
X14014D01*
X13962Y4869D02*
X14014D01*
X13962D02*
Y4967D01*
Y4711D02*
X14014D01*
X13962Y4613D02*
X14014D01*
X13962D02*
Y4711D01*
Y4455D02*
X14014Y4455D01*
X13962Y4357D02*
X14014D01*
X13962D02*
Y4455D01*
Y4101D02*
Y4200D01*
Y4101D02*
X14014D01*
X13962Y4200D02*
X14014D01*
X14369Y3694D02*
Y3747D01*
X14467Y3694D02*
Y3747D01*
X14369Y3694D02*
X14467D01*
X14625D02*
Y3747D01*
X14723Y3694D02*
Y3747D01*
X14625Y3694D02*
X14723D01*
X14881D02*
Y3747D01*
X14979Y3694D02*
Y3747D01*
X14881Y3694D02*
X14979D01*
X15136D02*
X15235D01*
X15235Y3747D02*
X15235Y3694D01*
X15136D02*
Y3747D01*
D248*
X17369Y2810D02*
G03*
X17488Y2929I0J119D01*
G01*
D02*
G03*
X17369Y3048I-119J-0D01*
G01*
X17369Y3048D02*
G03*
X17250Y2929I0J-119D01*
G01*
X17250D02*
G03*
X17369Y2810I119J-0D01*
G01*
X17280Y3008D02*
G03*
X17250Y2929I88J-79D01*
G01*
X17250Y2929D02*
G03*
X17369Y2810I119J0D01*
G01*
D02*
G03*
X17488Y2929I0J119D01*
G01*
Y2929D02*
G03*
X17458Y3008I-119J0D01*
G01*
X17280D02*
G03*
X17250Y2929I88J-79D01*
G01*
X17250Y2929D02*
G03*
X17369Y2810I119J0D01*
G01*
D02*
G03*
X17488Y2929I0J119D01*
G01*
Y2929D02*
G03*
X17458Y3008I-119J0D01*
G01*
X17319Y3440D02*
G03*
X17369Y3391I50J0D01*
G01*
X17369Y3391D02*
G03*
X17419Y3440I0J50D01*
G01*
X17319D02*
G03*
X17369Y3391I50J0D01*
G01*
X17369Y3391D02*
G03*
X17419Y3440I0J50D01*
G01*
X17319Y2457D02*
G03*
X17300Y2477I-20J-0D01*
G01*
X17438Y2477D02*
G03*
X17419Y2457I0J-20D01*
G01*
X17319Y2457D02*
G03*
X17300Y2477I-20J-0D01*
G01*
X17438Y2477D02*
G03*
X17419Y2457I0J-20D01*
G01*
X17369Y2576D02*
G03*
X17722Y2929I0J353D01*
G01*
X17722D02*
G03*
X17369Y3282I-353J-0D01*
G01*
X17369Y3282D02*
G03*
X17016Y2929I0J-353D01*
G01*
Y2929D02*
G03*
X17369Y2576I353J0D01*
G01*
X17369Y2576D02*
G03*
X17722Y2929I0J353D01*
G01*
X17722D02*
G03*
X17369Y3282I-353J-0D01*
G01*
X17369Y3282D02*
G03*
X17016Y2929I0J-353D01*
G01*
Y2929D02*
G03*
X17369Y2576I353J0D01*
G01*
Y2548D02*
G03*
X17750Y2929I-0J381D01*
G01*
X17750Y2929D02*
G03*
X17369Y3310I-381J0D01*
G01*
X17369D02*
G03*
X16988Y2929I-0J-381D01*
G01*
D02*
G03*
X17369Y2548I381J0D01*
G01*
X17369Y2515D02*
G03*
X17783Y2929I0J414D01*
G01*
X17783Y2929D02*
G03*
X17369Y3343I-414J0D01*
G01*
X17369Y3343D02*
G03*
X16955Y2929I0J-414D01*
G01*
Y2929D02*
G03*
X17369Y2515I414J-0D01*
G01*
X16923Y3181D02*
G03*
X16912Y3185I-11J-13D01*
G01*
X16926Y3178D02*
G03*
X16923Y3181I-14J-10D01*
G01*
X16928Y3175D02*
G03*
X16926Y3178I-18J-8D01*
G01*
X16928Y3156D02*
G03*
X16928Y3175I-26J9D01*
G01*
X16910Y3116D02*
G03*
X16912Y3119I-35J22D01*
G01*
X16908Y3114D02*
G03*
X16910Y3116I-25J19D01*
G01*
X16906Y3112D02*
G03*
X16908Y3114I-17J17D01*
G01*
X16901Y3107D02*
G03*
X16906Y3112I-7J16D01*
G01*
X16899Y3107D02*
G03*
X16901Y3107I-5J17D01*
G01*
X16896Y3106D02*
G03*
X16899Y3107I-3J20D01*
G01*
X16892Y3106D02*
G03*
X16896Y3106I0J29D01*
G01*
X16923Y3181D02*
G03*
X16912Y3185I-11J-13D01*
G01*
X16926Y3178D02*
G03*
X16923Y3181I-14J-10D01*
G01*
X16928Y3175D02*
G03*
X16926Y3178I-18J-8D01*
G01*
X16928Y3156D02*
G03*
X16928Y3175I-26J9D01*
G01*
X16910Y3116D02*
G03*
X16912Y3119I-35J22D01*
G01*
X16908Y3114D02*
G03*
X16910Y3116I-25J19D01*
G01*
X16906Y3112D02*
G03*
X16908Y3114I-17J17D01*
G01*
X16901Y3107D02*
G03*
X16906Y3112I-7J16D01*
G01*
X16899Y3107D02*
G03*
X16901Y3107I-5J17D01*
G01*
X16896Y3106D02*
G03*
X16899Y3107I-3J20D01*
G01*
X16892Y3106D02*
G03*
X16896Y3106I0J29D01*
G01*
X16912Y2672D02*
G03*
X16923Y2676I1J17D01*
G01*
X16923D02*
G03*
X16926Y2679I-11J12D01*
G01*
D02*
G03*
X16928Y2683I-16J11D01*
G01*
D02*
G03*
X16928Y2702I-25J10D01*
G01*
X16912Y2738D02*
G03*
X16910Y2741I-37J-19D01*
G01*
X16910D02*
G03*
X16908Y2744I-26J-16D01*
G01*
X16908Y2744D02*
G03*
X16906Y2746I-19J-15D01*
G01*
Y2746D02*
G03*
X16901Y2750I-13J-12D01*
G01*
Y2750D02*
G03*
X16899Y2751I-7J-16D01*
G01*
Y2751D02*
G03*
X16896Y2751I-5J-19D01*
G01*
Y2751D02*
G03*
X16892Y2752I-4J-28D01*
G01*
X16912Y2672D02*
G03*
X16923Y2676I1J17D01*
G01*
X16923D02*
G03*
X16926Y2679I-11J12D01*
G01*
D02*
G03*
X16928Y2683I-16J11D01*
G01*
D02*
G03*
X16928Y2702I-25J10D01*
G01*
X16912Y2738D02*
G03*
X16910Y2741I-37J-19D01*
G01*
X16910D02*
G03*
X16908Y2744I-26J-16D01*
G01*
X16908Y2744D02*
G03*
X16906Y2746I-19J-15D01*
G01*
Y2746D02*
G03*
X16901Y2750I-13J-12D01*
G01*
Y2750D02*
G03*
X16899Y2751I-7J-16D01*
G01*
Y2751D02*
G03*
X16896Y2751I-5J-19D01*
G01*
Y2751D02*
G03*
X16892Y2752I-4J-28D01*
G01*
X17826Y3185D02*
G03*
X17814Y3181I-1J-17D01*
G01*
D02*
G03*
X17812Y3178I11J-12D01*
G01*
X17812Y3178D02*
G03*
X17810Y3175I16J-11D01*
G01*
Y3175D02*
G03*
X17809Y3156I26J-10D01*
G01*
X17826Y3119D02*
G03*
X17828Y3116I37J19D01*
G01*
Y3116D02*
G03*
X17829Y3114I26J16D01*
G01*
D02*
G03*
X17831Y3112I19J15D01*
G01*
D02*
G03*
X17837Y3107I13J12D01*
G01*
X17837D02*
G03*
X17839Y3107I7J16D01*
G01*
X17839D02*
G03*
X17841Y3106I5J19D01*
G01*
X17841Y3106D02*
G03*
X17846Y3106I4J28D01*
G01*
X17826Y3185D02*
G03*
X17814Y3181I-1J-17D01*
G01*
D02*
G03*
X17812Y3178I11J-12D01*
G01*
X17812Y3178D02*
G03*
X17810Y3175I16J-11D01*
G01*
Y3175D02*
G03*
X17809Y3156I26J-10D01*
G01*
X17826Y3119D02*
G03*
X17828Y3116I37J19D01*
G01*
Y3116D02*
G03*
X17829Y3114I26J16D01*
G01*
D02*
G03*
X17831Y3112I19J15D01*
G01*
D02*
G03*
X17837Y3107I13J12D01*
G01*
X17837D02*
G03*
X17839Y3107I7J16D01*
G01*
X17839D02*
G03*
X17841Y3106I5J19D01*
G01*
X17841Y3106D02*
G03*
X17846Y3106I4J28D01*
G01*
X17814Y2676D02*
G03*
X17826Y2672I11J13D01*
G01*
X17812Y2679D02*
G03*
X17814Y2676I14J10D01*
G01*
X17810Y2683D02*
G03*
X17812Y2679I18J8D01*
G01*
X17809Y2702D02*
G03*
X17810Y2683I26J-9D01*
G01*
X17828Y2741D02*
G03*
X17826Y2738I35J-22D01*
G01*
X17829Y2744D02*
G03*
X17828Y2741I25J-19D01*
G01*
X17831Y2746D02*
G03*
X17829Y2744I17J-17D01*
G01*
X17837Y2750D02*
G03*
X17831Y2746I7J-16D01*
G01*
X17839Y2751D02*
G03*
X17837Y2750I5J-17D01*
G01*
X17841Y2751D02*
G03*
X17839Y2751I3J-20D01*
G01*
X17846Y2752D02*
G03*
X17841Y2751I-0J-29D01*
G01*
X17814Y2676D02*
G03*
X17826Y2672I11J13D01*
G01*
X17812Y2679D02*
G03*
X17814Y2676I14J10D01*
G01*
X17810Y2683D02*
G03*
X17812Y2679I18J8D01*
G01*
X17809Y2702D02*
G03*
X17810Y2683I26J-9D01*
G01*
X17828Y2741D02*
G03*
X17826Y2738I35J-22D01*
G01*
X17829Y2744D02*
G03*
X17828Y2741I25J-19D01*
G01*
X17831Y2746D02*
G03*
X17829Y2744I17J-17D01*
G01*
X17837Y2750D02*
G03*
X17831Y2746I7J-16D01*
G01*
X17839Y2751D02*
G03*
X17837Y2750I5J-17D01*
G01*
X17841Y2751D02*
G03*
X17839Y2751I3J-20D01*
G01*
X17846Y2752D02*
G03*
X17841Y2751I-0J-29D01*
G01*
X17578Y2437D02*
G03*
X17538Y2477I-40J0D01*
G01*
X17199Y2477D02*
G03*
X17160Y2437I1J-40D01*
G01*
X17071Y3421D02*
G03*
X17110Y3381I40J0D01*
G01*
X17628D02*
G03*
X17667Y3421I-1J40D01*
G01*
X17578Y2437D02*
G03*
X17538Y2477I-40J0D01*
G01*
X17199Y2477D02*
G03*
X17160Y2437I1J-40D01*
G01*
X17071Y3421D02*
G03*
X17110Y3381I40J0D01*
G01*
X17628D02*
G03*
X17667Y3421I-1J40D01*
G01*
X17369Y10488D02*
G03*
X17250Y10368I-0J-119D01*
G01*
X17250D02*
G03*
X17369Y10249I119J0D01*
G01*
X17369D02*
G03*
X17488Y10368I-0J119D01*
G01*
X17488D02*
G03*
X17369Y10488I-119J0D01*
G01*
X17458Y10289D02*
G03*
X17488Y10368I-88J79D01*
G01*
X17488Y10368D02*
G03*
X17369Y10488I-119J-0D01*
G01*
D02*
G03*
X17250Y10368I-0J-119D01*
G01*
Y10368D02*
G03*
X17280Y10289I119J-0D01*
G01*
X17458D02*
G03*
X17488Y10368I-88J79D01*
G01*
X17488Y10368D02*
G03*
X17369Y10488I-119J-0D01*
G01*
D02*
G03*
X17250Y10368I-0J-119D01*
G01*
Y10368D02*
G03*
X17280Y10289I119J-0D01*
G01*
X17419Y9857D02*
G03*
X17369Y9906I-50J-0D01*
G01*
X17369Y9906D02*
G03*
X17319Y9857I-0J-50D01*
G01*
X17419D02*
G03*
X17369Y9906I-50J-0D01*
G01*
X17369Y9906D02*
G03*
X17319Y9857I-0J-50D01*
G01*
X17419Y10840D02*
G03*
X17438Y10821I20J0D01*
G01*
X17300D02*
G03*
X17319Y10840I-0J20D01*
G01*
X17419D02*
G03*
X17438Y10821I20J0D01*
G01*
X17300D02*
G03*
X17319Y10840I-0J20D01*
G01*
X17369Y10721D02*
G03*
X17016Y10369I-0J-353D01*
G01*
D02*
G03*
X17369Y10016I353J0D01*
G01*
X17369D02*
G03*
X17722Y10369I-0J353D01*
G01*
X17722D02*
G03*
X17369Y10721I-353J-0D01*
G01*
X17369Y10721D02*
G03*
X17016Y10369I-0J-353D01*
G01*
D02*
G03*
X17369Y10016I353J0D01*
G01*
X17369D02*
G03*
X17722Y10369I-0J353D01*
G01*
X17722D02*
G03*
X17369Y10721I-353J-0D01*
G01*
X17369Y10749D02*
G03*
X16988Y10369I0J-381D01*
G01*
D02*
G03*
X17369Y9988I381J-0D01*
G01*
X17369Y9988D02*
G03*
X17750Y10369I0J381D01*
G01*
X17750Y10369D02*
G03*
X17369Y10749I-381J-0D01*
G01*
X17369Y10783D02*
G03*
X16955Y10369I-0J-414D01*
G01*
X16955Y10369D02*
G03*
X17369Y9954I414J-0D01*
G01*
Y9954D02*
G03*
X17783Y10369I-0J414D01*
G01*
X17783D02*
G03*
X17369Y10783I-414J0D01*
G01*
X17814Y10116D02*
G03*
X17826Y10112I11J13D01*
G01*
X17812Y10119D02*
G03*
X17814Y10116I14J10D01*
G01*
X17810Y10122D02*
G03*
X17812Y10119I18J8D01*
G01*
X17809Y10142D02*
G03*
X17810Y10122I26J-9D01*
G01*
X17828Y10181D02*
G03*
X17826Y10178I35J-22D01*
G01*
X17829Y10184D02*
G03*
X17828Y10181I25J-19D01*
G01*
X17831Y10186D02*
G03*
X17829Y10184I17J-17D01*
G01*
X17837Y10190D02*
G03*
X17831Y10186I7J-16D01*
G01*
X17839Y10191D02*
G03*
X17837Y10190I5J-17D01*
G01*
X17841Y10191D02*
G03*
X17839Y10190I3J-20D01*
G01*
X17846Y10191D02*
G03*
X17841Y10191I-0J-29D01*
G01*
X17814Y10116D02*
G03*
X17826Y10112I11J13D01*
G01*
X17812Y10119D02*
G03*
X17814Y10116I14J10D01*
G01*
X17810Y10122D02*
G03*
X17812Y10119I18J8D01*
G01*
X17809Y10142D02*
G03*
X17810Y10122I26J-9D01*
G01*
X17828Y10181D02*
G03*
X17826Y10178I35J-22D01*
G01*
X17829Y10184D02*
G03*
X17828Y10181I25J-19D01*
G01*
X17831Y10186D02*
G03*
X17829Y10184I17J-17D01*
G01*
X17837Y10190D02*
G03*
X17831Y10186I7J-16D01*
G01*
X17839Y10191D02*
G03*
X17837Y10190I5J-17D01*
G01*
X17841Y10191D02*
G03*
X17839Y10190I3J-20D01*
G01*
X17846Y10191D02*
G03*
X17841Y10191I-0J-29D01*
G01*
X17826Y10625D02*
G03*
X17814Y10621I-1J-17D01*
G01*
X17814Y10621D02*
G03*
X17812Y10618I11J-12D01*
G01*
X17812D02*
G03*
X17810Y10615I16J-11D01*
G01*
D02*
G03*
X17809Y10595I25J-10D01*
G01*
X17826Y10559D02*
G03*
X17828Y10556I37J19D01*
G01*
X17828Y10556D02*
G03*
X17829Y10553I26J16D01*
G01*
X17829Y10553D02*
G03*
X17831Y10551I19J15D01*
G01*
X17831Y10551D02*
G03*
X17837Y10547I13J12D01*
G01*
D02*
G03*
X17839Y10547I7J16D01*
G01*
Y10547D02*
G03*
X17841Y10546I5J19D01*
G01*
Y10546D02*
G03*
X17846Y10546I4J28D01*
G01*
X17826Y10625D02*
G03*
X17814Y10621I-1J-17D01*
G01*
X17814Y10621D02*
G03*
X17812Y10618I11J-12D01*
G01*
X17812D02*
G03*
X17810Y10615I16J-11D01*
G01*
D02*
G03*
X17809Y10595I25J-10D01*
G01*
X17826Y10559D02*
G03*
X17828Y10556I37J19D01*
G01*
X17828Y10556D02*
G03*
X17829Y10553I26J16D01*
G01*
X17829Y10553D02*
G03*
X17831Y10551I19J15D01*
G01*
X17831Y10551D02*
G03*
X17837Y10547I13J12D01*
G01*
D02*
G03*
X17839Y10547I7J16D01*
G01*
Y10547D02*
G03*
X17841Y10546I5J19D01*
G01*
Y10546D02*
G03*
X17846Y10546I4J28D01*
G01*
X16912Y10112D02*
G03*
X16924Y10116I1J17D01*
G01*
X16924Y10116D02*
G03*
X16926Y10119I-11J12D01*
G01*
X16926D02*
G03*
X16928Y10122I-16J11D01*
G01*
X16928Y10122D02*
G03*
X16928Y10142I-26J10D01*
G01*
X16912Y10178D02*
G03*
X16910Y10181I-37J-19D01*
G01*
X16910D02*
G03*
X16908Y10184I-26J-16D01*
G01*
Y10184D02*
G03*
X16907Y10186I-19J-15D01*
G01*
Y10186D02*
G03*
X16901Y10190I-13J-12D01*
G01*
X16901Y10190D02*
G03*
X16899Y10190I-7J-16D01*
G01*
D02*
G03*
X16897Y10191I-5J-19D01*
G01*
D02*
G03*
X16892Y10191I-4J-28D01*
G01*
X16912Y10112D02*
G03*
X16924Y10116I1J17D01*
G01*
X16924Y10116D02*
G03*
X16926Y10119I-11J12D01*
G01*
X16926D02*
G03*
X16928Y10122I-16J11D01*
G01*
X16928Y10122D02*
G03*
X16928Y10142I-26J10D01*
G01*
X16912Y10178D02*
G03*
X16910Y10181I-37J-19D01*
G01*
X16910D02*
G03*
X16908Y10184I-26J-16D01*
G01*
Y10184D02*
G03*
X16907Y10186I-19J-15D01*
G01*
Y10186D02*
G03*
X16901Y10190I-13J-12D01*
G01*
X16901Y10190D02*
G03*
X16899Y10190I-7J-16D01*
G01*
D02*
G03*
X16897Y10191I-5J-19D01*
G01*
D02*
G03*
X16892Y10191I-4J-28D01*
G01*
X16924Y10621D02*
G03*
X16912Y10625I-11J-13D01*
G01*
X16926Y10618D02*
G03*
X16924Y10621I-14J-10D01*
G01*
X16928Y10615D02*
G03*
X16926Y10618I-18J-8D01*
G01*
X16928Y10595D02*
G03*
X16928Y10615I-26J9D01*
G01*
X16910Y10556D02*
G03*
X16912Y10559I-35J22D01*
G01*
X16908Y10553D02*
G03*
X16910Y10556I-25J19D01*
G01*
X16907Y10551D02*
G03*
X16908Y10553I-17J17D01*
G01*
X16901Y10547D02*
G03*
X16907Y10551I-7J16D01*
G01*
X16899Y10547D02*
G03*
X16901Y10547I-5J17D01*
G01*
X16897Y10546D02*
G03*
X16899Y10547I-3J20D01*
G01*
X16892Y10546D02*
G03*
X16897Y10546I0J29D01*
G01*
X16924Y10621D02*
G03*
X16912Y10625I-11J-13D01*
G01*
X16926Y10618D02*
G03*
X16924Y10621I-14J-10D01*
G01*
X16928Y10615D02*
G03*
X16926Y10618I-18J-8D01*
G01*
X16928Y10595D02*
G03*
X16928Y10615I-26J9D01*
G01*
X16910Y10556D02*
G03*
X16912Y10559I-35J22D01*
G01*
X16908Y10553D02*
G03*
X16910Y10556I-25J19D01*
G01*
X16907Y10551D02*
G03*
X16908Y10553I-17J17D01*
G01*
X16901Y10547D02*
G03*
X16907Y10551I-7J16D01*
G01*
X16899Y10547D02*
G03*
X16901Y10547I-5J17D01*
G01*
X16897Y10546D02*
G03*
X16899Y10547I-3J20D01*
G01*
X16892Y10546D02*
G03*
X16897Y10546I0J29D01*
G01*
X17160Y10860D02*
G03*
X17199Y10821I40J-0D01*
G01*
X17538D02*
G03*
X17578Y10860I-1J40D01*
G01*
X17667Y9877D02*
G03*
X17628Y9916I-40J-0D01*
G01*
X17110D02*
G03*
X17071Y9877I1J-40D01*
G01*
X17160Y10860D02*
G03*
X17199Y10821I40J-0D01*
G01*
X17538D02*
G03*
X17578Y10860I-1J40D01*
G01*
X17667Y9877D02*
G03*
X17628Y9916I-40J-0D01*
G01*
X17110D02*
G03*
X17071Y9877I1J-40D01*
G01*
X10410Y7799D02*
G03*
X10450Y7760I39J0D01*
G01*
X10457Y7799D02*
G03*
X10496Y7760I39J0D01*
G01*
X10382Y8106D02*
G03*
X10436Y8053I53J0D01*
G01*
X10489Y8000D02*
G03*
X10436Y8053I-53J0D01*
G01*
X10457Y7998D02*
G03*
X10404Y8051I-53J0D01*
G01*
X10362Y8091D02*
G03*
X10402Y8051I39J0D01*
G01*
X10423Y7998D02*
G03*
X10404Y8039I-53J0D01*
G01*
X10363Y8095D02*
G03*
X10382Y8054I53J0D01*
G01*
X10489Y7839D02*
G03*
X10548Y7780I59J0D01*
G01*
Y8755D02*
G03*
X10489Y8696I0J-59D01*
G01*
X10382Y8481D02*
G03*
X10363Y8441I34J-41D01*
G01*
X10404Y8497D02*
G03*
X10423Y8537I-34J41D01*
G01*
X10402Y8484D02*
G03*
X10362Y8445I0J-39D01*
G01*
X10404Y8484D02*
G03*
X10457Y8537I0J53D01*
G01*
X10436Y8482D02*
G03*
X10489Y8535I0J53D01*
G01*
X10436Y8482D02*
G03*
X10382Y8429I0J-53D01*
G01*
X10496Y8776D02*
G03*
X10457Y8736I0J-39D01*
G01*
X10450Y8776D02*
G03*
X10410Y8736I0J-39D01*
G01*
X11342Y7780D02*
G03*
X11401Y7839I0J59D01*
G01*
X11508Y8054D02*
G03*
X11527Y8095I-34J41D01*
G01*
X11486Y8039D02*
G03*
X11467Y7998I34J-41D01*
G01*
X11488Y8051D02*
G03*
X11528Y8091I0J39D01*
G01*
X11486Y8051D02*
G03*
X11433Y7998I0J-53D01*
G01*
X11454Y8053D02*
G03*
X11401Y8000I0J-53D01*
G01*
X11454Y8053D02*
G03*
X11507Y8106I0J53D01*
G01*
X11394Y7760D02*
G03*
X11433Y7799I0J39D01*
G01*
X11440Y7760D02*
G03*
X11479Y7799I0J39D01*
G01*
Y8736D02*
G03*
X11440Y8776I-39J0D01*
G01*
X11433Y8736D02*
G03*
X11394Y8776I-39J0D01*
G01*
X11507Y8429D02*
G03*
X11454Y8482I-53J0D01*
G01*
X11401Y8535D02*
G03*
X11454Y8482I53J0D01*
G01*
X11433Y8537D02*
G03*
X11486Y8484I53J0D01*
G01*
X11528Y8445D02*
G03*
X11488Y8484I-39J0D01*
G01*
X11467Y8537D02*
G03*
X11486Y8497I53J0D01*
G01*
X11527Y8441D02*
G03*
X11508Y8481I-53J0D01*
G01*
X11401Y8696D02*
G03*
X11342Y8755I-59J0D01*
G01*
X11106Y8268D02*
G03*
X11106Y8268I-161J0D01*
G01*
X11354D02*
G03*
X11354Y8268I-410J0D01*
G01*
X17280Y3008D02*
X17458D01*
X17280D02*
X17458D01*
X17458Y3381D02*
Y3440D01*
X17279Y3381D02*
X17458D01*
X17279D02*
Y3440D01*
X17319D01*
X17419D02*
X17458D01*
X17419D02*
X17458D01*
X17279Y3381D02*
X17458D01*
X17279D02*
Y3440D01*
X17319D01*
X17419D02*
X17458D01*
X17319Y2417D02*
Y2457D01*
X17300Y2477D02*
X17438D01*
X17419Y2417D02*
Y2457D01*
X17319Y2417D02*
X17419D01*
X17319D02*
Y2457D01*
X17300Y2477D02*
X17438D01*
X17419Y2417D02*
Y2457D01*
X17319Y2417D02*
X17419D01*
X16872Y3106D02*
Y3185D01*
X16912Y3185D01*
Y3119D02*
X16928Y3156D01*
X16912Y3119D02*
X16928Y3156D01*
X16872Y3106D02*
X16892Y3106D01*
X16872Y3106D02*
X16892Y3106D01*
X16872Y3185D02*
X16912Y3185D01*
Y3119D02*
X16928Y3156D01*
X16872Y3106D02*
X16892Y3106D01*
X16872Y2672D02*
Y2752D01*
Y2672D02*
X16912D01*
Y2738D02*
X16928Y2702D01*
X16912Y2738D02*
X16928Y2702D01*
X16872Y2752D02*
X16892Y2752D01*
X16872Y2752D02*
X16892Y2752D01*
X16872Y2672D02*
X16912D01*
Y2738D02*
X16928Y2702D01*
X16872Y2752D02*
X16892Y2752D01*
X17866Y3106D02*
Y3185D01*
X17826Y3185D02*
X17866Y3185D01*
X17809Y3156D02*
X17826Y3119D01*
X17809Y3156D02*
X17826Y3119D01*
X17846Y3106D02*
X17866Y3106D01*
X17846Y3106D02*
X17866Y3106D01*
X17826Y3185D02*
X17866Y3185D01*
X17809Y3156D02*
X17826Y3119D01*
X17846Y3106D02*
X17866Y3106D01*
X17866Y2672D02*
X17866Y2752D01*
X17826Y2672D02*
X17866Y2672D01*
X17809Y2702D02*
X17826Y2738D01*
X17809Y2702D02*
X17826Y2738D01*
X17846Y2752D02*
X17866D01*
X17846D02*
X17866D01*
X17826Y2672D02*
X17866Y2672D01*
X17809Y2702D02*
X17826Y2738D01*
X17846Y2752D02*
X17866D01*
X17866Y2437D02*
Y3421D01*
X17578Y2437D02*
X17866Y2437D01*
X17199Y2477D02*
X17538Y2477D01*
X17199Y2477D02*
X17538Y2477D01*
X16872Y2437D02*
X17160D01*
X16872D02*
Y3421D01*
X17071D01*
X17110Y3381D02*
X17628D01*
X17110D02*
X17628D01*
X17667Y3421D02*
X17866D01*
X17667D02*
X17866D01*
X17578Y2437D02*
X17866Y2437D01*
X17199Y2477D02*
X17538Y2477D01*
X16872Y2437D02*
X17160D01*
X16872D02*
Y3421D01*
X17071D01*
X17110Y3381D02*
X17628D01*
X17667Y3421D02*
X17866D01*
X17280Y10289D02*
X17458Y10289D01*
X17280Y10289D02*
X17458Y10289D01*
X17280Y9857D02*
Y9916D01*
X17458D01*
X17458Y9857D02*
X17458Y9916D01*
X17419Y9857D02*
X17458D01*
X17280Y9857D02*
X17319Y9857D01*
X17280Y9857D02*
X17319Y9857D01*
X17280Y9916D02*
X17458D01*
X17458Y9857D02*
X17458Y9916D01*
X17419Y9857D02*
X17458D01*
X17280Y9857D02*
X17319Y9857D01*
X17419Y10840D02*
Y10880D01*
X17300Y10821D02*
X17438D01*
X17319Y10840D02*
X17319Y10880D01*
X17419D01*
Y10840D02*
Y10880D01*
X17300Y10821D02*
X17438D01*
X17319Y10840D02*
X17319Y10880D01*
X17419D01*
X17866Y10112D02*
X17866Y10191D01*
X17826Y10112D02*
X17866Y10112D01*
X17809Y10142D02*
X17826Y10178D01*
X17809Y10142D02*
X17826Y10178D01*
X17846Y10191D02*
X17866D01*
X17846D02*
X17866D01*
X17826Y10112D02*
X17866Y10112D01*
X17809Y10142D02*
X17826Y10178D01*
X17846Y10191D02*
X17866D01*
X17866Y10546D02*
Y10625D01*
X17826Y10625D02*
X17866Y10625D01*
X17809Y10595D02*
X17826Y10559D01*
X17809Y10595D02*
X17826Y10559D01*
X17846Y10546D02*
X17866Y10546D01*
X17846Y10546D02*
X17866Y10546D01*
X17826Y10625D02*
X17866Y10625D01*
X17809Y10595D02*
X17826Y10559D01*
X17846Y10546D02*
X17866Y10546D01*
X16872Y10112D02*
Y10191D01*
Y10112D02*
X16912Y10112D01*
Y10178D02*
X16928Y10142D01*
X16912Y10178D02*
X16928Y10142D01*
X16872Y10191D02*
X16892Y10191D01*
X16872Y10191D02*
X16892Y10191D01*
X16872Y10112D02*
X16912Y10112D01*
Y10178D02*
X16928Y10142D01*
X16872Y10191D02*
X16892Y10191D01*
X16872Y10546D02*
X16872Y10625D01*
X16912Y10625D01*
Y10559D02*
X16928Y10595D01*
X16912Y10559D02*
X16928Y10595D01*
X16872Y10546D02*
X16892D01*
X16872D02*
X16892D01*
X16872Y10625D02*
X16912Y10625D01*
Y10559D02*
X16928Y10595D01*
X16872Y10546D02*
X16892D01*
X16872Y9877D02*
Y10860D01*
X17160D01*
X17199Y10821D02*
X17538Y10821D01*
X17199Y10821D02*
X17538Y10821D01*
X17578Y10860D02*
X17866D01*
X17866Y9877D02*
X17866Y10860D01*
X17667Y9877D02*
X17866Y9877D01*
X17110Y9916D02*
X17628Y9916D01*
X17110Y9916D02*
X17628Y9916D01*
X16872Y9877D02*
X17071Y9877D01*
X16872Y9877D02*
X17071Y9877D01*
X16872Y10860D02*
X17160D01*
X17199Y10821D02*
X17538Y10821D01*
X17578Y10860D02*
X17866D01*
X17866Y9877D02*
X17866Y10860D01*
X17667Y9877D02*
X17866Y9877D01*
X17110Y9916D02*
X17628Y9916D01*
X16872Y9877D02*
X17071Y9877D01*
X10402Y8051D02*
X10404D01*
X10382Y8054D02*
X10404Y8039D01*
X10489Y7839D02*
Y8000D01*
X10457Y7799D02*
Y7998D01*
X10423Y7801D02*
Y7998D01*
X10280Y7801D02*
X10423D01*
X10280D02*
Y7994D01*
X10423D01*
X10317Y7801D02*
Y7994D01*
X10362D02*
X10362Y8207D01*
X10343Y8171D02*
X10362D01*
X10343Y8329D02*
X10362D01*
X10362Y8541D02*
X10362Y8329D01*
X10317Y8541D02*
Y8734D01*
X10280Y8541D02*
X10423D01*
X10280D02*
Y8734D01*
X10423D01*
Y8537D02*
Y8734D01*
X10457Y8537D02*
Y8736D01*
X10489Y8535D02*
Y8696D01*
X10382Y8481D02*
X10404Y8497D01*
X10402Y8484D02*
X10404D01*
X11528Y8207D02*
X11528Y7994D01*
X11573Y7801D02*
Y7994D01*
X11467D02*
X11610D01*
Y7801D02*
Y7994D01*
X11467Y7801D02*
X11610D01*
X11467D02*
Y7998D01*
X11433Y7799D02*
Y7998D01*
X11401Y7839D02*
Y8000D01*
X11486Y8039D02*
X11508Y8054D01*
X11486Y8051D02*
X11488D01*
X11528Y8171D02*
X11547D01*
X11486Y8484D02*
X11488D01*
X11486Y8497D02*
X11508Y8481D01*
X11401Y8535D02*
Y8696D01*
X11433Y8537D02*
Y8736D01*
X11467Y8537D02*
Y8734D01*
X11610D01*
Y8541D02*
Y8734D01*
X11467Y8541D02*
X11610D01*
X11573D02*
Y8734D01*
X11528Y8329D02*
X11528Y8541D01*
X11528Y8329D02*
X11547D01*
X10382Y8106D02*
Y8429D01*
X10362Y8171D02*
Y8329D01*
X10343Y8171D02*
Y8329D01*
X11507Y8106D02*
Y8429D01*
X11547Y8171D02*
Y8329D01*
X11528Y8171D02*
Y8329D01*
X10450Y7760D02*
X11440D01*
X10548Y7780D02*
X11342D01*
X10548Y8755D02*
X11342D01*
X10450Y8776D02*
X11440D01*
D249*
X6309Y18762D02*
Y18637D01*
X6334Y18612D01*
X6384D01*
X6409Y18637D01*
Y18762D01*
X6559Y18612D02*
X6459D01*
X6559Y18712D01*
Y18737D01*
X6534Y18762D01*
X6484D01*
X6459Y18737D01*
X6609D02*
X6634Y18762D01*
X6684D01*
X6709Y18737D01*
Y18637D01*
X6684Y18612D01*
X6634D01*
X6609Y18637D01*
Y18737D01*
D250*
X9182Y4588D02*
Y4488D01*
X9202Y4468D01*
X9242D01*
X9262Y4488D01*
Y4588D01*
X9302Y4468D02*
X9342D01*
X9322D01*
Y4588D01*
X9302Y4568D01*
X16448Y5282D02*
X16428Y5262D01*
Y5222D01*
X16448Y5202D01*
X16528D01*
X16548Y5222D01*
Y5262D01*
X16528Y5282D01*
X16548Y5402D02*
Y5322D01*
X16468Y5402D01*
X16448D01*
X16428Y5382D01*
Y5342D01*
X16448Y5322D01*
X16428Y5442D02*
Y5522D01*
X16448D01*
X16528Y5442D01*
X16548D01*
X541Y12059D02*
Y11959D01*
X561Y11939D01*
X601D01*
X621Y11959D01*
Y12059D01*
X661Y11939D02*
X701D01*
X681D01*
Y12059D01*
X661Y12039D01*
X841Y12059D02*
X801Y12039D01*
X761Y11999D01*
Y11959D01*
X781Y11939D01*
X821D01*
X841Y11959D01*
Y11979D01*
X821Y11999D01*
X761D01*
X471Y11068D02*
X451Y11088D01*
X411D01*
X391Y11068D01*
Y10988D01*
X411Y10968D01*
X451D01*
X471Y10988D01*
X591Y11088D02*
X551Y11068D01*
X511Y11028D01*
Y10988D01*
X531Y10968D01*
X571D01*
X591Y10988D01*
Y11008D01*
X571Y11028D01*
X511D01*
X631Y10968D02*
X671D01*
X651D01*
Y11088D01*
X631Y11068D01*
X9239Y12417D02*
X9319D01*
X9279D01*
Y12297D01*
X9359D02*
Y12417D01*
X9419D01*
X9439Y12397D01*
Y12357D01*
X9419Y12337D01*
X9359D01*
X9539Y12297D02*
Y12417D01*
X9479Y12357D01*
X9559D01*
X10420Y12417D02*
X10500D01*
X10460D01*
Y12297D01*
X10540D02*
Y12417D01*
X10600D01*
X10620Y12397D01*
Y12357D01*
X10600Y12337D01*
X10540D01*
X10740Y12417D02*
X10660D01*
Y12357D01*
X10700Y12377D01*
X10720D01*
X10740Y12357D01*
Y12317D01*
X10720Y12297D01*
X10680D01*
X10660Y12317D01*
X1972Y2968D02*
X2052D01*
X2012D01*
Y2848D01*
X2092D02*
Y2968D01*
X2152D01*
X2172Y2948D01*
Y2908D01*
X2152Y2888D01*
X2092D01*
X2212Y2848D02*
X2252D01*
X2232D01*
Y2968D01*
X2212Y2948D01*
X2312D02*
X2332Y2968D01*
X2372D01*
X2392Y2948D01*
Y2868D01*
X2372Y2848D01*
X2332D01*
X2312Y2868D01*
Y2948D01*
X3215Y2968D02*
X3295D01*
X3255D01*
Y2848D01*
X3335D02*
Y2968D01*
X3395D01*
X3415Y2948D01*
Y2908D01*
X3395Y2888D01*
X3335D01*
X3455Y2868D02*
X3475Y2848D01*
X3515D01*
X3535Y2868D01*
Y2948D01*
X3515Y2968D01*
X3475D01*
X3455Y2948D01*
Y2928D01*
X3475Y2908D01*
X3535D01*
X10865Y10473D02*
X10845Y10493D01*
X10805D01*
X10785Y10473D01*
Y10453D01*
X10805Y10433D01*
X10845D01*
X10865Y10413D01*
Y10393D01*
X10845Y10373D01*
X10805D01*
X10785Y10393D01*
X10905Y10493D02*
Y10373D01*
X10945Y10413D01*
X10985Y10373D01*
Y10493D01*
X11025Y10473D02*
X11045Y10493D01*
X11085D01*
X11105Y10473D01*
Y10453D01*
X11085Y10433D01*
X11065D01*
X11085D01*
X11105Y10413D01*
Y10393D01*
X11085Y10373D01*
X11045D01*
X11025Y10393D01*
X19839Y18551D02*
Y18451D01*
X19859Y18431D01*
X19899D01*
X19919Y18451D01*
Y18551D01*
X19959Y18431D02*
X19999D01*
X19979D01*
Y18551D01*
X19959Y18531D01*
X20059D02*
X20079Y18551D01*
X20119D01*
X20139Y18531D01*
Y18451D01*
X20119Y18431D01*
X20079D01*
X20059Y18451D01*
Y18531D01*
X20307Y18022D02*
X20287Y18042D01*
X20247D01*
X20227Y18022D01*
Y17942D01*
X20247Y17922D01*
X20287D01*
X20307Y17942D01*
X20407Y17922D02*
Y18042D01*
X20347Y17982D01*
X20427D01*
X20547Y17922D02*
X20467D01*
X20547Y18002D01*
Y18022D01*
X20527Y18042D01*
X20487D01*
X20467Y18022D01*
X18954Y19214D02*
Y19094D01*
X19034D01*
X19074Y19214D02*
Y19094D01*
X19135D01*
X19155Y19114D01*
Y19194D01*
X19135Y19214D01*
X19074D01*
X19195Y19094D02*
X19235D01*
X19215D01*
Y19214D01*
X19195Y19194D01*
X6650Y12588D02*
Y12708D01*
X6710D01*
X6730Y12688D01*
Y12648D01*
X6710Y12628D01*
X6650D01*
X6830Y12588D02*
Y12708D01*
X6770Y12648D01*
X6850D01*
X5650Y12588D02*
Y12708D01*
X5710D01*
X5730Y12688D01*
Y12648D01*
X5710Y12628D01*
X5650D01*
X5770Y12688D02*
X5790Y12708D01*
X5830D01*
X5850Y12688D01*
Y12668D01*
X5830Y12648D01*
X5810D01*
X5830D01*
X5850Y12628D01*
Y12608D01*
X5830Y12588D01*
X5790D01*
X5770Y12608D01*
X4324Y19750D02*
X4404D01*
X4364D01*
Y19630D01*
X4444D02*
Y19750D01*
X4504D01*
X4524Y19730D01*
Y19690D01*
X4504Y19670D01*
X4444D01*
X4564Y19630D02*
X4604D01*
X4584D01*
Y19750D01*
X4564Y19730D01*
X4724Y19630D02*
Y19750D01*
X4664Y19690D01*
X4744D01*
X3143Y19750D02*
X3223D01*
X3183D01*
Y19630D01*
X3263D02*
Y19750D01*
X3323D01*
X3343Y19730D01*
Y19690D01*
X3323Y19670D01*
X3263D01*
X3383Y19630D02*
X3423D01*
X3403D01*
Y19750D01*
X3383Y19730D01*
X3563Y19750D02*
X3483D01*
Y19690D01*
X3523Y19710D01*
X3543D01*
X3563Y19690D01*
Y19650D01*
X3543Y19630D01*
X3503D01*
X3483Y19650D01*
X10033Y19750D02*
X10113D01*
X10073D01*
Y19630D01*
X10153D02*
Y19750D01*
X10213D01*
X10233Y19730D01*
Y19690D01*
X10213Y19670D01*
X10153D01*
X10273Y19630D02*
X10313D01*
X10293D01*
Y19750D01*
X10273Y19730D01*
X10373Y19750D02*
X10453D01*
Y19730D01*
X10373Y19650D01*
Y19630D01*
X7650Y12588D02*
Y12708D01*
X7710D01*
X7730Y12688D01*
Y12648D01*
X7710Y12628D01*
X7650D01*
X7850Y12708D02*
X7770D01*
Y12648D01*
X7810Y12668D01*
X7830D01*
X7850Y12648D01*
Y12608D01*
X7830Y12588D01*
X7790D01*
X7770Y12608D01*
X13176Y10665D02*
X13256D01*
X13216D01*
Y10545D01*
X13296D02*
Y10665D01*
X13356D01*
X13376Y10645D01*
Y10605D01*
X13356Y10585D01*
X13296D01*
X13416Y10645D02*
X13436Y10665D01*
X13476D01*
X13496Y10645D01*
Y10625D01*
X13476Y10605D01*
X13456D01*
X13476D01*
X13496Y10585D01*
Y10565D01*
X13476Y10545D01*
X13436D01*
X13416Y10565D01*
X14357Y10665D02*
X14437D01*
X14397D01*
Y10545D01*
X14477D02*
Y10665D01*
X14537D01*
X14557Y10645D01*
Y10605D01*
X14537Y10585D01*
X14477D01*
X14677Y10545D02*
X14597D01*
X14677Y10625D01*
Y10645D01*
X14657Y10665D01*
X14617D01*
X14597Y10645D01*
X15563Y10665D02*
X15643D01*
X15603D01*
Y10545D01*
X15683D02*
Y10665D01*
X15743D01*
X15763Y10645D01*
Y10605D01*
X15743Y10585D01*
X15683D01*
X15803Y10545D02*
X15843D01*
X15823D01*
Y10665D01*
X15803Y10645D01*
X17369Y2989D02*
X17329D01*
X17349D01*
Y2889D01*
X17329Y2869D01*
X17309D01*
X17289Y2889D01*
X17409Y2869D02*
X17449D01*
X17429D01*
Y2989D01*
X17409Y2969D01*
X17349Y10429D02*
X17309D01*
X17329D01*
Y10329D01*
X17309Y10309D01*
X17289D01*
X17269Y10329D01*
X17469Y10309D02*
X17389D01*
X17469Y10389D01*
Y10409D01*
X17449Y10429D01*
X17409D01*
X17389Y10409D01*
X13493Y4528D02*
X13473Y4548D01*
X13433D01*
X13413Y4528D01*
Y4448D01*
X13433Y4428D01*
X13473D01*
X13493Y4448D01*
X13613Y4428D02*
X13533D01*
X13613Y4508D01*
Y4528D01*
X13593Y4548D01*
X13553D01*
X13533Y4528D01*
X13733Y4548D02*
X13653D01*
Y4488D01*
X13693Y4508D01*
X13713D01*
X13733Y4488D01*
Y4448D01*
X13713Y4428D01*
X13673D01*
X13653Y4448D01*
X14896Y6298D02*
X14876Y6318D01*
X14836D01*
X14816Y6298D01*
Y6217D01*
X14836Y6197D01*
X14876D01*
X14896Y6217D01*
X15016Y6197D02*
X14936D01*
X15016Y6277D01*
Y6298D01*
X14996Y6318D01*
X14956D01*
X14936Y6298D01*
X15116Y6197D02*
Y6318D01*
X15056Y6257D01*
X15136D01*
X15336Y5916D02*
X15316Y5936D01*
X15276D01*
X15256Y5916D01*
Y5836D01*
X15276Y5816D01*
X15316D01*
X15336Y5836D01*
X15456Y5816D02*
X15376D01*
X15456Y5896D01*
Y5916D01*
X15436Y5936D01*
X15396D01*
X15376Y5916D01*
X15496D02*
X15516Y5936D01*
X15556D01*
X15576Y5916D01*
Y5896D01*
X15556Y5876D01*
X15536D01*
X15556D01*
X15576Y5856D01*
Y5836D01*
X15556Y5816D01*
X15516D01*
X15496Y5836D01*
X7671Y19750D02*
X7751D01*
X7711D01*
Y19630D01*
X7791D02*
Y19750D01*
X7851D01*
X7871Y19730D01*
Y19690D01*
X7851Y19670D01*
X7791D01*
X7911Y19630D02*
X7951D01*
X7931D01*
Y19750D01*
X7911Y19730D01*
X8091Y19630D02*
X8011D01*
X8091Y19710D01*
Y19730D01*
X8071Y19750D01*
X8031D01*
X8011Y19730D01*
X11200Y4814D02*
Y4694D01*
X11280D01*
X11320D02*
X11360D01*
X11340D01*
Y4814D01*
X11320Y4794D01*
X11573Y4676D02*
X11553Y4656D01*
Y4616D01*
X11573Y4596D01*
X11653D01*
X11673Y4616D01*
Y4656D01*
X11653Y4676D01*
X11673Y4797D02*
Y4717D01*
X11593Y4797D01*
X11573D01*
X11553Y4777D01*
Y4737D01*
X11573Y4717D01*
X11673Y4837D02*
Y4877D01*
Y4857D01*
X11553D01*
X11573Y4837D01*
X6554Y6751D02*
Y6871D01*
X6614D01*
X6634Y6851D01*
Y6811D01*
X6614Y6791D01*
X6554D01*
X6594D02*
X6634Y6751D01*
X6674D02*
X6714D01*
X6694D01*
Y6871D01*
X6674Y6851D01*
X11409Y4519D02*
X11389Y4539D01*
X11349D01*
X11329Y4519D01*
Y4439D01*
X11349Y4419D01*
X11389D01*
X11409Y4439D01*
X11449Y4419D02*
X11489D01*
X11469D01*
Y4539D01*
X11449Y4519D01*
X11549D02*
X11569Y4539D01*
X11609D01*
X11629Y4519D01*
Y4499D01*
X11609Y4479D01*
X11589D01*
X11609D01*
X11629Y4459D01*
Y4439D01*
X11609Y4419D01*
X11569D01*
X11549Y4439D01*
X7529Y6810D02*
X7509Y6790D01*
Y6750D01*
X7529Y6730D01*
X7609D01*
X7629Y6750D01*
Y6790D01*
X7609Y6810D01*
X7629Y6850D02*
Y6890D01*
Y6870D01*
X7509D01*
X7529Y6850D01*
Y6950D02*
X7509Y6970D01*
Y7010D01*
X7529Y7030D01*
X7549D01*
X7569Y7010D01*
X7589Y7030D01*
X7609D01*
X7629Y7010D01*
Y6970D01*
X7609Y6950D01*
X7589D01*
X7569Y6970D01*
X7549Y6950D01*
X7529D01*
X7569Y6970D02*
Y7010D01*
X8100Y6731D02*
X8080Y6711D01*
Y6671D01*
X8100Y6651D01*
X8180D01*
X8200Y6671D01*
Y6711D01*
X8180Y6731D01*
X8200Y6771D02*
Y6811D01*
Y6791D01*
X8080D01*
X8100Y6771D01*
X8080Y6951D02*
X8100Y6911D01*
X8140Y6871D01*
X8180D01*
X8200Y6891D01*
Y6931D01*
X8180Y6951D01*
X8160D01*
X8140Y6931D01*
Y6871D01*
X9144Y6912D02*
X9124Y6932D01*
X9084D01*
X9064Y6912D01*
Y6832D01*
X9084Y6812D01*
X9124D01*
X9144Y6832D01*
X9264Y6932D02*
X9184D01*
Y6872D01*
X9224Y6892D01*
X9244D01*
X9264Y6872D01*
Y6832D01*
X9244Y6812D01*
X9204D01*
X9184Y6832D01*
X10630Y6556D02*
X10610Y6576D01*
X10570D01*
X10550Y6556D01*
Y6476D01*
X10570Y6456D01*
X10610D01*
X10630Y6476D01*
X10670Y6556D02*
X10690Y6576D01*
X10730D01*
X10750Y6556D01*
Y6536D01*
X10730Y6516D01*
X10710D01*
X10730D01*
X10750Y6496D01*
Y6476D01*
X10730Y6456D01*
X10690D01*
X10670Y6476D01*
X11987Y6105D02*
X12067Y5985D01*
Y6105D02*
X11987Y5985D01*
X12107D02*
X12147D01*
X12127D01*
Y6105D01*
X12107Y6085D01*
X10314Y6261D02*
X10294Y6281D01*
X10254D01*
X10234Y6261D01*
Y6181D01*
X10254Y6161D01*
X10294D01*
X10314Y6181D01*
X10434Y6281D02*
X10394Y6261D01*
X10354Y6221D01*
Y6181D01*
X10374Y6161D01*
X10414D01*
X10434Y6181D01*
Y6201D01*
X10414Y6221D01*
X10354D01*
X11269Y5812D02*
X11249Y5792D01*
Y5752D01*
X11269Y5732D01*
X11349D01*
X11369Y5752D01*
Y5792D01*
X11349Y5812D01*
X11369Y5912D02*
X11249D01*
X11309Y5852D01*
Y5932D01*
X8927Y6578D02*
X8907Y6598D01*
X8867D01*
X8847Y6578D01*
Y6498D01*
X8867Y6478D01*
X8907D01*
X8927Y6498D01*
X8967Y6598D02*
X9047D01*
Y6578D01*
X8967Y6498D01*
Y6478D01*
X9724Y6801D02*
X9704Y6781D01*
Y6741D01*
X9724Y6721D01*
X9804D01*
X9824Y6741D01*
Y6781D01*
X9804Y6801D01*
X9824Y6921D02*
Y6841D01*
X9744Y6921D01*
X9724D01*
X9704Y6901D01*
Y6861D01*
X9724Y6841D01*
X7106Y6810D02*
X7086Y6790D01*
Y6750D01*
X7106Y6730D01*
X7186D01*
X7206Y6750D01*
Y6790D01*
X7186Y6810D01*
X7206Y6850D02*
Y6890D01*
Y6870D01*
X7086D01*
X7106Y6850D01*
X7086Y6950D02*
Y7030D01*
X7106D01*
X7186Y6950D01*
X7206D01*
X10915Y4783D02*
X10895Y4763D01*
Y4723D01*
X10915Y4703D01*
X10995D01*
X11015Y4723D01*
Y4763D01*
X10995Y4783D01*
X11015Y4823D02*
Y4863D01*
Y4843D01*
X10895D01*
X10915Y4823D01*
X11429Y6310D02*
X11409Y6330D01*
X11369D01*
X11349Y6310D01*
Y6230D01*
X11369Y6210D01*
X11409D01*
X11429Y6230D01*
X11469Y6210D02*
X11509D01*
X11489D01*
Y6330D01*
X11469Y6310D01*
X11649Y6330D02*
X11569D01*
Y6270D01*
X11609Y6290D01*
X11629D01*
X11649Y6270D01*
Y6230D01*
X11629Y6210D01*
X11589D01*
X11569Y6230D01*
X11053Y5822D02*
X11033Y5802D01*
Y5762D01*
X11053Y5742D01*
X11133D01*
X11153Y5762D01*
Y5802D01*
X11133Y5822D01*
X11153Y5862D02*
Y5902D01*
Y5882D01*
X11033D01*
X11053Y5862D01*
X11153Y6022D02*
X11033D01*
X11093Y5962D01*
Y6042D01*
X10333Y6979D02*
Y6859D01*
X10413D01*
X10533D02*
X10453D01*
X10533Y6939D01*
Y6959D01*
X10513Y6979D01*
X10473D01*
X10453Y6959D01*
X8709Y7334D02*
Y7214D01*
X8789D01*
X8829Y7314D02*
X8849Y7334D01*
X8889D01*
X8909Y7314D01*
Y7294D01*
X8889Y7274D01*
X8869D01*
X8889D01*
X8909Y7254D01*
Y7234D01*
X8889Y7214D01*
X8849D01*
X8829Y7234D01*
X15274Y521D02*
Y601D01*
X15314Y641D01*
X15354Y601D01*
Y521D01*
Y581D01*
X15274D01*
X15394Y521D02*
X15434D01*
X15414D01*
Y641D01*
X15394Y621D01*
X20145Y11158D02*
Y11238D01*
X20185Y11278D01*
X20225Y11238D01*
Y11158D01*
Y11218D01*
X20145D01*
X20346Y11158D02*
X20266D01*
X20346Y11238D01*
Y11258D01*
X20326Y11278D01*
X20285D01*
X20266Y11258D01*
X17435Y2078D02*
Y1958D01*
X17515D01*
X17555Y2078D02*
X17635D01*
Y2058D01*
X17555Y1978D01*
Y1958D01*
X17515Y1284D02*
X17495Y1304D01*
X17455D01*
X17435Y1284D01*
Y1204D01*
X17455Y1184D01*
X17495D01*
X17515Y1204D01*
X17555Y1284D02*
X17575Y1304D01*
X17615D01*
X17635Y1284D01*
Y1264D01*
X17615Y1244D01*
X17595D01*
X17615D01*
X17635Y1224D01*
Y1204D01*
X17615Y1184D01*
X17575D01*
X17555Y1204D01*
X17675Y1184D02*
X17715D01*
X17695D01*
Y1304D01*
X17675Y1284D01*
X18011Y13462D02*
X17991Y13442D01*
Y13402D01*
X18011Y13382D01*
X18091D01*
X18111Y13402D01*
Y13442D01*
X18091Y13462D01*
X18111Y13582D02*
Y13502D01*
X18031Y13582D01*
X18011D01*
X17991Y13562D01*
Y13522D01*
X18011Y13502D01*
Y13622D02*
X17991Y13642D01*
Y13682D01*
X18011Y13702D01*
X18091D01*
X18111Y13682D01*
Y13642D01*
X18091Y13622D01*
X18011D01*
X18690Y13462D02*
X18670Y13442D01*
Y13402D01*
X18690Y13382D01*
X18770D01*
X18790Y13402D01*
Y13442D01*
X18770Y13462D01*
X18790Y13582D02*
Y13502D01*
X18710Y13582D01*
X18690D01*
X18670Y13562D01*
Y13522D01*
X18690Y13502D01*
X18790Y13702D02*
Y13622D01*
X18710Y13702D01*
X18690D01*
X18670Y13682D01*
Y13642D01*
X18690Y13622D01*
X20444Y6762D02*
X20424Y6782D01*
X20384D01*
X20364Y6762D01*
Y6682D01*
X20384Y6662D01*
X20424D01*
X20444Y6682D01*
X20564Y6782D02*
X20484D01*
Y6722D01*
X20524Y6742D01*
X20544D01*
X20564Y6722D01*
Y6682D01*
X20544Y6662D01*
X20504D01*
X20484Y6682D01*
X20684Y6662D02*
X20604D01*
X20684Y6742D01*
Y6762D01*
X20665Y6782D01*
X20624D01*
X20604Y6762D01*
X14401Y621D02*
X14381Y641D01*
X14341D01*
X14321Y621D01*
Y541D01*
X14341Y521D01*
X14381D01*
X14401Y541D01*
X14441Y621D02*
X14461Y641D01*
X14501D01*
X14521Y621D01*
Y601D01*
X14501Y581D01*
X14481D01*
X14501D01*
X14521Y561D01*
Y541D01*
X14501Y521D01*
X14461D01*
X14441Y541D01*
X14641Y521D02*
X14561D01*
X14641Y601D01*
Y621D01*
X14621Y641D01*
X14581D01*
X14561Y621D01*
X20039Y10117D02*
X20019Y10097D01*
Y10057D01*
X20039Y10037D01*
X20119D01*
X20139Y10057D01*
Y10097D01*
X20119Y10117D01*
X20039Y10157D02*
X20019Y10177D01*
Y10217D01*
X20039Y10237D01*
X20059D01*
X20079Y10217D01*
Y10197D01*
Y10217D01*
X20099Y10237D01*
X20119D01*
X20139Y10217D01*
Y10177D01*
X20119Y10157D01*
X20039Y10277D02*
X20019Y10297D01*
Y10337D01*
X20039Y10357D01*
X20119D01*
X20139Y10337D01*
Y10297D01*
X20119Y10277D01*
X20039D01*
X1557Y14615D02*
Y14735D01*
X1617D01*
X1637Y14715D01*
Y14675D01*
X1617Y14655D01*
X1557D01*
X1597D02*
X1637Y14615D01*
X1737D02*
Y14735D01*
X1677Y14675D01*
X1757D01*
X17599Y1544D02*
X17479D01*
Y1604D01*
X17499Y1624D01*
X17539D01*
X17559Y1604D01*
Y1544D01*
Y1584D02*
X17599Y1624D01*
X17479Y1744D02*
Y1664D01*
X17539D01*
X17519Y1704D01*
Y1724D01*
X17539Y1744D01*
X17579D01*
X17599Y1724D01*
Y1684D01*
X17579Y1664D01*
X18287Y13545D02*
Y13425D01*
X18367D01*
X18487Y13545D02*
X18447Y13525D01*
X18407Y13485D01*
Y13445D01*
X18427Y13425D01*
X18467D01*
X18487Y13445D01*
Y13465D01*
X18467Y13485D01*
X18407D01*
X3384Y16340D02*
Y16240D01*
X3404Y16220D01*
X3444D01*
X3464Y16240D01*
Y16340D01*
X3564Y16220D02*
Y16340D01*
X3504Y16280D01*
X3584D01*
X3384Y18466D02*
Y18365D01*
X3404Y18345D01*
X3444D01*
X3464Y18365D01*
Y18466D01*
X3584D02*
X3504D01*
Y18406D01*
X3544Y18426D01*
X3564D01*
X3584Y18406D01*
Y18365D01*
X3564Y18345D01*
X3524D01*
X3504Y18365D01*
X3354Y17767D02*
Y17667D01*
X3374Y17647D01*
X3414D01*
X3434Y17667D01*
Y17767D01*
X3474Y17647D02*
X3514D01*
X3494D01*
Y17767D01*
X3474Y17747D01*
X3574Y17647D02*
X3614D01*
X3594D01*
Y17767D01*
X3574Y17747D01*
X19771Y5788D02*
Y5688D01*
X19791Y5668D01*
X19831D01*
X19851Y5688D01*
Y5788D01*
X19891Y5668D02*
X19931D01*
X19911D01*
Y5788D01*
X19891Y5768D01*
X19991D02*
X20011Y5788D01*
X20051D01*
X20071Y5768D01*
Y5748D01*
X20051Y5728D01*
X20031D01*
X20051D01*
X20071Y5708D01*
Y5688D01*
X20051Y5668D01*
X20011D01*
X19991Y5688D01*
X16448Y3678D02*
X16428Y3658D01*
Y3618D01*
X16448Y3598D01*
X16528D01*
X16548Y3618D01*
Y3658D01*
X16528Y3678D01*
X16548Y3798D02*
Y3718D01*
X16468Y3798D01*
X16448D01*
X16428Y3778D01*
Y3738D01*
X16448Y3718D01*
X16428Y3918D02*
X16448Y3878D01*
X16488Y3838D01*
X16528D01*
X16548Y3858D01*
Y3898D01*
X16528Y3918D01*
X16508D01*
X16488Y3898D01*
Y3838D01*
X16989Y3678D02*
X16969Y3658D01*
Y3618D01*
X16989Y3598D01*
X17069D01*
X17089Y3618D01*
Y3658D01*
X17069Y3678D01*
X17089Y3798D02*
Y3718D01*
X17009Y3798D01*
X16989D01*
X16969Y3778D01*
Y3738D01*
X16989Y3718D01*
Y3838D02*
X16969Y3858D01*
Y3898D01*
X16989Y3918D01*
X17009D01*
X17029Y3898D01*
X17049Y3918D01*
X17069D01*
X17089Y3898D01*
Y3858D01*
X17069Y3838D01*
X17049D01*
X17029Y3858D01*
X17009Y3838D01*
X16989D01*
X17029Y3858D02*
Y3898D01*
X16989Y5282D02*
X16969Y5262D01*
Y5222D01*
X16989Y5202D01*
X17069D01*
X17089Y5222D01*
Y5262D01*
X17069Y5282D01*
X17089Y5402D02*
Y5322D01*
X17009Y5402D01*
X16989D01*
X16969Y5382D01*
Y5342D01*
X16989Y5322D01*
X17069Y5442D02*
X17089Y5462D01*
Y5502D01*
X17069Y5522D01*
X16989D01*
X16969Y5502D01*
Y5462D01*
X16989Y5442D01*
X17009D01*
X17029Y5462D01*
Y5522D01*
X16388Y4115D02*
Y3995D01*
X16468D01*
X16568D02*
Y4115D01*
X16508Y4055D01*
X16588D01*
X16388Y5070D02*
Y4950D01*
X16468D01*
X16588Y5070D02*
X16508D01*
Y5010D01*
X16548Y5030D01*
X16568D01*
X16588Y5010D01*
Y4970D01*
X16568Y4950D01*
X16528D01*
X16508Y4970D01*
X3324Y17048D02*
Y16948D01*
X3344Y16928D01*
X3384D01*
X3404Y16948D01*
Y17048D01*
X3444Y16928D02*
X3484D01*
X3464D01*
Y17048D01*
X3444Y17028D01*
X3604Y16928D02*
Y17048D01*
X3544Y16988D01*
X3624D01*
X3916Y15749D02*
X3896Y15769D01*
X3856D01*
X3836Y15749D01*
Y15729D01*
X3856Y15709D01*
X3896D01*
X3916Y15689D01*
Y15669D01*
X3896Y15649D01*
X3856D01*
X3836Y15669D01*
X3956Y15769D02*
Y15649D01*
X4016D01*
X4036Y15669D01*
Y15689D01*
X4016Y15709D01*
X3956D01*
X4016D01*
X4036Y15729D01*
Y15749D01*
X4016Y15769D01*
X3956D01*
X4156D02*
X4076D01*
Y15709D01*
X4116Y15729D01*
X4136D01*
X4156Y15709D01*
Y15669D01*
X4136Y15649D01*
X4096D01*
X4076Y15669D01*
X3856Y17875D02*
X3836Y17895D01*
X3796D01*
X3776Y17875D01*
Y17855D01*
X3796Y17835D01*
X3836D01*
X3856Y17815D01*
Y17795D01*
X3836Y17775D01*
X3796D01*
X3776Y17795D01*
X3896Y17895D02*
Y17775D01*
X3956D01*
X3976Y17795D01*
Y17815D01*
X3956Y17835D01*
X3896D01*
X3956D01*
X3976Y17855D01*
Y17875D01*
X3956Y17895D01*
X3896D01*
X4096Y17775D02*
X4016D01*
X4096Y17855D01*
Y17875D01*
X4076Y17895D01*
X4036D01*
X4016Y17875D01*
X4136D02*
X4156Y17895D01*
X4196D01*
X4216Y17875D01*
Y17795D01*
X4196Y17775D01*
X4156D01*
X4136Y17795D01*
Y17875D01*
X3876Y17166D02*
X3856Y17186D01*
X3816D01*
X3796Y17166D01*
Y17146D01*
X3816Y17126D01*
X3856D01*
X3876Y17106D01*
Y17086D01*
X3856Y17066D01*
X3816D01*
X3796Y17086D01*
X3916Y17186D02*
Y17066D01*
X3976D01*
X3996Y17086D01*
Y17106D01*
X3976Y17126D01*
X3916D01*
X3976D01*
X3996Y17146D01*
Y17166D01*
X3976Y17186D01*
X3916D01*
X4116Y17066D02*
X4036D01*
X4116Y17146D01*
Y17166D01*
X4096Y17186D01*
X4056D01*
X4036Y17166D01*
X4156Y17066D02*
X4196D01*
X4176D01*
Y17186D01*
X4156Y17166D01*
X3856Y16457D02*
X3836Y16477D01*
X3796D01*
X3776Y16457D01*
Y16437D01*
X3796Y16417D01*
X3836D01*
X3856Y16397D01*
Y16377D01*
X3836Y16357D01*
X3796D01*
X3776Y16377D01*
X3896Y16477D02*
Y16357D01*
X3956D01*
X3976Y16377D01*
Y16397D01*
X3956Y16417D01*
X3896D01*
X3956D01*
X3976Y16437D01*
Y16457D01*
X3956Y16477D01*
X3896D01*
X4096Y16357D02*
X4016D01*
X4096Y16437D01*
Y16457D01*
X4076Y16477D01*
X4036D01*
X4016Y16457D01*
X4216Y16357D02*
X4136D01*
X4216Y16437D01*
Y16457D01*
X4196Y16477D01*
X4156D01*
X4136Y16457D01*
X2946Y13342D02*
X3026D01*
X2986D01*
Y13222D01*
X3066D02*
Y13342D01*
X3126D01*
X3146Y13322D01*
Y13282D01*
X3126Y13262D01*
X3066D01*
X3186Y13222D02*
X3226D01*
X3206D01*
Y13342D01*
X3186Y13322D01*
X3286D02*
X3306Y13342D01*
X3346D01*
X3366Y13322D01*
Y13302D01*
X3346Y13282D01*
X3366Y13262D01*
Y13242D01*
X3346Y13222D01*
X3306D01*
X3286Y13242D01*
Y13262D01*
X3306Y13282D01*
X3286Y13302D01*
Y13322D01*
X3306Y13282D02*
X3346D01*
X2818Y12043D02*
X2898D01*
X2858D01*
Y11923D01*
X2938D02*
Y12043D01*
X2998D01*
X3018Y12023D01*
Y11983D01*
X2998Y11963D01*
X2938D01*
X3058Y11923D02*
X3098D01*
X3078D01*
Y12043D01*
X3058Y12023D01*
X3158Y11943D02*
X3178Y11923D01*
X3218D01*
X3238Y11943D01*
Y12023D01*
X3218Y12043D01*
X3178D01*
X3158Y12023D01*
Y12003D01*
X3178Y11983D01*
X3238D01*
X3987Y12043D02*
X4067D01*
X4027D01*
Y11923D01*
X4107D02*
Y12043D01*
X4167D01*
X4187Y12023D01*
Y11983D01*
X4167Y11963D01*
X4107D01*
X4307Y11923D02*
X4227D01*
X4307Y12003D01*
Y12023D01*
X4287Y12043D01*
X4247D01*
X4227Y12023D01*
X4347D02*
X4367Y12043D01*
X4407D01*
X4427Y12023D01*
Y11943D01*
X4407Y11923D01*
X4367D01*
X4347Y11943D01*
Y12023D01*
X8022Y8116D02*
X8102D01*
X8062D01*
Y7996D01*
X8142D02*
Y8116D01*
X8202D01*
X8222Y8096D01*
Y8056D01*
X8202Y8036D01*
X8142D01*
X8342Y7996D02*
X8262D01*
X8342Y8076D01*
Y8096D01*
X8322Y8116D01*
X8282D01*
X8262Y8096D01*
X8382Y7996D02*
X8422D01*
X8402D01*
Y8116D01*
X8382Y8096D01*
X3178Y4149D02*
X3258D01*
X3218D01*
Y4029D01*
X3298D02*
Y4149D01*
X3358D01*
X3378Y4129D01*
Y4089D01*
X3358Y4069D01*
X3298D01*
X3418Y4029D02*
X3458D01*
X3438D01*
Y4149D01*
X3418Y4129D01*
X3518Y4029D02*
X3558D01*
X3538D01*
Y4149D01*
X3518Y4129D01*
X6456Y648D02*
X6436Y628D01*
Y588D01*
X6456Y568D01*
X6536D01*
X6556Y588D01*
Y628D01*
X6536Y648D01*
X6556Y689D02*
Y729D01*
Y708D01*
X6436D01*
X6456Y689D01*
X6536Y789D02*
X6556Y809D01*
Y849D01*
X6536Y869D01*
X6456D01*
X6436Y849D01*
Y809D01*
X6456Y789D01*
X6476D01*
X6496Y809D01*
Y869D01*
X7734Y1310D02*
Y1210D01*
X7754Y1190D01*
X7794D01*
X7814Y1210D01*
Y1310D01*
X7854Y1190D02*
X7894D01*
X7874D01*
Y1310D01*
X7854Y1290D01*
X8034Y1310D02*
X7954D01*
Y1250D01*
X7994Y1270D01*
X8014D01*
X8034Y1250D01*
Y1210D01*
X8014Y1190D01*
X7974D01*
X7954Y1210D01*
X10865Y8308D02*
X10845Y8328D01*
X10805D01*
X10785Y8308D01*
Y8288D01*
X10805Y8268D01*
X10845D01*
X10865Y8248D01*
Y8228D01*
X10845Y8208D01*
X10805D01*
X10785Y8228D01*
X10905Y8328D02*
Y8208D01*
X10945Y8248D01*
X10985Y8208D01*
Y8328D01*
X11105Y8208D02*
X11025D01*
X11105Y8288D01*
Y8308D01*
X11085Y8328D01*
X11045D01*
X11025Y8308D01*
X836Y16959D02*
X816Y16979D01*
X776D01*
X756Y16959D01*
Y16939D01*
X776Y16919D01*
X816D01*
X836Y16899D01*
Y16879D01*
X816Y16859D01*
X776D01*
X756Y16879D01*
X876Y16979D02*
Y16859D01*
X916Y16899D01*
X956Y16859D01*
Y16979D01*
X996Y16859D02*
X1036D01*
X1016D01*
Y16979D01*
X996Y16959D01*
X8852Y19750D02*
X8932D01*
X8892D01*
Y19630D01*
X8972D02*
Y19750D01*
X9032D01*
X9052Y19730D01*
Y19690D01*
X9032Y19670D01*
X8972D01*
X9092Y19630D02*
X9132D01*
X9112D01*
Y19750D01*
X9092Y19730D01*
X9192D02*
X9212Y19750D01*
X9252D01*
X9272Y19730D01*
Y19710D01*
X9252Y19690D01*
X9232D01*
X9252D01*
X9272Y19670D01*
Y19650D01*
X9252Y19630D01*
X9212D01*
X9192Y19650D01*
X4056Y14730D02*
X4136D01*
X4096D01*
Y14610D01*
X4176D02*
Y14730D01*
X4236D01*
X4256Y14710D01*
Y14670D01*
X4236Y14650D01*
X4176D01*
X4376Y14610D02*
X4296D01*
X4376Y14690D01*
Y14710D01*
X4356Y14730D01*
X4316D01*
X4296Y14710D01*
X4496Y14610D02*
X4416D01*
X4496Y14690D01*
Y14710D01*
X4476Y14730D01*
X4436D01*
X4416Y14710D01*
X12314Y2200D02*
X12394D01*
X12354D01*
Y2080D01*
X12434D02*
Y2200D01*
X12494D01*
X12514Y2180D01*
Y2140D01*
X12494Y2120D01*
X12434D01*
X12634Y2080D02*
X12554D01*
X12634Y2160D01*
Y2180D01*
X12614Y2200D01*
X12574D01*
X12554Y2180D01*
X12674D02*
X12694Y2200D01*
X12734D01*
X12754Y2180D01*
Y2160D01*
X12734Y2140D01*
X12714D01*
X12734D01*
X12754Y2120D01*
Y2100D01*
X12734Y2080D01*
X12694D01*
X12674Y2100D01*
X5522Y3348D02*
X5602D01*
X5562D01*
Y3228D01*
X5642D02*
Y3348D01*
X5702D01*
X5722Y3328D01*
Y3288D01*
X5702Y3268D01*
X5642D01*
X5842Y3228D02*
X5762D01*
X5842Y3308D01*
Y3328D01*
X5822Y3348D01*
X5782D01*
X5762Y3328D01*
X5942Y3228D02*
Y3348D01*
X5882Y3288D01*
X5962D01*
X15463Y8303D02*
X15543D01*
X15503D01*
Y8183D01*
X15583D02*
Y8303D01*
X15643D01*
X15663Y8283D01*
Y8243D01*
X15643Y8223D01*
X15583D01*
X15783Y8183D02*
X15703D01*
X15783Y8263D01*
Y8283D01*
X15763Y8303D01*
X15723D01*
X15703Y8283D01*
X15903Y8303D02*
X15823D01*
Y8243D01*
X15863Y8263D01*
X15883D01*
X15903Y8243D01*
Y8203D01*
X15883Y8183D01*
X15843D01*
X15823Y8203D01*
X768Y7889D02*
X848D01*
X808D01*
Y7769D01*
X888D02*
Y7889D01*
X948D01*
X968Y7869D01*
Y7829D01*
X948Y7809D01*
X888D01*
X1088Y7769D02*
X1008D01*
X1088Y7849D01*
Y7869D01*
X1068Y7889D01*
X1028D01*
X1008Y7869D01*
X1208Y7889D02*
X1168Y7869D01*
X1128Y7829D01*
Y7789D01*
X1148Y7769D01*
X1188D01*
X1208Y7789D01*
Y7809D01*
X1188Y7829D01*
X1128D01*
X1555Y14960D02*
Y15080D01*
X1615D01*
X1635Y15060D01*
Y15020D01*
X1615Y15000D01*
X1555D01*
X1595D02*
X1635Y14960D01*
X1675Y15060D02*
X1695Y15080D01*
X1735D01*
X1755Y15060D01*
Y15040D01*
X1735Y15020D01*
X1715D01*
X1735D01*
X1755Y15000D01*
Y14980D01*
X1735Y14960D01*
X1695D01*
X1675Y14980D01*
X18848Y5937D02*
X18928D01*
X18888D01*
Y5817D01*
X18968D02*
Y5937D01*
X19028D01*
X19048Y5917D01*
Y5877D01*
X19028Y5857D01*
X18968D01*
X19169Y5817D02*
X19089D01*
X19169Y5897D01*
Y5917D01*
X19149Y5937D01*
X19109D01*
X19089Y5917D01*
X19209Y5937D02*
X19289D01*
Y5917D01*
X19209Y5837D01*
Y5817D01*
X20089Y4087D02*
X20169D01*
X20129D01*
Y3967D01*
X20209D02*
Y4087D01*
X20269D01*
X20289Y4067D01*
Y4027D01*
X20269Y4007D01*
X20209D01*
X20409Y3967D02*
X20329D01*
X20409Y4047D01*
Y4067D01*
X20389Y4087D01*
X20349D01*
X20329Y4067D01*
X20449D02*
X20469Y4087D01*
X20509D01*
X20529Y4067D01*
Y4047D01*
X20509Y4027D01*
X20529Y4007D01*
Y3987D01*
X20509Y3967D01*
X20469D01*
X20449Y3987D01*
Y4007D01*
X20469Y4027D01*
X20449Y4047D01*
Y4067D01*
X20469Y4027D02*
X20509D01*
X18809Y4874D02*
X18889D01*
X18849D01*
Y4754D01*
X18929D02*
Y4874D01*
X18989D01*
X19009Y4854D01*
Y4814D01*
X18989Y4794D01*
X18929D01*
X19129Y4754D02*
X19049D01*
X19129Y4834D01*
Y4854D01*
X19109Y4874D01*
X19069D01*
X19049Y4854D01*
X19169Y4774D02*
X19189Y4754D01*
X19229D01*
X19249Y4774D01*
Y4854D01*
X19229Y4874D01*
X19189D01*
X19169Y4854D01*
Y4834D01*
X19189Y4814D01*
X19249D01*
X8809Y17684D02*
X8889D01*
X8849D01*
Y17564D01*
X8929D02*
Y17684D01*
X8989D01*
X9009Y17664D01*
Y17624D01*
X8989Y17604D01*
X8929D01*
X9049Y17664D02*
X9069Y17684D01*
X9109D01*
X9129Y17664D01*
Y17644D01*
X9109Y17624D01*
X9089D01*
X9109D01*
X9129Y17604D01*
Y17584D01*
X9109Y17564D01*
X9069D01*
X9049Y17584D01*
X9169Y17664D02*
X9189Y17684D01*
X9229D01*
X9249Y17664D01*
Y17584D01*
X9229Y17564D01*
X9189D01*
X9169Y17584D01*
Y17664D01*
X9390Y17679D02*
X9470D01*
X9430D01*
Y17559D01*
X9510D02*
Y17679D01*
X9570D01*
X9590Y17659D01*
Y17619D01*
X9570Y17599D01*
X9510D01*
X9630Y17659D02*
X9650Y17679D01*
X9690D01*
X9710Y17659D01*
Y17639D01*
X9690Y17619D01*
X9670D01*
X9690D01*
X9710Y17599D01*
Y17579D01*
X9690Y17559D01*
X9650D01*
X9630Y17579D01*
X9750Y17559D02*
X9790D01*
X9770D01*
Y17679D01*
X9750Y17659D01*
X9879Y18415D02*
X9959D01*
X9919D01*
Y18295D01*
X9999D02*
Y18415D01*
X10059D01*
X10079Y18395D01*
Y18355D01*
X10059Y18335D01*
X9999D01*
X10119Y18395D02*
X10139Y18415D01*
X10179D01*
X10199Y18395D01*
Y18375D01*
X10179Y18355D01*
X10159D01*
X10179D01*
X10199Y18335D01*
Y18315D01*
X10179Y18295D01*
X10139D01*
X10119Y18315D01*
X10319Y18295D02*
X10239D01*
X10319Y18375D01*
Y18395D01*
X10299Y18415D01*
X10259D01*
X10239Y18395D01*
X8165Y18415D02*
X8245D01*
X8205D01*
Y18295D01*
X8286D02*
Y18415D01*
X8346D01*
X8366Y18395D01*
Y18355D01*
X8346Y18335D01*
X8286D01*
X8406Y18395D02*
X8426Y18415D01*
X8466D01*
X8486Y18395D01*
Y18375D01*
X8466Y18355D01*
X8446D01*
X8466D01*
X8486Y18335D01*
Y18315D01*
X8466Y18295D01*
X8426D01*
X8406Y18315D01*
X8526Y18395D02*
X8546Y18415D01*
X8586D01*
X8606Y18395D01*
Y18375D01*
X8586Y18355D01*
X8566D01*
X8586D01*
X8606Y18335D01*
Y18315D01*
X8586Y18295D01*
X8546D01*
X8526Y18315D01*
X10413Y16265D02*
X10493D01*
X10453D01*
Y16145D01*
X10533D02*
Y16265D01*
X10593D01*
X10613Y16245D01*
Y16205D01*
X10593Y16185D01*
X10533D01*
X10653Y16245D02*
X10673Y16265D01*
X10713D01*
X10733Y16245D01*
Y16225D01*
X10713Y16205D01*
X10693D01*
X10713D01*
X10733Y16185D01*
Y16165D01*
X10713Y16145D01*
X10673D01*
X10653Y16165D01*
X10834Y16145D02*
Y16265D01*
X10774Y16205D01*
X10854D01*
X11313Y14113D02*
X11393D01*
X11353D01*
Y13993D01*
X11433D02*
Y14113D01*
X11493D01*
X11513Y14093D01*
Y14053D01*
X11493Y14033D01*
X11433D01*
X11553Y14093D02*
X11573Y14113D01*
X11613D01*
X11633Y14093D01*
Y14073D01*
X11613Y14053D01*
X11593D01*
X11613D01*
X11633Y14033D01*
Y14013D01*
X11613Y13993D01*
X11573D01*
X11553Y14013D01*
X11753Y14113D02*
X11673D01*
Y14053D01*
X11713Y14073D01*
X11733D01*
X11753Y14053D01*
Y14013D01*
X11733Y13993D01*
X11693D01*
X11673Y14013D01*
X14108Y13611D02*
X14188D01*
X14148D01*
Y13491D01*
X14228D02*
Y13611D01*
X14288D01*
X14308Y13591D01*
Y13551D01*
X14288Y13531D01*
X14228D01*
X14348Y13591D02*
X14368Y13611D01*
X14408D01*
X14428Y13591D01*
Y13571D01*
X14408Y13551D01*
X14388D01*
X14408D01*
X14428Y13531D01*
Y13511D01*
X14408Y13491D01*
X14368D01*
X14348Y13511D01*
X14548Y13611D02*
X14508Y13591D01*
X14468Y13551D01*
Y13511D01*
X14488Y13491D01*
X14528D01*
X14548Y13511D01*
Y13531D01*
X14528Y13551D01*
X14468D01*
X8308Y9368D02*
X8188D01*
Y9428D01*
X8208Y9448D01*
X8248D01*
X8268Y9428D01*
Y9368D01*
Y9408D02*
X8308Y9448D01*
Y9488D02*
Y9528D01*
Y9508D01*
X8188D01*
X8208Y9488D01*
X8308Y9588D02*
Y9628D01*
Y9608D01*
X8188D01*
X8208Y9588D01*
X8308Y9811D02*
X8188D01*
Y9871D01*
X8208Y9891D01*
X8248D01*
X8268Y9871D01*
Y9811D01*
Y9851D02*
X8308Y9891D01*
Y9931D02*
Y9971D01*
Y9951D01*
X8188D01*
X8208Y9931D01*
X8188Y10111D02*
Y10031D01*
X8248D01*
X8228Y10071D01*
Y10091D01*
X8248Y10111D01*
X8288D01*
X8308Y10091D01*
Y10051D01*
X8288Y10031D01*
X10048Y13164D02*
X10028Y13184D01*
X9988D01*
X9968Y13164D01*
Y13144D01*
X9988Y13124D01*
X10028D01*
X10048Y13104D01*
Y13084D01*
X10028Y13064D01*
X9988D01*
X9968Y13084D01*
X10088Y13184D02*
Y13064D01*
X10148D01*
X10168Y13084D01*
Y13104D01*
X10148Y13124D01*
X10088D01*
X10148D01*
X10168Y13144D01*
Y13164D01*
X10148Y13184D01*
X10088D01*
X10208Y13064D02*
X10248D01*
X10228D01*
Y13184D01*
X10208Y13164D01*
X10561Y13164D02*
X10541Y13184D01*
X10501D01*
X10481Y13164D01*
Y13144D01*
X10501Y13124D01*
X10541D01*
X10561Y13104D01*
Y13084D01*
X10541Y13064D01*
X10501D01*
X10481Y13084D01*
X10601Y13184D02*
Y13064D01*
X10661D01*
X10681Y13084D01*
Y13104D01*
X10661Y13124D01*
X10601D01*
X10661D01*
X10681Y13144D01*
Y13164D01*
X10661Y13184D01*
X10601D01*
X10801Y13064D02*
X10721D01*
X10801Y13144D01*
Y13164D01*
X10781Y13184D01*
X10741D01*
X10721Y13164D01*
X10345Y14770D02*
X10425D01*
X10385D01*
Y14650D01*
X10465D02*
Y14770D01*
X10525D01*
X10545Y14750D01*
Y14710D01*
X10525Y14690D01*
X10465D01*
X10585Y14750D02*
X10605Y14770D01*
X10645D01*
X10665Y14750D01*
Y14730D01*
X10645Y14710D01*
X10625D01*
X10645D01*
X10665Y14690D01*
Y14670D01*
X10645Y14650D01*
X10605D01*
X10585Y14670D01*
X10705Y14770D02*
X10785D01*
Y14750D01*
X10705Y14670D01*
Y14650D01*
X9164Y14770D02*
X9244D01*
X9204D01*
Y14650D01*
X9284D02*
Y14770D01*
X9344D01*
X9364Y14750D01*
Y14710D01*
X9344Y14690D01*
X9284D01*
X9404Y14750D02*
X9424Y14770D01*
X9464D01*
X9484Y14750D01*
Y14730D01*
X9464Y14710D01*
X9444D01*
X9464D01*
X9484Y14690D01*
Y14670D01*
X9464Y14650D01*
X9424D01*
X9404Y14670D01*
X9524Y14750D02*
X9544Y14770D01*
X9584D01*
X9604Y14750D01*
Y14730D01*
X9584Y14710D01*
X9604Y14690D01*
Y14670D01*
X9584Y14650D01*
X9544D01*
X9524Y14670D01*
Y14690D01*
X9544Y14710D01*
X9524Y14730D01*
Y14750D01*
X9544Y14710D02*
X9584D01*
X7539Y9635D02*
Y9715D01*
X7519Y9735D01*
X7479D01*
X7459Y9715D01*
Y9635D01*
X7479Y9615D01*
X7519D01*
X7499Y9655D02*
X7539Y9615D01*
X7519D02*
X7539Y9635D01*
X7579Y9735D02*
X7659D01*
Y9715D01*
X7579Y9635D01*
Y9615D01*
X7835Y10265D02*
Y10385D01*
X7895D01*
X7915Y10365D01*
Y10325D01*
X7895Y10305D01*
X7835D01*
X7875D02*
X7915Y10265D01*
X8035D02*
X7955D01*
X8035Y10345D01*
Y10365D01*
X8015Y10385D01*
X7975D01*
X7955Y10365D01*
X8135Y10265D02*
Y10385D01*
X8075Y10325D01*
X8155D01*
X7628Y8985D02*
Y9105D01*
X7688D01*
X7708Y9085D01*
Y9045D01*
X7688Y9025D01*
X7628D01*
X7668D02*
X7708Y8985D01*
X7828D02*
X7748D01*
X7828Y9065D01*
Y9085D01*
X7808Y9105D01*
X7768D01*
X7748Y9085D01*
X7948Y9105D02*
X7868D01*
Y9045D01*
X7908Y9065D01*
X7928D01*
X7948Y9045D01*
Y9005D01*
X7928Y8985D01*
X7888D01*
X7868Y9005D01*
X13101Y9484D02*
X13181D01*
X13141D01*
Y9364D01*
X13221D02*
Y9484D01*
X13281D01*
X13301Y9464D01*
Y9424D01*
X13281Y9404D01*
X13221D01*
X13341Y9464D02*
X13361Y9484D01*
X13401D01*
X13421Y9464D01*
Y9444D01*
X13401Y9424D01*
X13381D01*
X13401D01*
X13421Y9404D01*
Y9384D01*
X13401Y9364D01*
X13361D01*
X13341Y9384D01*
X13461D02*
X13481Y9364D01*
X13521D01*
X13541Y9384D01*
Y9464D01*
X13521Y9484D01*
X13481D01*
X13461Y9464D01*
Y9444D01*
X13481Y9424D01*
X13541D01*
X14282Y9484D02*
X14362D01*
X14322D01*
Y9364D01*
X14402D02*
Y9484D01*
X14462D01*
X14482Y9464D01*
Y9424D01*
X14462Y9404D01*
X14402D01*
X14582Y9364D02*
Y9484D01*
X14522Y9424D01*
X14602D01*
X14642Y9464D02*
X14662Y9484D01*
X14702D01*
X14722Y9464D01*
Y9384D01*
X14702Y9364D01*
X14662D01*
X14642Y9384D01*
Y9464D01*
X14282Y8303D02*
X14362D01*
X14322D01*
Y8183D01*
X14402D02*
Y8303D01*
X14462D01*
X14482Y8283D01*
Y8243D01*
X14462Y8223D01*
X14402D01*
X14582Y8183D02*
Y8303D01*
X14522Y8243D01*
X14602D01*
X14642Y8283D02*
X14662Y8303D01*
X14702D01*
X14722Y8283D01*
Y8263D01*
X14702Y8243D01*
X14682D01*
X14702D01*
X14722Y8223D01*
Y8203D01*
X14702Y8183D01*
X14662D01*
X14642Y8203D01*
X13101Y8303D02*
X13181D01*
X13141D01*
Y8183D01*
X13221D02*
Y8303D01*
X13281D01*
X13301Y8283D01*
Y8243D01*
X13281Y8223D01*
X13221D01*
X13401Y8183D02*
Y8303D01*
X13341Y8243D01*
X13421D01*
X13541Y8183D02*
X13461D01*
X13541Y8263D01*
Y8283D01*
X13521Y8303D01*
X13481D01*
X13461Y8283D01*
X12339Y3382D02*
X12419D01*
X12379D01*
Y3261D01*
X12459D02*
Y3382D01*
X12519D01*
X12539Y3362D01*
Y3322D01*
X12519Y3302D01*
X12459D01*
X12639Y3261D02*
Y3382D01*
X12579Y3322D01*
X12659D01*
X12699Y3261D02*
X12739D01*
X12719D01*
Y3382D01*
X12699Y3362D01*
X5584Y16639D02*
X5664D01*
X5624D01*
Y16519D01*
X5704D02*
Y16639D01*
X5764D01*
X5784Y16619D01*
Y16579D01*
X5764Y16559D01*
X5704D01*
X5824Y16519D02*
X5864D01*
X5844D01*
Y16639D01*
X5824Y16619D01*
X6004Y16639D02*
X5964Y16619D01*
X5924Y16579D01*
Y16539D01*
X5944Y16519D01*
X5984D01*
X6004Y16539D01*
Y16559D01*
X5984Y16579D01*
X5924D01*
X6083Y19750D02*
X6163D01*
X6123D01*
Y19630D01*
X6203D02*
Y19750D01*
X6263D01*
X6283Y19730D01*
Y19690D01*
X6263Y19670D01*
X6203D01*
X6383Y19630D02*
Y19750D01*
X6323Y19690D01*
X6403D01*
X6503Y19630D02*
Y19750D01*
X6443Y19690D01*
X6523D01*
X12927Y14113D02*
X13007D01*
X12967D01*
Y13993D01*
X13047D02*
Y14113D01*
X13107D01*
X13127Y14093D01*
Y14053D01*
X13107Y14033D01*
X13047D01*
X13227Y13993D02*
Y14113D01*
X13167Y14053D01*
X13247D01*
X13367Y14113D02*
X13287D01*
Y14053D01*
X13327Y14073D01*
X13347D01*
X13367Y14053D01*
Y14013D01*
X13347Y13993D01*
X13307D01*
X13287Y14013D01*
X12120Y14113D02*
X12200D01*
X12160D01*
Y13993D01*
X12240D02*
Y14113D01*
X12300D01*
X12320Y14093D01*
Y14053D01*
X12300Y14033D01*
X12240D01*
X12420Y13993D02*
Y14113D01*
X12360Y14053D01*
X12440D01*
X12560Y14113D02*
X12520Y14093D01*
X12480Y14053D01*
Y14013D01*
X12500Y13993D01*
X12540D01*
X12560Y14013D01*
Y14033D01*
X12540Y14053D01*
X12480D01*
X12797Y4282D02*
X12777Y4302D01*
X12737D01*
X12717Y4282D01*
Y4202D01*
X12737Y4182D01*
X12777D01*
X12797Y4202D01*
X12897Y4182D02*
Y4302D01*
X12837Y4242D01*
X12917D01*
X12957Y4202D02*
X12977Y4182D01*
X13017D01*
X13037Y4202D01*
Y4282D01*
X13017Y4302D01*
X12977D01*
X12957Y4282D01*
Y4262D01*
X12977Y4242D01*
X13037D01*
X12498Y4962D02*
Y4862D01*
X12518Y4842D01*
X12558D01*
X12578Y4862D01*
Y4962D01*
X12618Y4842D02*
X12658D01*
X12638D01*
Y4962D01*
X12618Y4942D01*
X12718Y4962D02*
X12798D01*
Y4942D01*
X12718Y4862D01*
Y4842D01*
X15658Y9804D02*
X15638Y9824D01*
X15598D01*
X15578Y9804D01*
Y9784D01*
X15598Y9764D01*
X15638D01*
X15658Y9744D01*
Y9724D01*
X15638Y9704D01*
X15598D01*
X15578Y9724D01*
X15698Y9824D02*
Y9704D01*
X15758D01*
X15778Y9724D01*
Y9744D01*
X15758Y9764D01*
X15698D01*
X15758D01*
X15778Y9784D01*
Y9804D01*
X15758Y9824D01*
X15698D01*
X15898D02*
X15858Y9804D01*
X15818Y9764D01*
Y9724D01*
X15838Y9704D01*
X15878D01*
X15898Y9724D01*
Y9744D01*
X15878Y9764D01*
X15818D01*
X14108Y12036D02*
X14188D01*
X14148D01*
Y11916D01*
X14228D02*
Y12036D01*
X14288D01*
X14308Y12016D01*
Y11976D01*
X14288Y11956D01*
X14228D01*
X14408Y11916D02*
Y12036D01*
X14348Y11976D01*
X14428D01*
X14468Y12036D02*
X14548D01*
Y12016D01*
X14468Y11936D01*
Y11916D01*
X10029Y2866D02*
X10009Y2846D01*
Y2806D01*
X10029Y2786D01*
X10109D01*
X10129Y2806D01*
Y2846D01*
X10109Y2866D01*
X10129Y2906D02*
Y2946D01*
Y2926D01*
X10009D01*
X10029Y2906D01*
X10129Y3086D02*
Y3006D01*
X10049Y3086D01*
X10029D01*
X10009Y3066D01*
Y3026D01*
X10029Y3006D01*
X7372Y4667D02*
X7351Y4647D01*
Y4607D01*
X7372Y4587D01*
X7452D01*
X7472Y4607D01*
Y4647D01*
X7452Y4667D01*
Y4707D02*
X7472Y4727D01*
Y4767D01*
X7452Y4787D01*
X7372D01*
X7351Y4767D01*
Y4727D01*
X7372Y4707D01*
X7392D01*
X7412Y4727D01*
Y4787D01*
X6647Y4730D02*
X6727Y4610D01*
Y4730D02*
X6647Y4610D01*
X6847D02*
X6767D01*
X6847Y4690D01*
Y4710D01*
X6827Y4730D01*
X6787D01*
X6767Y4710D01*
X7372Y5622D02*
X7351Y5602D01*
Y5562D01*
X7372Y5542D01*
X7452D01*
X7472Y5562D01*
Y5602D01*
X7452Y5622D01*
X7372Y5662D02*
X7351Y5682D01*
Y5722D01*
X7372Y5742D01*
X7392D01*
X7412Y5722D01*
X7432Y5742D01*
X7452D01*
X7472Y5722D01*
Y5682D01*
X7452Y5662D01*
X7432D01*
X7412Y5682D01*
X7392Y5662D01*
X7372D01*
X7412Y5682D02*
Y5722D01*
X7372Y3693D02*
X7351Y3673D01*
Y3633D01*
X7372Y3613D01*
X7452D01*
X7472Y3633D01*
Y3673D01*
X7452Y3693D01*
X7472Y3733D02*
Y3773D01*
Y3753D01*
X7351D01*
X7372Y3733D01*
Y3833D02*
X7351Y3853D01*
Y3893D01*
X7372Y3913D01*
X7452D01*
X7472Y3893D01*
Y3853D01*
X7452Y3833D01*
X7372D01*
X8849Y2866D02*
X8828Y2846D01*
Y2806D01*
X8849Y2786D01*
X8929D01*
X8949Y2806D01*
Y2846D01*
X8929Y2866D01*
X8949Y2906D02*
Y2946D01*
Y2926D01*
X8828D01*
X8849Y2906D01*
X8949Y3006D02*
Y3046D01*
Y3026D01*
X8828D01*
X8849Y3006D01*
X17449Y4952D02*
Y5072D01*
X17509D01*
X17529Y5052D01*
Y5012D01*
X17509Y4992D01*
X17449D01*
X17489D02*
X17529Y4952D01*
X17649D02*
X17569D01*
X17649Y5032D01*
Y5052D01*
X17629Y5072D01*
X17589D01*
X17569Y5052D01*
X6779Y7792D02*
X6759Y7772D01*
Y7732D01*
X6779Y7712D01*
X6799D01*
X6819Y7732D01*
Y7772D01*
X6839Y7792D01*
X6859D01*
X6879Y7772D01*
Y7732D01*
X6859Y7712D01*
X6759Y7832D02*
X6879D01*
Y7892D01*
X6859Y7912D01*
X6839D01*
X6819Y7892D01*
Y7832D01*
Y7892D01*
X6799Y7912D01*
X6779D01*
X6759Y7892D01*
Y7832D01*
Y7952D02*
Y8032D01*
X6779D01*
X6859Y7952D01*
X6879D01*
X15793Y6166D02*
X15673D01*
Y6226D01*
X15693Y6246D01*
X15733D01*
X15753Y6226D01*
Y6166D01*
Y6206D02*
X15793Y6246D01*
X15673Y6366D02*
X15693Y6326D01*
X15733Y6286D01*
X15773D01*
X15793Y6306D01*
Y6346D01*
X15773Y6366D01*
X15753D01*
X15733Y6346D01*
Y6286D01*
X10940Y15593D02*
X10920Y15573D01*
Y15533D01*
X10940Y15513D01*
X10960D01*
X10980Y15533D01*
Y15573D01*
X11000Y15593D01*
X11020D01*
X11040Y15573D01*
Y15533D01*
X11020Y15513D01*
X10920Y15633D02*
X11040D01*
Y15693D01*
X11020Y15713D01*
X11000D01*
X10980Y15693D01*
Y15633D01*
Y15693D01*
X10960Y15713D01*
X10940D01*
X10920Y15693D01*
Y15633D01*
X10940Y15753D02*
X10920Y15773D01*
Y15813D01*
X10940Y15833D01*
X10960D01*
X10980Y15813D01*
X11000Y15833D01*
X11020D01*
X11040Y15813D01*
Y15773D01*
X11020Y15753D01*
X11000D01*
X10980Y15773D01*
X10960Y15753D01*
X10940D01*
X10980Y15773D02*
Y15813D01*
X9739Y15593D02*
X9719Y15573D01*
Y15533D01*
X9739Y15513D01*
X9759D01*
X9779Y15533D01*
Y15573D01*
X9799Y15593D01*
X9819D01*
X9839Y15573D01*
Y15533D01*
X9819Y15513D01*
X9719Y15633D02*
X9839D01*
Y15693D01*
X9819Y15713D01*
X9799D01*
X9779Y15693D01*
Y15633D01*
Y15693D01*
X9759Y15713D01*
X9739D01*
X9719Y15693D01*
Y15633D01*
X9819Y15753D02*
X9839Y15773D01*
Y15813D01*
X9819Y15833D01*
X9739D01*
X9719Y15813D01*
Y15773D01*
X9739Y15753D01*
X9759D01*
X9779Y15773D01*
Y15833D01*
X5897Y19067D02*
X5877Y19087D01*
X5837D01*
X5817Y19067D01*
Y18987D01*
X5837Y18967D01*
X5877D01*
X5897Y18987D01*
X6017Y19087D02*
X5977Y19067D01*
X5937Y19027D01*
Y18987D01*
X5957Y18967D01*
X5997D01*
X6017Y18987D01*
Y19007D01*
X5997Y19027D01*
X5937D01*
X6137Y18967D02*
X6057D01*
X6137Y19047D01*
Y19067D01*
X6117Y19087D01*
X6077D01*
X6057Y19067D01*
X5795Y17411D02*
X5915D01*
Y17471D01*
X5895Y17491D01*
X5815D01*
X5795Y17471D01*
Y17411D01*
Y17611D02*
Y17531D01*
X5855D01*
X5835Y17571D01*
Y17591D01*
X5855Y17611D01*
X5895D01*
X5915Y17591D01*
Y17551D01*
X5895Y17531D01*
X6993Y17362D02*
X7113D01*
Y17422D01*
X7093Y17442D01*
X7013D01*
X6993Y17422D01*
Y17362D01*
Y17562D02*
X7013Y17522D01*
X7053Y17482D01*
X7093D01*
X7113Y17502D01*
Y17542D01*
X7093Y17562D01*
X7073D01*
X7053Y17542D01*
Y17482D01*
X6438Y17717D02*
Y17797D01*
X6418Y17817D01*
X6378D01*
X6358Y17797D01*
Y17717D01*
X6378Y17697D01*
X6418D01*
X6398Y17737D02*
X6438Y17697D01*
X6418D02*
X6438Y17717D01*
X6478Y17697D02*
X6518D01*
X6498D01*
Y17817D01*
X6478Y17797D01*
X7052Y18030D02*
X6932D01*
Y18090D01*
X6952Y18110D01*
X6992D01*
X7012Y18090D01*
Y18030D01*
Y18070D02*
X7052Y18110D01*
X6952Y18150D02*
X6932Y18170D01*
Y18210D01*
X6952Y18230D01*
X6972D01*
X6992Y18210D01*
X7012Y18230D01*
X7032D01*
X7052Y18210D01*
Y18170D01*
X7032Y18150D01*
X7012D01*
X6992Y18170D01*
X6972Y18150D01*
X6952D01*
X6992Y18170D02*
Y18210D01*
X7274Y17933D02*
X7154D01*
Y17993D01*
X7174Y18013D01*
X7214D01*
X7234Y17993D01*
Y17933D01*
Y17973D02*
X7274Y18013D01*
Y18053D02*
Y18093D01*
Y18073D01*
X7154D01*
X7174Y18053D01*
X7254Y18153D02*
X7274Y18173D01*
Y18213D01*
X7254Y18233D01*
X7174D01*
X7154Y18213D01*
Y18173D01*
X7174Y18153D01*
X7194D01*
X7214Y18173D01*
Y18233D01*
X7234Y18750D02*
X7114D01*
Y18810D01*
X7134Y18830D01*
X7174D01*
X7194Y18810D01*
Y18750D01*
Y18790D02*
X7234Y18830D01*
Y18950D02*
Y18870D01*
X7154Y18950D01*
X7134D01*
X7114Y18930D01*
Y18890D01*
X7134Y18870D01*
Y18990D02*
X7114Y19010D01*
Y19050D01*
X7134Y19070D01*
X7214D01*
X7234Y19050D01*
Y19010D01*
X7214Y18990D01*
X7134D01*
X14703Y4755D02*
Y4655D01*
X14723Y4635D01*
X14763D01*
X14783Y4655D01*
Y4755D01*
X14903Y4635D02*
X14823D01*
X14903Y4715D01*
Y4735D01*
X14883Y4755D01*
X14843D01*
X14823Y4735D01*
D251*
X768Y14746D02*
Y14626D01*
X828D01*
X848Y14646D01*
Y14726D01*
X828Y14746D01*
X768D01*
X948Y14626D02*
Y14746D01*
X888Y14686D01*
X968D01*
X768Y15071D02*
Y14951D01*
X828D01*
X848Y14971D01*
Y15051D01*
X828Y15071D01*
X768D01*
X888Y15051D02*
X908Y15071D01*
X948D01*
X968Y15051D01*
Y15031D01*
X948Y15011D01*
X928D01*
X948D01*
X968Y14991D01*
Y14971D01*
X948Y14951D01*
X908D01*
X888Y14971D01*
D252*
X11348Y15784D02*
D03*
X12010Y17768D02*
D03*
X11348D02*
D03*
X13994D02*
D03*
X13333D02*
D03*
X12009Y15784D02*
D03*
D253*
X12892Y15618D02*
D03*
D254*
X11679Y18098D02*
D03*
Y16114D02*
D03*
Y15453D02*
D03*
D255*
X11679Y17768D02*
D03*
D256*
X11679Y17437D02*
D03*
D257*
X13663Y18098D02*
D03*
Y17437D02*
D03*
D258*
X13663Y17768D02*
D03*
D259*
X13333Y16114D02*
D03*
D260*
X11679Y15783D02*
D03*
M02*
