G04*
G04 #@! TF.GenerationSoftware,Altium Limited,Altium Designer,23.6.0 (18)*
G04*
G04 Layer_Color=16711935*
%FSLAX24Y24*%
%MOIN*%
G70*
G04*
G04 #@! TF.SameCoordinates,7E18E310-DAB5-435A-A8D0-C5F7F634A292*
G04*
G04*
G04 #@! TF.FilePolarity,Negative*
G04*
G01*
G75*
%ADD68C,0.0240*%
%ADD74O,0.0287X0.0118*%
%ADD75O,0.0118X0.0287*%
%ADD76R,0.0146X0.0157*%
%ADD77C,0.0650*%
%ADD82R,0.0165X0.0177*%
%ADD88R,0.0354X0.0374*%
%ADD91R,0.0374X0.0354*%
%ADD92R,0.0256X0.0295*%
%ADD93R,0.0295X0.0256*%
%ADD95R,0.0177X0.0165*%
%ADD102C,0.0132*%
%ADD107C,0.0138*%
%ADD122R,0.0650X0.0650*%
%ADD123C,0.0335*%
%ADD124C,0.0413*%
%ADD125C,0.0669*%
%ADD126C,0.0295*%
%ADD127O,0.0846X0.0453*%
%ADD128O,0.0965X0.0453*%
%ADD129O,0.0295X0.0394*%
%ADD130C,0.0461*%
%ADD131C,0.1240*%
%ADD211R,0.0079X0.0472*%
%ADD212R,0.0165X0.0362*%
%ADD213R,0.0411X0.0165*%
%ADD214R,0.0407X0.0161*%
%ADD215C,0.0787*%
%ADD216R,0.0283X0.1071*%
%ADD217R,0.0768X0.0531*%
%ADD218R,0.0669X0.0295*%
%ADD219R,0.0236X0.0197*%
%ADD220R,0.0413X0.0295*%
%ADD221R,0.0539X0.0419*%
%ADD222R,0.0138X0.0197*%
%ADD223R,0.0327X0.0209*%
%ADD224R,0.1398X0.0571*%
%ADD225R,0.0205X0.0146*%
%ADD226R,0.0205X0.0323*%
%ADD227C,0.0453*%
%ADD228C,0.0115*%
%ADD229R,0.0150X0.0177*%
%ADD230P,0.0362X4X90.0*%
%ADD231C,0.0126*%
%ADD232R,0.0157X0.0246*%
%ADD233R,0.0246X0.0157*%
%ADD234R,0.0453X0.0394*%
%ADD235R,0.0295X0.0394*%
%ADD236R,0.0315X0.0256*%
%ADD237R,0.0846X0.0256*%
%ADD238R,0.0846X0.0453*%
%ADD239R,0.0453X0.0165*%
%ADD240R,0.0453X0.0264*%
%ADD241R,0.0453X0.0157*%
%ADD242R,0.0858X0.0358*%
%ADD243R,0.0217X0.0217*%
G36*
X5852Y14941D02*
X5852Y14941D01*
X5856Y14940D01*
X5859Y14938D01*
X5861Y14936D01*
X5862Y14935D01*
X5862Y14935D01*
X5981Y14817D01*
X5981Y14817D01*
X5982Y14815D01*
X5983Y14814D01*
X5985Y14811D01*
X5985Y14810D01*
X5986Y14807D01*
X5986Y14805D01*
X5986Y14803D01*
X5986Y14800D01*
X5986Y14799D01*
X5985Y14796D01*
X5983Y14792D01*
X5982Y14791D01*
X5981Y14789D01*
X5979Y14788D01*
X5978Y14787D01*
X5974Y14785D01*
X5973Y14785D01*
X5970Y14784D01*
X5969Y14784D01*
X5967Y14783D01*
X5967Y14783D01*
X5758Y14783D01*
X5754Y14784D01*
X5750Y14785D01*
X5747Y14787D01*
X5744Y14789D01*
X5741Y14792D01*
X5740Y14796D01*
X5738Y14799D01*
X5738Y14803D01*
X5738Y14921D01*
X5738Y14925D01*
X5740Y14929D01*
X5741Y14932D01*
X5744Y14935D01*
X5747Y14938D01*
X5750Y14940D01*
X5754Y14941D01*
X5758Y14941D01*
X5848Y14941D01*
X5848Y14941D01*
X5852Y14941D01*
D02*
G37*
G36*
X5931Y15197D02*
X5935Y15195D01*
X5938Y15194D01*
X5941Y15191D01*
X5944Y15188D01*
X5945Y15185D01*
X5947Y15181D01*
X5947Y15177D01*
Y15138D01*
X5947Y15138D01*
X5947Y15136D01*
X5947Y15134D01*
X5946Y15131D01*
X5945Y15130D01*
X5944Y15127D01*
X5942Y15125D01*
X5941Y15124D01*
X5941Y15124D01*
X5862Y15045D01*
X5862Y15045D01*
X5861Y15044D01*
X5859Y15043D01*
X5856Y15041D01*
X5852Y15040D01*
X5852Y15040D01*
X5848Y15039D01*
X5848Y15039D01*
X5758Y15039D01*
X5754Y15040D01*
X5750Y15041D01*
X5747Y15043D01*
X5744Y15045D01*
X5741Y15048D01*
X5740Y15051D01*
X5738Y15055D01*
X5738Y15059D01*
Y15177D01*
X5738Y15181D01*
X5740Y15185D01*
X5741Y15188D01*
X5744Y15191D01*
X5747Y15194D01*
X5750Y15195D01*
X5754Y15197D01*
X5758Y15197D01*
X5927D01*
X5931Y15197D01*
D02*
G37*
G36*
X6274Y14941D02*
X6277Y14940D01*
X6281Y14938D01*
X6284Y14935D01*
X6286Y14932D01*
X6288Y14929D01*
X6289Y14925D01*
X6289Y14921D01*
X6289Y14803D01*
X6289Y14799D01*
X6288Y14796D01*
X6286Y14792D01*
X6284Y14789D01*
X6281Y14787D01*
X6277Y14785D01*
X6274Y14784D01*
X6270Y14783D01*
X6100D01*
X6097Y14784D01*
X6093Y14785D01*
X6089Y14787D01*
X6086Y14789D01*
X6084Y14792D01*
X6082Y14796D01*
X6081Y14799D01*
X6081Y14803D01*
Y14843D01*
X6081Y14843D01*
X6081Y14844D01*
X6081Y14846D01*
X6082Y14849D01*
X6082Y14850D01*
X6084Y14854D01*
X6086Y14857D01*
X6165Y14935D01*
X6165Y14935D01*
X6168Y14938D01*
X6172Y14940D01*
X6172Y14940D01*
X6175Y14941D01*
X6179Y14941D01*
X6270Y14941D01*
X6274Y14941D01*
D02*
G37*
G36*
X6274Y15197D02*
X6277Y15195D01*
X6281Y15194D01*
X6284Y15191D01*
X6286Y15188D01*
X6288Y15185D01*
X6289Y15181D01*
X6289Y15177D01*
Y15059D01*
X6289Y15055D01*
X6288Y15051D01*
X6286Y15048D01*
X6284Y15045D01*
X6281Y15043D01*
X6277Y15041D01*
X6274Y15040D01*
X6270Y15039D01*
X6179Y15039D01*
X6175Y15040D01*
X6172Y15041D01*
X6172Y15041D01*
X6168Y15043D01*
X6165Y15045D01*
X6165Y15045D01*
X6086Y15124D01*
X6084Y15127D01*
X6082Y15130D01*
X6082Y15131D01*
X6081Y15134D01*
X6081Y15136D01*
X6081Y15138D01*
X6081Y15138D01*
Y15177D01*
X6081Y15181D01*
X6082Y15185D01*
X6084Y15188D01*
X6086Y15191D01*
X6089Y15194D01*
X6093Y15195D01*
X6097Y15197D01*
X6100Y15197D01*
X6270Y15197D01*
X6274Y15197D01*
D02*
G37*
G36*
X8220Y18522D02*
X8222Y18522D01*
X8223Y18521D01*
X8223Y18521D01*
X8225Y18521D01*
X8227Y18521D01*
X8240Y18517D01*
X8241Y18517D01*
X8243Y18516D01*
X8244Y18516D01*
X8244Y18516D01*
X8246Y18515D01*
X8247Y18514D01*
X8248Y18514D01*
X8248Y18514D01*
X8250Y18512D01*
X8251Y18511D01*
X8261Y18503D01*
X8263Y18502D01*
X8264Y18500D01*
X8264Y18500D01*
X8265Y18500D01*
X8266Y18498D01*
X8267Y18497D01*
X8267Y18496D01*
X8267Y18496D01*
X8268Y18494D01*
X8269Y18493D01*
X8275Y18481D01*
X8275Y18479D01*
X8276Y18477D01*
X8276Y18477D01*
X8276Y18476D01*
X8277Y18474D01*
X8277Y18473D01*
X8277Y18472D01*
X8277Y18472D01*
X8278Y18470D01*
X8278Y18468D01*
X8278Y18461D01*
X8278Y18461D01*
Y18461D01*
X8278Y18133D01*
X8278Y18127D01*
X8278Y18125D01*
X8277Y18123D01*
X8277Y18122D01*
X8277Y18122D01*
X8277Y18120D01*
X8276Y18118D01*
X8276Y18118D01*
X8276Y18117D01*
X8275Y18116D01*
X8275Y18114D01*
X8269Y18102D01*
X8268Y18100D01*
X8267Y18099D01*
X8267Y18098D01*
X8267Y18098D01*
X8266Y18096D01*
X8265Y18095D01*
X8264Y18095D01*
X8264Y18094D01*
X8263Y18093D01*
X8261Y18092D01*
X8251Y18083D01*
X8250Y18082D01*
X8248Y18081D01*
X8248Y18081D01*
X8247Y18080D01*
X8246Y18080D01*
X8244Y18079D01*
X8244Y18079D01*
X8243Y18078D01*
X8241Y18078D01*
X8240Y18077D01*
X8227Y18074D01*
X8225Y18073D01*
X8223Y18073D01*
X8223Y18073D01*
X8222Y18073D01*
X8220Y18073D01*
X8218Y18073D01*
X8218Y18073D01*
X8217Y18073D01*
X8216Y18073D01*
X8214Y18073D01*
X8207Y18074D01*
X8207Y18074D01*
X8190Y18078D01*
X8190Y18078D01*
X8190Y18078D01*
X8188Y18078D01*
X8186Y18079D01*
X8186Y18079D01*
X8185Y18079D01*
X8153Y18091D01*
X8153Y18091D01*
X8153Y18091D01*
X8151Y18092D01*
X8149Y18093D01*
X8149Y18093D01*
X8149Y18093D01*
X8119Y18110D01*
X8119Y18110D01*
X8119Y18111D01*
X8117Y18112D01*
X8115Y18113D01*
X8115Y18113D01*
X8115Y18113D01*
X8089Y18135D01*
X8088Y18136D01*
X8088Y18136D01*
X8087Y18137D01*
X8085Y18139D01*
X8085Y18139D01*
X8085Y18139D01*
X8063Y18165D01*
X8063Y18166D01*
X8063Y18166D01*
X8062Y18168D01*
X8060Y18169D01*
X8060Y18169D01*
X8060Y18170D01*
X8043Y18199D01*
X8043Y18200D01*
X8043Y18200D01*
X8042Y18202D01*
X8041Y18204D01*
X8041Y18204D01*
X8041Y18204D01*
X8029Y18236D01*
X8029Y18237D01*
X8029Y18237D01*
X8029Y18239D01*
X8028Y18241D01*
X8028Y18241D01*
X8028Y18241D01*
X8022Y18275D01*
X8022Y18275D01*
X8022Y18275D01*
X8022Y18278D01*
X8022Y18280D01*
X8022Y18280D01*
X8022Y18280D01*
X8022Y18297D01*
X8022Y18314D01*
X8022Y18315D01*
X8022Y18315D01*
X8022Y18317D01*
X8022Y18319D01*
X8022Y18319D01*
X8022Y18319D01*
X8028Y18353D01*
X8028Y18354D01*
X8028Y18354D01*
X8029Y18356D01*
X8029Y18358D01*
X8029Y18358D01*
X8029Y18358D01*
X8041Y18390D01*
X8041Y18391D01*
X8041Y18391D01*
X8042Y18393D01*
X8043Y18395D01*
X8043Y18395D01*
X8043Y18395D01*
X8060Y18425D01*
X8060Y18425D01*
X8060Y18425D01*
X8062Y18427D01*
X8063Y18429D01*
X8063Y18429D01*
X8063Y18429D01*
X8085Y18455D01*
X8085Y18456D01*
X8085Y18456D01*
X8087Y18457D01*
X8088Y18459D01*
X8088Y18459D01*
X8089Y18459D01*
X8115Y18481D01*
X8115Y18481D01*
X8115Y18481D01*
X8117Y18483D01*
X8119Y18484D01*
X8119Y18484D01*
X8119Y18484D01*
X8149Y18501D01*
X8149Y18502D01*
X8149Y18502D01*
X8151Y18503D01*
X8153Y18503D01*
X8153Y18504D01*
X8153Y18504D01*
X8185Y18516D01*
X8186Y18516D01*
X8186Y18516D01*
X8188Y18516D01*
X8190Y18517D01*
X8190Y18517D01*
X8190Y18517D01*
X8207Y18520D01*
X8207D01*
X8214Y18521D01*
X8216Y18521D01*
X8217Y18522D01*
X8218Y18522D01*
X8218Y18522D01*
X8220Y18522D01*
D02*
G37*
G36*
X8357Y18522D02*
X8357Y18522D01*
X8359Y18521D01*
X8361Y18521D01*
X8368Y18520D01*
X8368Y18520D01*
X8384Y18517D01*
X8385Y18517D01*
X8385Y18517D01*
X8387Y18516D01*
X8389Y18516D01*
X8389Y18516D01*
X8389Y18516D01*
X8422Y18504D01*
X8422Y18504D01*
X8422Y18503D01*
X8424Y18503D01*
X8426Y18502D01*
X8426Y18502D01*
X8426Y18501D01*
X8456Y18484D01*
X8456Y18484D01*
X8456Y18484D01*
X8458Y18483D01*
X8460Y18482D01*
X8460Y18481D01*
X8460Y18481D01*
X8486Y18459D01*
X8486Y18459D01*
X8487Y18459D01*
X8488Y18457D01*
X8489Y18456D01*
X8490Y18456D01*
X8490Y18455D01*
X8512Y18429D01*
X8512Y18429D01*
X8512Y18429D01*
X8513Y18427D01*
X8514Y18425D01*
X8515Y18425D01*
X8515Y18425D01*
X8532Y18395D01*
X8532Y18395D01*
X8532Y18395D01*
X8533Y18393D01*
X8534Y18391D01*
X8534Y18391D01*
X8534Y18390D01*
X8546Y18358D01*
X8546Y18358D01*
X8546Y18358D01*
X8546Y18356D01*
X8547Y18354D01*
X8547Y18354D01*
X8547Y18353D01*
X8553Y18319D01*
X8553Y18319D01*
X8553Y18319D01*
X8553Y18317D01*
X8553Y18315D01*
X8553Y18315D01*
X8553Y18314D01*
X8553Y18297D01*
X8553Y18280D01*
X8553Y18280D01*
X8553Y18280D01*
X8553Y18278D01*
X8553Y18275D01*
X8553Y18275D01*
X8553Y18275D01*
X8547Y18241D01*
X8547Y18241D01*
X8547Y18241D01*
X8546Y18239D01*
X8546Y18237D01*
X8546Y18237D01*
X8546Y18236D01*
X8534Y18204D01*
X8534Y18204D01*
X8534Y18204D01*
X8533Y18202D01*
X8532Y18200D01*
X8532Y18200D01*
X8532Y18199D01*
X8515Y18170D01*
X8515Y18169D01*
X8514Y18169D01*
X8513Y18168D01*
X8512Y18166D01*
X8512Y18166D01*
X8512Y18165D01*
X8490Y18139D01*
X8490Y18139D01*
X8489Y18139D01*
X8488Y18137D01*
X8487Y18136D01*
X8486Y18136D01*
X8486Y18135D01*
X8460Y18113D01*
X8460Y18113D01*
X8460Y18113D01*
X8458Y18112D01*
X8456Y18111D01*
X8456Y18110D01*
X8456Y18110D01*
X8426Y18093D01*
X8426Y18093D01*
X8426Y18093D01*
X8424Y18092D01*
X8422Y18091D01*
X8422Y18091D01*
X8422Y18091D01*
X8389Y18079D01*
X8389Y18079D01*
X8389Y18079D01*
X8387Y18078D01*
X8385Y18078D01*
X8385Y18078D01*
X8384Y18078D01*
X8368Y18074D01*
X8368D01*
X8361Y18073D01*
X8359Y18073D01*
X8357Y18073D01*
X8357Y18073D01*
X8356Y18073D01*
X8355Y18073D01*
X8353Y18073D01*
X8352Y18073D01*
X8352Y18073D01*
X8350Y18073D01*
X8348Y18074D01*
X8335Y18077D01*
X8334Y18078D01*
X8332Y18078D01*
X8331Y18079D01*
X8331Y18079D01*
X8329Y18080D01*
X8328Y18080D01*
X8327Y18081D01*
X8327Y18081D01*
X8325Y18082D01*
X8324Y18083D01*
X8313Y18092D01*
X8312Y18093D01*
X8311Y18094D01*
X8311Y18095D01*
X8310Y18095D01*
X8309Y18096D01*
X8308Y18098D01*
X8308Y18098D01*
X8307Y18099D01*
X8307Y18100D01*
X8306Y18102D01*
X8300Y18114D01*
X8299Y18116D01*
X8299Y18117D01*
X8298Y18118D01*
X8298Y18118D01*
X8298Y18120D01*
X8298Y18122D01*
X8297Y18122D01*
X8297Y18123D01*
X8297Y18125D01*
X8297Y18127D01*
X8297Y18133D01*
X8297Y18133D01*
X8297Y18461D01*
X8297Y18468D01*
X8297Y18470D01*
X8297Y18472D01*
X8297Y18472D01*
X8298Y18473D01*
X8298Y18474D01*
X8298Y18476D01*
X8298Y18477D01*
X8299Y18477D01*
X8299Y18479D01*
X8300Y18481D01*
X8306Y18493D01*
X8307Y18494D01*
X8307Y18496D01*
X8308Y18496D01*
X8308Y18497D01*
X8309Y18498D01*
X8310Y18500D01*
X8311Y18500D01*
X8311Y18500D01*
X8312Y18502D01*
X8313Y18503D01*
X8324Y18511D01*
X8325Y18512D01*
X8327Y18514D01*
X8327Y18514D01*
X8328Y18514D01*
X8329Y18515D01*
X8331Y18516D01*
X8331Y18516D01*
X8332Y18516D01*
X8333Y18517D01*
X8335Y18517D01*
X8348Y18521D01*
X8350Y18521D01*
X8352Y18521D01*
X8352Y18521D01*
X8353Y18522D01*
X8355Y18522D01*
X8356Y18522D01*
X8357Y18522D01*
D02*
G37*
G36*
X8890Y18522D02*
X8891Y18522D01*
X8892Y18521D01*
X8892Y18521D01*
X8894Y18521D01*
X8896Y18521D01*
X8909Y18517D01*
X8911Y18517D01*
X8912Y18516D01*
X8913Y18516D01*
X8913Y18516D01*
X8915Y18515D01*
X8917Y18514D01*
X8917Y18514D01*
X8917Y18514D01*
X8919Y18512D01*
X8920Y18511D01*
X8931Y18503D01*
X8932Y18502D01*
X8933Y18500D01*
X8934Y18500D01*
X8934Y18500D01*
X8935Y18498D01*
X8936Y18497D01*
X8936Y18496D01*
X8937Y18496D01*
X8938Y18494D01*
X8938Y18493D01*
X8944Y18481D01*
X8945Y18479D01*
X8945Y18477D01*
X8946Y18477D01*
X8946Y18476D01*
X8946Y18474D01*
X8947Y18473D01*
X8947Y18472D01*
X8947Y18472D01*
X8947Y18470D01*
X8947Y18468D01*
X8947Y18461D01*
X8947Y18461D01*
Y18461D01*
X8947Y18133D01*
X8947Y18127D01*
X8947Y18125D01*
X8947Y18123D01*
X8947Y18122D01*
X8947Y18122D01*
X8946Y18120D01*
X8946Y18118D01*
X8946Y18118D01*
X8945Y18117D01*
X8945Y18116D01*
X8944Y18114D01*
X8938Y18102D01*
X8938Y18100D01*
X8937Y18099D01*
X8936Y18098D01*
X8936Y18098D01*
X8935Y18096D01*
X8934Y18095D01*
X8934Y18095D01*
X8933Y18094D01*
X8932Y18093D01*
X8931Y18092D01*
X8920Y18083D01*
X8919Y18082D01*
X8917Y18081D01*
X8917Y18081D01*
X8917Y18080D01*
X8915Y18080D01*
X8913Y18079D01*
X8913Y18079D01*
X8912Y18078D01*
X8911Y18078D01*
X8909Y18077D01*
X8896Y18074D01*
X8894Y18073D01*
X8892Y18073D01*
X8892Y18073D01*
X8891Y18073D01*
X8890Y18073D01*
X8888Y18073D01*
X8887Y18073D01*
X8887Y18073D01*
X8885Y18073D01*
X8883Y18073D01*
X8877Y18074D01*
X8876Y18074D01*
X8860Y18078D01*
X8859Y18078D01*
X8859Y18078D01*
X8857Y18078D01*
X8855Y18079D01*
X8855Y18079D01*
X8855Y18079D01*
X8823Y18091D01*
X8822Y18091D01*
X8822Y18091D01*
X8820Y18092D01*
X8818Y18093D01*
X8818Y18093D01*
X8818Y18093D01*
X8788Y18110D01*
X8788Y18110D01*
X8788Y18111D01*
X8786Y18112D01*
X8784Y18113D01*
X8784Y18113D01*
X8784Y18113D01*
X8758Y18135D01*
X8758Y18136D01*
X8758Y18136D01*
X8756Y18137D01*
X8755Y18139D01*
X8754Y18139D01*
X8754Y18139D01*
X8732Y18165D01*
X8732Y18166D01*
X8732Y18166D01*
X8731Y18168D01*
X8730Y18169D01*
X8730Y18169D01*
X8729Y18170D01*
X8712Y18199D01*
X8712Y18200D01*
X8712Y18200D01*
X8711Y18202D01*
X8710Y18204D01*
X8710Y18204D01*
X8710Y18204D01*
X8699Y18236D01*
X8698Y18237D01*
X8698Y18237D01*
X8698Y18239D01*
X8697Y18241D01*
X8697Y18241D01*
X8697Y18241D01*
X8691Y18275D01*
X8691Y18275D01*
X8691Y18275D01*
X8691Y18278D01*
X8691Y18280D01*
X8691Y18280D01*
X8691Y18280D01*
X8691Y18297D01*
X8691Y18314D01*
X8691Y18315D01*
X8691Y18315D01*
X8691Y18317D01*
X8691Y18319D01*
X8691Y18319D01*
X8691Y18319D01*
X8697Y18353D01*
X8697Y18354D01*
X8697Y18354D01*
X8698Y18356D01*
X8698Y18358D01*
X8698Y18358D01*
X8699Y18358D01*
X8710Y18390D01*
X8710Y18391D01*
X8710Y18391D01*
X8711Y18393D01*
X8712Y18395D01*
X8712Y18395D01*
X8712Y18395D01*
X8729Y18425D01*
X8730Y18425D01*
X8730Y18425D01*
X8731Y18427D01*
X8732Y18429D01*
X8732Y18429D01*
X8732Y18429D01*
X8754Y18455D01*
X8754Y18456D01*
X8755Y18456D01*
X8756Y18457D01*
X8758Y18459D01*
X8758Y18459D01*
X8758Y18459D01*
X8784Y18481D01*
X8784Y18481D01*
X8784Y18481D01*
X8786Y18483D01*
X8788Y18484D01*
X8788Y18484D01*
X8788Y18484D01*
X8818Y18501D01*
X8818Y18502D01*
X8818Y18502D01*
X8820Y18503D01*
X8822Y18503D01*
X8822Y18504D01*
X8823Y18504D01*
X8855Y18516D01*
X8855Y18516D01*
X8855Y18516D01*
X8857Y18516D01*
X8859Y18517D01*
X8859Y18517D01*
X8860Y18517D01*
X8876Y18520D01*
X8876D01*
X8883Y18521D01*
X8885Y18521D01*
X8887Y18522D01*
X8887Y18522D01*
X8888Y18522D01*
X8890Y18522D01*
D02*
G37*
G36*
X9026Y18522D02*
X9027Y18522D01*
X9028Y18521D01*
X9030Y18521D01*
X9037Y18520D01*
X9037Y18520D01*
X9054Y18517D01*
X9054Y18517D01*
X9054Y18517D01*
X9056Y18516D01*
X9058Y18516D01*
X9058Y18516D01*
X9059Y18516D01*
X9091Y18504D01*
X9091Y18504D01*
X9091Y18503D01*
X9093Y18503D01*
X9095Y18502D01*
X9095Y18502D01*
X9096Y18501D01*
X9125Y18484D01*
X9125Y18484D01*
X9126Y18484D01*
X9127Y18483D01*
X9129Y18482D01*
X9129Y18481D01*
X9129Y18481D01*
X9155Y18459D01*
X9156Y18459D01*
X9156Y18459D01*
X9157Y18457D01*
X9159Y18456D01*
X9159Y18456D01*
X9159Y18455D01*
X9181Y18429D01*
X9181Y18429D01*
X9181Y18429D01*
X9183Y18427D01*
X9184Y18425D01*
X9184Y18425D01*
X9184Y18425D01*
X9201Y18395D01*
X9201Y18395D01*
X9201Y18395D01*
X9202Y18393D01*
X9203Y18391D01*
X9203Y18391D01*
X9203Y18390D01*
X9215Y18358D01*
X9215Y18358D01*
X9215Y18358D01*
X9216Y18356D01*
X9216Y18354D01*
X9216Y18354D01*
X9216Y18353D01*
X9222Y18319D01*
X9222Y18319D01*
X9222Y18319D01*
X9222Y18317D01*
X9223Y18315D01*
X9223Y18315D01*
X9223Y18314D01*
X9223Y18297D01*
X9223Y18280D01*
X9223Y18280D01*
X9223Y18280D01*
X9222Y18278D01*
X9222Y18275D01*
X9222Y18275D01*
X9222Y18275D01*
X9216Y18241D01*
X9216Y18241D01*
X9216Y18241D01*
X9216Y18239D01*
X9215Y18237D01*
X9215Y18237D01*
X9215Y18236D01*
X9203Y18204D01*
X9203Y18204D01*
X9203Y18204D01*
X9202Y18202D01*
X9201Y18200D01*
X9201Y18200D01*
X9201Y18199D01*
X9184Y18170D01*
X9184Y18169D01*
X9184Y18169D01*
X9182Y18168D01*
X9181Y18166D01*
X9181Y18166D01*
X9181Y18165D01*
X9159Y18139D01*
X9159Y18139D01*
X9159Y18139D01*
X9157Y18137D01*
X9156Y18136D01*
X9156Y18136D01*
X9155Y18135D01*
X9129Y18113D01*
X9129Y18113D01*
X9129Y18113D01*
X9127Y18112D01*
X9126Y18111D01*
X9125Y18110D01*
X9125Y18110D01*
X9096Y18093D01*
X9095Y18093D01*
X9095Y18093D01*
X9093Y18092D01*
X9091Y18091D01*
X9091Y18091D01*
X9091Y18091D01*
X9059Y18079D01*
X9058Y18079D01*
X9058Y18079D01*
X9056Y18078D01*
X9054Y18078D01*
X9054Y18078D01*
X9054Y18078D01*
X9037Y18074D01*
X9037D01*
X9030Y18073D01*
X9028Y18073D01*
X9027Y18073D01*
X9026Y18073D01*
X9026Y18073D01*
X9024Y18073D01*
X9022Y18073D01*
X9022Y18073D01*
X9021Y18073D01*
X9019Y18073D01*
X9017Y18074D01*
X9005Y18077D01*
X9003Y18078D01*
X9001Y18078D01*
X9001Y18079D01*
X9000Y18079D01*
X8999Y18080D01*
X8997Y18080D01*
X8996Y18081D01*
X8996Y18081D01*
X8995Y18082D01*
X8993Y18083D01*
X8983Y18092D01*
X8981Y18093D01*
X8980Y18094D01*
X8980Y18095D01*
X8979Y18095D01*
X8978Y18096D01*
X8977Y18098D01*
X8977Y18098D01*
X8977Y18099D01*
X8976Y18100D01*
X8975Y18102D01*
X8969Y18114D01*
X8969Y18116D01*
X8968Y18117D01*
X8968Y18118D01*
X8968Y18118D01*
X8967Y18120D01*
X8967Y18122D01*
X8967Y18122D01*
X8967Y18123D01*
X8967Y18125D01*
X8966Y18127D01*
X8966Y18133D01*
X8966Y18133D01*
X8966Y18461D01*
X8966Y18468D01*
X8967Y18470D01*
X8967Y18472D01*
X8967Y18472D01*
X8967Y18473D01*
X8967Y18474D01*
X8968Y18476D01*
X8968Y18477D01*
X8968Y18477D01*
X8969Y18479D01*
X8969Y18481D01*
X8975Y18493D01*
X8976Y18494D01*
X8977Y18496D01*
X8977Y18496D01*
X8977Y18497D01*
X8978Y18498D01*
X8979Y18500D01*
X8980Y18500D01*
X8980Y18500D01*
X8981Y18502D01*
X8983Y18503D01*
X8993Y18511D01*
X8995Y18512D01*
X8996Y18514D01*
X8996Y18514D01*
X8997Y18514D01*
X8999Y18515D01*
X9000Y18516D01*
X9001Y18516D01*
X9001Y18516D01*
X9003Y18517D01*
X9005Y18517D01*
X9017Y18521D01*
X9019Y18521D01*
X9021Y18521D01*
X9022Y18521D01*
X9022Y18522D01*
X9024Y18522D01*
X9026Y18522D01*
X9026Y18522D01*
D02*
G37*
D68*
X9112Y18297D02*
G03*
X9112Y18297I-116J0D01*
G01*
X9033D02*
G03*
X9033Y18297I-116J0D01*
G01*
X8364D02*
G03*
X8364Y18297I-116J0D01*
G01*
X8443D02*
G03*
X8443Y18297I-116J0D01*
G01*
X11538Y13780D02*
G03*
X11538Y13780I-110J0D01*
G01*
X11991Y14065D02*
G03*
X11991Y14065I-110J0D01*
G01*
D74*
X14636Y14429D02*
D03*
Y14587D02*
D03*
Y14744D02*
D03*
Y14902D02*
D03*
X13986D02*
D03*
X13986Y14744D02*
D03*
Y14587D02*
D03*
Y14429D02*
D03*
D75*
X14075Y14183D02*
D03*
X14232D02*
D03*
X14390D02*
D03*
X14547D02*
D03*
Y15148D02*
D03*
X14390D02*
D03*
X14232D02*
D03*
X14075D02*
D03*
D76*
X13854Y13720D02*
D03*
X14079D02*
D03*
D77*
X6750Y13148D02*
D03*
X5750Y13148D02*
D03*
X7750Y13148D02*
D03*
D82*
X13382Y17160D02*
D03*
X13606D02*
D03*
X13382Y16476D02*
D03*
X13606D02*
D03*
X13382Y18110D02*
D03*
X13606D02*
D03*
X4356Y6732D02*
D03*
X4581D02*
D03*
X4826D02*
D03*
X5051D02*
D03*
X10587Y16978D02*
D03*
X10811D02*
D03*
X11226D02*
D03*
X11451D02*
D03*
X13272Y13415D02*
D03*
X13047D02*
D03*
X13272Y13159D02*
D03*
X13047D02*
D03*
X11362Y17667D02*
D03*
X11138D02*
D03*
X10823Y18671D02*
D03*
X11047Y18671D02*
D03*
X4051Y12943D02*
D03*
X4276D02*
D03*
X949Y9862D02*
D03*
X724D02*
D03*
X724Y9577D02*
D03*
X949D02*
D03*
X13272Y12904D02*
D03*
X13047D02*
D03*
X15959Y19296D02*
D03*
X15734D02*
D03*
X15299D02*
D03*
X15075D02*
D03*
X6362Y15620D02*
D03*
X6138D02*
D03*
X3106Y12844D02*
D03*
X3331D02*
D03*
X3116Y11358D02*
D03*
X3341D02*
D03*
X11226Y17215D02*
D03*
X11451D02*
D03*
D88*
X8730Y15079D02*
D03*
X8199D02*
D03*
X7530Y16713D02*
D03*
X6998D02*
D03*
X9104Y16535D02*
D03*
X9636Y16535D02*
D03*
X8809Y15610D02*
D03*
X9341D02*
D03*
X8789Y16083D02*
D03*
X8258D02*
D03*
X7530Y17165D02*
D03*
X6998D02*
D03*
X7530Y16260D02*
D03*
X6998Y16260D02*
D03*
D91*
X4055Y13819D02*
D03*
Y13287D02*
D03*
D92*
X6585Y14862D02*
D03*
X6585Y15256D02*
D03*
D93*
X5522Y15049D02*
D03*
X5128Y15049D02*
D03*
X10748Y17257D02*
D03*
X10354D02*
D03*
D95*
X12707Y15929D02*
D03*
Y15705D02*
D03*
X12274Y15004D02*
D03*
Y14780D02*
D03*
X9961Y12486D02*
D03*
X9961Y12711D02*
D03*
X9685Y12711D02*
D03*
Y12486D02*
D03*
X8652Y8459D02*
D03*
Y8234D02*
D03*
X2402Y19770D02*
D03*
Y19994D02*
D03*
X1575Y19994D02*
D03*
Y19770D02*
D03*
X8209Y17809D02*
D03*
Y17585D02*
D03*
X3219Y11028D02*
D03*
Y10803D02*
D03*
X4203Y11028D02*
D03*
Y10803D02*
D03*
X8809Y17673D02*
D03*
Y17898D02*
D03*
X9331Y11313D02*
D03*
Y11089D02*
D03*
X12136Y17720D02*
D03*
Y17496D02*
D03*
X8425Y8234D02*
D03*
Y8459D02*
D03*
X7480Y17809D02*
D03*
Y17585D02*
D03*
D102*
X9134Y14547D02*
D03*
X8976D02*
D03*
X9134Y14390D02*
D03*
X8976D02*
D03*
D107*
X11304Y13780D02*
D03*
X11550D02*
D03*
X11757Y14065D02*
D03*
X12003D02*
D03*
D122*
X6750Y12148D02*
D03*
X5750Y12148D02*
D03*
X7750Y12148D02*
D03*
D123*
X19921Y5433D02*
D03*
D124*
X925Y15610D02*
D03*
Y18287D02*
D03*
D125*
X3209Y18839D02*
D03*
Y15059D02*
D03*
D126*
X1988Y10807D02*
D03*
D127*
X2274Y13689D02*
D03*
Y10287D02*
D03*
D128*
X768D02*
D03*
Y13689D02*
D03*
D129*
X1988Y13169D02*
D03*
D130*
X937Y4549D02*
D03*
Y3049D02*
D03*
D131*
X19094Y1772D02*
D03*
X12795Y19094D02*
D03*
X1772Y1772D02*
D03*
D211*
X8957Y18297D02*
D03*
X8287Y18297D02*
D03*
D212*
X11215Y16630D02*
D03*
X11018D02*
D03*
X10821D02*
D03*
Y15626D02*
D03*
X11018D02*
D03*
X11215D02*
D03*
X4331Y6181D02*
D03*
X5118D02*
D03*
X4921D02*
D03*
X4724D02*
D03*
X4528D02*
D03*
D213*
X10511Y16522D02*
D03*
Y16325D02*
D03*
Y16128D02*
D03*
Y15931D02*
D03*
X11525Y15734D02*
D03*
Y15931D02*
D03*
Y16128D02*
D03*
Y16325D02*
D03*
Y16522D02*
D03*
D214*
X10511Y15734D02*
D03*
D215*
X787Y20079D02*
D03*
Y787D02*
D03*
X20079Y20079D02*
D03*
D216*
X5472Y5276D02*
D03*
X3976D02*
D03*
D217*
X6939Y18232D02*
D03*
Y20279D02*
D03*
X571Y6949D02*
D03*
Y9154D02*
D03*
D218*
X5413Y19255D02*
D03*
Y19649D02*
D03*
Y18861D02*
D03*
X2096Y8248D02*
D03*
Y8642D02*
D03*
Y7461D02*
D03*
Y7854D02*
D03*
D219*
X12411Y16476D02*
D03*
Y16732D02*
D03*
Y16988D02*
D03*
X13140Y16476D02*
D03*
Y16732D02*
D03*
Y16988D02*
D03*
X12411Y17441D02*
D03*
Y17697D02*
D03*
Y17953D02*
D03*
X13140Y17441D02*
D03*
Y17697D02*
D03*
Y17953D02*
D03*
D220*
X12776Y16526D02*
D03*
Y16939D02*
D03*
X12776Y17490D02*
D03*
Y17904D02*
D03*
D221*
X8780Y9989D02*
D03*
Y11389D02*
D03*
D222*
X8051Y8238D02*
D03*
X8228D02*
D03*
D223*
X8140Y8514D02*
D03*
D224*
X11368Y10994D02*
D03*
Y7569D02*
D03*
D225*
X1841Y19941D02*
D03*
Y19764D02*
D03*
D226*
X2116Y19852D02*
D03*
D227*
X11811Y13258D02*
D03*
X10236D02*
D03*
X11024D02*
D03*
D228*
X8681Y17224D02*
D03*
X8524D02*
D03*
X8366D02*
D03*
X8209D02*
D03*
X8051Y17224D02*
D03*
X8681Y17067D02*
D03*
X8524D02*
D03*
X8366D02*
D03*
X8209D02*
D03*
X8051D02*
D03*
X8681Y16909D02*
D03*
X8524Y16909D02*
D03*
X8366D02*
D03*
X8209D02*
D03*
X8051D02*
D03*
X8681Y16752D02*
D03*
X8524D02*
D03*
X8366D02*
D03*
X8209D02*
D03*
X8051D02*
D03*
X8681Y16594D02*
D03*
X8524D02*
D03*
X8366D02*
D03*
X8209D02*
D03*
X8051D02*
D03*
D229*
X5803Y15118D02*
D03*
Y14862D02*
D03*
X6224D02*
D03*
Y15118D02*
D03*
D230*
X6014Y14990D02*
D03*
D231*
X11049Y17936D02*
D03*
Y18381D02*
D03*
X11161Y18270D02*
D03*
X11272Y17936D02*
D03*
X11272Y18158D02*
D03*
Y18381D02*
D03*
X11161Y18047D02*
D03*
X10938D02*
D03*
Y18270D02*
D03*
X10826Y17936D02*
D03*
X10826Y18158D02*
D03*
Y18381D02*
D03*
D232*
X13297Y14513D02*
D03*
X13100D02*
D03*
X12904D02*
D03*
X12707D02*
D03*
Y15428D02*
D03*
X12904D02*
D03*
X13100D02*
D03*
X13297D02*
D03*
D233*
X12643Y14774D02*
D03*
X12643Y14970D02*
D03*
X12643Y15167D02*
D03*
X13361D02*
D03*
X13361Y14970D02*
D03*
X13361Y14774D02*
D03*
D234*
X3976Y11722D02*
D03*
D235*
X3307D02*
D03*
X3307Y12530D02*
D03*
X4055D02*
D03*
D236*
X3514Y11063D02*
D03*
X3888D02*
D03*
D237*
X1594Y17185D02*
D03*
X4823Y17028D02*
D03*
X1594Y15610D02*
D03*
X4823Y15453D02*
D03*
X1594Y15925D02*
D03*
X4823Y15768D02*
D03*
X1594Y16240D02*
D03*
X4823Y16083D02*
D03*
X1594Y16555D02*
D03*
X4823Y16398D02*
D03*
X1594Y16870D02*
D03*
X4823Y16713D02*
D03*
Y17343D02*
D03*
X1594Y17500D02*
D03*
X4823Y17657D02*
D03*
X1594Y17815D02*
D03*
Y18130D02*
D03*
Y18445D02*
D03*
X4823Y17972D02*
D03*
Y18287D02*
D03*
D238*
X768Y12539D02*
D03*
Y11437D02*
D03*
D239*
X2421Y11299D02*
D03*
Y11496D02*
D03*
D240*
Y11063D02*
D03*
Y10768D02*
D03*
Y12913D02*
D03*
Y13209D02*
D03*
D241*
Y11693D02*
D03*
Y11890D02*
D03*
Y12087D02*
D03*
Y12283D02*
D03*
Y12480D02*
D03*
Y12677D02*
D03*
D242*
X2037Y4799D02*
D03*
Y3799D02*
D03*
Y3299D02*
D03*
Y2799D02*
D03*
X3238Y4799D02*
D03*
Y4299D02*
D03*
Y3799D02*
D03*
Y3299D02*
D03*
Y2799D02*
D03*
X2037Y4299D02*
D03*
D243*
X15925Y20556D02*
D03*
X15610Y20556D02*
D03*
X15295D02*
D03*
X14980Y20556D02*
D03*
Y19611D02*
D03*
X15295D02*
D03*
X15610D02*
D03*
X15925D02*
D03*
M02*
