M48
;Layer_Color=9474304
;FILE_FORMAT=2:4
INCH,TZ
;TYPE=PLATED
T1F00S00C0.0120
T2F00S00C0.0354
;TYPE=NON_PLATED
T3F00S00C0.0701
%
T01
X-4107Y-18359
X-3517Y-17901
X-3013Y-17832
X-2513Y-17838
X-2156Y-18429
X-2513Y-19075
X-3017
X-17
X483
X982
X1398Y-18425
X1890Y-17901
X1900Y-16841
X1210Y-16216
X1634Y-15768
X1949Y-15295
X-94Y-14947
X-1107Y-15359
X-732Y-16109
X-1482
X-2232
X-2607Y-15359
X-4107
X-4163Y-16968
X-3266Y-16269
X-1329Y-17677
X-1017Y-17424
X-517
X-17
X483
X982
X-319Y-13966
X-1107Y-13859
X-1857
X-2607
X-2232Y-13109
X-1482
X-824Y-12871
X-502Y-12343
X-1482Y-11609
X-1417Y-11250
X-1022Y-11033
X-1240Y-10758
X-1022Y-9307
X-1260Y-8553
X75Y-8307
X-3002Y-8622
X-3732Y-8609
X-3357Y-7859
X-4107
X-3732Y-7109
X-3357Y-6359
X-2607
X-1988Y-5738
X-1857Y-4859
X-1087Y-4919
X-1014Y-4628
X-1482Y-4109
X-1107Y-3359
X-1857
X-1482Y-2609
X1555Y-2746
X1557Y-2077
X1939Y-3228
X1556Y-3643
X1949Y-4154
X1535Y-4616
X1939Y-5098
X-4107Y-6359
Y-9359
X-3357
X-3002Y-10118
X-3732Y-10109
X-3357Y-10859
X-4107
X-3732Y-11609
X-4107Y-12359
X-2607
X-2982Y-13109
Y-14609
X-4107Y-13859
T02
X1210Y-15792
Y-14792
Y-13792
Y-12792
Y-11792
Y-10792
Y-9792
Y-8792
Y-7792
Y-6792
T03
X-1917Y-14922
Y-12363
Y-9804
Y-7245
M30
