M48
;Layer_Color=9474304
;FILE_FORMAT=2:4
INCH,TZ
;TYPE=PLATED
T1F00S00C0.0039
;TYPE=NON_PLATED
%
T01
X6339Y1043
X6993Y1293
X8671Y1313
X8671Y813
X8632Y3425
X8790
X8947
X9104
X9262
X9419
X9577Y3425
X9734Y3425
X9892
X10049
X10207
X10364
X8475
X8317
X8160
Y3583
Y3740
Y3898
Y4055
X8160Y4213
X8160Y4370
Y4685
Y4843
X9104Y5630
X9262
X9419
X9577Y5630
X9734Y5630
X9892
X9341Y5788
X10433Y6762
X10266Y7195
X10256Y7579
X10330Y8278
X9705Y7854
X8622Y7598
X8848Y8898
X8346Y9193
X7953Y9213
X8022Y8868
X7687Y8858
X7333Y8829
X7136Y9045
X7146Y9380
X6929Y9291
Y8799
Y8031
X5994Y8071
Y7756
Y7254
X6348Y7451
X5630Y7520
Y8051
Y8573
X5994Y8543
X5984Y9085
X5630Y9104
Y9626
X5984Y9616
Y10148
X5638Y10153
X5984Y10679
X6870Y10600
X6565Y10285
X6329Y9862
X6339Y9222
X6929Y9783
X7363Y9656
X7874Y9675
X8061Y10285
X8278Y10069
X8159Y10994
X8435Y11250
X7559Y11299
X7589Y10502
X7382Y10276
X9852Y9124
X10295Y9469
X11528Y8351
X11545Y7608
X11093Y7500
X12992Y8041
X13750
X13789Y8356
X13829Y8780
X13563Y9006
X13789Y9311
X14065Y9587
X13907Y9872
X12923Y9803
X13081Y9124
X14370Y8691
X14852Y8622
X15030Y8346
X15276Y8583
X15551Y8878
X15285Y9183
X14966Y9275
X14990Y9616
X14734Y10246
X15246Y10433
X15551Y10187
X12696Y4921
X5921Y4916
X6014Y4665
X6181Y4429
X6388Y4193
X5512Y4921
X5699Y5837
X5728Y6378
X5630Y6978
X6634Y6841
Y6388
X6378Y5807
X4331Y4921
X3474Y7362
X3337Y8671
X3396Y8996
X3770Y9213
X3591Y9626
X3396Y10059
Y10581
Y11112
X2067Y9961
Y9537
Y9203
X2234Y9055
X2510
X2854
X2530Y8041
X2087Y7736
Y7461
Y7096
X1427Y8602
X1225Y11083
X364Y10994
X390Y11201
X551Y12205
X295Y12361
X610Y12707
X768Y12700
X758Y12835
X1280Y12411
X1594Y14488
X1309Y15630
X1486Y16329
X1201Y16594
X993Y16457
X1014Y16949
X915Y17323
X1122Y17530
X1457Y17313
X1575Y18258
X1250Y18307
X256Y18317
Y16624
Y16289
X1706Y16555
X1939Y16732
X2195Y16821
X2224Y16358
X1919Y16201
X1969Y15718
X2500Y15728
X3149Y15610
X3494Y15768
X3858Y15413
X3927Y14852
X4178Y15089
X4744Y14837
X4744Y14518
X4508Y14252
X4154Y13967
X3907Y13691
X5089Y15059
X5344Y15305
X5679Y15217
X6201Y15305
X6181Y14724
X6585Y14755
X5758Y14606
X5157Y15906
X5148Y16280
X5157Y16535
X5138Y16742
X5148Y16959
X4892Y16634
X4902Y16230
X4508Y16407
X4459Y15876
X4793Y15591
X4734Y17402
X4478Y17362
X4488Y17726
X4803Y17746
X4921Y18228
X4518
X4114Y18671
X3809Y18661
X3868Y19488
X3071Y19331
X2736Y18957
X1900Y18514
X1990Y17820
X1742Y17569
X1949Y17224
X2884Y17559
X2904Y16860
X2717Y16555
X6250Y16801
X6289Y17057
X6429Y17254
X6831Y17234
X7234Y16949
X7303Y16683
X6988Y16673
X6998Y16211
X6270Y16309
X6427Y17864
X6073Y18780
X5827Y18711
X5787Y19291
X5413Y19301
X5394Y19636
X4764Y19104
X5404Y18268
X6437Y19301
X6988Y19203
X7256Y19030
X7470Y19911
X7028Y19902
X6683
X8258
X8701Y19911
X9409
X9774Y18563
X9793Y18199
X8888Y18258
X8770Y17835
X9193Y17785
X8125Y17411
Y16624
Y16112
X8041Y15187
X7795Y14902
X8258Y14636
X8917Y14803
X8927Y15315
X8947Y15837
X8981Y16486
X10532Y15256
X7323Y15315
X7884Y11673
X8219Y11988
X8514Y12274
X8701Y11565
X3396Y11634
X2047Y11841
X1890Y11772
X1880Y12254
X1890Y12864
X17281Y14613
X18031
X18781
X19531
X19906Y15363
X19156
X18406
X17656
X17281Y16113
X18031
X18781
X19531
X19906Y16863
X19156
X18406
X17656
M30
