M48
;Layer_Color=9474304
;FILE_FORMAT=2:4
INCH,TZ
;TYPE=PLATED
T1F00S00C0.0039
;TYPE=NON_PLATED
%
T01
X3681Y11339
X512Y11083
Y11811
Y12175
Y12894
X1545Y13189
X1526Y12431
X1309Y11614
X2776Y11988
X2913Y12480
X3321Y13030
X3524Y12953
X3799Y12963
X3789Y12569
X4882Y14331
X5669
X6171
X7864Y15079
X8366Y17067
X8524
X8209Y17809
X8209Y17963
X8809Y17898
X8996Y17904
X9272Y18553
X10630Y18189
X10620Y17933
X11159Y17837
X11427Y18041
X11942Y17589
X13278Y17441
X11171Y15945
X11437Y15502
X7480Y17809
M30
