M48
;Layer_Color=9474304
;FILE_FORMAT=2:4
INCH,TZ
;TYPE=PLATED
T2F00S00C0.0098
T4F00S00C0.0354
;TYPE=NON_PLATED
T5F00S00C0.0236
T7F00S00C0.0295
T8F00S00C0.0354
T9F00S00C0.0402
T10F00S00C0.0610
T11F00S00C0.1181
%
T02
X17560Y741
X17640Y1107
Y1481
Y1855
Y2229
X18081Y2343
X18071Y3110
X18406Y3363
X17638Y3593
X17563Y3947
X17310Y4223
X17352Y4724
X17751Y4723
X18041Y5010
X17746Y5305
X17539Y5463
X17281Y5613
X17656Y6363
X18406
X18159Y6014
X18781Y5613
X19226Y5827
X19246Y6260
X19862Y6713
X20295Y6939
X20620Y7028
Y7844
X19906Y7863
X19331Y7864
X18406Y7863
X17582Y7944
X17640Y8313
X17640Y8687
Y9061
Y9435
X18406Y9363
X19156
X19906
X20000Y9990
X19734
X19606Y10226
X19390Y10374
X19134
X18868
X18504Y10512
Y10787
Y11063
Y11339
X17640Y11243
X18022Y10738
Y9990
X20285Y9783
X20630Y9990
X20600Y9419
X20610Y8612
X20281Y8613
X19531
Y7113
X18781
X18031
X17418Y7607
X19226Y5181
X19439Y4675
X19906Y4863
X20301Y4886
X20669Y5217
X20630Y6220
X19944Y4262
X19906Y3363
X20600Y3376
X20281Y2613
X19531
X18781
Y4113
X18760Y4360
X18504Y1112
X18406Y363
X19156
X19906
X20620Y354
X20276Y1102
X19531Y1113
X19906Y1863
X20610Y1831
X17096Y1663
X16909Y2018
X17096Y2264
X16663Y2352
X16348Y2156
Y1880
Y1604
Y1329
Y1053
X16624
X16909Y1211
X17096Y1043
X17256Y523
X16882Y507
X16508
X16299Y187
X16152Y2372
X15886
X15620
X15354
X15098
X14833
X14567
X14360Y2156
Y1870
Y1575
Y1270
X13967Y1220
Y906
X13750Y571
X13967Y266
X13156Y363
X12406
X11656
X10906
X10156
X10217Y915
X10256Y1683
X10496Y1955
X10709Y2165
X11083Y2077
X11024Y2362
X11171Y2579
Y2825
X10925
X10581Y2707
X10325Y2701
X10069Y2293
X9498Y2205
X9498Y2451
X9498Y2701
X9046
X9045Y2953
X8553Y2701
Y2451
Y2205
X8889Y2293
X8957Y1742
X9547Y1654
X9400Y915
X9406Y363
X8278Y659
X7884
Y1053
Y1447
X7490
Y1053
Y659
Y1841
X7884Y1841
X8278
X8278Y1447
Y1053
X8198Y2701
X7362Y2598
X7185Y2421
Y2776
Y3130
X7205Y3410
X6988Y3278
X6781Y3425
X6781Y3674
Y3920
X7480Y3858
X7648Y3366
X7362Y2953
X6555Y3258
X6329Y3445
X5364Y3583
X5374Y4075
X5364Y4528
X4783Y4606
X4921Y4872
X4892Y3996
X4531Y4113
X4124Y4577
X3583Y5157
X2815Y5197
X2800Y4803
X2047Y5138
X1860Y5502
X2156Y6614
X2281Y7113
X2608Y7067
X2530Y7441
X2707Y8248
X2712Y8519
X3209Y8878
X4222Y8730
X4531Y8613
X4911Y8853
X5020Y9409
X5295Y9518
X4154Y9606
X4531Y10113
X4203Y10532
X3219
X3031Y10113
X2776Y10797
X2165Y9813
X2303Y9370
X3563Y7657
X3781Y7113
X3681Y6634
X4006Y6496
X4094Y6732
X4065Y6191
X4428Y5881
X4824
X5374Y6703
X5364Y7697
X5157Y7963
X4774Y7923
X4390Y7913
X4911Y7539
X5364Y8278
X6257Y8307
X6503
X6749
X6995
X7805Y8258
X7569Y7520
X7136Y7500
X6132Y7598
X6250Y6949
X6260Y6417
X6132Y5787
Y5359
X6388Y5522
X6959Y5325
X7205Y5502
X7461Y5797
X7687Y5167
X7205Y4921
Y4463
X7766Y4341
X8553Y4291
Y4764
Y5236
X9078
Y4764
Y4291
Y3819
X9603
Y4291
Y4764
Y5236
X10128
Y4764
Y4291
Y3819
X10876Y3445
X11161Y3661
X11398Y3760
X11634Y3858
X11703Y4331
X11486Y4478
X11919Y4488
X12269Y4409
X12104Y4129
X12087Y3484
X11742Y2913
Y2667
Y2421
X11752Y1703
X11122Y1752
X11171Y925
X12031Y1113
X12781
X13531
X13906Y1863
X13156
X13051Y3002
X12972Y3720
X13317Y4222
X13701Y3927
X14093Y3826
X14161Y3278
X14418Y3356
X14675Y3278
X15246Y3376
X15684Y3445
X15904Y3577
X16072Y3825
X15837Y3967
X15510Y3826
X15018Y4318
X14585
X14585Y4751
X15018
X15510Y5243
X15935Y5197
X15962Y5474
X15992Y5874
X15482Y5876
X15481Y6261
X15670Y6518
X15728Y7057
X16073
X16496
X16841Y7145
X17164Y7333
X16916Y7845
X17084Y8179
X17098Y8553
Y8927
Y9301
Y9675
X16780Y9570
X16713Y9990
Y10738
X17098Y11160
X16122Y11053
X15335Y11112
X15059Y10217
X15231Y10030
X14887
X15354Y9439
X16220Y8996
X16299Y8612
X15823Y8577
X15728Y7589
X16073
X16606Y7636
X15384Y7589
X15039
X14695
X14350
X13991Y7574
X13906Y7863
X14006Y8209
X14134Y8524
X14115Y8888
X13986Y10502
X13906Y10863
X13531Y10113
X12707Y10108
X12031Y10113
X11281
X11437Y10492
X12224Y10807
X13061Y11211
X12313Y8937
X11988Y9006
X11831Y8612
X11821Y7982
X12333Y8071
X12736Y7972
X12766Y8435
X12781Y7113
X13403Y7139
X13289Y6783
X13282Y6409
Y6035
Y5661
X13051Y5453
X12640Y5480
X12598Y5217
X12627Y4518
X13675Y5065
X13928Y5111
X14177Y5159
X13819Y5433
X13824Y5782
Y6157
Y6531
X14006Y7008
X14350Y7057
X14695
X15039
X15384
X16156Y6363
X16906
X16869Y5665
X16599Y5627
X16330Y5665
X16604Y5285
X17106Y5295
X16951Y4744
X16951Y4328
X16454Y4327
X16201Y4360
X16014Y4537
X16211Y4715
X16454Y4744
X16594Y3789
X16599Y3438
X16330Y3400
X16869
X16663Y3130
X15827Y3091
X17077Y3701
X17264Y5915
X14498Y5876
X14477Y5599
X14733Y5609
X14350Y6250
X13651Y7419
X12215Y6988
X12292Y6628
X11378Y6565
X11122Y6506
X11063Y6969
X11398Y7037
X11502Y6328
X11349Y5866
X11093
X10906Y5502
X11526Y5610
X11510Y5356
X11832Y5478
X10886Y4725
X11122Y4301
X10423Y6221
X10177Y6516
X9764Y7313
X9700Y7569
X8976Y8346
X8976Y8593
X8652Y8656
X8415Y8858
X8696Y9390
X8287Y9715
X8317Y10522
X7953Y10620
X8656Y10863
X8730Y10374
X9596Y10769
X9360Y9045
X10617Y8944
X10601Y9288
X10763Y9473
X8612Y6910
X8140Y7353
X7884Y6614
X7136Y6339
X8927Y6290
X8553Y3819
X6389Y4742
X6211Y4911
X5364Y2982
X4793
X4531Y2613
X4906Y1863
X5656
X5719Y2470
X6348Y2047
X6801Y2254
X6053Y876
X5541Y659
X5069Y620
X3356Y640
X3031Y1113
X3781
X3406Y1863
X3474Y2470
X2618Y2362
X2677Y2785
X2656Y1863
X2281Y1113
X2656Y363
X1906
X6565Y236
X6250Y9026
X6166Y10394
X6406Y10863
X6850Y10925
X5821Y11062
X5571Y10768
X2667Y6427
X2982Y5797
X13799Y3317
X1501Y3307
X1467Y3799
X1521Y4798
X1531Y5613
X781
X406Y6363
Y7863
X1398Y7854
X781Y8613
X1132Y9114
X1171Y9577
Y9862
X1063Y10650
X1014Y11093
X325Y10650
X305Y9675
X406Y4863
X781Y2613
X406Y1863
X1255Y11842
Y12095
X1093Y13012
X1122Y13346
X321Y13376
X361Y14134
X610Y14242
X866Y14232
X509Y14685
X502Y14931
X837Y15246
X1260Y15295
X876Y16240
Y16673
X591Y17549
X276Y17490
X995Y17840
X295Y18543
X246Y19429
X728Y19065
X1594Y19242
X1654Y18878
X1427Y20374
X217Y20659
X2234Y20610
X1841Y20148
X1900Y19439
X2707Y20226
X2992Y20384
X4213Y20364
X4567Y20394
X4892Y20384
X5502Y20413
X5404Y19936
X5827Y19656
X6102Y19291
X4855Y19318
X4970Y19646
X4882Y18612
X4488Y18602
X5315Y18543
X5374Y17972
Y17657
Y17343
Y17028
Y16713
Y16398
Y16083
Y15768
X6102Y15846
X6358Y15866
X6112Y16112
X6654Y16260
X6663Y16732
X6663Y17156
X6102Y17126
X5856Y17106
X4134Y17096
X3799Y17283
X3366Y17028
X3396Y16329
X3671Y16407
X3799Y16181
X3802Y15866
X4301Y15443
X4551Y15234
X5886Y15335
X6604Y15532
X6860Y15399
X6879Y14694
X6762Y14409
X7352Y14193
X7421Y14774
X7402Y15709
X7687Y15728
X7963
X8258
X8209Y15463
X7146Y15866
X7854Y16909
X7707Y17569
X7944Y17815
X7904Y18199
X7851Y18546
X7874Y19055
X7362Y18809
X7106Y18770
X7490Y18179
X7362Y19665
X7500Y20348
X8500
X8455Y19724
X9665
X9821Y20108
X9618Y20348
X10500Y20388
X11540Y20408
X12008Y20492
X12894Y20433
X13957Y20561
X13906Y19863
X14946Y19856
X14980Y20314
X15295Y20314
X15535Y19886
X15516Y19316
X15463Y18760
X15187
X15157Y19035
X14843Y18809
X14856Y19299
X14075Y18691
X13593
X13346Y17884
X13612Y17510
X13386Y16939
X12785Y17215
X12421Y17244
X12510Y16230
X12323Y15876
X12392Y15256
X12037Y14961
X11959Y14596
X12238Y14226
X12624Y14114
X13156Y13863
X13465Y13770
X13425Y14232
X13637Y14587
X13091Y14774
X13002Y15097
X13524Y15330
X13632Y15876
X13100
Y16230
X14331Y16472
X14508Y16841
X14429Y17156
X15118
X15406Y16863
X16156
X16906
X16531Y17613
X16112Y17943
X15984Y18179
X15781Y17613
X15128Y17854
X14094Y17884
X14230Y15413
X14359Y14866
X14311Y14449
X14744Y14104
X14321Y13671
Y13415
Y13159
Y12904
X14321Y12657
X14291Y12106
X14587Y11811
X14656Y12363
X14744Y12825
X15364Y12608
X15406Y12363
X15354Y11831
X16102Y11821
X16156Y12363
X16102Y12608
X16531Y13113
X17134Y13028
X17098Y12656
X17098Y12282
X17098Y11908
X17098Y11534
X16531Y11613
X16122Y13533
X16260Y13907
X16486Y14094
X16531Y14613
X16240Y14537
X16526Y15030
X16053Y15364
X16906Y15481
X16531Y16113
X15781
X14754Y15098
X15406Y13863
X15433Y13474
X16906Y13863
X13937Y12431
X13396Y12569
X13425Y11919
X13531Y11613
X12618Y12579
X12785Y12854
X12047Y12608
X11722Y12904
X11329Y13425
X10935Y13711
X10792Y14060
X10502Y13996
X10620Y14252
X10039Y14006
X9163Y14154
X8519Y14232
X8415Y13976
X7992Y13986
X8415Y13346
Y12687
X7738Y12638
X7303Y13110
X6813Y12628
X6734Y11673
X5730Y11683
X5281Y11613
X5069Y11388
X5295Y12146
X4906Y12363
X4754Y12835
X4764Y13543
X5453Y13652
X5656Y13863
X5148Y13967
X5453Y14282
X6033Y14173
X6870Y13652
X3701Y13612
X3593Y14026
X3406Y13863
X3150Y14085
X2805Y13829
X2776Y13209
X2923Y12992
X2085Y12382
X2077Y12106
X2067Y11585
X3543Y12126
X3819
X3947Y11398
X3883Y14134
X3858Y14429
X2766Y15335
X1988Y15315
X1939Y14213
X2451Y16171
X2904Y16240
X2736Y18041
X2815Y18445
X3071Y18346
X3799Y18307
Y17992
X3593Y17776
X4163Y17795
X4121Y19219
X3602Y19232
X6348Y20374
X9055Y19055
X9781Y19113
X10453Y19154
X11850Y19163
X11604Y18356
X11348Y18593
X11142Y17500
X10822Y17726
X10256Y17539
X10236Y16978
X10179Y16545
Y16289
X10177Y15965
X9360Y16043
X9341Y17067
X9021Y17067
X9055Y17559
X8799Y17549
X9341Y17421
X9350Y18307
X11024Y17067
X11043Y16289
X11181Y15285
X10935Y15197
X9941Y15256
X9941Y15010
X9695Y15010
X9163Y12726
X9016Y11841
X9400Y11663
X9882Y12096
X10039Y12313
X11412Y11614
X11622Y11742
X11585Y11417
X12283Y13632
X17047Y19242
X17077Y20610
X16138Y20554
X17992Y20610
X18907Y20630
X19156Y19863
X18406
X17656
X17904Y19252
X18031Y17613
X18781
X19531
X19557Y18337
X19567Y18711
X19911Y18701
X20246
X20610Y18691
X20581Y19439
X20620Y20650
X19567Y19114
X20443Y17933
X20281Y17613
Y16113
Y14613
X20025Y13485
X19665Y13588
X19180Y13588
X18806
X18245Y13585
X17641Y13547
X17322Y13351
X17859Y13042
X18051Y12874
X18386Y12884
X18730Y12878
X19036Y13046
X19410
X19779Y12985
X19818Y12613
X19823Y12362
X19498Y12372
X19242
X18986
X18730
X18504Y12165
Y11890
Y11614
X18031Y11613
X17640Y11617
X17640Y11991
X17640Y12365
X17640Y12739
X20360Y12846
Y12472
X20679Y12333
X20279Y13211
X17281Y17613
T04
X5750Y12148
Y13148
X6750Y13148
Y12148
X7750Y12148
Y13148
T05
X1988Y10807
T07
X19921Y5433
T08
X925Y15610
Y18287
T09
X937Y3049
Y4549
T10
X3209Y15059
Y18839
T11
X19094Y1772
X1772Y1772
X12795Y19094
M30
